<svg width="24" height="24" viewBox="0 0 24 24" fill="none" xmlns="http://www.w3.org/2000/svg">
<path d="M19.3798 22.75C19.1418 22.7495 18.9066 22.6983 18.6898 22.6L16.9198 21.81C16.7105 21.7226 16.5206 21.5947 16.361 21.4336C16.2014 21.2725 16.0752 21.0814 15.9897 20.8714C15.9042 20.6613 15.861 20.4365 15.8628 20.2097C15.8645 19.9829 15.9111 19.7587 15.9998 19.55L16.3998 18.66C16.812 17.7877 17.0258 16.8348 17.0258 15.87C17.0258 14.9052 16.812 13.9523 16.3998 13.08C15.681 11.5253 15.3088 9.83287 15.3088 8.12001C15.3088 6.40716 15.681 4.71476 16.3998 3.16001L16.7898 2.27001C16.8878 2.05959 17.0267 1.87076 17.1984 1.71453C17.37 1.5583 17.5711 1.43779 17.7898 1.36001C17.9973 1.27337 18.2199 1.22876 18.4448 1.22876C18.6697 1.22876 18.8923 1.27337 19.0998 1.36001L20.8698 2.15001C21.0818 2.24558 21.272 2.38364 21.4285 2.55565C21.585 2.72765 21.7046 2.92995 21.7798 3.15001C21.9543 3.57272 21.9543 4.0473 21.7798 4.47001L21.3898 5.35001C20.9796 6.22291 20.7669 7.17553 20.7669 8.14001C20.7669 9.10449 20.9796 10.0571 21.3898 10.93C22.1112 12.484 22.4849 14.1767 22.4849 15.89C22.4849 17.6033 22.1112 19.296 21.3898 20.85L20.9998 21.74C20.9018 21.9504 20.7629 22.1393 20.5912 22.2955C20.4196 22.4517 20.2185 22.5722 19.9998 22.65C19.8002 22.7179 19.5906 22.7517 19.3798 22.75ZM18.3798 2.75001H18.2998C18.246 2.77325 18.203 2.81618 18.1798 2.87001L17.7898 3.75001C17.1573 5.1165 16.8297 6.60424 16.8297 8.11001C16.8297 9.61578 17.1573 11.1035 17.7898 12.47C18.2878 13.5325 18.5459 14.6916 18.5459 15.865C18.5459 17.0384 18.2878 18.1975 17.7898 19.26L17.3898 20.14C17.3694 20.1946 17.3704 20.2548 17.3927 20.3087C17.4149 20.3625 17.4568 20.4059 17.5098 20.43L19.2798 21.22C19.3314 21.2392 19.3882 21.2392 19.4398 21.22C19.4936 21.1968 19.5366 21.1538 19.5598 21.1L19.9598 20.21C20.5921 18.8452 20.9196 17.3591 20.9196 15.855C20.9196 14.3509 20.5921 12.8648 19.9598 11.5C19.4618 10.4375 19.2037 9.27843 19.2037 8.10501C19.2037 6.93159 19.4618 5.77253 19.9598 4.71001L20.3498 3.83001C20.3689 3.77494 20.3689 3.71508 20.3498 3.66001C20.3237 3.60815 20.2817 3.56607 20.2298 3.54001L18.4598 2.75001H18.3798ZM12.4698 22.75C12.2286 22.7494 11.9901 22.6983 11.7698 22.6L9.9998 21.81C9.79293 21.7214 9.60637 21.5914 9.45159 21.428C9.29682 21.2647 9.1771 21.0714 9.0998 20.86C9.01068 20.6514 8.96473 20.4269 8.96473 20.2C8.96473 19.9731 9.01068 19.7486 9.0998 19.54L9.4998 18.66C9.90732 17.7864 10.1185 16.834 10.1185 15.87C10.1185 14.906 9.90732 13.9537 9.4998 13.08C8.77841 11.526 8.40469 9.83331 8.40469 8.12001C8.40469 6.40671 8.77841 4.71403 9.4998 3.16001L9.8998 2.27001C9.99537 2.05799 10.1334 1.86784 10.3054 1.71132C10.4774 1.55479 10.6797 1.43523 10.8998 1.36001C11.3225 1.18555 11.7971 1.18555 12.2198 1.36001L13.9998 2.19001C14.2068 2.28098 14.3936 2.41209 14.5496 2.57576C14.7056 2.73942 14.8275 2.93238 14.9084 3.14348C14.9893 3.35459 15.0276 3.57964 15.021 3.80562C15.0143 4.0316 14.9629 4.25402 14.8698 4.46001L14.4798 5.34001C14.0696 6.21291 13.8569 7.16553 13.8569 8.13001C13.8569 9.09449 14.0696 10.0471 14.4798 10.92C15.2012 12.474 15.5749 14.1667 15.5749 15.88C15.5749 17.5933 15.2012 19.286 14.4798 20.84L14.0798 21.73C13.9842 21.942 13.8462 22.1322 13.6742 22.2887C13.5022 22.4452 13.2999 22.5648 13.0798 22.64C12.8903 22.708 12.6911 22.7452 12.4898 22.75H12.4698ZM12.3798 21.23C12.4064 21.2425 12.4354 21.249 12.4648 21.249C12.4942 21.249 12.5232 21.2425 12.5498 21.23C12.577 21.2224 12.6021 21.2085 12.6229 21.1894C12.6438 21.1702 12.6598 21.1465 12.6698 21.12L13.0598 20.23C13.6947 18.866 14.0237 17.3796 14.0237 15.875C14.0237 14.3704 13.6947 12.8841 13.0598 11.52C12.5618 10.4575 12.3037 9.29843 12.3037 8.12501C12.3037 6.95159 12.5618 5.79253 13.0598 4.73001L13.4598 3.85001C13.4835 3.79694 13.4852 3.73666 13.4646 3.68233C13.444 3.62799 13.4027 3.58402 13.3498 3.56001L11.5998 2.77001C11.5447 2.75096 11.4849 2.75096 11.4298 2.77001C11.376 2.79325 11.333 2.83618 11.3098 2.89001L10.9198 3.77001C10.2847 5.13577 9.95562 6.6238 9.95562 8.13001C9.95562 9.63622 10.2847 11.1242 10.9198 12.49C11.4178 13.5525 11.6759 14.7116 11.6759 15.885C11.6759 17.0584 11.4178 18.2175 10.9198 19.28L10.5198 20.16C10.5073 20.1866 10.5008 20.2156 10.5008 20.245C10.5008 20.2744 10.5073 20.3034 10.5198 20.33C10.5274 20.3572 10.5413 20.3823 10.5605 20.4032C10.5796 20.424 10.6033 20.4401 10.6298 20.45L12.3798 21.23ZM5.5998 22.75C5.35843 22.7506 5.11975 22.6994 4.8998 22.6L3.1298 21.81C2.92284 21.719 2.73597 21.5879 2.58 21.4243C2.42403 21.2606 2.30207 21.0676 2.22116 20.8565C2.14026 20.6454 2.10201 20.4204 2.10864 20.1944C2.11528 19.9684 2.16665 19.746 2.2598 19.54L2.6498 18.66C3.06 17.7871 3.27267 16.8345 3.27267 15.87C3.27267 14.9055 3.06 13.9529 2.6498 13.08C1.92841 11.526 1.55469 9.83331 1.55469 8.12001C1.55469 6.40671 1.92841 4.71403 2.6498 3.16001L2.9998 2.27001C3.0978 2.05959 3.23669 1.87076 3.40837 1.71453C3.58005 1.5583 3.7811 1.43779 3.9998 1.36001C4.2073 1.27337 4.42994 1.22876 4.6548 1.22876C4.87967 1.22876 5.1023 1.27337 5.3098 1.36001L7.0798 2.15001C7.29182 2.24558 7.48197 2.38364 7.63849 2.55565C7.79502 2.72765 7.91459 2.92995 7.9898 3.15001C8.15994 3.56598 8.16352 4.03147 7.9998 4.45001L7.5998 5.34001C7.18757 6.21234 6.97377 7.16518 6.97377 8.13001C6.97377 9.09484 7.18757 10.0477 7.5998 10.92C8.31856 12.4748 8.69083 14.1672 8.69083 15.88C8.69083 17.5929 8.31856 19.2853 7.5998 20.84L7.2098 21.73C7.1118 21.9404 6.97292 22.1293 6.80123 22.2855C6.62955 22.4417 6.42851 22.5622 6.2098 22.64C6.0142 22.7111 5.80791 22.7483 5.5998 22.75ZM5.5098 21.23C5.5364 21.2425 5.56542 21.249 5.5948 21.249C5.62418 21.249 5.6532 21.2425 5.6798 21.23C5.70704 21.2224 5.7321 21.2085 5.75295 21.1894C5.7738 21.1702 5.78985 21.1465 5.7998 21.12L6.1898 20.23C6.82209 18.8652 7.14961 17.3791 7.14961 15.875C7.14961 14.3709 6.82209 12.8848 6.1898 11.52C5.69183 10.4575 5.43369 9.29843 5.43369 8.12501C5.43369 6.95159 5.69183 5.79253 6.1898 4.73001L6.5898 3.84001C6.61091 3.78877 6.61091 3.73125 6.5898 3.68001C6.56755 3.62886 6.52883 3.58662 6.4798 3.56001L4.6998 2.77001C4.64819 2.75086 4.59142 2.75086 4.5398 2.77001C4.48597 2.79325 4.44304 2.83618 4.4198 2.89001L3.9998 3.77001C3.36751 5.13479 3.03999 6.62088 3.03999 8.12501C3.03999 9.62914 3.36751 11.1152 3.9998 12.48C4.49777 13.5425 4.75591 14.7016 4.75591 15.875C4.75591 17.0484 4.49777 18.2075 3.9998 19.27L3.6098 20.15C3.58612 20.2031 3.58439 20.2634 3.605 20.3177C3.62561 20.372 3.66688 20.416 3.7198 20.44L5.5098 21.23Z" fill="black"/>
</svg>
