<svg width="24" height="24" viewBox="0 0 24 24" fill="none" xmlns="http://www.w3.org/2000/svg">
<path d="M6.99977 20.9999C6.51866 20.9981 6.04638 20.8705 5.62977 20.6299L2.62977 18.8999C2.21489 18.6557 1.87053 18.308 1.63038 17.8909C1.39023 17.4737 1.26252 17.0012 1.25977 16.5199V12.9999C1.26154 12.5183 1.38882 12.0455 1.62907 11.6282C1.86932 11.2108 2.21423 10.8633 2.62977 10.6199L4.74977 9.42988C4.92037 9.33851 5.1197 9.31663 5.30606 9.36881C5.49243 9.421 5.65141 9.5432 5.74977 9.70988C5.84456 9.87874 5.86937 10.078 5.8189 10.265C5.76842 10.452 5.64667 10.6117 5.47977 10.7099L3.36977 11.9999C3.19286 12.1035 3.04392 12.2488 2.93587 12.4231C2.82783 12.5973 2.76394 12.7953 2.74977 12.9999V16.4699C2.75069 16.6882 2.80833 16.9025 2.91702 17.0918C3.0257 17.2812 3.18172 17.439 3.36977 17.5499L6.36977 19.2799C6.56043 19.3877 6.77574 19.4443 6.99477 19.4443C7.21379 19.4443 7.4291 19.3877 7.61977 19.2799L9.86977 17.9999C9.95512 17.9506 10.0493 17.9187 10.1471 17.9058C10.2448 17.893 10.344 17.8996 10.4392 17.9251C10.5344 17.9506 10.6236 17.9947 10.7018 18.0547C10.7799 18.1147 10.8455 18.1895 10.8948 18.2749C10.944 18.3602 10.976 18.4545 10.9888 18.5522C11.0016 18.6499 10.9951 18.7492 10.9696 18.8443C10.944 18.9395 10.9 19.0287 10.84 19.1069C10.7799 19.1851 10.7051 19.2506 10.6198 19.2999L8.36977 20.5999C7.95607 20.851 7.4836 20.989 6.99977 20.9999ZM19.7998 21.0799C19.5572 21.2223 19.281 21.2974 18.9998 21.2974C18.7185 21.2974 18.4423 21.2223 18.1998 21.0799C17.9574 20.9399 17.7559 20.7388 17.6155 20.4967C17.4752 20.2545 17.4008 19.9798 17.3998 19.6999C17.4008 19.42 17.4752 19.1452 17.6155 18.9031C17.7559 18.6609 17.9574 18.4598 18.1998 18.3199C18.4423 18.1775 18.7185 18.1024 18.9998 18.1024C19.281 18.1024 19.5572 18.1775 19.7998 18.3199C20.0422 18.4598 20.2436 18.6609 20.384 18.9031C20.5244 19.1452 20.5988 19.42 20.5998 19.6999C20.597 19.9781 20.5218 20.2508 20.3815 20.491C20.2412 20.7313 20.0407 20.9308 19.7998 21.0699V21.0799ZM16.3698 18.2499L21.3698 15.3599C21.7849 15.1202 22.1305 14.7766 22.3725 14.3627C22.6145 13.9489 22.7445 13.4792 22.7498 12.9999V7.19988C22.7487 6.71564 22.6207 6.24013 22.3786 5.82078C22.1365 5.40142 21.7886 5.05287 21.3698 4.80988L16.3698 1.92988C15.9514 1.68949 15.4773 1.56299 14.9948 1.56299C14.5122 1.56299 14.0381 1.68949 13.6198 1.92988L8.61977 4.80988C8.20344 5.05489 7.85814 5.40415 7.61791 5.82325C7.37767 6.24235 7.25079 6.71681 7.24977 7.19988V12.9999C7.25153 13.4814 7.37882 13.9542 7.61907 14.3716C7.85932 14.789 8.20423 15.1365 8.61977 15.3799L13.6198 18.2699C14.044 18.4961 14.5191 18.6097 14.9998 18.5999C15.48 18.6016 15.9524 18.4774 16.3698 18.2399V18.2499ZM15.6198 3.24988L20.6198 6.12988C20.8111 6.24037 20.9701 6.39924 21.0807 6.59055C21.1912 6.78187 21.2496 6.9989 21.2498 7.21988V12.9999C21.2488 13.2194 21.1901 13.4347 21.0795 13.6243C20.9689 13.8139 20.8104 13.971 20.6198 14.0799L15.6198 16.9699C15.4291 17.0777 15.2138 17.1343 14.9948 17.1343C14.7757 17.1343 14.5604 17.0777 14.3698 16.9699L9.36977 14.0799C9.18172 13.969 9.0257 13.8112 8.91702 13.6218C8.80833 13.4325 8.75069 13.2182 8.74977 12.9999V7.19988C8.75092 6.98027 8.80856 6.76465 8.91714 6.57375C9.02572 6.38286 9.18159 6.22311 9.36977 6.10988L14.3698 3.22988C14.5617 3.12016 14.7787 3.06162 14.9998 3.05988C15.2178 3.06058 15.4318 3.11925 15.6198 3.22988V3.24988Z" fill="black"/>
</svg>
