<svg width="24" height="24" viewBox="0 0 24 24" fill="none" xmlns="http://www.w3.org/2000/svg">
<path d="M21.31 6.62002C20.0046 4.35627 17.9208 2.64432 15.4467 1.80318C12.9726 0.962047 10.2771 1.0491 7.86251 2.04813C5.44788 3.04715 3.47882 4.89 2.32227 7.23326C1.16571 9.57652 0.90055 12.2604 1.57619 14.7846C2.25184 17.3089 3.8222 19.5015 5.99465 20.9537C8.1671 22.4059 10.7934 23.0188 13.3843 22.678C15.9751 22.3373 18.3537 21.0662 20.0768 19.1017C21.7999 17.1372 22.75 14.6132 22.75 12C22.7486 10.1116 22.2521 8.25662 21.31 6.62002ZM14.45 16.25H9.53997L7.08997 12L9.54997 7.75002H14.46L16.91 12L14.45 16.25ZM2.74997 12C2.74907 10.8357 2.96966 9.68188 3.39997 8.60002L7.80997 16.25H3.80997C3.12511 14.9373 2.76181 13.4806 2.74997 12ZM21.25 12C21.2509 13.1643 21.0303 14.3182 20.6 15.4L16.19 7.75002H20.19C20.8748 9.06277 21.2381 10.5194 21.25 12ZM19.25 6.25002H10.41L12.41 2.76002C13.7314 2.82134 15.0244 3.16446 16.2024 3.76638C17.3804 4.36829 18.416 5.2151 19.24 6.25002H19.25ZM10.65 2.85002L8.45997 6.63002L6.22997 10.5L4.20997 7.00002C4.92649 5.89216 5.8703 4.94925 6.97884 4.23379C8.08738 3.51832 9.33533 3.04664 10.64 2.85002H10.65ZM4.75997 17.75H13.59L11.59 21.24C10.2681 21.1806 8.97444 20.8384 7.7962 20.2363C6.61795 19.6342 5.58257 18.7864 4.75997 17.75ZM13.36 21.15L15.54 17.38L17.77 13.52L19.77 17.01C19.0546 18.1137 18.1135 19.0533 17.0086 19.7669C15.9038 20.4805 14.6602 20.9519 13.36 21.15Z" fill="black"/>
</svg>
