<svg width="24" height="24" viewBox="0 0 24 24" fill="none" xmlns="http://www.w3.org/2000/svg">
<path d="M11.9998 22.7501C11.5512 22.7515 11.1064 22.6666 10.6898 22.5001L2.47984 19.2101C2.11832 19.0652 1.80848 18.8153 1.59024 18.4927C1.372 18.1701 1.25537 17.7896 1.25537 17.4001C1.25537 17.0106 1.372 16.63 1.59024 16.3075C1.80848 15.9849 2.11832 15.735 2.47984 15.5901C2.57279 15.5496 2.67297 15.5284 2.77435 15.5278C2.87572 15.5271 2.97618 15.547 3.06965 15.5863C3.16311 15.6255 3.24765 15.6833 3.31815 15.7562C3.38866 15.829 3.44366 15.9154 3.47984 16.0101C3.51896 16.1062 3.53745 16.2094 3.53409 16.3131C3.53073 16.4168 3.5056 16.5186 3.46034 16.612C3.41507 16.7054 3.35069 16.7881 3.27135 16.855C3.19202 16.9219 3.09951 16.9713 2.99984 17.0001C2.91652 17.0341 2.84531 17.0923 2.7954 17.1671C2.74549 17.242 2.71917 17.3301 2.71984 17.4201C2.71777 17.5104 2.74353 17.5991 2.79362 17.6742C2.84371 17.7494 2.91571 17.8073 2.99984 17.8401L11.2198 21.1201C11.7009 21.3147 12.2388 21.3147 12.7198 21.1201L20.9998 17.8201C21.084 17.7873 21.156 17.7294 21.2061 17.6542C21.2561 17.5791 21.2819 17.4904 21.2798 17.4001C21.2766 17.3135 21.2485 17.2298 21.1988 17.1588C21.1491 17.0879 21.0801 17.0327 20.9998 17.0001C20.9042 16.9651 20.8169 16.9108 20.7432 16.8405C20.6696 16.7702 20.6112 16.6855 20.5718 16.5917C20.5324 16.4978 20.5127 16.3968 20.5141 16.295C20.5155 16.1932 20.5379 16.0928 20.5798 16.0001C20.616 15.9054 20.671 15.819 20.7415 15.7462C20.812 15.6733 20.8966 15.6155 20.99 15.5763C21.0835 15.537 21.184 15.5171 21.2853 15.5178C21.3867 15.5184 21.4869 15.5396 21.5798 15.5801C21.9414 15.725 22.2512 15.9749 22.4694 16.2975C22.6877 16.62 22.8043 17.0006 22.8043 17.3901C22.8043 17.7796 22.6877 18.1601 22.4694 18.4827C22.2512 18.8053 21.9414 19.0552 21.5798 19.2001L13.3098 22.5001C12.8932 22.6666 12.4485 22.7515 11.9998 22.7501ZM11.9998 17.3501C11.5506 17.3478 11.1059 17.2596 10.6898 17.0901L2.47984 13.8101C2.11832 13.6652 1.80848 13.4153 1.59024 13.0927C1.372 12.7701 1.25537 12.3896 1.25537 12.0001C1.25537 11.6106 1.372 11.23 1.59024 10.9075C1.80848 10.5849 2.11832 10.335 2.47984 10.1901L3.47984 9.80009C3.57216 9.75936 3.67176 9.73768 3.77266 9.73635C3.87356 9.73502 3.97369 9.75407 4.06706 9.79235C4.16043 9.83063 4.24511 9.88735 4.31604 9.95913C4.38696 10.0309 4.44268 10.1163 4.47984 10.2101C4.51888 10.3032 4.53896 10.4032 4.53893 10.5042C4.5389 10.6051 4.51874 10.7051 4.47964 10.7982C4.44053 10.8913 4.38327 10.9757 4.31119 11.0464C4.23911 11.1171 4.15366 11.1728 4.05984 11.2101L3.05984 11.6001C2.97571 11.6329 2.90371 11.6908 2.85362 11.7659C2.80353 11.8411 2.77777 11.9298 2.77984 12.0201C2.77917 12.1101 2.80549 12.1982 2.8554 12.273C2.90531 12.3479 2.97652 12.4061 3.05984 12.4401L11.2798 15.7201C11.7609 15.9147 12.2988 15.9147 12.7798 15.7201L20.9998 12.4201C21.0831 12.3861 21.1544 12.3279 21.2043 12.253C21.2542 12.1782 21.2805 12.0901 21.2798 12.0001C21.2819 11.9098 21.2561 11.8211 21.2061 11.7459C21.156 11.6708 21.084 11.6129 20.9998 11.5801L19.9998 11.1901C19.9079 11.154 19.824 11.1001 19.7529 11.0316C19.6818 10.963 19.6249 10.8811 19.5854 10.7906C19.5459 10.7001 19.5247 10.6026 19.5229 10.5039C19.5211 10.4052 19.5387 10.307 19.5748 10.2151C19.611 10.1232 19.6648 10.0392 19.7334 9.96814C19.8019 9.89703 19.8838 9.84012 19.9743 9.80066C20.0649 9.76119 20.1623 9.73995 20.261 9.73813C20.3598 9.73632 20.4579 9.75397 20.5498 9.79009L21.5498 10.1901C21.9114 10.335 22.2212 10.5849 22.4394 10.9075C22.6577 11.23 22.7743 11.6106 22.7743 12.0001C22.7743 12.3896 22.6577 12.7701 22.4394 13.0927C22.2212 13.4153 21.9114 13.6652 21.5498 13.8101L13.3398 17.0901C12.9144 17.2634 12.4592 17.3517 11.9998 17.3501ZM11.9998 12.0001C11.5506 11.9978 11.1059 11.9096 10.6898 11.7401L2.47984 8.41009C2.11832 8.26517 1.80848 8.01532 1.59024 7.69272C1.372 7.37013 1.25537 6.98957 1.25537 6.60009C1.25537 6.2106 1.372 5.83005 1.59024 5.50745C1.80848 5.18485 2.11832 4.935 2.47984 4.79009L10.6898 1.50009C11.531 1.16501 12.4686 1.16501 13.3098 1.50009L21.5198 4.79009C21.8814 4.935 22.1912 5.18485 22.4094 5.50745C22.6277 5.83005 22.7443 6.2106 22.7443 6.60009C22.7443 6.98957 22.6277 7.37013 22.4094 7.69272C22.1912 8.01532 21.8814 8.26517 21.5198 8.41009L13.3098 11.6901C12.8972 11.8767 12.4524 11.982 11.9998 12.0001ZM11.2498 10.3501C11.7309 10.5447 12.2688 10.5447 12.7498 10.3501L20.9998 7.00009C21.0831 6.9661 21.1544 6.90791 21.2043 6.83304C21.2542 6.75818 21.2805 6.67006 21.2798 6.58009C21.2779 6.49322 21.2502 6.40887 21.2004 6.33768C21.1506 6.2665 21.0808 6.21166 20.9998 6.18009L12.7498 2.89009C12.2688 2.69549 11.7309 2.69549 11.2498 2.89009L2.99984 6.18009C2.91571 6.2129 2.84371 6.2708 2.79362 6.34594C2.74353 6.42108 2.71777 6.50981 2.71984 6.60009C2.72307 6.68663 2.7512 6.77041 2.80087 6.84136C2.85054 6.91232 2.91962 6.96743 2.99984 7.00009L11.2498 10.3501Z" fill="black"/>
</svg>
