<svg width="24" height="24" viewBox="0 0 24 24" fill="none" xmlns="http://www.w3.org/2000/svg">
<path d="M12 22.7499C11.7699 22.7511 11.5418 22.7067 11.3289 22.6191C11.1161 22.5316 10.9227 22.4027 10.76 22.2399L1.76002 13.2399C1.43271 12.9102 1.24902 12.4645 1.24902 11.9999C1.24902 11.5353 1.43271 11.0896 1.76002 10.7599L10.76 1.75989C11.0946 1.44194 11.5385 1.26465 12 1.26465C12.4616 1.26465 12.9055 1.44194 13.24 1.75989L22.24 10.7599C22.5673 11.0896 22.751 11.5353 22.751 11.9999C22.751 12.4645 22.5673 12.9102 22.24 13.2399L13.24 22.2399C13.0773 22.4027 12.884 22.5316 12.6711 22.6191C12.4583 22.7067 12.2302 22.7511 12 22.7499ZM12 2.74989C11.9334 2.75023 11.8693 2.77516 11.82 2.81989L2.82002 11.8199C2.77575 11.8694 2.75127 11.9335 2.75127 11.9999C2.75127 12.0663 2.77575 12.1304 2.82002 12.1799L11.82 21.1799C11.8406 21.2068 11.867 21.2287 11.8974 21.2437C11.9277 21.2587 11.9612 21.2666 11.995 21.2666C12.0289 21.2666 12.0623 21.2587 12.0927 21.2437C12.123 21.2287 12.1495 21.2068 12.17 21.1799L21.17 12.1799C21.2143 12.1304 21.2388 12.0663 21.2388 11.9999C21.2388 11.9335 21.2143 11.8694 21.17 11.8199L12.17 2.81989C12.1233 2.77739 12.0631 2.75262 12 2.74989ZM12 17.5099C11.802 17.5056 11.6129 17.4271 11.47 17.2899L6.71002 12.5299C6.56957 12.3893 6.49068 12.1986 6.49068 11.9999C6.49068 11.8011 6.56957 11.6105 6.71002 11.4699L11.47 6.70989C11.6131 6.57414 11.8028 6.49846 12 6.49846C12.1972 6.49846 12.387 6.57414 12.53 6.70989L17.29 11.4699C17.4305 11.6105 17.5094 11.8011 17.5094 11.9999C17.5094 12.1986 17.4305 12.3893 17.29 12.5299L12.53 17.2899C12.3872 17.4271 12.198 17.5056 12 17.5099ZM8.30002 11.9999L12 15.6999L15.7 11.9999L12 8.29989L8.30002 11.9999Z" fill="black"/>
</svg>
