<svg width="24" height="24" viewBox="0 0 24 24" fill="none" xmlns="http://www.w3.org/2000/svg">
<path d="M12 22.75C9.87386 22.75 7.79545 22.1195 6.02762 20.9383C4.2598 19.7571 2.88194 18.0782 2.0683 16.1139C1.25466 14.1495 1.04177 11.9881 1.45656 9.90278C1.87135 7.81749 2.89519 5.90202 4.39861 4.39861C5.90202 2.89519 7.81749 1.87135 9.90278 1.45656C11.9881 1.04177 14.1495 1.25466 16.1139 2.0683C18.0782 2.88194 19.7571 4.2598 20.9383 6.02762C22.1195 7.79545 22.75 9.87386 22.75 12C22.7474 14.8503 21.6139 17.583 19.5985 19.5985C17.583 21.6139 14.8503 22.7474 12 22.75ZM12 2.75C10.1705 2.75 8.38213 3.29251 6.86098 4.30891C5.33983 5.32531 4.15423 6.76997 3.45412 8.46018C2.75401 10.1504 2.57083 12.0103 2.92774 13.8046C3.28465 15.5989 4.16563 17.2471 5.45927 18.5407C6.7529 19.8344 8.40109 20.7154 10.1954 21.0723C11.9897 21.4292 13.8496 21.246 15.5398 20.5459C17.23 19.8458 18.6747 18.6602 19.6911 17.139C20.7075 15.6179 21.25 13.8295 21.25 12C21.2474 9.54756 20.272 7.19633 18.5378 5.46219C16.8037 3.72805 14.4524 2.75265 12 2.75ZM19.73 12C19.7274 9.95069 18.9121 7.98607 17.463 6.53699C16.0139 5.08791 14.0493 4.27265 12 4.27C11.8011 4.27 11.6103 4.34902 11.4697 4.48967C11.329 4.63033 11.25 4.82109 11.25 5.02C11.25 5.21892 11.329 5.40968 11.4697 5.55033C11.6103 5.69099 11.8011 5.77 12 5.77C13.2322 5.77 14.4367 6.13539 15.4612 6.81995C16.4857 7.50451 17.2842 8.4775 17.7558 9.61589C18.2273 10.7543 18.3507 12.0069 18.1103 13.2154C17.8699 14.4239 17.2766 15.534 16.4053 16.4053C15.534 17.2766 14.4239 17.8699 13.2154 18.1103C12.0069 18.3507 10.7543 18.2273 9.61589 17.7558C8.4775 17.2842 7.50451 16.4857 6.81995 15.4612C6.13539 14.4367 5.77 13.2322 5.77 12C5.77 11.8011 5.69099 11.6103 5.55033 11.4697C5.40968 11.329 5.21892 11.25 5.02 11.25C4.82109 11.25 4.63033 11.329 4.48967 11.4697C4.34902 11.6103 4.27 11.8011 4.27 12C4.27 14.0501 5.08441 16.0163 6.53407 17.4659C7.98373 18.9156 9.94988 19.73 12 19.73C14.0501 19.73 16.0163 18.9156 17.4659 17.4659C18.9156 16.0163 19.73 14.0501 19.73 12ZM16.84 12C16.84 10.7164 16.3301 9.48528 15.4224 8.57761C14.5147 7.66993 13.2837 7.16 12 7.16C11.8011 7.16 11.6103 7.23902 11.4697 7.37967C11.329 7.52033 11.25 7.71109 11.25 7.91C11.25 8.10892 11.329 8.29968 11.4697 8.44034C11.6103 8.58099 11.8011 8.66 12 8.66C12.8858 8.66 13.7354 9.0119 14.3617 9.63827C14.9881 10.2646 15.34 11.1142 15.34 12C15.34 12.8858 14.9881 13.7354 14.3617 14.3617C13.7354 14.9881 12.8858 15.34 12 15.34C11.8011 15.34 11.6103 15.419 11.4697 15.5597C11.329 15.7003 11.25 15.8911 11.25 16.09C11.25 16.2889 11.329 16.4797 11.4697 16.6203C11.6103 16.761 11.8011 16.84 12 16.84C13.2837 16.84 14.5147 16.3301 15.4224 15.4224C16.3301 14.5147 16.84 13.2837 16.84 12Z" fill="black"/>
</svg>
