<svg width="24" height="24" viewBox="0 0 24 24" fill="none" xmlns="http://www.w3.org/2000/svg">
<path d="M12 22.75C9.87386 22.75 7.79545 22.1195 6.02762 20.9383C4.2598 19.7571 2.88194 18.0782 2.0683 16.1139C1.25466 14.1495 1.04177 11.9881 1.45656 9.90278C1.87135 7.81749 2.89519 5.90202 4.39861 4.39861C5.90202 2.89519 7.81749 1.87135 9.90278 1.45656C11.9881 1.04177 14.1495 1.25466 16.1139 2.0683C18.0782 2.88194 19.7571 4.2598 20.9383 6.02762C22.1195 7.79545 22.75 9.87386 22.75 12C22.7474 14.8503 21.6139 17.583 19.5985 19.5985C17.583 21.6139 14.8503 22.7474 12 22.75ZM12 2.75C10.1705 2.75 8.38213 3.29251 6.86098 4.30891C5.33983 5.32531 4.15423 6.76997 3.45412 8.46018C2.75401 10.1504 2.57083 12.0103 2.92774 13.8046C3.28465 15.5989 4.16563 17.2471 5.45927 18.5407C6.7529 19.8344 8.40109 20.7154 10.1954 21.0723C11.9897 21.4292 13.8496 21.246 15.5398 20.5459C17.23 19.8458 18.6747 18.6602 19.6911 17.139C20.7075 15.6179 21.25 13.8295 21.25 12C21.2474 9.54756 20.272 7.19633 18.5378 5.46219C16.8037 3.72805 14.4524 2.75265 12 2.75ZM12 18.75C10.665 18.75 9.35994 18.3541 8.24991 17.6124C7.13987 16.8707 6.27471 15.8165 5.76382 14.5831C5.25293 13.3497 5.11925 11.9925 5.3797 10.6831C5.64015 9.37377 6.28303 8.17104 7.22703 7.22703C8.17104 6.28303 9.37377 5.64015 10.6831 5.3797C11.9925 5.11925 13.3497 5.25293 14.5831 5.76382C15.8165 6.27471 16.8707 7.13987 17.6124 8.24991C18.3541 9.35994 18.75 10.665 18.75 12C18.7474 13.7894 18.0354 15.5048 16.7701 16.7701C15.5048 18.0354 13.7894 18.7474 12 18.75ZM12 6.75C10.9617 6.75 9.94662 7.05791 9.08326 7.63479C8.2199 8.21167 7.547 9.03161 7.14964 9.99092C6.75228 10.9502 6.64831 12.0058 6.85088 13.0242C7.05345 14.0426 7.55347 14.9781 8.28769 15.7123C9.02192 16.4465 9.95738 16.9466 10.9758 17.1491C11.9942 17.3517 13.0498 17.2477 14.0091 16.8504C14.9684 16.453 15.7883 15.7801 16.3652 14.9167C16.9421 14.0534 17.25 13.0384 17.25 12C17.2474 10.6084 16.6934 9.27461 15.7094 8.29061C14.7254 7.30662 13.3916 6.75265 12 6.75Z" fill="black"/>
</svg>
