<svg width="24" height="24" viewBox="0 0 24 24" fill="none" xmlns="http://www.w3.org/2000/svg">
<path d="M22.7401 7.9999C22.7494 7.93691 22.7494 7.87289 22.7401 7.8099C22.7414 7.78658 22.7414 7.76322 22.7401 7.7399C22.7019 7.65922 22.6513 7.585 22.5901 7.5199L17.0001 1.9199C16.7874 1.7073 16.5348 1.5387 16.2568 1.42374C15.9788 1.30878 15.6809 1.24971 15.3801 1.2499H8.00014C7.93715 1.24059 7.87314 1.24059 7.81014 1.2499H7.73014C7.65224 1.28346 7.58108 1.33089 7.52014 1.3899L1.92014 6.9999C1.70754 7.21269 1.53895 7.46528 1.42399 7.74325C1.30903 8.02121 1.24995 8.3191 1.25014 8.6199V15.9999C1.25014 15.9999 1.25014 15.9999 1.25014 16.0499C1.24084 16.1129 1.24084 16.1769 1.25014 16.2399C1.25014 16.2399 1.25014 16.2899 1.25014 16.3199C1.29086 16.3961 1.34128 16.4667 1.40014 16.5299L7.00014 22.0799C7.43233 22.5056 8.01351 22.746 8.62014 22.7499H16.0001C16.0999 22.7502 16.1987 22.7298 16.2901 22.6899C16.3794 22.652 16.4608 22.5977 16.5301 22.5299L22.0801 16.9999C22.5059 16.5677 22.7462 15.9865 22.7501 15.3799V7.9999H22.7401ZM15.9201 2.9999L20.1901 7.2699H8.75014V2.7499H15.3601C15.4654 2.75214 15.5692 2.77541 15.6654 2.81834C15.7616 2.86128 15.8482 2.923 15.9201 2.9999ZM15.2501 15.2699H8.75014V8.7499H15.2501V15.2699ZM2.75014 8.6399C2.75238 8.53461 2.77565 8.43082 2.81859 8.33465C2.86152 8.23848 2.92325 8.15187 3.00014 8.0799L7.25014 3.8099V15.2499H2.75014V8.6399ZM8.08014 20.9999L3.81014 16.7499H15.2501V21.2499H8.64014C8.53485 21.2477 8.43107 21.2244 8.3349 21.1815C8.23872 21.1385 8.15211 21.0768 8.08014 20.9999ZM21.2501 15.3399C21.2467 15.5489 21.1646 15.7488 21.0201 15.8999L16.7501 20.1699V8.7499H21.2501V15.3399Z" fill="black"/>
</svg>
