<svg width="24" height="24" viewBox="0 0 24 24" fill="none" xmlns="http://www.w3.org/2000/svg">
<path d="M22.7102 11.16C22.4943 8.46554 21.2732 5.95075 19.2891 4.11491C17.3051 2.27908 14.7033 1.25643 12.0002 1.25C-2.25982 1.84 -2.25982 22.16 12.0002 22.75C14.7033 22.7436 17.3051 21.7209 19.2891 19.8851C21.2732 18.0492 22.4943 15.5345 22.7102 12.84C22.7635 12.2813 22.7635 11.7187 22.7102 11.16ZM12.0002 21.25C9.54774 21.2474 7.1965 20.272 5.46236 18.5378C3.72822 16.8037 2.75282 14.4524 2.75018 12C2.61018 5 10.8102 0.34 16.7502 4.06C15.5235 3.72481 14.2362 3.67563 12.9875 3.91625C11.7388 4.15687 10.5619 4.68086 9.54761 5.44789C8.53328 6.21491 7.70852 7.20449 7.13685 8.34044C6.56517 9.47638 6.26183 10.7284 6.25018 12C6.26223 13.2705 6.56547 14.5214 7.13658 15.6564C7.70768 16.7914 8.53145 17.7803 9.54454 18.5471C10.5576 19.3139 11.7331 19.8382 12.9805 20.0797C14.2279 20.3212 15.5141 20.2734 16.7402 19.94C15.3079 20.7977 13.6696 21.2505 12.0002 21.25ZM12.0002 7.75C13.1273 7.75 14.2084 8.19777 15.0054 8.9948C15.8024 9.79183 16.2502 10.8728 16.2502 12C16.2502 13.1272 15.8024 14.2082 15.0054 15.0052C14.2084 15.8022 13.1273 16.25 12.0002 16.25C10.873 16.25 9.792 15.8022 8.99497 15.0052C8.19794 14.2082 7.75018 13.1272 7.75018 12C7.75018 10.8728 8.19794 9.79183 8.99497 8.9948C9.792 8.19777 10.873 7.75 12.0002 7.75ZM10.7602 17.62C11.6003 17.8053 12.4712 17.7998 13.3089 17.6038C14.1466 17.4078 14.9296 17.0263 15.6002 16.4875C16.2709 15.9486 16.8121 15.2662 17.1839 14.4904C17.5558 13.7146 17.7488 12.8653 17.7488 12.005C17.7488 11.1447 17.5558 10.2954 17.1839 9.5196C16.8121 8.74382 16.2709 8.06138 15.6002 7.52255C14.9296 6.98372 14.1466 6.60224 13.3089 6.40623C12.4712 6.21022 11.6003 6.20468 10.7602 6.39C11.7756 5.71579 12.9548 5.32956 14.1724 5.27241C15.3899 5.21527 16.6001 5.48935 17.6742 6.06549C18.7483 6.64163 19.6461 7.49825 20.272 8.54416C20.8978 9.59008 21.2284 10.7861 21.2284 12.005C21.2284 13.2239 20.8978 14.4199 20.272 15.4658C19.6461 16.5118 18.7483 17.3684 17.6742 17.9445C16.6001 18.5206 15.3899 18.7947 14.1724 18.7376C12.9548 18.6804 11.7756 18.2942 10.7602 17.62Z" fill="black"/>
</svg>
