<svg width="24" height="24" viewBox="0 0 24 24" fill="none" xmlns="http://www.w3.org/2000/svg">
<path d="M21 7.75H3C2.53587 7.75 2.09075 7.56563 1.76256 7.23744C1.43437 6.90925 1.25 6.46413 1.25 6V4C1.25 3.53587 1.43437 3.09075 1.76256 2.76256C2.09075 2.43437 2.53587 2.25 3 2.25H21C21.4633 2.25263 21.9069 2.43784 22.2345 2.76546C22.5622 3.09309 22.7474 3.53668 22.75 4V6C22.75 6.46413 22.5656 6.90925 22.2374 7.23744C21.9092 7.56563 21.4641 7.75 21 7.75ZM3 3.75C2.9337 3.75 2.87011 3.77634 2.82322 3.82322C2.77634 3.87011 2.75 3.9337 2.75 4V6C2.75 6.0663 2.77634 6.12989 2.82322 6.17678C2.87011 6.22366 2.9337 6.25 3 6.25H21C21.0663 6.25 21.1299 6.22366 21.1768 6.17678C21.2237 6.12989 21.25 6.0663 21.25 6V4C21.25 3.9337 21.2237 3.87011 21.1768 3.82322C21.1299 3.77634 21.0663 3.75 21 3.75H3ZM21 21.75H3C2.53587 21.75 2.09075 21.5656 1.76256 21.2374C1.43437 20.9092 1.25 20.4641 1.25 20V18C1.25 17.5359 1.43437 17.0908 1.76256 16.7626C2.09075 16.4344 2.53587 16.25 3 16.25H21C21.4633 16.2526 21.9069 16.4378 22.2345 16.7655C22.5622 17.0931 22.7474 17.5367 22.75 18V20C22.75 20.4641 22.5656 20.9092 22.2374 21.2374C21.9092 21.5656 21.4641 21.75 21 21.75ZM3 17.75C2.9337 17.75 2.87011 17.7763 2.82322 17.8232C2.77634 17.8701 2.75 17.9337 2.75 18V20C2.75 20.0663 2.77634 20.1299 2.82322 20.1768C2.87011 20.2237 2.9337 20.25 3 20.25H21C21.0663 20.25 21.1299 20.2237 21.1768 20.1768C21.2237 20.1299 21.25 20.0663 21.25 20V18C21.25 17.9337 21.2237 17.8701 21.1768 17.8232C21.1299 17.7763 21.0663 17.75 21 17.75H3ZM21 14.75H3C2.77019 14.75 2.54262 14.7047 2.3303 14.6168C2.11798 14.5288 1.92507 14.3999 1.76256 14.2374C1.60006 14.0749 1.47116 13.882 1.38321 13.6697C1.29527 13.4574 1.25 13.2298 1.25 13V11C1.25 10.5359 1.43437 10.0908 1.76256 9.76256C2.09075 9.43437 2.53587 9.25 3 9.25H21C21.4633 9.25262 21.9069 9.43784 22.2345 9.76546C22.5622 10.0931 22.7474 10.5367 22.75 11V13C22.75 13.2298 22.7047 13.4574 22.6168 13.6697C22.5288 13.882 22.3999 14.0749 22.2374 14.2374C22.0749 14.3999 21.882 14.5288 21.6697 14.6168C21.4574 14.7047 21.2298 14.75 21 14.75ZM3 10.75C2.9337 10.75 2.87011 10.7763 2.82322 10.8232C2.77634 10.8701 2.75 10.9337 2.75 11V13C2.75 13.0663 2.77634 13.1299 2.82322 13.1768C2.87011 13.2237 2.9337 13.25 3 13.25H21C21.0663 13.25 21.1299 13.2237 21.1768 13.1768C21.2237 13.1299 21.25 13.0663 21.25 13V11C21.25 10.9337 21.2237 10.8701 21.1768 10.8232C21.1299 10.7763 21.0663 10.75 21 10.75H3Z" fill="black"/>
</svg>
