<svg width="24" height="24" viewBox="0 0 24 24" fill="none" xmlns="http://www.w3.org/2000/svg">
<path d="M22.7498 11.9999C22.7476 11.3288 22.684 10.6594 22.5598 9.9999C22.2791 8.5264 21.6895 7.12906 20.8298 5.8999C19.8454 4.47483 18.5315 3.30846 16.9998 2.4999C14.6885 1.27547 12.009 0.93918 9.46675 1.55447C6.92455 2.16976 4.69538 3.69408 3.19977 5.8399C2.32458 7.08487 1.72772 8.50369 1.44977 9.9999C1.32556 10.6594 1.26196 11.3288 1.25977 11.9999C1.26241 14.8484 2.39447 17.5797 4.40775 19.5948C6.42103 21.61 9.15123 22.7446 11.9998 22.7499C12.4411 22.7455 12.8819 22.7154 13.3198 22.6599C15.9192 22.334 18.3107 21.0717 20.0465 19.1095C21.7823 17.1473 22.7434 14.6197 22.7498 11.9999ZM2.74977 11.9999C2.75284 11.6455 2.77621 11.2916 2.81977 10.9399C4.78247 11.337 6.56432 12.3577 7.89977 13.8499C7.96575 13.9296 8.0475 13.9948 8.1399 14.0414C8.23229 14.0879 8.33333 14.1149 8.43664 14.1205C8.53996 14.1262 8.64332 14.1104 8.74023 14.0741C8.83714 14.0379 8.92551 13.982 8.99977 13.9099C9.069 13.8411 9.12395 13.7593 9.16145 13.6692C9.19895 13.5791 9.21825 13.4825 9.21825 13.3849C9.21825 13.2873 9.19895 13.1907 9.16145 13.1006C9.12395 13.0105 9.069 12.9287 8.99977 12.8599C7.45838 11.1182 5.3901 9.92775 3.10977 9.4699C3.33817 8.65228 3.67446 7.86872 4.10977 7.1399C6.3604 7.68326 8.42921 8.80731 10.1098 10.3999C10.2504 10.5318 10.437 10.6035 10.6298 10.5999C10.7311 10.6029 10.8318 10.5839 10.925 10.5442C11.0183 10.5045 11.1018 10.445 11.1698 10.3699C11.3102 10.2293 11.3891 10.0387 11.3891 9.8399C11.3891 9.64115 11.3102 9.45053 11.1698 9.3099C9.47102 7.69676 7.41518 6.5078 5.16977 5.8399C6.35063 4.51039 7.89148 3.55158 9.60589 3.0795C11.3203 2.60742 13.1348 2.64229 14.8298 3.1799C13.0218 4.03384 11.3664 5.1791 9.92977 6.5699C9.78932 6.71053 9.71043 6.90115 9.71043 7.0999C9.71043 7.29865 9.78932 7.48928 9.92977 7.6299C10.073 7.77395 10.2667 7.85647 10.4698 7.8599C10.5677 7.86224 10.6651 7.84486 10.7561 7.80878C10.8472 7.7727 10.93 7.71867 10.9998 7.6499C12.618 6.07462 14.5312 4.83425 16.6298 3.9999C17.4675 4.49737 18.2259 5.1176 18.8798 5.8399C15.8175 6.73747 13.1276 8.60142 11.2117 11.1535C9.2959 13.7055 8.25687 16.8088 8.24977 19.9999C8.24977 20.1499 8.24977 20.2999 8.24977 20.4599C6.61383 19.7316 5.22385 18.5451 4.24781 17.0438C3.27177 15.5425 2.75146 13.7906 2.74977 11.9999ZM9.74977 20.9999C9.74977 20.6699 9.74977 20.3399 9.74977 19.9999C9.75727 17.0368 10.7555 14.1614 12.5857 11.831C14.4159 9.50072 16.9729 7.84943 19.8498 7.1399C20.2888 7.86681 20.6253 8.65089 20.8498 9.4699C18.4216 9.96362 16.2389 11.2818 14.6715 13.2009C13.1041 15.12 12.2485 17.5221 12.2498 19.9999C12.2515 20.4111 12.2782 20.8219 12.3298 21.2299H11.9998C11.2564 21.2448 10.5141 21.1676 9.78977 20.9999H9.74977ZM13.7498 21.0999C13.7291 20.7335 13.7291 20.3663 13.7498 19.9999C13.75 17.8636 14.4904 15.7934 15.8451 14.1416C17.1997 12.4898 19.0849 11.3584 21.1798 10.9399C21.4678 13.2472 20.8676 15.5777 19.5009 17.4588C18.1341 19.3399 16.1032 20.6309 13.8198 21.0699L13.7498 21.0999Z" fill="black"/>
</svg>
