<svg width="24" height="24" viewBox="0 0 24 24" fill="none" xmlns="http://www.w3.org/2000/svg">
<path d="M12 22.75C9.14974 22.7474 6.41697 21.6139 4.40153 19.5985C2.38608 17.583 1.25265 14.8503 1.25 12V3C1.25 2.53587 1.43437 2.09075 1.76256 1.76256C2.09075 1.43437 2.53587 1.25 3 1.25H21C21.4633 1.25263 21.9069 1.43784 22.2345 1.76546C22.5622 2.09309 22.7474 2.53668 22.75 3V12C22.7474 14.8503 21.6139 17.583 19.5985 19.5985C17.583 21.6139 14.8503 22.7474 12 22.75ZM3 2.75C2.9337 2.75 2.87011 2.77634 2.82322 2.82322C2.77634 2.87011 2.75 2.9337 2.75 3V12C2.75 14.4533 3.72455 16.806 5.45926 18.5407C7.19397 20.2754 9.54675 21.25 12 21.25C14.4533 21.25 16.806 20.2754 18.5407 18.5407C20.2754 16.806 21.25 14.4533 21.25 12V3C21.25 2.9337 21.2237 2.87011 21.1768 2.82322C21.1299 2.77634 21.0663 2.75 21 2.75H3ZM12 18.75C10.2106 18.7474 8.49525 18.0353 7.22995 16.7701C5.96465 15.5048 5.25265 13.7894 5.25 12V6C5.25259 5.80189 5.33244 5.61263 5.47253 5.47253C5.61263 5.33244 5.80189 5.25259 6 5.25H18C18.1981 5.25259 18.3874 5.33244 18.5275 5.47253C18.6676 5.61263 18.7474 5.80189 18.75 6V12C18.7474 13.7894 18.0353 15.5048 16.7701 16.7701C15.5048 18.0353 13.7894 18.7474 12 18.75ZM6.75 6.75V12C6.75 13.3924 7.30312 14.7277 8.28769 15.7123C9.27225 16.6969 10.6076 17.25 12 17.25C13.3924 17.25 14.7277 16.6969 15.7123 15.7123C16.6969 14.7277 17.25 13.3924 17.25 12V6.75H6.75Z" fill="black"/>
</svg>
