<svg width="24" height="24" viewBox="0 0 24 24" fill="none" xmlns="http://www.w3.org/2000/svg">
<path d="M8.10977 22.44C6.40122 22.4312 4.71402 22.0596 3.15977 21.35L2.26977 21C2.05934 20.902 1.87052 20.7632 1.71429 20.5915C1.55806 20.4198 1.43755 20.2188 1.35977 20C1.27313 19.7925 1.22852 19.5699 1.22852 19.345C1.22852 19.1202 1.27313 18.8976 1.35977 18.69L2.14977 16.92C2.23574 16.7049 2.36453 16.5095 2.52832 16.3457C2.6921 16.1819 2.88746 16.053 3.10255 15.967C3.31764 15.881 3.54796 15.8395 3.77955 15.8452C4.01114 15.8509 4.23915 15.9036 4.44977 16L5.33977 16.4C6.21267 16.8102 7.16529 17.0229 8.12977 17.0229C9.09425 17.0229 10.0469 16.8102 10.9198 16.4C12.4745 15.6813 14.1669 15.309 15.8798 15.309C17.5926 15.309 19.285 15.6813 20.8398 16.4L21.7298 16.79C21.9396 16.8872 22.1275 17.0259 22.2822 17.1978C22.4369 17.3697 22.5552 17.5712 22.6298 17.79C22.7189 17.9987 22.7648 18.2232 22.7648 18.45C22.7648 18.6769 22.7189 18.9014 22.6298 19.11L21.8398 20.88C21.7498 21.0872 21.6195 21.2744 21.4564 21.4307C21.2932 21.5869 21.1006 21.7091 20.8898 21.79C20.4671 21.9645 19.9925 21.9645 19.5698 21.79L18.6898 21.4C17.8169 20.9898 16.8642 20.7772 15.8998 20.7772C14.9353 20.7772 13.9827 20.9898 13.1098 21.4C11.5352 22.0959 9.83117 22.4503 8.10977 22.44ZM3.75977 17.44C3.71689 17.4374 3.67429 17.4486 3.63826 17.472C3.60224 17.4954 3.57472 17.5298 3.55977 17.57L2.76977 19.3C2.75663 19.3247 2.74977 19.3521 2.74977 19.38C2.74977 19.4079 2.75663 19.4354 2.76977 19.46C2.77738 19.4873 2.79131 19.5123 2.81043 19.5332C2.82954 19.554 2.85329 19.5701 2.87977 19.58L3.76977 19.98C5.13454 20.6123 6.62064 20.9399 8.12477 20.9399C9.6289 20.9399 11.115 20.6123 12.4798 19.98C13.5423 19.4821 14.7013 19.2239 15.8748 19.2239C17.0482 19.2239 18.2072 19.4821 19.2698 19.98L20.1498 20.37C20.2048 20.3891 20.2647 20.3891 20.3198 20.37C20.3736 20.3468 20.4165 20.3039 20.4398 20.25L21.2298 18.48C21.2423 18.4534 21.2487 18.4244 21.2487 18.395C21.2487 18.3657 21.2423 18.3366 21.2298 18.31C21.2221 18.2828 21.2082 18.2577 21.1891 18.2369C21.17 18.2161 21.1462 18.2 21.1198 18.19L20.2298 17.8C18.865 17.1678 17.3789 16.8402 15.8748 16.8402C14.3706 16.8402 12.8845 17.1678 11.5198 17.8C10.4572 18.298 9.29819 18.5562 8.12477 18.5562C6.95134 18.5562 5.79229 18.298 4.72977 17.8L3.84977 17.41C3.82151 17.3975 3.79008 17.394 3.75977 17.4V17.44ZM8.10977 15.59C6.40122 15.5812 4.71402 15.2096 3.15977 14.5L2.26977 14.1C1.85356 13.9142 1.52815 13.5707 1.36503 13.1451C1.2019 12.7194 1.21439 12.2465 1.39977 11.83L2.18977 10C2.37563 9.58384 2.7191 9.25843 3.14473 9.09531C3.57036 8.93218 4.04334 8.94467 4.45977 9.13004L5.33977 9.53004C6.21342 9.93756 7.16574 10.1487 8.12977 10.1487C9.09379 10.1487 10.0461 9.93756 10.9198 9.53004C12.4751 8.81324 14.1672 8.44206 15.8798 8.44206C17.5923 8.44206 19.2845 8.81324 20.8398 9.53004L21.7298 9.93005C21.9416 10.0242 22.1312 10.1618 22.2863 10.3342C22.4414 10.5065 22.5584 10.7095 22.6298 10.93C22.7189 11.1387 22.7648 11.3632 22.7648 11.59C22.7648 11.8169 22.7189 12.0414 22.6298 12.25L21.8098 14C21.7212 14.2069 21.5912 14.3935 21.4278 14.5483C21.2644 14.703 21.0711 14.8227 20.8598 14.9C20.6511 14.9892 20.4266 15.0351 20.1998 15.0351C19.9729 15.0351 19.7484 14.9892 19.5398 14.9L18.6598 14.51C17.7869 14.0998 16.8342 13.8872 15.8698 13.8872C14.9053 13.8872 13.9527 14.0998 13.0798 14.51C11.5145 15.2017 9.82107 15.5561 8.10977 15.55V15.59ZM2.76977 12.4C2.74608 12.4531 2.74436 12.5134 2.76497 12.5677C2.78558 12.6221 2.82685 12.666 2.87977 12.69L3.76977 13.09C5.13454 13.7223 6.62064 14.0499 8.12477 14.0499C9.6289 14.0499 11.115 13.7223 12.4798 13.09C13.5423 12.5921 14.7013 12.3339 15.8748 12.3339C17.0482 12.3339 18.2072 12.5921 19.2698 13.09L20.1498 13.48C20.1764 13.4925 20.2054 13.499 20.2348 13.499C20.2641 13.499 20.2932 13.4925 20.3198 13.48C20.347 13.4724 20.3721 13.4585 20.3929 13.4394C20.4138 13.4203 20.4298 13.3965 20.4398 13.37L21.2298 11.6C21.2423 11.5734 21.2487 11.5444 21.2487 11.515C21.2487 11.4857 21.2423 11.4566 21.2298 11.43C21.2221 11.4028 21.2082 11.3777 21.1891 11.3569C21.17 11.3361 21.1462 11.32 21.1198 11.31L20.2298 10.92C18.865 10.2878 17.3789 9.96023 15.8748 9.96023C14.3706 9.96023 12.8845 10.2878 11.5198 10.92C10.4572 11.418 9.29819 11.6762 8.12477 11.6762C6.95134 11.6762 5.79229 11.418 4.72977 10.92L3.84977 10.52C3.82317 10.5076 3.79415 10.5011 3.76477 10.5011C3.73538 10.5011 3.70636 10.5076 3.67977 10.52C3.65253 10.5277 3.62747 10.5416 3.60662 10.5607C3.58577 10.5798 3.56972 10.6036 3.55977 10.63L2.76977 12.4ZM8.10977 8.66004C6.40053 8.64771 4.71336 8.27279 3.15977 7.56005L2.26977 7.17004C1.85356 6.98418 1.52815 6.64071 1.36503 6.21508C1.2019 5.78945 1.21439 5.31647 1.39977 4.90005L2.18977 3.13005C2.27972 2.92344 2.40984 2.73678 2.57258 2.58091C2.73532 2.42505 2.92742 2.30309 3.13772 2.22214C3.34801 2.14118 3.5723 2.10285 3.79755 2.10935C4.02279 2.11586 4.2445 2.16708 4.44977 2.26005L5.33977 2.65005C6.21267 3.06024 7.16529 3.27292 8.12977 3.27292C9.09425 3.27292 10.0469 3.06024 10.9198 2.65005C12.4738 1.92866 14.1665 1.55493 15.8798 1.55493C17.5931 1.55493 19.2857 1.92866 20.8398 2.65005L21.7298 3.04005C22.1442 3.22797 22.4678 3.57159 22.6307 3.99648C22.7935 4.42136 22.7824 4.89329 22.5998 5.31005L21.8198 7.08004C21.7218 7.29047 21.5829 7.47929 21.4112 7.63552C21.2395 7.79175 21.0385 7.91226 20.8198 7.99004C20.6123 8.07668 20.3896 8.12129 20.1648 8.12129C19.9399 8.12129 19.7173 8.07668 19.5098 7.99004L18.6198 7.59004C17.7469 7.17985 16.7942 6.96717 15.8298 6.96717C14.8653 6.96717 13.9127 7.17985 13.0398 7.59004C11.4875 8.28185 9.80919 8.6461 8.10977 8.66004ZM2.76977 5.51005C2.74608 5.56311 2.74436 5.62339 2.76497 5.67773C2.78558 5.73206 2.82685 5.77603 2.87977 5.80005L3.76977 6.19005C5.13454 6.82233 6.62064 7.14985 8.12477 7.14985C9.6289 7.14985 11.115 6.82233 12.4798 6.19005C13.5423 5.69207 14.7013 5.43394 15.8748 5.43394C17.0482 5.43394 18.2072 5.69207 19.2698 6.19005L20.1498 6.59004C20.2045 6.61079 20.265 6.61079 20.3198 6.59004C20.3473 6.58006 20.3724 6.56414 20.3931 6.5434C20.4139 6.52267 20.4298 6.49762 20.4398 6.47005L21.2298 4.70004C21.2413 4.67449 21.2476 4.64688 21.2483 4.61885C21.249 4.59082 21.2441 4.56294 21.2338 4.53684C21.2236 4.51075 21.2082 4.48697 21.1886 4.46691C21.169 4.44685 21.1456 4.43091 21.1198 4.42005L20.2298 4.00005C18.865 3.36776 17.3789 3.04024 15.8748 3.04024C14.3706 3.04024 12.8845 3.36776 11.5198 4.00005C10.4572 4.49802 9.29819 4.75615 8.12477 4.75615C6.95134 4.75615 5.79229 4.49802 4.72977 4.00005L3.84977 3.61004C3.7967 3.58636 3.73642 3.58464 3.68208 3.60525C3.62775 3.62586 3.58378 3.66713 3.55977 3.72005L2.76977 5.51005Z" fill="black"/>
</svg>
