<svg width="24" height="24" viewBox="0 0 24 24" fill="none" xmlns="http://www.w3.org/2000/svg">
<path d="M11.9999 22.7501C11.5709 22.7521 11.1494 22.6381 10.7799 22.4201L3.57986 18.2601C3.2095 18.0486 2.9016 17.743 2.68735 17.3742C2.47311 17.0055 2.36013 16.5866 2.35986 16.1601V7.84012C2.36013 7.41362 2.47311 6.99477 2.68735 6.62599C2.9016 6.25721 3.2095 5.9516 3.57986 5.74012L10.7899 1.58012C11.159 1.37156 11.5759 1.26196 11.9999 1.26196C12.4239 1.26196 12.8407 1.37156 13.2099 1.58012L20.4199 5.75012C20.7902 5.9616 21.0981 6.26721 21.3124 6.63599C21.5266 7.00477 21.6396 7.42362 21.6399 7.85012V16.1701C21.6396 16.5966 21.5266 17.0155 21.3124 17.3842C21.0981 17.753 20.7902 18.0586 20.4199 18.2701L13.2099 22.4301C12.8435 22.6456 12.4249 22.7563 11.9999 22.7501ZM11.9999 2.75012C11.8342 2.74937 11.6716 2.79436 11.5299 2.88012L4.32986 7.00012C4.18756 7.08227 4.06928 7.2003 3.98681 7.34242C3.90435 7.48455 3.86057 7.6458 3.85986 7.81012V16.1301C3.86057 16.2944 3.90435 16.4557 3.98681 16.5978C4.06928 16.7399 4.18756 16.858 4.32986 16.9401L11.5399 21.1001C11.6804 21.179 11.8388 21.2204 11.9999 21.2204C12.161 21.2204 12.3194 21.179 12.4599 21.1001L19.6699 17.0001C19.8122 16.918 19.9304 16.7999 20.0129 16.6578C20.0954 16.5157 20.1392 16.3544 20.1399 16.1901V7.84012C20.1445 7.67074 20.1033 7.50326 20.0205 7.3554C19.9378 7.20753 19.8166 7.08477 19.6699 7.00012L12.4599 2.87012C12.3195 2.79094 12.161 2.74959 11.9999 2.75012ZM11.9999 19.5501C11.8672 19.5466 11.7371 19.5123 11.6199 19.4501L5.73986 16.0501C5.62552 15.9841 5.53035 15.8895 5.46371 15.7755C5.39708 15.6615 5.36129 15.5321 5.35986 15.4001V8.60012C5.36956 8.47672 5.40924 8.35757 5.47547 8.253C5.54169 8.14843 5.63245 8.06162 5.73986 8.00012L11.6199 4.60012C11.7345 4.53619 11.8636 4.50263 11.9949 4.50263C12.1261 4.50263 12.2552 4.53619 12.3699 4.60012L18.2599 8.00012C18.3742 8.06612 18.4694 8.16078 18.536 8.27475C18.6026 8.38873 18.6384 8.5181 18.6399 8.65012V15.4501C18.6384 15.5821 18.6026 15.7115 18.536 15.8255C18.4694 15.9395 18.3742 16.0341 18.2599 16.1001L12.3699 19.5001C12.2523 19.5461 12.1254 19.5633 11.9999 19.5501ZM6.85986 15.0001L11.9999 18.0001L17.1399 15.0001V9.00012L11.9999 6.07012L6.85986 9.00012V15.0001ZM11.9999 14.4201C11.5212 14.4201 11.0534 14.2782 10.6554 14.0123C10.2574 13.7464 9.94724 13.3684 9.76408 12.9262C9.58091 12.484 9.53299 11.9974 9.62636 11.528C9.71974 11.0586 9.95022 10.6274 10.2887 10.2889C10.6271 9.95048 11.0583 9.71999 11.5277 9.62662C11.9972 9.53324 12.4838 9.58117 12.926 9.76433C13.3682 9.94749 13.7461 10.2577 14.012 10.6556C14.2779 11.0536 14.4199 11.5215 14.4199 12.0001C14.4199 12.6419 14.1649 13.2575 13.7111 13.7113C13.2572 14.1652 12.6417 14.4201 11.9999 14.4201ZM11.9999 11.0801C11.8179 11.0801 11.64 11.1341 11.4887 11.2352C11.3374 11.3363 11.2195 11.4799 11.1499 11.648C11.0803 11.8162 11.062 12.0011 11.0975 12.1796C11.133 12.3581 11.2207 12.522 11.3493 12.6507C11.478 12.7793 11.6419 12.8669 11.8204 12.9024C11.9988 12.9379 12.1838 12.9197 12.3519 12.8501C12.52 12.7805 12.6637 12.6625 12.7648 12.5112C12.8659 12.36 12.9199 12.1821 12.9199 12.0001C12.9199 11.7561 12.8229 11.5221 12.6504 11.3496C12.4779 11.177 12.2439 11.0801 11.9999 11.0801Z" fill="black"/>
</svg>
