<svg width="24" height="24" viewBox="0 0 24 24" fill="none" xmlns="http://www.w3.org/2000/svg">
<path d="M19.79 10.12C19.6394 9.85289 19.4198 9.63122 19.1542 9.47816C18.8885 9.32511 18.5866 9.24628 18.28 9.24995H12.75V3.60995C12.7486 3.23424 12.6234 2.86946 12.3939 2.57198C12.1644 2.2745 11.8434 2.06088 11.4803 1.96415C11.1173 1.86741 10.7325 1.89293 10.3854 2.03678C10.0383 2.18062 9.74822 2.43477 9.56002 2.75995L4.20002 12.14C4.04995 12.4059 3.97208 12.7065 3.97416 13.0119C3.97624 13.3173 4.0582 13.6168 4.21188 13.8807C4.36556 14.1445 4.58562 14.3636 4.85019 14.5161C5.11477 14.6686 5.41464 14.7492 5.72002 14.75H11.25V20.39C11.2559 20.7604 11.3835 21.1187 11.6129 21.4096C11.8424 21.7005 12.1611 21.9079 12.52 22C12.6668 22.0395 12.818 22.0597 12.97 22.06C13.2692 22.0596 13.563 21.9798 13.8213 21.8287C14.0795 21.6776 14.2931 21.4606 14.44 21.2L19.8 11.82C19.9458 11.56 20.0215 11.2666 20.0197 10.9686C20.018 10.6706 19.9388 10.3782 19.79 10.12ZM5.72002 13.25C5.67621 13.2501 5.63307 13.2392 5.59461 13.2182C5.55614 13.1972 5.52361 13.1669 5.50002 13.13C5.47986 13.0914 5.46934 13.0485 5.46934 13.005C5.46934 12.9614 5.47986 12.9185 5.50002 12.88L10.86 3.50995C10.8733 3.48205 10.8928 3.4576 10.9171 3.43852C10.9414 3.41943 10.9698 3.40623 11 3.39995H11.06C11.1068 3.40734 11.1492 3.43194 11.1788 3.46894C11.2084 3.50594 11.2231 3.55267 11.22 3.59995V13.24L5.72002 13.25ZM18.5 11.12L13.14 20.49C13.1168 20.5288 13.0816 20.5591 13.0397 20.5763C12.9979 20.5935 12.9516 20.5967 12.9077 20.5855C12.8639 20.5742 12.8248 20.5491 12.7964 20.5139C12.768 20.4787 12.7517 20.4352 12.75 20.39V10.75H18.28C18.3238 10.7498 18.367 10.7607 18.4054 10.7817C18.4439 10.8027 18.4764 10.833 18.5 10.87C18.5202 10.9085 18.5307 10.9514 18.5307 10.995C18.5307 11.0385 18.5202 11.0814 18.5 11.12Z" fill="black"/>
</svg>
