<svg width="24" height="24" viewBox="0 0 24 24" fill="none" xmlns="http://www.w3.org/2000/svg">
<path d="M15.8902 11.9999L19.6002 8.28992C19.9275 7.96023 20.1112 7.51449 20.1112 7.04992C20.1112 6.58534 19.9275 6.13961 19.6002 5.80992L18.1902 4.39992C17.8605 4.0726 17.4147 3.88892 16.9502 3.88892C16.4856 3.88892 16.0399 4.0726 15.7102 4.39992L12.0002 8.10992L8.29016 4.39992C7.96047 4.0726 7.51474 3.88892 7.05016 3.88892C6.58558 3.88892 6.13985 4.0726 5.81016 4.39992L4.40016 5.80992C4.07285 6.13961 3.88916 6.58534 3.88916 7.04992C3.88916 7.51449 4.07285 7.96023 4.40016 8.28992L8.11016 11.9999L4.40016 15.7099C4.07285 16.0396 3.88916 16.4853 3.88916 16.9499C3.88916 17.4145 4.07285 17.8602 4.40016 18.1899L5.81016 19.5999C6.13985 19.9272 6.58558 20.1109 7.05016 20.1109C7.51474 20.1109 7.96047 19.9272 8.29016 19.5999L12.0002 15.8899L15.7102 19.5999C16.0399 19.9272 16.4856 20.1109 16.9502 20.1109C17.4147 20.1109 17.8605 19.9272 18.1902 19.5999L19.6002 18.1899C19.9275 17.8602 20.1112 17.4145 20.1112 16.9499C20.1112 16.4853 19.9275 16.0396 19.6002 15.7099L15.8902 11.9999ZM18.5402 17.1299L17.1302 18.5399C17.1068 18.5641 17.0789 18.5834 17.048 18.5965C17.017 18.6096 16.9838 18.6164 16.9502 18.6164C16.9166 18.6164 16.8833 18.6096 16.8524 18.5965C16.8214 18.5834 16.7935 18.5641 16.7702 18.5399L13.0602 14.8299L12.0002 13.7699L10.9402 14.8299L7.23016 18.5399C7.20684 18.5641 7.17888 18.5834 7.14795 18.5965C7.11703 18.6096 7.08377 18.6164 7.05016 18.6164C7.01656 18.6164 6.9833 18.6096 6.95237 18.5965C6.92144 18.5834 6.89348 18.5641 6.87016 18.5399L5.46016 17.1299C5.43596 17.1066 5.41672 17.0786 5.40357 17.0477C5.39043 17.0168 5.38365 16.9835 5.38365 16.9499C5.38365 16.9163 5.39043 16.8831 5.40357 16.8521C5.41672 16.8212 5.43596 16.7932 5.46016 16.7699L9.17016 13.0599L10.2302 11.9999L9.17016 10.9399L5.46016 7.22992C5.43596 7.2066 5.41672 7.17864 5.40357 7.14771C5.39043 7.11678 5.38365 7.08352 5.38365 7.04992C5.38365 7.01631 5.39043 6.98305 5.40357 6.95212C5.41672 6.9212 5.43596 6.89324 5.46016 6.86992L6.87016 5.45992C6.91966 5.41564 6.98375 5.39116 7.05016 5.39116C7.11657 5.39116 7.18066 5.41564 7.23016 5.45992L10.9402 9.16992L12.0002 10.2299L13.0602 9.16992L16.7702 5.45992C16.8197 5.41564 16.8837 5.39116 16.9502 5.39116C17.0166 5.39116 17.0807 5.41564 17.1302 5.45992L18.5402 6.86992C18.5644 6.89324 18.5836 6.9212 18.5967 6.95212C18.6099 6.98305 18.6167 7.01631 18.6167 7.04992C18.6167 7.08352 18.6099 7.11678 18.5967 7.14771C18.5836 7.17864 18.5644 7.2066 18.5402 7.22992L14.8302 10.9399L13.7702 11.9999L14.8302 13.0599L18.5402 16.7699C18.5644 16.7932 18.5836 16.8212 18.5967 16.8521C18.6099 16.8831 18.6167 16.9163 18.6167 16.9499C18.6167 16.9835 18.6099 17.0168 18.5967 17.0477C18.5836 17.0786 18.5644 17.1066 18.5402 17.1299Z" fill="black"/>
</svg>
