<svg width="24" height="24" viewBox="0 0 24 24" fill="none" xmlns="http://www.w3.org/2000/svg">
<path d="M17.9998 22.75H5.99979C5.68292 22.745 5.3736 22.6525 5.10597 22.4828C4.83833 22.313 4.6228 22.0727 4.48314 21.7882C4.34349 21.5037 4.28514 21.1862 4.31455 20.8706C4.34396 20.5551 4.45997 20.2538 4.64979 20L9.82979 13.54C10.0903 13.2147 10.4205 12.9522 10.7961 12.7718C11.1717 12.5913 11.5831 12.4977 11.9998 12.4977C12.4165 12.4977 12.8279 12.5913 13.2035 12.7718C13.5791 12.9522 13.9093 13.2147 14.1698 13.54L19.3498 20C19.5396 20.2538 19.6556 20.5551 19.685 20.8706C19.7144 21.1862 19.6561 21.5037 19.5164 21.7882C19.3768 22.0727 19.1613 22.313 18.8936 22.4828C18.626 22.6525 18.3167 22.745 17.9998 22.75ZM11.9998 14C11.8079 14.0006 11.6186 14.044 11.4456 14.127C11.2726 14.2101 11.1203 14.3307 10.9998 14.48L5.81979 20.91C5.80049 20.9434 5.79032 20.9814 5.79032 21.02C5.79032 21.0586 5.80049 21.0966 5.81979 21.13C5.8358 21.1667 5.86247 21.1978 5.89635 21.2192C5.93022 21.2406 5.96975 21.2513 6.00979 21.25H17.9998C18.0398 21.2513 18.0794 21.2406 18.1132 21.2192C18.1471 21.1978 18.1738 21.1667 18.1898 21.13C18.2101 21.0969 18.2209 21.0588 18.2209 21.02C18.2209 20.9812 18.2101 20.9431 18.1898 20.91L12.9998 14.45C12.8764 14.3061 12.7228 14.1912 12.55 14.1135C12.3772 14.0357 12.1893 13.9969 11.9998 14ZM11.9998 11.56C11.5864 11.5658 11.1769 11.479 10.8014 11.306C10.4259 11.133 10.0939 10.8781 9.82979 10.56L4.64979 4C4.45997 3.74622 4.34396 3.44494 4.31455 3.12939C4.28514 2.81384 4.34349 2.49631 4.48314 2.21182C4.6228 1.92734 4.83833 1.68697 5.10597 1.51725C5.3736 1.34752 5.68292 1.25504 5.99979 1.25H17.9998C18.3167 1.25504 18.626 1.34752 18.8936 1.51725C19.1613 1.68697 19.3768 1.92734 19.5164 2.21182C19.6561 2.49631 19.7144 2.81384 19.685 3.12939C19.6556 3.44494 19.5396 3.74622 19.3498 4L14.1698 10.46C13.9126 10.7909 13.5837 11.0591 13.2078 11.2444C12.8319 11.4298 12.4189 11.5274 11.9998 11.53V11.56ZM5.99979 2.75C5.95975 2.74867 5.92022 2.7594 5.88635 2.78079C5.85247 2.80219 5.8258 2.83327 5.80979 2.87C5.78945 2.90308 5.77868 2.94116 5.77868 2.98C5.77868 3.01884 5.78945 3.05692 5.80979 3.09L10.9998 9.55C11.1237 9.69382 11.2772 9.80922 11.4498 9.88832C11.6223 9.96743 11.81 10.0084 11.9998 10.0084C12.1896 10.0084 12.3772 9.96743 12.5498 9.88832C12.7224 9.80922 12.8759 9.69382 12.9998 9.55L18.1698 3.09C18.1901 3.05692 18.2009 3.01884 18.2009 2.98C18.2009 2.94116 18.1901 2.90308 18.1698 2.87C18.1552 2.83632 18.1316 2.80732 18.1016 2.78615C18.0716 2.76498 18.0364 2.75248 17.9998 2.75H5.99979Z" fill="black"/>
</svg>
