<svg width="24" height="24" viewBox="0 0 24 24" fill="none" xmlns="http://www.w3.org/2000/svg">
<path d="M22.4901 15.2601C22.4265 15.1437 22.3324 15.0468 22.2179 14.9798C22.1034 14.9129 21.9728 14.8784 21.8401 14.8801H9.00013L11.8901 9.88011L14.2301 14.0001C14.2958 14.114 14.3907 14.2082 14.5049 14.2733C14.6192 14.3383 14.7487 14.3717 14.8801 14.3701H20.6901C20.8211 14.3697 20.9497 14.335 21.063 14.2695C21.1764 14.2039 21.2707 14.1098 21.3364 13.9966C21.4022 13.8833 21.4371 13.7548 21.4377 13.6238C21.4384 13.4929 21.4047 13.364 21.3401 13.2501L16.0001 4.00011C15.7552 3.57782 15.4037 3.2272 14.9807 2.98328C14.5578 2.73936 14.0783 2.61069 13.5901 2.61011H8.94013C8.80669 2.61047 8.67583 2.6469 8.5614 2.71556C8.44697 2.78422 8.35324 2.88253 8.29013 3.00011L1.78013 14.2401C1.53427 14.6639 1.40479 15.1452 1.40479 15.6351C1.40479 16.1251 1.53427 16.6063 1.78013 17.0301L4.09013 21.0301C4.15456 21.1458 4.24885 21.2421 4.36319 21.309C4.47752 21.3758 4.60769 21.4107 4.74013 21.4101H17.7401C18.235 21.4107 18.7212 21.2807 19.1497 21.0331C19.5781 20.7855 19.9336 20.4292 20.1801 20.0001L22.4901 16.0001C22.5593 15.8891 22.5959 15.7609 22.5959 15.6301C22.5959 15.4993 22.5593 15.3711 22.4901 15.2601ZM14.6801 4.73011L19.3901 12.8801H15.3101L10.6101 4.73011L10.2401 4.09011H13.5701C13.7945 4.09281 14.0144 4.15307 14.2087 4.26514C14.4031 4.3772 14.5654 4.53731 14.6801 4.73011ZM3.08013 15.0001L8.94013 4.84011L10.9401 8.37011L4.82013 19.0001L4.74013 19.1301L3.08013 16.2801C2.96875 16.0852 2.91017 15.8646 2.91017 15.6401C2.91017 15.4156 2.96875 15.195 3.08013 15.0001ZM18.8801 19.2701C18.7665 19.4669 18.6033 19.6304 18.4068 19.7445C18.2103 19.8585 17.9873 19.9191 17.7601 19.9201H6.00013L8.00013 16.3901H20.5401L18.8801 19.2701Z" fill="black"/>
</svg>
