<svg width="24" height="24" viewBox="0 0 24 24" fill="none" xmlns="http://www.w3.org/2000/svg">
<path d="M22.75 12.0001C22.7515 11.0564 22.5194 10.1269 22.0745 9.29465C21.6295 8.46237 20.9856 7.75311 20.2 7.2301C20.1332 6.30023 19.8406 5.4007 19.3474 4.60955C18.8542 3.8184 18.1755 3.15953 17.37 2.6901C16.7165 2.30822 15.9932 2.06105 15.2427 1.96315C14.4922 1.86526 13.7296 1.91862 13 2.1201C12.6548 2.21724 12.3199 2.34786 12 2.5101C11.1616 2.10654 10.2379 1.91212 9.3079 1.94347C8.37793 1.97482 7.4694 2.231 6.66004 2.6901C6.00737 3.06635 5.43607 3.56869 4.9794 4.16785C4.52273 4.76701 4.18982 5.45104 4.00004 6.1801C3.90283 6.54349 3.83923 6.91506 3.81004 7.2901C3.0304 7.81199 2.39137 8.51795 1.94946 9.34556C1.50754 10.1732 1.27637 11.0969 1.27637 12.0351C1.27637 12.9733 1.50754 13.897 1.94946 14.7246C2.39137 15.5522 3.0304 16.2582 3.81004 16.7801C3.909 18.2206 4.55189 19.5696 5.60844 20.5537C6.66499 21.5378 8.05616 22.0835 9.50004 22.0801C10.3665 22.0688 11.2199 21.8674 12 21.4901C12.8433 21.899 13.7741 22.094 14.7106 22.058C15.647 22.022 16.5601 21.7561 17.3695 21.2837C18.1788 20.8114 18.8595 20.1471 19.3514 19.3494C19.8433 18.5518 20.1313 17.6454 20.19 16.7101C20.9678 16.1926 21.6075 15.4931 22.0537 14.6723C22.4998 13.8515 22.7388 12.9342 22.75 12.0001ZM21.25 12.0001C21.2514 13.0898 20.8281 14.1372 20.07 14.9201C20.0118 14.6888 19.9383 14.4616 19.85 14.2401C19.85 14.2401 19.85 14.1601 19.8 14.1101C19.5765 13.5667 19.2657 13.0634 18.88 12.6201L18.81 12.5301C18.5931 12.2898 18.3555 12.069 18.1 11.8701L17.98 11.7701C17.7222 11.5815 17.4516 11.4111 17.17 11.2601L17 11.1901C16.7076 11.0469 16.4031 10.9297 16.09 10.8401C15.8312 9.94725 15.2867 9.16391 14.54 8.6101C14.6494 8.52766 14.7628 8.45089 14.88 8.3801L15 8.3001C15.6329 7.94163 16.3477 7.75322 17.075 7.75322C17.8023 7.75322 18.5172 7.94163 19.15 8.3001C19.7943 8.67791 20.3277 9.21885 20.6963 9.86841C21.065 10.518 21.256 11.2532 21.25 12.0001ZM11 14.5601C10.5562 14.3859 10.1658 14.0986 9.86752 13.7266C9.56927 13.3547 9.37362 12.9111 9.30004 12.4401C9.26806 12.2956 9.2513 12.1481 9.25004 12.0001C9.25092 11.595 9.34097 11.1951 9.5138 10.8287C9.68662 10.4623 9.93798 10.1384 10.25 9.8801C10.623 9.55979 11.0774 9.34911 11.5629 9.27144C12.0483 9.19377 12.5458 9.25215 13 9.4401C13.4506 9.6082 13.8482 9.89316 14.1523 10.2657C14.4563 10.6383 14.6557 11.085 14.73 11.5601C14.762 11.7046 14.7788 11.8521 14.78 12.0001C14.7812 12.4055 14.6921 12.8062 14.5191 13.1729C14.3462 13.5396 14.0937 13.8632 13.78 14.1201C13.4042 14.4461 12.9444 14.6601 12.453 14.7379C11.9616 14.8157 11.4582 14.7541 11 14.5601ZM13.37 3.5601C13.7331 3.46931 14.1058 3.42231 14.48 3.4201C15.2326 3.41727 15.9719 3.61765 16.62 4.0001C17.5688 4.53815 18.2662 5.42969 18.56 6.4801C18.33 6.4201 18.1 6.3701 17.86 6.3301H17.8C17.5347 6.29482 17.2676 6.27479 17 6.2701C16.0328 6.2736 15.0825 6.52492 14.24 7.0001C13.8148 7.23553 13.4216 7.52455 13.07 7.8601C12.1634 7.62785 11.2048 7.70891 10.35 8.0901C10.3251 7.8307 10.3251 7.5695 10.35 7.3101V7.0901C10.3746 6.89061 10.4147 6.69334 10.47 6.5001L10.53 6.2701C10.6133 6.01235 10.7239 5.76426 10.86 5.5301C10.9795 5.3307 11.1131 5.1402 11.26 4.9601L11.48 4.7201L11.64 4.5701C11.8669 4.35574 12.1149 4.16478 12.38 4.0001C12.7008 3.81232 13.0433 3.66455 13.4 3.5601H13.37ZM5.37004 6.5601C5.61077 5.65742 6.14355 4.85983 6.88525 4.2918C7.62694 3.72377 8.53582 3.41726 9.47004 3.4201C9.80716 3.42616 10.1426 3.46976 10.47 3.5501L10.34 3.6901C10.24 3.8001 10.14 3.9001 10.05 4.0101C9.83774 4.25429 9.65016 4.51892 9.49004 4.8001C9.31983 5.09555 9.17915 5.40705 9.07004 5.7301C9.06591 5.76665 9.06591 5.80355 9.07004 5.8401C8.9626 6.14446 8.88883 6.45967 8.85004 6.7801V6.9401C8.81989 7.25605 8.81989 7.57415 8.85004 7.8901C8.84521 7.94666 8.84521 8.00353 8.85004 8.0601C8.86817 8.39744 8.9184 8.73228 9.00004 9.0601V9.1101C8.35248 9.77961 7.94462 10.6445 7.84004 11.5701C7.6018 11.4654 7.3741 11.3381 7.16004 11.1901C7.09004 11.1901 7.04004 11.1001 6.98004 11.0601C6.81764 10.9376 6.66394 10.8039 6.52004 10.6601L6.36004 10.4901C6.18026 10.2888 6.01957 10.0712 5.88004 9.8401C5.76702 9.63802 5.67005 9.42737 5.59004 9.2101C5.59004 9.1101 5.52004 9.0101 5.49004 8.9001C5.46004 8.7901 5.49004 8.7501 5.49004 8.6701C5.41334 8.34239 5.37641 8.00664 5.38004 7.6701C5.33676 7.30422 5.34349 6.93416 5.40004 6.5701L5.37004 6.5601ZM2.75004 12.0001C2.74656 10.9099 3.17014 9.86177 3.93004 9.0801L4.00004 9.2501C4.00004 9.3901 4.08004 9.5301 4.13004 9.6701C4.23865 9.97405 4.37245 10.2684 4.53004 10.5501C4.7003 10.8415 4.89785 11.1161 5.12004 11.3701L5.20004 11.4701C5.41598 11.7078 5.65001 11.9285 5.90004 12.1301L6.04004 12.2301C6.29068 12.4211 6.5585 12.5885 6.84004 12.7301L6.99004 12.8101C7.28247 12.9533 7.58699 13.0704 7.90004 13.1601C8.15891 14.0529 8.70339 14.8363 9.45004 15.3901C9.34738 15.4691 9.24056 15.5425 9.13004 15.6101L9.00004 15.7001C8.36906 16.0586 7.65577 16.2471 6.93004 16.2471C6.20431 16.2471 5.49102 16.0586 4.86004 15.7001C4.21181 15.3259 3.67476 14.786 3.30398 14.1358C2.9332 13.4856 2.74201 12.7485 2.75004 12.0001ZM10.6 20.4401C10.0592 20.5835 9.49542 20.6184 8.94106 20.5429C8.3867 20.4674 7.85277 20.2829 7.37004 20.0001C6.42432 19.4609 5.73046 18.5693 5.44004 17.5201C5.67004 17.5801 5.91004 17.6301 6.15004 17.6701C6.41865 17.7058 6.6891 17.7258 6.96004 17.7301C7.94086 17.7335 8.90572 17.4819 9.76004 17.0001C10.1837 16.767 10.5739 16.4777 10.92 16.1401C11.8274 16.3749 12.7878 16.2901 13.64 15.9001C13.6649 16.1628 13.6649 16.4274 13.64 16.6901V16.9101C13.6194 17.1135 13.5792 17.3144 13.52 17.5101L13.46 17.7301C13.3749 17.9903 13.2644 18.2415 13.13 18.4801C13.0082 18.6747 12.8746 18.8617 12.73 19.0401L12.51 19.2801L12.35 19.4301C12.1136 19.6532 11.8518 19.8479 11.57 20.0101C11.2646 20.1908 10.939 20.3351 10.6 20.4401ZM16.6 20.0101C15.6576 20.5592 14.5376 20.7171 13.48 20.4501C13.5208 20.4011 13.5642 20.3544 13.61 20.3101C13.71 20.2001 13.81 20.1001 13.9 19.9901C14.1067 19.7451 14.294 19.4843 14.46 19.2101C14.6285 18.9102 14.769 18.5956 14.88 18.2701C14.8842 18.2335 14.8842 18.1966 14.88 18.1601C14.9875 17.8557 15.0612 17.5405 15.1 17.2201V17.0601C15.1302 16.7441 15.1302 16.426 15.1 16.1101C15.1049 16.0535 15.1049 15.9967 15.1 15.9401C15.0819 15.6028 15.0317 15.2679 14.95 14.9401V14.8901C15.5995 14.2219 16.0077 13.3563 16.11 12.4301C16.3483 12.5348 16.576 12.6621 16.79 12.8101C16.86 12.8101 16.91 12.9001 16.97 12.9401C17.135 13.0632 17.2889 13.2004 17.43 13.3501L17.59 13.5101C17.7721 13.7132 17.933 13.9343 18.07 14.1701C18.1809 14.3767 18.2778 14.5905 18.36 14.8101C18.3913 14.8987 18.418 14.9888 18.44 15.0801C18.44 15.1801 18.49 15.2901 18.52 15.3901C18.576 15.6802 18.6061 15.9747 18.61 16.2701C18.6347 17.0117 18.4637 17.7468 18.1144 18.4015C17.7651 19.0562 17.2498 19.6075 16.62 20.0001L16.6 20.0101Z" fill="black"/>
</svg>
