<svg width="24" height="24" viewBox="0 0 24 24" fill="none" xmlns="http://www.w3.org/2000/svg">
<path d="M22.2002 10C21.8695 9.43813 21.4092 8.96344 20.8578 8.61553C20.3064 8.26763 19.6797 8.0566 19.0302 8.00004C19.4366 7.08289 19.4901 6.04795 19.1802 5.09384C18.8703 4.13973 18.219 3.33368 17.3512 2.83037C16.4834 2.32706 15.4604 2.16196 14.4783 2.36676C13.4963 2.57156 12.6245 3.13183 12.0302 3.94004C11.5392 3.22057 10.8308 2.67713 10.0087 2.38923C9.18666 2.10132 8.29402 2.08407 7.46142 2.33999C6.62883 2.59592 5.89999 3.11159 5.38156 3.81154C4.86312 4.5115 4.58231 5.359 4.5802 6.23004C4.59145 6.82416 4.73492 7.40831 5.0002 7.94004C3.97266 8.0122 3.0107 8.4713 2.3083 9.22475C1.60591 9.97821 1.21533 10.97 1.21533 12C1.21533 13.0301 1.60591 14.0219 2.3083 14.7753C3.0107 15.5288 3.97266 15.9879 5.0002 16.06C4.7453 16.5942 4.61209 17.1782 4.6102 17.77C4.61762 18.63 4.89658 19.4656 5.40723 20.1575C5.91787 20.8495 6.6341 21.3624 7.45363 21.623C8.27316 21.8836 9.15408 21.8786 9.97059 21.6087C10.7871 21.3387 11.4975 20.8177 12.0002 20.12C12.3734 20.6575 12.8713 21.0965 13.4512 21.3996C14.0312 21.7026 14.6759 21.8606 15.3302 21.86C15.688 21.8578 16.0441 21.8107 16.3902 21.72C17.4341 21.4364 18.3236 20.7517 18.8649 19.8152C19.4062 18.8787 19.5555 17.7661 19.2802 16.72C19.2179 16.4926 19.1342 16.2717 19.0302 16.06C19.7088 16.0006 20.3615 15.7713 20.9283 15.3934C21.495 15.0155 21.9576 14.501 22.2733 13.8974C22.5891 13.2938 22.7479 12.6205 22.7351 11.9394C22.7223 11.2583 22.5384 10.5914 22.2002 10ZM14.0002 4.00004C14.2937 3.83063 14.6177 3.7207 14.9537 3.67651C15.2897 3.63232 15.6311 3.65474 15.9584 3.74249C16.2857 3.83024 16.5926 3.9816 16.8614 4.18794C17.1302 4.39427 17.3558 4.65153 17.5252 4.94504C17.6946 5.23854 17.8045 5.56254 17.8487 5.89853C17.8929 6.23452 17.8705 6.57593 17.7828 6.90325C17.695 7.23058 17.5436 7.53742 17.3373 7.80625C17.131 8.07508 16.8737 8.30063 16.5802 8.47004L12.7502 10.7V6.23004C12.7479 5.78196 12.8618 5.34094 13.0809 4.95007C13.3 4.5592 13.6167 4.23186 14.0002 4.00004ZM8.6702 3.64004C9.35538 3.64268 10.0116 3.91673 10.4951 4.40216C10.9787 4.88759 11.2502 5.54486 11.2502 6.23004V10.7L7.3802 8.46004C6.88474 8.17692 6.49712 7.73754 6.27801 7.21064C6.05889 6.68375 6.02063 6.09907 6.16923 5.54812C6.31783 4.99716 6.64489 4.51102 7.09924 4.16576C7.55359 3.8205 8.10958 3.63562 8.6802 3.64004H8.6702ZM3.1002 10.71C3.43485 10.1111 3.99344 9.6695 4.65338 9.48201C5.31331 9.29453 6.02067 9.37654 6.6202 9.71004L10.5002 12L6.6202 14.24C6.12787 14.5238 5.55563 14.6371 4.99232 14.5623C4.429 14.4876 3.90614 14.2289 3.50489 13.8265C3.10364 13.4241 2.84647 12.9005 2.77329 12.337C2.70012 11.7735 2.81503 11.2016 3.1002 10.71ZM8.6702 20.36C8.09958 20.3645 7.54359 20.1796 7.08924 19.8343C6.63489 19.4891 6.30783 19.0029 6.15923 18.452C6.01063 17.901 6.04889 17.3163 6.26801 16.7894C6.48712 16.2625 6.87474 15.8232 7.3702 15.54L11.2402 13.3V17.77C11.2402 18.4535 10.9701 19.1093 10.4887 19.5944C10.0073 20.0796 9.35364 20.3548 8.6702 20.36ZM17.5702 19.06C17.4025 19.3563 17.1772 19.616 16.9076 19.8238C16.6379 20.0316 16.3294 20.1834 16.0002 20.27C15.6172 20.373 15.2155 20.3864 14.8265 20.3089C14.4375 20.2315 14.0715 20.0654 13.7571 19.8235C13.4427 19.5817 13.1883 19.2706 13.0137 18.9145C12.8391 18.5583 12.7489 18.1667 12.7502 17.77V13.3L16.6202 15.54C16.9155 15.707 17.1746 15.9311 17.3826 16.1991C17.5905 16.4671 17.7431 16.7738 17.8315 17.1013C17.9199 17.4288 17.9423 17.7706 17.8975 18.1069C17.8526 18.4432 17.7414 18.7671 17.5702 19.06ZM20.0002 14.24C19.6061 14.4664 19.1596 14.5855 18.7052 14.5855C18.2508 14.5855 17.8043 14.4664 17.4102 14.24L13.5002 12L17.3702 9.76004C17.9643 9.41128 18.6726 9.3128 19.3393 9.48627C19.6694 9.57217 19.9793 9.72224 20.2515 9.92793C20.5236 10.1336 20.7525 10.3909 20.9252 10.685C21.0979 10.9792 21.2109 11.3045 21.2579 11.6423C21.3049 11.9802 21.2849 12.324 21.199 12.6541C21.1131 12.9842 20.963 13.2942 20.7573 13.5663C20.5516 13.8384 20.2944 14.0673 20.0002 14.24Z" fill="black"/>
</svg>
