<svg width="24" height="24" viewBox="0 0 24 24" fill="none" xmlns="http://www.w3.org/2000/svg">
<path d="M12.7501 22.5799C12.3846 22.5784 12.0252 22.4862 11.7041 22.3117C11.383 22.1372 11.1102 21.8857 10.9101 21.5799L7.49007 16.4699C7.21577 16.0601 7.06934 15.5781 7.06934 15.0849C7.06934 14.5918 7.21577 14.1097 7.49007 13.6999L10.6801 8.90991L8.42007 5.50991C8.25693 5.27101 8.14252 5.00227 8.08338 4.71909C8.02423 4.43591 8.02152 4.14385 8.07539 3.85962C8.12927 3.57539 8.23867 3.30457 8.39734 3.06268C8.55601 2.82078 8.76082 2.61255 9.00007 2.44991L10.0001 1.78991C10.2388 1.62679 10.5079 1.51349 10.7914 1.45679C11.0749 1.40009 11.367 1.40115 11.6501 1.45991C11.9358 1.51508 12.2076 1.62661 12.4497 1.78801C12.6918 1.9494 12.8993 2.15742 13.0601 2.39991L16.4801 7.52991C16.7544 7.93973 16.9008 8.42177 16.9008 8.91491C16.9008 9.40806 16.7544 9.8901 16.4801 10.2999L13.2901 15.0899L15.5501 18.4899C15.7132 18.7286 15.8265 18.9978 15.8832 19.2813C15.9399 19.5648 15.9388 19.8568 15.8801 20.1399C15.7834 20.7073 15.4673 21.2138 15.0001 21.5499L14.0001 22.2099C13.6309 22.4579 13.1947 22.587 12.7501 22.5799ZM12.1601 20.7699C12.2125 20.8488 12.28 20.9166 12.3587 20.9694C12.4373 21.0222 12.5257 21.0589 12.6186 21.0775C12.7115 21.0961 12.8071 21.0961 12.9 21.0777C12.993 21.0592 13.0813 21.0226 13.1601 20.9699L14.1601 20.2999C14.239 20.2475 14.3068 20.18 14.3595 20.1013C14.4123 20.0226 14.449 19.9343 14.4676 19.8414C14.4862 19.7485 14.4863 19.6529 14.4678 19.56C14.4494 19.467 14.4127 19.3787 14.3601 19.2999L12.0001 15.7399C11.8681 15.547 11.7974 15.3187 11.7974 15.0849C11.7974 14.8512 11.8681 14.6228 12.0001 14.4299L15.3101 9.42991C15.4176 9.26663 15.4749 9.07542 15.4749 8.87991C15.4749 8.68441 15.4176 8.49319 15.3101 8.32991L11.8401 3.22991C11.734 3.07599 11.5729 2.96861 11.3901 2.92991C11.2995 2.91071 11.206 2.90965 11.115 2.92682C11.0241 2.94398 10.9374 2.97903 10.8601 3.02991L9.86007 3.69991C9.7801 3.75142 9.71129 3.81848 9.65774 3.8971C9.60419 3.97571 9.56698 4.06429 9.54832 4.15757C9.52967 4.25084 9.52995 4.34692 9.54914 4.44008C9.56834 4.53325 9.60606 4.62161 9.66007 4.69991L12.0501 8.27991C12.1821 8.47284 12.2527 8.70115 12.2527 8.93491C12.2527 9.16868 12.1821 9.39698 12.0501 9.58991L8.74007 14.5899C8.63254 14.7532 8.57523 14.9444 8.57523 15.1399C8.57523 15.3354 8.63254 15.5266 8.74007 15.6899L12.1601 20.7699Z" fill="black"/>
</svg>
