<svg width="24" height="24" viewBox="0 0 24 24" fill="none" xmlns="http://www.w3.org/2000/svg">
<path d="M19.5001 18.66C19.5801 18.55 19.6601 18.45 19.7301 18.34L19.9201 18.05L20.1201 17.71L20.2801 17.41C20.3401 17.29 20.4001 17.16 20.4501 17.03L20.5701 16.75C20.7559 16.3112 20.8998 15.8558 21.0001 15.39C20.9958 15.3635 20.9958 15.3365 21.0001 15.31C21.0001 15.25 21.0001 15.19 21.0001 15.12C21.2381 13.1661 20.89 11.1856 20.0001 9.43001L19.9301 9.30001C19.8401 9.12001 19.7601 8.95001 19.6601 8.78001C19.5601 8.61001 19.5301 8.55001 19.4701 8.44001C19.4101 8.33001 19.2701 8.09001 19.1601 7.92001C19.0501 7.75001 19.0201 7.70001 18.9401 7.59001C18.8601 7.48001 18.7201 7.25001 18.5901 7.08001C18.4601 6.91001 18.4201 6.85001 18.3401 6.74001C18.2601 6.63001 18.1001 6.41001 17.9601 6.25001C16.8257 4.88239 15.5333 3.65385 14.1101 2.59001L13.8501 2.39001C13.4001 2.06001 12.9401 1.74001 12.4501 1.39001C12.321 1.29311 12.1609 1.24686 12.0001 1.26001C11.8777 1.2602 11.7574 1.29115 11.6501 1.35001C10.087 2.33247 8.64098 3.48995 7.3401 4.80001L7.2101 4.94001C5.92803 6.24311 4.86137 7.74183 4.0501 9.38001H4.0001V9.53001C3.8801 9.80001 3.7701 10.07 3.6601 10.33L3.5701 10.57C3.4701 10.86 3.3801 11.16 3.3001 11.45V11.58C2.96525 12.8218 2.90046 14.121 3.1101 15.39C3.7701 19.04 6.8901 21.65 11.9001 22.73H12.0601H12.2201C12.5601 22.66 12.9001 22.58 13.2201 22.49L13.4901 22.41L14.1701 22.2L14.4701 22.09L15.0701 21.87L15.3601 21.75L15.9101 21.5L16.1801 21.37L16.7201 21.07L16.9401 20.95C17.1601 20.82 17.3601 20.68 17.5601 20.55L17.6401 20.49L18.2801 20L18.4501 19.85L18.8401 19.48L19.0601 19.25L19.3501 18.92L19.5001 18.66ZM19.1401 16.27C18.7325 17.182 18.1491 18.0047 17.4233 18.6911C16.6975 19.3775 15.8435 19.914 14.9101 20.27L14.7101 20.35L19.3101 15.75C19.3101 15.85 19.2601 15.96 19.2301 16.06C19.1947 16.1275 19.1646 16.1978 19.1401 16.27ZM6.7401 7.80001L11.2501 12.31V15.19L5.6201 9.56001C5.94789 8.94557 6.32232 8.35718 6.7401 7.80001ZM12.8001 3.46001C13.1201 3.69001 13.4401 3.94001 13.7501 4.19001L12.7501 5.19001V3.42001L12.8001 3.46001ZM16.3201 6.62001L12.7501 10.19V7.31001L14.8901 5.17001C15.3917 5.62808 15.869 6.11207 16.3201 6.62001ZM19.5501 13.39L12.7501 20.19V17.31L19.0001 11C19.2991 11.7656 19.4844 12.5708 19.5501 13.39ZM12.7501 15.19V12.31L17.2601 7.80001C17.6727 8.36219 18.0437 8.95377 18.3701 9.57001L12.7501 15.19ZM10.2501 4.19001C10.5701 3.93001 10.9001 3.68001 11.2501 3.43001V5.19001L10.2501 4.19001ZM11.2501 7.32001V10.2L7.6901 6.63001C8.13498 6.11646 8.6091 5.62898 9.1101 5.17001L11.2501 7.32001ZM4.4501 13.4C4.52045 12.5782 4.70558 11.7704 5.0001 11L11.2701 17.27V20.15L4.4501 13.4ZM4.7001 15.77L9.3101 20.38C8.24289 20.0077 7.27379 19.3986 6.47542 18.5985C5.67705 17.7984 5.07012 16.828 4.7001 15.76V15.77Z" fill="black"/>
</svg>
