<svg width="24" height="24" viewBox="0 0 24 24" fill="none" xmlns="http://www.w3.org/2000/svg">
<path d="M20 9.25H14.75V4C14.7474 3.53668 14.5622 3.09309 14.2345 2.76546C13.9069 2.43784 13.4633 2.25263 13 2.25H11C10.5359 2.25 10.0908 2.43437 9.76256 2.76256C9.43437 3.09075 9.25 3.53587 9.25 4V9.25H4C3.53587 9.25 3.09075 9.43437 2.76256 9.76256C2.43437 10.0908 2.25 10.5359 2.25 11V13C2.25 13.2298 2.29527 13.4574 2.38321 13.6697C2.47116 13.882 2.60006 14.0749 2.76256 14.2374C2.92507 14.3999 3.11798 14.5288 3.3303 14.6168C3.54262 14.7047 3.77019 14.75 4 14.75H9.25V20C9.25 20.4641 9.43437 20.9092 9.76256 21.2374C10.0908 21.5656 10.5359 21.75 11 21.75H13C13.2298 21.75 13.4574 21.7047 13.6697 21.6168C13.882 21.5288 14.0749 21.3999 14.2374 21.2374C14.3999 21.0749 14.5288 20.882 14.6168 20.6697C14.7047 20.4574 14.75 20.2298 14.75 20V14.75H20C20.2298 14.75 20.4574 14.7047 20.6697 14.6168C20.882 14.5288 21.0749 14.3999 21.2374 14.2374C21.3999 14.0749 21.5288 13.882 21.6168 13.6697C21.7047 13.4574 21.75 13.2298 21.75 13V11C21.7474 10.5367 21.5622 10.0931 21.2345 9.76546C20.9069 9.43784 20.4633 9.25262 20 9.25ZM20.25 13C20.25 13.0663 20.2237 13.1299 20.1768 13.1768C20.1299 13.2237 20.0663 13.25 20 13.25H13.25V20C13.25 20.0663 13.2237 20.1299 13.1768 20.1768C13.1299 20.2237 13.0663 20.25 13 20.25H11C10.9337 20.25 10.8701 20.2237 10.8232 20.1768C10.7763 20.1299 10.75 20.0663 10.75 20V13.25H4C3.9337 13.25 3.87011 13.2237 3.82322 13.1768C3.77634 13.1299 3.75 13.0663 3.75 13V11C3.75 10.9337 3.77634 10.8701 3.82322 10.8232C3.87011 10.7763 3.9337 10.75 4 10.75H10.75V4C10.75 3.9337 10.7763 3.87011 10.8232 3.82322C10.8701 3.77634 10.9337 3.75 11 3.75H13C13.0663 3.75 13.1299 3.77634 13.1768 3.82322C13.2237 3.87011 13.25 3.9337 13.25 4V10.75H20C20.0663 10.75 20.1299 10.7763 20.1768 10.8232C20.2237 10.8701 20.25 10.9337 20.25 11V13Z" fill="black"/>
</svg>
