<svg width="24" height="24" viewBox="0 0 24 24" fill="none" xmlns="http://www.w3.org/2000/svg">
<path d="M5 8.25C4.35721 8.25 3.72886 8.05939 3.1944 7.70228C2.65994 7.34516 2.24338 6.83758 1.99739 6.24372C1.75141 5.64986 1.68705 4.9964 1.81245 4.36596C1.93785 3.73552 2.24738 3.15642 2.7019 2.7019C3.15642 2.24738 3.73552 1.93785 4.36596 1.81245C4.9964 1.68705 5.64986 1.75141 6.24372 1.99739C6.83758 2.24338 7.34516 2.65994 7.70228 3.1944C8.05939 3.72886 8.25 4.35721 8.25 5C8.24736 5.86114 7.90411 6.68626 7.29518 7.29518C6.68626 7.90411 5.86114 8.24736 5 8.25ZM5 3.25C4.65388 3.25 4.31554 3.35264 4.02775 3.54493C3.73997 3.73722 3.51567 4.01053 3.38321 4.33031C3.25076 4.65008 3.2161 5.00194 3.28363 5.34141C3.35115 5.68088 3.51782 5.9927 3.76256 6.23744C4.00731 6.48218 4.31913 6.64885 4.65859 6.71638C4.99806 6.7839 5.34993 6.74924 5.6697 6.61679C5.98947 6.48434 6.26278 6.26004 6.45507 5.97225C6.64737 5.68446 6.75 5.34612 6.75 5C6.74738 4.53668 6.56216 4.09309 6.23454 3.76547C5.90692 3.43784 5.46332 3.25263 5 3.25ZM19 22.25C18.3572 22.25 17.7289 22.0594 17.1944 21.7023C16.6599 21.3452 16.2434 20.8376 15.9974 20.2437C15.7514 19.6499 15.687 18.9964 15.8124 18.366C15.9379 17.7355 16.2474 17.1564 16.7019 16.7019C17.1564 16.2474 17.7355 15.9379 18.366 15.8124C18.9964 15.687 19.6499 15.7514 20.2437 15.9974C20.8376 16.2434 21.3452 16.6599 21.7023 17.1944C22.0594 17.7289 22.25 18.3572 22.25 19C22.2474 19.8611 21.9041 20.6863 21.2952 21.2952C20.6863 21.9041 19.8611 22.2474 19 22.25ZM19 17.25C18.6539 17.25 18.3155 17.3526 18.0278 17.5449C17.74 17.7372 17.5157 18.0105 17.3832 18.3303C17.2508 18.6501 17.2161 19.0019 17.2836 19.3414C17.3512 19.6809 17.5178 19.9927 17.7626 20.2374C18.0073 20.4822 18.3191 20.6489 18.6586 20.7164C18.9981 20.7839 19.3499 20.7492 19.6697 20.6168C19.9895 20.4843 20.2628 20.26 20.4551 19.9722C20.6474 19.6845 20.75 19.3461 20.75 19C20.7474 18.5367 20.5622 18.0931 20.2345 17.7655C19.9069 17.4378 19.4633 17.2526 19 17.25ZM12 22.25C11.3572 22.25 10.7289 22.0594 10.1944 21.7023C9.65994 21.3452 9.24338 20.8376 8.99739 20.2437C8.75141 19.6499 8.68705 18.9964 8.81245 18.366C8.93785 17.7355 9.24738 17.1564 9.7019 16.7019C10.1564 16.2474 10.7355 15.9379 11.366 15.8124C11.9964 15.687 12.6499 15.7514 13.2437 15.9974C13.8376 16.2434 14.3452 16.6599 14.7023 17.1944C15.0594 17.7289 15.25 18.3572 15.25 19C15.2474 19.8611 14.9041 20.6863 14.2952 21.2952C13.6863 21.9041 12.8611 22.2474 12 22.25ZM12 17.25C11.6539 17.25 11.3155 17.3526 11.0278 17.5449C10.74 17.7372 10.5157 18.0105 10.3832 18.3303C10.2508 18.6501 10.2161 19.0019 10.2836 19.3414C10.3512 19.6809 10.5178 19.9927 10.7626 20.2374C11.0073 20.4822 11.3191 20.6489 11.6586 20.7164C11.9981 20.7839 12.3499 20.7492 12.6697 20.6168C12.9895 20.4843 13.2628 20.26 13.4551 19.9722C13.6474 19.6845 13.75 19.3461 13.75 19C13.7474 18.5367 13.5622 18.0931 13.2345 17.7655C12.9069 17.4378 12.4633 17.2526 12 17.25ZM5 22.25C4.35721 22.25 3.72886 22.0594 3.1944 21.7023C2.65994 21.3452 2.24338 20.8376 1.99739 20.2437C1.75141 19.6499 1.68705 18.9964 1.81245 18.366C1.93785 17.7355 2.24738 17.1564 2.7019 16.7019C3.15642 16.2474 3.73552 15.9379 4.36596 15.8124C4.9964 15.687 5.64986 15.7514 6.24372 15.9974C6.83758 16.2434 7.34516 16.6599 7.70228 17.1944C8.05939 17.7289 8.25 18.3572 8.25 19C8.24736 19.8611 7.90411 20.6863 7.29518 21.2952C6.68626 21.9041 5.86114 22.2474 5 22.25ZM5 17.25C4.65388 17.25 4.31554 17.3526 4.02775 17.5449C3.73997 17.7372 3.51567 18.0105 3.38321 18.3303C3.25076 18.6501 3.2161 19.0019 3.28363 19.3414C3.35115 19.6809 3.51782 19.9927 3.76256 20.2374C4.00731 20.4822 4.31913 20.6489 4.65859 20.7164C4.99806 20.7839 5.34993 20.7492 5.6697 20.6168C5.98947 20.4843 6.26278 20.26 6.45507 19.9722C6.64737 19.6845 6.75 19.3461 6.75 19C6.74738 18.5367 6.56216 18.0931 6.23454 17.7655C5.90692 17.4378 5.46332 17.2526 5 17.25ZM19 15.25C18.3572 15.25 17.7289 15.0594 17.1944 14.7023C16.6599 14.3452 16.2434 13.8376 15.9974 13.2437C15.7514 12.6499 15.687 11.9964 15.8124 11.366C15.9379 10.7355 16.2474 10.1564 16.7019 9.7019C17.1564 9.24738 17.7355 8.93785 18.366 8.81245C18.9964 8.68705 19.6499 8.75141 20.2437 8.99739C20.8376 9.24338 21.3452 9.65994 21.7023 10.1944C22.0594 10.7289 22.25 11.3572 22.25 12C22.2474 12.8611 21.9041 13.6863 21.2952 14.2952C20.6863 14.9041 19.8611 15.2474 19 15.25ZM19 10.25C18.6539 10.25 18.3155 10.3526 18.0278 10.5449C17.74 10.7372 17.5157 11.0105 17.3832 11.3303C17.2508 11.6501 17.2161 12.0019 17.2836 12.3414C17.3512 12.6809 17.5178 12.9927 17.7626 13.2374C18.0073 13.4822 18.3191 13.6489 18.6586 13.7164C18.9981 13.7839 19.3499 13.7492 19.6697 13.6168C19.9895 13.4843 20.2628 13.26 20.4551 12.9722C20.6474 12.6845 20.75 12.3461 20.75 12C20.7474 11.5367 20.5622 11.0931 20.2345 10.7655C19.9069 10.4378 19.4633 10.2526 19 10.25ZM12 15.25C11.3572 15.25 10.7289 15.0594 10.1944 14.7023C9.65994 14.3452 9.24338 13.8376 8.99739 13.2437C8.75141 12.6499 8.68705 11.9964 8.81245 11.366C8.93785 10.7355 9.24738 10.1564 9.7019 9.7019C10.1564 9.24738 10.7355 8.93785 11.366 8.81245C11.9964 8.68705 12.6499 8.75141 13.2437 8.99739C13.8376 9.24338 14.3452 9.65994 14.7023 10.1944C15.0594 10.7289 15.25 11.3572 15.25 12C15.2474 12.8611 14.9041 13.6863 14.2952 14.2952C13.6863 14.9041 12.8611 15.2474 12 15.25ZM12 10.25C11.6539 10.25 11.3155 10.3526 11.0278 10.5449C10.74 10.7372 10.5157 11.0105 10.3832 11.3303C10.2508 11.6501 10.2161 12.0019 10.2836 12.3414C10.3512 12.6809 10.5178 12.9927 10.7626 13.2374C11.0073 13.4822 11.3191 13.6489 11.6586 13.7164C11.9981 13.7839 12.3499 13.7492 12.6697 13.6168C12.9895 13.4843 13.2628 13.26 13.4551 12.9722C13.6474 12.6845 13.75 12.3461 13.75 12C13.7474 11.5367 13.5622 11.0931 13.2345 10.7655C12.9069 10.4378 12.4633 10.2526 12 10.25ZM5 15.25C4.35721 15.25 3.72886 15.0594 3.1944 14.7023C2.65994 14.3452 2.24338 13.8376 1.99739 13.2437C1.75141 12.6499 1.68705 11.9964 1.81245 11.366C1.93785 10.7355 2.24738 10.1564 2.7019 9.7019C3.15642 9.24738 3.73552 8.93785 4.36596 8.81245C4.9964 8.68705 5.64986 8.75141 6.24372 8.99739C6.83758 9.24338 7.34516 9.65994 7.70228 10.1944C8.05939 10.7289 8.25 11.3572 8.25 12C8.24736 12.8611 7.90411 13.6863 7.29518 14.2952C6.68626 14.9041 5.86114 15.2474 5 15.25ZM5 10.25C4.65388 10.25 4.31554 10.3526 4.02775 10.5449C3.73997 10.7372 3.51567 11.0105 3.38321 11.3303C3.25076 11.6501 3.2161 12.0019 3.28363 12.3414C3.35115 12.6809 3.51782 12.9927 3.76256 13.2374C4.00731 13.4822 4.31913 13.6489 4.65859 13.7164C4.99806 13.7839 5.34993 13.7492 5.6697 13.6168C5.98947 13.4843 6.26278 13.26 6.45507 12.9722C6.64737 12.6845 6.75 12.3461 6.75 12C6.74738 11.5367 6.56216 11.0931 6.23454 10.7655C5.90692 10.4378 5.46332 10.2526 5 10.25ZM19 8.25C18.3572 8.25 17.7289 8.05939 17.1944 7.70228C16.6599 7.34516 16.2434 6.83758 15.9974 6.24372C15.7514 5.64986 15.687 4.9964 15.8124 4.36596C15.9379 3.73552 16.2474 3.15642 16.7019 2.7019C17.1564 2.24738 17.7355 1.93785 18.366 1.81245C18.9964 1.68705 19.6499 1.75141 20.2437 1.99739C20.8376 2.24338 21.3452 2.65994 21.7023 3.1944C22.0594 3.72886 22.25 4.35721 22.25 5C22.2474 5.86114 21.9041 6.68626 21.2952 7.29518C20.6863 7.90411 19.8611 8.24736 19 8.25ZM19 3.25C18.6539 3.25 18.3155 3.35264 18.0278 3.54493C17.74 3.73722 17.5157 4.01053 17.3832 4.33031C17.2508 4.65008 17.2161 5.00194 17.2836 5.34141C17.3512 5.68088 17.5178 5.9927 17.7626 6.23744C18.0073 6.48218 18.3191 6.64885 18.6586 6.71638C18.9981 6.7839 19.3499 6.74924 19.6697 6.61679C19.9895 6.48434 20.2628 6.26004 20.4551 5.97225C20.6474 5.68446 20.75 5.34612 20.75 5C20.7474 4.53668 20.5622 4.09309 20.2345 3.76547C19.9069 3.43784 19.4633 3.25263 19 3.25ZM12 8.25C11.3572 8.25 10.7289 8.05939 10.1944 7.70228C9.65994 7.34516 9.24338 6.83758 8.99739 6.24372C8.75141 5.64986 8.68705 4.9964 8.81245 4.36596C8.93785 3.73552 9.24738 3.15642 9.7019 2.7019C10.1564 2.24738 10.7355 1.93785 11.366 1.81245C11.9964 1.68705 12.6499 1.75141 13.2437 1.99739C13.8376 2.24338 14.3452 2.65994 14.7023 3.1944C15.0594 3.72886 15.25 4.35721 15.25 5C15.2474 5.86114 14.9041 6.68626 14.2952 7.29518C13.6863 7.90411 12.8611 8.24736 12 8.25ZM12 3.25C11.6539 3.25 11.3155 3.35264 11.0278 3.54493C10.74 3.73722 10.5157 4.01053 10.3832 4.33031C10.2508 4.65008 10.2161 5.00194 10.2836 5.34141C10.3512 5.68088 10.5178 5.9927 10.7626 6.23744C11.0073 6.48218 11.3191 6.64885 11.6586 6.71638C11.9981 6.7839 12.3499 6.74924 12.6697 6.61679C12.9895 6.48434 13.2628 6.26004 13.4551 5.97225C13.6474 5.68446 13.75 5.34612 13.75 5C13.7474 4.53668 13.5622 4.09309 13.2345 3.76547C12.9069 3.43784 12.4633 3.25263 12 3.25Z" fill="black"/>
</svg>
