<svg width="24" height="24" viewBox="0 0 24 24" fill="none" xmlns="http://www.w3.org/2000/svg">
<path d="M22.0002 8.07998C21.4684 6.69793 20.6505 5.44387 19.6002 4.39998C18.1233 2.92011 16.2458 1.90444 14.199 1.47802C12.1521 1.05159 10.0253 1.23303 8.08022 1.99998C6.69776 2.53098 5.44354 3.34895 4.40022 4.39998C2.92257 5.87833 1.90841 7.75575 1.4821 9.80203C1.05579 11.8483 1.23586 13.9745 2.00022 15.92C2.53123 17.3024 3.3492 18.5567 4.40022 19.6C5.87576 21.0821 7.75328 22.0992 9.80068 22.5258C11.8481 22.9523 13.9756 22.7695 15.9202 22C17.2991 21.4677 18.5498 20.6498 19.5902 19.6C21.0674 18.1213 22.0819 16.2445 22.5099 14.1987C22.9379 12.1529 22.7608 10.0268 22.0002 8.07998ZM18.5402 5.45998C19.3295 6.24276 19.9669 7.16499 20.4202 8.17998L17.6602 10.94L12.5302 5.81998L9.75022 2.99998C11.3029 2.61287 12.9296 2.63609 14.4706 3.06736C16.0116 3.49864 17.414 4.32314 18.5402 5.45998ZM7.40022 12L12.0002 7.39998L16.6002 12L12.0002 16.6L7.40022 12ZM5.46022 5.45998C6.24301 4.67071 7.16524 4.03329 8.18022 3.57998L10.9402 6.33998L5.81022 11.47L3.00022 14.25C2.61312 12.6973 2.63634 11.0706 3.06761 9.5296C3.49889 7.98859 4.32339 6.58618 5.46022 5.45998ZM5.46022 18.54C4.67096 17.7572 4.03354 16.835 3.58022 15.82L6.34022 13.06L14.2502 21C12.6975 21.3861 11.0711 21.3624 9.53026 20.9311C7.98943 20.4999 6.58699 19.676 5.46022 18.54ZM15.8202 20.42L13.0602 17.66L18.1902 12.53L21.0002 9.74998C21.3911 11.3001 21.3726 12.9252 20.9467 14.4661C20.5207 16.0069 19.7018 17.4107 18.5702 18.54C17.7801 19.3341 16.847 19.972 15.8202 20.42Z" fill="black"/>
</svg>
