<svg width="24" height="24" viewBox="0 0 24 24" fill="none" xmlns="http://www.w3.org/2000/svg">
<path d="M20 21.75H4C3.53587 21.75 3.09075 21.5656 2.76256 21.2374C2.43437 20.9092 2.25 20.4641 2.25 20V4C2.25 3.53587 2.43437 3.09075 2.76256 2.76256C3.09075 2.43437 3.53587 2.25 4 2.25H20C20.4633 2.25263 20.9069 2.43784 21.2345 2.76546C21.5622 3.09309 21.7474 3.53668 21.75 4V20C21.75 20.4641 21.5656 20.9092 21.2374 21.2374C20.9092 21.5656 20.4641 21.75 20 21.75ZM4 3.75C3.9337 3.75 3.87011 3.77634 3.82322 3.82322C3.77634 3.87011 3.75 3.9337 3.75 4V20C3.75 20.0663 3.77634 20.1299 3.82322 20.1768C3.87011 20.2237 3.9337 20.25 4 20.25H20C20.0663 20.25 20.1299 20.2237 20.1768 20.1768C20.2237 20.1299 20.25 20.0663 20.25 20V4C20.25 3.9337 20.2237 3.87011 20.1768 3.82322C20.1299 3.77634 20.0663 3.75 20 3.75H4ZM17 17.75H7C6.80189 17.7474 6.61263 17.6676 6.47253 17.5275C6.33244 17.3874 6.25259 17.1981 6.25 17V7C6.25259 6.80189 6.33244 6.61263 6.47253 6.47253C6.61263 6.33244 6.80189 6.25259 7 6.25H17C17.1981 6.25259 17.3874 6.33244 17.5275 6.47253C17.6676 6.61263 17.7474 6.80189 17.75 7V17C17.7474 17.1981 17.6676 17.3874 17.5275 17.5275C17.3874 17.6676 17.1981 17.7474 17 17.75ZM7.75 16.25H16.25V7.75H7.75V16.25Z" fill="black"/>
</svg>
