<svg width="24" height="24" viewBox="0 0 24 24" fill="none" xmlns="http://www.w3.org/2000/svg">
<path d="M17.3798 2.68992C15.7383 1.76281 13.885 1.27563 11.9998 1.27563C10.1146 1.27563 8.26133 1.76281 6.61981 2.68992C4.98804 3.63544 3.63343 4.99323 2.69175 6.62722C1.75007 8.26121 1.25439 10.114 1.25439 11.9999C1.25439 13.8858 1.75007 15.7386 2.69175 17.3726C3.63343 19.0066 4.98804 20.3644 6.61981 21.3099C8.25217 22.2535 10.1043 22.7504 11.9898 22.7504C13.8753 22.7504 15.7275 22.2535 17.3598 21.3099C18.9916 20.3644 20.3462 19.0066 21.2879 17.3726C22.2296 15.7386 22.7252 13.8858 22.7252 11.9999C22.7252 10.114 22.2296 8.26121 21.2879 6.62722C20.3462 4.99323 18.9916 3.63544 17.3598 2.68992H17.3798ZM21.2198 11.2499H18.2198L15.7598 6.99992L17.2598 4.38992C18.3827 5.17285 19.3196 6.19328 20.0039 7.37882C20.6883 8.56437 21.1034 9.88598 21.2198 11.2499ZM14.4598 16.2499H9.53981L7.08981 11.9999L9.53981 7.74992H14.4598L16.8998 11.9999L14.4598 16.2499ZM15.9998 3.63992L14.4998 6.24992H9.53981L7.99981 3.63992C9.25062 3.04945 10.6166 2.74323 11.9998 2.74323C13.383 2.74323 14.749 3.04945 15.9998 3.63992ZM6.77981 4.38992L8.23981 6.99992L5.79981 11.2499H2.79981C2.91388 9.88765 3.32591 8.56709 4.00675 7.38166C4.68759 6.19623 5.62062 5.1749 6.73981 4.38992H6.77981ZM2.77981 12.7499H5.77981L8.23981 16.9999L6.73981 19.6099C5.61692 18.827 4.68006 17.8066 3.99569 16.621C3.31132 15.4355 2.89621 14.1139 2.77981 12.7499ZM7.99981 20.3599L9.49981 17.7499H14.4198L15.9998 20.3599C14.749 20.9504 13.383 21.2566 11.9998 21.2566C10.6166 21.2566 9.25062 20.9504 7.99981 20.3599ZM17.2198 19.6099L15.7598 16.9999L18.1998 12.7499H21.1998C21.0858 14.1122 20.6737 15.4328 19.9929 16.6182C19.312 17.8036 18.379 18.8249 17.2598 19.6099H17.2198Z" fill="black"/>
</svg>
