<svg width="24" height="24" viewBox="0 0 24 24" fill="none" xmlns="http://www.w3.org/2000/svg">
<path d="M22.7498 6.88004V3.40004C22.7493 3.11946 22.6866 2.84248 22.5663 2.589C22.446 2.33553 22.2711 2.11184 22.054 1.93401C21.837 1.75618 21.5833 1.62863 21.3111 1.56051C21.0389 1.49239 20.755 1.4854 20.4798 1.54004L2.99982 5.05004C2.51978 5.14318 2.08729 5.40092 1.77694 5.77881C1.4666 6.1567 1.29786 6.63105 1.29982 7.12004V12C1.29982 12 1.29982 12 1.29982 12.05C1.30587 12.1286 1.32269 12.206 1.34982 12.28C1.34982 12.28 1.34982 12.33 1.34982 12.36C1.38829 12.426 1.43537 12.4865 1.48982 12.54L1.61982 12.61L1.70982 12.66L6.89982 14.25L2.99982 15.05C2.51978 15.1432 2.08729 15.4009 1.77694 15.7788C1.4666 16.1567 1.29786 16.631 1.29982 17.12V20.6C1.30245 21.1031 1.50347 21.5849 1.85922 21.9406C2.21497 22.2964 2.69672 22.4974 3.19982 22.5C3.32271 22.5148 3.44693 22.5148 3.56982 22.5L21.0498 19C21.529 18.9051 21.9604 18.6469 22.2704 18.2694C22.5804 17.8919 22.7499 17.4185 22.7498 16.93V12C22.7498 12 22.7498 12 22.7498 11.95C22.7601 11.8737 22.7601 11.7964 22.7498 11.72V11.64C22.7114 11.5741 22.6643 11.5136 22.6098 11.46C22.5367 11.405 22.4558 11.3612 22.3698 11.33L17.0998 9.75004L21.0498 9.00004C21.5375 8.90357 21.9755 8.63799 22.2865 8.25014C22.5976 7.86228 22.7616 7.37706 22.7498 6.88004ZM21.2498 16.88C21.2503 17.0213 21.2017 17.1584 21.1123 17.2678C21.0229 17.3772 20.8983 17.4522 20.7598 17.48L3.22982 21C3.17229 21.011 3.11307 21.0096 3.05615 20.9958C2.99923 20.982 2.94592 20.9562 2.89982 20.92C2.85331 20.8828 2.8157 20.8356 2.78975 20.782C2.7638 20.7284 2.75016 20.6696 2.74982 20.61V17.12C2.74938 16.9788 2.79799 16.8417 2.88735 16.7323C2.97672 16.6228 3.1013 16.5478 3.23982 16.52L21.2398 12.92L21.2498 16.88ZM13.9998 10.37L18.9398 11.85L17.0898 12.23L10.0898 13.63L5.09982 12.15L5.99982 12L13.9998 10.37ZM20.7998 7.48004L2.79982 11.09V7.09004C2.79938 6.94876 2.84799 6.8117 2.93735 6.70227C3.02672 6.59284 3.1513 6.51783 3.28982 6.49004L20.7698 3.00004H20.8498C20.9407 3.00219 21.0284 3.03377 21.0998 3.09004C21.1463 3.12728 21.1839 3.17443 21.2099 3.22807C21.2358 3.2817 21.2495 3.34046 21.2498 3.40004V6.88004C21.2503 7.02132 21.2017 7.15837 21.1123 7.2678C21.0229 7.37723 20.8983 7.45224 20.7598 7.48004H20.7998Z" fill="black"/>
</svg>
