<svg width="24" height="24" viewBox="0 0 24 24" fill="none" xmlns="http://www.w3.org/2000/svg">
<path d="M4 6.75C3.4561 6.75 2.92442 6.58872 2.47218 6.28654C2.01995 5.98437 1.66747 5.55488 1.45933 5.05238C1.25119 4.54988 1.19673 3.99695 1.30284 3.4635C1.40895 2.93006 1.67086 2.44005 2.05546 2.05546C2.44005 1.67086 2.93006 1.40895 3.4635 1.30284C3.99695 1.19673 4.54988 1.25119 5.05238 1.45933C5.55488 1.66747 5.98437 2.01995 6.28654 2.47218C6.58872 2.92442 6.75 3.4561 6.75 4C6.75 4.72935 6.46027 5.42882 5.94455 5.94455C5.42882 6.46027 4.72935 6.75 4 6.75ZM4 2.75C3.75277 2.75 3.5111 2.82331 3.30554 2.96066C3.09998 3.09802 2.93976 3.29324 2.84515 3.52165C2.75054 3.75005 2.72579 4.00139 2.77402 4.24386C2.82225 4.48634 2.9413 4.70907 3.11612 4.88388C3.29093 5.0587 3.51366 5.17775 3.75614 5.22598C3.99861 5.27421 4.24995 5.24946 4.47836 5.15485C4.70676 5.06024 4.90199 4.90003 5.03934 4.69446C5.17669 4.4889 5.25 4.24723 5.25 4C5.25 3.66848 5.11831 3.35054 4.88388 3.11612C4.64946 2.8817 4.33152 2.75 4 2.75ZM20 22.75C19.4561 22.75 18.9244 22.5887 18.4722 22.2865C18.0199 21.9844 17.6675 21.5549 17.4593 21.0524C17.2512 20.5499 17.1967 19.997 17.3028 19.4635C17.409 18.9301 17.6709 18.4401 18.0555 18.0555C18.4401 17.6709 18.9301 17.409 19.4635 17.3028C19.997 17.1967 20.5499 17.2512 21.0524 17.4593C21.5549 17.6675 21.9844 18.0199 22.2865 18.4722C22.5887 18.9244 22.75 19.4561 22.75 20C22.75 20.7293 22.4603 21.4288 21.9445 21.9445C21.4288 22.4603 20.7293 22.75 20 22.75ZM20 18.75C19.7528 18.75 19.5111 18.8233 19.3055 18.9607C19.1 19.098 18.9398 19.2932 18.8452 19.5216C18.7505 19.7501 18.7258 20.0014 18.774 20.2439C18.8223 20.4863 18.9413 20.7091 19.1161 20.8839C19.2909 21.0587 19.5137 21.1778 19.7561 21.226C19.9986 21.2742 20.2499 21.2495 20.4784 21.1549C20.7068 21.0602 20.902 20.9 21.0393 20.6945C21.1767 20.4889 21.25 20.2472 21.25 20C21.25 19.6685 21.1183 19.3505 20.8839 19.1161C20.6495 18.8817 20.3315 18.75 20 18.75ZM12 22.75C11.4561 22.75 10.9244 22.5887 10.4722 22.2865C10.0199 21.9844 9.66747 21.5549 9.45933 21.0524C9.25119 20.5499 9.19673 19.997 9.30284 19.4635C9.40895 18.9301 9.67086 18.4401 10.0555 18.0555C10.4401 17.6709 10.9301 17.409 11.4635 17.3028C11.997 17.1967 12.5499 17.2512 13.0524 17.4593C13.5549 17.6675 13.9844 18.0199 14.2865 18.4722C14.5887 18.9244 14.75 19.4561 14.75 20C14.75 20.7293 14.4603 21.4288 13.9445 21.9445C13.4288 22.4603 12.7293 22.75 12 22.75ZM12 18.75C11.7528 18.75 11.5111 18.8233 11.3055 18.9607C11.1 19.098 10.9398 19.2932 10.8452 19.5216C10.7505 19.7501 10.7258 20.0014 10.774 20.2439C10.8223 20.4863 10.9413 20.7091 11.1161 20.8839C11.2909 21.0587 11.5137 21.1778 11.7561 21.226C11.9986 21.2742 12.2499 21.2495 12.4784 21.1549C12.7068 21.0602 12.902 20.9 13.0393 20.6945C13.1767 20.4889 13.25 20.2472 13.25 20C13.25 19.6685 13.1183 19.3505 12.8839 19.1161C12.6495 18.8817 12.3315 18.75 12 18.75ZM4 22.75C3.4561 22.75 2.92442 22.5887 2.47218 22.2865C2.01995 21.9844 1.66747 21.5549 1.45933 21.0524C1.25119 20.5499 1.19673 19.997 1.30284 19.4635C1.40895 18.9301 1.67086 18.4401 2.05546 18.0555C2.44005 17.6709 2.93006 17.409 3.4635 17.3028C3.99695 17.1967 4.54988 17.2512 5.05238 17.4593C5.55488 17.6675 5.98437 18.0199 6.28654 18.4722C6.58872 18.9244 6.75 19.4561 6.75 20C6.75 20.7293 6.46027 21.4288 5.94455 21.9445C5.42882 22.4603 4.72935 22.75 4 22.75ZM4 18.75C3.75277 18.75 3.5111 18.8233 3.30554 18.9607C3.09998 19.098 2.93976 19.2932 2.84515 19.5216C2.75054 19.7501 2.72579 20.0014 2.77402 20.2439C2.82225 20.4863 2.9413 20.7091 3.11612 20.8839C3.29093 21.0587 3.51366 21.1778 3.75614 21.226C3.99861 21.2742 4.24995 21.2495 4.47836 21.1549C4.70676 21.0602 4.90199 20.9 5.03934 20.6945C5.17669 20.4889 5.25 20.2472 5.25 20C5.25 19.6685 5.11831 19.3505 4.88388 19.1161C4.64946 18.8817 4.33152 18.75 4 18.75ZM20 14.75C19.4561 14.75 18.9244 14.5887 18.4722 14.2865C18.0199 13.9844 17.6675 13.5549 17.4593 13.0524C17.2512 12.5499 17.1967 11.997 17.3028 11.4635C17.409 10.9301 17.6709 10.4401 18.0555 10.0555C18.4401 9.67086 18.9301 9.40895 19.4635 9.30284C19.997 9.19673 20.5499 9.25119 21.0524 9.45933C21.5549 9.66747 21.9844 10.0199 22.2865 10.4722C22.5887 10.9244 22.75 11.4561 22.75 12C22.75 12.7293 22.4603 13.4288 21.9445 13.9445C21.4288 14.4603 20.7293 14.75 20 14.75ZM20 10.75C19.7528 10.75 19.5111 10.8233 19.3055 10.9607C19.1 11.098 18.9398 11.2932 18.8452 11.5216C18.7505 11.7501 18.7258 12.0014 18.774 12.2439C18.8223 12.4863 18.9413 12.7091 19.1161 12.8839C19.2909 13.0587 19.5137 13.1778 19.7561 13.226C19.9986 13.2742 20.2499 13.2495 20.4784 13.1549C20.7068 13.0602 20.902 12.9 21.0393 12.6945C21.1767 12.4889 21.25 12.2472 21.25 12C21.25 11.6685 21.1183 11.3505 20.8839 11.1161C20.6495 10.8817 20.3315 10.75 20 10.75ZM12 14.75C11.4561 14.75 10.9244 14.5887 10.4722 14.2865C10.0199 13.9844 9.66747 13.5549 9.45933 13.0524C9.25119 12.5499 9.19673 11.997 9.30284 11.4635C9.40895 10.9301 9.67086 10.4401 10.0555 10.0555C10.4401 9.67086 10.9301 9.40895 11.4635 9.30284C11.997 9.19673 12.5499 9.25119 13.0524 9.45933C13.5549 9.66747 13.9844 10.0199 14.2865 10.4722C14.5887 10.9244 14.75 11.4561 14.75 12C14.75 12.7293 14.4603 13.4288 13.9445 13.9445C13.4288 14.4603 12.7293 14.75 12 14.75ZM12 10.75C11.7528 10.75 11.5111 10.8233 11.3055 10.9607C11.1 11.098 10.9398 11.2932 10.8452 11.5216C10.7505 11.7501 10.7258 12.0014 10.774 12.2439C10.8223 12.4863 10.9413 12.7091 11.1161 12.8839C11.2909 13.0587 11.5137 13.1778 11.7561 13.226C11.9986 13.2742 12.2499 13.2495 12.4784 13.1549C12.7068 13.0602 12.902 12.9 13.0393 12.6945C13.1767 12.4889 13.25 12.2472 13.25 12C13.25 11.6685 13.1183 11.3505 12.8839 11.1161C12.6495 10.8817 12.3315 10.75 12 10.75ZM4 14.75C3.4561 14.75 2.92442 14.5887 2.47218 14.2865C2.01995 13.9844 1.66747 13.5549 1.45933 13.0524C1.25119 12.5499 1.19673 11.997 1.30284 11.4635C1.40895 10.9301 1.67086 10.4401 2.05546 10.0555C2.44005 9.67086 2.93006 9.40895 3.4635 9.30284C3.99695 9.19673 4.54988 9.25119 5.05238 9.45933C5.55488 9.66747 5.98437 10.0199 6.28654 10.4722C6.58872 10.9244 6.75 11.4561 6.75 12C6.75 12.7293 6.46027 13.4288 5.94455 13.9445C5.42882 14.4603 4.72935 14.75 4 14.75ZM4 10.75C3.75277 10.75 3.5111 10.8233 3.30554 10.9607C3.09998 11.098 2.93976 11.2932 2.84515 11.5216C2.75054 11.7501 2.72579 12.0014 2.77402 12.2439C2.82225 12.4863 2.9413 12.7091 3.11612 12.8839C3.29093 13.0587 3.51366 13.1778 3.75614 13.226C3.99861 13.2742 4.24995 13.2495 4.47836 13.1549C4.70676 13.0602 4.90199 12.9 5.03934 12.6945C5.17669 12.4889 5.25 12.2472 5.25 12C5.25 11.6685 5.11831 11.3505 4.88388 11.1161C4.64946 10.8817 4.33152 10.75 4 10.75ZM20 6.75C19.4561 6.75 18.9244 6.58872 18.4722 6.28654C18.0199 5.98437 17.6675 5.55488 17.4593 5.05238C17.2512 4.54988 17.1967 3.99695 17.3028 3.4635C17.409 2.93006 17.6709 2.44005 18.0555 2.05546C18.4401 1.67086 18.9301 1.40895 19.4635 1.30284C19.997 1.19673 20.5499 1.25119 21.0524 1.45933C21.5549 1.66747 21.9844 2.01995 22.2865 2.47218C22.5887 2.92442 22.75 3.4561 22.75 4C22.75 4.72935 22.4603 5.42882 21.9445 5.94455C21.4288 6.46027 20.7293 6.75 20 6.75ZM20 2.75C19.7528 2.75 19.5111 2.82331 19.3055 2.96066C19.1 3.09802 18.9398 3.29324 18.8452 3.52165C18.7505 3.75005 18.7258 4.00139 18.774 4.24386C18.8223 4.48634 18.9413 4.70907 19.1161 4.88388C19.2909 5.0587 19.5137 5.17775 19.7561 5.22598C19.9986 5.27421 20.2499 5.24946 20.4784 5.15485C20.7068 5.06024 20.902 4.90003 21.0393 4.69446C21.1767 4.4889 21.25 4.24723 21.25 4C21.25 3.66848 21.1183 3.35054 20.8839 3.11612C20.6495 2.8817 20.3315 2.75 20 2.75ZM12 6.75C11.4561 6.75 10.9244 6.58872 10.4722 6.28654C10.0199 5.98437 9.66747 5.55488 9.45933 5.05238C9.25119 4.54988 9.19673 3.99695 9.30284 3.4635C9.40895 2.93006 9.67086 2.44005 10.0555 2.05546C10.4401 1.67086 10.9301 1.40895 11.4635 1.30284C11.997 1.19673 12.5499 1.25119 13.0524 1.45933C13.5549 1.66747 13.9844 2.01995 14.2865 2.47218C14.5887 2.92442 14.75 3.4561 14.75 4C14.75 4.72935 14.4603 5.42882 13.9445 5.94455C13.4288 6.46027 12.7293 6.75 12 6.75ZM12 2.75C11.7528 2.75 11.5111 2.82331 11.3055 2.96066C11.1 3.09802 10.9398 3.29324 10.8452 3.52165C10.7505 3.75005 10.7258 4.00139 10.774 4.24386C10.8223 4.48634 10.9413 4.70907 11.1161 4.88388C11.2909 5.0587 11.5137 5.17775 11.7561 5.22598C11.9986 5.27421 12.2499 5.24946 12.4784 5.15485C12.7068 5.06024 12.902 4.90003 13.0393 4.69446C13.1767 4.4889 13.25 4.24723 13.25 4C13.25 3.66848 13.1183 3.35054 12.8839 3.11612C12.6495 2.8817 12.3315 2.75 12 2.75Z" fill="black"/>
</svg>
