<svg width="24" height="24" viewBox="0 0 24 24" fill="none" xmlns="http://www.w3.org/2000/svg">
<path d="M22.4398 6.07989C22.5017 5.94033 22.5176 5.78471 22.4852 5.63552C22.4529 5.48633 22.3739 5.35129 22.2598 5.24989L19.5898 2.54989C19.2907 2.24434 18.9124 2.0282 18.4973 1.92575C18.0822 1.82329 17.6467 1.83858 17.2398 1.96989C14.4198 2.96989 7.33982 2.60989 6.23982 1.70989C6.19427 1.67561 6.14367 1.64862 6.08982 1.62989C5.94848 1.56876 5.7916 1.55325 5.64103 1.58552C5.49046 1.61778 5.3537 1.69622 5.24982 1.80989L2.44982 4.46989C2.14621 4.77026 1.9314 5.14861 1.82906 5.56326C1.72672 5.9779 1.74083 6.41275 1.86982 6.81989C2.32701 8.47657 2.53595 10.1919 2.48982 11.9099C2.48982 15.7399 1.77982 17.5799 1.63982 17.7699C1.60554 17.8154 1.57855 17.866 1.55982 17.9199C1.4987 18.0612 1.48318 18.2181 1.51545 18.3687C1.54772 18.5193 1.62615 18.656 1.73982 18.7599L4.42982 21.4599C4.728 21.7636 5.10461 21.9786 5.51774 22.081C5.93087 22.1834 6.36431 22.1692 6.76982 22.0399C9.58982 21.0399 16.6698 21.3999 17.7698 22.2999C17.9038 22.4131 18.0745 22.4736 18.2498 22.4699C18.3531 22.4699 18.4552 22.4486 18.5499 22.4073C18.6445 22.366 18.7296 22.3056 18.7998 22.2299C18.8187 22.2047 18.8354 22.1779 18.8498 22.1499L21.5198 19.5099C21.8254 19.2108 22.0415 18.8325 22.144 18.4174C22.2464 18.0022 22.2311 17.5668 22.0998 17.1599C21.0998 14.3399 21.4598 7.25989 22.3598 6.15989C22.3892 6.13604 22.416 6.10924 22.4398 6.07989ZM17.6998 3.31989C17.8396 3.27755 17.9883 3.27476 18.1295 3.31183C18.2707 3.3489 18.3989 3.42438 18.4998 3.52989L20.6398 5.69989L20.5298 5.77989L20.1498 5.99989L19.8598 6.14989L19.6198 6.24989C18.4444 6.73917 17.211 7.07526 15.9498 7.24989H15.8798C14.5935 7.41748 13.2969 7.49433 11.9998 7.47989C10.8765 7.48001 9.75435 7.40987 8.63982 7.26989C8.63982 7.20989 8.63982 7.14989 8.63982 7.08989C8.55982 6.62989 8.46982 6.18989 8.34982 5.74989C8.34982 5.56989 8.26982 5.39989 8.21982 5.22989C8.16982 5.05989 8.06982 4.86989 7.99982 4.69989C7.92982 4.52989 7.84982 4.24989 7.75982 3.99989C7.66982 3.74989 7.65982 3.74989 7.59982 3.61989C10.9534 4.18553 14.3857 4.08358 17.6998 3.31989ZM15.1898 15.1899C13.0755 14.9698 10.9441 14.9698 8.82982 15.1899C8.94594 14.0938 9.00269 12.9922 8.99982 11.8899C8.99883 10.8545 8.94543 9.81986 8.83982 8.78989C9.88883 8.91432 10.9436 8.98441 11.9998 8.99989C13.0655 9.00151 14.1304 8.94476 15.1898 8.82989C14.9663 10.944 14.9663 13.0758 15.1898 15.1899ZM3.49982 5.52989L5.70982 3.34989L5.76982 3.43989C5.86982 3.58989 5.96982 3.75989 6.05982 3.92989C6.08254 3.9819 6.10929 4.03205 6.13982 4.07989C6.38804 4.59501 6.5921 5.13027 6.74982 5.67989C6.74982 5.74989 6.74982 5.82989 6.74982 5.89989C6.81982 6.12989 6.86982 6.35989 6.92982 6.60989C6.98982 6.85989 6.92982 6.82989 6.99982 6.93989L7.11982 7.60989L7.22982 7.99989C7.40923 9.27863 7.49612 10.5686 7.48982 11.8599C7.49965 13.0427 7.4362 14.2249 7.29982 15.3999C6.66982 15.5099 6.05982 15.6399 5.47982 15.7999H5.42982C5.13982 15.8799 4.86982 15.9699 4.59982 16.0599H4.46982C4.18982 16.1599 3.91982 16.2699 3.66982 16.3799H3.59982C3.88166 14.9069 4.01566 13.4095 3.99982 11.9099C4.04477 10.0386 3.80882 8.17118 3.29982 6.36989C3.25614 6.22467 3.25163 6.07049 3.28676 5.92297C3.32188 5.77545 3.39539 5.63984 3.49982 5.52989ZM6.29982 20.6799C6.15991 20.72 6.01177 20.7217 5.871 20.6847C5.73022 20.6477 5.602 20.5735 5.49982 20.4699L3.34982 18.2999L3.47982 18.2199L3.72982 18.0699L3.99982 17.9999L4.32982 17.8499L4.52982 17.7599L4.93982 17.6099H5.07982C5.30982 17.5299 5.54982 17.4499 5.80982 17.3799L6.30982 17.2399H6.49982L7.12982 16.9999H7.21982L8.07982 16.8499C10.5029 16.5037 12.9614 16.4835 15.3898 16.7899C15.5445 17.6925 15.7685 18.5818 16.0598 19.4499C16.0555 19.4898 16.0555 19.53 16.0598 19.5699C16.1377 19.8045 16.2278 20.0348 16.3298 20.2599L16.3898 20.4199C13.042 19.8435 9.61349 19.9318 6.29982 20.6799ZM20.4598 18.4999L18.2998 20.6499L18.2098 20.5099C18.2098 20.4399 18.1198 20.3699 18.0798 20.2899L17.9298 19.9899C17.8891 19.9152 17.8524 19.8385 17.8198 19.7599C17.7598 19.6299 17.6998 19.4899 17.6498 19.3499L17.5798 19.1699C17.217 18.1412 16.9557 17.0795 16.7998 15.9999C16.4502 13.5706 16.4267 11.1054 16.7298 8.66989C17.6503 8.51797 18.5567 8.29053 19.4398 7.98989H19.4998C19.7898 7.88989 20.0898 7.77989 20.3598 7.65989C19.7965 11.0279 19.9052 14.4741 20.6798 17.7999C20.7043 17.9257 20.697 18.0555 20.6586 18.1778C20.6201 18.3 20.5518 18.4107 20.4598 18.4999Z" fill="black"/>
</svg>
