<svg width="24" height="24" viewBox="0 0 24 24" fill="none" xmlns="http://www.w3.org/2000/svg">
<path d="M17.2899 8.8701C17.4017 8.80213 17.4944 8.70677 17.5591 8.59304C17.6238 8.47931 17.6585 8.35096 17.6599 8.2201V4.1401C17.66 3.84737 17.5832 3.55974 17.4372 3.30605C17.2911 3.05235 17.081 2.8415 16.8278 2.69464C16.5745 2.54777 16.2872 2.47004 15.9944 2.46924C15.7017 2.46845 15.4139 2.54461 15.1599 2.6901L11.9999 4.5101L8.83989 2.6901C8.58587 2.54461 8.29808 2.46845 8.00535 2.46924C7.71262 2.47004 7.42524 2.54777 7.17202 2.69464C6.9188 2.8415 6.70863 3.05235 6.56258 3.30605C6.41653 3.55974 6.33974 3.84737 6.33989 4.1401V8.2201C6.34124 8.35096 6.37593 8.47931 6.44067 8.59304C6.5054 8.70677 6.59806 8.80213 6.70989 8.8701L11.6199 11.7001C11.7354 11.7666 11.8666 11.8011 11.9999 11.8001C12.1302 11.8024 12.2585 11.7677 12.3699 11.7001L17.2899 8.8701ZM15.9099 4.0001C15.9357 3.98518 15.965 3.97733 15.9949 3.97733C16.0247 3.97733 16.054 3.98518 16.0799 4.0001C16.1068 4.01407 16.1289 4.03589 16.1432 4.06267C16.1575 4.08946 16.1633 4.11994 16.1599 4.1501V7.7801L12.7499 9.7801V5.8101L15.9099 4.0001ZM7.83989 4.1501C7.83648 4.11994 7.8423 4.08946 7.85659 4.06267C7.87087 4.03589 7.89294 4.01407 7.91989 4.0001C7.94573 3.98518 7.97505 3.97733 8.00489 3.97733C8.03473 3.97733 8.06404 3.98518 8.08989 4.0001L11.2499 5.8201V9.8201L7.83989 7.8201V4.1501ZM21.9099 11.5001L18.3799 9.5001C18.2669 9.43119 18.1372 9.39473 18.0049 9.39473C17.8726 9.39473 17.7428 9.43119 17.6299 9.5001L12.7199 12.3001C12.6035 12.3637 12.5066 12.4578 12.4396 12.5723C12.3727 12.6869 12.3382 12.8175 12.3399 12.9501V18.6201C12.3382 18.7527 12.3727 18.8833 12.4396 18.9979C12.5066 19.1124 12.6035 19.2065 12.7199 19.2701L16.2499 21.2701C16.5024 21.4207 16.7909 21.5002 17.0849 21.5002C17.3789 21.5002 17.6674 21.4207 17.9199 21.2701C18.1759 21.1246 18.3887 20.9137 18.5363 20.6589C18.6839 20.4041 18.7611 20.1146 18.7599 19.8201V16.2201L21.9099 14.3901C22.1657 14.2454 22.3786 14.0354 22.5267 13.7815C22.6748 13.5277 22.7528 13.239 22.7528 12.9451C22.7528 12.6512 22.6748 12.3625 22.5267 12.1087C22.3786 11.8548 22.1657 11.6448 21.9099 11.5001ZM17.1699 20.0001C17.144 20.015 17.1147 20.0229 17.0849 20.0229C17.055 20.0229 17.0257 20.015 16.9999 20.0001L13.8399 18.1801V14.1801L17.2599 16.1801V19.8201C17.266 19.8558 17.2606 19.8925 17.2444 19.9248C17.2282 19.9572 17.2021 19.9836 17.1699 20.0001ZM21.1699 13.0801L17.9999 14.9201L14.5799 12.9201L17.9999 11.0001L21.1499 12.8301C21.1771 12.8446 21.1998 12.8662 21.2157 12.8926C21.2315 12.9191 21.2399 12.9493 21.2399 12.9801C21.2355 13.0032 21.226 13.025 21.2122 13.044C21.1983 13.063 21.1805 13.0788 21.1599 13.0901L21.1699 13.0801ZM11.2899 12.2901L6.36989 9.4601C6.25694 9.39119 6.12719 9.35473 5.99489 9.35473C5.86258 9.35473 5.73283 9.39119 5.61989 9.4601L2.07989 11.4601C1.82661 11.6068 1.61635 11.8176 1.47018 12.0712C1.32401 12.3248 1.24707 12.6124 1.24707 12.9051C1.24707 13.1978 1.32401 13.4854 1.47018 13.739C1.61635 13.9926 1.82661 14.2034 2.07989 14.3501L5.23989 16.1801V19.8201C5.23871 20.1146 5.31588 20.4041 5.46349 20.6589C5.61111 20.9137 5.82384 21.1246 6.07989 21.2701C6.33238 21.4207 6.62089 21.5002 6.91489 21.5002C7.20888 21.5002 7.4974 21.4207 7.74989 21.2701L11.2799 19.2701C11.3963 19.2065 11.4932 19.1124 11.5602 18.9979C11.6271 18.8833 11.6616 18.7527 11.6599 18.6201V13.0001C11.6711 12.8592 11.6412 12.718 11.5738 12.5937C11.5063 12.4694 11.4042 12.3674 11.2799 12.3001L11.2899 12.2901ZM2.74989 13.0001C2.74778 12.9701 2.75417 12.9401 2.76832 12.9136C2.78247 12.8871 2.80381 12.8651 2.82989 12.8501L5.99989 11.0001L9.41989 13.0001L5.99989 14.9201L2.82989 13.0901C2.81106 13.0814 2.79423 13.069 2.78046 13.0535C2.76669 13.038 2.75628 13.0198 2.74989 13.0001ZM6.99989 20.0001C6.97404 20.015 6.94473 20.0229 6.91489 20.0229C6.88505 20.0229 6.85573 20.015 6.82989 20.0001C6.8027 19.9856 6.77997 19.964 6.76411 19.9376C6.74826 19.9111 6.73989 19.8809 6.73989 19.8501V16.2201L10.1599 14.2201V18.2201L6.99989 20.0001Z" fill="black"/>
</svg>
