<svg width="24" height="24" viewBox="0 0 24 24" fill="none" xmlns="http://www.w3.org/2000/svg">
<path d="M11.59 22.44C11.2614 22.4412 10.9358 22.3772 10.632 22.2519C10.3282 22.1267 10.0522 21.9425 9.81998 21.71L2.99998 14.87C2.62007 14.4923 2.36111 14.0101 2.25605 13.4848C2.15098 12.9595 2.20457 12.4148 2.40998 11.92L2.82998 10.92C3.0342 10.4252 3.3809 10.0022 3.82604 9.70486C4.27118 9.40751 4.79466 9.24919 5.32998 9.25002H13.38L10.29 6.18002C10.0575 5.94775 9.87335 5.67177 9.74806 5.36799C9.62277 5.0642 9.55885 4.73862 9.55998 4.41002C9.56098 3.74695 9.82326 3.111 10.29 2.64002L10.65 2.29002C11.1186 1.82287 11.7533 1.56055 12.415 1.56055C13.0767 1.56055 13.7114 1.82287 14.18 2.29002L21 9.13002C21.381 9.50699 21.6408 9.98921 21.7459 10.5148C21.8511 11.0404 21.7967 11.5855 21.59 12.08L21.17 13.08C20.9658 13.5749 20.6191 13.9978 20.1739 14.2952C19.7288 14.5925 19.2053 14.7508 18.67 14.75H10.67L13.74 17.82C14.2053 18.2916 14.4662 18.9275 14.4662 19.59C14.4662 20.2525 14.2053 20.8884 13.74 21.36L13.38 21.71C13.1457 21.9453 12.8665 22.1312 12.559 22.2566C12.2516 22.382 11.922 22.4444 11.59 22.44ZM5.30998 10.75C5.0711 10.749 4.83726 10.8188 4.63795 10.9505C4.43864 11.0821 4.28277 11.2699 4.18998 11.49L3.77998 12.49C3.68007 12.7067 3.64762 12.9485 3.68686 13.1839C3.72609 13.4193 3.83518 13.6374 3.99998 13.81L10.84 20.64C11.0273 20.8263 11.2808 20.9308 11.545 20.9308C11.8092 20.9308 12.0626 20.8263 12.25 20.64L12.61 20.29C12.7962 20.1027 12.9008 19.8492 12.9008 19.585C12.9008 19.3208 12.7962 19.0674 12.61 18.88L8.29998 14.53C8.19522 14.4251 8.1239 14.2916 8.09502 14.1462C8.06613 14.0008 8.08098 13.8501 8.13769 13.7131C8.19441 13.5761 8.29043 13.459 8.41365 13.3766C8.53686 13.2942 8.68174 13.2501 8.82998 13.25H18.69C18.9289 13.251 19.1627 13.1813 19.362 13.0496C19.5613 12.9179 19.7172 12.7301 19.81 12.51L20.22 11.51C20.3185 11.293 20.3502 11.0516 20.3111 10.8165C20.2719 10.5814 20.1636 10.3633 20 10.19L13.12 3.35002C12.9326 3.16377 12.6792 3.05922 12.415 3.05922C12.1508 3.05922 11.8973 3.16377 11.71 3.35002L11.36 3.71002C11.1716 3.89465 11.0637 4.14625 11.06 4.41002C11.0605 4.54232 11.0873 4.67321 11.1388 4.79508C11.1903 4.91696 11.2655 5.0274 11.36 5.12002L15.7 9.47002C15.8047 9.5749 15.8761 9.70848 15.9049 9.85388C15.9338 9.99928 15.919 10.15 15.8623 10.2869C15.8056 10.4239 15.7095 10.541 15.5863 10.6234C15.4631 10.7058 15.3182 10.7499 15.17 10.75H5.30998Z" fill="black"/>
</svg>
