<svg width="24" height="24" viewBox="0 0 24 24" fill="none" xmlns="http://www.w3.org/2000/svg">
<path d="M22.39 14.7601C22.8425 13.0273 22.8549 11.209 22.4261 9.47022C21.9974 7.73145 21.141 6.12735 19.9348 4.80361C18.7287 3.47987 17.2109 2.47843 15.5194 1.89027C13.8279 1.3021 12.0162 1.14583 10.249 1.43566C8.48175 1.7255 6.81492 2.45224 5.39989 3.54989C3.98485 4.64753 2.86646 6.0813 2.1463 7.72097C1.42613 9.36063 1.127 11.1542 1.27609 12.9389C1.42517 14.7235 2.01775 16.4426 2.99998 17.9401C3.07073 18.0417 3.16493 18.1247 3.2746 18.1822C3.38427 18.2396 3.50618 18.2698 3.62998 18.2701C3.76029 18.2723 3.88857 18.2377 3.99998 18.1701L9.63998 14.9201C9.75181 14.8521 9.84447 14.7567 9.9092 14.643C9.97394 14.5293 10.0086 14.4009 10.01 14.2701V8.72006L15.72 12.0001L4.56998 18.4401C4.47216 18.4984 4.38889 18.5782 4.32652 18.6735C4.26414 18.7688 4.22429 18.8771 4.20998 18.9901C4.19503 19.1041 4.20616 19.2201 4.24253 19.3292C4.27891 19.4383 4.33958 19.5378 4.41998 19.6201C5.75474 20.961 7.42006 21.9256 9.24738 22.4161C11.0747 22.9066 12.9992 22.9057 14.8261 22.4135C16.6529 21.9213 18.3173 20.9552 19.6509 19.613C20.9844 18.2708 21.9396 16.6001 22.42 14.7701L22.39 14.7601ZM12 2.75006C13.3338 2.74719 14.6525 3.03345 15.8651 3.58913C17.0777 4.14481 18.1554 4.95671 19.0241 5.96891C19.8928 6.98111 20.5318 8.16956 20.897 9.45243C21.2623 10.7353 21.3452 12.0821 21.14 13.4001L17.6 11.3501L6.21998 4.78006C7.85617 3.45937 9.8973 2.7425 12 2.75006ZM8.54998 13.8301L3.92998 16.5101C2.99001 14.8352 2.59653 12.9086 2.80449 10.9993C3.01246 9.08999 3.81148 7.29329 5.08998 5.86006L8.54998 7.86006V13.8301ZM12 21.2501C9.90094 21.2661 7.8602 20.56 6.21998 19.2501L17.22 12.9001L20.77 14.9501C20.1547 16.788 18.9765 18.3856 17.4024 19.5164C15.8283 20.6472 13.9381 21.2537 12 21.2501Z" fill="black"/>
</svg>
