<svg width="24" height="24" viewBox="0 0 24 24" fill="none" xmlns="http://www.w3.org/2000/svg">
<path d="M22.7202 12.76C22.7202 12.51 22.7202 12.26 22.7202 12C22.7146 9.28082 21.6805 6.66439 19.8257 4.676C17.9708 2.6876 15.4325 1.47443 12.7202 1.28003C12.4702 1.28003 12.2202 1.28003 11.9602 1.28003C9.24102 1.2857 6.6246 2.31974 4.6362 4.17459C2.64781 6.02943 1.43464 8.56777 1.24023 11.28C1.24023 11.53 1.24023 11.78 1.24023 12.04C1.2459 14.7592 2.27995 17.3757 4.13479 19.3641C5.98964 21.3525 8.52797 22.5656 11.2402 22.76H11.3102C11.5402 22.76 11.7802 22.76 12.0202 22.76C14.7394 22.7544 17.3559 21.7203 19.3443 19.8655C21.3327 18.0106 22.5458 15.4723 22.7402 12.76H22.7202ZM21.1802 10.85L20.0002 9.70003C19.8597 9.55934 19.6691 9.4802 19.4702 9.48003C19.2924 9.4951 19.1257 9.5731 19.0002 9.70003L17.6602 11C17.4669 9.86513 16.9345 8.81536 16.1331 7.98891C15.3316 7.16246 14.2987 6.59807 13.1702 6.37003L11.2902 4.50003L13.0002 2.81003C15.0681 3.03789 16.9993 3.95473 18.483 5.41305C19.9667 6.87136 20.9167 8.78638 21.1802 10.85ZM11.3402 16.19C10.3386 16.0388 9.42471 15.5323 8.7656 14.763C8.10648 13.9938 7.74609 13.013 7.75023 12C7.7485 11.7786 7.7686 11.5575 7.81023 11.34C7.96146 10.3384 8.46796 9.42451 9.23724 8.76539C10.0065 8.10628 10.9872 7.74588 12.0002 7.75003C12.2217 7.74783 12.4428 7.76793 12.6602 7.81003C13.6619 7.96125 14.5758 8.46776 15.2349 9.23703C15.894 10.0063 16.2544 10.987 16.2502 12C16.2524 12.2215 16.2323 12.4426 16.1902 12.66C16.039 13.6617 15.5325 14.5756 14.7632 15.2347C13.994 15.8938 13.0133 16.2542 12.0002 16.25C11.7788 16.2518 11.5577 16.2317 11.3402 16.19ZM10.8502 2.82003L9.70023 4.00003C9.57725 4.13753 9.50925 4.31555 9.50925 4.50003C9.50925 4.68451 9.57725 4.86252 9.70023 5.00003L11.0002 6.34003C9.86399 6.53399 8.81325 7.06789 7.98666 7.87127C7.16006 8.67465 6.59647 9.70977 6.37023 10.84L4.50023 12.71L2.81023 11C3.0381 8.93214 3.95493 7.00101 5.41325 5.5173C6.87157 4.03359 8.78659 3.08355 10.8502 2.82003ZM2.85023 13.15L4.00023 14.3C4.14075 14.4407 4.33139 14.5199 4.53023 14.52C4.70809 14.505 4.87474 14.427 5.00023 14.3L6.33023 13C6.52681 14.1352 7.06158 15.1845 7.86452 16.0106C8.66746 16.8368 9.70114 17.4012 10.8302 17.63L12.7102 19.5L11.0002 21.19C8.93235 20.9622 7.00121 20.0453 5.5175 18.587C4.03379 17.1287 3.08376 15.2137 2.82023 13.15H2.85023ZM13.1802 21.15L14.3002 20C14.4407 19.8594 14.5196 19.6688 14.5196 19.47C14.5196 19.2713 14.4407 19.0807 14.3002 18.94L13.0002 17.67C14.1367 17.4728 15.187 16.9365 16.0133 16.1317C16.8396 15.3268 17.4032 14.291 17.6302 13.16L19.5002 11.29L21.1902 13C20.9624 15.0679 20.0455 16.999 18.5872 18.4828C17.1289 19.9665 15.2139 20.9165 13.1502 21.18L13.1802 21.15Z" fill="black"/>
</svg>
