<svg width="24" height="24" viewBox="0 0 24 24" fill="none" xmlns="http://www.w3.org/2000/svg">
<path d="M22.47 18.0001L14.08 3.41008L13.77 2.86008C13.6003 2.53758 13.3458 2.26756 13.0338 2.07919C12.7219 1.89082 12.3644 1.79126 12 1.79126C11.6356 1.79126 11.2781 1.89082 10.9661 2.07919C10.6542 2.26756 10.3996 2.53758 10.23 2.86008L1.99997 17.2101L1.57997 17.9301C1.387 18.2347 1.27999 18.5859 1.27026 18.9464C1.26053 19.3068 1.34845 19.6633 1.52471 19.9779C1.70097 20.2925 1.95902 20.5536 2.27153 20.7335C2.58404 20.9135 2.9394 21.0056 3.29997 21.0001H10.36C10.5589 21.0001 10.7497 20.9211 10.8903 20.7804C11.031 20.6398 11.11 20.449 11.11 20.2501C11.11 20.0512 11.031 19.8604 10.8903 19.7197C10.7497 19.5791 10.5589 19.5001 10.36 19.5001H3.29997C3.20499 19.5005 3.11157 19.4758 3.02915 19.4286C2.94673 19.3814 2.87823 19.3133 2.83056 19.2311C2.78288 19.1489 2.75773 19.0557 2.75763 18.9607C2.75752 18.8657 2.78248 18.7723 2.82997 18.6901L3.23997 18.0001C3.46997 17.6201 3.70997 17.2301 3.96997 16.8401C5.73997 14.0901 8.13997 11.3001 11.49 10.8401H12C12.5727 10.8417 13.1348 10.9941 13.6299 11.282C14.1249 11.5699 14.5354 11.9831 14.82 12.4801C15.1062 12.968 15.2548 13.5244 15.25 14.0901C15.2497 14.3428 15.2195 14.5945 15.16 14.8401C15.16 14.8401 15.16 14.9201 15.16 14.9601C15.0955 15.2039 15.0014 15.439 14.88 15.6601C14.592 16.1674 14.1724 16.5875 13.6655 16.8762C13.1586 17.1648 12.5832 17.3113 12 17.3001C11.2743 17.3146 10.5665 17.0739 9.99997 16.6201C9.84737 16.5146 9.66144 16.4685 9.47724 16.4906C9.29304 16.5128 9.12329 16.6015 8.99997 16.7401C8.87924 16.8981 8.82431 17.0966 8.84667 17.2942C8.86904 17.4918 8.96698 17.6731 9.11997 17.8001C9.66149 18.2221 10.2882 18.5214 10.9568 18.6774C11.6254 18.8334 12.3199 18.8423 12.9923 18.7034C13.6646 18.5646 14.2988 18.2813 14.8509 17.8733C15.403 17.4652 15.8599 16.9421 16.19 16.3401C16.3667 16.0059 16.5075 15.6539 16.61 15.2901V15.2201C16.6986 14.9308 16.772 14.637 16.83 14.3401C16.83 14.2501 16.83 14.1601 16.83 14.0701C16.83 13.9801 16.9 13.6601 16.92 13.4501C16.94 13.2401 16.92 13.2401 16.92 13.1401C16.92 13.0401 16.92 12.7501 16.92 12.5501V12.2401C16.9302 12.0369 16.9302 11.8333 16.92 11.6301C16.9252 11.5669 16.9252 11.5033 16.92 11.4401L21.13 18.7301C21.1775 18.8123 21.2024 18.9057 21.2023 19.0007C21.2022 19.0957 21.1771 19.1889 21.1294 19.2711C21.0817 19.3533 21.0132 19.4214 20.9308 19.4686C20.8484 19.5158 20.755 19.5405 20.66 19.5401C19.2634 19.5542 17.8673 19.4807 16.48 19.3201C16.2824 19.2949 16.0829 19.3492 15.9254 19.4711C15.7678 19.593 15.6652 19.7725 15.64 19.9701C15.6148 20.1677 15.6691 20.3672 15.791 20.5247C15.9129 20.6822 16.0924 20.7849 16.29 20.8101C17.7545 20.9661 19.2274 21.0296 20.7 21.0001C21.0543 21.0068 21.404 20.9194 21.7133 20.7466C22.0227 20.5738 22.2806 20.3219 22.4607 20.0167C22.6407 19.7116 22.7365 19.364 22.7381 19.0097C22.7397 18.6553 22.6472 18.3069 22.47 18.0001ZM12 9.30008C11.7756 9.31194 11.552 9.3353 11.33 9.37008C10.9927 9.41035 10.6585 9.47384 10.33 9.56008L9.99997 9.63008C9.76997 9.70008 9.53997 9.77008 9.30997 9.86008L9.04997 9.96008C8.75928 10.0772 8.47549 10.2107 8.19997 10.3601C7.93331 10.5067 7.67331 10.6667 7.41997 10.8401L7.31997 10.9001L11.53 3.61008C11.5748 3.52413 11.6423 3.45212 11.7251 3.40186C11.808 3.3516 11.9031 3.32503 12 3.32503C12.0969 3.32503 12.1919 3.3516 12.2748 3.40186C12.3577 3.45212 12.4252 3.52413 12.47 3.61008L12.77 4.13008L13.11 4.75008C13.1473 4.81468 13.1807 4.88147 13.21 4.95008C13.3 5.11008 13.39 5.28008 13.47 5.45008C13.55 5.62008 13.54 5.58008 13.58 5.65008L13.89 6.28008C13.8862 6.30996 13.8862 6.3402 13.89 6.37008C14.13 6.89008 14.37 7.44008 14.58 8.00008C14.8989 8.8574 15.1432 9.74068 15.31 10.6401C14.4212 9.78258 13.235 9.30237 12 9.30008Z" fill="black"/>
</svg>
