<svg width="24" height="24" viewBox="0 0 24 24" fill="none" xmlns="http://www.w3.org/2000/svg">
<path d="M22.5402 19.3799L18.0002 11.4399L13.3702 3.49995C13.2318 3.25897 13.0322 3.05877 12.7917 2.91955C12.5511 2.78034 12.2781 2.70703 12.0002 2.70703C11.7223 2.70703 11.4493 2.78034 11.2088 2.91955C10.9682 3.05877 10.7687 3.25897 10.6302 3.49995L6.05022 11.4399L1.46022 19.3799C1.32147 19.6203 1.24846 19.8929 1.24854 20.1704C1.24861 20.4479 1.32176 20.7204 1.46064 20.9607C1.59951 21.2009 1.7992 21.4003 2.03963 21.5389C2.28005 21.6775 2.55273 21.7502 2.83022 21.7499H21.1702C21.4477 21.7502 21.7204 21.6775 21.9608 21.5389C22.2012 21.4003 22.4009 21.2009 22.5398 20.9607C22.6787 20.7204 22.7518 20.4479 22.7519 20.1704C22.752 19.8929 22.679 19.6203 22.5402 19.3799ZM12.0902 4.26995L16.0002 11.0599H8.00022L11.9202 4.26995C11.9292 4.25548 11.9417 4.24354 11.9566 4.23525C11.9714 4.22697 11.9882 4.22263 12.0052 4.22263C12.0222 4.22263 12.039 4.22697 12.0539 4.23525C12.0687 4.24354 12.0812 4.25548 12.0902 4.26995ZM16.0002 12.5599L12.0002 19.4999L8.00022 12.5599H16.0002ZM2.83022 20.2499L2.76022 20.1299L6.70022 13.3099L10.7002 20.2499H2.83022ZM21.1702 20.2499H13.3002L17.3002 13.3099L21.2402 20.1299L21.1702 20.2499Z" fill="black"/>
</svg>
