<svg width="24" height="24" viewBox="0 0 24 24" fill="none" xmlns="http://www.w3.org/2000/svg">
<path d="M11.9999 22.7501C11.5709 22.752 11.1494 22.638 10.7799 22.4201L3.57986 18.2601C3.2095 18.0486 2.9016 17.743 2.68735 17.3742C2.47311 17.0054 2.36013 16.5866 2.35986 16.1601V7.84006C2.36013 7.41357 2.47311 6.99472 2.68735 6.62594C2.9016 6.25716 3.2095 5.95155 3.57986 5.74006L10.7899 1.58006C11.1599 1.36873 11.5787 1.25757 12.0049 1.25757C12.431 1.25757 12.8498 1.36873 13.2199 1.58006L20.4199 5.74006C20.7902 5.95155 21.0981 6.25716 21.3124 6.62594C21.5266 6.99472 21.6396 7.41357 21.6399 7.84006V16.1601C21.6396 16.5866 21.5266 17.0054 21.3124 17.3742C21.0981 17.743 20.7902 18.0486 20.4199 18.2601L13.2099 22.4201C12.8445 22.6391 12.4258 22.7532 11.9999 22.7501ZM11.9999 2.75006C11.8387 2.74954 11.6802 2.79089 11.5399 2.87006L4.32986 7.00006C4.18756 7.08222 4.06928 7.20024 3.98681 7.34237C3.90435 7.48449 3.86057 7.64575 3.85986 7.81006V16.1301C3.86057 16.2944 3.90435 16.4556 3.98681 16.5978C4.06928 16.7399 4.18756 16.8579 4.32986 16.9401L11.5399 21.1001C11.6804 21.1789 11.8388 21.2203 11.9999 21.2203C12.161 21.2203 12.3194 21.1789 12.4599 21.1001L19.6699 17.0001C19.8122 16.9179 19.9304 16.7999 20.0129 16.6578C20.0954 16.5156 20.1392 16.3544 20.1399 16.1901V7.84006C20.1445 7.67069 20.1033 7.50321 20.0205 7.35534C19.9378 7.20747 19.8166 7.08472 19.6699 7.00006L12.4599 2.87006C12.3195 2.79089 12.161 2.74954 11.9999 2.75006ZM11.9999 18.3901C11.8666 18.3911 11.7354 18.3566 11.6199 18.2901L6.73986 15.4701C6.62485 15.4048 6.52912 15.3104 6.46239 15.1962C6.39565 15.0821 6.36028 14.9523 6.35986 14.8201V9.18006C6.36028 9.04784 6.39565 8.91807 6.46239 8.80392C6.52912 8.68977 6.62485 8.59529 6.73986 8.53006L11.6199 5.71006C11.7328 5.64115 11.8626 5.6047 11.9949 5.6047C12.1272 5.6047 12.2569 5.64115 12.3699 5.71006L17.2599 8.53006C17.3749 8.59529 17.4706 8.68977 17.5373 8.80392C17.6041 8.91807 17.6394 9.04784 17.6399 9.18006V14.8201C17.6394 14.9523 17.6041 15.0821 17.5373 15.1962C17.4706 15.3104 17.3749 15.4048 17.2599 15.4701L12.3699 18.2901C12.2584 18.3577 12.1302 18.3923 11.9999 18.3901ZM7.85986 14.3901L11.9999 16.7701L16.1399 14.3901V9.61006L11.9999 7.22006L7.85986 9.61006V14.3901Z" fill="black"/>
</svg>
