<svg width="24" height="24" viewBox="0 0 24 24" fill="none" xmlns="http://www.w3.org/2000/svg">
<path d="M21.8199 10.76L16.5299 5.46999L13.2399 2.17999C13.078 2.01551 12.885 1.88489 12.6721 1.79572C12.4592 1.70656 12.2307 1.66064 11.9999 1.66064C11.7691 1.66064 11.5406 1.70656 11.3278 1.79572C11.1149 1.88489 10.9219 2.01551 10.7599 2.17999L5.46995 7.46999L2.17995 10.76C1.85263 11.0897 1.66895 11.5354 1.66895 12C1.66895 12.4646 1.85263 12.9103 2.17995 13.24L7.46995 18.53L10.7599 21.82C10.9221 21.9841 11.1152 22.1146 11.328 22.2038C11.5408 22.2931 11.7692 22.3394 11.9999 22.34C12.2307 22.3394 12.4591 22.2931 12.6719 22.2038C12.8847 22.1146 13.0778 21.9841 13.2399 21.82L18.5299 16.53L21.8199 13.24C21.9844 13.0781 22.1151 12.8851 22.2042 12.6722C22.2934 12.4593 22.3393 12.2308 22.3393 12C22.3393 11.7692 22.2934 11.5407 22.2042 11.3278C22.1151 11.1149 21.9844 10.9219 21.8199 10.76ZM11.8199 3.23999C11.8433 3.21579 11.8712 3.19655 11.9022 3.1834C11.9331 3.17026 11.9663 3.16348 11.9999 3.16348C12.0336 3.16348 12.0668 3.17026 12.0977 3.1834C12.1287 3.19655 12.1566 3.21579 12.1799 3.23999L14.9399 5.99999L11.4699 9.46999L9.99995 10.94L7.05995 7.99999L11.8199 3.23999ZM11.9999 12.94L11.0599 12L11.9999 11.06L12.9399 12L11.9999 12.94ZM3.23995 11.82L5.99995 9.05999L9.46995 12.53L10.9399 14L7.99995 16.94L3.23995 12.18C3.21575 12.1567 3.1965 12.1287 3.18336 12.0978C3.17021 12.0669 3.16344 12.0336 3.16344 12C3.16344 11.9664 3.17021 11.9331 3.18336 11.9022C3.1965 11.8713 3.21575 11.8433 3.23995 11.82ZM12.1799 20.76C12.1613 20.7911 12.1349 20.8168 12.1034 20.8346C12.0718 20.8524 12.0362 20.8618 11.9999 20.8618C11.9637 20.8618 11.9281 20.8524 11.8965 20.8346C11.865 20.8168 11.8386 20.7911 11.8199 20.76L9.05995 18L12.5299 14.53L13.9999 13.06L16.9399 16L12.1799 20.76ZM20.7599 12.18L17.9999 14.94L14.5299 11.47L13.0599 9.99999L15.9999 7.05999L20.7599 11.82C20.7841 11.8433 20.8034 11.8713 20.8165 11.9022C20.8297 11.9331 20.8365 11.9664 20.8365 12C20.8365 12.0336 20.8297 12.0669 20.8165 12.0978C20.8034 12.1287 20.7841 12.1567 20.7599 12.18Z" fill="black"/>
</svg>
