<svg width="24" height="24" viewBox="0 0 24 24" fill="none" xmlns="http://www.w3.org/2000/svg">
<path d="M5.21012 19.93H3.64012C3.42678 19.9301 3.21566 19.8866 3.01966 19.8024C2.82365 19.7181 2.64688 19.5948 2.50012 19.44C2.35319 19.2903 2.23907 19.1116 2.16504 18.9153C2.091 18.719 2.05868 18.5095 2.07012 18.3C2.29169 14.0674 4.07276 10.0667 7.06979 7.06966C10.0668 4.07264 14.0675 2.29157 18.3001 2.06999C18.5113 2.06192 18.7219 2.09656 18.9194 2.17183C19.1168 2.24711 19.2971 2.36147 19.4493 2.50807C19.6015 2.65467 19.7225 2.83049 19.8051 3.02499C19.8878 3.21949 19.9303 3.42867 19.9301 3.63999V5.20999C19.9335 5.62724 19.7767 6.02988 19.492 6.33498C19.2074 6.64008 18.8166 6.82441 18.4001 6.84999C15.401 7.04515 12.5752 8.32468 10.45 10.4499C8.3248 12.5751 7.04528 15.4008 6.85012 18.4C6.82218 18.8156 6.63714 19.205 6.33255 19.4892C6.02797 19.7733 5.62667 19.9309 5.21012 19.93ZM18.4301 3.63999C14.5491 3.76515 10.8634 5.37184 8.13012 8.12999C5.38846 10.8608 3.76271 14.5152 3.57012 18.38L5.21012 18.43C5.24403 18.4303 5.27692 18.4184 5.30267 18.3963C5.32841 18.3742 5.34528 18.3436 5.35012 18.31C5.554 14.9491 6.97612 11.7778 9.35012 9.39C11.7379 7.01599 14.9092 5.59388 18.2701 5.38999C18.2872 5.38873 18.3039 5.3841 18.3192 5.37637C18.3345 5.36864 18.3481 5.35796 18.3592 5.34495C18.3704 5.33194 18.3789 5.31685 18.3842 5.30056C18.3895 5.28426 18.3915 5.26708 18.3901 5.24999L18.4301 3.63999ZM17.1001 21.93H15.5001C15.2764 21.9287 15.0555 21.8798 14.8521 21.7867C14.6487 21.6936 14.4674 21.5584 14.3201 21.39C14.1815 21.218 14.0813 21.0184 14.0261 20.8046C13.9709 20.5907 13.962 20.3675 14.0001 20.15C14.1965 18.5856 14.8988 17.1282 16.0001 16C17.1284 14.8987 18.5857 14.1963 20.1501 14C20.3713 13.9666 20.5971 13.9825 20.8115 14.0464C21.0258 14.1104 21.2234 14.2209 21.3901 14.37C21.5585 14.5172 21.6938 14.6986 21.7869 14.902C21.8799 15.1054 21.9288 15.3263 21.9301 15.55V17.15C21.9272 17.5299 21.7948 17.8974 21.5548 18.192C21.3148 18.4865 20.9816 18.6904 20.6101 18.77C20.148 18.8728 19.7248 19.1052 19.39 19.4399C19.0553 19.7747 18.8229 20.1979 18.7201 20.66C18.6308 21.0222 18.4227 21.3441 18.1291 21.5743C17.8354 21.8045 17.4732 21.9297 17.1001 21.93ZM17.1001 17.08C16.2052 17.9627 15.6255 19.1153 15.4501 20.36L17.1201 20.43C17.2101 20.43 17.2601 20.33 17.2801 20.27C17.447 19.5355 17.8179 18.863 18.3501 18.33C18.8808 17.7947 19.5542 17.4232 20.2901 17.26C20.3601 17.26 20.4501 17.18 20.4501 17.1V15.5C19.1722 15.6001 17.9744 16.1617 17.0801 17.08H17.1001ZM11.1601 20.93H9.56012C9.34577 20.9306 9.13365 20.8864 8.93735 20.8003C8.74105 20.7142 8.56488 20.5881 8.42012 20.43C8.27183 20.2693 8.15805 20.0799 8.08581 19.8735C8.01358 19.6671 7.98441 19.4481 8.00012 19.23C8.22515 16.3265 9.48057 13.599 11.5398 11.5397C13.5991 9.48045 16.3266 8.22503 19.2301 7.99999C19.4482 7.98488 19.667 8.01432 19.8733 8.08653C20.0796 8.15873 20.2691 8.2722 20.4301 8.41999C20.5882 8.56475 20.7143 8.74092 20.8004 8.93722C20.8865 9.13353 20.9307 9.34564 20.9301 9.56V11.14C20.9344 11.5466 20.7856 11.9399 20.5132 12.2419C20.2409 12.5439 19.865 12.7324 19.4601 12.77C17.7417 12.9329 16.135 13.6938 14.9201 14.92C13.6939 16.1349 12.933 17.7416 12.7701 19.46C12.7325 19.8649 12.544 20.2408 12.242 20.5131C11.9401 20.7854 11.5467 20.9342 11.1401 20.93H11.1601ZM19.3401 9.49999C16.7954 9.69544 14.4045 10.7949 12.5998 12.5996C10.795 14.4044 9.69557 16.7952 9.50012 19.34L9.56012 19.43H11.1401C11.1726 19.4307 11.2043 19.4202 11.2299 19.4001C11.2554 19.38 11.2732 19.3517 11.2801 19.32C11.4725 17.2536 12.3859 15.3207 13.8601 13.86C15.3193 12.3836 17.253 11.4699 19.3201 11.28C19.3801 11.28 19.4301 11.21 19.4301 11.14V9.56L19.3401 9.49999Z" fill="black"/>
</svg>
