<svg width="24" height="24" viewBox="0 0 24 24" fill="none" xmlns="http://www.w3.org/2000/svg">
<path d="M23.1898 10C23.2327 7.73476 22.3758 5.54487 20.8068 3.91032C19.2379 2.27578 17.0849 1.32991 14.8198 1.28003C13.3579 1.29154 11.9249 1.68757 10.6645 2.42832C9.40422 3.16906 8.36103 4.22845 7.63978 5.50003C6.02268 5.85173 4.5406 6.66045 3.36978 7.83003C1.73207 9.46774 0.812012 11.689 0.812012 14.005C0.812012 16.3211 1.73207 18.5423 3.36978 20.18C5.00749 21.8177 7.22871 22.7378 9.54478 22.7378C11.8609 22.7378 14.0821 21.8177 15.7198 20.18C16.2669 19.636 16.7378 19.0204 17.1198 18.35C18.8921 17.7913 20.4383 16.6786 21.531 15.1755C22.6237 13.6724 23.2051 11.8583 23.1898 10ZM14.8198 17.21C12.9516 17.1655 11.1775 16.381 9.88746 15.029C8.59738 13.6771 7.89684 11.8682 7.93978 10C7.93978 9.86003 7.93978 9.73003 7.93978 9.60003C7.94503 9.50154 7.93084 9.40298 7.898 9.30997C7.86516 9.21697 7.81432 9.13134 7.74839 9.05798C7.68247 8.98463 7.60273 8.92497 7.51375 8.88243C7.42476 8.83988 7.32827 8.81528 7.22978 8.81003C7.13129 8.80478 7.03273 8.81897 6.93972 8.85181C6.84672 8.88465 6.76109 8.93549 6.68773 9.00142C6.61438 9.06734 6.55472 9.14708 6.51218 9.23606C6.46963 9.32505 6.44503 9.42154 6.43978 9.52003C6.43978 9.68003 6.43978 9.84003 6.43978 10C6.39959 12.2653 7.25907 14.4541 8.82987 16.0867C10.4007 17.7194 12.5547 18.6627 14.8198 18.71H14.9998C14.8814 18.8637 14.7546 19.0106 14.6198 19.15C13.429 20.3213 11.8693 21.0442 10.2059 21.1958C8.54246 21.3474 6.87786 20.9183 5.49495 19.9815C4.11204 19.0448 3.09614 17.658 2.61989 16.0571C2.14364 14.4561 2.23642 12.7396 2.88247 11.1992C3.52851 9.65889 4.68795 8.38976 6.16378 7.60751C7.63961 6.82525 9.34076 6.57812 10.9782 6.90812C12.6156 7.23811 14.0882 8.12487 15.1458 9.41771C16.2034 10.7105 16.7808 12.3297 16.7798 14C16.7798 14.1989 16.8588 14.3897 16.9995 14.5304C17.1401 14.671 17.3309 14.75 17.5298 14.75C17.7287 14.75 17.9195 14.671 18.0601 14.5304C18.2008 14.3897 18.2798 14.1989 18.2798 14C18.2798 11.696 17.368 9.48556 15.7435 7.85167C14.1189 6.21778 11.9138 5.29324 9.60978 5.28003C10.2389 4.50209 11.0322 3.87279 11.9328 3.43715C12.8335 3.0015 13.8193 2.77029 14.8198 2.76003C16.6907 2.80977 18.4652 3.60033 19.7535 4.95794C21.0417 6.31555 21.7382 8.12912 21.6898 10C21.7274 11.8631 21.0258 13.6653 19.7385 15.0127C18.4511 16.36 16.6827 17.1428 14.8198 17.19V17.21Z" fill="black"/>
</svg>
