<svg width="24" height="24" viewBox="0 0 24 24" fill="none" xmlns="http://www.w3.org/2000/svg">
<path d="M14.08 21.46C13.6446 21.4671 13.224 21.3017 12.91 21L8.69003 16.75H5.00003C4.06654 16.7548 3.16483 16.4112 2.47122 15.7864C1.7776 15.1616 1.34194 14.3006 1.24943 13.3717C1.15691 12.4428 1.41419 11.5128 1.97095 10.7635C2.52772 10.0142 3.34394 9.49948 4.26003 9.32001C4.26003 9.22001 4.26003 9.11001 4.26003 9.00001C4.25932 7.79908 4.63595 6.62828 5.33672 5.65301C6.03749 4.67774 7.02698 3.9473 8.1654 3.56488C9.30381 3.18246 10.5336 3.16739 11.6811 3.52181C12.8285 3.87622 13.8356 4.5822 14.56 5.54001C15.1297 5.30311 15.749 5.21041 16.363 5.27012C16.977 5.32983 17.5668 5.54011 18.0802 5.88232C18.5935 6.22454 19.0144 6.68811 19.3057 7.23195C19.597 7.77578 19.7496 8.38308 19.75 9.00001C19.75 9.11001 19.75 9.21001 19.75 9.32001C20.667 9.49957 21.484 10.015 22.0408 10.7654C22.5977 11.5158 22.8543 12.447 22.7605 13.3767C22.6666 14.3065 22.2291 15.1676 21.5335 15.7916C20.8379 16.4156 19.9344 16.7573 19 16.75H15.75V19.8C15.7527 20.1252 15.6592 20.4439 15.4812 20.7161C15.3033 20.9883 15.0489 21.2019 14.75 21.33C14.539 21.4223 14.3102 21.4667 14.08 21.46ZM5.00003 10.75C4.4033 10.75 3.831 10.9871 3.40904 11.409C2.98709 11.831 2.75003 12.4033 2.75003 13C2.75003 13.5968 2.98709 14.169 3.40904 14.591C3.831 15.013 4.4033 15.25 5.00003 15.25H9.00003C9.19888 15.2502 9.38952 15.3293 9.53003 15.47L14 19.91C14.027 19.9269 14.0582 19.9358 14.09 19.9358C14.1219 19.9358 14.153 19.9269 14.18 19.91C14.2107 19.8992 14.237 19.8788 14.2551 19.8517C14.2731 19.8247 14.2819 19.7925 14.28 19.76V16C14.2826 15.8019 14.3625 15.6126 14.5026 15.4725C14.6427 15.3325 14.8319 15.2526 15.03 15.25H19.03C19.6268 15.25 20.1991 15.013 20.621 14.591C21.043 14.169 21.28 13.5968 21.28 13C21.28 12.4033 21.043 11.831 20.621 11.409C20.1991 10.9871 19.6268 10.75 19.03 10.75H18.88C18.7555 10.7564 18.6313 10.7324 18.518 10.6801C18.4048 10.6279 18.306 10.5489 18.23 10.45C18.1554 10.3494 18.1072 10.2318 18.0897 10.1077C18.0722 9.98372 18.0861 9.8573 18.13 9.74001C18.2101 9.50153 18.2506 9.25157 18.25 9.00001C18.25 8.40328 18.013 7.83098 17.591 7.40902C17.1691 6.98707 16.5968 6.75002 16 6.75002C15.5498 6.74679 15.1097 6.88303 14.74 7.14001C14.6551 7.19912 14.5586 7.23949 14.4569 7.25845C14.3551 7.27742 14.2506 7.27454 14.15 7.25002C14.0493 7.22685 13.9546 7.18285 13.8719 7.12085C13.7892 7.05884 13.7205 6.98021 13.67 6.89001C13.2056 6.07842 12.4859 5.44313 11.6229 5.08302C10.7599 4.72291 9.80209 4.65818 8.89851 4.89891C7.99493 5.13964 7.19627 5.67231 6.62684 6.41404C6.05741 7.15576 5.74915 8.06492 5.75003 9.00001C5.74978 9.28904 5.77995 9.5773 5.84003 9.86001C5.85958 9.97037 5.85541 10.0836 5.82783 10.1922C5.80024 10.3009 5.74986 10.4024 5.68003 10.49C5.60712 10.5777 5.51519 10.6475 5.41122 10.6943C5.30725 10.7411 5.19399 10.7636 5.08003 10.76L5.00003 10.75Z" fill="black"/>
</svg>
