<svg width="24" height="24" viewBox="0 0 24 24" fill="none" xmlns="http://www.w3.org/2000/svg">
<path d="M20.1198 21.0001H15.1198C14.9208 21.0001 14.7301 20.9211 14.5894 20.7804C14.4488 20.6398 14.3698 20.449 14.3698 20.2501C14.3698 20.0512 14.4488 19.8604 14.5894 19.7197C14.7301 19.5791 14.9208 19.5001 15.1198 19.5001H20.1198C20.2977 19.5025 20.473 19.4575 20.6277 19.3696C20.7824 19.2817 20.9108 19.1542 20.9998 19.0001C21.0875 18.8481 21.1337 18.6756 21.1337 18.5001C21.1337 18.3245 21.0875 18.1521 20.9998 18.0001L13.4998 5.00007C13.4024 4.85152 13.2697 4.72953 13.1134 4.64511C12.9572 4.56069 12.7824 4.51648 12.6048 4.51648C12.4272 4.51648 12.2524 4.56069 12.0961 4.64511C11.9399 4.72953 11.8071 4.85152 11.7098 5.00007L9.43976 8.91007C9.39654 9.0057 9.33373 9.0912 9.2554 9.16103C9.17707 9.23086 9.08495 9.28348 8.985 9.31548C8.88506 9.34748 8.77951 9.35814 8.67518 9.34679C8.57086 9.33544 8.47008 9.30232 8.37935 9.24957C8.28863 9.19683 8.20998 9.12563 8.1485 9.04058C8.08702 8.95554 8.04407 8.85853 8.02243 8.75585C8.0008 8.65316 8.00095 8.54707 8.02288 8.44445C8.04481 8.34182 8.08804 8.24494 8.14976 8.16007L10.4098 4.23007C10.6299 3.84339 10.9485 3.52189 11.3331 3.29824C11.7178 3.0746 12.1548 2.95679 12.5998 2.95679C13.0447 2.95679 13.4817 3.0746 13.8664 3.29824C14.251 3.52189 14.5696 3.84339 14.7898 4.23007L22.3098 17.2301C22.5358 17.6133 22.655 18.0501 22.655 18.4951C22.655 18.94 22.5358 19.3768 22.3098 19.7601C22.0854 20.1406 21.765 20.4554 21.3806 20.673C20.9963 20.8907 20.5615 21.0034 20.1198 21.0001ZM12.1198 19.7301C12.3458 19.3468 12.465 18.91 12.465 18.4651C12.465 18.0201 12.3458 17.5833 12.1198 17.2001L9.07976 12.0001C8.85963 11.6134 8.54104 11.2919 8.15638 11.0682C7.77173 10.8446 7.33471 10.7268 6.88976 10.7268C6.44481 10.7268 6.00779 10.8446 5.62314 11.0682C5.23848 11.2919 4.91989 11.6134 4.69976 12.0001L1.69976 17.2101C1.47372 17.5933 1.35449 18.0301 1.35449 18.4751C1.35449 18.92 1.47372 19.3568 1.69976 19.7401C1.92073 20.1228 2.23848 20.4407 2.62111 20.6619C3.00375 20.883 3.43781 20.9997 3.87976 21.0001H9.87976C10.3242 21.0101 10.7633 20.9014 11.1518 20.6852C11.5402 20.469 11.864 20.1531 12.0898 19.7701L12.1198 19.7301ZM5.99976 12.7801C6.09589 12.6315 6.2277 12.5093 6.38316 12.4247C6.53862 12.3401 6.71278 12.2958 6.88976 12.2958C7.06674 12.2958 7.2409 12.3401 7.39636 12.4247C7.55182 12.5093 7.68363 12.6315 7.77976 12.7801L10.7798 17.9901C10.8675 18.1421 10.9137 18.3145 10.9137 18.4901C10.9137 18.6656 10.8675 18.8381 10.7798 18.9901C10.6926 19.1494 10.5637 19.282 10.4069 19.3736C10.2501 19.4652 10.0713 19.5124 9.88976 19.5101H3.88976C3.70918 19.5134 3.53109 19.4677 3.37439 19.3779C3.21769 19.2881 3.08823 19.1575 2.99976 19.0001C2.91199 18.8481 2.86579 18.6756 2.86579 18.5001C2.86579 18.3245 2.91199 18.1521 2.99976 18.0001L5.99976 12.7901V12.7801Z" fill="black"/>
</svg>
