<svg width="24" height="24" viewBox="0 0 24 24" fill="none" xmlns="http://www.w3.org/2000/svg">
<path d="M16.5 5.75H14C13.5253 5.75 13.07 5.93859 12.7343 6.27428C12.3986 6.60997 12.21 7.06526 12.21 7.54V11.25H11.71V7.54C11.7105 7.0788 11.5329 6.63523 11.2143 6.30174C10.8957 5.96826 10.4607 5.77061 10 5.75H7.5C5.8424 5.75 4.25269 6.40848 3.08058 7.58058C1.90848 8.75269 1.25 10.3424 1.25 12C1.25 13.6576 1.90848 15.2473 3.08058 16.4194C4.25269 17.5915 5.8424 18.25 7.5 18.25H10C10.4747 18.25 10.93 18.0614 11.2657 17.7257C11.6014 17.39 11.79 16.9347 11.79 16.46V12.75H12.29V16.46C12.2895 16.9212 12.4671 17.3648 12.7857 17.6983C13.1043 18.0317 13.5393 18.2294 14 18.25H16.5C18.1576 18.25 19.7473 17.5915 20.9194 16.4194C22.0915 15.2473 22.75 13.6576 22.75 12C22.75 10.3424 22.0915 8.75269 20.9194 7.58058C19.7473 6.40848 18.1576 5.75 16.5 5.75ZM10.25 16.46C10.25 16.5369 10.2194 16.6107 10.1651 16.6651C10.1107 16.7194 10.0369 16.75 9.96 16.75H7.5C6.24022 16.75 5.03204 16.2496 4.14124 15.3588C3.25045 14.468 2.75 13.2598 2.75 12C2.75 10.7402 3.25045 9.53204 4.14124 8.64124C5.03204 7.75045 6.24022 7.25 7.5 7.25H10C10.0769 7.25 10.1507 7.28055 10.2051 7.33494C10.2594 7.38932 10.29 7.46309 10.29 7.54V11.25H8.06C7.86109 11.25 7.67032 11.329 7.52967 11.4697C7.38902 11.6103 7.31 11.8011 7.31 12C7.31 12.1989 7.38902 12.3897 7.52967 12.5303C7.67032 12.671 7.86109 12.75 8.06 12.75H10.25V16.46ZM16.5 16.75H14C13.9231 16.75 13.8493 16.7194 13.7949 16.6651C13.7406 16.6107 13.71 16.5369 13.71 16.46V12.75H16.04C16.2389 12.75 16.4297 12.671 16.5703 12.5303C16.711 12.3897 16.79 12.1989 16.79 12C16.79 11.8011 16.711 11.6103 16.5703 11.4697C16.4297 11.329 16.2389 11.25 16.04 11.25H13.75V7.54C13.7493 7.46954 13.7743 7.40125 13.8203 7.34788C13.8663 7.29451 13.9302 7.25972 14 7.25H16.5C17.7598 7.25 18.968 7.75045 19.8588 8.64124C20.7496 9.53204 21.25 10.7402 21.25 12C21.25 13.2598 20.7496 14.468 19.8588 15.3588C18.968 16.2496 17.7598 16.75 16.5 16.75Z" fill="black"/>
</svg>
