<svg width="24" height="24" viewBox="0 0 24 24" fill="none" xmlns="http://www.w3.org/2000/svg">
<path d="M12 22.75C9.87386 22.75 7.79545 22.1195 6.02762 20.9383C4.2598 19.7571 2.88194 18.0782 2.0683 16.1139C1.25466 14.1495 1.04177 11.9881 1.45656 9.90278C1.87135 7.81749 2.89519 5.90202 4.39861 4.39861C5.90202 2.89519 7.81749 1.87135 9.90278 1.45656C11.9881 1.04177 14.1495 1.25466 16.1139 2.0683C18.0782 2.88194 19.7571 4.2598 20.9383 6.02762C22.1195 7.79545 22.75 9.87386 22.75 12C22.7474 14.8503 21.6139 17.583 19.5985 19.5985C17.583 21.6139 14.8503 22.7474 12 22.75ZM12 2.75C10.1705 2.75 8.38213 3.29251 6.86098 4.30891C5.33983 5.32531 4.15423 6.76997 3.45412 8.46018C2.75401 10.1504 2.57083 12.0103 2.92774 13.8046C3.28465 15.5989 4.16563 17.2471 5.45927 18.5407C6.7529 19.8344 8.40109 20.7154 10.1954 21.0723C11.9897 21.4292 13.8496 21.246 15.5398 20.5459C17.23 19.8458 18.6747 18.6602 19.6911 17.139C20.7075 15.6179 21.25 13.8295 21.25 12C21.2474 9.54756 20.272 7.19633 18.5378 5.46219C16.8037 3.72805 14.4524 2.75265 12 2.75ZM15 16.75H9C8.53588 16.75 8.09076 16.5656 7.76257 16.2374C7.43438 15.9093 7.25 15.4641 7.25 15V9C7.25 8.53588 7.43438 8.09076 7.76257 7.76257C8.09076 7.43438 8.53588 7.25 9 7.25H15C15.4633 7.25263 15.9069 7.43785 16.2345 7.76547C16.5622 8.09309 16.7474 8.53669 16.75 9V15C16.75 15.4641 16.5656 15.9093 16.2374 16.2374C15.9093 16.5656 15.4641 16.75 15 16.75ZM9 8.75C8.9337 8.75 8.87011 8.77634 8.82323 8.82323C8.77634 8.87011 8.75 8.9337 8.75 9V15C8.75 15.0663 8.77634 15.1299 8.82323 15.1768C8.87011 15.2237 8.9337 15.25 9 15.25H15C15.0663 15.25 15.1299 15.2237 15.1768 15.1768C15.2237 15.1299 15.25 15.0663 15.25 15V9C15.25 8.9337 15.2237 8.87011 15.1768 8.82323C15.1299 8.77634 15.0663 8.75 15 8.75H9Z" fill="black"/>
</svg>
