<svg width="24" height="24" viewBox="0 0 24 24" fill="none" xmlns="http://www.w3.org/2000/svg">
<path d="M13 22.75H11C10.5358 22.75 10.0907 22.5656 9.76252 22.2374C9.43433 21.9092 9.24996 21.4641 9.24996 21V18C9.24996 17.5359 9.43433 17.0908 9.76252 16.7626C10.0907 16.4344 10.5358 16.25 11 16.25H13C13.4633 16.2526 13.9069 16.4378 14.2345 16.7655C14.5621 17.0931 14.7473 17.5367 14.75 18V21C14.75 21.2298 14.7047 21.4574 14.6167 21.6697C14.5288 21.882 14.3999 22.0749 14.2374 22.2374C14.0749 22.3999 13.882 22.5288 13.6697 22.6168C13.4573 22.7047 13.2298 22.75 13 22.75ZM11 17.75C10.9337 17.75 10.8701 17.7763 10.8232 17.8232C10.7763 17.8701 10.75 17.9337 10.75 18V21C10.75 21.0663 10.7763 21.1299 10.8232 21.1768C10.8701 21.2237 10.9337 21.25 11 21.25H13C13.0663 21.25 13.1299 21.2237 13.1767 21.1768C13.2236 21.1299 13.25 21.0663 13.25 21V18C13.25 17.9337 13.2236 17.8701 13.1767 17.8232C13.1299 17.7763 13.0663 17.75 13 17.75H11ZM17.7 11.62C17.5447 11.6197 17.3901 11.5995 17.24 11.56C17.0172 11.5017 16.8084 11.3991 16.6263 11.2582C16.4441 11.1173 16.2923 10.941 16.18 10.74L15.18 9C14.9507 8.59756 14.8893 8.12096 15.0091 7.67356C15.1289 7.22616 15.4203 6.84402 15.82 6.61L18.42 5.11C18.8221 4.87668 19.3003 4.81197 19.75 4.93C19.9728 4.98826 20.1815 5.09093 20.3636 5.23183C20.5458 5.37274 20.6976 5.54899 20.81 5.75L21.81 7.48C22.0392 7.88244 22.1006 8.35904 21.9808 8.80644C21.861 9.25384 21.5697 9.63598 21.17 9.87L18.57 11.37C18.3079 11.5304 18.0072 11.6168 17.7 11.62ZM19.29 6.38C19.2508 6.36833 19.2091 6.36833 19.17 6.38L16.57 7.88C16.5132 7.91339 16.4719 7.96784 16.4551 8.0315C16.4382 8.09516 16.4472 8.1629 16.48 8.22L17.48 9.95C17.4948 9.97963 17.5159 10.0057 17.5418 10.0264C17.5677 10.0471 17.5978 10.062 17.63 10.07C17.6598 10.0835 17.6922 10.0905 17.725 10.0905C17.7577 10.0905 17.7901 10.0835 17.82 10.07L20.42 8.57C20.4767 8.5366 20.518 8.48216 20.5349 8.4185C20.5517 8.35484 20.5428 8.2871 20.51 8.23L19.51 6.5C19.4951 6.47037 19.474 6.4443 19.4481 6.42359C19.4222 6.40288 19.3921 6.38801 19.36 6.38H19.29ZM6.28996 11.62C5.98363 11.6198 5.68304 11.5369 5.41996 11.38L2.81996 9.88C2.42027 9.64598 2.12893 9.26384 2.00912 8.81644C1.88932 8.36904 1.9507 7.89244 2.17996 7.49L3.17996 5.76C3.41211 5.35829 3.79429 5.06522 4.24246 4.9452C4.69064 4.82519 5.16813 4.88806 5.56996 5.12L8.16996 6.62C8.56868 6.8523 8.86022 7.23189 8.98179 7.67704C9.10337 8.12219 9.04525 8.59728 8.81996 9L7.81996 10.73C7.70759 10.931 7.55579 11.1073 7.37364 11.2482C7.19149 11.3891 6.98276 11.4917 6.75996 11.55C6.61025 11.5929 6.45566 11.6164 6.29996 11.62H6.28996ZM4.70996 6.38H4.63996C4.60779 6.38801 4.57772 6.40288 4.55183 6.42359C4.52594 6.4443 4.50484 6.47037 4.48996 6.5L3.48996 8.23C3.47643 8.25984 3.46942 8.29223 3.46942 8.325C3.46942 8.35777 3.47643 8.39016 3.48996 8.42C3.49797 8.45217 3.51284 8.48224 3.53355 8.50813C3.55426 8.53402 3.58033 8.55512 3.60996 8.57L6.20996 10.07C6.2398 10.0835 6.27219 10.0905 6.30496 10.0905C6.33773 10.0905 6.37012 10.0835 6.39996 10.07C6.44622 10.0596 6.48813 10.0351 6.51996 10L7.51996 8.27C7.55276 8.2129 7.56171 8.14516 7.54486 8.0815C7.52801 8.01784 7.48672 7.96339 7.42996 7.93L4.82996 6.43C4.79626 6.40106 4.75424 6.38355 4.70996 6.38ZM19.29 19.12C18.9836 19.1198 18.683 19.0369 18.42 18.88L15.82 17.38C15.6196 17.2667 15.444 17.1146 15.3032 16.9326C15.1623 16.7506 15.0593 16.5423 15 16.32C14.8858 15.8733 14.9503 15.3998 15.18 15L16.18 13.27C16.2923 13.069 16.4441 12.8927 16.6263 12.7518C16.8084 12.6109 17.0172 12.5083 17.24 12.45C17.6897 12.332 18.1678 12.3967 18.57 12.63L21.17 14.13C21.5697 14.364 21.861 14.7462 21.9808 15.1936C22.1006 15.641 22.0392 16.1176 21.81 16.52L20.81 18.25C20.6976 18.451 20.5458 18.6273 20.3636 18.7682C20.1815 18.9091 19.9728 19.0117 19.75 19.07C19.5994 19.1062 19.4448 19.123 19.29 19.12ZM17.7 13.88H17.63C17.5978 13.888 17.5677 13.9029 17.5418 13.9236C17.5159 13.9443 17.4948 13.9704 17.48 14L16.48 15.73C16.4578 15.7914 16.4578 15.8586 16.48 15.92C16.5002 15.983 16.5429 16.0364 16.6 16.07L19.2 17.57C19.2298 17.5835 19.2622 17.5905 19.295 17.5905C19.3277 17.5905 19.3601 17.5835 19.39 17.57C19.4221 17.562 19.4522 17.5471 19.4781 17.5264C19.504 17.5057 19.5251 17.4796 19.54 17.45L20.54 15.72C20.5728 15.6629 20.5817 15.5952 20.5649 15.5315C20.548 15.4678 20.5067 15.4134 20.45 15.38L17.85 13.88C17.8017 13.8615 17.7483 13.8615 17.7 13.88ZM4.69996 19.12C4.39153 19.1203 4.0885 19.039 3.82157 18.8845C3.55464 18.73 3.3333 18.5076 3.17996 18.24L2.17996 16.51C1.9507 16.1076 1.88932 15.631 2.00912 15.1836C2.12893 14.7362 2.42027 14.354 2.81996 14.12L5.41996 12.62C5.61859 12.5038 5.83828 12.4282 6.06634 12.3975C6.29439 12.3668 6.52626 12.3816 6.74854 12.4412C6.97082 12.5007 7.17908 12.6037 7.36127 12.7443C7.54347 12.8848 7.69597 13.0601 7.80996 13.26L8.80996 14.99C9.04563 15.3911 9.11388 15.8689 8.99996 16.32C8.94182 16.5415 8.84029 16.7493 8.70124 16.9312C8.5622 17.1132 8.38841 17.2657 8.18996 17.38L5.58996 18.88C5.32397 19.0387 5.01968 19.1217 4.70996 19.12H4.69996ZM6.29996 13.88C6.26081 13.8683 6.21911 13.8683 6.17996 13.88L3.57996 15.38C3.5232 15.4134 3.48191 15.4678 3.46506 15.5315C3.44821 15.5952 3.45716 15.6629 3.48996 15.72L4.48996 17.45C4.52336 17.5068 4.5778 17.548 4.64146 17.5649C4.70512 17.5818 4.77286 17.5728 4.82996 17.54L7.42996 16.04C7.487 16.0064 7.5297 15.953 7.54996 15.89C7.5635 15.8602 7.5705 15.8278 7.5705 15.795C7.5705 15.7622 7.5635 15.7298 7.54996 15.7L6.51996 14C6.50508 13.9704 6.48398 13.9443 6.45809 13.9236C6.4322 13.9029 6.40213 13.888 6.36996 13.88H6.29996ZM13 7.75H11C10.5358 7.75 10.0907 7.56563 9.76252 7.23744C9.43433 6.90925 9.24996 6.46413 9.24996 6V3C9.24996 2.53587 9.43433 2.09075 9.76252 1.76256C10.0907 1.43437 10.5358 1.25 11 1.25H13C13.4633 1.25263 13.9069 1.43784 14.2345 1.76546C14.5621 2.09309 14.7473 2.53668 14.75 3V6C14.75 6.22981 14.7047 6.45738 14.6167 6.6697C14.5288 6.88202 14.3999 7.07493 14.2374 7.23744C14.0749 7.39994 13.882 7.52884 13.6697 7.61679C13.4573 7.70474 13.2298 7.75 13 7.75ZM11 2.75C10.9337 2.75 10.8701 2.77634 10.8232 2.82322C10.7763 2.87011 10.75 2.9337 10.75 3V6C10.75 6.0663 10.7763 6.12989 10.8232 6.17678C10.8701 6.22366 10.9337 6.25 11 6.25H13C13.0663 6.25 13.1299 6.22366 13.1767 6.17678C13.2236 6.12989 13.25 6.0663 13.25 6V3C13.25 2.9337 13.2236 2.87011 13.1767 2.82322C13.1299 2.77634 13.0663 2.75 13 2.75H11Z" fill="black"/>
</svg>
