<svg width="24" height="24" viewBox="0 0 24 24" fill="none" xmlns="http://www.w3.org/2000/svg">
<path d="M22.6602 9.4301C22.5426 9.05913 22.3092 8.73562 21.9942 8.50704C21.6793 8.27847 21.2994 8.15687 20.9102 8.1601H15.4402L13.7502 3.0001C13.6302 2.6305 13.3962 2.30841 13.0818 2.07998C12.7674 1.85155 12.3888 1.72852 12.0002 1.72852C11.6116 1.72852 11.233 1.85155 10.9186 2.07998C10.6042 2.30841 10.3703 2.6305 10.2502 3.0001L8.5602 8.1601H3.0902C2.70054 8.15788 2.32023 8.27943 2.00408 8.50724C1.68793 8.73504 1.45227 9.05733 1.33104 9.42767C1.20982 9.79801 1.2093 10.1973 1.32956 10.5679C1.44982 10.9386 1.68465 11.2615 2.0002 11.4901L6.4302 14.7001L4.7402 19.9001C4.60294 20.2736 4.59043 20.6815 4.70457 21.0627C4.81871 21.4438 5.05334 21.7778 5.37327 22.0143C5.69321 22.2509 6.08122 22.3774 6.47911 22.3748C6.877 22.3723 7.26334 22.2408 7.5802 22.0001L12.0002 18.7401L16.4202 22.0001C16.7346 22.2325 17.1148 22.3588 17.5057 22.3606C17.8967 22.3624 18.2781 22.2396 18.5946 22.0101C18.911 21.7805 19.1462 21.4561 19.2658 21.0839C19.3855 20.7117 19.3836 20.3111 19.2602 19.9401L17.5702 14.7401L22.0002 11.4901C22.3161 11.2625 22.5507 10.9396 22.6695 10.5688C22.7882 10.198 22.785 9.7989 22.6602 9.4301ZM11.6602 3.4301C11.6782 3.35883 11.7194 3.2956 11.7774 3.25043C11.8353 3.20525 11.9067 3.18072 11.9802 3.18072C12.0537 3.18072 12.1251 3.20525 12.1831 3.25043C12.241 3.2956 12.2822 3.35883 12.3002 3.4301L13.8402 8.1701H10.1402L11.6602 3.4301ZM9.6602 9.6701H14.3602L15.8102 14.1401L12.0002 16.8901L8.2002 14.1301L9.6602 9.6701ZM2.9002 10.2801C2.84418 10.2372 2.80288 10.178 2.782 10.1107C2.76112 10.0433 2.76171 9.97112 2.78368 9.90411C2.80566 9.83709 2.84792 9.77857 2.90463 9.73664C2.96135 9.69471 3.02969 9.67146 3.1002 9.6701H8.1002L6.9202 13.2001L2.9002 10.2801ZM6.7002 20.7401C6.64267 20.7881 6.57013 20.8144 6.4952 20.8144C6.42028 20.8144 6.34773 20.7881 6.2902 20.7401C6.23018 20.6997 6.18563 20.6401 6.16383 20.5711C6.14204 20.502 6.14428 20.4277 6.1702 20.3601L7.7102 15.6301L10.7102 17.8201L6.7002 20.7401ZM17.8302 20.3601C17.8543 20.4294 17.8554 20.5046 17.8332 20.5746C17.811 20.6445 17.7668 20.7054 17.7072 20.7481C17.6476 20.7909 17.5757 20.8132 17.5024 20.8118C17.429 20.8103 17.3581 20.7852 17.3002 20.7401L13.3002 17.8201L16.3002 15.6301L17.8302 20.3601ZM21.1102 10.2701L17.1102 13.2001L15.9302 9.6601H20.9302C21.0007 9.66146 21.0691 9.68471 21.1258 9.72664C21.1825 9.76857 21.2248 9.82709 21.2467 9.89411C21.2687 9.96112 21.2693 10.0333 21.2484 10.1007C21.2275 10.168 21.1862 10.2273 21.1302 10.2701H21.1102Z" fill="black"/>
</svg>
