<svg width="24" height="24" viewBox="0 0 24 24" fill="none" xmlns="http://www.w3.org/2000/svg">
<path d="M22.74 8.00003C22.7494 7.94039 22.7494 7.87966 22.74 7.82003C22.7457 7.77019 22.7457 7.71986 22.74 7.67003L21.14 4.60003C20.9408 4.20088 20.636 3.86398 20.2587 3.62596C19.8814 3.38795 19.446 3.25792 19 3.25003H12.18L8.33001 1.33003C8.28352 1.32437 8.23651 1.32437 8.19001 1.33003C8.12696 1.32163 8.06307 1.32163 8.00001 1.33003C7.94345 1.3252 7.88658 1.3252 7.83001 1.33003C7.77345 1.3252 7.71658 1.3252 7.66001 1.33003L4.60001 2.86003C4.19334 3.06308 3.85146 3.3757 3.61294 3.76265C3.37441 4.14959 3.24871 4.59547 3.25001 5.05003V11.82L1.33001 15.67C1.33001 15.67 1.33001 15.77 1.33001 15.82C1.304 15.8765 1.29053 15.9379 1.29053 16C1.29053 16.0622 1.304 16.1236 1.33001 16.18C1.32046 16.2329 1.32046 16.2871 1.33001 16.34L2.86001 19.4C3.06307 19.8067 3.37569 20.1486 3.76264 20.3871C4.14958 20.6256 4.59546 20.7513 5.05001 20.75H11.82L15.66 22.67C15.7534 22.7159 15.856 22.7398 15.96 22.7398C16.064 22.7398 16.1667 22.7159 16.26 22.67L19.33 21.14C19.7423 20.9506 20.0935 20.65 20.3444 20.272C20.5952 19.8939 20.7357 19.4535 20.75 19V12.18L22.67 8.34003C22.6748 8.2868 22.6748 8.23325 22.67 8.18003C22.7032 8.12436 22.7269 8.06352 22.74 8.00003ZM19.8 5.27003L20.8 7.27003H9.80002L12.3 4.77003H19C19.1642 4.78111 19.3231 4.83254 19.4627 4.91976C19.6022 5.00698 19.7181 5.12729 19.8 5.27003ZM8.80001 8.75003H15.3V15.25H8.75001L8.80001 8.75003ZM8.80001 6.19003V3.19003L10.8 4.19003L8.80001 6.19003ZM4.80001 5.05003C4.80482 4.87525 4.85536 4.70479 4.9466 4.55564C5.03785 4.4065 5.1666 4.28388 5.32001 4.20003L7.32001 3.20003V8.00003V14.18L4.82001 11.68L4.80001 5.05003ZM4.20001 13.27L6.20001 15.27H3.20001L4.20001 13.27ZM4.20001 18.73L3.20001 16.73H14.2L11.7 19.23H5.05001C4.8772 19.2272 4.70807 19.1797 4.55909 19.0921C4.41012 19.0045 4.28641 18.8797 4.20001 18.73ZM15.25 17.81V20.81L13.25 19.81L15.25 17.81ZM19.25 18.95C19.2452 19.1248 19.1947 19.2953 19.1034 19.4444C19.0122 19.5936 18.8834 19.7162 18.73 19.8L16.73 20.8V16V9.81003L19.23 12.31L19.25 18.95ZM19.79 10.73L17.79 8.73002H20.79L19.79 10.73Z" fill="black"/>
</svg>
