<svg width="24" height="24" viewBox="0 0 24 24" fill="none" xmlns="http://www.w3.org/2000/svg">
<path d="M6.5 11.75C5.46165 11.75 4.44662 11.4421 3.58326 10.8652C2.7199 10.2883 2.04699 9.4684 1.64963 8.50909C1.25227 7.54978 1.14831 6.49418 1.35088 5.47578C1.55345 4.45738 2.05347 3.52192 2.78769 2.78769C3.52192 2.05347 4.45738 1.55345 5.47578 1.35088C6.49418 1.14831 7.54978 1.25227 8.50909 1.64963C9.4684 2.04699 10.2883 2.7199 10.8652 3.58326C11.4421 4.44662 11.75 5.46165 11.75 6.5C11.7474 7.89158 11.1934 9.2254 10.2094 10.2094C9.2254 11.1934 7.89158 11.7474 6.5 11.75ZM6.5 2.75C5.75832 2.75 5.0333 2.96994 4.41661 3.38199C3.79993 3.79405 3.31928 4.37972 3.03545 5.06494C2.75163 5.75016 2.67736 6.50416 2.82206 7.23159C2.96675 7.95902 3.3239 8.62721 3.84835 9.15165C4.3728 9.6761 5.04098 10.0333 5.76841 10.1779C6.49584 10.3226 7.24984 10.2484 7.93507 9.96455C8.62029 9.68072 9.20596 9.20008 9.61801 8.58339C10.0301 7.96671 10.25 7.24168 10.25 6.5C10.25 5.50544 9.85491 4.55161 9.15165 3.84835C8.44839 3.14509 7.49456 2.75 6.5 2.75ZM17.5 22.75C16.4616 22.75 15.4466 22.4421 14.5833 21.8652C13.7199 21.2883 13.047 20.4684 12.6496 19.5091C12.2523 18.5498 12.1483 17.4942 12.3509 16.4758C12.5535 15.4574 13.0535 14.5219 13.7877 13.7877C14.5219 13.0535 15.4574 12.5535 16.4758 12.3509C17.4942 12.1483 18.5498 12.2523 19.5091 12.6496C20.4684 13.047 21.2883 13.7199 21.8652 14.5833C22.4421 15.4466 22.75 16.4616 22.75 17.5C22.7474 18.8916 22.1934 20.2254 21.2094 21.2094C20.2254 22.1934 18.8916 22.7474 17.5 22.75ZM17.5 13.75C16.7583 13.75 16.0333 13.9699 15.4166 14.382C14.7999 14.794 14.3193 15.3797 14.0355 16.0649C13.7516 16.7502 13.6774 17.5042 13.8221 18.2316C13.9668 18.959 14.3239 19.6272 14.8484 20.1517C15.3728 20.6761 16.041 21.0333 16.7684 21.1779C17.4958 21.3226 18.2498 21.2484 18.9351 20.9646C19.6203 20.6807 20.206 20.2001 20.618 19.5834C21.0301 18.9667 21.25 18.2417 21.25 17.5C21.25 16.5054 20.8549 15.5516 20.1517 14.8484C19.4484 14.1451 18.4946 13.75 17.5 13.75ZM6.5 22.75C5.46165 22.75 4.44662 22.4421 3.58326 21.8652C2.7199 21.2883 2.04699 20.4684 1.64963 19.5091C1.25227 18.5498 1.14831 17.4942 1.35088 16.4758C1.55345 15.4574 2.05347 14.5219 2.78769 13.7877C3.52192 13.0535 4.45738 12.5535 5.47578 12.3509C6.49418 12.1483 7.54978 12.2523 8.50909 12.6496C9.4684 13.047 10.2883 13.7199 10.8652 14.5833C11.4421 15.4466 11.75 16.4616 11.75 17.5C11.7474 18.8916 11.1934 20.2254 10.2094 21.2094C9.2254 22.1934 7.89158 22.7474 6.5 22.75ZM6.5 13.75C5.75832 13.75 5.0333 13.9699 4.41661 14.382C3.79993 14.794 3.31928 15.3797 3.03545 16.0649C2.75163 16.7502 2.67736 17.5042 2.82206 18.2316C2.96675 18.959 3.3239 19.6272 3.84835 20.1517C4.3728 20.6761 5.04098 21.0333 5.76841 21.1779C6.49584 21.3226 7.24984 21.2484 7.93507 20.9646C8.62029 20.6807 9.20596 20.2001 9.61801 19.5834C10.0301 18.9667 10.25 18.2417 10.25 17.5C10.25 16.5054 9.85491 15.5516 9.15165 14.8484C8.44839 14.1451 7.49456 13.75 6.5 13.75ZM17.5 11.75C16.4616 11.75 15.4466 11.4421 14.5833 10.8652C13.7199 10.2883 13.047 9.4684 12.6496 8.50909C12.2523 7.54978 12.1483 6.49418 12.3509 5.47578C12.5535 4.45738 13.0535 3.52192 13.7877 2.78769C14.5219 2.05347 15.4574 1.55345 16.4758 1.35088C17.4942 1.14831 18.5498 1.25227 19.5091 1.64963C20.4684 2.04699 21.2883 2.7199 21.8652 3.58326C22.4421 4.44662 22.75 5.46165 22.75 6.5C22.7474 7.89158 22.1934 9.2254 21.2094 10.2094C20.2254 11.1934 18.8916 11.7474 17.5 11.75ZM17.5 2.75C16.7583 2.75 16.0333 2.96994 15.4166 3.38199C14.7999 3.79405 14.3193 4.37972 14.0355 5.06494C13.7516 5.75016 13.6774 6.50416 13.8221 7.23159C13.9668 7.95902 14.3239 8.62721 14.8484 9.15165C15.3728 9.6761 16.041 10.0333 16.7684 10.1779C17.4958 10.3226 18.2498 10.2484 18.9351 9.96455C19.6203 9.68072 20.206 9.20008 20.618 8.58339C21.0301 7.96671 21.25 7.24168 21.25 6.5C21.25 5.50544 20.8549 4.55161 20.1517 3.84835C19.4484 3.14509 18.4946 2.75 17.5 2.75Z" fill="black"/>
</svg>
