<svg width="24" height="24" viewBox="0 0 24 24" fill="none" xmlns="http://www.w3.org/2000/svg">
<path d="M20.1198 4.33005C19.1188 3.33029 17.8064 2.70231 16.3998 2.55005V2.43005C16.3998 2.23114 16.3208 2.04038 16.1802 1.89972C16.0395 1.75907 15.8487 1.68005 15.6498 1.68005C15.4509 1.68005 15.2601 1.75907 15.1195 1.89972C14.9788 2.04038 14.8998 2.23114 14.8998 2.43005V2.52005H9.09982V2.43005C9.09982 2.23114 9.02081 2.04038 8.88015 1.89972C8.7395 1.75907 8.54874 1.68005 8.34982 1.68005C8.15091 1.68005 7.96015 1.75907 7.81949 1.89972C7.67884 2.04038 7.59982 2.23114 7.59982 2.43005V2.55005C6.08108 2.71958 4.6779 3.44226 3.65795 4.58025C2.638 5.71824 2.07268 7.19188 2.06982 8.72005V16.1201C2.07247 17.7636 2.72653 19.339 3.88868 20.5012C5.05084 21.6633 6.6263 22.3174 8.26982 22.3201H15.7298C17.3734 22.3174 18.9488 21.6633 20.111 20.5012C21.2731 19.339 21.9272 17.7636 21.9298 16.1201V8.72005C21.9314 7.90527 21.7723 7.09818 21.4618 6.34491C21.1512 5.59164 20.6952 4.90697 20.1198 4.33005ZM20.4298 16.1201C20.4272 17.3658 19.9312 18.5597 19.0503 19.4405C18.1695 20.3214 16.9755 20.8174 15.7298 20.8201H8.26982C7.02412 20.8174 5.83019 20.3214 4.94934 19.4405C4.06849 18.5597 3.57247 17.3658 3.56982 16.1201V8.72005C3.57368 7.59671 3.97891 6.51173 4.7124 5.66089C5.44588 4.81005 6.45931 4.24938 7.56982 4.08005V4.26005C7.56982 4.45897 7.64884 4.64973 7.78949 4.79038C7.93015 4.93104 8.12091 5.01005 8.31982 5.01005C8.51874 5.01005 8.7095 4.93104 8.85015 4.79038C8.99081 4.64973 9.06982 4.45897 9.06982 4.26005V4.00005H14.8698V4.24005C14.8698 4.43897 14.9488 4.62973 15.0895 4.77038C15.2301 4.91104 15.4209 4.99005 15.6198 4.99005C15.8187 4.99005 16.0095 4.91104 16.1502 4.77038C16.2908 4.62973 16.3698 4.43897 16.3698 4.24005V4.08005C17.4856 4.23753 18.5062 4.7948 19.2419 5.64825C19.9777 6.5017 20.3785 7.59328 20.3698 8.72005L20.4298 16.1201ZM14.9998 12.4901C14.9998 12.5828 14.9814 12.6747 14.9456 12.7603C14.9098 12.8458 14.8573 12.9235 14.7913 12.9886C14.7252 13.0537 14.6469 13.1051 14.5608 13.1397C14.4747 13.1743 14.3826 13.1914 14.2898 13.1901H12.7298V14.7201C12.7352 14.9094 12.6659 15.0932 12.5367 15.2317C12.4076 15.3702 12.229 15.4522 12.0398 15.4601C11.854 15.4575 11.6764 15.3833 11.5441 15.2528C11.4117 15.1224 11.335 14.9458 11.3298 14.7601V13.1701H9.70982C9.53476 13.1493 9.37339 13.0651 9.2563 12.9333C9.13921 12.8015 9.07453 12.6313 9.07453 12.4551C9.07453 12.2788 9.13921 12.1086 9.2563 11.9768C9.37339 11.845 9.53476 11.7608 9.70982 11.7401H11.2498V10.2001C11.2472 10.1068 11.2629 10.0139 11.2961 9.92678C11.3294 9.83962 11.3795 9.75986 11.4436 9.69207C11.5076 9.62428 11.5844 9.56977 11.6696 9.53168C11.7547 9.49358 11.8466 9.47264 11.9398 9.47005C12.0337 9.4646 12.1278 9.47841 12.2162 9.51064C12.3046 9.54286 12.3854 9.59282 12.4538 9.65744C12.5222 9.72207 12.5766 9.79999 12.6138 9.88643C12.6509 9.97286 12.67 10.066 12.6698 10.1601V11.7501H14.2698C14.3673 11.7472 14.4643 11.7645 14.5549 11.8008C14.6454 11.8371 14.7274 11.8917 14.7959 11.9611C14.8644 12.0306 14.9179 12.1134 14.9529 12.2044C14.988 12.2954 15.004 12.3926 14.9998 12.4901Z" fill="black"/>
</svg>
