<svg width="24" height="24" viewBox="0 0 24 24" fill="none" xmlns="http://www.w3.org/2000/svg">
<path d="M14.9998 13.56C14.9972 13.7625 14.9149 13.9558 14.7708 14.098C14.6267 14.2403 14.4323 14.32 14.2298 14.32H12.5798V15.97C12.5838 16.0706 12.5678 16.1711 12.5327 16.2655C12.4975 16.3598 12.444 16.4463 12.3751 16.5198C12.3063 16.5933 12.2235 16.6524 12.1316 16.6936C12.0397 16.7349 11.9405 16.7574 11.8398 16.76C11.6417 16.7601 11.4514 16.6827 11.3094 16.5445C11.1674 16.4063 11.0851 16.2181 11.0798 16.02L10.9998 14.29H9.28984C9.08736 14.2874 8.89407 14.2051 8.75182 14.061C8.60957 13.9168 8.52982 13.7225 8.52984 13.52C8.53506 13.3166 8.61953 13.1233 8.76525 12.9813C8.91097 12.8394 9.10639 12.7599 9.30984 12.76H10.9598V11.11C10.9544 10.9074 11.0291 10.7109 11.1676 10.563C11.3061 10.4151 11.4974 10.3278 11.6998 10.32C11.802 10.3131 11.9045 10.3274 12.0008 10.3621C12.0971 10.3968 12.1852 10.4511 12.2594 10.5216C12.3337 10.5921 12.3925 10.6773 12.4322 10.7716C12.4718 10.866 12.4915 10.9676 12.4898 11.07V12.77H14.2098C14.3143 12.7672 14.4183 12.7858 14.5154 12.8245C14.6125 12.8633 14.7007 12.9213 14.7746 12.9953C14.8485 13.0692 14.9066 13.1574 14.9453 13.2545C14.984 13.3515 15.0026 13.4555 14.9998 13.56ZM22.0698 8.74C21.982 7.03217 21.2521 5.4206 20.0263 4.22819C18.8005 3.03578 17.1694 2.35062 15.4598 2.31H10.5298C10.2721 1.98039 9.94287 1.71369 9.56693 1.53006C9.191 1.34642 8.77823 1.25065 8.35984 1.25H6.20984C5.56374 1.25131 4.92422 1.37987 4.3278 1.62834C3.73138 1.8768 3.18974 2.24031 2.7338 2.6981C2.27787 3.1559 1.91656 3.69901 1.67052 4.29643C1.42448 4.89386 1.29853 5.5339 1.29984 6.18V17.07C1.29718 17.8183 1.44294 18.5598 1.7287 19.2514C2.01445 19.9431 2.43453 20.5712 2.96462 21.0994C3.49471 21.6276 4.12429 22.0455 4.81693 22.3288C5.50957 22.6121 6.25151 22.7553 6.99984 22.75H17.0998C17.844 22.7487 18.5805 22.6007 19.2674 22.3144C19.9542 22.0281 20.5779 21.6092 21.1027 21.0816C21.6275 20.5541 22.0431 19.9282 22.3257 19.2398C22.6083 18.5515 22.7525 17.8141 22.7498 17.07V11.35C22.7314 10.4374 22.4948 9.54248 22.0598 8.74H22.0698ZM19.7398 6.36C18.9158 5.90657 17.9904 5.6692 17.0498 5.67H13.8798C13.3227 5.67014 12.7784 5.50226 12.3181 5.18827C11.8579 4.87429 11.503 4.42881 11.2998 3.91V3.84H15.4798C16.3475 3.85423 17.1966 4.09406 17.9435 4.5359C18.6905 4.97774 19.3095 5.60638 19.7398 6.36ZM21.1698 17.07C21.1725 18.1663 20.7402 19.2188 19.9679 19.9968C19.1955 20.7748 18.1461 21.2147 17.0498 21.22H6.99984C5.90358 21.2147 4.85417 20.7748 4.08181 19.9968C3.30944 19.2188 2.87718 18.1663 2.87984 17.07V6.18C2.87853 5.73482 2.96491 5.29374 3.13406 4.88194C3.30321 4.47014 3.55181 4.09569 3.86567 3.77997C4.17954 3.46426 4.55251 3.21345 4.9633 3.04187C5.37409 2.8703 5.81466 2.78131 6.25984 2.78H8.35984C8.6126 2.78061 8.85934 2.85722 9.06799 2.99989C9.27664 3.14256 9.43756 3.34468 9.52984 3.58L9.88984 4.48C10.2021 5.2855 10.7519 5.97701 11.4663 6.4628C12.1807 6.94859 13.0259 7.20569 13.8898 7.2H17.0598C18.1561 7.20529 19.2055 7.64518 19.9779 8.42317C20.7502 9.20116 21.1825 10.2537 21.1798 11.35L21.1698 17.07Z" fill="black"/>
</svg>
