<svg width="24" height="24" viewBox="0 0 24 24" fill="none" xmlns="http://www.w3.org/2000/svg">
<path d="M19.0001 7.25005H13.5401C13.0494 7.25136 12.5638 7.34947 12.1111 7.53876C11.6584 7.72805 11.2475 8.00479 10.9019 8.35315C10.5564 8.7015 10.2829 9.11461 10.0973 9.56881C9.91163 10.023 9.81742 10.5094 9.82005 11.0001V19.0001C9.82269 19.9858 10.2155 20.9305 10.9125 21.6276C11.6096 22.3246 12.5543 22.7174 13.5401 22.7201H19.0001C19.4907 22.7227 19.9771 22.6285 20.4313 22.4428C20.8855 22.2572 21.2986 21.9838 21.647 21.6382C21.9953 21.2926 22.2721 20.8817 22.4613 20.429C22.6506 19.9763 22.7487 19.4907 22.7501 19.0001V11.0001C22.7527 10.5069 22.6575 10.018 22.47 9.56186C22.2825 9.10569 22.0064 8.69124 21.6576 8.34249C21.3089 7.99374 20.8944 7.71762 20.4382 7.5301C19.9821 7.34259 19.4933 7.2474 19.0001 7.25005ZM21.2501 19.0001C21.2527 19.2963 21.1963 19.5901 21.0842 19.8642C20.9721 20.1384 20.8065 20.3875 20.597 20.597C20.3875 20.8065 20.1384 20.9721 19.8642 21.0842C19.5901 21.1963 19.2963 21.2527 19.0001 21.2501H13.5401C13.2464 21.2487 12.9558 21.1894 12.6851 21.0755C12.4144 20.9616 12.1688 20.7954 11.9626 20.5863C11.7563 20.3772 11.5933 20.1295 11.4831 19.8573C11.3728 19.5851 11.3174 19.2937 11.3201 19.0001V11.0001C11.3227 10.4121 11.5574 9.84895 11.9732 9.43318C12.3889 9.01742 12.9521 8.78268 13.5401 8.78005H19.0001C19.2937 8.77742 19.5851 8.83282 19.8573 8.94308C20.1295 9.05334 20.3772 9.21629 20.5863 9.42257C20.7954 9.62885 20.9616 9.87439 21.0755 10.1451C21.1894 10.4158 21.2487 10.7064 21.2501 11.0001V19.0001ZM8.33005 16.0001C8.32746 16.1982 8.24761 16.3874 8.10752 16.5275C7.96742 16.6676 7.77816 16.7475 7.58005 16.7501H5.00005C4.50686 16.7527 4.01803 16.6575 3.56186 16.47C3.10569 16.2825 2.69124 16.0064 2.34249 15.6576C1.99374 15.3089 1.71762 14.8944 1.5301 14.4382C1.34259 13.9821 1.2474 13.4933 1.25005 13.0001V5.00005C1.2474 4.50686 1.34259 4.01803 1.5301 3.56186C1.71762 3.10569 1.99374 2.69124 2.34249 2.34249C2.69124 1.99374 3.10569 1.71762 3.56186 1.5301C4.01803 1.34259 4.50686 1.2474 5.00005 1.25005H10.4901C11.4758 1.26061 12.4174 1.66099 13.1088 2.36369C13.8003 3.06638 14.1854 4.01423 14.1801 5.00005C14.1801 5.19897 14.101 5.38973 13.9604 5.53038C13.8197 5.67104 13.629 5.75005 13.4301 5.75005C13.2311 5.75005 13.0404 5.67104 12.8997 5.53038C12.7591 5.38973 12.6801 5.19897 12.6801 5.00005C12.6774 4.41208 12.4427 3.84895 12.0269 3.43318C11.6112 3.01742 11.048 2.78268 10.4601 2.78005H5.00005C4.70637 2.77742 4.41505 2.83282 4.14284 2.94308C3.87062 3.05334 3.62287 3.21629 3.4138 3.42257C3.20474 3.62885 3.03848 3.87439 2.92457 4.1451C2.81067 4.41581 2.75136 4.70636 2.75005 5.00005V13.0001C2.74739 13.2963 2.80376 13.5901 2.91589 13.8642C3.02802 14.1384 3.19365 14.3875 3.40312 14.597C3.61258 14.8065 3.86168 14.9721 4.13587 15.0842C4.41006 15.1963 4.70384 15.2527 5.00005 15.2501H7.58005C7.77816 15.2526 7.96742 15.3325 8.10752 15.4726C8.24761 15.6127 8.32746 15.8019 8.33005 16.0001ZM18.8801 15.0001C18.8801 15.199 18.801 15.3897 18.6604 15.5304C18.5197 15.671 18.329 15.7501 18.1301 15.7501H17.2501V16.6301C17.2501 16.829 17.171 17.0197 17.0304 17.1604C16.8897 17.301 16.699 17.3801 16.5001 17.3801C16.3011 17.3801 16.1104 17.301 15.9697 17.1604C15.8291 17.0197 15.7501 16.829 15.7501 16.6301V15.7501H14.8701C14.6711 15.7501 14.4804 15.671 14.3397 15.5304C14.1991 15.3897 14.1201 15.199 14.1201 15.0001C14.1201 14.8011 14.1991 14.6104 14.3397 14.4697C14.4804 14.3291 14.6711 14.2501 14.8701 14.2501H15.7501V13.3701C15.7501 13.1711 15.8291 12.9804 15.9697 12.8397C16.1104 12.6991 16.3011 12.6201 16.5001 12.6201C16.699 12.6201 16.8897 12.6991 17.0304 12.8397C17.171 12.9804 17.2501 13.1711 17.2501 13.3701V14.2501H18.1301C18.329 14.2501 18.5197 14.3291 18.6604 14.4697C18.801 14.6104 18.8801 14.8011 18.8801 15.0001Z" fill="black"/>
</svg>
