<svg width="24" height="24" viewBox="0 0 24 24" fill="none" xmlns="http://www.w3.org/2000/svg">
<path d="M20.5 9.75C20.9633 9.74737 21.4069 9.56216 21.7345 9.23454C22.0622 8.90691 22.2474 8.46332 22.25 8V6C22.2474 5.53668 22.0622 5.09309 21.7345 4.76546C21.4069 4.43784 20.9633 4.25262 20.5 4.25H19.19C19.042 3.4103 18.6032 2.64949 17.9504 2.10095C17.2977 1.55241 16.4726 1.25115 15.62 1.25H5.38C4.41808 1.25264 3.4963 1.63593 2.81612 2.31612C2.13593 2.9963 1.75264 3.91808 1.75 4.88V19.12C1.75264 20.0819 2.13593 21.0037 2.81612 21.6839C3.4963 22.3641 4.41808 22.7474 5.38 22.75H15.62C16.5819 22.7474 17.5037 22.3641 18.1839 21.6839C18.8641 21.0037 19.2474 20.0819 19.25 19.12V15.75H20.5C20.9633 15.7474 21.4069 15.5622 21.7345 15.2345C22.0622 14.9069 22.2474 14.4633 22.25 14V12C22.2474 11.5367 22.0622 11.0931 21.7345 10.7655C21.4069 10.4378 20.9633 10.2526 20.5 10.25H19.25V9.75H20.5ZM20.75 6V8C20.75 8.0663 20.7237 8.12989 20.6768 8.17678C20.6299 8.22366 20.5663 8.25 20.5 8.25H19.25V5.75H20.5C20.5663 5.75 20.6299 5.77634 20.6768 5.82322C20.7237 5.87011 20.75 5.9337 20.75 6ZM20.5 11.75C20.5663 11.75 20.6299 11.7763 20.6768 11.8232C20.7237 11.8701 20.75 11.9337 20.75 12V14C20.75 14.0663 20.7237 14.1299 20.6768 14.1768C20.6299 14.2237 20.5663 14.25 20.5 14.25H19.25V11.75H20.5ZM17.75 10.25V19.12C17.75 19.6849 17.5256 20.2267 17.1261 20.6261C16.7267 21.0256 16.1849 21.25 15.62 21.25H5.38C4.81509 21.25 4.27331 21.0256 3.87386 20.6261C3.47441 20.2267 3.25 19.6849 3.25 19.12V4.88C3.25 4.31509 3.47441 3.77331 3.87386 3.37386C4.27331 2.97441 4.81509 2.75 5.38 2.75H15.62C16.1841 2.75263 16.7243 2.97788 17.1232 3.37677C17.5221 3.77565 17.7474 4.3159 17.75 4.88V10.25ZM10.5 11.51C11.0439 11.51 11.5756 11.3487 12.0278 11.0465C12.4801 10.7444 12.8325 10.3149 13.0407 9.81238C13.2488 9.30988 13.3033 8.75695 13.1972 8.2235C13.0911 7.69005 12.8291 7.20005 12.4445 6.81546C12.0599 6.43086 11.5699 6.16895 11.0365 6.06284C10.503 5.95673 9.95012 6.01119 9.44762 6.21933C8.94512 6.42747 8.51563 6.77995 8.21346 7.23218C7.91128 7.68442 7.75 8.2161 7.75 8.76C7.75 9.48935 8.03973 10.1888 8.55546 10.7045C9.07118 11.2203 9.77065 11.51 10.5 11.51ZM10.5 7.51C10.7472 7.51 10.9889 7.58331 11.1945 7.72066C11.4 7.85802 11.5602 8.05324 11.6548 8.28165C11.7495 8.51005 11.7742 8.76139 11.726 9.00386C11.6778 9.24634 11.5587 9.46907 11.3839 9.64388C11.2091 9.8187 10.9863 9.93775 10.7439 9.98598C10.5014 10.0342 10.2501 10.0095 10.0216 9.91485C9.79324 9.82024 9.59801 9.66002 9.46066 9.45446C9.32331 9.2489 9.25 9.00723 9.25 8.76C9.25 8.42848 9.3817 8.11054 9.61612 7.87612C9.85054 7.6417 10.1685 7.51 10.5 7.51ZM10.5 12.25C9.46207 12.2255 8.44008 12.5086 7.56278 13.0638C6.68548 13.619 5.99211 14.4215 5.57 15.37C5.4698 15.6097 5.43104 15.8706 5.45723 16.129C5.48342 16.3875 5.57375 16.6353 5.72 16.85C5.96419 17.1589 6.28093 17.4028 6.64206 17.5598C7.00319 17.7168 7.39752 17.7821 7.79 17.75H13.79C14.0769 17.7505 14.3599 17.6827 14.6154 17.5523C14.871 17.4219 15.092 17.2326 15.26 17C15.4149 16.7706 15.5122 16.5071 15.5436 16.2321C15.5749 15.957 15.5394 15.6784 15.44 15.42C15.0226 14.4621 14.3305 13.6496 13.4511 13.0853C12.5717 12.521 11.5447 12.2303 10.5 12.25ZM14 16.12C13.97 16.1583 13.9322 16.1897 13.8891 16.2121C13.846 16.2345 13.7985 16.2475 13.75 16.25H7.75C7.22 16.25 6.98 16.1 6.92 15.93C7.23031 15.2588 7.73165 14.694 8.3613 14.3062C8.99095 13.9185 9.72096 13.725 10.46 13.75C11.199 13.725 11.9291 13.9185 12.5587 14.3062C13.1884 14.694 13.6897 15.2588 14 15.93C14.0167 15.9589 14.0255 15.9916 14.0255 16.025C14.0255 16.0584 14.0167 16.0911 14 16.12Z" fill="#050505"/>
</svg>
