<svg width="24" height="24" viewBox="0 0 24 24" fill="none" xmlns="http://www.w3.org/2000/svg">
<path d="M17.18 1.25H6.82C5.47535 1.25 4.18578 1.78416 3.23497 2.73497C2.28416 3.68578 1.75 4.97535 1.75 6.32V17.68C1.75 19.0246 2.28416 20.3142 3.23497 21.265C4.18578 22.2158 5.47535 22.75 6.82 22.75H17.18C17.8458 22.75 18.5051 22.6189 19.1202 22.3641C19.7353 22.1093 20.2942 21.7358 20.765 21.265C21.2358 20.7942 21.6093 20.2353 21.8641 19.6202C22.1189 19.0051 22.25 18.3458 22.25 17.68V6.32C22.25 5.6542 22.1189 4.99492 21.8641 4.3798C21.6093 3.76467 21.2358 3.20576 20.765 2.73497C20.2942 2.26418 19.7353 1.89072 19.1202 1.63593C18.5051 1.38114 17.8458 1.25 17.18 1.25ZM6.82 2.75H17.18C18.1268 2.75 19.0349 3.12612 19.7044 3.79563C20.3739 4.46513 20.75 5.37318 20.75 6.32V7.87H18.06C17.8928 7.1832 17.5008 6.572 16.9464 6.13352C16.3919 5.69505 15.7069 5.45446 15 5.45H9C8.29315 5.45446 7.60807 5.69505 7.05364 6.13352C6.4992 6.572 6.10722 7.1832 5.94 7.87H3.25V6.32C3.25 5.37318 3.62612 4.46513 4.29563 3.79563C4.96513 3.12612 5.87318 2.75 6.82 2.75ZM16.66 8.62C16.66 9.06118 16.4854 9.48445 16.1744 9.79735C15.8634 10.1102 15.4412 10.2874 15 10.29H9C8.61289 10.2223 8.26208 10.0202 8.00928 9.71928C7.75647 9.41839 7.61788 9.03799 7.61788 8.645C7.61788 8.25201 7.75647 7.87161 8.00928 7.57072C8.26208 7.26984 8.61289 7.06774 9 7H15C15.4327 7.0024 15.8475 7.17261 16.1571 7.47479C16.4668 7.77698 16.6471 8.18754 16.66 8.62ZM17.18 21.25H6.82C5.87318 21.25 4.96513 20.8739 4.29563 20.2044C3.62612 19.5349 3.25 18.6268 3.25 17.68V9.37H5.94C6.10722 10.0568 6.4992 10.668 7.05364 11.1065C7.60807 11.545 8.29315 11.7855 9 11.79H15C15.7086 11.7878 16.396 11.5482 16.9524 11.1095C17.5089 10.6709 17.9024 10.0585 18.07 9.37H20.76V17.68C20.76 18.1497 20.6673 18.6147 20.4873 19.0485C20.3073 19.4823 20.0434 19.8763 19.7108 20.2079C19.3783 20.5395 18.9835 20.8023 18.5493 20.9811C18.115 21.1599 17.6497 21.2513 17.18 21.25Z" fill="black"/>
</svg>
