<svg width="24" height="24" viewBox="0 0 24 24" fill="none" xmlns="http://www.w3.org/2000/svg">
<path d="M14.3098 22.8C13.8639 22.8024 13.4263 22.6801 13.0464 22.4468C12.6665 22.2136 12.3594 21.8787 12.1598 21.48L9.99976 17.32C9.9274 17.1535 9.92062 16.9658 9.98077 16.7945C10.0409 16.6232 10.1636 16.481 10.3241 16.3962C10.4847 16.3115 10.6714 16.2906 10.8467 16.3377C11.0221 16.3847 11.1732 16.4963 11.2698 16.65L13.4098 20.81C13.5013 20.9772 13.6387 21.1148 13.8059 21.2065C13.973 21.2982 14.1628 21.3402 14.3531 21.3276C14.5433 21.315 14.7259 21.2483 14.8795 21.1353C15.033 21.0223 15.1511 20.8679 15.2198 20.69L21.2198 4.05002C21.2866 3.87218 21.3014 3.67898 21.2625 3.49302C21.2235 3.30707 21.1324 3.13606 20.9998 3.00002C20.8704 2.8732 20.7091 2.78389 20.533 2.74162C20.3569 2.69935 20.1726 2.70571 19.9998 2.76002L3.34976 8.70002C3.16308 8.76319 2.99923 8.88011 2.87878 9.0361C2.75834 9.19209 2.68667 9.3802 2.67278 9.57678C2.65889 9.77337 2.7034 9.96968 2.80071 10.1411C2.89803 10.3124 3.04382 10.4512 3.21976 10.54L9.06976 13.61C9.14592 13.6543 9.23481 13.6714 9.32197 13.6587C9.40913 13.646 9.48941 13.6042 9.54976 13.54L16.0698 7.31002C16.2027 7.17812 16.3825 7.1041 16.5698 7.1041C16.7571 7.1041 16.9368 7.17812 17.0698 7.31002C17.1948 7.4465 17.2642 7.6249 17.2642 7.81002C17.2642 7.99515 17.1948 8.17355 17.0698 8.31002L10.5698 14.52C10.2942 14.7953 9.93768 14.975 9.55248 15.0326C9.16728 15.0902 8.77376 15.0227 8.42976 14.84L2.55976 11.83C2.1361 11.6094 1.78683 11.2689 1.55562 10.8509C1.32441 10.433 1.2215 9.95614 1.25976 9.48002C1.28315 9.00196 1.44893 8.54182 1.73582 8.1587C2.02272 7.77558 2.41761 7.487 2.86976 7.33002L19.5098 1.39002C19.9397 1.24346 20.4027 1.22302 20.8439 1.33111C21.2851 1.4392 21.6862 1.67131 21.9998 2.00002C22.3288 2.33016 22.5565 2.74765 22.6557 3.2031C22.7549 3.65855 22.7217 4.1329 22.5598 4.57002L16.5598 21.21C16.4047 21.6576 16.1207 22.0494 15.7434 22.3359C15.3662 22.6224 14.9126 22.7908 14.4398 22.82L14.3098 22.8Z" fill="black"/>
</svg>
