<svg width="24" height="24" viewBox="0 0 24 24" fill="none" xmlns="http://www.w3.org/2000/svg">
<path d="M8.00023 22.77C6.21968 22.7807 4.5077 22.0842 3.24023 20.8336C1.97277 19.583 1.25344 17.8805 1.24023 16.1L1.20023 8.00002C1.1949 6.22386 1.89401 4.51805 3.14431 3.25651C4.39461 1.99496 6.09409 1.2806 7.87023 1.27002H16.0102C17.783 1.25933 19.4879 1.9506 20.7526 3.19285C22.0174 4.4351 22.7391 6.12737 22.7602 7.90002V15.98C22.7655 16.8612 22.5971 17.7348 22.2648 18.5509C21.9324 19.367 21.4426 20.1097 20.8232 20.7365C20.2039 21.3633 19.4671 21.8619 18.655 22.204C17.8429 22.546 16.9714 22.7248 16.0902 22.73L8.00023 22.77ZM16.1002 2.77002H7.96023C7.27052 2.76473 6.58661 2.89618 5.94801 3.15677C5.30941 3.41736 4.72879 3.80192 4.23969 4.28823C3.75059 4.77454 3.36272 5.35295 3.09848 5.99005C2.83424 6.62715 2.69888 7.3103 2.70023 8.00002V16.08C2.70411 16.7698 2.84466 17.4519 3.11374 18.087C3.38283 18.7221 3.77513 19.2976 4.26795 19.7802C4.76078 20.2628 5.34436 20.643 5.98498 20.8987C6.6256 21.1544 7.31054 21.2806 8.00023 21.27H16.1402C17.5229 21.2542 18.8429 20.6904 19.8103 19.7023C20.7777 18.7143 21.3136 17.3828 21.3002 16V7.92002C21.2897 6.54426 20.7364 5.22829 19.7608 4.25827C18.7852 3.28825 17.466 2.74261 16.0902 2.74002L16.1002 2.77002ZM15.0002 20.26C14.6789 20.2575 14.3681 20.1445 14.1202 19.94L12.0002 18.22L9.87022 19.94C9.6663 20.1068 9.41917 20.2122 9.15764 20.2439C8.8961 20.2757 8.63094 20.2324 8.39304 20.1192C8.15514 20.0061 7.95431 19.8276 7.81394 19.6047C7.67358 19.3817 7.59946 19.1235 7.60023 18.86V17.37C7.59813 17.1617 7.64288 16.9556 7.73115 16.767C7.81943 16.5783 7.94898 16.4119 8.11023 16.28L9.76023 14.93V13.07L6.43023 14.52C6.2137 14.6169 5.97635 14.658 5.73984 14.6396C5.50334 14.6211 5.27523 14.5437 5.07634 14.4145C4.87744 14.2852 4.71411 14.1081 4.60124 13.8995C4.48838 13.6908 4.42958 13.4572 4.43023 13.22V11.64C4.42989 11.3628 4.5113 11.0916 4.66426 10.8604C4.81722 10.6292 5.03495 10.4482 5.29023 10.34L9.76023 8.39002V6.15002C9.7598 5.62187 9.9683 5.115 10.3402 4.74002L10.8002 4.27002C11.1329 3.94448 11.5798 3.76217 12.0452 3.76217C12.5107 3.76217 12.9576 3.94448 13.2902 4.27002L13.7502 4.74002C14.1221 5.115 14.3306 5.62187 14.3302 6.15002V8.43002L18.7002 10.34C18.9555 10.4482 19.1732 10.6292 19.3262 10.8604C19.4792 11.0916 19.5606 11.3628 19.5602 11.64V13.22C19.5609 13.4572 19.5021 13.6908 19.3892 13.8995C19.2763 14.1081 19.113 14.2852 18.9141 14.4145C18.7152 14.5437 18.4871 14.6211 18.2506 14.6396C18.0141 14.658 17.7768 14.6169 17.5602 14.52L14.3202 13.11V15L15.8402 16.24C15.9999 16.3733 16.1283 16.54 16.2164 16.7283C16.3045 16.9167 16.3502 17.1221 16.3502 17.33V18.82C16.3517 19.0846 16.2771 19.3441 16.1353 19.5675C15.9934 19.7909 15.7903 19.9688 15.5502 20.08C15.3812 20.1771 15.194 20.2384 15.0002 20.26ZM10.1002 11.42C10.3383 11.4199 10.5712 11.4894 10.7702 11.62C10.9359 11.7291 11.0719 11.8775 11.1661 12.052C11.2603 12.2265 11.3099 12.4217 11.3102 12.62V15.06C11.3112 15.2395 11.2722 15.417 11.1961 15.5796C11.12 15.7422 11.0087 15.8858 10.8702 16L9.06023 17.45V18.64L11.0602 17C11.3062 16.8003 11.6134 16.6912 11.9302 16.6912C12.2471 16.6912 12.5543 16.8003 12.8002 17L14.8002 18.64V17.37L13.2102 16.12C13.0717 16.0058 12.9604 15.8622 12.8843 15.6996C12.8082 15.537 12.7692 15.3595 12.7702 15.18V12.67C12.7706 12.4717 12.8201 12.2765 12.9143 12.102C13.0086 11.9275 13.1446 11.7791 13.3102 11.67C13.4784 11.5589 13.6717 11.4915 13.8725 11.474C14.0734 11.4566 14.2754 11.4896 14.4602 11.57L18.0002 13.11V11.69L13.4902 9.69002C13.2754 9.59488 13.0929 9.43925 12.9651 9.24214C12.8372 9.04503 12.7695 8.81496 12.7702 8.58002V6.15002C12.7712 6.08294 12.7584 6.01638 12.7326 5.95445C12.7068 5.89253 12.6685 5.83656 12.6202 5.79002L12.1602 5.32002C12.0402 5.19002 11.9402 5.19002 11.8102 5.32002L11.3502 5.79002C11.2563 5.88659 11.2027 6.01532 11.2002 6.15002V8.58002C11.2009 8.81496 11.1332 9.04503 11.0054 9.24214C10.8775 9.43925 10.695 9.59488 10.4802 9.69002L5.83023 11.69L5.88023 13.08L9.51023 11.5C9.6815 11.4315 9.86645 11.4041 10.0502 11.42H10.1002Z" fill="black"/>
</svg>
