<svg width="24" height="24" viewBox="0 0 24 24" fill="none" xmlns="http://www.w3.org/2000/svg">
<path d="M16.0001 22.88C15.6335 22.8788 15.2792 22.7477 15.0001 22.51L12.0001 20.11C11.9836 20.0953 11.9622 20.0871 11.9401 20.0871C11.9179 20.0871 11.8966 20.0953 11.8801 20.11L9.00008 22.51C8.76412 22.7065 8.47693 22.8313 8.17236 22.8699C7.86778 22.9085 7.55852 22.8592 7.28105 22.7278C7.00357 22.5964 6.76944 22.3884 6.60627 22.1284C6.44309 21.8683 6.35767 21.567 6.36008 21.26V19.26C6.35306 19.0224 6.39873 18.7862 6.49382 18.5684C6.58892 18.3505 6.73107 18.1564 6.91008 18L9.24008 16.1V13.1L4.38008 15.17C4.12485 15.2743 3.84767 15.3134 3.57357 15.2837C3.29946 15.254 3.03707 15.1565 2.81008 15C2.57895 14.8518 2.38902 14.6476 2.2579 14.4063C2.12679 14.1651 2.05874 13.8946 2.06008 13.62V11.51C2.06136 11.1882 2.15671 10.8739 2.33439 10.6056C2.51206 10.3373 2.76431 10.1268 3.06008 10L9.24008 7.30004V4.10004C9.24022 3.46031 9.4916 2.84623 9.94008 2.39004L10.5601 1.75004C10.7546 1.54916 10.9878 1.38977 11.2456 1.28149C11.5034 1.17321 11.7805 1.11829 12.0601 1.12004C12.3397 1.11829 12.6168 1.17321 12.8746 1.28149C13.1324 1.38977 13.3656 1.54916 13.5601 1.75004L14.1801 2.39004C14.6286 2.84623 14.8799 3.46031 14.8801 4.10004V7.35004L21.0001 10C21.2958 10.1268 21.5481 10.3373 21.7258 10.6056C21.9034 10.8739 21.9988 11.1882 22.0001 11.51V13.65C21.9901 13.9252 21.9105 14.1932 21.7689 14.4293C21.6272 14.6654 21.4281 14.8617 21.1901 15C20.9605 15.1517 20.6968 15.2438 20.4228 15.2683C20.1487 15.2927 19.8729 15.2486 19.6201 15.14L14.8801 13.1V16.23L17.0001 18C17.1864 18.1526 17.3361 18.345 17.4382 18.563C17.5403 18.7811 17.5922 19.0193 17.5901 19.26V21.26C17.5923 21.5659 17.5068 21.8659 17.3438 22.1247C17.1807 22.3835 16.9469 22.5901 16.6701 22.72C16.4608 22.8208 16.2323 22.8753 16.0001 22.88ZM9.37008 11.48C9.63752 11.4796 9.89889 11.5597 10.1201 11.71C10.3109 11.8327 10.4677 12.0014 10.576 12.2007C10.6844 12.3999 10.7408 12.6232 10.7401 12.85V16.14C10.7418 16.3444 10.6978 16.5465 10.6113 16.7317C10.5248 16.9168 10.3979 17.0803 10.2401 17.21L7.86008 19.15C7.85304 19.164 7.84938 19.1794 7.84938 19.195C7.84938 19.2107 7.85304 19.2261 7.86008 19.24V21.24C7.85997 21.2632 7.8666 21.286 7.87916 21.3055C7.89171 21.325 7.90967 21.3405 7.93083 21.35C7.952 21.3596 7.97548 21.3627 7.99842 21.3592C8.02136 21.3556 8.04278 21.3455 8.06008 21.33L11.0001 19C11.2839 18.7728 11.6365 18.649 12.0001 18.649C12.3636 18.649 12.7163 18.7728 13.0001 19L15.9401 21.4C15.9574 21.4155 15.9788 21.4256 16.0017 21.4292C16.0247 21.4327 16.0482 21.4296 16.0693 21.42C16.0905 21.4105 16.1084 21.395 16.121 21.3755C16.1336 21.356 16.1402 21.3332 16.1401 21.31V19.31C16.1471 19.2961 16.1508 19.2807 16.1508 19.265C16.1508 19.2494 16.1471 19.234 16.1401 19.22L13.9401 17.43C13.7827 17.2998 13.6563 17.1363 13.5698 16.9512C13.4834 16.7662 13.439 16.5643 13.4401 16.36V12.91C13.4311 12.687 13.4775 12.4652 13.5752 12.2645C13.673 12.0638 13.8189 11.8905 14.0001 11.76C14.1894 11.6325 14.4083 11.5554 14.6358 11.5361C14.8633 11.5169 15.092 11.5561 15.3001 11.65L20.2201 13.79C20.2435 13.8024 20.2698 13.8084 20.2962 13.8073C20.3227 13.8063 20.3484 13.7982 20.3708 13.784C20.3931 13.7698 20.4113 13.7499 20.4235 13.7264C20.4357 13.7028 20.4414 13.6765 20.4401 13.65V11.51C20.4385 11.4796 20.4282 11.4503 20.4105 11.4255C20.3928 11.4006 20.3684 11.3814 20.3401 11.37L14.2001 8.70004C13.9555 8.59281 13.7475 8.41642 13.6018 8.19255C13.4561 7.96869 13.3791 7.70713 13.3801 7.44004V4.10004C13.3742 3.85433 13.2781 3.61938 13.1101 3.44004L12.4801 2.80004C12.3679 2.6901 12.2171 2.62852 12.0601 2.62852C11.903 2.62852 11.7522 2.6901 11.6401 2.80004L11.0001 3.44004C10.9116 3.52571 10.8412 3.62827 10.7931 3.74164C10.745 3.85501 10.7202 3.97688 10.7201 4.10004V7.39004C10.7204 7.65571 10.643 7.91567 10.4972 8.13781C10.3515 8.35995 10.1439 8.53455 9.90008 8.64004L3.65008 11.37C3.62433 11.3837 3.60253 11.4038 3.58677 11.4283C3.57101 11.4528 3.56182 11.4809 3.56008 11.51V13.65C3.55877 13.6765 3.56448 13.7028 3.57665 13.7264C3.58882 13.7499 3.60701 13.7698 3.62936 13.784C3.65171 13.7982 3.67744 13.8063 3.70391 13.8073C3.73038 13.8084 3.75666 13.8024 3.78008 13.79L8.78008 11.6C8.96541 11.5168 9.16695 11.4758 9.37008 11.48Z" fill="black"/>
</svg>
