<svg width="24" height="24" viewBox="0 0 24 24" fill="none" xmlns="http://www.w3.org/2000/svg">
<path d="M14.8 9.29007H9.2C8.46881 9.2927 7.76833 9.58433 7.2513 10.1014C6.73427 10.6184 6.44264 11.3189 6.44 12.0501V17.6701C6.44321 18.3652 6.70864 19.0336 7.18324 19.5416C7.65784 20.0495 8.30665 20.3597 9 20.4101V21.7201C9 21.9853 9.10536 22.2396 9.29289 22.4272C9.48043 22.6147 9.73478 22.7201 10 22.7201C10.2652 22.7201 10.5196 22.6147 10.7071 22.4272C10.8946 22.2396 11 21.9853 11 21.7201V20.4301H13V21.7201C13 21.9853 13.1054 22.2396 13.2929 22.4272C13.4804 22.6147 13.7348 22.7201 14 22.7201C14.2652 22.7201 14.5196 22.6147 14.7071 22.4272C14.8946 22.2396 15 21.9853 15 21.7201V20.4101C15.688 20.3525 16.3294 20.0393 16.7978 19.532C17.2661 19.0248 17.5274 18.3605 17.53 17.6701V12.0501C17.5275 11.324 17.24 10.628 16.7294 10.1118C16.2188 9.59564 15.526 9.30055 14.8 9.29007ZM16 17.6701C16 17.9936 15.8715 18.3039 15.6427 18.5327C15.4139 18.7615 15.1036 18.8901 14.78 18.8901H9.2C8.87991 18.8848 8.57472 18.754 8.35023 18.5257C8.12574 18.2975 7.99996 17.9902 8 17.6701V12.0501C7.99996 11.7299 8.12574 11.4226 8.35023 11.1944C8.57472 10.9662 8.87991 10.8353 9.2 10.8301H14.8C15.1201 10.8353 15.4253 10.9662 15.6498 11.1944C15.8743 11.4226 16 11.7299 16 12.0501V17.6701ZM4.81 12.1001V16.2201C4.81 16.4932 4.70148 16.7552 4.50832 16.9484C4.31516 17.1415 4.05317 17.2501 3.78 17.2501C3.50683 17.2501 3.24484 17.1415 3.05168 16.9484C2.85852 16.7552 2.75 16.4932 2.75 16.2201V12.1001C2.75 11.8269 2.85852 11.5649 3.05168 11.3717C3.24484 11.1786 3.50683 11.0701 3.78 11.0701C4.05317 11.0701 4.31516 11.1786 4.50832 11.3717C4.70148 11.5649 4.81 11.8269 4.81 12.1001ZM21.25 12.1001V16.2201C21.25 16.4932 21.1415 16.7552 20.9483 16.9484C20.7552 17.1415 20.4932 17.2501 20.22 17.2501C19.9468 17.2501 19.6848 17.1415 19.4917 16.9484C19.2985 16.7552 19.19 16.4932 19.19 16.2201V12.1001C19.19 11.8269 19.2985 11.5649 19.4917 11.3717C19.6848 11.1786 19.9468 11.0701 20.22 11.0701C20.4932 11.0701 20.7552 11.1786 20.9483 11.3717C21.1415 11.5649 21.25 11.8269 21.25 12.1001ZM9.61 8.16007H13.76C14.417 8.17081 15.0516 7.92141 15.5256 7.46623C15.9995 7.01104 16.2743 6.38698 16.29 5.73007C16.2348 4.54587 15.7255 3.42844 14.868 2.60993C14.0104 1.79141 12.8705 1.33472 11.685 1.33472C10.4995 1.33472 9.35959 1.79141 8.50203 2.60993C7.64447 3.42844 7.1352 4.54587 7.08 5.73007C7.0865 6.05576 7.1571 6.37699 7.28778 6.6754C7.41846 6.9738 7.60664 7.24354 7.84159 7.4692C8.07653 7.69486 8.35363 7.87202 8.65706 7.99056C8.96049 8.1091 9.2843 8.1667 9.61 8.16007ZM11.68 2.79007C12.0798 2.78073 12.4775 2.85144 12.8496 2.99802C13.2217 3.1446 13.5607 3.3641 13.8467 3.64361C14.1328 3.92312 14.36 4.257 14.5151 4.62561C14.6703 4.99423 14.7501 5.39014 14.75 5.79007C14.7205 6.03398 14.6023 6.2585 14.4179 6.42081C14.2334 6.58311 13.9957 6.67184 13.75 6.67007H9.61C9.36279 6.67157 9.12378 6.58144 8.93911 6.41708C8.75443 6.25272 8.63719 6.02579 8.61 5.78007C8.61122 5.38098 8.69206 4.98615 8.84777 4.6187C9.00349 4.25125 9.23096 3.91856 9.51685 3.64011C9.80275 3.36167 10.1413 3.14306 10.5128 2.9971C10.8842 2.85114 11.281 2.78075 11.68 2.79007Z" fill="black"/>
</svg>
