<svg width="24" height="24" viewBox="0 0 24 24" fill="none" xmlns="http://www.w3.org/2000/svg">
<path d="M11.8902 22.7499C11.1551 22.7502 10.4334 22.5534 9.80024 22.1799L5.26024 19.5299C4.69586 19.1922 4.22006 18.7249 3.87226 18.1666C3.52446 17.6084 3.31466 16.9754 3.26024 16.3199L2.48024 7.77992C2.40422 6.88427 2.62035 5.98809 3.09626 5.22555C3.57217 4.46301 4.28227 3.87513 5.12024 3.54992L10.4102 1.54992C11.376 1.17965 12.4445 1.17965 13.4102 1.54992L18.7002 3.54992C19.5307 3.88182 20.2322 4.47254 20.7005 5.23449C21.1688 5.99644 21.3792 6.88903 21.3002 7.77992L20.5402 16.3199C20.485 16.9752 20.2749 17.6079 19.9272 18.166C19.5794 18.7241 19.1041 19.1916 18.5402 19.5299L14.0002 22.1799C13.3612 22.5569 12.6321 22.7538 11.8902 22.7499ZM11.8902 2.74992C11.5694 2.75111 11.2512 2.80865 10.9502 2.91992L5.66024 4.99992C5.13918 5.20977 4.69793 5.57919 4.39972 6.05523C4.10152 6.53128 3.96168 7.08951 4.00024 7.64992L4.76024 16.1899C4.80289 16.6012 4.94193 16.9967 5.16607 17.3442C5.39021 17.6917 5.69313 17.9814 6.05024 18.1899L10.5902 20.8499C10.9939 21.0854 11.4529 21.2094 11.9202 21.2094C12.3876 21.2094 12.8465 21.0854 13.2502 20.8499L17.7902 18.1899C18.1463 17.9802 18.4484 17.6901 18.6724 17.3429C18.8964 16.9956 19.036 16.6008 19.0802 16.1899L19.8302 7.64992C19.87 7.08272 19.7248 6.51792 19.4165 6.04016C19.1082 5.5624 18.6534 5.19742 18.1202 4.99992L12.8302 2.99992C12.5343 2.86119 12.216 2.77652 11.8902 2.74992ZM17.2402 15.8499L12.5702 5.99992C12.51 5.87038 12.4139 5.76075 12.2935 5.68393C12.173 5.60711 12.0331 5.5663 11.8902 5.5663C11.7474 5.5663 11.6075 5.60711 11.487 5.68393C11.3665 5.76075 11.2705 5.87038 11.2102 5.99992L6.72024 15.8599C6.67865 15.9504 6.65549 16.0482 6.65212 16.1478C6.64875 16.2473 6.66523 16.3465 6.7006 16.4396C6.73598 16.5327 6.78953 16.6178 6.85815 16.6899C6.92676 16.7621 7.00906 16.8199 7.10024 16.8599C7.19646 16.9078 7.30279 16.9318 7.41024 16.9299C7.55381 16.9294 7.6942 16.8876 7.81474 16.8096C7.93528 16.7316 8.0309 16.6206 8.09024 16.4899L9.32024 13.7899H14.6002L15.8902 16.4999C15.9263 16.5976 15.9823 16.6867 16.0546 16.7616C16.127 16.8365 16.2142 16.8955 16.3106 16.9348C16.407 16.9741 16.5106 16.993 16.6146 16.9901C16.7187 16.9872 16.8211 16.9627 16.9152 16.9181C17.0093 16.8735 17.093 16.8097 17.1612 16.731C17.2293 16.6522 17.2802 16.5601 17.3108 16.4606C17.3414 16.3611 17.3509 16.2562 17.3388 16.1528C17.3266 16.0494 17.2931 15.9497 17.2402 15.8599V15.8499ZM10.0002 12.2799L11.9002 8.09992L13.9002 12.2799H10.0002Z" fill="black"/>
</svg>
