<svg width="24" height="24" viewBox="0 0 24 24" fill="none" xmlns="http://www.w3.org/2000/svg">
<path d="M12.9298 7.34993C12.5628 7.35139 12.2076 7.21996 11.9298 6.97993C11.7526 6.83116 11.6144 6.64134 11.5272 6.42696C11.4401 6.21259 11.4067 5.98017 11.4298 5.74993C11.5622 4.7365 11.9821 3.7822 12.6398 2.99993C13.2699 2.252 14.083 1.68009 14.9998 1.33993C15.24 1.25105 15.4992 1.22644 15.7517 1.26854C16.0043 1.31063 16.2415 1.41797 16.4398 1.57993C16.6509 1.74553 16.8141 1.96438 16.9125 2.21396C17.0109 2.46353 17.0411 2.73483 16.9998 2.99993C16.8571 3.94871 16.4713 4.84441 15.8798 5.59993C15.2253 6.43589 14.3217 7.0418 13.2998 7.32993C13.1781 7.35396 13.0535 7.36069 12.9298 7.34993ZM15.5298 2.74993C14.8554 3.01107 14.2596 3.44157 13.7998 3.99993C13.3312 4.55064 13.0293 5.22365 12.9298 5.93993C13.6284 5.6929 14.2447 5.25669 14.7098 4.67993C15.1499 4.12096 15.433 3.45473 15.5298 2.74993ZM9.28984 22.7499C7.55984 22.7499 6.28984 21.1799 5.45985 19.8299C3.21985 16.3899 2.75985 12.0699 4.37985 9.55993C4.85368 8.77257 5.51367 8.11366 6.30181 7.64112C7.08995 7.16858 7.9821 6.89689 8.89984 6.84993C9.65884 6.87192 10.4076 7.03115 11.1098 7.31993C11.5403 7.50899 12.0006 7.6207 12.4698 7.64993C12.9966 7.61742 13.5139 7.49569 13.9998 7.28993C14.728 6.98622 15.511 6.83641 16.2998 6.84993C17.3398 6.94234 18.3286 7.34273 19.1398 7.99993C19.3459 8.15921 19.5145 8.36176 19.6337 8.59329C19.7529 8.82482 19.8199 9.07969 19.8298 9.33993C19.843 9.58766 19.8014 9.83525 19.7081 10.0651C19.6147 10.295 19.472 10.5015 19.2898 10.6699C18.9264 11.0189 18.6474 11.4462 18.4741 11.9193C18.3008 12.3924 18.2378 12.8988 18.2898 13.3999C18.3304 13.9188 18.4872 14.4219 18.7486 14.872C19.01 15.322 19.3693 15.7075 19.7998 15.9999C20.1572 16.2273 20.4194 16.5772 20.5373 16.984C20.6551 17.3909 20.6204 17.8268 20.4398 18.2099C20.1874 18.7288 19.9001 19.2299 19.5798 19.7099C18.5798 21.2199 17.3698 22.7599 15.6898 22.7799C15.0958 22.7882 14.5111 22.6325 13.9998 22.3299C13.5276 22.1081 13.0116 21.9953 12.4898 21.9999C11.9476 21.9952 11.4122 22.1221 10.9298 22.3699C10.4208 22.6241 9.85882 22.7543 9.28984 22.7499ZM8.89984 8.34993C8.22963 8.38847 7.57912 8.59099 7.00548 8.93972C6.43183 9.28844 5.95259 9.77269 5.60985 10.3499C4.50985 12.0499 4.51984 15.6599 6.67984 18.9799C7.35984 19.9799 8.25985 21.2099 9.26985 21.2199C9.63264 21.2344 9.99336 21.1588 10.3198 20.9999C10.9915 20.6576 11.736 20.4827 12.4898 20.4899C13.2342 20.4819 13.9691 20.6571 14.6298 20.9999C14.9418 21.1573 15.2815 21.2524 15.6298 21.2799C16.6298 21.2799 17.5598 19.9999 18.2798 18.8899C18.57 18.4634 18.8274 18.0154 19.0498 17.5499C19.0617 17.525 19.0685 17.4979 19.0699 17.4704C19.0713 17.4428 19.0672 17.4152 19.0579 17.3892C19.0486 17.3632 19.0343 17.3393 19.0158 17.3188C18.9972 17.2983 18.9748 17.2817 18.9498 17.2699C18.3233 16.855 17.7983 16.3042 17.414 15.6584C17.0296 15.0126 16.7958 14.2885 16.7298 13.5399C16.6541 12.8026 16.7501 12.0578 17.0103 11.3639C17.2706 10.6699 17.688 10.0456 18.2298 9.53993C18.2531 9.52093 18.2709 9.49612 18.2814 9.46801C18.2919 9.43991 18.2949 9.40952 18.2898 9.37993C18.29 9.33822 18.2811 9.29698 18.2639 9.25901C18.2466 9.22105 18.2214 9.18725 18.1898 9.15993C17.616 8.69974 16.9216 8.41501 16.1898 8.33993C15.6048 8.34491 15.0267 8.46733 14.4898 8.69993C13.8533 8.96012 13.1768 9.10895 12.4898 9.13993C11.8461 9.11495 11.2124 8.97262 10.6198 8.71993C10.0742 8.49168 9.49108 8.36624 8.89984 8.34993Z" fill="black"/>
</svg>
