<svg width="24" height="24" viewBox="0 0 24 24" fill="none" xmlns="http://www.w3.org/2000/svg">
<path d="M19.43 1.20001H4.57C4.13401 1.20001 3.70229 1.28589 3.29949 1.45273C2.89669 1.61958 2.5307 1.86413 2.22241 2.17242C1.59978 2.79504 1.25 3.63949 1.25 4.52001V7.52001C1.25166 8.25919 1.49921 8.97681 1.95365 9.55979C2.40809 10.1428 3.04358 10.558 3.76 10.74V19.8C3.76 20.5957 4.07607 21.3587 4.63868 21.9213C5.20129 22.4839 5.96435 22.8 6.76 22.8H17.22C18.0156 22.8 18.7787 22.4839 19.3413 21.9213C19.9039 21.3587 20.22 20.5957 20.22 19.8V10.72C20.9401 10.5418 21.5801 10.1282 22.0385 9.54488C22.4968 8.96154 22.7472 8.24186 22.75 7.50001V4.50001C22.7447 3.62296 22.3926 2.78364 21.7706 2.16534C21.1485 1.54703 20.3071 1.2 19.43 1.20001ZM17.22 21.3H6.78C6.37687 21.3 5.99025 21.1399 5.7052 20.8548C5.42014 20.5698 5.26 20.1831 5.26 19.78V10.78H18.74V19.78C18.74 20.1831 18.5799 20.5698 18.2948 20.8548C18.0097 21.1399 17.6231 21.3 17.22 21.3ZM21.22 7.50001C21.2192 7.931 21.0662 8.34786 20.7882 8.67714C20.5101 9.00643 20.1248 9.22701 19.7 9.30001H4.27C3.84524 9.22701 3.45988 9.00643 3.18182 8.67714C2.90376 8.34786 2.75084 7.931 2.75 7.50001V4.50001C2.75784 4.02161 2.95273 3.5653 3.29292 3.22885C3.63311 2.8924 4.09154 2.70256 4.57 2.70001H19.43C19.9119 2.70264 20.3733 2.89523 20.714 3.23598C21.0548 3.57673 21.2474 4.03813 21.25 4.52001L21.22 7.50001ZM14.22 14.83H10.62C10.4211 14.83 10.2303 14.751 10.0897 14.6103C9.94902 14.4697 9.87 14.2789 9.87 14.08C9.87 13.8811 9.94902 13.6903 10.0897 13.5497C10.2303 13.409 10.4211 13.33 10.62 13.33H14.21C14.4089 13.33 14.5997 13.409 14.7403 13.5497C14.881 13.6903 14.96 13.8811 14.96 14.08C14.96 14.2789 14.881 14.4697 14.7403 14.6103C14.5997 14.751 14.4089 14.83 14.21 14.83H14.22Z" fill="black"/>
</svg>
