<svg width="24" height="24" viewBox="0 0 24 24" fill="none" xmlns="http://www.w3.org/2000/svg">
<path d="M18.8899 22.9201C18.443 22.9176 18.0049 22.7968 17.6199 22.5701L12.5199 19.6401C12.3678 19.5523 12.1954 19.5061 12.0199 19.5061C11.8443 19.5061 11.6719 19.5523 11.5199 19.6401L6.41986 22.5701C6.03371 22.793 5.59568 22.9104 5.14979 22.9104C4.7039 22.9104 4.26587 22.793 3.87974 22.57C3.4936 22.347 3.17296 22.0264 2.95005 21.6402C2.72714 21.254 2.60981 20.816 2.60986 20.3701V6.28008C2.61251 4.90176 3.16121 3.58066 4.13583 2.60604C5.11044 1.63143 6.43155 1.08272 7.80986 1.08008H16.2699C17.6491 1.08271 18.9712 1.63109 19.9475 2.60543C20.9237 3.57976 21.4746 4.90085 21.4799 6.28008V20.3701C21.4721 21.044 21.2009 21.688 20.7244 22.1646C20.2478 22.6411 19.6037 22.9123 18.9299 22.9201H18.8899ZM11.9999 18.0001C12.446 17.9976 12.8846 18.115 13.2699 18.3401L18.3699 21.2701C18.5287 21.3606 18.7084 21.4081 18.8912 21.4079C19.074 21.4077 19.2535 21.3598 19.4121 21.2689C19.5707 21.178 19.7028 21.0472 19.7954 20.8896C19.8879 20.7319 19.9377 20.5529 19.9399 20.3701V6.28008C19.9372 5.29786 19.5452 4.35677 18.8497 3.66317C18.1542 2.96958 17.2121 2.58007 16.2299 2.58008H7.76986C6.78856 2.58008 5.84745 2.9699 5.15357 3.66378C4.45968 4.35767 4.06986 5.29878 4.06986 6.28008V20.3701C4.05607 20.5576 4.09544 20.7453 4.18346 20.9114C4.27147 21.0776 4.40456 21.2156 4.56745 21.3096C4.73034 21.4036 4.91642 21.4497 5.10434 21.4427C5.29226 21.4357 5.47441 21.3759 5.62986 21.2701L10.7299 18.3401C11.1151 18.115 11.5537 17.9976 11.9999 18.0001ZM11.6099 13.2801L15.6099 9.28008C15.7065 9.22297 15.7891 9.14489 15.8515 9.0516C15.914 8.95831 15.9547 8.8522 15.9707 8.74108C15.9866 8.62996 15.9775 8.51668 15.9438 8.40958C15.9102 8.30249 15.8529 8.20431 15.7762 8.1223C15.6996 8.04028 15.6055 7.97652 15.5009 7.93571C15.3964 7.8949 15.2839 7.87809 15.172 7.88651C15.0601 7.89494 14.9514 7.92838 14.8541 7.98439C14.7569 8.04039 14.6734 8.11751 14.6099 8.21008L11.1099 11.6801L10.0599 10.6801C9.91924 10.5396 9.72861 10.4607 9.52986 10.4607C9.33111 10.4607 9.14049 10.5396 8.99986 10.6801C8.92089 10.7504 8.85769 10.8367 8.81441 10.9332C8.77114 11.0297 8.74876 11.1343 8.74876 11.2401C8.74876 11.3458 8.77114 11.4504 8.81441 11.5469C8.85769 11.6435 8.92089 11.7297 8.99986 11.8001L10.5799 13.2901C10.7159 13.4241 10.8989 13.4995 11.0899 13.5001C11.2855 13.4984 11.4724 13.4193 11.6099 13.2801Z" fill="black"/>
</svg>
