<svg width="24" height="24" viewBox="0 0 24 24" fill="none" xmlns="http://www.w3.org/2000/svg">
<path d="M19.9 18.45C19.9046 18.5535 19.8874 18.6569 19.8495 18.7534C19.8116 18.8498 19.7538 18.9373 19.68 19.01L16.86 21.8C16.7955 21.8678 16.718 21.9217 16.632 21.9586C16.5461 21.9955 16.4535 22.0145 16.36 22.0145C16.2665 22.0145 16.1739 21.9955 16.088 21.9586C16.002 21.9217 15.9244 21.8678 15.86 21.8L13.28 19.07C13.1442 18.9269 13.0686 18.7372 13.0686 18.54C13.0686 18.3428 13.1442 18.1531 13.28 18.01C13.3428 17.9395 13.4199 17.8832 13.506 17.8445C13.5922 17.8059 13.6856 17.786 13.78 17.786C13.8744 17.786 13.9678 17.8059 14.0539 17.8445C14.1401 17.8832 14.2171 17.9395 14.28 18.01L15.65 19.45V2.77C15.6446 2.57805 15.715 2.39169 15.846 2.2513C15.9771 2.11092 16.1581 2.02782 16.35 2.02C16.5428 2.02521 16.7259 2.10547 16.8604 2.24369C16.9948 2.3819 17.0701 2.56716 17.07 2.76V19.54L18.7 17.92C18.7637 17.8509 18.841 17.7958 18.927 17.7581C19.0131 17.7203 19.106 17.7009 19.2 17.7009C19.2939 17.7009 19.3869 17.7203 19.4729 17.7581C19.559 17.7958 19.6363 17.8509 19.7 17.92C19.767 17.9906 19.8191 18.0738 19.8535 18.1648C19.8878 18.2558 19.9036 18.3528 19.9 18.45ZM7.87999 2.22C7.81638 2.15075 7.73911 2.09545 7.65305 2.05759C7.56699 2.01972 7.47401 2.00011 7.37999 2C7.28465 2.00107 7.19047 2.02108 7.10292 2.05884C7.01537 2.09661 6.93619 2.15139 6.86999 2.22L4.16999 5.05C4.047 5.18751 3.979 5.36552 3.979 5.55C3.979 5.73448 4.047 5.91249 4.16999 6.05C4.23517 6.1165 4.31297 6.16933 4.39882 6.20539C4.48468 6.24145 4.57687 6.26001 4.66999 6.26C4.7642 6.26115 4.85757 6.2421 4.94382 6.20416C5.03006 6.16621 5.10718 6.11024 5.16999 6.04L6.58999 4.6V21.27C6.58999 21.4583 6.66479 21.6389 6.79794 21.772C6.93109 21.9052 7.11168 21.98 7.29999 21.98C7.48829 21.98 7.66888 21.9052 7.80203 21.772C7.93518 21.6389 8.00999 21.4583 8.00999 21.27V4.45L9.42999 5.94C9.49516 6.00652 9.57296 6.05937 9.65881 6.09544C9.74467 6.13152 9.83686 6.1501 9.92999 6.1501C10.0231 6.1501 10.1153 6.13152 10.2012 6.09544C10.287 6.05937 10.3648 6.00652 10.43 5.94C10.551 5.80152 10.6176 5.62388 10.6176 5.44C10.6176 5.25612 10.551 5.07848 10.43 4.94L7.87999 2.22Z" fill="black"/>
</svg>
