<svg width="24" height="24" viewBox="0 0 24 24" fill="none" xmlns="http://www.w3.org/2000/svg">
<path d="M21.1898 6.37H16.7498C16.6513 6.3713 16.554 6.392 16.4635 6.4309C16.373 6.4698 16.2911 6.52615 16.2224 6.59672C16.1537 6.6673 16.0995 6.75071 16.0631 6.84222C16.0266 6.93372 16.0085 7.03151 16.0098 7.13C16.0069 7.22968 16.0247 7.32889 16.0621 7.42132C16.0995 7.51376 16.1558 7.59742 16.2272 7.66699C16.2987 7.73656 16.3838 7.79053 16.4772 7.82547C16.5706 7.86042 16.6702 7.87558 16.7698 7.87H19.1598L14.0598 12.87L10.1498 9.13C10.0037 8.98466 9.80592 8.90308 9.5998 8.90308C9.39369 8.90308 9.19596 8.98466 9.0498 9.13L2.2098 15.88C2.06188 16.0282 1.97798 16.2286 1.97611 16.438C1.97424 16.6474 2.05455 16.8492 2.1998 17C2.35337 17.1468 2.55737 17.2291 2.7698 17.23C2.87242 17.2319 2.97431 17.2124 3.06899 17.1728C3.16368 17.1332 3.24909 17.0744 3.3198 17L9.6098 10.81L13.5198 14.54C13.6672 14.683 13.8645 14.7629 14.0698 14.7629C14.2751 14.7629 14.4724 14.683 14.6198 14.54L20.4298 8.89V11.57C20.4298 11.7672 20.5074 11.9565 20.6459 12.0968C20.7844 12.2372 20.9726 12.3174 21.1698 12.32C21.367 12.32 21.5563 12.2424 21.6966 12.1039C21.837 11.9654 21.9172 11.7772 21.9198 11.58L21.9998 7.13C21.998 6.92853 21.9193 6.73536 21.7798 6.59C21.7055 6.50979 21.6134 6.44812 21.5109 6.40991C21.4085 6.37171 21.2985 6.35804 21.1898 6.37Z" fill="black"/>
</svg>
