<svg width="24" height="24" viewBox="0 0 24 24" fill="none" xmlns="http://www.w3.org/2000/svg">
<path d="M17.3502 16.51C17.3502 16.7752 17.2448 17.0296 17.0573 17.2171C16.8697 17.4046 16.6154 17.51 16.3502 17.51H8.00015C7.86947 17.5084 7.74037 17.4812 7.62015 17.43C7.48444 17.3891 7.35898 17.3198 7.25208 17.2267C7.14519 17.1336 7.05932 17.0188 7.00015 16.89C6.97586 16.7645 6.97586 16.6355 7.00015 16.51V8.11C7.00015 7.84479 7.10551 7.59043 7.29304 7.4029C7.48058 7.21536 7.73493 7.11 8.00015 7.11C8.26537 7.11 8.51972 7.21536 8.70726 7.4029C8.89479 7.59043 9.00015 7.84479 9.00015 8.11V14.11L15.6402 7.4C15.8285 7.2117 16.0838 7.10591 16.3502 7.10591C16.6165 7.10591 16.8718 7.2117 17.0601 7.4C17.2485 7.58831 17.3542 7.8437 17.3542 8.11C17.3542 8.3763 17.2485 8.6317 17.0601 8.82L10.3701 15.51H16.3702C16.6319 15.5152 16.8811 15.6229 17.0644 15.8099C17.2476 15.9968 17.3502 16.2482 17.3502 16.51Z" fill="black"/>
</svg>
