<svg width="24" height="24" viewBox="0 0 24 24" fill="none" xmlns="http://www.w3.org/2000/svg">
<path d="M18.6401 10.42C18.839 10.42 19.0297 10.341 19.1704 10.2003C19.311 10.0597 19.3901 9.86891 19.3901 9.67L19.4401 5.47C19.4399 5.27115 19.3608 5.08052 19.2201 4.94C19.1529 4.86442 19.0693 4.80528 18.9757 4.76713C18.882 4.72899 18.7809 4.71286 18.6801 4.72H14.4801C14.3812 4.71996 14.2833 4.73975 14.1922 4.77818C14.1011 4.81661 14.0186 4.87292 13.9496 4.94376C13.8806 5.01461 13.8265 5.09857 13.7905 5.19067C13.7546 5.28277 13.7374 5.38115 13.7401 5.48C13.7427 5.67717 13.8229 5.86538 13.9632 6.00388C14.1036 6.14237 14.2929 6.22002 14.4901 6.22H16.6101L12.0001 10.86L7.41006 6.24H9.51006C9.70725 6.24002 9.89652 6.16237 10.0369 6.02388C10.1773 5.88538 10.2574 5.69717 10.2601 5.5C10.2627 5.40115 10.2456 5.30277 10.2096 5.21067C10.1736 5.11857 10.1195 5.03461 10.0505 4.96376C9.98153 4.89292 9.89905 4.83661 9.80794 4.79818C9.71683 4.75975 9.61894 4.73996 9.52006 4.74H5.32006C5.21953 4.7357 5.11925 4.75313 5.02606 4.7911C4.93287 4.82906 4.84897 4.88667 4.78006 4.96C4.64055 5.10536 4.56185 5.29853 4.56006 5.5L4.61006 9.7C4.61006 9.89891 4.68908 10.0897 4.82973 10.2303C4.97038 10.371 5.16115 10.45 5.36006 10.45C5.55989 10.4474 5.75063 10.3661 5.89101 10.2239C6.03138 10.0817 6.11008 9.88984 6.11006 9.69L6.08006 7L11.0001 11.93L6.17006 16.75V14.34C6.17138 14.2415 6.15329 14.1437 6.11681 14.0522C6.08034 13.9607 6.0262 13.8773 5.95748 13.8067C5.88876 13.7361 5.80682 13.6798 5.71632 13.6409C5.62582 13.602 5.52855 13.5813 5.43006 13.58C5.23195 13.5826 5.04269 13.6624 4.90259 13.8025C4.7625 13.9426 4.68265 14.1319 4.68006 14.33V18.53C4.68185 18.7315 4.76055 18.9246 4.90006 19.07C5.04058 19.2107 5.23121 19.2898 5.43006 19.29L9.63006 19.24C9.72894 19.24 9.82683 19.2203 9.91794 19.1818C10.0091 19.1434 10.0915 19.0871 10.1605 19.0162C10.2295 18.9454 10.2836 18.8614 10.3196 18.7693C10.3556 18.6772 10.3727 18.5788 10.3701 18.48C10.3648 18.2819 10.2825 18.0937 10.1405 17.9555C9.99854 17.8173 9.80821 17.7399 9.61006 17.74H7.29006L12.0001 13L16.7501 17.78H14.4001C14.2018 17.7849 14.0128 17.8652 13.8716 18.0046C13.7304 18.1439 13.6476 18.3318 13.6401 18.53C13.6387 18.628 13.6569 18.7253 13.6935 18.8163C13.7301 18.9072 13.7844 18.99 13.8532 19.0597C13.9221 19.1295 14.0041 19.1849 14.0945 19.2227C14.185 19.2605 14.282 19.28 14.3801 19.28L18.5801 19.33C18.7789 19.3298 18.9695 19.2507 19.1101 19.11C19.2496 18.9646 19.3283 18.7715 19.3301 18.57V14.37C19.3301 14.1711 19.251 13.9803 19.1104 13.8397C18.9697 13.699 18.779 13.62 18.5801 13.62C18.3811 13.62 18.1904 13.699 18.0497 13.8397C17.9091 13.9803 17.8301 14.1711 17.8301 14.37V16.75L13.0701 11.96L17.9201 7.08V9.69C17.9273 9.87959 18.0052 10.0596 18.1384 10.1947C18.2716 10.3298 18.4506 10.4102 18.6401 10.42Z" fill="black"/>
</svg>
