<svg width="24" height="24" viewBox="0 0 24 24" fill="none" xmlns="http://www.w3.org/2000/svg">
<path d="M17.3798 14.77C17.3082 14.6984 17.2232 14.6417 17.1297 14.6029C17.0362 14.5642 16.936 14.5442 16.8348 14.5442C16.7336 14.5442 16.6333 14.5642 16.5398 14.6029C16.4463 14.6417 16.3614 14.6984 16.2898 14.77C16.2182 14.8416 16.1614 14.9265 16.1227 15.02C16.084 15.1136 16.064 15.2138 16.064 15.315C16.064 15.4162 16.084 15.5164 16.1227 15.6099C16.1614 15.7035 16.2182 15.7884 16.2898 15.86L17.9898 17.56H7.27978C6.96164 17.5809 6.64259 17.5362 6.34239 17.4288C6.04219 17.3214 5.76723 17.1536 5.53452 16.9356C5.3018 16.7177 5.1163 16.4543 4.98948 16.1618C4.86266 15.8693 4.79722 15.5538 4.79722 15.235C4.79722 14.9162 4.86266 14.6007 4.98948 14.3082C5.1163 14.0157 5.3018 13.7523 5.53452 13.5344C5.76723 13.3164 6.04219 13.1485 6.34239 13.0412C6.64259 12.9338 6.96164 12.8891 7.27978 12.91H16.8198H16.8798C17.388 12.9015 17.8896 12.7929 18.3558 12.5905C18.8221 12.3882 19.2439 12.0959 19.5972 11.7305C19.9506 11.3651 20.2285 10.9337 20.4151 10.4609C20.6017 9.98813 20.6933 9.48321 20.6848 8.975C20.6762 8.46678 20.5677 7.96522 20.3653 7.49896C20.163 7.0327 19.8707 6.61086 19.5053 6.25753C19.1399 5.9042 18.7085 5.62631 18.2357 5.43971C17.7629 5.25311 17.258 5.16146 16.7498 5.17H5.99978L7.69978 3.47C7.84565 3.32545 7.92813 3.12888 7.92907 2.92353C7.93 2.71818 7.84933 2.52087 7.70478 2.375C7.56024 2.22913 7.36367 2.14665 7.15832 2.14571C6.95297 2.14478 6.75565 2.22545 6.60978 2.37L3.60978 5.37C3.46599 5.51742 3.38374 5.71409 3.37978 5.92C3.38569 6.12549 3.46765 6.32147 3.60978 6.47L6.60978 9.47C6.68061 9.54287 6.76534 9.6008 6.85895 9.64036C6.95256 9.67992 7.05316 9.7003 7.15478 9.7003C7.25641 9.7003 7.35701 9.67992 7.45062 9.64036C7.54423 9.6008 7.62895 9.54287 7.69978 9.47C7.77266 9.39917 7.83059 9.31444 7.87015 9.22083C7.90971 9.12722 7.93009 9.02662 7.93009 8.925C7.93009 8.82337 7.90971 8.72278 7.87015 8.62916C7.83059 8.53555 7.77266 8.45083 7.69978 8.38L5.99978 6.7H16.7498C17.3677 6.7 17.9604 6.94548 18.3973 7.38244C18.8343 7.8194 19.0798 8.41204 19.0798 9.03C19.0798 9.64795 18.8343 10.2406 18.3973 10.6776C17.9604 11.1145 17.3677 11.36 16.7498 11.36H7.14978C6.1234 11.3772 5.1459 11.8015 4.43232 12.5395C3.71874 13.2774 3.32755 14.2686 3.34478 15.295C3.36202 16.3214 3.78629 17.2989 4.52424 18.0125C5.2622 18.726 6.2534 19.1172 7.27978 19.1H17.9998L16.2998 20.8C16.2281 20.8715 16.1713 20.9565 16.1325 21.05C16.0937 21.1435 16.0737 21.2438 16.0737 21.345C16.0737 21.4462 16.0937 21.5465 16.1325 21.64C16.1713 21.7335 16.2281 21.8185 16.2998 21.89C16.4454 22.0365 16.6432 22.1192 16.8498 22.12C16.9505 22.1194 17.0502 22.0987 17.1429 22.0592C17.2356 22.0197 17.3195 21.9622 17.3898 21.89L20.3898 18.89C20.4614 18.8185 20.5183 18.7335 20.5571 18.64C20.5959 18.5465 20.6158 18.4462 20.6158 18.345C20.6158 18.2438 20.5959 18.1435 20.5571 18.05C20.5183 17.9565 20.4614 17.8715 20.3898 17.8L17.3798 14.77Z" fill="black"/>
</svg>
