<svg width="24" height="24" viewBox="0 0 24 24" fill="none" xmlns="http://www.w3.org/2000/svg">
<path d="M18.75 12.43C18.8009 12.308 18.8271 12.1772 18.8271 12.045C18.8271 11.9128 18.8009 11.782 18.75 11.66C18.6944 11.5422 18.6201 11.4341 18.53 11.34L12.59 5.4C12.3987 5.23618 12.1526 5.15057 11.9009 5.16029C11.6493 5.17001 11.4105 5.27435 11.2324 5.45244C11.0543 5.63053 10.95 5.86927 10.9403 6.12095C10.9306 6.37263 11.0162 6.6187 11.18 6.81L15.41 11H6C5.73478 11 5.48043 11.1054 5.29289 11.2929C5.10536 11.4804 5 11.7348 5 12C5 12.2652 5.10536 12.5196 5.29289 12.7071C5.48043 12.8946 5.73478 13 6 13H15.46L11.23 17.23C11.0417 17.417 10.9354 17.6711 10.9344 17.9365C10.9335 18.2018 11.038 18.4567 11.225 18.645C11.412 18.8333 11.6661 18.9396 11.9315 18.9406C12.1968 18.9415 12.4517 18.837 12.64 18.65L18.58 12.71C18.6491 12.6248 18.7063 12.5306 18.75 12.43Z" fill="black"/>
</svg>
