<svg width="24" height="24" viewBox="0 0 24 24" fill="none" xmlns="http://www.w3.org/2000/svg">
<path d="M17.8201 11H8.36005L12.5901 6.77C12.7191 6.57562 12.7762 6.34221 12.7513 6.11019C12.7265 5.87818 12.6212 5.66216 12.4539 5.49955C12.2865 5.33694 12.0676 5.23798 11.8349 5.2198C11.6023 5.20162 11.3706 5.26537 11.1801 5.4L5.24005 11.34C5.08289 11.5238 4.99763 11.7582 5.00005 12C5.00031 12.134 5.02751 12.2667 5.08005 12.39C5.12879 12.5092 5.2001 12.6179 5.29005 12.71L11.23 18.65C11.4184 18.837 11.6732 18.9415 11.9386 18.9406C12.2039 18.9396 12.4581 18.8333 12.6451 18.645C12.832 18.4567 12.9365 18.2018 12.9356 17.9365C12.9347 17.6711 12.8284 17.417 12.6401 17.23L8.36005 13H17.8201C18.0853 13 18.3396 12.8946 18.5272 12.7071C18.7147 12.5196 18.8201 12.2652 18.8201 12C18.8201 11.7348 18.7147 11.4804 18.5272 11.2929C18.3396 11.1054 18.0853 11 17.8201 11Z" fill="black"/>
</svg>
