<svg width="24" height="24" viewBox="0 0 24 24" fill="none" xmlns="http://www.w3.org/2000/svg">
<path d="M21.06 11.25C20.8619 11.2552 20.6737 11.3376 20.5355 11.4795C20.3972 11.6215 20.3199 11.8119 20.32 12.01V14.18L15 9C14.8531 8.86 14.6579 8.7819 14.455 8.7819C14.252 8.7819 14.0569 8.86 13.91 9L9.99998 12.63L3.81998 6.51C3.67383 6.36466 3.4761 6.28308 3.26998 6.28308C3.06387 6.28308 2.86613 6.36466 2.71998 6.51C2.57403 6.65785 2.49219 6.85724 2.49219 7.065C2.49219 7.27275 2.57403 7.47215 2.71998 7.62L9.46998 14.27C9.61689 14.41 9.81205 14.4881 10.015 14.4881C10.2179 14.4881 10.4131 14.41 10.56 14.27L14.42 10.58L19.58 15.58H16.74C16.5455 15.5913 16.3616 15.6724 16.222 15.8083C16.0824 15.9442 15.9965 16.1259 15.98 16.32C15.9787 16.4185 15.9968 16.5163 16.0332 16.6078C16.0697 16.6993 16.1238 16.7827 16.1926 16.8533C16.2613 16.9239 16.3432 16.9802 16.4337 17.0191C16.5242 17.058 16.6215 17.0787 16.72 17.08L21.11 17.13C21.3088 17.1298 21.4995 17.0507 21.64 16.91C21.7128 16.8407 21.7701 16.7567 21.808 16.6636C21.8459 16.5705 21.8636 16.4705 21.86 16.37V11.99C21.8575 11.8884 21.8346 11.7884 21.7927 11.6958C21.7509 11.6033 21.6909 11.52 21.6163 11.451C21.5417 11.382 21.454 11.3287 21.3585 11.2942C21.2629 11.2596 21.1614 11.2446 21.06 11.25Z" fill="black"/>
</svg>
