<svg width="24" height="24" viewBox="0 0 24 24" fill="none" xmlns="http://www.w3.org/2000/svg">
<path d="M17.1298 7.8C17.1298 7.53479 17.0245 7.28043 16.8369 7.0929C16.6494 6.90536 16.395 6.8 16.1298 6.8H7.73982C7.60577 6.80026 7.47315 6.82747 7.34982 6.88C7.10547 6.98148 6.9113 7.17565 6.80982 7.42C6.76201 7.54091 6.73823 7.66999 6.73982 7.8V16.2C6.73982 16.4652 6.84518 16.7196 7.03271 16.9071C7.22025 17.0946 7.4746 17.2 7.73982 17.2C8.00504 17.2 8.25939 17.0946 8.44693 16.9071C8.63446 16.7196 8.73982 16.4652 8.73982 16.2V10.2L15.4198 16.88C15.5124 16.9732 15.6224 17.0473 15.7437 17.098C15.8649 17.1488 15.9949 17.1751 16.1263 17.1756C16.2577 17.176 16.3879 17.1506 16.5095 17.1007C16.631 17.0509 16.7416 16.9776 16.8348 16.885C16.9281 16.7924 17.0021 16.6824 17.0529 16.5612C17.1036 16.4399 17.1299 16.3099 17.1304 16.1785C17.1308 16.0471 17.1054 15.9169 17.0556 15.7954C17.0057 15.6738 16.9324 15.5632 16.8398 15.47L10.1498 8.8H16.1498C16.4116 8.79477 16.6608 8.6871 16.844 8.50013C17.0273 8.31316 17.1299 8.06179 17.1298 7.8Z" fill="black"/>
</svg>
