<svg width="24" height="24" viewBox="0 0 24 24" fill="none" xmlns="http://www.w3.org/2000/svg">
<path d="M20.7198 11.11L19.1498 12.75V7.75C19.1659 6.59968 18.7256 5.48985 17.9254 4.66336C17.1251 3.83687 16.03 3.36104 14.8798 3.34H6.24981C5.10573 3.36365 4.01729 3.83819 3.22135 4.66035C2.42541 5.48251 1.98638 6.58575 1.99981 7.73V16.64C1.99432 17.7791 2.43686 18.8746 3.23196 19.6903C4.02706 20.506 5.11097 20.9764 6.24981 21H14.8798C15.7523 21.0018 16.6042 20.735 17.3198 20.2358C18.0354 19.7367 18.5801 19.0294 18.8798 18.21C18.9191 18.1175 18.9397 18.0181 18.9403 17.9176C18.941 17.8171 18.9217 17.7174 18.8836 17.6244C18.8454 17.5314 18.7892 17.4469 18.7182 17.3758C18.6472 17.3046 18.5628 17.2483 18.4698 17.21C18.3806 17.1747 18.2853 17.1577 18.1894 17.1598C18.0935 17.1619 17.999 17.1831 17.9114 17.2222C17.8239 17.2614 17.745 17.3176 17.6795 17.3876C17.6139 17.4576 17.5631 17.54 17.5298 17.63C17.3323 18.1669 16.9757 18.6308 16.5075 18.9596C16.0393 19.2884 15.4819 19.4665 14.9098 19.47H6.24981C5.87422 19.4648 5.50333 19.3856 5.15834 19.2371C4.81334 19.0885 4.50099 18.8734 4.23912 18.6041C3.97725 18.3348 3.77099 18.0166 3.63213 17.6676C3.49327 17.3185 3.42452 16.9456 3.42981 16.57V7.73C3.41911 6.97051 3.70992 6.23775 4.23851 5.69229C4.7671 5.14683 5.49036 4.83315 6.24981 4.82H14.8798C15.6375 4.83576 16.3582 5.15059 16.8847 5.69576C17.4111 6.24094 17.7005 6.97221 17.6898 7.73V12.84L15.9998 11.11C15.8593 11.0076 15.6877 10.9572 15.5141 10.9674C15.3406 10.9775 15.176 11.0477 15.0485 11.1658C14.9209 11.2839 14.8384 11.4426 14.8149 11.6148C14.7914 11.787 14.8285 11.9621 14.9198 12.11L17.7998 15.11C17.869 15.1836 17.9527 15.2421 18.0457 15.2817C18.1386 15.3212 18.2388 15.3411 18.3398 15.34C18.4407 15.3405 18.5407 15.3204 18.6336 15.2808C18.7265 15.2413 18.8102 15.1831 18.8798 15.11L21.7598 12.11C21.8979 11.9681 21.9751 11.778 21.9751 11.58C21.9751 11.382 21.8979 11.1919 21.7598 11.05C21.6125 10.9233 21.4217 10.8588 21.2277 10.87C21.0337 10.8812 20.8516 10.9672 20.7198 11.11Z" fill="black"/>
</svg>
