<svg width="24" height="24" viewBox="0 0 24 24" fill="none" xmlns="http://www.w3.org/2000/svg">
<path d="M18.5299 11.35L12.5899 5.42C12.5012 5.32349 12.3918 5.24828 12.2699 5.2C12.1497 5.14875 12.0206 5.12158 11.8899 5.12C11.7558 5.12025 11.6232 5.14746 11.4999 5.2C11.378 5.24828 11.2686 5.32349 11.1799 5.42L5.23989 11.35C5.05159 11.5383 4.9458 11.7937 4.9458 12.06C4.9458 12.3263 5.05159 12.5817 5.23989 12.77C5.4282 12.9583 5.68359 13.0641 5.94989 13.0641C6.21619 13.0641 6.47159 12.9583 6.65989 12.77L10.8899 8.54V18C10.8899 18.2652 10.9952 18.5196 11.1828 18.7071C11.3703 18.8946 11.6247 19 11.8899 19C12.1551 19 12.4095 18.8946 12.597 18.7071C12.7845 18.5196 12.8899 18.2652 12.8899 18V8.54L17.1199 12.77C17.3062 12.9547 17.5576 13.0589 17.8199 13.06C17.9515 13.0608 18.082 13.0355 18.2038 12.9858C18.3256 12.936 18.4365 12.8627 18.5299 12.77C18.6236 12.677 18.698 12.5664 18.7488 12.4446C18.7996 12.3227 18.8257 12.192 18.8257 12.06C18.8257 11.928 18.7996 11.7973 18.7488 11.6754C18.698 11.5536 18.6236 11.443 18.5299 11.35Z" fill="black"/>
</svg>
