<svg width="24" height="24" viewBox="0 0 24 24" fill="none" xmlns="http://www.w3.org/2000/svg">
<path d="M21.7402 5.71C21.8759 5.85307 21.9516 6.04277 21.9516 6.24C21.9516 6.43722 21.8759 6.62693 21.7402 6.77L19.1002 9.51C18.9615 9.64739 18.7753 9.72616 18.5802 9.73C18.388 9.72567 18.2051 9.64677 18.0702 9.51C17.9344 9.36693 17.8587 9.17722 17.8587 8.98C17.8587 8.78277 17.9344 8.59307 18.0702 8.45L19.3902 7.08H16.7202L5.72016 18.38C5.65466 18.4495 5.57562 18.5049 5.48791 18.5427C5.4002 18.5806 5.30568 18.6001 5.21016 18.6H2.66016C2.46124 18.6 2.27048 18.521 2.12983 18.3803C1.98917 18.2397 1.91016 18.0489 1.91016 17.85C1.91016 17.6511 1.98917 17.4603 2.12983 17.3197C2.27048 17.179 2.46124 17.1 2.66016 17.1H4.90016L9.84016 12L4.90016 6.93H2.66016C2.46124 6.93 2.27048 6.85098 2.12983 6.71033C1.98917 6.56968 1.91016 6.37891 1.91016 6.18C1.91016 5.98109 1.98917 5.79032 2.12983 5.64967C2.27048 5.50902 2.46124 5.43 2.66016 5.43H5.20016C5.29568 5.42993 5.3902 5.44942 5.47791 5.48725C5.56562 5.52509 5.64466 5.58047 5.71016 5.65L10.8702 11L15.8702 5.82C16.0094 5.68347 16.1952 5.60484 16.3902 5.6H19.4902L18.1702 4.13C18.0344 3.98693 17.9587 3.79722 17.9587 3.6C17.9587 3.40277 18.0344 3.21307 18.1702 3.07C18.3031 2.9381 18.4829 2.86408 18.6702 2.86408C18.8575 2.86408 19.0372 2.9381 19.1702 3.07L21.7402 5.71ZM19.1802 14.49C19.0459 14.3605 18.8667 14.2881 18.6802 14.2881C18.4936 14.2881 18.3144 14.3605 18.1802 14.49C18.0444 14.6331 17.9687 14.8228 17.9687 15.02C17.9687 15.2172 18.0444 15.4069 18.1802 15.55L19.5002 16.92H17.1102L14.6102 14.35C14.4772 14.2181 14.2975 14.1441 14.1102 14.1441C13.9229 14.1441 13.7431 14.2181 13.6102 14.35C13.4721 14.4919 13.3949 14.682 13.3949 14.88C13.3949 15.078 13.4721 15.2681 13.6102 15.41L16.3302 18.2C16.3938 18.2692 16.471 18.3245 16.5571 18.3624C16.6432 18.4003 16.7361 18.4199 16.8302 18.42H19.4902L18.0902 19.87C17.9497 20.0106 17.8708 20.2012 17.8708 20.4C17.8708 20.5987 17.9497 20.7894 18.0902 20.93C18.1549 21.0005 18.2338 21.0565 18.3217 21.0944C18.4096 21.1324 18.5045 21.1513 18.6002 21.15C18.6957 21.1501 18.7902 21.1306 18.8779 21.0927C18.9656 21.0549 19.0447 20.9995 19.1102 20.93L21.7502 18.19C21.8859 18.0469 21.9616 17.8572 21.9616 17.66C21.9616 17.4628 21.8859 17.2731 21.7502 17.13L19.1802 14.49Z" fill="black"/>
</svg>
