<svg width="24" height="24" viewBox="0 0 24 24" fill="none" xmlns="http://www.w3.org/2000/svg">
<path d="M18.3801 4.70999H14.1801C13.9812 4.70999 13.7904 4.78901 13.6498 4.92966C13.5091 5.07031 13.4301 5.26108 13.4301 5.45999C13.4301 5.6589 13.5091 5.84967 13.6498 5.99032C13.7904 6.13097 13.9812 6.20999 14.1801 6.20999H16.6001L6.1301 16.79V14.34C6.13012 14.1401 6.05142 13.9483 5.91105 13.8061C5.77068 13.6639 5.57993 13.5826 5.3801 13.58C5.28009 13.5742 5.17998 13.5896 5.08635 13.6252C4.99273 13.6609 4.9077 13.7159 4.83686 13.7867C4.76602 13.8576 4.71098 13.9426 4.67534 14.0362C4.63971 14.1299 4.62429 14.23 4.6301 14.33V18.53C4.63189 18.7315 4.71059 18.9246 4.8501 19.07C4.99062 19.2107 5.18126 19.2898 5.3801 19.29H5.4801L9.5901 19.24C9.68899 19.24 9.78688 19.2202 9.87799 19.1818C9.9691 19.1434 10.0516 19.0871 10.1206 19.0162C10.1895 18.9454 10.2436 18.8614 10.2796 18.7693C10.3156 18.6772 10.3328 18.5788 10.3301 18.48C10.3275 18.2828 10.2473 18.0946 10.1069 17.9561C9.96656 17.8176 9.77729 17.74 9.5801 17.74H7.2901L17.6201 7.34999V9.65999C17.62 9.85814 17.6974 10.0485 17.8356 10.1904C17.9738 10.3324 18.162 10.4148 18.3601 10.42C18.5582 10.4174 18.7475 10.3376 18.8876 10.1975C19.0277 10.0574 19.1075 9.8681 19.1101 9.66999V5.46999C19.1113 5.36985 19.0925 5.27048 19.0547 5.17774C19.0169 5.08499 18.961 5.00075 18.8901 4.92999C18.7487 4.8029 18.5696 4.72563 18.3801 4.70999Z" fill="black"/>
</svg>
