<svg width="24" height="24" viewBox="0 0 24 24" fill="none" xmlns="http://www.w3.org/2000/svg">
<path d="M17.1199 11.35L12.8899 15.58V6.12C12.8899 5.85478 12.7845 5.60042 12.597 5.41289C12.4095 5.22535 12.1551 5.12 11.8899 5.12C11.6247 5.12 11.3703 5.22535 11.1828 5.41289C10.9952 5.60042 10.8899 5.85478 10.8899 6.12V15.58L6.65989 11.35C6.56665 11.2568 6.45596 11.1828 6.33414 11.1323C6.21232 11.0819 6.08175 11.0559 5.94989 11.0559C5.81803 11.0559 5.68746 11.0819 5.56564 11.1323C5.44382 11.1828 5.33313 11.2568 5.23989 11.35C5.14665 11.4432 5.07269 11.5539 5.02223 11.6757C4.97177 11.7976 4.9458 11.9281 4.9458 12.06C4.9458 12.1919 4.97177 12.3224 5.02223 12.4442C5.07269 12.5661 5.14665 12.6768 5.23989 12.77L11.1799 18.7C11.2712 18.7935 11.3799 18.8683 11.4999 18.92C11.6244 18.9674 11.7567 18.9911 11.8899 18.99C12.0199 18.9916 12.149 18.9678 12.2699 18.92C12.3899 18.8683 12.4986 18.7935 12.5899 18.7L18.5299 12.77C18.6236 12.677 18.698 12.5664 18.7488 12.4446C18.7996 12.3227 18.8257 12.192 18.8257 12.06C18.8257 11.928 18.7996 11.7973 18.7488 11.6754C18.698 11.5536 18.6236 11.443 18.5299 11.35C18.3425 11.1637 18.0891 11.0592 17.8249 11.0592C17.5607 11.0592 17.3073 11.1637 17.1199 11.35Z" fill="black"/>
</svg>
