<svg width="24" height="24" viewBox="0 0 24 24" fill="none" xmlns="http://www.w3.org/2000/svg">
<path d="M17.8502 16.2C17.8502 16.4652 17.7448 16.7196 17.5573 16.9071C17.3698 17.0946 17.1154 17.2 16.8502 17.2H8.4502C8.18498 17.2 7.93063 17.0946 7.74309 16.9071C7.55555 16.7196 7.4502 16.4652 7.4502 16.2C7.4502 15.9348 7.55555 15.6804 7.74309 15.4929C7.93063 15.3054 8.18498 15.2 8.4502 15.2H14.4502L7.7502 8.51C7.56394 8.32264 7.4594 8.06918 7.4594 7.805C7.4594 7.54081 7.56394 7.28736 7.7502 7.1C7.93756 6.91375 8.19101 6.80921 8.4552 6.80921C8.71938 6.80921 8.97283 6.91375 9.1602 7.1L15.8502 13.78V7.78C15.8502 7.51478 15.9556 7.26043 16.1431 7.07289C16.3306 6.88536 16.585 6.78 16.8502 6.78C17.1154 6.78 17.3698 6.88536 17.5573 7.07289C17.7448 7.26043 17.8502 7.51478 17.8502 7.78V16.2Z" fill="black"/>
</svg>
