<svg width="24" height="24" viewBox="0 0 24 24" fill="none" xmlns="http://www.w3.org/2000/svg">
<path d="M20 12.54V15.11C20.0162 16.119 19.6334 17.0937 18.935 17.8221C18.2365 18.5505 17.2788 18.9738 16.27 19H6.40002L7.80002 20.6C7.93577 20.7431 8.01145 20.9328 8.01145 21.13C8.01145 21.3272 7.93577 21.5169 7.80002 21.66C7.73621 21.7249 7.65985 21.776 7.5756 21.8104C7.49136 21.8448 7.401 21.8617 7.31002 21.86C7.20974 21.8597 7.11066 21.8381 7.01931 21.7968C6.92796 21.7554 6.8464 21.6952 6.78002 21.62L4.13002 18.62C4.01099 18.4806 3.9456 18.3033 3.9456 18.12C3.9456 17.9367 4.01099 17.7594 4.13002 17.62L6.78002 14.92C6.8452 14.8535 6.92299 14.8006 7.00884 14.7646C7.0947 14.7285 7.18689 14.7099 7.28002 14.7099C7.37315 14.7099 7.46534 14.7285 7.55119 14.7646C7.63705 14.8006 7.71484 14.8535 7.78002 14.92C7.91577 15.0631 7.99145 15.2528 7.99145 15.45C7.99145 15.6472 7.91577 15.8369 7.78002 15.98L6.24002 17.51H16.24C16.8642 17.4969 17.4578 17.2369 17.8907 16.7871C18.3237 16.3373 18.5607 15.7342 18.55 15.11V12.54C18.55 12.349 18.6259 12.1659 18.7609 12.0309C18.8959 11.8959 19.0791 11.82 19.27 11.82C19.461 11.82 19.6441 11.8959 19.7791 12.0309C19.9142 12.1659 19.99 12.349 19.99 12.54H20ZM17 2.35C16.867 2.21809 16.6873 2.14408 16.5 2.14408C16.3127 2.14408 16.133 2.21809 16 2.35C15.862 2.49188 15.7847 2.68203 15.7847 2.88C15.7847 3.07796 15.862 3.26811 16 3.41L17.46 4.92H7.66002C6.64505 4.94102 5.67969 5.36311 4.97508 6.09396C4.27047 6.8248 3.88394 7.80493 3.90002 8.82V11.24C3.88798 11.3424 3.89775 11.4461 3.92868 11.5444C3.95962 11.6427 4.01102 11.7334 4.07951 11.8104C4.148 11.8874 4.23201 11.949 4.32604 11.9913C4.42006 12.0335 4.52196 12.0553 4.62502 12.0553C4.72808 12.0553 4.82998 12.0335 4.924 11.9913C5.01802 11.949 5.10204 11.8874 5.17053 11.8104C5.23902 11.7334 5.29042 11.6427 5.32136 11.5444C5.35229 11.4461 5.36206 11.3424 5.35002 11.24V8.82C5.34339 8.51055 5.39796 8.20284 5.51059 7.91453C5.62322 7.62623 5.79169 7.36302 6.00634 7.14002C6.22098 6.91701 6.47756 6.7386 6.76135 6.61504C7.04514 6.49148 7.35054 6.4252 7.66002 6.42H17.66L16.19 7.92C16.052 8.06188 15.9747 8.25203 15.9747 8.45C15.9747 8.64796 16.052 8.83811 16.19 8.98C16.2567 9.05077 16.3373 9.10687 16.4269 9.14475C16.5164 9.18263 16.6128 9.20144 16.71 9.2C16.8009 9.20111 16.8911 9.18398 16.9753 9.14962C17.0594 9.11527 17.1359 9.06439 17.2 9L19.85 6.3C19.9183 6.22993 19.9721 6.14701 20.0081 6.05603C20.0442 5.96506 20.0618 5.86784 20.06 5.77C20.0641 5.56933 19.9886 5.37521 19.85 5.23L17 2.35Z" fill="black"/>
</svg>
