<svg width="24" height="24" viewBox="0 0 24 24" fill="none" xmlns="http://www.w3.org/2000/svg">
<path d="M16.5098 6.88C16.3896 6.82876 16.2605 6.80158 16.1298 6.8H7.73978C7.47456 6.8 7.22021 6.90536 7.03267 7.0929C6.84513 7.28043 6.73978 7.53479 6.73978 7.8C6.73978 8.06522 6.84513 8.31957 7.03267 8.50711C7.22021 8.69465 7.47456 8.8 7.73978 8.8H13.7398L6.99978 15.49C6.81353 15.6774 6.70898 15.9308 6.70898 16.195C6.70898 16.4592 6.81353 16.7126 6.99978 16.9C7.18714 17.0863 7.44059 17.1908 7.70478 17.1908C7.96896 17.1908 8.22241 17.0863 8.40978 16.9L15.0998 10.22V16.22C15.0998 16.4852 15.2051 16.7396 15.3927 16.9271C15.5802 17.1146 15.8346 17.22 16.0998 17.22C16.365 17.22 16.6193 17.1146 16.8069 16.9271C16.9944 16.7396 17.0998 16.4852 17.0998 16.22V7.8C17.0988 7.60258 17.0394 7.40986 16.9291 7.24614C16.8187 7.08242 16.6624 6.95502 16.4798 6.88H16.5098Z" fill="black"/>
</svg>
