<svg width="24" height="24" viewBox="0 0 24 24" fill="none" xmlns="http://www.w3.org/2000/svg">
<path d="M17.7098 3.32001H9.07979C8.50983 3.32913 7.94725 3.45044 7.42418 3.67701C6.90111 3.90358 6.4278 4.23098 6.03128 4.6405C5.63476 5.05002 5.3228 5.53364 5.11321 6.06375C4.90363 6.59385 4.80052 7.16005 4.80979 7.73001V12.73L3.23979 11.11C3.09916 10.9696 2.90854 10.8907 2.70979 10.8907C2.51104 10.8907 2.32041 10.9696 2.17979 11.11C2.03934 11.2506 1.96045 11.4413 1.96045 11.64C1.96045 11.8388 2.03934 12.0294 2.17979 12.17L5.06979 15.17C5.13898 15.2436 5.2227 15.3021 5.31566 15.3417C5.40861 15.3813 5.50876 15.4011 5.60979 15.4C5.71073 15.4005 5.8107 15.3804 5.90357 15.3408C5.99643 15.3013 6.08022 15.2431 6.14979 15.17L9.02979 12.17C9.16784 12.0281 9.24509 11.838 9.24509 11.64C9.24509 11.442 9.16784 11.2519 9.02979 11.11C8.88916 10.9696 8.69854 10.8907 8.49979 10.8907C8.30104 10.8907 8.11041 10.9696 7.96979 11.11L6.25979 12.84V7.73001C6.24909 6.97052 6.5399 6.23776 7.06849 5.6923C7.59708 5.14684 8.32034 4.83316 9.07979 4.82001H17.7098C18.4675 4.83578 19.1882 5.1506 19.7146 5.69577C20.2411 6.24095 20.5305 6.97222 20.5198 7.73001V16.64C20.5305 17.3968 20.2407 18.1271 19.714 18.6706C19.1873 19.2142 18.4666 19.5269 17.7098 19.54H9.07979C8.50598 19.5385 7.94639 19.3614 7.47622 19.0325C7.00606 18.7035 6.64786 18.2385 6.44979 17.7C6.41654 17.61 6.36566 17.5276 6.30012 17.4576C6.23458 17.3876 6.15572 17.3314 6.06815 17.2922C5.98059 17.2531 5.88609 17.2319 5.79021 17.2298C5.69432 17.2277 5.59898 17.2448 5.50979 17.28C5.41685 17.3183 5.33242 17.3746 5.2614 17.4458C5.19038 17.5169 5.13418 17.6014 5.09605 17.6944C5.05791 17.7874 5.03861 17.8871 5.03925 17.9876C5.0399 18.0881 5.06047 18.1875 5.09979 18.28C5.39951 19.0994 5.94417 19.8067 6.65978 20.3058C7.3754 20.805 8.2273 21.0718 9.09979 21.07H17.7298C18.3015 21.0609 18.8657 20.9389 19.3901 20.7111C19.9145 20.4833 20.3887 20.1541 20.7855 19.7425C21.1823 19.3308 21.4938 18.8448 21.7022 18.3124C21.9106 17.78 22.0117 17.2116 21.9998 16.64V7.73001C22.0077 7.15874 21.903 6.59151 21.6917 6.0607C21.4804 5.5299 21.1666 5.04592 20.7683 4.6364C20.3699 4.22688 19.8947 3.89985 19.37 3.67398C18.8452 3.44811 18.2811 3.32783 17.7098 3.32001Z" fill="black"/>
</svg>
