<svg width="24" height="24" viewBox="0 0 24 24" fill="none" xmlns="http://www.w3.org/2000/svg">
<path d="M21.93 17.19C21.9301 17.3872 21.8524 17.5765 21.7139 17.7168C21.5754 17.8572 21.3872 17.9374 21.19 17.94L4.46005 18L6.07005 19.72C6.2105 19.8606 6.28939 20.0512 6.28939 20.25C6.28939 20.4488 6.2105 20.6394 6.07005 20.78C5.93195 20.9032 5.75499 20.9739 5.57005 20.98C5.46059 20.9765 5.35313 20.9498 5.25483 20.9015C5.15654 20.8532 5.06968 20.7845 5.00005 20.7L2.23005 17.7C2.10706 17.5625 2.03906 17.3845 2.03906 17.2C2.03906 17.0155 2.10706 16.8375 2.23005 16.7L4.93005 14C5.07361 13.8613 5.26543 13.7838 5.46505 13.7838C5.66466 13.7838 5.85648 13.8613 6.00005 14C6.12513 14.1365 6.19452 14.3149 6.19452 14.5C6.19452 14.6851 6.12513 14.8635 6.00005 15L4.56005 16.46H21.18C21.3755 16.4599 21.5633 16.5362 21.7034 16.6726C21.8435 16.8089 21.9248 16.9946 21.93 17.19ZM18.93 4.36C18.7958 4.23046 18.6166 4.15807 18.43 4.15807C18.2435 4.15807 18.0643 4.23046 17.93 4.36C17.8071 4.49751 17.7391 4.67552 17.7391 4.86C17.7391 5.04448 17.8071 5.22249 17.93 5.36L19.41 6.86H2.73005C2.54733 6.8812 2.37878 6.96881 2.25644 7.10617C2.1341 7.24353 2.0665 7.42106 2.0665 7.605C2.0665 7.78894 2.1341 7.96647 2.25644 8.10383C2.37878 8.24119 2.54733 8.3288 2.73005 8.35H19.49L18 9.91C17.9246 9.97932 17.8643 10.0635 17.8231 10.1574C17.7819 10.2512 17.7606 10.3525 17.7606 10.455C17.7606 10.5575 17.7819 10.6588 17.8231 10.7526C17.8643 10.8465 17.9246 10.9307 18 11C18.0662 11.0721 18.1465 11.1297 18.236 11.1693C18.3255 11.2089 18.4222 11.2296 18.52 11.23C18.7041 11.2195 18.8766 11.1369 19 11L21.68 8.31C21.8207 8.16948 21.8999 7.97885 21.9 7.78C21.8972 7.58062 21.8226 7.38893 21.69 7.24L18.93 4.36Z" fill="black"/>
</svg>
