<svg width="24" height="24" viewBox="0 0 24 24" fill="none" xmlns="http://www.w3.org/2000/svg">
<path d="M4.73004 10.59C4.69428 10.7588 4.60288 10.9106 4.47051 11.0212C4.33814 11.1318 4.17246 11.1948 4.00004 11.2H3.83004C3.73071 11.1787 3.63659 11.1379 3.55308 11.08C3.46958 11.0222 3.39836 10.9483 3.34351 10.8628C3.28867 10.7773 3.25129 10.6818 3.23353 10.5818C3.21578 10.4817 3.21799 10.3792 3.24004 10.28C3.61312 8.61734 4.42975 7.08683 5.60312 5.85118C6.77648 4.61553 8.26274 3.7209 9.9039 3.2624C11.5451 2.8039 13.2798 2.79866 14.9237 3.24724C16.5676 3.69582 18.0592 4.58145 19.24 5.81V3.06C19.2387 2.95888 19.2573 2.85849 19.2948 2.76456C19.3323 2.67063 19.3879 2.58501 19.4585 2.51258C19.5291 2.44015 19.6132 2.38233 19.7061 2.34242C19.799 2.30251 19.8989 2.2813 20 2.28C20.2069 2.28 20.4053 2.36218 20.5516 2.50846C20.6979 2.65473 20.78 2.85313 20.78 3.06V7.71C20.7774 7.91513 20.6941 8.11097 20.5481 8.25509C20.4021 8.39921 20.2052 8.48002 20 8.48H15.27C15.1609 8.49242 15.0503 8.48164 14.9456 8.44836C14.8409 8.41508 14.7444 8.36005 14.6624 8.28688C14.5805 8.21371 14.5149 8.12406 14.47 8.02378C14.4251 7.9235 14.4019 7.81487 14.4019 7.705C14.4019 7.59513 14.4251 7.48649 14.47 7.38622C14.5149 7.28594 14.5805 7.19628 14.6624 7.12312C14.7444 7.04995 14.8409 6.99492 14.9456 6.96164C15.0503 6.92836 15.1609 6.91758 15.27 6.93H18.16C17.1805 5.88721 15.9355 5.13078 14.5587 4.74187C13.1818 4.35296 11.7251 4.34623 10.3447 4.72242C8.96433 5.0986 7.71242 5.8435 6.72328 6.8772C5.73413 7.9109 5.04508 9.1944 4.73004 10.59ZM21.06 13.31C20.9608 13.2881 20.8582 13.2864 20.7582 13.3049C20.6583 13.3234 20.5631 13.3618 20.4783 13.4177C20.3934 13.4737 20.3207 13.5461 20.2643 13.6306C20.2079 13.7152 20.1691 13.8102 20.15 13.91C19.8581 15.3354 19.1772 16.6521 18.1829 17.7142C17.1885 18.7764 15.9195 19.5425 14.5165 19.9277C13.1134 20.3129 11.6312 20.3021 10.2339 19.8965C8.83657 19.491 7.57884 18.7065 6.60004 17.63H9.60004C9.80691 17.63 10.0053 17.5478 10.1516 17.4015C10.2979 17.2553 10.38 17.0569 10.38 16.85C10.3801 16.748 10.3598 16.6471 10.3205 16.553C10.2812 16.4589 10.2236 16.3736 10.151 16.302C10.0784 16.2303 9.99236 16.1738 9.89778 16.1357C9.8032 16.0976 9.702 16.0787 9.60004 16.08H5.26004C5.15809 16.0787 5.05688 16.0976 4.9623 16.1357C4.86773 16.1738 4.78166 16.2303 4.70909 16.302C4.63653 16.3736 4.57892 16.4589 4.5396 16.553C4.50028 16.6471 4.48003 16.748 4.48004 16.85V21.35C4.46762 21.4592 4.4784 21.5697 4.51168 21.6744C4.54496 21.7791 4.59999 21.8756 4.67316 21.9576C4.74633 22.0396 4.83599 22.1052 4.93626 22.1501C5.03654 22.195 5.14517 22.2182 5.25504 22.2182C5.36491 22.2182 5.47355 22.195 5.57382 22.1501C5.6741 22.1052 5.76376 22.0396 5.83693 21.9576C5.91009 21.8756 5.96512 21.7791 5.9984 21.6744C6.03168 21.5697 6.04246 21.4592 6.03004 21.35V19.25C7.25436 20.3853 8.75845 21.1748 10.3882 21.5376C12.0181 21.9004 13.715 21.8235 15.3053 21.3148C16.8956 20.8061 18.3221 19.8838 19.4387 18.6424C20.5554 17.401 21.322 15.8851 21.66 14.25C21.6865 14.1487 21.6918 14.043 21.6755 13.9396C21.6592 13.8362 21.6217 13.7372 21.5654 13.6489C21.509 13.5607 21.4351 13.485 21.3481 13.4267C21.2611 13.3684 21.1631 13.3286 21.06 13.31Z" fill="black"/>
</svg>
