<svg width="24" height="24" viewBox="0 0 24 24" fill="none" xmlns="http://www.w3.org/2000/svg">
<path d="M22.5899 11.8V11.42C22.5381 10.0488 22.0977 8.72053 21.3199 7.59001C21.2122 7.43346 21.049 7.32366 20.8633 7.28282C20.6777 7.24198 20.4835 7.27314 20.3199 7.37001C20.2386 7.42005 20.168 7.48577 20.1124 7.56335C20.0567 7.64092 20.017 7.72879 19.9956 7.82186C19.9741 7.91492 19.9715 8.01131 19.9877 8.10542C20.0039 8.19953 20.0386 8.28947 20.0899 8.37001C20.6924 9.25925 21.0383 10.2972 21.0899 11.37V11.76C21.0899 13.1 21.0899 14.26 20.1399 15.03C19.9521 15.2006 19.7307 15.33 19.4899 15.41C19.4136 15.4204 19.3363 15.4204 19.2599 15.41H18.8199C17.8726 15.3299 16.9309 15.193 15.9999 15L14.8899 14.78C13.5947 14.5053 12.2455 14.6525 11.0399 15.2L10.8299 15.33C10.7433 15.3859 10.6531 15.436 10.5599 15.48H10.4999C10.3753 15.527 10.2431 15.5507 10.1099 15.55C9.77566 15.5617 9.44291 15.4996 9.13529 15.3683C8.82767 15.2369 8.55272 15.0395 8.32994 14.79C8.13829 14.5249 8.00907 14.2199 7.95192 13.8978C7.89478 13.5757 7.91119 13.2449 7.99994 12.93C8.03121 12.8098 8.03211 12.6836 8.00256 12.5629C7.97301 12.4422 7.91394 12.3308 7.83065 12.2386C7.74736 12.1464 7.64247 12.0763 7.5254 12.0346C7.40833 11.993 7.28275 11.9811 7.15994 12C6.51438 12.1071 5.85198 12.0416 5.23994 11.81C4.60533 11.6286 4.02947 11.2838 3.56994 10.81C2.36994 9.22001 3.33994 7.29001 4.74994 6.18001C5.52592 5.58452 6.38506 5.10609 7.29994 4.76002C7.39115 4.7267 7.4748 4.67551 7.54599 4.60946C7.61718 4.54341 7.67447 4.46382 7.71451 4.37535C7.75456 4.28688 7.77655 4.19131 7.7792 4.09424C7.78185 3.99716 7.7651 3.90054 7.72994 3.81001C7.69261 3.71619 7.63697 3.63074 7.56625 3.55866C7.49553 3.48658 7.41115 3.42932 7.31805 3.39021C7.22495 3.35111 7.12499 3.33096 7.02402 3.33092C6.92304 3.33089 6.82306 3.35098 6.72994 3.39001C5.67954 3.8039 4.69569 4.36996 3.80994 5.07001C1.80994 6.66002 0.649938 9.46001 2.35994 11.73C2.99596 12.4401 3.82174 12.9537 4.73994 13.21C5.28218 13.4076 5.85298 13.5157 6.42994 13.53C6.38381 14.3493 6.64001 15.1571 7.14994 15.8C7.50539 16.206 7.94364 16.5312 8.43522 16.7537C8.92681 16.9762 9.46034 17.0909 9.99994 17.09H10.1299H10.2499C10.4786 17.5613 10.8226 17.9672 11.2499 18.27C11.4699 18.42 11.7099 18.56 11.9399 18.7C12.6161 19.0326 13.2129 19.5067 13.6899 20.09C13.8599 20.36 13.9999 20.64 14.1399 20.92C14.2799 21.2 14.3499 21.32 14.4599 21.51C14.6752 21.9663 15.0239 22.3464 15.4599 22.6C15.6827 22.714 15.9297 22.7723 16.1799 22.77C16.4259 22.776 16.6693 22.7184 16.8866 22.6028C17.1038 22.4871 17.2875 22.3174 17.4199 22.11C17.5684 21.8273 17.6343 21.5084 17.6099 21.19V20.93C17.6099 20.35 17.5299 19.68 17.8499 19.39C17.9974 19.272 18.1509 19.1619 18.3099 19.06C18.7853 18.8036 19.1826 18.4235 19.4599 17.96C19.6407 17.623 19.7848 17.2677 19.8899 16.9C20.3102 16.7659 20.7007 16.552 21.0399 16.27C22.6499 15 22.6099 13.31 22.5899 11.8ZM18.1699 17.27C18.003 17.4949 17.7877 17.6795 17.5399 17.81C17.3039 17.9467 17.0827 18.1075 16.8799 18.29C16.5544 18.6529 16.3187 19.0872 16.1919 19.558C16.065 20.0287 16.0507 20.5227 16.1499 21V21.24C15.9937 21.1123 15.8674 20.9518 15.7799 20.77L15.4899 20.23C15.3341 19.886 15.1571 19.5521 14.9599 19.23C14.3654 18.4572 13.6073 17.8254 12.7399 17.38L12.1099 17C11.9374 16.8769 11.7912 16.7205 11.6799 16.54L11.7699 16.48C12.6636 16.1147 13.6474 16.031 14.5899 16.24L15.6699 16.45L17.0499 16.71L17.4699 16.78C17.7599 16.78 18.0399 16.87 18.3299 16.9L18.1699 17.27ZM7.56994 6.37001L9.32994 4.55001V2.14001C9.32994 1.9411 9.40896 1.75034 9.54961 1.60968C9.69026 1.46903 9.88103 1.39001 10.0799 1.39001C10.2789 1.39001 10.4696 1.46903 10.6103 1.60968C10.7509 1.75034 10.8299 1.9411 10.8299 2.14001V4.85001C10.8273 5.04052 10.7522 5.22286 10.6199 5.36001L8.74994 7.28001C8.93288 7.58151 9.02972 7.92736 9.02994 8.28001C9.02994 8.67558 8.91264 9.06226 8.69288 9.39116C8.47311 9.72005 8.16076 9.9764 7.7953 10.1278C7.42985 10.2791 7.02772 10.3188 6.63976 10.2416C6.25179 10.1644 5.89543 9.97393 5.61572 9.69423C5.33602 9.41452 5.14554 9.05816 5.06837 8.6702C4.9912 8.28223 5.0308 7.8801 5.18218 7.51465C5.33355 7.1492 5.5899 6.83684 5.9188 6.61708C6.2477 6.39731 6.63438 6.28001 7.02994 6.28001C7.21321 6.28512 7.39491 6.3154 7.56994 6.37001ZM12.0799 9.24001C12.2872 9.24232 12.4928 9.27604 12.6899 9.34001L13.3299 8.63001V2.14001C13.3299 1.9411 13.409 1.75034 13.5496 1.60968C13.6903 1.46903 13.881 1.39001 14.0799 1.39001C14.2789 1.39001 14.4696 1.46903 14.6103 1.60968C14.7509 1.75034 14.8299 1.9411 14.8299 2.14001V8.91001C14.8296 9.09127 14.7619 9.26593 14.6399 9.40001L13.8399 10.29C13.9962 10.5715 14.0788 10.888 14.0799 11.21C14.0799 11.6056 13.9626 11.9923 13.7429 12.3212C13.5231 12.6501 13.2108 12.9064 12.8453 13.0578C12.4799 13.2091 12.0777 13.2488 11.6898 13.1716C11.3018 13.0944 10.9454 12.9039 10.6657 12.6242C10.386 12.3445 10.1955 11.9882 10.1184 11.6002C10.0412 11.2122 10.0808 10.8101 10.2322 10.4446C10.3836 10.0792 10.6399 9.76684 10.9688 9.54708C11.2977 9.32731 11.6844 9.21001 12.0799 9.21001V9.24001ZM16.0799 12.19C16.0866 11.7974 16.2088 11.4155 16.431 11.0919C16.6533 10.7683 16.9659 10.5172 17.3299 10.37V2.14001C17.3299 1.9411 17.409 1.75034 17.5496 1.60968C17.6903 1.46903 17.881 1.39001 18.0799 1.39001C18.2788 1.39001 18.4696 1.46903 18.6103 1.60968C18.7509 1.75034 18.8299 1.9411 18.8299 2.14001V10.37C19.1939 10.5172 19.5066 10.7683 19.7288 11.0919C19.9511 11.4155 20.0732 11.7974 20.0799 12.19C20.0799 12.7204 19.8692 13.2292 19.4942 13.6042C19.1191 13.9793 18.6104 14.19 18.0799 14.19C17.5495 14.19 17.0408 13.9793 16.6657 13.6042C16.2907 13.2292 16.0799 12.7204 16.0799 12.19Z" fill="black"/>
</svg>
