<svg width="24" height="24" viewBox="0 0 24 24" fill="none" xmlns="http://www.w3.org/2000/svg">
<path d="M12 22.75C9.87386 22.75 7.79545 22.1195 6.02762 20.9383C4.2598 19.7571 2.88194 18.0782 2.0683 16.1139C1.25466 14.1495 1.04177 11.9881 1.45656 9.90278C1.87135 7.81749 2.89519 5.90202 4.39861 4.39861C5.90202 2.89519 7.81749 1.87135 9.90278 1.45656C11.9881 1.04177 14.1495 1.25466 16.1139 2.0683C18.0782 2.88194 19.7571 4.2598 20.9383 6.02762C22.1195 7.79545 22.75 9.87386 22.75 12C22.7474 14.8503 21.6139 17.583 19.5985 19.5985C17.583 21.6139 14.8503 22.7474 12 22.75ZM12 2.75C10.1705 2.75 8.38213 3.29251 6.86098 4.30891C5.33983 5.32531 4.15423 6.76997 3.45412 8.46018C2.75401 10.1504 2.57083 12.0103 2.92774 13.8046C3.28465 15.5989 4.16563 17.2471 5.45927 18.5407C6.7529 19.8344 8.40109 20.7154 10.1954 21.0723C11.9897 21.4292 13.8496 21.246 15.5398 20.5459C17.23 19.8458 18.6747 18.6602 19.6911 17.139C20.7075 15.6179 21.25 13.8295 21.25 12C21.2474 9.54756 20.272 7.19633 18.5378 5.46219C16.8037 3.72805 14.4524 2.75265 12 2.75ZM17.4 18.16H13.93C13.6871 18.1588 13.4487 18.094 13.2386 17.972C13.0285 17.85 12.8541 17.6751 12.7326 17.4646C12.6112 17.2542 12.5471 17.0156 12.5466 16.7727C12.5462 16.5297 12.6094 16.2909 12.73 16.08L14.47 13.08C14.5997 12.8798 14.7775 12.7153 14.9871 12.6014C15.1967 12.4874 15.4315 12.4278 15.67 12.4278C15.9086 12.4278 16.1433 12.4874 16.3529 12.6014C16.5625 12.7153 16.7403 12.8798 16.87 13.08L18.6 16.08C18.7206 16.2909 18.7838 16.5297 18.7834 16.7727C18.7829 17.0156 18.7188 17.2542 18.5974 17.4646C18.476 17.6751 18.3015 17.85 18.0914 17.972C17.8813 18.094 17.6429 18.1588 17.4 18.16ZM14.13 16.66H17.2L15.67 14L14.13 16.66ZM9.13 17.92H6.38C6.17677 17.9192 5.97732 17.865 5.80161 17.7629C5.62591 17.6607 5.48012 17.5142 5.37885 17.338C5.27758 17.1618 5.22439 16.9621 5.22459 16.7589C5.22479 16.5556 5.27839 16.356 5.38 16.18L10.95 6.54C11.0809 6.33987 11.2597 6.1755 11.4701 6.06174C11.6804 5.94798 11.9158 5.8884 12.155 5.8884C12.3942 5.8884 12.6296 5.94798 12.84 6.06174C13.0503 6.1755 13.2291 6.33987 13.36 6.54L14.54 8.60001C14.7855 9.0312 14.9146 9.51883 14.9146 10.015C14.9146 10.5112 14.7855 10.9988 14.54 11.43L11.61 16.51C11.3579 16.9386 10.9984 17.2941 10.567 17.5413C10.1356 17.7886 9.64724 17.9191 9.15 17.92H9.13ZM7 16.42H9.15C9.38417 16.4209 9.61449 16.3605 9.81802 16.2447C10.0215 16.1289 10.1912 15.9618 10.31 15.76L13.24 10.68C13.3577 10.4782 13.4198 10.2487 13.4198 10.015C13.4198 9.78134 13.3577 9.55186 13.24 9.35001L12.14 7.45L7 16.42Z" fill="black"/>
</svg>
