<svg width="24" height="24" viewBox="0 0 24 24" fill="none" xmlns="http://www.w3.org/2000/svg">
<path d="M20.6201 10.44C20.6136 9.79137 20.4376 9.15575 20.1096 8.59617C19.7815 8.03659 19.3129 7.57251 18.7501 7.24997L18.5601 7.13997V4.90997C18.5601 4.42539 18.4647 3.94556 18.2793 3.49787C18.0938 3.05018 17.822 2.64339 17.4794 2.30075C17.1367 1.9581 16.7299 1.6863 16.2822 1.50086C15.8346 1.31542 15.3547 1.21997 14.8701 1.21997H9.13014C8.15149 1.21997 7.21293 1.60874 6.52092 2.30075C5.82891 2.99276 5.44014 3.93132 5.44014 4.90997V7.18997L5.15014 7.35997C4.59231 7.69136 4.13085 8.16288 3.81158 8.72774C3.49232 9.2926 3.32634 9.93114 3.33014 10.58V16.29C3.33668 16.9386 3.51269 17.5742 3.84072 18.1338C4.16874 18.6933 4.63738 19.1574 5.20014 19.48L10.2001 22.3C10.7645 22.6246 11.4041 22.7955 12.0551 22.7955C12.7062 22.7955 13.3458 22.6246 13.9101 22.3L18.8201 19.4C19.3805 19.0706 19.8445 18.5998 20.1657 18.0347C20.4869 17.4695 20.6539 16.83 20.6501 16.18L20.6201 10.44ZM6.94014 4.90997C6.94014 4.32915 7.17087 3.77211 7.58158 3.36141C7.99228 2.9507 8.54932 2.71997 9.13014 2.71997H14.8701C15.451 2.71997 16.008 2.9507 16.4187 3.36141C16.8294 3.77211 17.0601 4.32915 17.0601 4.90997V6.28997L13.7801 4.42997C13.6375 4.35187 13.4906 4.28177 13.3401 4.21997C12.8859 4.05404 12.4033 3.97928 11.9201 3.99997C11.5989 3.99821 11.2791 4.04198 10.9701 4.12997C10.6539 4.21419 10.351 4.34209 10.0701 4.50997L6.94014 6.30997V4.90997ZM18.0801 18.08L13.1601 21C12.8308 21.1867 12.4587 21.2848 12.0801 21.2848C11.7016 21.2848 11.3295 21.1867 11.0001 21L6.00014 18.18C5.66528 17.9878 5.3866 17.7113 5.19186 17.3779C4.99711 17.0446 4.89308 16.666 4.89014 16.28V10.57C4.88133 10.1882 4.97157 9.8107 5.15209 9.47422C5.3326 9.13773 5.59721 8.85375 5.92014 8.64997L10.8301 5.75997C11.1668 5.56794 11.5476 5.46695 11.9351 5.46695C12.3227 5.46695 12.7035 5.56794 13.0401 5.75997L18.0401 8.56997C18.375 8.76212 18.6537 9.03864 18.8484 9.372C19.0432 9.70535 19.1472 10.0839 19.1501 10.47L19.2001 16.18C19.1972 16.5672 19.0921 16.9468 18.8954 17.2805C18.6988 17.6141 18.4175 17.8899 18.0801 18.08Z" fill="black"/>
<path d="M13.39 17.24C13.1098 17.239 12.8345 17.1668 12.59 17.03L12.07 16.76C12.0091 16.735 11.9409 16.735 11.88 16.76L11.36 17.04C11.0768 17.1842 10.759 17.2466 10.4424 17.2202C10.1257 17.1939 9.8226 17.0798 9.56713 16.8908C9.31166 16.7018 9.11392 16.4453 8.99608 16.1502C8.87824 15.8551 8.84497 15.533 8.9 15.22L9 14.64C9.01488 14.6123 9.02267 14.5814 9.02267 14.55C9.02267 14.5186 9.01488 14.4876 9 14.46L8.53 14C8.30106 13.7804 8.13982 13.4998 8.06539 13.1914C7.99095 12.8831 8.00644 12.5598 8.11 12.26C8.20866 11.9579 8.39047 11.6898 8.63456 11.4864C8.87865 11.283 9.17514 11.1526 9.49 11.11L10.08 11.03C10.1118 11.0244 10.1418 11.0116 10.1678 10.9925C10.1939 10.9734 10.2151 10.9486 10.23 10.92L10.49 10.39C10.6354 10.117 10.8533 9.88948 11.1197 9.73245C11.3862 9.57541 11.6908 9.49497 12 9.49998C12.3175 9.49748 12.629 9.58551 12.8983 9.75377C13.1675 9.92202 13.3831 10.1635 13.52 10.45L13.78 10.98C13.7943 11.01 13.8152 11.0364 13.8412 11.0572C13.8672 11.078 13.8976 11.0926 13.93 11.1L14.51 11.18C14.8242 11.2275 15.1188 11.3622 15.3604 11.5687C15.6019 11.7753 15.7807 12.0454 15.8765 12.3484C15.9723 12.6514 15.9813 12.9752 15.9023 13.283C15.8234 13.5909 15.6598 13.8704 15.43 14.09L15 14.5C14.9759 14.5227 14.9578 14.551 14.9473 14.5824C14.9368 14.6138 14.9343 14.6474 14.94 14.68L15.04 15.26C15.0822 15.505 15.0704 15.7564 15.0055 15.9964C14.9406 16.2364 14.8241 16.4594 14.6641 16.6498C14.5042 16.8402 14.3046 16.9935 14.0794 17.0989C13.8542 17.2042 13.6087 17.2592 13.36 17.26L13.39 17.24ZM11.97 15.24C12.2489 15.2408 12.5235 15.3094 12.77 15.44L13.29 15.72C13.3231 15.7403 13.3612 15.7511 13.4 15.7511C13.4388 15.7511 13.4769 15.7403 13.51 15.72C13.5394 15.6963 13.5621 15.6655 13.5762 15.6304C13.5902 15.5954 13.5949 15.5574 13.59 15.52L13.49 14.94C13.4465 14.6682 13.4692 14.3899 13.5562 14.1287C13.6433 13.8676 13.7921 13.6313 13.99 13.44L14.42 13.03C14.4457 13.0022 14.4638 12.9683 14.4725 12.9315C14.4813 12.8947 14.4804 12.8563 14.47 12.82C14.4587 12.7852 14.4375 12.7544 14.4092 12.7314C14.3808 12.7083 14.3464 12.6939 14.31 12.69L13.72 12.6C13.4486 12.5562 13.1916 12.448 12.9707 12.2844C12.7497 12.1209 12.5712 11.9067 12.45 11.66L12.19 11.13C12.19 11.03 12.05 10.98 12.01 11.02C11.9722 11.017 11.9345 11.0261 11.9022 11.0458C11.8699 11.0656 11.8446 11.095 11.83 11.13L11.57 11.65C11.4472 11.8976 11.2653 12.1111 11.0403 12.2716C10.8153 12.4321 10.5541 12.5346 10.28 12.57L9.7 12.65C9.66148 12.6553 9.6252 12.6712 9.59518 12.6959C9.56516 12.7206 9.5426 12.7532 9.53 12.79C9.52052 12.8264 9.52012 12.8646 9.52884 12.9012C9.53755 12.9378 9.55512 12.9717 9.58 13L10 13.41C10.1966 13.6038 10.343 13.8425 10.4267 14.1056C10.5103 14.3687 10.5286 14.6482 10.48 14.92L10.38 15.5C10.3739 15.5367 10.3782 15.5743 10.3923 15.6087C10.4064 15.6431 10.4299 15.6729 10.46 15.6947C10.4901 15.7166 10.5257 15.7295 10.5628 15.7322C10.5999 15.7349 10.637 15.7272 10.67 15.71L11.19 15.44C11.4392 15.3059 11.717 15.2338 12 15.23L11.97 15.24Z" fill="black"/>
</svg>
