<svg width="24" height="24" viewBox="0 0 24 24" fill="none" xmlns="http://www.w3.org/2000/svg">
<path d="M7.77021 22.75C7.38564 22.7522 7.00692 22.6558 6.67021 22.47C4.50696 21.2773 2.73032 19.4902 1.55021 17.32C1.30276 16.8884 1.20395 16.3875 1.269 15.8942C1.33404 15.401 1.55933 14.9428 1.91021 14.59L14.5902 1.91004C14.9507 1.54984 15.4219 1.32143 15.928 1.26157C16.4341 1.20171 16.9456 1.31388 17.3802 1.58004C19.4507 2.80401 21.1857 4.52185 22.4302 6.58004C22.6876 7.01267 22.7939 7.51857 22.7323 8.0182C22.6708 8.51782 22.4449 8.98281 22.0902 9.34004L9.37021 22.09C9.15996 22.2998 8.91044 22.466 8.6359 22.5793C8.36136 22.6925 8.06719 22.7505 7.77021 22.75ZM7.39021 21.15C7.53887 21.229 7.70933 21.2572 7.87549 21.2301C8.04165 21.203 8.19435 21.1222 8.31021 21L21.0002 8.31004C21.1206 8.18796 21.1968 8.02921 21.2167 7.85893C21.2366 7.68866 21.1991 7.51661 21.1102 7.37004C19.995 5.51555 18.4345 3.9688 16.5702 2.87004C16.4192 2.76418 16.2352 2.71605 16.0516 2.7344C15.8681 2.75276 15.6973 2.83637 15.5702 2.97004L3.00021 15.65C2.88267 15.7735 2.80764 15.9313 2.78606 16.1004C2.76447 16.2695 2.79746 16.441 2.88021 16.59C3.92655 18.5128 5.50211 20.0953 7.42021 21.15H7.39021ZM15.9302 11.62C15.7895 11.7576 15.6113 11.8507 15.4179 11.8874C15.2246 11.9242 15.0246 11.9031 14.8432 11.8268C14.6618 11.7504 14.507 11.6222 14.3981 11.4583C14.2892 11.2943 14.2311 11.1019 14.2311 10.905C14.2311 10.7082 14.2892 10.5158 14.3981 10.3518C14.507 10.1878 14.6618 10.0597 14.8432 9.98332C15.0246 9.90698 15.2246 9.88588 15.4179 9.92265C15.6113 9.95942 15.7895 10.0524 15.9302 10.19C16.0255 10.2832 16.1011 10.3944 16.1528 10.5172C16.2045 10.64 16.2311 10.7718 16.2311 10.905C16.2311 11.0383 16.2045 11.1701 16.1528 11.2929C16.1011 11.4157 16.0255 11.5269 15.9302 11.62ZM13.7902 8.05004C13.6495 7.91243 13.4713 7.81942 13.2779 7.78265C13.0846 7.74587 12.8846 7.76698 12.7032 7.84332C12.5218 7.91966 12.367 8.04784 12.2581 8.2118C12.1492 8.37577 12.0911 8.56821 12.0911 8.76504C12.0911 8.96187 12.1492 9.15431 12.2581 9.31827C12.367 9.48223 12.5218 9.61042 12.7032 9.68676C12.8846 9.7631 13.0846 9.7842 13.2779 9.74743C13.4713 9.71066 13.6495 9.61765 13.7902 9.48004C13.8855 9.38691 13.9611 9.27569 14.0128 9.1529C14.0645 9.03012 14.0911 8.89825 14.0911 8.76504C14.0911 8.63183 14.0645 8.49996 14.0128 8.37718C13.9611 8.25439 13.8855 8.14317 13.7902 8.05004ZM13.7902 12.33C13.6495 12.1924 13.4713 12.0994 13.2779 12.0626C13.0846 12.0259 12.8846 12.047 12.7032 12.1233C12.5218 12.1997 12.367 12.3278 12.2581 12.4918C12.1492 12.6558 12.0911 12.8482 12.0911 13.045C12.0911 13.2419 12.1492 13.4343 12.2581 13.5983C12.367 13.7622 12.5218 13.8904 12.7032 13.9668C12.8846 14.0431 13.0846 14.0642 13.2779 14.0274C13.4713 13.9907 13.6495 13.8976 13.7902 13.76C13.8855 13.6669 13.9611 13.5557 14.0128 13.4329C14.0645 13.3101 14.0911 13.1783 14.0911 13.045C14.0911 12.9118 14.0645 12.78 14.0128 12.6572C13.9611 12.5344 13.8855 12.4232 13.7902 12.33ZM11.6502 10.19C11.5095 10.0524 11.3313 9.95942 11.1379 9.92265C10.9446 9.88588 10.7446 9.90698 10.5632 9.98332C10.3818 10.0597 10.227 10.1878 10.1181 10.3518C10.0092 10.5158 9.95109 10.7082 9.95109 10.905C9.95109 11.1019 10.0092 11.2943 10.1181 11.4583C10.227 11.6222 10.3818 11.7504 10.5632 11.8268C10.7446 11.9031 10.9446 11.9242 11.1379 11.8874C11.3313 11.8507 11.5095 11.7576 11.6502 11.62C11.7455 11.5269 11.8211 11.4157 11.8728 11.2929C11.9245 11.1701 11.9511 11.0383 11.9511 10.905C11.9511 10.7718 11.9245 10.64 11.8728 10.5172C11.8211 10.3944 11.7455 10.2832 11.6502 10.19ZM11.6502 14.47C11.5095 14.3324 11.3313 14.2394 11.1379 14.2026C10.9446 14.1659 10.7446 14.187 10.5632 14.2633C10.3818 14.3397 10.227 14.4678 10.1181 14.6318C10.0092 14.7958 9.95109 14.9882 9.95109 15.185C9.95109 15.3819 10.0092 15.5743 10.1181 15.7383C10.227 15.9022 10.3818 16.0304 10.5632 16.1068C10.7446 16.1831 10.9446 16.2042 11.1379 16.1674C11.3313 16.1307 11.5095 16.0376 11.6502 15.9C11.7455 15.8069 11.8211 15.6957 11.8728 15.5729C11.9245 15.4501 11.9511 15.3183 11.9511 15.185C11.9511 15.0518 11.9245 14.92 11.8728 14.7972C11.8211 14.6744 11.7455 14.5632 11.6502 14.47ZM9.51021 12.33C9.36948 12.1924 9.19127 12.0994 8.99791 12.0626C8.80455 12.0259 8.60464 12.047 8.42323 12.1233C8.24181 12.1997 8.08695 12.3278 7.97806 12.4918C7.86917 12.6558 7.81109 12.8482 7.81109 13.045C7.81109 13.2419 7.86917 13.4343 7.97806 13.5983C8.08695 13.7622 8.24181 13.8904 8.42323 13.9668C8.60464 14.0431 8.80455 14.0642 8.99791 14.0274C9.19127 13.9907 9.36948 13.8976 9.51021 13.76C9.60546 13.6669 9.68114 13.5557 9.73281 13.4329C9.78447 13.3101 9.81109 13.1783 9.81109 13.045C9.81109 12.9118 9.78447 12.78 9.73281 12.6572C9.68114 12.5344 9.60546 12.4232 9.51021 12.33Z" fill="black"/>
</svg>
