<svg width="24" height="25" viewBox="0 0 24 25" fill="none" xmlns="http://www.w3.org/2000/svg">
<path d="M18.3602 20.4H16.8302C16.3996 20.3974 15.9876 20.2245 15.6841 19.9191C15.3806 19.6137 15.2102 19.2006 15.2102 18.77V10.61H14.3802V18.77C14.3815 18.9836 14.3406 19.1953 14.2598 19.393C14.179 19.5907 14.0598 19.7705 13.9093 19.922C13.7587 20.0735 13.5797 20.1937 13.3825 20.2757C13.1853 20.3578 12.9738 20.4 12.7602 20.4H11.2402C11.0266 20.4 10.8151 20.3578 10.6179 20.2757C10.4207 20.1937 10.2417 20.0735 10.0911 19.922C9.94058 19.7705 9.82146 19.5907 9.74064 19.393C9.65982 19.1953 9.61889 18.9836 9.62021 18.77V10.61H8.67021V18.77C8.67028 18.9875 8.62683 19.2027 8.54242 19.4031C8.45802 19.6036 8.33436 19.7851 8.17874 19.937C8.02312 20.0888 7.83868 20.2081 7.63628 20.2876C7.43387 20.3671 7.21761 20.4053 7.00021 20.4H5.52021C5.30662 20.4 5.09515 20.3578 4.89794 20.2757C4.70074 20.1937 4.52171 20.0735 4.37115 19.922C4.22058 19.7705 4.10147 19.5907 4.02064 19.393C3.93982 19.1953 3.89889 18.9836 3.90021 18.77V10.61H3.41021C2.95119 10.6302 2.4982 10.4994 2.12069 10.2374C1.74318 9.97553 1.46198 9.59704 1.32021 9.15999C1.22377 8.77845 1.25575 8.37576 1.41121 8.01422C1.56667 7.65269 1.83694 7.35246 2.18021 7.15999L9.91021 2.33999C10.5392 1.95455 11.2625 1.75055 12.0002 1.75055C12.7379 1.75055 13.4612 1.95455 14.0902 2.33999L21.8202 7.10999C22.1736 7.30473 22.4509 7.61318 22.607 7.9853C22.7631 8.35742 22.7889 8.77137 22.6802 9.15999C22.5384 9.59704 22.2572 9.97553 21.8797 10.2374C21.5022 10.4994 21.0492 10.6302 20.5902 10.61H20.0002V18.77C20.0002 18.9849 19.9577 19.1977 19.8752 19.3961C19.7926 19.5945 19.6717 19.7746 19.5193 19.9261C19.3668 20.0776 19.186 20.1975 18.9871 20.2788C18.7881 20.3601 18.5751 20.4013 18.3602 20.4ZM13.6302 9.10999H16.0002C16.0991 9.10865 16.1972 9.12713 16.2888 9.16434C16.3804 9.20156 16.4636 9.25675 16.5335 9.32666C16.6035 9.39658 16.6586 9.47979 16.6959 9.5714C16.7331 9.663 16.7516 9.76113 16.7502 9.85999V18.77C16.7501 18.8028 16.7624 18.8344 16.7847 18.8586C16.8069 18.8827 16.8375 18.8975 16.8702 18.9H18.4002C18.4168 18.9 18.4333 18.8966 18.4486 18.89C18.4638 18.8834 18.4775 18.8736 18.4888 18.8614C18.5001 18.8492 18.5087 18.8347 18.5141 18.819C18.5195 18.8033 18.5216 18.7866 18.5202 18.77V9.85999C18.5202 9.66108 18.5992 9.47031 18.7399 9.32966C18.8805 9.18901 19.0713 9.10999 19.2702 9.10999H20.6302C21.0102 9.10999 21.2302 8.92999 21.2802 8.74999C21.3302 8.56999 21.2802 8.48999 21.0702 8.37999L13.3002 3.61999C12.9109 3.37489 12.4602 3.24484 12.0002 3.24484C11.5402 3.24484 11.0895 3.37489 10.7002 3.61999L3.00021 8.37999C2.82021 8.48999 2.75021 8.60999 2.79021 8.74999C2.83021 8.88999 3.06021 9.10999 3.44021 9.10999H4.65021C4.84912 9.10999 5.03989 9.18901 5.18054 9.32966C5.32119 9.47031 5.40021 9.66108 5.40021 9.85999V18.77C5.39882 18.7866 5.4009 18.8033 5.40631 18.819C5.41171 18.8347 5.42033 18.8492 5.43162 18.8614C5.4429 18.8736 5.4566 18.8834 5.47186 18.89C5.48711 18.8966 5.50357 18.9 5.52021 18.9H7.00021C7.03469 18.9 7.06775 18.8863 7.09213 18.8619C7.11651 18.8375 7.13021 18.8045 7.13021 18.77V9.85999C7.12887 9.76113 7.14735 9.663 7.18456 9.5714C7.22178 9.47979 7.27697 9.39658 7.34688 9.32666C7.4168 9.25675 7.50001 9.20156 7.59161 9.16434C7.68322 9.12713 7.78135 9.10865 7.88021 9.10999H10.3302C10.5291 9.10999 10.7199 9.18901 10.8605 9.32966C11.0012 9.47031 11.0802 9.66108 11.0802 9.85999V18.77C11.0788 18.7866 11.0809 18.8033 11.0863 18.819C11.0917 18.8347 11.1003 18.8492 11.1116 18.8614C11.1229 18.8736 11.1366 18.8834 11.1519 18.89C11.1671 18.8966 11.1836 18.9 11.2002 18.9H12.7202C12.7368 18.9 12.7533 18.8966 12.7686 18.89C12.7838 18.8834 12.7975 18.8736 12.8088 18.8614C12.8201 18.8492 12.8287 18.8347 12.8341 18.819C12.8395 18.8033 12.8416 18.7866 12.8402 18.77V9.85999C12.8401 9.75804 12.8607 9.65713 12.9009 9.56343C12.941 9.46973 12.9999 9.3852 13.0738 9.315C13.1478 9.24481 13.2352 9.19043 13.3309 9.15518C13.4266 9.11993 13.5284 9.10455 13.6302 9.10999ZM22.0002 22.52C22.0002 22.3211 21.9212 22.1303 21.7805 21.9897C21.6399 21.849 21.4491 21.77 21.2502 21.77H2.39021C2.1913 21.77 2.00053 21.849 1.85988 21.9897C1.71923 22.1303 1.64021 22.3211 1.64021 22.52C1.64021 22.7189 1.71923 22.9097 1.85988 23.0503C2.00053 23.191 2.1913 23.27 2.39021 23.27H21.2402C21.4401 23.27 21.6319 23.1913 21.7741 23.0509C21.9164 22.9106 21.9976 22.7198 22.0002 22.52Z" fill="black"/>
</svg>
