<svg width="24" height="24" viewBox="0 0 24 24" fill="none" xmlns="http://www.w3.org/2000/svg">
<path d="M6.30998 16.42C6.21065 16.4213 6.11205 16.4029 6.0199 16.3658C5.92774 16.3287 5.84388 16.2737 5.77317 16.2039C5.70247 16.1341 5.64633 16.051 5.60801 15.9593C5.5697 15.8677 5.54997 15.7693 5.54998 15.67V8C5.53771 7.89355 5.54809 7.78572 5.58043 7.68356C5.61277 7.58141 5.66635 7.48725 5.73764 7.40727C5.80894 7.32728 5.89634 7.26327 5.99412 7.21945C6.09189 7.17562 6.19783 7.15296 6.30498 7.15296C6.41213 7.15296 6.51807 7.17562 6.61584 7.21945C6.71362 7.26327 6.80102 7.32728 6.87232 7.40727C6.94361 7.48725 6.99719 7.58141 7.02953 7.68356C7.06188 7.78572 7.07225 7.89355 7.05998 8V15.7C7.05223 15.8937 6.9698 16.0768 6.82998 16.211C6.69016 16.3453 6.5038 16.4202 6.30998 16.42ZM10.07 9.29V8C10.0823 7.89355 10.0719 7.78572 10.0395 7.68356C10.0072 7.58141 9.95361 7.48725 9.88232 7.40727C9.81102 7.32728 9.72362 7.26327 9.62584 7.21945C9.52807 7.17562 9.42213 7.15296 9.31498 7.15296C9.20783 7.15296 9.10189 7.17562 9.00412 7.21945C8.90634 7.26327 8.81894 7.32728 8.74764 7.40727C8.67635 7.48725 8.62277 7.58141 8.59043 7.68356C8.55809 7.78572 8.54771 7.89355 8.55998 8V9.29C8.58134 9.47526 8.67007 9.64621 8.80929 9.7703C8.9485 9.89439 9.12849 9.96296 9.31498 9.96296C9.50147 9.96296 9.68146 9.89439 9.82067 9.7703C9.95989 9.64621 10.0486 9.47526 10.07 9.29ZM10.07 15.67V11.82C10.0823 11.7136 10.0719 11.6057 10.0395 11.5036C10.0072 11.4014 9.95361 11.3073 9.88232 11.2273C9.81102 11.1473 9.72362 11.0833 9.62584 11.0394C9.52807 10.9956 9.42213 10.973 9.31498 10.973C9.20783 10.973 9.10189 10.9956 9.00412 11.0394C8.90634 11.0833 8.81894 11.1473 8.74764 11.2273C8.67635 11.3073 8.62277 11.4014 8.59043 11.5036C8.55809 11.6057 8.54771 11.7136 8.55998 11.82V15.67C8.58134 15.8553 8.67007 16.0262 8.80929 16.1503C8.9485 16.2744 9.12849 16.343 9.31498 16.343C9.50147 16.343 9.68146 16.2744 9.82067 16.1503C9.95989 16.0262 10.0486 15.8553 10.07 15.67ZM16.07 15.45V14.12C16.0486 13.9347 15.9599 13.7638 15.8207 13.6397C15.6815 13.5156 15.5015 13.447 15.315 13.447C15.1285 13.447 14.9485 13.5156 14.8093 13.6397C14.6701 13.7638 14.5813 13.9347 14.56 14.12V15.45C14.5813 15.6353 14.6701 15.8062 14.8093 15.9303C14.9485 16.0544 15.1285 16.123 15.315 16.123C15.5015 16.123 15.6815 16.0544 15.8207 15.9303C15.9599 15.8062 16.0486 15.6353 16.07 15.45ZM16.07 11.6V7.74C16.0486 7.55473 15.9599 7.38378 15.8207 7.25969C15.6815 7.1356 15.5015 7.06703 15.315 7.06703C15.1285 7.06703 14.9485 7.1356 14.8093 7.25969C14.6701 7.38378 14.5813 7.55473 14.56 7.74V11.6C14.5813 11.7853 14.6701 11.9562 14.8093 12.0803C14.9485 12.2044 15.1285 12.273 15.315 12.273C15.5015 12.273 15.6815 12.2044 15.8207 12.0803C15.9599 11.9562 16.0486 11.7853 16.07 11.6ZM13.07 15.67V8C13.0823 7.89355 13.0719 7.78572 13.0395 7.68356C13.0072 7.58141 12.9536 7.48725 12.8823 7.40727C12.811 7.32728 12.7236 7.26327 12.6258 7.21945C12.5281 7.17562 12.4221 7.15296 12.315 7.15296C12.2078 7.15296 12.1019 7.17562 12.0041 7.21945C11.9063 7.26327 11.8189 7.32728 11.7476 7.40727C11.6763 7.48725 11.6228 7.58141 11.5904 7.68356C11.5581 7.78572 11.5477 7.89355 11.56 8V15.7C11.5813 15.8853 11.6701 16.0562 11.8093 16.1803C11.9485 16.3044 12.1285 16.373 12.315 16.373C12.5015 16.373 12.6815 16.3044 12.8207 16.1803C12.9599 16.0562 13.0486 15.8853 13.07 15.7V15.67ZM19.07 15.67V8C19.07 7.80108 18.991 7.61032 18.8503 7.46967C18.7097 7.32901 18.5189 7.25 18.32 7.25C18.1211 7.25 17.9303 7.32901 17.7896 7.46967C17.649 7.61032 17.57 7.80108 17.57 8V15.7C17.57 15.8989 17.649 16.0897 17.7896 16.2303C17.9303 16.371 18.1211 16.45 18.32 16.45C18.5189 16.45 18.7097 16.371 18.8503 16.2303C18.991 16.0897 19.07 15.8989 19.07 15.7V15.67ZM22.73 14.76V9.24C22.7273 7.61768 22.0817 6.06257 20.9346 4.91542C19.7874 3.76827 18.2323 3.12264 16.61 3.12H7.34998C5.72767 3.12264 4.17256 3.76827 3.02541 4.91542C1.87826 6.06257 1.23262 7.61768 1.22998 9.24V14.76C1.23262 16.3823 1.87826 17.9374 3.02541 19.0846C4.17256 20.2317 5.72767 20.8773 7.34998 20.88H16.63C18.2523 20.8773 19.8074 20.2317 20.9546 19.0846C22.1017 17.9374 22.7473 16.3823 22.75 14.76H22.73ZM16.63 4.63C17.8518 4.63264 19.0229 5.11918 19.8868 5.98315C20.7508 6.84712 21.2373 8.01816 21.24 9.24V14.76C21.2373 15.9818 20.7508 17.1529 19.8868 18.0168C19.0229 18.8808 17.8518 19.3674 16.63 19.37H7.34998C6.12814 19.3674 4.95711 18.8808 4.09314 18.0168C3.22917 17.1529 2.74262 15.9818 2.73998 14.76V9.24C2.74262 8.01816 3.22917 6.84712 4.09314 5.98315C4.95711 5.11918 6.12814 4.63264 7.34998 4.63H16.63Z" fill="black"/>
</svg>
