<svg width="24" height="24" viewBox="0 0 24 24" fill="none" xmlns="http://www.w3.org/2000/svg">
<path d="M22.75 7C22.7665 6.23196 22.4816 5.488 21.9565 4.92732C21.4313 4.36665 20.7075 4.0338 19.94 4H18L16.6 1.69C16.497 1.52817 16.3351 1.41268 16.1486 1.36791C15.962 1.32313 15.7653 1.35257 15.6 1.45C15.4315 1.56934 15.3142 1.74788 15.2715 1.94995C15.2289 2.15202 15.2641 2.36274 15.37 2.54L16.26 4H7.74005L8.62005 2.56C8.72602 2.38274 8.7612 2.17202 8.71856 1.96995C8.67592 1.76788 8.5586 1.58934 8.39005 1.47C8.3089 1.41914 8.21843 1.38498 8.12392 1.36952C8.0294 1.35406 7.93276 1.3576 7.83964 1.37995C7.74651 1.4023 7.65878 1.44301 7.58159 1.49968C7.50439 1.55635 7.43927 1.62786 7.39005 1.71L6.00005 3.92H4.06005C3.67296 3.93668 3.29298 4.0297 2.94196 4.19373C2.59094 4.35775 2.27581 4.58954 2.01467 4.87576C1.75354 5.16199 1.55155 5.49701 1.42033 5.86156C1.28911 6.22612 1.23124 6.61301 1.25005 7C1.2234 7.66944 1.42161 8.32853 1.81307 8.87223C2.20454 9.41593 2.76673 9.81294 3.41005 10L4.83005 19.24C4.96498 20.2128 5.44136 21.106 6.1741 21.76C6.90684 22.4139 7.84821 22.7861 8.83005 22.81H15.3C16.2915 22.786 17.2413 22.4061 17.9758 21.7396C18.7102 21.0731 19.1803 20.1645 19.3 19.18L20.6 9.94C21.2313 9.75366 21.7838 9.3649 22.1723 8.83362C22.5608 8.30234 22.7638 7.65804 22.75 7ZM17.75 18.89C17.6772 19.5091 17.3869 20.0821 16.9309 20.5071C16.4748 20.932 15.8827 21.1811 15.26 21.21H8.79005C8.17043 21.1818 7.58071 20.9355 7.12508 20.5147C6.66946 20.0938 6.37723 19.5254 6.30005 18.91L4.94005 10H19.06L17.75 18.89ZM19.9 8.49H4.06005C3.68944 8.46431 3.34395 8.29339 3.09865 8.01439C2.85336 7.73539 2.72808 7.37085 2.75005 7C2.73644 6.81474 2.75958 6.62862 2.81812 6.45232C2.87667 6.27603 2.96947 6.11304 3.0912 5.97273C3.21294 5.83241 3.36119 5.71753 3.52746 5.63469C3.69372 5.55185 3.87472 5.50268 4.06005 5.49H19.94C20.1254 5.50268 20.3064 5.55185 20.4726 5.63469C20.6389 5.71753 20.7872 5.83241 20.9089 5.97273C21.0306 6.11304 21.1234 6.27603 21.182 6.45232C21.2405 6.62862 21.2637 6.81474 21.25 7C21.2639 7.36581 21.135 7.72267 20.8905 7.99513C20.6461 8.2676 20.3052 8.43431 19.94 8.46L19.9 8.49ZM9.43005 15.85C9.2909 15.6987 9.21368 15.5006 9.21368 15.295C9.21368 15.0894 9.2909 14.8913 9.43005 14.74C9.49749 14.6667 9.57941 14.6081 9.67064 14.5681C9.76187 14.528 9.86042 14.5073 9.96005 14.5073C10.0597 14.5073 10.1582 14.528 10.2495 14.5681C10.3407 14.6081 10.4226 14.6667 10.49 14.74L11.71 16L14.82 13C14.8916 12.9311 14.9765 12.8775 15.0695 12.8425C15.1624 12.8076 15.2616 12.792 15.3608 12.7966C15.4601 12.8013 15.5573 12.8262 15.6466 12.8698C15.7358 12.9133 15.8153 12.9747 15.88 13.05C16.0155 13.2082 16.0856 13.4119 16.0764 13.6199C16.0671 13.8279 15.979 14.0245 15.83 14.17L12.19 17.65C12.0498 17.7761 11.8686 17.8472 11.68 17.85C11.5809 17.8486 11.483 17.8276 11.392 17.7881C11.301 17.7486 11.2188 17.6915 11.15 17.62L9.43005 15.85Z" fill="black"/>
</svg>
