<svg width="24" height="24" viewBox="0 0 24 24" fill="none" xmlns="http://www.w3.org/2000/svg">
<path d="M22.75 6.99998C22.7665 6.23194 22.4816 5.48798 21.9565 4.9273C21.4313 4.36662 20.7075 4.03377 19.94 3.99998H18L16.6 1.68998C16.497 1.52814 16.3351 1.41266 16.1486 1.36788C15.962 1.32311 15.7653 1.35254 15.6 1.44998C15.4315 1.56932 15.3142 1.74786 15.2715 1.94993C15.2289 2.152 15.2641 2.36272 15.37 2.53998L16.26 3.99998H7.73005L8.62005 2.55998C8.68537 2.46973 8.73161 2.36712 8.75596 2.25841C8.78031 2.14969 8.78225 2.03716 8.76166 1.92767C8.74107 1.81818 8.69839 1.71404 8.63622 1.62159C8.57404 1.52915 8.49369 1.45034 8.40005 1.38998C8.23663 1.28905 8.04001 1.25659 7.85282 1.29964C7.66563 1.3427 7.50295 1.45779 7.40005 1.61998L5.94005 3.91998H4.06005C3.67296 3.93666 3.29298 4.02968 2.94196 4.1937C2.59094 4.35773 2.27581 4.58951 2.01467 4.87574C1.75354 5.16197 1.55155 5.49699 1.42033 5.86154C1.28911 6.22609 1.23124 6.61299 1.25005 6.99998C1.2234 7.66941 1.42161 8.3285 1.81307 8.8722C2.20454 9.4159 2.76673 9.81292 3.41005 9.99998L4.83005 19.24C4.96498 20.2128 5.44136 21.106 6.1741 21.7599C6.90684 22.4139 7.84821 22.7861 8.83005 22.81H15.3C16.2915 22.786 17.2413 22.4061 17.9758 21.7396C18.7102 21.0731 19.1803 20.1645 19.3 19.18L20.62 9.99998C21.2578 9.8074 21.8133 9.40803 22.1989 8.86484C22.5846 8.32165 22.7785 7.66555 22.75 6.99998ZM17.75 18.9C17.677 19.518 17.3863 20.0899 16.9301 20.5131C16.4738 20.9364 15.8818 21.1834 15.26 21.21H8.79005C8.17043 21.1818 7.58071 20.9355 7.12508 20.5146C6.66946 20.0938 6.37723 19.5254 6.30005 18.91L4.94005 9.99998H19.06L17.75 18.9ZM19.94 8.45998H4.06005C3.69489 8.43428 3.35403 8.26757 3.10956 7.99511C2.86509 7.72265 2.73616 7.36578 2.75005 6.99998C2.73644 6.81472 2.75958 6.62859 2.81812 6.4523C2.87667 6.27601 2.96947 6.11302 3.0912 5.9727C3.21294 5.83239 3.36119 5.71751 3.52746 5.63467C3.69372 5.55183 3.87472 5.50266 4.06005 5.48998H19.94C20.1254 5.50266 20.3064 5.55183 20.4726 5.63467C20.6389 5.71751 20.7872 5.83239 20.9089 5.9727C21.0306 6.11302 21.1234 6.27601 21.182 6.4523C21.2405 6.62859 21.2637 6.81472 21.25 6.99998C21.2639 7.36578 21.135 7.72265 20.8905 7.99511C20.6461 8.26757 20.3052 8.43428 19.94 8.45998ZM8.94005 17.1V13.31C8.94005 13.1111 9.01907 12.9203 9.15972 12.7797C9.30037 12.639 9.49114 12.56 9.69005 12.56C9.88896 12.56 10.0797 12.639 10.2204 12.7797C10.361 12.9203 10.44 13.1111 10.44 13.31V17.1C10.44 17.2989 10.361 17.4897 10.2204 17.6303C10.0797 17.771 9.88896 17.85 9.69005 17.85C9.49114 17.85 9.30037 17.771 9.15972 17.6303C9.01907 17.4897 8.94005 17.2989 8.94005 17.1ZM13.59 17.1V13.31C13.59 13.1111 13.6691 12.9203 13.8097 12.7797C13.9504 12.639 14.1411 12.56 14.34 12.56C14.539 12.56 14.7297 12.639 14.8704 12.7797C15.011 12.9203 15.09 13.1111 15.09 13.31V17.1C15.09 17.2989 15.011 17.4897 14.8704 17.6303C14.7297 17.771 14.539 17.85 14.34 17.85C14.1411 17.85 13.9504 17.771 13.8097 17.6303C13.6691 17.4897 13.59 17.2989 13.59 17.1Z" fill="black"/>
</svg>
