<svg width="24" height="24" viewBox="0 0 24 24" fill="none" xmlns="http://www.w3.org/2000/svg">
<path d="M22.0001 13.6299C22.0001 13.3299 21.9001 13.0299 21.9001 12.8299C21.8336 12.147 21.5925 11.4927 21.2001 10.9299C20.7895 10.3642 20.2379 9.91599 19.6001 9.6299C18.9731 9.34456 18.2887 9.20768 17.6001 9.2299C16.9647 9.21004 16.3323 9.32564 15.7451 9.56901C15.1578 9.81238 14.629 10.178 14.1939 10.6414C13.7588 11.1049 13.4273 11.6557 13.2215 12.2572C13.0157 12.8586 12.9402 13.497 13.0001 14.1299C12.9373 14.7975 13.0312 15.4706 13.2742 16.0955C13.5173 16.7205 13.9028 17.2801 14.4001 17.7299C15.3132 18.4451 16.4402 18.8326 17.6001 18.8299C18.3612 18.8245 19.1105 18.6408 19.7878 18.2934C20.4651 17.9461 21.0515 17.4448 21.5001 16.8299C21.5678 16.7366 21.6087 16.6264 21.6181 16.5115C21.6276 16.3966 21.6053 16.2812 21.5537 16.1781C21.5022 16.0749 21.4233 15.9879 21.3256 15.9265C21.228 15.8651 21.1154 15.8317 21.0001 15.8299H20.4001C20.1834 15.8109 19.965 15.8366 19.7586 15.9054C19.5522 15.9742 19.3621 16.0847 19.2001 16.2299C18.7845 16.5972 18.2544 16.8092 17.7001 16.8299C17.2488 16.8373 16.8025 16.7343 16.4001 16.5299C16.0815 16.3286 15.8215 16.0471 15.6459 15.7137C15.4704 15.3802 15.3857 15.0065 15.4001 14.6299H21.0001C21.1337 14.6387 21.2677 14.6189 21.393 14.5718C21.5183 14.5247 21.6321 14.4513 21.7268 14.3566C21.8215 14.2619 21.8949 14.1481 21.942 14.0228C21.9891 13.8975 22.0089 13.7635 22.0001 13.6299ZM15.4001 12.9999C15.4076 12.4724 15.6233 11.9692 16.0001 11.5999C16.4315 11.2727 16.9587 11.097 17.5001 11.0999C18.0081 11.1135 18.4984 11.2886 18.9001 11.5999C19.2769 11.9692 19.4926 12.4724 19.5001 12.9999H15.4001ZM10.3001 11.8999C10.6569 11.7505 10.9675 11.5089 11.2001 11.1999C11.6042 10.6884 11.8165 10.0516 11.8001 9.3999C11.8325 8.71535 11.6198 8.04167 11.2001 7.4999C10.7883 7.07784 10.2869 6.7536 9.73311 6.55111C9.17927 6.34861 8.58704 6.27302 8.0001 6.3299H3.0001C2.86649 6.32106 2.73253 6.34087 2.6072 6.38799C2.48187 6.43512 2.36805 6.50848 2.27337 6.60317C2.17868 6.69785 2.10532 6.81167 2.05819 6.937C2.01107 7.06233 1.99126 7.19629 2.0001 7.3299V17.5299C1.99126 17.6635 2.01107 17.7975 2.05819 17.9228C2.10532 18.0481 2.17868 18.1619 2.27337 18.2566C2.36805 18.3513 2.48187 18.4247 2.6072 18.4718C2.73253 18.5189 2.86649 18.5387 3.0001 18.5299H7.6001C8.17191 18.5186 8.74127 18.4516 9.3001 18.3299C9.80506 18.2348 10.283 18.03 10.7001 17.7299C11.0759 17.4735 11.3845 17.1305 11.6001 16.7299C12.0051 16.1805 12.2161 15.5122 12.2001 14.8299C12.2021 14.1953 12.0291 13.5725 11.7001 13.0299C11.3781 12.5093 10.8821 12.1196 10.3001 11.9299V11.8999ZM4.5001 8.4299H7.1001C7.6065 8.43352 8.11044 8.50071 8.6001 8.6299C8.82906 8.69921 9.02559 8.8483 9.15402 9.05013C9.28245 9.25195 9.33428 9.49313 9.3001 9.7299C9.31289 9.94013 9.27401 10.1503 9.18685 10.3421C9.09969 10.5338 8.96691 10.7013 8.8001 10.8299C8.40194 11.0458 7.95261 11.1495 7.5001 11.1299H4.5001V8.4299ZM8.8001 16.2299C8.3791 16.3607 7.94096 16.4281 7.5001 16.4299H4.5001V13.1299L7.6001 13.2299C8.00835 13.2304 8.41374 13.298 8.8001 13.4299C9.04991 13.5394 9.26034 13.7226 9.4033 13.9549C9.54625 14.1871 9.61491 14.4575 9.6001 14.7299C9.61543 15.029 9.54908 15.3266 9.40814 15.5909C9.26721 15.8551 9.05702 16.076 8.8001 16.2299ZM14.7501 7.1299C14.7488 7.02447 14.7685 6.91983 14.8083 6.82217C14.848 6.7245 14.9069 6.63577 14.9814 6.56122C15.056 6.48666 15.1447 6.42778 15.2424 6.38806C15.34 6.34833 15.4447 6.32855 15.5501 6.3299H19.3501C19.5623 6.3299 19.7658 6.41418 19.9158 6.56421C20.0658 6.71424 20.1501 6.91772 20.1501 7.1299C20.1501 7.34207 20.0658 7.54555 19.9158 7.69558C19.7658 7.84561 19.5623 7.9299 19.3501 7.9299H15.5501C15.1501 7.9299 14.8501 7.6299 14.7501 7.1299Z" fill="black"/>
</svg>
