<svg width="24" height="25" viewBox="0 0 24 25" fill="none" xmlns="http://www.w3.org/2000/svg">
<path d="M18.74 19.84H5.26C4.2636 19.8374 3.30876 19.4404 2.60419 18.7358C1.89963 18.0313 1.50264 17.0764 1.5 16.08V8.92003C1.50264 7.92363 1.89963 6.96879 2.60419 6.26423C3.30876 5.55966 4.2636 5.16267 5.26 5.16003H18.74C19.7364 5.16267 20.6912 5.55966 21.3958 6.26423C22.1004 6.96879 22.4974 7.92363 22.5 8.92003V16.08C22.4974 17.0764 22.1004 18.0313 21.3958 18.7358C20.6912 19.4404 19.7364 19.8374 18.74 19.84ZM5.26 6.66003C4.66061 6.66003 4.08577 6.89814 3.66194 7.32197C3.23811 7.74581 3 8.32065 3 8.92003V16.08C3 16.6794 3.23811 17.2543 3.66194 17.6781C4.08577 18.1019 4.66061 18.34 5.26 18.34H18.74C19.3394 18.34 19.9142 18.1019 20.3381 17.6781C20.7619 17.2543 21 16.6794 21 16.08V8.92003C21 8.32065 20.7619 7.74581 20.3381 7.32197C19.9142 6.89814 19.3394 6.66003 18.74 6.66003H5.26Z" fill="black"/>
<path d="M5.68012 11.6901C5.51991 11.6901 5.36331 11.7376 5.23011 11.8266C5.0969 11.9156 4.99308 12.0421 4.93178 12.1901C4.87047 12.3381 4.85443 12.501 4.88568 12.6581C4.91694 12.8152 4.99408 12.9595 5.10736 13.0728C5.22064 13.1861 5.36497 13.2632 5.52209 13.2945C5.67922 13.3258 5.84208 13.3097 5.99009 13.2484C6.1381 13.1871 6.2646 13.0833 6.35361 12.9501C6.44261 12.8169 6.49012 12.6603 6.49012 12.5001C6.49012 12.2852 6.40478 12.0792 6.25287 11.9273C6.10097 11.7754 5.89494 11.6901 5.68012 11.6901Z" fill="black"/>
<path d="M18.1498 11.6901C17.9896 11.6901 17.833 11.7376 17.6998 11.8266C17.5666 11.9156 17.4628 12.0421 17.4015 12.1901C17.3402 12.3381 17.3242 12.501 17.3554 12.6581C17.3867 12.8152 17.4638 12.9595 17.5771 13.0728C17.6904 13.1861 17.8347 13.2632 17.9918 13.2945C18.1489 13.3258 18.3118 13.3097 18.4598 13.2484C18.6078 13.1871 18.7343 13.0833 18.8233 12.9501C18.9123 12.8169 18.9598 12.6603 18.9598 12.5001C18.9572 12.286 18.8711 12.0815 18.7197 11.9302C18.5684 11.7788 18.3639 11.6927 18.1498 11.6901Z" fill="black"/>
<path d="M11.9998 16.41C10.9925 16.3532 10.0484 15.9011 9.37247 15.1522C8.69654 14.4032 8.34341 13.4178 8.3898 12.41C8.34341 11.4022 8.69654 10.4168 9.37247 9.66788C10.0484 8.91893 10.9925 8.46692 11.9998 8.41003C13.0088 8.46438 13.9555 8.91529 14.6336 9.66452C15.3116 10.4138 15.6661 11.4006 15.6198 12.41C15.6635 13.4188 15.3081 14.4042 14.6306 15.1528C13.953 15.9015 13.0079 16.3531 11.9998 16.41ZM11.9998 9.88003C11.3893 9.93848 10.8262 10.2342 10.4316 10.7036C10.037 11.1731 9.84245 11.7786 9.8898 12.39C9.8397 13.0031 10.033 13.6112 10.4279 14.0828C10.8228 14.5545 11.3875 14.8516 11.9998 14.91C12.6129 14.8516 13.1785 14.5548 13.575 14.0835C13.9715 13.6122 14.1671 13.0041 14.1198 12.39C14.167 11.777 13.9711 11.1701 13.5744 10.7004C13.1777 10.2307 12.612 9.93602 11.9998 9.88003Z" fill="black"/>
</svg>
