<svg width="24" height="24" viewBox="0 0 24 24" fill="none" xmlns="http://www.w3.org/2000/svg">
<path d="M12.0002 15C11.6255 14.9925 11.2678 14.8423 11.0002 14.58L9.42016 13C9.16338 12.7303 9.02016 12.3723 9.02016 12C9.02016 11.6276 9.16338 11.2696 9.42016 11L11.0002 9.40995C11.2731 9.15978 11.6299 9.021 12.0002 9.021C12.3704 9.021 12.7272 9.15978 13.0002 9.40995L14.5502 11C14.8069 11.2696 14.9502 11.6276 14.9502 12C14.9502 12.3723 14.8069 12.7303 14.5502 13L13.0002 14.59C12.7315 14.8495 12.3737 14.9962 12.0002 15ZM11.9502 10.4599L10.4902 12L12.0002 13.5299L13.4602 12L11.9502 10.4599ZM4.24016 15C3.8634 14.993 3.50439 14.8386 3.24016 14.57L1.67016 13C1.41563 12.7292 1.27393 12.3716 1.27393 12C1.27393 11.6283 1.41563 11.2707 1.67016 11L3.21016 9.40995C3.47439 9.1413 3.8334 8.98692 4.21016 8.97995C4.39702 8.98178 4.58165 9.02074 4.75333 9.09456C4.925 9.16838 5.08029 9.27559 5.21016 9.40995L6.80016 11C7.05469 11.2707 7.19639 11.6283 7.19639 12C7.19639 12.3716 7.05469 12.7292 6.80016 13L5.26016 14.58C5.13029 14.7143 4.975 14.8215 4.80333 14.8953C4.63165 14.9692 4.44702 15.0081 4.26016 15.01L4.24016 15ZM4.24016 10.4499L2.74016 12L4.28016 13.5L5.71016 12L4.24016 10.4499ZM19.7402 15C19.3643 14.9889 19.0068 14.8351 18.7402 14.57L17.1702 13C16.9134 12.7303 16.7702 12.3723 16.7702 12C16.7702 11.6276 16.9134 11.2696 17.1702 11L18.7202 9.39995C18.9909 9.14542 19.3485 9.00372 19.7202 9.00372C20.0918 9.00372 20.4494 9.14542 20.7202 9.39995L22.3002 11C22.5547 11.2707 22.6964 11.6283 22.6964 12C22.6964 12.3716 22.5547 12.7292 22.3002 13L20.7602 14.5599C20.4914 14.8353 20.1249 14.9934 19.7402 15ZM19.7402 10.4499L18.2302 12L19.7802 13.49L21.2002 12L19.7402 10.4499ZM7.88016 10.3899C7.5034 10.383 7.14439 10.2286 6.88016 9.95995L5.78016 8.85995C5.52563 8.58919 5.38393 8.23156 5.38393 7.85995C5.38393 7.48834 5.52563 7.13071 5.78016 6.85995L10.7802 1.79995C11.1035 1.48357 11.5378 1.3064 11.9902 1.3064C12.4425 1.3064 12.8769 1.48357 13.2002 1.79995L18.2002 6.85995C18.4569 7.12957 18.6002 7.48762 18.6002 7.85995C18.6002 8.23228 18.4569 8.59033 18.2002 8.85995L17.1102 9.99995C16.8383 10.2523 16.4811 10.3925 16.1102 10.3925C15.7392 10.3925 15.382 10.2523 15.1102 9.99995L12.0002 6.81995L8.90016 9.99995C8.62455 10.2588 8.25818 10.3989 7.88016 10.3899ZM12.0002 2.74995C11.9724 2.74955 11.9449 2.75465 11.9192 2.76495C11.8934 2.77525 11.87 2.79054 11.8502 2.80995L6.85016 7.86995L7.93016 8.86995L10.9302 5.70995C11.2009 5.45542 11.5585 5.31372 11.9302 5.31372C12.3018 5.31372 12.6594 5.45542 12.9302 5.70995L16.1302 8.89995L17.1302 7.79995L12.1302 2.79995C12.0942 2.76825 12.0481 2.7505 12.0002 2.74995ZM12.0002 22.75C11.7745 22.7511 11.5509 22.7065 11.3429 22.6189C11.135 22.5312 10.9469 22.4023 10.7902 22.24L5.79016 17.17C5.53783 16.8981 5.39761 16.5409 5.39761 16.17C5.39761 15.799 5.53783 15.4418 5.79016 15.17L6.85016 14C7.12203 13.7476 7.47924 13.6074 7.85016 13.6074C8.22108 13.6074 8.57829 13.7476 8.85016 14L12.0002 17.2099L15.0802 14C15.21 13.8656 15.3653 13.7584 15.537 13.6846C15.7087 13.6107 15.8933 13.5718 16.0802 13.57C16.4569 13.5769 16.8159 13.7313 17.0802 14L18.1602 15.1C18.4125 15.3718 18.5527 15.729 18.5527 16.1C18.5527 16.4709 18.4125 16.8281 18.1602 17.1L13.1602 22.17C12.8653 22.509 12.4483 22.7175 12.0002 22.75ZM7.82016 15.08L6.82016 16.18L11.8202 21.18C11.8369 21.2027 11.8587 21.2212 11.8839 21.2339C11.9091 21.2467 11.9369 21.2533 11.9652 21.2533C11.9934 21.2533 12.0212 21.2467 12.0464 21.2339C12.0716 21.2212 12.0934 21.2027 12.1102 21.18L17.1102 16.1L16.1102 15.1L13.0002 18.26C12.7294 18.5145 12.3718 18.6562 12.0002 18.6562C11.6285 18.6562 11.2709 18.5145 11.0002 18.26L7.82016 15.08Z" fill="black"/>
</svg>
