<svg width="24" height="24" viewBox="0 0 24 24" fill="none" xmlns="http://www.w3.org/2000/svg">
<path d="M12.3301 22.32C12.1223 22.3213 11.9163 22.2813 11.724 22.2023C11.5317 22.1234 11.3571 22.007 11.2101 21.86L10.0001 20.59C9.85166 20.4447 9.7337 20.2713 9.65317 20.0798C9.57264 19.8883 9.53116 19.6827 9.53116 19.475C9.53116 19.2673 9.57264 19.0617 9.65317 18.8702C9.7337 18.6787 9.85166 18.5053 10.0001 18.36L18.5801 9.78001C18.8799 9.49216 19.2795 9.33142 19.6951 9.33142C20.1108 9.33142 20.5103 9.49216 20.8101 9.78001L22.0001 11C22.2957 11.2978 22.4615 11.7004 22.4615 12.12C22.4615 12.5396 22.2957 12.9422 22.0001 13.24L13.4201 21.82C13.1373 22.1243 12.7453 22.3041 12.3301 22.32ZM19.6401 10.81C19.6325 10.8056 19.6239 10.8033 19.6151 10.8033C19.6063 10.8033 19.5977 10.8056 19.5901 10.81L11.0001 19.42C10.9861 19.4349 10.9782 19.4545 10.9782 19.475C10.9782 19.4955 10.9861 19.5151 11.0001 19.53L12.2601 20.8C12.2766 20.8148 12.298 20.8229 12.3201 20.8229C12.3423 20.8229 12.3636 20.8148 12.3801 20.8L21.0001 12.22C21.0149 12.2035 21.023 12.1821 21.023 12.16C21.023 12.1379 21.0149 12.1165 21.0001 12.1L19.7001 10.84C19.6942 10.8296 19.6854 10.8212 19.6747 10.8158C19.664 10.8105 19.652 10.8085 19.6401 10.81ZM8.43012 18.42C8.01617 18.4322 7.61398 18.2814 7.31012 18L6.05012 16.69C5.90136 16.5439 5.7832 16.3696 5.70255 16.1773C5.62189 15.985 5.58035 15.7785 5.58035 15.57C5.58035 15.3615 5.62189 15.155 5.70255 14.9627C5.7832 14.7704 5.90136 14.5961 6.05012 14.45L14.6301 5.87001C14.9323 5.58667 15.3309 5.42899 15.7451 5.42899C16.1593 5.42899 16.558 5.58667 16.8601 5.87001L18.1301 7.14001C18.4246 7.43437 18.59 7.83365 18.5901 8.25001C18.5931 8.45809 18.5539 8.66461 18.4748 8.85711C18.3957 9.04961 18.2785 9.22409 18.1301 9.37001L9.55012 18C9.24569 18.2805 8.84389 18.4311 8.43012 18.42ZM15.7501 6.91001H15.6901L7.11012 15.51C7.09536 15.5265 7.0872 15.5479 7.0872 15.57C7.0872 15.5921 7.09536 15.6135 7.11012 15.63L8.37012 16.89C8.38662 16.9048 8.40798 16.9129 8.43012 16.9129C8.45226 16.9129 8.47362 16.9048 8.49012 16.89L17.0701 8.31001V8.20001L15.8001 6.93001L15.7501 6.91001ZM8.42012 10.61C8.21372 10.6116 8.00909 10.5718 7.81841 10.4927C7.62772 10.4137 7.45487 10.2972 7.31012 10.15L6.00012 8.89001C5.70696 8.59092 5.54275 8.18881 5.54275 7.77001C5.54275 7.3512 5.70696 6.94909 6.00012 6.65001L10.7201 2.00001C11.0235 1.69956 11.4332 1.53101 11.8601 1.53101C12.2871 1.53101 12.6968 1.69956 13.0001 2.00001L14.2601 3.26001C14.4077 3.40682 14.5248 3.58135 14.6046 3.77355C14.6845 3.96576 14.7257 4.17186 14.7257 4.38001C14.7257 4.58816 14.6845 4.79425 14.6046 4.98646C14.5248 5.17866 14.4077 5.35319 14.2601 5.50001L9.54012 10.15C9.39385 10.2979 9.21931 10.4149 9.02689 10.4939C8.83448 10.5729 8.62812 10.6124 8.42012 10.61ZM11.8401 3.00001H11.7801L7.10012 7.71001C7.08536 7.72651 7.0772 7.74787 7.0772 7.77001C7.0772 7.79214 7.08536 7.81351 7.10012 7.83001L8.37012 9.09001C8.38498 9.10407 8.40466 9.11191 8.42512 9.11191C8.44558 9.11191 8.46526 9.10407 8.48012 9.09001L13.1601 4.41001C13.1705 4.40378 13.179 4.39499 13.185 4.38447C13.1909 4.37396 13.1941 4.36209 13.1941 4.35001C13.1941 4.33793 13.1909 4.32605 13.185 4.31554C13.179 4.30502 13.1705 4.29623 13.1601 4.29001L11.9001 3.00001H11.8401ZM4.53012 14.51C4.32228 14.5113 4.11625 14.4713 3.92399 14.3923C3.73173 14.3134 3.55706 14.197 3.41012 14.05L2.15012 12.79C2.00257 12.6432 1.88549 12.4687 1.80559 12.2765C1.7257 12.0843 1.68457 11.8782 1.68457 11.67C1.68457 11.4619 1.7257 11.2558 1.80559 11.0636C1.88549 10.8713 2.00257 10.6968 2.15012 10.55L3.41012 9.29001C3.55608 9.14276 3.72976 9.02589 3.92114 8.94613C4.11251 8.86637 4.31779 8.8253 4.52512 8.8253C4.73245 8.8253 4.93773 8.86637 5.1291 8.94613C5.32048 9.02589 5.49416 9.14276 5.64012 9.29001L6.91012 10.55C7.20328 10.8491 7.36749 11.2512 7.36749 11.67C7.36749 12.0888 7.20328 12.4909 6.91012 12.79L5.65012 14.05C5.50285 14.1966 5.32812 14.3126 5.13593 14.3915C4.94375 14.4705 4.73788 14.5107 4.53012 14.51ZM4.47012 10.35L3.21012 11.61C3.19977 11.6162 3.1912 11.625 3.18525 11.6355C3.1793 11.6461 3.17618 11.6579 3.17618 11.67C3.17618 11.6821 3.1793 11.694 3.18525 11.7045C3.1912 11.715 3.19977 11.7238 3.21012 11.73L4.47012 13C4.48662 13.0148 4.50798 13.0229 4.53012 13.0229C4.55226 13.0229 4.57362 13.0148 4.59012 13L5.85012 11.74C5.86488 11.7235 5.87304 11.7021 5.87304 11.68C5.87304 11.6579 5.86488 11.6365 5.85012 11.62L4.58012 10.35C4.56526 10.3359 4.54558 10.3281 4.52512 10.3281C4.50466 10.3281 4.48498 10.3359 4.47012 10.35Z" fill="black"/>
</svg>
