<svg width="24" height="25" viewBox="0 0 24 25" fill="none" xmlns="http://www.w3.org/2000/svg">
<path d="M12 23.25C9.87386 23.25 7.79545 22.6195 6.02762 21.4383C4.2598 20.2571 2.88194 18.5782 2.0683 16.6139C1.25466 14.6495 1.04177 12.4881 1.45656 10.4028C1.87135 8.31749 2.89519 6.40202 4.39861 4.89861C5.90202 3.39519 7.81749 2.37135 9.90278 1.95656C11.9881 1.54177 14.1495 1.75466 16.1139 2.5683C18.0782 3.38194 19.7571 4.7598 20.9383 6.52762C22.1195 8.29545 22.75 10.3739 22.75 12.5C22.7474 15.3503 21.6139 18.083 19.5985 20.0985C17.583 22.1139 14.8503 23.2474 12 23.25ZM12 3.25C10.1705 3.25 8.38213 3.79251 6.86098 4.80891C5.33983 5.82531 4.15423 7.26997 3.45412 8.96018C2.75401 10.6504 2.57083 12.5103 2.92774 14.3046C3.28465 16.0989 4.16563 17.7471 5.45927 19.0407C6.7529 20.3344 8.40109 21.2154 10.1954 21.5723C11.9897 21.9292 13.8496 21.746 15.5398 21.0459C17.23 20.3458 18.6747 19.1602 19.6911 17.639C20.7075 16.1179 21.25 14.3295 21.25 12.5C21.2474 10.0476 20.272 7.69633 18.5378 5.96219C16.8037 4.22805 14.4524 3.25265 12 3.25ZM16.42 12C16.7316 11.5356 16.8987 10.9893 16.9 10.43V10.27C16.9053 9.89501 16.836 9.5227 16.6962 9.17472C16.5563 8.82674 16.3487 8.51003 16.0854 8.24298C15.8221 7.97594 15.5083 7.7639 15.1623 7.61919C14.8163 7.47447 14.445 7.39997 14.07 7.4H13.23V6.09C13.23 5.89109 13.151 5.70033 13.0103 5.55967C12.8697 5.41902 12.6789 5.34 12.48 5.34C12.2811 5.34 12.0903 5.41902 11.9497 5.55967C11.809 5.70033 11.73 5.89109 11.73 6.09V7.37H10.46V6.05C10.46 5.85109 10.381 5.66033 10.2403 5.51967C10.0997 5.37902 9.90892 5.3 9.71 5.3C9.51109 5.3 9.32033 5.37902 9.17968 5.51967C9.03902 5.66033 8.96 5.85109 8.96 6.05V7.34H6.56C6.36281 7.33999 6.17355 7.41763 6.03318 7.55613C5.89281 7.69462 5.81263 7.88283 5.81 8.08C5.80994 8.27815 5.88726 8.46849 6.02549 8.61046C6.16372 8.75242 6.35193 8.83479 6.55 8.84H7.83V11.75H6.55C6.35109 11.75 6.16033 11.829 6.01967 11.9697C5.87902 12.1103 5.8 12.3011 5.8 12.5C5.8 12.6989 5.87902 12.8897 6.01967 13.0303C6.16033 13.171 6.35109 13.25 6.55 13.25H7.83V16.08H6.55C6.35109 16.08 6.16033 16.159 6.01967 16.2997C5.87902 16.4403 5.8 16.6311 5.8 16.83C5.8 17.0289 5.87902 17.2197 6.01967 17.3603C6.16033 17.501 6.35109 17.58 6.55 17.58H9V18.93C9 19.1289 9.07902 19.3197 9.21968 19.4603C9.36033 19.601 9.55109 19.68 9.75 19.68C9.94892 19.68 10.1397 19.601 10.2803 19.4603C10.421 19.3197 10.5 19.1289 10.5 18.93V17.56H11.77V19C11.77 19.1989 11.849 19.3897 11.9897 19.5303C12.1303 19.671 12.3211 19.75 12.52 19.75C12.7189 19.75 12.9097 19.671 13.0503 19.5303C13.191 19.3897 13.27 19.1989 13.27 19V17.56H15.33C15.9804 17.5266 16.601 17.2768 17.0931 16.8502C17.5852 16.4236 17.9206 15.8447 18.0459 15.2056C18.1712 14.5665 18.0792 13.9038 17.7846 13.323C17.49 12.7422 17.0097 12.2765 16.42 12ZM9.33 8.84L14.06 8.9C14.4137 8.89999 14.753 9.0398 15.004 9.28894C15.255 9.53808 15.3974 9.87635 15.4 10.23V10.39C15.3974 10.7446 15.2554 11.0839 15.0046 11.3346C14.7539 11.5854 14.4146 11.7274 14.06 11.73H9.33V8.84ZM15.33 16.06H9.33V13.23H15.33C15.6847 13.2599 16.0153 13.4219 16.2563 13.6839C16.4972 13.946 16.6309 14.289 16.6309 14.645C16.6309 15.001 16.4972 15.344 16.2563 15.6061C16.0153 15.8681 15.6847 16.0302 15.33 16.06Z" fill="black"/>
</svg>
