<svg width="24" height="24" viewBox="0 0 24 24" fill="none" xmlns="http://www.w3.org/2000/svg">
<path d="M18.2099 11.23H10.0599V7.77999C10.061 7.68686 10.0343 7.59551 9.98338 7.51755C9.93243 7.43958 9.85947 7.3785 9.77375 7.34207C9.68804 7.30564 9.59343 7.2955 9.50194 7.31293C9.41045 7.33037 9.3262 7.37459 9.25989 7.43999L5.04989 11.65C4.96317 11.7379 4.91455 11.8565 4.91455 11.98C4.91455 12.1035 4.96317 12.222 5.04989 12.31L9.25989 16.52C9.3262 16.5854 9.41045 16.6296 9.50194 16.6471C9.59343 16.6645 9.68804 16.6543 9.77375 16.6179C9.85947 16.5815 9.93243 16.5204 9.98338 16.4424C10.0343 16.3645 10.061 16.2731 10.0599 16.18V12.73H18.2099C18.4088 12.73 18.5996 12.651 18.7402 12.5103C18.8809 12.3697 18.9599 12.1789 18.9599 11.98C18.9599 11.7811 18.8809 11.5903 18.7402 11.4497C18.5996 11.309 18.4088 11.23 18.2099 11.23Z" fill="black"/>
</svg>
