<svg width="24" height="24" viewBox="0 0 24 24" fill="none" xmlns="http://www.w3.org/2000/svg">
<path d="M16.0999 13.83H12.6499V5.67999C12.6499 5.48108 12.5709 5.29032 12.4302 5.14966C12.2896 5.00901 12.0988 4.92999 11.8999 4.92999C11.701 4.92999 11.5102 5.00901 11.3696 5.14966C11.2289 5.29032 11.1499 5.48108 11.1499 5.67999V13.83H7.68989C7.59553 13.8289 7.50302 13.8562 7.4244 13.9084C7.34578 13.9606 7.2847 14.0352 7.24909 14.1226C7.21349 14.21 7.20502 14.3061 7.22478 14.3984C7.24454 14.4907 7.29162 14.5748 7.35989 14.64L11.5599 18.84C11.6029 18.8857 11.6548 18.9221 11.7124 18.947C11.77 18.9719 11.8321 18.9848 11.8949 18.9848C11.9577 18.9848 12.0197 18.9719 12.0774 18.947C12.135 18.9221 12.1869 18.8857 12.2299 18.84L16.4299 14.64C16.4982 14.5748 16.5452 14.4907 16.565 14.3984C16.5848 14.3061 16.5763 14.21 16.5407 14.1226C16.5051 14.0352 16.444 13.9606 16.3654 13.9084C16.2868 13.8562 16.1943 13.8289 16.0999 13.83Z" fill="black"/>
</svg>
