<svg width="24" height="24" viewBox="0 0 24 24" fill="none" xmlns="http://www.w3.org/2000/svg">
<path d="M16.9201 11.91C17.0251 12.0167 17.084 12.1603 17.084 12.31C17.084 12.4597 17.0251 12.6034 16.9201 12.71L12.9201 16.71C12.8425 16.7995 12.7389 16.8626 12.6238 16.8905C12.5087 16.9184 12.3877 16.9098 12.2778 16.8658C12.1678 16.8218 12.0742 16.7446 12.0101 16.645C11.946 16.5454 11.9146 16.4283 11.9201 16.31V13.05H3.83008C3.63117 13.05 3.4404 12.971 3.29975 12.8303C3.1591 12.6897 3.08008 12.4989 3.08008 12.3C3.08008 12.1011 3.1591 11.9103 3.29975 11.7697C3.4404 11.629 3.63117 11.55 3.83008 11.55H12.0001V8.33001C11.9946 8.21169 12.026 8.09459 12.0901 7.99499C12.1542 7.89539 12.2478 7.81823 12.3578 7.77424C12.4677 7.73025 12.5887 7.72161 12.7038 7.74953C12.8189 7.77744 12.9225 7.84053 13.0001 7.93001L16.9201 11.91ZM20.0001 4.82001C19.9012 4.81867 19.8031 4.83715 19.7115 4.87436C19.6199 4.91158 19.5367 4.96677 19.4668 5.03669C19.3968 5.1066 19.3416 5.18982 19.3044 5.28142C19.2672 5.37302 19.2487 5.47115 19.2501 5.57001V18.4C19.2501 18.5989 19.3291 18.7897 19.4697 18.9303C19.6104 19.071 19.8012 19.15 20.0001 19.15C20.199 19.15 20.3898 19.071 20.5304 18.9303C20.6711 18.7897 20.7501 18.5989 20.7501 18.4V5.57001C20.7501 5.3711 20.6711 5.18034 20.5304 5.03968C20.3898 4.89903 20.199 4.82001 20.0001 4.82001Z" fill="black"/>
</svg>
