<svg width="24" height="24" viewBox="0 0 24 24" fill="none" xmlns="http://www.w3.org/2000/svg">
<path d="M20.7798 12C20.7772 12.1981 20.6973 12.3874 20.5573 12.5275C20.4172 12.6676 20.2279 12.7474 20.0298 12.75H11.8698V16C11.8776 16.1192 11.8478 16.2378 11.7845 16.3391C11.7212 16.4404 11.6277 16.5193 11.5172 16.5646C11.4067 16.6099 11.2848 16.6194 11.1686 16.5916C11.0524 16.5639 10.9479 16.5004 10.8698 16.41L6.86979 12.41C6.76474 12.3034 6.70586 12.1597 6.70586 12.01C6.70586 11.8603 6.76474 11.7166 6.86979 11.61L10.8698 7.61C10.9469 7.52131 11.0495 7.4586 11.1636 7.43047C11.2777 7.40234 11.3976 7.41016 11.5071 7.45286C11.6166 7.49555 11.7102 7.57104 11.7751 7.66898C11.84 7.76692 11.8731 7.88254 11.8698 8V11.23H19.9998C20.1021 11.2273 20.2039 11.2453 20.2991 11.2829C20.3943 11.3205 20.4809 11.377 20.5538 11.4489C20.6266 11.5208 20.6842 11.6067 20.723 11.7014C20.7619 11.7961 20.7812 11.8976 20.7798 12ZM3.77979 4.84C3.58087 4.84 3.39011 4.91901 3.24946 5.05967C3.1088 5.20032 3.02979 5.39108 3.02979 5.59V18.41C3.02979 18.6089 3.1088 18.7997 3.24946 18.9403C3.39011 19.081 3.58087 19.16 3.77979 19.16C3.9787 19.16 4.16946 19.081 4.31012 18.9403C4.45077 18.7997 4.52979 18.6089 4.52979 18.41V5.59C4.53265 5.39875 4.46135 5.21383 4.33085 5.074C4.20035 4.93418 4.02077 4.85031 3.82979 4.84H3.77979Z" fill="black"/>
</svg>
