<svg width="24" height="24" viewBox="0 0 24 24" fill="none" xmlns="http://www.w3.org/2000/svg">
<path d="M14.5501 7.43999C14.4838 7.37459 14.3995 7.33037 14.308 7.31293C14.2166 7.2955 14.1219 7.30564 14.0362 7.34207C13.9505 7.3785 13.8776 7.43958 13.8266 7.51755C13.7757 7.59551 13.749 7.68686 13.7501 7.77999V11.23H5.6001C5.40119 11.23 5.21042 11.309 5.06977 11.4497C4.92912 11.5903 4.8501 11.7811 4.8501 11.98C4.8501 12.1789 4.92912 12.3697 5.06977 12.5103C5.21042 12.651 5.40119 12.73 5.6001 12.73H13.7501V16.18C13.749 16.2731 13.7757 16.3645 13.8266 16.4424C13.8776 16.5204 13.9505 16.5815 14.0362 16.6179C14.1219 16.6543 14.2166 16.6645 14.308 16.6471C14.3995 16.6296 14.4838 16.5854 14.5501 16.52L18.7601 12.31C18.8468 12.222 18.8954 12.1035 18.8954 11.98C18.8954 11.8565 18.8468 11.7379 18.7601 11.65L14.5501 7.43999Z" fill="black"/>
</svg>
