<svg width="24" height="24" viewBox="0 0 24 24" fill="none" xmlns="http://www.w3.org/2000/svg">
<path d="M12.2901 5.18C12.1835 5.07496 12.0398 5.01608 11.8901 5.01608C11.7404 5.01608 11.5968 5.07496 11.4901 5.18L7.54012 9.18C7.44383 9.25449 7.37444 9.35832 7.34244 9.47577C7.31045 9.59322 7.3176 9.7179 7.36281 9.83093C7.40802 9.94395 7.48883 10.0392 7.593 10.1022C7.69717 10.1651 7.81903 10.1925 7.94012 10.18H11.1501V18.29C11.1501 18.4889 11.2291 18.6797 11.3698 18.8203C11.5104 18.961 11.7012 19.04 11.9001 19.04C12.099 19.04 12.2898 18.961 12.4304 18.8203C12.5711 18.6797 12.6501 18.4889 12.6501 18.29V10.1H15.8601C15.9803 10.1099 16.1005 10.0807 16.2028 10.0169C16.3051 9.95295 16.384 9.85774 16.4279 9.74537C16.4717 9.633 16.4781 9.50949 16.446 9.39321C16.414 9.27693 16.3453 9.17409 16.2501 9.1L12.2901 5.18Z" fill="black"/>
</svg>
