<svg width="24" height="24" viewBox="0 0 24 24" fill="none" xmlns="http://www.w3.org/2000/svg">
<path d="M12.1502 19.32C12.0356 19.3186 11.9228 19.2912 11.8202 19.24C11.6933 19.1805 11.5861 19.0856 11.5117 18.9668C11.4372 18.848 11.3985 18.7102 11.4002 18.57V14.08L8.49023 16.77C8.34961 16.9105 8.15899 16.9893 7.96023 16.9893C7.76148 16.9893 7.57086 16.9105 7.43023 16.77C7.28978 16.6294 7.21089 16.4388 7.21089 16.24C7.21089 16.0412 7.28978 15.8506 7.43023 15.71L11.4002 12V11.9L7.48023 8.44C7.33171 8.30739 7.24195 8.12121 7.2307 7.92243C7.21945 7.72364 7.28763 7.52852 7.42023 7.38C7.55284 7.23148 7.73902 7.14172 7.93781 7.13047C8.1366 7.11921 8.33171 7.18739 8.48023 7.32L11.4002 9.93V5.27C11.4007 5.12985 11.4404 4.99262 11.5148 4.87389C11.5893 4.75516 11.6955 4.65966 11.8215 4.59824C11.9475 4.53681 12.0882 4.51191 12.2276 4.52636C12.367 4.54082 12.4995 4.59404 12.6102 4.68L16.7802 7.92C16.8658 7.98715 16.936 8.07189 16.9861 8.1685C17.0361 8.26511 17.0648 8.37134 17.0702 8.48C17.0745 8.58827 17.0553 8.69619 17.0138 8.79632C16.9724 8.89644 16.9098 8.9864 16.8302 9.06L13.6802 12L16.8202 14.81C16.9 14.8839 16.9635 14.9737 17.0066 15.0736C17.0496 15.1735 17.0713 15.2812 17.0702 15.39C17.0637 15.4998 17.0346 15.6072 16.9847 15.7052C16.9348 15.8033 16.8652 15.89 16.7802 15.96L12.6102 19.19C12.4755 19.283 12.3137 19.3287 12.1502 19.32ZM12.9002 13.32V17L15.1502 15.25L12.9002 13.32ZM12.9002 6.84V10.69L15.1602 8.6L12.9002 6.84ZM16.7602 22.84H7.24023C5.64894 22.84 4.12281 22.2079 2.99759 21.0826C1.87238 19.9574 1.24023 18.4313 1.24023 16.84V7.25C1.24023 5.6587 1.87238 4.13258 2.99759 3.00736C4.12281 1.88214 5.64894 1.25 7.24023 1.25H16.7602C18.3515 1.25 19.8777 1.88214 21.0029 3.00736C22.1281 4.13258 22.7602 5.6587 22.7602 7.25V16.75C22.7602 18.3413 22.1281 19.8674 21.0029 20.9926C19.8777 22.1179 18.3515 22.75 16.7602 22.75V22.84ZM7.24023 2.84C6.04849 2.84265 4.90647 3.31792 4.06472 4.16155C3.22296 5.00518 2.75023 6.14826 2.75023 7.34V16.84C2.75023 18.0317 3.22296 19.1748 4.06472 20.0184C4.90647 20.8621 6.04849 21.3374 7.24023 21.34H16.7602C17.9502 21.3347 19.0897 20.8583 19.9293 20.0149C20.7689 19.1716 21.2402 18.03 21.2402 16.84V7.25C21.2402 6.05998 20.7689 4.91841 19.9293 4.07507C19.0897 3.23173 17.9502 2.75529 16.7602 2.75L7.24023 2.84Z" fill="black"/>
</svg>
