<svg width="24" height="24" viewBox="0 0 24 24" fill="none" xmlns="http://www.w3.org/2000/svg">
<path d="M17.7301 4.34C17.6866 3.50692 17.3253 2.72221 16.7208 2.1474C16.1162 1.5726 15.3143 1.25142 14.4801 1.25H9.48006C8.65278 1.26157 7.86085 1.58725 7.26479 2.16103C6.66872 2.73481 6.31312 3.51377 6.27006 4.34C4.85337 4.63493 3.58201 5.41006 2.67095 6.53431C1.75989 7.65856 1.26503 9.06295 1.27006 10.51V16.45C1.2727 18.1201 1.9373 19.7209 3.11821 20.9019C4.29911 22.0828 5.90001 22.7474 7.57006 22.75H16.4701C18.1401 22.7474 19.741 22.0828 20.9219 20.9019C22.1028 19.7209 22.7674 18.1201 22.7701 16.45V10.51C22.7732 9.05735 22.2727 7.64852 21.3537 6.5235C20.4347 5.39847 19.1541 4.62683 17.7301 4.34ZM7.73006 4.52C7.73137 4.28625 7.77871 4.05504 7.86937 3.83958C7.96004 3.62412 8.09225 3.42863 8.25847 3.26427C8.42469 3.09991 8.62165 2.9699 8.83812 2.88166C9.05458 2.79342 9.2863 2.74868 9.52006 2.75H14.5201C14.9887 2.75263 15.4374 2.93995 15.7687 3.27132C16.1001 3.60269 16.2874 4.05138 16.2901 4.52V12.52C16.2901 12.6672 16.2509 12.8117 16.1767 12.9388C16.1024 13.0659 15.9957 13.1709 15.8675 13.2432C15.7393 13.3154 15.5942 13.3523 15.447 13.35C15.2998 13.3477 15.1559 13.3062 15.0301 13.23L13.5501 12.34C13.0968 12.0686 12.5784 11.9253 12.0501 11.9253C11.5217 11.9253 11.0033 12.0686 10.5501 12.34L9.00006 13.21C8.87236 13.2837 8.72751 13.3225 8.58006 13.3225C8.43261 13.3225 8.28775 13.2837 8.16006 13.21C8.03137 13.1393 7.92431 13.035 7.85033 12.9082C7.77636 12.7814 7.73824 12.6368 7.74006 12.49L7.73006 4.52ZM21.2301 16.45C21.2301 17.0803 21.1059 17.7045 20.8647 18.2869C20.6235 18.8692 20.2699 19.3984 19.8242 19.8441C19.3784 20.2898 18.8493 20.6434 18.2669 20.8846C17.6846 21.1258 17.0604 21.25 16.4301 21.25H7.55006C6.27702 21.25 5.05612 20.7443 4.15595 19.8441C3.25577 18.9439 2.75006 17.723 2.75006 16.45V10.51C2.74853 9.46328 3.08991 8.44488 3.72198 7.61055C4.35405 6.77622 5.24201 6.17189 6.25006 5.89V12.5C6.24638 12.9139 6.35352 13.3213 6.56035 13.6798C6.76718 14.0384 7.06618 14.3351 7.42632 14.5391C7.78647 14.7432 8.19464 14.8471 8.60852 14.8403C9.0224 14.8334 9.42689 14.7159 9.78006 14.5L11.2601 13.61C11.484 13.4771 11.7396 13.407 12.0001 13.407C12.2605 13.407 12.5161 13.4771 12.7401 13.61L14.2201 14.5C14.5738 14.7125 14.9776 14.8273 15.3903 14.8326C15.8029 14.8379 16.2096 14.7334 16.5686 14.53C16.9277 14.3266 17.2263 14.0314 17.4338 13.6748C17.6414 13.3181 17.7505 12.9127 17.7501 12.5V5.89C18.7581 6.17189 19.6461 6.77622 20.2781 7.61055C20.9102 8.44488 21.2516 9.46328 21.2501 10.51L21.2301 16.45Z" fill="black"/>
</svg>
