<svg width="24" height="24" viewBox="0 0 24 24" fill="none" xmlns="http://www.w3.org/2000/svg">
<path d="M17 23.49H7.00003C5.47942 23.4874 4.022 22.8814 2.9477 21.8053C1.8734 20.7291 1.27003 19.2706 1.27003 17.75V7.75C1.26871 6.99621 1.41588 6.24955 1.70313 5.55263C1.99038 4.85572 2.41208 4.22221 2.94416 3.68828C3.47624 3.15434 4.10828 2.73043 4.80419 2.44076C5.50009 2.15108 6.24624 2.00131 7.00003 2H17C18.5206 2.00265 19.9781 2.60857 21.0524 3.68474C22.1267 4.76091 22.73 6.21939 22.73 7.74V17.74C22.7313 18.4938 22.5842 19.2405 22.2969 19.9374C22.0097 20.6343 21.588 21.2678 21.0559 21.8017C20.5238 22.3357 19.8918 22.7596 19.1959 23.0492C18.5 23.3389 17.7538 23.4887 17 23.49ZM7.00003 3.5C5.87551 3.5 4.79705 3.94671 4.0019 4.74187C3.20674 5.53702 2.76003 6.61548 2.76003 7.74V17.74C2.75739 18.2985 2.86512 18.852 3.07702 19.3687C3.28892 19.8855 3.60082 20.3552 3.9948 20.7511C4.38879 21.1469 4.85709 21.461 5.37282 21.6753C5.88855 21.8897 6.44154 22 7.00003 22H17C18.1228 21.9974 19.1987 21.5495 19.9917 20.7546C20.7847 19.9597 21.23 18.8828 21.23 17.76V7.76C21.2327 7.20236 21.1253 6.64967 20.914 6.13359C20.7027 5.61751 20.3917 5.14818 19.9988 4.75247C19.6059 4.35676 19.1387 4.04244 18.6242 3.82753C18.1096 3.61261 17.5577 3.50131 17 3.5H7.00003ZM18.48 6.5C18.2718 6.30536 18.0229 6.15951 17.7514 6.07302C17.4798 5.98654 17.1924 5.9616 16.91 6C15.2308 6.29203 13.6161 6.87765 12.14 7.73C12.0983 7.76163 12.0474 7.77875 11.995 7.77875C11.9427 7.77875 11.8918 7.76163 11.85 7.73C10.3698 6.8852 8.74561 6.32235 7.06003 6.07C6.7848 6.02738 6.50356 6.0458 6.23624 6.12394C5.96891 6.20208 5.72204 6.33803 5.51309 6.52217C5.30414 6.70632 5.13823 6.93414 5.0271 7.18953C4.91597 7.44491 4.86235 7.72159 4.87003 8V15.92C4.86492 16.3684 5.022 16.8036 5.31232 17.1454C5.60265 17.4871 6.00669 17.7125 6.45003 17.78C8.10157 18.0769 9.6993 18.6196 11.19 19.39C11.4553 19.4899 11.7366 19.5407 12.02 19.54C12.3145 19.546 12.6061 19.4808 12.87 19.35C14.3458 18.5922 15.932 18.0724 17.57 17.81C18.0088 17.7322 18.4059 17.5019 18.6914 17.1597C18.9768 16.8176 19.1322 16.3856 19.13 15.94V7.94C19.1358 7.66138 19.0797 7.38494 18.9655 7.1307C18.8514 6.87647 18.6821 6.65079 18.47 6.47L18.48 6.5ZM6.69003 16.25C6.59996 16.2356 6.51808 16.1893 6.45933 16.1195C6.40058 16.0498 6.36889 15.9612 6.37003 15.87V8C6.36982 7.94132 6.38221 7.88328 6.40636 7.8298C6.43052 7.77632 6.46587 7.72864 6.51003 7.69C6.57934 7.63008 6.66843 7.59801 6.76003 7.6H6.82003C8.32423 7.81976 9.7751 8.31468 11.1 9.06L11.25 9.12V17.71C9.80183 17.0224 8.26826 16.5314 6.69003 16.25ZM17.63 15.89C17.632 15.981 17.602 16.0697 17.5454 16.1409C17.4888 16.2122 17.4091 16.2614 17.32 16.28C15.739 16.5426 14.2014 17.0203 12.75 17.7V9.12C12.7952 9.10419 12.8387 9.0841 12.88 9.06C14.1983 8.29783 15.6402 7.77318 17.14 7.51C17.2021 7.50006 17.2657 7.50386 17.3261 7.52114C17.3866 7.53842 17.4426 7.56875 17.49 7.61C17.5332 7.64514 17.5681 7.68933 17.5923 7.73944C17.6165 7.78955 17.6293 7.84436 17.63 7.9V15.89Z" fill="black"/>
</svg>
