<svg width="24" height="24" viewBox="0 0 24 24" fill="none" xmlns="http://www.w3.org/2000/svg">
<path d="M16.9101 1.31003H16.8001H16.3201H7.73011L7.00011 1.28003V1.33003C5.39759 1.55954 3.93237 2.36151 2.87535 3.58766C1.81833 4.8138 1.241 6.38119 1.25011 8.00003V16.1C1.26596 17.8762 1.98539 19.5736 3.25069 20.8201C4.516 22.0667 6.22393 22.7607 8.00011 22.75H16.1001C17.8762 22.7474 19.5789 22.0406 20.8348 20.7847C22.0907 19.5288 22.7975 17.8262 22.8001 16.05V8.00003C22.8075 6.35722 22.212 4.76878 21.1264 3.53574C20.0408 2.30271 18.5406 1.51077 16.9101 1.31003ZM15.5001 2.75003V12.58C15.5005 12.6006 15.4951 12.621 15.4844 12.6386C15.4738 12.6563 15.4585 12.6707 15.4401 12.68C15.407 12.7004 15.3689 12.7111 15.3301 12.7111C15.2913 12.7111 15.2532 12.7004 15.2201 12.68L12.7101 11.56C12.4862 11.4618 12.2446 11.4107 12.0001 11.41C11.7587 11.4095 11.5201 11.4606 11.3001 11.56L8.78011 12.7C8.74702 12.7204 8.70894 12.7311 8.67011 12.7311C8.63127 12.7311 8.59319 12.7204 8.56011 12.7C8.54174 12.6907 8.52637 12.6763 8.51576 12.6586C8.50515 12.641 8.49973 12.6206 8.50011 12.6V2.75003H15.5001ZM21.2501 16.05C21.2475 17.4283 20.6988 18.7494 19.7241 19.7241C18.7495 20.6987 17.4284 21.2474 16.0501 21.25H8.00011C6.62179 21.2474 5.30069 20.6987 4.32607 19.7241C3.35145 18.7494 2.80275 17.4283 2.80011 16.05V8.00003C2.78913 6.78639 3.20303 5.60714 3.97009 4.66657C4.73715 3.72601 5.80906 3.08338 7.00011 2.85003V12.58C7.00029 12.8516 7.06914 13.1187 7.20027 13.3564C7.33141 13.5942 7.52055 13.795 7.75011 13.94C7.99049 14.0978 8.26679 14.1925 8.55344 14.2152C8.8401 14.2379 9.12786 14.188 9.39011 14.07L11.9101 13C11.9378 12.9852 11.9687 12.9774 12.0001 12.9774C12.0315 12.9774 12.0624 12.9852 12.0901 13L14.6101 14.12C14.834 14.2183 15.0756 14.2693 15.3201 14.27C15.6511 14.2715 15.975 14.174 16.2501 13.99C16.487 13.8405 16.6807 13.6319 16.8123 13.3846C16.9438 13.1373 17.0085 12.86 17.0001 12.58V2.85003C18.2004 3.07303 19.2839 3.7112 20.0609 4.65277C20.8379 5.59434 21.2589 6.77927 21.2501 8.00003V16.05Z" fill="black"/>
</svg>
