<svg width="24" height="24" viewBox="0 0 24 24" fill="none" xmlns="http://www.w3.org/2000/svg">
<path d="M17 1.25005H7C6.44367 1.24742 5.89228 1.35455 5.37742 1.56533C4.86255 1.7761 4.39432 2.08637 3.99954 2.47836C3.60476 2.87036 3.29118 3.33638 3.07677 3.84974C2.86235 4.3631 2.75131 4.91371 2.75 5.47005V18.53C2.75131 19.0864 2.86235 19.637 3.07677 20.1504C3.29118 20.6637 3.60476 21.1297 3.99954 21.5217C4.39432 21.9137 4.86255 22.224 5.37742 22.4348C5.89228 22.6455 6.44367 22.7527 7 22.75H17C18.1184 22.7474 19.1902 22.302 19.9811 21.5111C20.7719 20.7203 21.2174 19.6485 21.22 18.53V5.47005C21.2174 4.35164 20.7719 3.27981 19.9811 2.48897C19.1902 1.69814 18.1184 1.25269 17 1.25005ZM19.72 18.53C19.72 19.2514 19.4334 19.9433 18.9233 20.4534C18.4132 20.9635 17.7214 21.25 17 21.25H7C6.27861 21.25 5.58677 20.9635 5.07667 20.4534C4.56657 19.9433 4.28 19.2514 4.28 18.53V17.93C4.28263 17.3527 4.51315 16.7997 4.92141 16.3915C5.32967 15.9832 5.88264 15.7527 6.46 15.75H19.75L19.72 18.53ZM6.43 14.25C5.64151 14.2587 4.8769 14.5217 4.25 15V5.47005C4.24998 5.11031 4.32131 4.75415 4.45988 4.42217C4.59844 4.0902 4.80149 3.789 5.05725 3.53603C5.31301 3.28306 5.61641 3.08334 5.94989 2.94842C6.28336 2.81351 6.64029 2.74608 7 2.75005H17C17.7214 2.75005 18.4132 3.03662 18.9233 3.54672C19.4334 4.05682 19.72 4.74866 19.72 5.47005V14.25H6.43ZM16.58 7.00005C16.5774 7.19815 16.4976 7.38742 16.3575 7.52751C16.2174 7.66761 16.0281 7.74746 15.83 7.75005H8.15C7.95109 7.75005 7.76032 7.67103 7.61967 7.53038C7.47902 7.38973 7.4 7.19896 7.4 7.00005C7.4 6.80114 7.47902 6.61037 7.61967 6.46972C7.76032 6.32906 7.95109 6.25005 8.15 6.25005H15.83C16.0281 6.25264 16.2174 6.33249 16.3575 6.47258C16.4976 6.61268 16.5774 6.80194 16.58 7.00005ZM13.69 10.57C13.69 10.769 13.611 10.9597 13.4703 11.1004C13.3297 11.241 13.1389 11.32 12.94 11.32H8.15C7.95109 11.32 7.76032 11.241 7.61967 11.1004C7.47902 10.9597 7.4 10.769 7.4 10.57C7.4 10.3711 7.47902 10.1804 7.61967 10.0397C7.76032 9.89907 7.95109 9.82005 8.15 9.82005H12.94C13.1381 9.82264 13.3274 9.90249 13.4675 10.0426C13.6076 10.1827 13.6874 10.3719 13.69 10.57Z" fill="black"/>
</svg>
