<svg width="24" height="24" viewBox="0 0 24 24" fill="none" xmlns="http://www.w3.org/2000/svg">
<path d="M23.0001 9.91C22.4068 9.90737 21.8386 9.67053 21.4191 9.25101C20.9995 8.8315 20.7627 8.26327 20.7601 7.67V6.56C20.7601 5.41692 20.306 4.32065 19.4977 3.51237C18.6894 2.70409 17.5932 2.25 16.4501 2.25H7.58007C6.43699 2.25 5.34072 2.70409 4.53244 3.51237C3.72416 4.32065 3.27007 5.41692 3.27007 6.56V7.67C3.2701 7.9667 3.21118 8.26045 3.09674 8.5342C2.98229 8.80794 2.81461 9.05622 2.60342 9.26462C2.39223 9.47302 2.14174 9.63739 1.8665 9.74818C1.59125 9.85897 1.29674 9.91397 1.00007 9.91C0.901205 9.90865 0.803074 9.92713 0.711472 9.96435C0.61987 10.0016 0.536655 10.0568 0.466741 10.1267C0.396827 10.1966 0.341633 10.2798 0.304418 10.3714C0.267204 10.463 0.248723 10.5611 0.250069 10.66V13.29C0.260318 13.4819 0.343837 13.6625 0.483394 13.7947C0.622951 13.9268 0.807896 14.0003 1.00007 14C1.59415 14 2.16391 14.236 2.58399 14.6561C3.00407 15.0762 3.24007 15.6459 3.24007 16.24V17.4C3.24007 18.5431 3.69416 19.6393 4.50244 20.4476C5.31072 21.2559 6.40699 21.71 7.55007 21.71H16.3901C17.5332 21.71 18.6294 21.2559 19.4377 20.4476C20.246 19.6393 20.7001 18.5431 20.7001 17.4V16.28C20.696 15.9778 20.7528 15.6778 20.8672 15.398C20.9816 15.1182 21.1512 14.8643 21.3658 14.6515C21.5805 14.4387 21.8359 14.2713 22.1166 14.1594C22.3974 14.0475 22.6979 13.9933 23.0001 14C23.0989 14.0013 23.1971 13.9829 23.2887 13.9457C23.3803 13.9084 23.4635 13.8532 23.5334 13.7833C23.6033 13.7134 23.6585 13.6302 23.6957 13.5386C23.7329 13.447 23.7514 13.3489 23.7501 13.25V10.66C23.7514 10.5611 23.7329 10.463 23.6957 10.3714C23.6585 10.2798 23.6033 10.1966 23.5334 10.1267C23.4635 10.0568 23.3803 10.0016 23.2887 9.96435C23.1971 9.92713 23.0989 9.90865 23.0001 9.91ZM22.2501 12.62C21.4056 12.7924 20.6462 13.2504 20.0998 13.917C19.5534 14.5836 19.2533 15.4181 19.2501 16.28V17.44C19.2501 18.1853 18.954 18.9 18.427 19.427C17.9001 19.9539 17.1853 20.25 16.4401 20.25H7.58007C6.83481 20.25 6.12008 19.9539 5.5931 19.427C5.06612 18.9 4.77007 18.1853 4.77007 17.44V16.28C4.7668 15.4181 4.46671 14.5836 3.92032 13.917C3.37392 13.2504 2.61457 12.7924 1.77007 12.62V11.33C2.61457 11.1576 3.37392 10.6996 3.92032 10.033C4.46671 9.36639 4.7668 8.53191 4.77007 7.67V6.56C4.77007 5.81474 5.06612 5.10001 5.5931 4.57303C6.12008 4.04605 6.83481 3.75 7.58007 3.75H16.4201C16.7891 3.75 17.1545 3.82268 17.4954 3.9639C17.8363 4.10511 18.1461 4.3121 18.407 4.57303C18.668 4.83396 18.875 5.14373 19.0162 5.48466C19.1574 5.82558 19.2301 6.19099 19.2301 6.56V7.67C19.2333 8.53191 19.5334 9.36639 20.0798 10.033C20.6262 10.6996 21.3856 11.1576 22.2301 11.33L22.2501 12.62ZM15.4701 10C15.4701 9.63014 15.3971 9.26392 15.2552 8.92235C15.1134 8.58077 14.9055 8.27055 14.6435 8.00949C14.3815 7.74842 14.0706 7.54165 13.7285 7.40102C13.3864 7.2604 13.0199 7.18868 12.6501 7.19H9.75007C9.55288 7.18998 9.36361 7.26763 9.22324 7.40612C9.08287 7.54462 9.0027 7.73283 9.00007 7.93V16.18C9.00007 16.3789 9.07909 16.5697 9.21974 16.7103C9.36039 16.851 9.55116 16.93 9.75007 16.93H12.6501C13.0199 16.9313 13.3864 16.8596 13.7285 16.719C14.0706 16.5784 14.3815 16.3716 14.6435 16.1105C14.9055 15.8495 15.1134 15.5392 15.2552 15.1977C15.3971 14.8561 15.4701 14.4899 15.4701 14.12C15.4692 13.7314 15.3869 13.3473 15.2284 12.9925C15.07 12.6377 14.8389 12.32 14.5501 12.06C14.837 11.7985 15.0667 11.4805 15.2251 11.126C15.3834 10.7715 15.4668 10.3882 15.4701 10ZM14.0001 14.12C13.9974 14.4683 13.8572 14.8015 13.6099 15.0469C13.3627 15.2923 13.0284 15.43 12.6801 15.43H10.5001V12.81H12.6501C12.8254 12.8046 13.0001 12.8346 13.1637 12.898C13.3273 12.9614 13.4764 13.0571 13.6023 13.1793C13.7283 13.3014 13.8283 13.4477 13.8967 13.6093C13.965 13.7709 14.0002 13.9445 14.0001 14.12ZM10.5001 11.31V8.68H12.6501C12.8324 8.66409 13.016 8.68626 13.1893 8.74512C13.3626 8.80397 13.5218 8.89822 13.6567 9.02188C13.7917 9.14554 13.8994 9.29591 13.9731 9.46344C14.0468 9.63096 14.0849 9.81198 14.0849 9.995C14.0849 10.178 14.0468 10.359 13.9731 10.5266C13.8994 10.6941 13.7917 10.8445 13.6567 10.9681C13.5218 11.0918 13.3626 11.186 13.1893 11.2449C13.016 11.3037 12.8324 11.3259 12.6501 11.31H10.5001Z" fill="black"/>
</svg>
