<svg width="24" height="24" viewBox="0 0 24 24" fill="none" xmlns="http://www.w3.org/2000/svg">
<path d="M22.8299 9.78994C22.889 9.14699 22.8208 8.49869 22.6291 7.88215C22.4373 7.26562 22.1259 6.69295 21.7125 6.19694C21.2992 5.70093 20.7921 5.29131 20.2202 4.99153C19.6483 4.69176 19.023 4.50772 18.3799 4.44994C18.2599 4.44994 18.1299 4.44994 17.9999 4.44994H16.3899V4.14994C16.3899 3.4312 16.1044 2.74191 15.5962 2.23368C15.0879 1.72546 14.3986 1.43994 13.6799 1.43994H10.2899C9.57713 1.44248 8.89384 1.72472 8.38702 2.22592C7.88021 2.72712 7.59039 3.40723 7.57991 4.11994V4.41994H6.04991C5.40512 4.42125 4.7669 4.54955 4.1717 4.79752C3.57649 5.04548 3.03595 5.40825 2.58094 5.86512C2.12594 6.32198 1.76537 6.86399 1.51983 7.4602C1.2743 8.05641 1.1486 8.69515 1.14991 9.33994C1.14991 9.50994 1.14991 9.67994 1.14991 9.84994L1.33991 11.5999L2.03991 18.1899C2.16825 19.3949 2.73762 20.5098 3.63851 21.3203C4.53939 22.1307 5.70814 22.5794 6.91991 22.5799H17.1699C18.3956 22.5847 19.5785 22.1289 20.4841 21.3029C21.3897 20.4769 21.9521 19.3409 22.0599 18.1199L22.6899 11.3599L22.8299 9.78994ZM9.07991 4.11994C9.08253 3.79984 9.21085 3.49359 9.4372 3.26723C9.66356 3.04088 9.96981 2.91255 10.2899 2.90994H13.6799C14.0008 2.90994 14.3086 3.03742 14.5355 3.26434C14.7624 3.49126 14.8899 3.79903 14.8899 4.11994V4.41994H9.07991V4.11994ZM17.9999 5.91994C18.9105 5.92787 19.7808 6.29654 20.4201 6.94513C21.0593 7.59372 21.4152 8.46931 21.4099 9.37994C21.4149 9.46987 21.4149 9.56001 21.4099 9.64994L21.3199 10.6499C19.3595 12.1276 17.0391 13.053 14.5999 13.3299V10.7099H9.17991V13.2799C6.87913 13.0015 4.68346 12.1562 2.78991 10.8199L2.66991 9.68994C2.63989 9.45423 2.63989 9.21566 2.66991 8.97994C2.75843 8.14351 3.15208 7.36903 3.77561 6.80454C4.39914 6.24004 5.20883 5.92511 6.04991 5.91994H17.9999ZM10.6799 12.2099H12.9999V13.8399C13.0012 13.9209 12.9864 14.0013 12.9564 14.0765C12.9263 14.1516 12.8816 14.22 12.8248 14.2778C12.768 14.3355 12.7003 14.3813 12.6257 14.4126C12.551 14.4438 12.4709 14.46 12.3899 14.4599H11.2999C11.1398 14.4627 10.9851 14.4023 10.8691 14.2919C10.7531 14.1815 10.6851 14.03 10.6799 13.8699V12.2099ZM17.2199 21.0799H6.93991C6.09312 21.0833 5.27591 20.7686 4.65 20.1983C4.02409 19.6279 3.63507 18.8434 3.55991 17.9999L2.99991 12.7399C4.98281 13.864 7.17414 14.5717 9.43991 14.8199C9.61118 15.1689 9.8755 15.4637 10.2037 15.6719C10.5319 15.8801 10.9113 15.9937 11.2999 15.9999H12.4099C12.7926 16.0004 13.1681 15.8964 13.4959 15.699C13.8237 15.5016 14.0913 15.2184 14.2699 14.8799C16.6764 14.6417 18.9995 13.8696 21.0699 12.6199L20.5599 17.9999C20.487 18.8469 20.0976 19.6353 19.4693 20.208C18.841 20.7807 18.02 21.0956 17.1699 21.0899L17.2199 21.0799Z" fill="black"/>
</svg>
