<svg width="24" height="24" viewBox="0 0 24 24" fill="none" xmlns="http://www.w3.org/2000/svg">
<path d="M13.0802 13.86L13.6502 13.27C13.7428 13.2065 13.8199 13.123 13.8759 13.0258C13.9319 12.9285 13.9653 12.8198 13.9738 12.7079C13.9822 12.596 13.9654 12.4836 13.9246 12.379C13.8838 12.2744 13.82 12.1803 13.738 12.1037C13.656 12.027 13.5578 11.9697 13.4507 11.9361C13.3436 11.9024 13.2303 11.8933 13.1192 11.9092C13.0081 11.9252 12.902 11.9659 12.8087 12.0284C12.7154 12.0908 12.6373 12.1734 12.5802 12.27L12.0302 12.83L11.4802 12.27C11.3397 12.1677 11.1681 12.1172 10.9945 12.1274C10.821 12.1376 10.6564 12.2077 10.5289 12.3258C10.4013 12.4439 10.3188 12.6026 10.2953 12.7749C10.2718 12.9471 10.3089 13.1221 10.4002 13.27L10.9802 13.86L10.4002 14.45C10.2996 14.5573 10.2322 14.6914 10.2062 14.8362C10.1803 14.9809 10.1969 15.1301 10.2541 15.2656C10.3113 15.4011 10.4065 15.5171 10.5283 15.5995C10.6501 15.682 10.7932 15.7273 10.9402 15.73C11.1433 15.7266 11.337 15.6441 11.4802 15.5L12.0302 14.94L12.5802 15.5C12.6505 15.5723 12.7344 15.6298 12.8271 15.6693C12.9198 15.7088 13.0194 15.7294 13.1202 15.73C13.2664 15.7254 13.4081 15.6788 13.5285 15.5956C13.6488 15.5124 13.7425 15.3963 13.7985 15.2612C13.8544 15.126 13.8702 14.9776 13.8439 14.8337C13.8176 14.6899 13.7503 14.5566 13.6502 14.45L13.0802 13.86Z" fill="black"/>
<path d="M21.5702 6.00004C21.1143 5.50791 20.5622 5.11463 19.9481 4.84457C19.334 4.57451 18.671 4.43342 18.0002 4.43004H16.3902V4.13004C16.3902 3.41131 16.1047 2.72201 15.5965 2.21378C15.0882 1.70556 14.3989 1.42004 13.6802 1.42004H10.2902C9.57146 1.42004 8.88216 1.70556 8.37393 2.21378C7.86571 2.72201 7.58019 3.41131 7.58019 4.13004V4.43004H6.05019C5.36174 4.43038 4.68105 4.57549 4.05231 4.85596C3.42358 5.13642 2.86085 5.54598 2.40066 6.05803C1.94048 6.57008 1.59312 7.17319 1.38113 7.82819C1.16915 8.4832 1.09728 9.17546 1.17019 9.86004L1.36019 11.61L2.06019 18.2C2.18853 19.405 2.7579 20.5199 3.65879 21.3304C4.55967 22.1408 5.72842 22.5895 6.94019 22.59H17.1702C18.3953 22.5925 19.5768 22.1359 20.482 21.3104C21.3871 20.4848 21.9502 19.3502 22.0602 18.13L22.6902 11.37L22.8302 9.80004C22.9002 9.1136 22.8241 8.42012 22.6069 7.76519C22.3897 7.11026 22.0364 6.5087 21.5702 6.00004ZM9.08019 4.13004C9.08019 3.80913 9.20767 3.50136 9.43459 3.27444C9.66151 3.04753 9.96928 2.92004 10.2902 2.92004H13.6802C14.0011 2.92004 14.3089 3.04753 14.5358 3.27444C14.7627 3.50136 14.8902 3.80913 14.8902 4.13004V4.43004H9.08019V4.13004ZM20.5602 18C20.4874 18.848 20.0983 19.6375 19.4703 20.2118C18.8423 20.7861 18.0212 21.1032 17.1702 21.1H6.94019C6.09089 21.1007 5.2723 20.7824 4.64639 20.2084C4.02048 19.6343 3.63285 18.8462 3.56019 18L3.00019 12.76C4.32616 13.5125 5.75441 14.0683 7.24019 14.41C7.31861 15.6191 7.85421 16.7531 8.73826 17.5817C9.62231 18.4102 10.7885 18.8713 12.0002 18.8713C13.2118 18.8713 14.3781 18.4102 15.2621 17.5817C16.1462 16.7531 16.6818 15.6191 16.7602 14.41C18.2828 14.0412 19.7397 13.4409 21.0802 12.63L20.5602 18ZM8.69019 14C8.69019 13.3478 8.88349 12.7102 9.24566 12.1677C9.60782 11.6252 10.1226 11.2023 10.725 10.9522C11.3275 10.7021 11.9905 10.6362 12.6303 10.7627C13.2702 10.8893 13.8582 11.2026 14.3201 11.6631C14.782 12.1236 15.0971 12.7107 15.2256 13.3501C15.354 13.9896 15.2901 14.6528 15.0419 15.256C14.7936 15.8592 14.3722 16.3752 13.8308 16.739C13.2895 17.1028 12.6524 17.2981 12.0002 17.3C11.566 17.3014 11.1358 17.217 10.7343 17.0517C10.3327 16.8865 9.96777 16.6436 9.66027 16.337C9.35278 16.0305 9.10881 15.6662 8.94234 15.2652C8.77588 14.8642 8.69019 14.4342 8.69019 14ZM21.2502 10.62C19.8789 11.6737 18.3067 12.436 16.6302 12.86C16.3851 11.8093 15.7917 10.8724 14.9465 10.2017C14.1013 9.53106 13.0541 9.16603 11.9752 9.16603C10.8963 9.16603 9.84904 9.53106 9.00388 10.2017C8.15872 10.8724 7.56532 11.8093 7.32019 12.86C5.68914 12.4736 4.14996 11.7702 2.79019 10.79L2.67019 9.70004C2.64017 9.46433 2.64017 9.22576 2.67019 8.99004C2.75443 8.1519 3.1468 7.37487 3.77126 6.80953C4.39573 6.24418 5.20783 5.93078 6.05019 5.93004H18.0002C18.4736 5.93375 18.9412 6.03544 19.3734 6.2287C19.8057 6.42197 20.1932 6.70263 20.5116 7.05301C20.8301 7.40339 21.0725 7.81591 21.2237 8.26459C21.3749 8.71327 21.4316 9.18839 21.3902 9.66004L21.2502 10.62Z" fill="black"/>
</svg>
