<svg width="24" height="24" viewBox="0 0 24 24" fill="none" xmlns="http://www.w3.org/2000/svg">
<path d="M10.0002 15.45C9.90335 15.2865 9.87219 15.0922 9.91303 14.9066C9.95387 14.721 10.0637 14.5578 10.2202 14.45L11.3002 13.76V12.61C11.3002 12.4111 11.3792 12.2203 11.5199 12.0797C11.6605 11.939 11.8513 11.86 12.0502 11.86C12.2491 11.86 12.4399 11.939 12.5806 12.0797C12.7212 12.2203 12.8002 12.4111 12.8002 12.61V14.13C12.7988 14.2547 12.7671 14.3772 12.7079 14.4869C12.6487 14.5966 12.5637 14.6904 12.4602 14.76L11.0002 15.67C10.8837 15.7529 10.7431 15.7951 10.6002 15.79C10.4801 15.7863 10.3627 15.7534 10.2582 15.6942C10.1537 15.6349 10.0651 15.5511 10.0002 15.45Z" fill="black"/>
<path d="M21.5702 6.00004C21.1143 5.50791 20.5622 5.11463 19.9481 4.84457C19.334 4.57451 18.671 4.43342 18.0002 4.43004H16.3902V4.13004C16.3902 3.41131 16.1047 2.72201 15.5965 2.21378C15.0882 1.70556 14.3989 1.42004 13.6802 1.42004H10.2902C9.57146 1.42004 8.88216 1.70556 8.37393 2.21378C7.86571 2.72201 7.58019 3.41131 7.58019 4.13004V4.43004H6.05019C5.36174 4.43038 4.68105 4.57549 4.05231 4.85596C3.42358 5.13642 2.86085 5.54598 2.40066 6.05803C1.94048 6.57008 1.59312 7.17319 1.38113 7.82819C1.16915 8.4832 1.09728 9.17546 1.17019 9.86004L1.36019 11.61L2.06019 18.2C2.18853 19.405 2.7579 20.5199 3.65879 21.3304C4.55967 22.1408 5.72842 22.5895 6.94019 22.59H17.1702C18.3953 22.5925 19.5768 22.1359 20.482 21.3104C21.3871 20.4848 21.9502 19.3502 22.0602 18.13L22.6902 11.37L22.8302 9.80004C22.9002 9.1136 22.8241 8.42012 22.6069 7.76519C22.3897 7.11026 22.0364 6.5087 21.5702 6.00004ZM9.08019 4.13004C9.08019 3.80913 9.20767 3.50136 9.43459 3.27444C9.66151 3.04753 9.96928 2.92004 10.2902 2.92004H13.6802C14.0011 2.92004 14.3089 3.04753 14.5358 3.27444C14.7627 3.50136 14.8902 3.80913 14.8902 4.13004V4.43004H9.08019V4.13004ZM20.5602 18C20.4874 18.848 20.0983 19.6375 19.4703 20.2118C18.8423 20.7861 18.0212 21.1032 17.1702 21.1H6.94019C6.09089 21.1007 5.2723 20.7824 4.64639 20.2084C4.02048 19.6343 3.63285 18.8462 3.56019 18L3.00019 12.76C4.35731 13.5359 5.82386 14.1023 7.35019 14.44C7.44409 15.6075 7.97417 16.6968 8.83492 17.4911C9.69567 18.2854 10.824 18.7264 11.9952 18.7264C13.1664 18.7264 14.2947 18.2854 15.1555 17.4911C16.0162 16.6968 16.5463 15.6075 16.6402 14.44C18.2051 14.0658 19.7028 13.4519 21.0802 12.62L20.5602 18ZM8.80019 14C8.79822 13.3691 8.98338 12.7518 9.33225 12.2261C9.68113 11.7004 10.1781 11.29 10.7602 11.0467C11.3423 10.8035 11.9835 10.7383 12.6027 10.8594C13.2219 10.9806 13.7912 11.2826 14.2388 11.7273C14.6863 12.1721 14.9919 12.7395 15.1169 13.3579C15.2419 13.9763 15.1808 14.6179 14.9412 15.2016C14.7016 15.7852 14.2942 16.2847 13.7708 16.6369C13.2473 16.989 12.6311 17.1781 12.0002 17.18C11.5813 17.1814 11.1662 17.1002 10.7787 16.9411C10.3911 16.782 10.0387 16.5481 9.74159 16.2528C9.44444 15.9575 9.20836 15.6066 9.04684 15.22C8.88531 14.8335 8.8015 14.419 8.80019 14ZM21.2502 10.63C19.8498 11.7035 18.243 12.4762 16.5302 12.9C16.2924 11.8714 15.7131 10.9538 14.8868 10.2967C14.0605 9.63961 13.0359 9.2819 11.9802 9.2819C10.9245 9.2819 9.8999 9.63961 9.07359 10.2967C8.24727 10.9538 7.66798 11.8714 7.43019 12.9C5.75944 12.5098 4.18247 11.7927 2.79019 10.79L2.67019 9.70004C2.64017 9.46433 2.64017 9.22576 2.67019 8.99004C2.75443 8.1519 3.1468 7.37487 3.77126 6.80953C4.39573 6.24418 5.20783 5.93078 6.05019 5.93004H18.0002C18.4736 5.93375 18.9412 6.03544 19.3734 6.2287C19.8057 6.42197 20.1932 6.70263 20.5116 7.05301C20.8301 7.40339 21.0725 7.81591 21.2237 8.26459C21.3749 8.71327 21.4316 9.18839 21.3902 9.66004L21.2502 10.63Z" fill="black"/>
</svg>
