<svg width="24" height="24" viewBox="0 0 24 24" fill="none" xmlns="http://www.w3.org/2000/svg">
<path d="M9.93019 14.7C9.7883 14.5582 9.70859 14.3657 9.70859 14.165C9.70859 13.9644 9.7883 13.7719 9.93019 13.63C10.0721 13.4882 10.2645 13.4084 10.4652 13.4084C10.6659 13.4084 10.8583 13.4882 11.0002 13.63L11.4302 14.05L13.0002 12.57C13.1408 12.4296 13.3314 12.3507 13.5302 12.3507C13.7289 12.3507 13.9196 12.4296 14.0602 12.57C14.2006 12.7107 14.2795 12.9013 14.2795 13.1C14.2795 13.2988 14.2006 13.4894 14.0602 13.63L11.9002 15.63C11.766 15.7596 11.5867 15.832 11.4002 15.832C11.2137 15.832 11.0344 15.7596 10.9002 15.63L9.93019 14.7ZM21.5702 6.00004C21.1143 5.50791 20.5622 5.11463 19.9481 4.84457C19.334 4.57451 18.671 4.43342 18.0002 4.43004H16.3902V4.13004C16.3902 3.41131 16.1047 2.72201 15.5965 2.21378C15.0882 1.70556 14.3989 1.42004 13.6802 1.42004H10.2902C9.57146 1.42004 8.88216 1.70556 8.37393 2.21378C7.86571 2.72201 7.58019 3.41131 7.58019 4.13004V4.43004H6.05019C5.36174 4.43038 4.68105 4.57549 4.05231 4.85596C3.42358 5.13642 2.86085 5.54598 2.40066 6.05803C1.94048 6.57008 1.59312 7.17319 1.38113 7.82819C1.16915 8.4832 1.09728 9.17546 1.17019 9.86004L1.36019 11.61L2.06019 18.2C2.18869 19.4041 2.75843 20.5179 3.65955 21.3266C4.56067 22.1354 5.72934 22.5819 6.94019 22.58H17.1702C18.3943 22.585 19.5758 22.1306 20.4812 21.3067C21.3866 20.4828 21.9501 19.3492 22.0602 18.13L22.6902 11.37L22.8302 9.80004C22.9002 9.1136 22.8241 8.42012 22.6069 7.76519C22.3897 7.11026 22.0364 6.5087 21.5702 6.00004ZM9.08019 4.13004C9.08019 3.80913 9.20767 3.50136 9.43459 3.27444C9.66151 3.04753 9.96928 2.92004 10.2902 2.92004H13.6802C14.0011 2.92004 14.3089 3.04753 14.5358 3.27444C14.7627 3.50136 14.8902 3.80913 14.8902 4.13004V4.43004H9.08019V4.13004ZM20.5602 18C20.4873 18.847 20.0979 19.6354 19.4696 20.2081C18.8413 20.7808 18.0203 21.0957 17.1702 21.09H6.94019C6.10649 21.0931 5.30089 20.7889 4.67736 20.2354C4.05383 19.682 3.6561 18.9182 3.56019 18.09L3.00019 12.76C4.35731 13.5359 5.82386 14.1023 7.35019 14.44C7.44409 15.6075 7.97417 16.6968 8.83492 17.4911C9.69567 18.2854 10.824 18.7264 11.9952 18.7264C13.1664 18.7264 14.2947 18.2854 15.1555 17.4911C16.0162 16.6968 16.5463 15.6075 16.6402 14.44C18.2051 14.0658 19.7028 13.4519 21.0802 12.62L20.5602 18ZM8.80019 14C8.79822 13.3691 8.98338 12.7518 9.33225 12.2261C9.68113 11.7004 10.1781 11.29 10.7602 11.0467C11.3423 10.8035 11.9835 10.7383 12.6027 10.8594C13.2219 10.9806 13.7912 11.2826 14.2388 11.7273C14.6863 12.1721 14.9919 12.7395 15.1169 13.3579C15.2419 13.9763 15.1808 14.6179 14.9412 15.2016C14.7016 15.7852 14.2942 16.2847 13.7708 16.6369C13.2473 16.989 12.6311 17.1781 12.0002 17.18C11.5813 17.1814 11.1662 17.1002 10.7787 16.9411C10.3911 16.782 10.0387 16.5481 9.74159 16.2528C9.44444 15.9575 9.20836 15.6066 9.04684 15.22C8.88531 14.8335 8.8015 14.419 8.80019 14ZM21.2502 10.63C19.8498 11.7035 18.243 12.4762 16.5302 12.9C16.2924 11.8714 15.7131 10.9538 14.8868 10.2967C14.0605 9.63961 13.0359 9.2819 11.9802 9.2819C10.9245 9.2819 9.8999 9.63961 9.07359 10.2967C8.24727 10.9538 7.66798 11.8714 7.43019 12.9C5.75944 12.5098 4.18247 11.7927 2.79019 10.79L2.67019 9.70004C2.64017 9.46433 2.64017 9.22576 2.67019 8.99004C2.75443 8.1519 3.1468 7.37487 3.77126 6.80953C4.39573 6.24418 5.20783 5.93078 6.05019 5.93004H18.0002C18.4736 5.93375 18.9412 6.03544 19.3734 6.2287C19.8057 6.42197 20.1932 6.70263 20.5116 7.05301C20.8301 7.40339 21.0725 7.81591 21.2237 8.26459C21.3749 8.71327 21.4316 9.18839 21.3902 9.66004L21.2502 10.63Z" fill="black"/>
</svg>
