<svg width="24" height="24" viewBox="0 0 24 24" fill="none" xmlns="http://www.w3.org/2000/svg">
<path d="M22.0598 2.00005C21.6884 1.62386 21.2006 1.38449 20.6758 1.32093C20.1511 1.25738 19.6202 1.37338 19.1698 1.65005C15.8315 3.63968 12.7829 6.07923 10.1098 8.90005C8.57486 10.4964 7.19841 12.2379 5.9998 14.1001C2.5898 14.6301 1.6098 18.8401 1.2798 20.2601C1.2013 20.5934 1.20973 20.9414 1.30429 21.2706C1.39884 21.5998 1.57635 21.8991 1.8198 22.1401C2.00586 22.3272 2.22712 22.4757 2.47083 22.577C2.71454 22.6782 2.97589 22.7303 3.2398 22.7301C3.39467 22.7338 3.54935 22.717 3.6998 22.6801C5.1198 22.3601 9.2898 21.3901 9.8598 18.0301C11.7346 16.828 13.4893 15.4483 15.0998 13.9101C17.9347 11.2395 20.3879 8.19082 22.3898 4.85005C22.6572 4.40524 22.7699 3.88442 22.7102 3.36885C22.6505 2.85328 22.4218 2.37197 22.0598 2.00005ZM3.3898 21.2201C3.30297 21.2407 3.21229 21.2387 3.12647 21.2142C3.04065 21.1897 2.96259 21.1435 2.8998 21.0801C2.83877 21.0177 2.79406 20.9413 2.76964 20.8576C2.74522 20.7739 2.74184 20.6854 2.7598 20.6001C3.6798 16.6001 5.0898 15.7601 6.1798 15.6001L8.4098 17.8001C8.2298 18.9001 7.3598 20.3101 3.3898 21.2201ZM9.3298 16.6001L7.4098 14.6801C8.38453 13.1998 9.47458 11.7988 10.6698 10.4901L12.0998 11.9201L13.5198 13.3401C12.2156 14.5406 10.8141 15.631 9.3298 16.6001ZM21.1298 4.06005C19.3171 7.07709 17.1297 9.85249 14.6198 12.3201L13.1598 10.8601L11.6998 9.40005C14.173 6.87987 16.963 4.69157 19.9998 2.89005C20.156 2.798 20.3378 2.75896 20.5181 2.77879C20.6983 2.79862 20.8673 2.87624 20.9998 3.00005C21.1394 3.13526 21.2284 3.31421 21.2521 3.50709C21.2757 3.69996 21.2326 3.89512 21.1298 4.06005Z" fill="black"/>
</svg>
