<svg width="24" height="24" viewBox="0 0 24 24" fill="none" xmlns="http://www.w3.org/2000/svg">
<path d="M16.6998 1.25H7.2998C5.70474 1.26579 4.18023 1.90985 3.05699 3.04245C1.93374 4.17506 1.30236 5.70486 1.2998 7.3V16.7C1.30236 18.2951 1.93374 19.8249 3.05699 20.9575C4.18023 22.0902 5.70474 22.7342 7.2998 22.75H16.6998C18.2949 22.7342 19.8194 22.0902 20.9426 20.9575C22.0659 19.8249 22.6973 18.2951 22.6998 16.7V7.3C22.6973 5.70486 22.0659 4.17506 20.9426 3.04245C19.8194 1.90985 18.2949 1.26579 16.6998 1.25ZM21.2398 16.7C21.2398 17.905 20.7618 19.0608 19.9107 19.9138C19.0595 20.7668 17.9048 21.2474 16.6998 21.25H7.2998C6.0948 21.2474 4.94006 20.7668 4.08893 19.9138C3.2378 19.0608 2.7598 17.905 2.7598 16.7V7.3C2.7598 6.095 3.2378 4.9392 4.08893 4.08619C4.94006 3.23319 6.0948 2.75265 7.2998 2.75H16.6998C17.9048 2.75265 19.0595 3.23319 19.9107 4.08619C20.7618 4.9392 21.2398 6.095 21.2398 7.3V16.7ZM15.4498 11.26L11.7198 7.53L9.9998 5.84C9.86353 5.71563 9.6862 5.64585 9.50171 5.644C9.31723 5.64216 9.13854 5.70838 8.9998 5.83C8.85935 5.97063 8.78046 6.16125 8.78046 6.36C8.78046 6.55875 8.85935 6.74937 8.9998 6.89L9.6098 7.51L6.4198 10.66C6.02409 11.0589 5.80205 11.5981 5.80205 12.16C5.80205 12.7219 6.02409 13.2611 6.4198 13.66L8.6798 15.92C8.8767 16.1171 9.11052 16.2735 9.36791 16.3802C9.62529 16.4869 9.90118 16.5419 10.1798 16.5419C10.4584 16.5419 10.7343 16.4869 10.9917 16.3802C11.2491 16.2735 11.4829 16.1171 11.6798 15.92L15.4298 12.17C15.5493 12.0499 15.618 11.8884 15.6218 11.719C15.6255 11.5496 15.5639 11.3853 15.4498 11.26ZM10.6398 14.87C10.5196 14.9886 10.3586 15.0565 10.1898 15.06C10.0206 15.0587 9.85879 14.9903 9.7398 14.87L7.4798 12.61C7.36433 12.4906 7.29978 12.3311 7.29978 12.165C7.29978 11.9989 7.36433 11.8394 7.4798 11.72L10.6298 8.57L10.6898 8.63L13.6898 11.63L10.6398 14.87ZM16.6398 13.06C16.4157 13.0596 16.1945 13.1108 15.9933 13.2096C15.7921 13.3085 15.6164 13.4523 15.4798 13.63C14.8163 14.3782 14.416 15.3229 14.3398 16.32C14.3783 16.9025 14.6368 17.4486 15.063 17.8475C15.4891 18.2465 16.051 18.4684 16.6348 18.4684C17.2186 18.4684 17.7805 18.2465 18.2066 17.8475C18.6328 17.4486 18.8913 16.9025 18.9298 16.32C18.8522 15.3222 18.4561 14.3757 17.7998 13.62C17.6685 13.4422 17.4964 13.2985 17.2981 13.2011C17.0997 13.1036 16.8808 13.0552 16.6598 13.06H16.6398ZM16.6398 17.06C16.4415 17.0683 16.2478 16.9986 16.1002 16.8659C15.9526 16.7332 15.8627 16.5481 15.8498 16.35C15.9425 15.6996 16.2123 15.0873 16.6298 14.58C17.0782 15.0708 17.3615 15.6898 17.4398 16.35C17.4127 16.5372 17.3166 16.7076 17.1705 16.8278C17.0244 16.948 16.8388 17.0094 16.6498 17L16.6398 17.06Z" fill="black"/>
</svg>
