<svg width="24" height="24" viewBox="0 0 24 24" fill="none" xmlns="http://www.w3.org/2000/svg">
<path d="M6.56003 18C7.2929 18.7303 8.28538 19.1404 9.32003 19.1404C10.3547 19.1404 11.3472 18.7303 12.08 18L17.63 12.45C17.7891 12.2911 17.9152 12.1025 18.0013 11.8949C18.0874 11.6873 18.1317 11.4647 18.1317 11.24C18.1317 11.0152 18.0874 10.7926 18.0013 10.585C17.9152 10.3774 17.7891 10.1888 17.63 10.03L11.19 3.56997L11 3.42997L9.45003 1.85997C9.39335 1.76417 9.3155 1.6826 9.22246 1.6215C9.12941 1.5604 9.02362 1.52139 8.91318 1.50746C8.80275 1.49352 8.69058 1.50502 8.58527 1.54108C8.47996 1.57714 8.3843 1.63681 8.30558 1.71552C8.22687 1.79423 8.16721 1.8899 8.13114 1.99521C8.09508 2.10052 8.08358 2.21268 8.09752 2.32312C8.11146 2.43356 8.15047 2.53935 8.21157 2.63239C8.27266 2.72544 8.35423 2.80328 8.45003 2.85997L9.00003 3.41997L8.82003 3.56997L3.22003 9.11997C2.856 9.48153 2.56709 9.91153 2.36994 10.3852C2.17279 10.8589 2.07129 11.3669 2.07129 11.88C2.07129 12.393 2.17279 12.901 2.36994 13.3747C2.56709 13.8484 2.856 14.2784 3.22003 14.64L6.56003 18ZM11 16.93C10.5471 17.377 9.93639 17.6276 9.30003 17.6276C8.66368 17.6276 8.05293 17.377 7.60003 16.93L4.28003 13.58C3.97606 13.2774 3.76151 12.8967 3.66003 12.48L16.05 11.9L11 16.93ZM9.83003 4.63997C9.8488 4.61869 9.87188 4.60164 9.89774 4.58997C9.92361 4.57829 9.95165 4.57225 9.98003 4.57225C10.0084 4.57225 10.0365 4.57829 10.0623 4.58997C10.0882 4.60164 10.1113 4.61869 10.13 4.63997L15.9 10.41L3.75003 11C3.87093 10.7062 4.05139 10.4406 4.28003 10.22L9.83003 4.63997ZM16.72 21.64C16.72 21.8336 16.6431 22.0193 16.5062 22.1562C16.3693 22.2931 16.1836 22.37 15.99 22.37H3.65003C3.45642 22.37 3.27074 22.2931 3.13384 22.1562C2.99694 22.0193 2.92003 21.8336 2.92003 21.64C2.92003 21.4464 2.99694 21.2607 3.13384 21.1238C3.27074 20.9869 3.45642 20.91 3.65003 20.91H16C16.1902 20.9126 16.3718 20.9892 16.5063 21.1237C16.6408 21.2582 16.7174 21.4398 16.72 21.63V21.64ZM20.33 14.27C20.161 14.0501 19.9437 13.872 19.6949 13.7494C19.446 13.6268 19.1724 13.5631 18.895 13.5631C18.6177 13.5631 18.344 13.6268 18.0952 13.7494C17.8464 13.872 17.6291 14.0501 17.46 14.27C16.5569 15.3209 15.9953 16.6219 15.85 18C15.85 18.8062 16.1703 19.5795 16.7404 20.1496C17.3105 20.7197 18.0838 21.04 18.89 21.04C19.6963 21.04 20.4695 20.7197 21.0396 20.1496C21.6097 19.5795 21.93 18.8062 21.93 18C21.8071 16.6151 21.2468 15.3052 20.33 14.26V14.27ZM18.89 19.45C18.6932 19.458 18.4967 19.4266 18.3122 19.3577C18.1276 19.2888 17.9586 19.1838 17.8152 19.0487C17.6718 18.9137 17.5567 18.7513 17.4769 18.5713C17.397 18.3912 17.3539 18.1969 17.35 18C17.4815 16.9423 17.9354 15.9507 18.65 15.16C18.6779 15.1195 18.7152 15.0865 18.7588 15.0638C18.8024 15.0411 18.8509 15.0295 18.9 15.03C18.948 15.0299 18.9954 15.0407 19.0387 15.0615C19.082 15.0823 19.12 15.1125 19.15 15.15C19.8643 15.9427 20.312 16.9395 20.43 18C20.4249 18.1961 20.3808 18.3892 20.3004 18.5682C20.2199 18.7471 20.1047 18.9082 19.9614 19.0422C19.8181 19.1762 19.6496 19.2804 19.4656 19.3487C19.2817 19.417 19.0861 19.448 18.89 19.44V19.45Z" fill="black"/>
</svg>
