<svg width="24" height="24" viewBox="0 0 24 24" fill="none" xmlns="http://www.w3.org/2000/svg">
<path d="M19.8002 12.7499H4.2002C4.00128 12.7499 3.81052 12.6709 3.66987 12.5303C3.52921 12.3896 3.4502 12.1989 3.4502 11.9999C3.4502 11.801 3.52921 11.6103 3.66987 11.4696C3.81052 11.329 4.00128 11.2499 4.2002 11.2499H19.8002C19.9991 11.2499 20.1899 11.329 20.3305 11.4696C20.4712 11.6103 20.5502 11.801 20.5502 11.9999C20.5502 12.1989 20.4712 12.3896 20.3305 12.5303C20.1899 12.6709 19.9991 12.7499 19.8002 12.7499ZM18.2502 18.8099C18.2502 18.611 18.1712 18.4203 18.0305 18.2796C17.8899 18.139 17.6991 18.0599 17.5002 18.0599H6.5002C6.30128 18.0599 6.11052 18.139 5.96987 18.2796C5.82921 18.4203 5.7502 18.611 5.7502 18.8099C5.7502 19.0089 5.82921 19.1996 5.96987 19.3403C6.11052 19.4809 6.30128 19.5599 6.5002 19.5599H17.5002C17.6983 19.5574 17.8876 19.4775 18.0277 19.3374C18.1678 19.1973 18.2476 19.008 18.2502 18.8099ZM18.2502 5.18994C18.2476 4.99183 18.1678 4.80257 18.0277 4.66248C17.8876 4.52238 17.6983 4.44253 17.5002 4.43994H6.5002C6.30128 4.43994 6.11052 4.51896 5.96987 4.65961C5.82921 4.80026 5.7502 4.99103 5.7502 5.18994C5.7502 5.38885 5.82921 5.57962 5.96987 5.72027C6.11052 5.86092 6.30128 5.93994 6.5002 5.93994H17.5002C17.6991 5.93994 17.8899 5.86092 18.0305 5.72027C18.1712 5.57962 18.2502 5.38885 18.2502 5.18994Z" fill="black"/>
</svg>
