<svg width="24" height="24" viewBox="0 0 24 24" fill="none" xmlns="http://www.w3.org/2000/svg">
<path d="M19.8598 14.23H4.25977C4.06085 14.23 3.87009 14.151 3.72944 14.0103C3.58878 13.8697 3.50977 13.6789 3.50977 13.48C3.50977 13.2811 3.58878 13.0903 3.72944 12.9497C3.87009 12.809 4.06085 12.73 4.25977 12.73H19.8598C20.0587 12.73 20.2494 12.809 20.3901 12.9497C20.5307 13.0903 20.6098 13.2811 20.6098 13.48C20.6098 13.6789 20.5307 13.8697 20.3901 14.0103C20.2494 14.151 20.0587 14.23 19.8598 14.23ZM20.6098 20.29C20.6098 20.0911 20.5307 19.9003 20.3901 19.7597C20.2494 19.619 20.0587 19.54 19.8598 19.54H4.25977C4.06085 19.54 3.87009 19.619 3.72944 19.7597C3.58878 19.9003 3.50977 20.0911 3.50977 20.29C3.50977 20.4889 3.58878 20.6797 3.72944 20.8203C3.87009 20.961 4.06085 21.04 4.25977 21.04H19.8598C20.0579 21.0374 20.2471 20.9576 20.3872 20.8175C20.5273 20.6774 20.6072 20.4881 20.6098 20.29ZM20.5498 6.37999C20.5118 6.29074 20.4576 6.20935 20.3898 6.13999L17.8698 3.61999C17.7276 3.48751 17.5395 3.41539 17.3452 3.41882C17.1509 3.42225 16.9656 3.50096 16.8281 3.63837C16.6907 3.77578 16.612 3.96117 16.6086 4.15547C16.6052 4.34977 16.6773 4.53782 16.8098 4.67999L18.0498 5.91999H4.25977C4.06085 5.91999 3.87009 5.99901 3.72944 6.13966C3.58878 6.28032 3.50977 6.47108 3.50977 6.66999C3.50977 6.86891 3.58878 7.05967 3.72944 7.20032C3.87009 7.34098 4.06085 7.41999 4.25977 7.41999H18.0498L16.8098 8.65999C16.6693 8.80062 16.5904 8.99124 16.5904 9.18999C16.5904 9.38874 16.6693 9.57937 16.8098 9.71999C16.8787 9.79057 16.9612 9.84644 17.0522 9.88426C17.1433 9.92207 17.2411 9.94103 17.3398 9.93999C17.4383 9.94046 17.5359 9.92124 17.627 9.88346C17.718 9.84568 17.8005 9.79011 17.8698 9.71999L20.3898 7.19999C20.4538 7.1426 20.5078 7.07502 20.5498 6.99999C20.5953 6.90298 20.6189 6.79714 20.6189 6.68999C20.6189 6.58284 20.5953 6.477 20.5498 6.37999Z" fill="black"/>
</svg>
