<svg width="24" height="24" viewBox="0 0 24 24" fill="none" xmlns="http://www.w3.org/2000/svg">
<path d="M16.0499 22.75H7.99992C6.22379 22.7474 4.52115 22.0406 3.26523 20.7847C2.00931 19.5288 1.30257 17.8261 1.29992 16.05V8C1.29466 7.11631 1.46399 6.24028 1.79822 5.42222C2.13244 4.60416 2.62497 3.86017 3.24751 3.23298C3.87006 2.60578 4.61036 2.10774 5.42592 1.76745C6.24148 1.42715 7.11622 1.2513 7.99992 1.25H16.0999C17.8761 1.26585 19.5734 1.98528 20.82 3.25059C22.0666 4.51589 22.7606 6.22383 22.7499 8V16.1C22.7341 17.8675 22.0216 19.5573 20.7671 20.8024C19.5126 22.0476 17.8174 22.7474 16.0499 22.75ZM7.99992 2.75C7.309 2.74467 6.62392 2.87683 5.98455 3.13879C5.34519 3.40074 4.76431 3.78725 4.27574 4.27582C3.78717 4.76439 3.40066 5.34526 3.13871 5.98463C2.87676 6.62399 2.7446 7.30908 2.74992 8V16.1C2.76576 17.4783 3.32714 18.7942 4.31115 19.7594C5.29515 20.7247 6.62157 21.2607 7.99992 21.25H16.0999C17.4782 21.2474 18.7993 20.6987 19.774 19.724C20.7486 18.7494 21.2973 17.4283 21.2999 16.05V8C21.2973 6.62169 20.7486 5.30058 19.774 4.32596C18.7993 3.35135 17.4782 2.80264 16.0999 2.8L7.99992 2.75ZM7.72992 6.55C7.50052 6.54202 7.27397 6.60288 7.07944 6.72475C6.88491 6.84661 6.73131 7.0239 6.63839 7.2338C6.54547 7.4437 6.5175 7.67661 6.55806 7.90254C6.59863 8.12848 6.70588 8.3371 6.86602 8.50156C7.02616 8.66603 7.23185 8.77881 7.45662 8.82538C7.68139 8.87196 7.91496 8.8502 8.12726 8.76292C8.33957 8.67563 8.52089 8.5268 8.6479 8.33559C8.7749 8.14438 8.84178 7.91954 8.83992 7.69C8.83862 7.53898 8.80757 7.38969 8.74857 7.25067C8.68957 7.11164 8.60376 6.9856 8.49604 6.87974C8.38832 6.77388 8.26081 6.69028 8.12078 6.6337C7.98075 6.57712 7.83095 6.54868 7.67992 6.55H7.72992ZM12.0499 6.55C11.8225 6.55199 11.6007 6.62137 11.4127 6.74938C11.2247 6.87738 11.0789 7.05826 10.9937 7.26915C10.9085 7.48003 10.8877 7.71144 10.9341 7.93412C10.9804 8.1568 11.0917 8.36075 11.2539 8.52017C11.4161 8.67959 11.622 8.78733 11.8454 8.82977C12.0689 8.8722 12.2999 8.84742 12.5093 8.75856C12.7186 8.6697 12.8969 8.52075 13.0217 8.33055C13.1464 8.14035 13.2119 7.91744 13.2099 7.69C13.2088 7.53464 13.1762 7.38112 13.1141 7.23871C13.052 7.0963 12.9616 6.96795 12.8486 6.86141C12.7355 6.75487 12.602 6.67235 12.4561 6.61882C12.3103 6.5653 12.1551 6.54189 11.9999 6.55H12.0499ZM16.3999 6.55C16.1725 6.55199 15.9507 6.62137 15.7627 6.74938C15.5747 6.87738 15.4289 7.05826 15.3437 7.26915C15.2585 7.48003 15.2377 7.71144 15.2841 7.93412C15.3304 8.1568 15.4417 8.36075 15.6039 8.52017C15.7661 8.67959 15.972 8.78733 16.1954 8.82977C16.4189 8.8722 16.6499 8.84742 16.8593 8.75856C17.0686 8.6697 17.2469 8.52075 17.3717 8.33055C17.4964 8.14035 17.5619 7.91744 17.5599 7.69C17.5588 7.53464 17.5262 7.38112 17.4641 7.23871C17.402 7.0963 17.3116 6.96795 17.1986 6.86141C17.0855 6.75487 16.952 6.67235 16.8061 6.61882C16.6603 6.5653 16.5051 6.54189 16.3499 6.55H16.3999ZM7.65992 10.86C7.43249 10.862 7.21075 10.9314 7.02274 11.0594C6.83474 11.1874 6.68892 11.3683 6.60371 11.5791C6.51851 11.79 6.49775 12.0214 6.54406 12.2441C6.59037 12.4668 6.70168 12.6707 6.8639 12.8302C7.02612 12.9896 7.23197 13.0973 7.45542 13.1398C7.67887 13.1822 7.90989 13.1574 8.11925 13.0686C8.32862 12.9797 8.50694 12.8308 8.63166 12.6406C8.75638 12.4503 8.82189 12.2274 8.81992 12C8.81862 11.849 8.78757 11.6997 8.72857 11.5607C8.66957 11.4216 8.58376 11.2956 8.47604 11.1897C8.36832 11.0839 8.24081 11.0003 8.10078 10.9437C7.96075 10.8871 7.81095 10.8587 7.65992 10.86ZM11.9799 10.86C11.7525 10.862 11.5307 10.9314 11.3427 11.0594C11.1547 11.1874 11.0089 11.3683 10.9237 11.5791C10.8385 11.79 10.8177 12.0214 10.8641 12.2441C10.9104 12.4668 11.0217 12.6707 11.1839 12.8302C11.3461 12.9896 11.552 13.0973 11.7754 13.1398C11.9989 13.1822 12.2299 13.1574 12.4393 13.0686C12.6486 12.9797 12.8269 12.8308 12.9517 12.6406C13.0764 12.4503 13.1419 12.2274 13.1399 12C13.1399 11.6977 13.0198 11.4077 12.806 11.1939C12.5922 10.9801 12.3023 10.86 11.9999 10.86H11.9799ZM16.3399 10.86C16.1125 10.862 15.8907 10.9314 15.7027 11.0594C15.5147 11.1874 15.3689 11.3683 15.2837 11.5791C15.1985 11.79 15.1777 12.0214 15.2241 12.2441C15.2704 12.4668 15.3817 12.6707 15.5439 12.8302C15.7061 12.9896 15.912 13.0973 16.1354 13.1398C16.3589 13.1822 16.5899 13.1574 16.7993 13.0686C17.0086 12.9797 17.1869 12.8308 17.3117 12.6406C17.4364 12.4503 17.5019 12.2274 17.4999 12C17.4986 11.849 17.4676 11.6997 17.4086 11.5607C17.3496 11.4216 17.2638 11.2956 17.156 11.1897C17.0483 11.0839 16.9208 11.0003 16.7808 10.9437C16.6407 10.8871 16.4909 10.8587 16.3399 10.86ZM7.64992 15.16C7.42291 15.162 7.20156 15.2311 7.01377 15.3587C6.82597 15.4862 6.68013 15.6665 6.59462 15.8768C6.50911 16.0871 6.48776 16.318 6.53325 16.5404C6.57875 16.7628 6.68906 16.9668 6.85028 17.1266C7.0115 17.2865 7.21642 17.395 7.43922 17.4386C7.66202 17.4821 7.89274 17.4588 8.10229 17.3715C8.31184 17.2841 8.49086 17.1367 8.61679 16.9479C8.74271 16.759 8.80992 16.537 8.80992 16.31C8.80729 16.0041 8.68391 15.7116 8.46665 15.4962C8.2494 15.2808 7.95585 15.16 7.64992 15.16ZM11.9699 15.16C11.7429 15.162 11.5216 15.2311 11.3338 15.3587C11.146 15.4862 11.0001 15.6665 10.9146 15.8768C10.8291 16.0871 10.8078 16.318 10.8533 16.5404C10.8987 16.7628 11.0091 16.9668 11.1703 17.1266C11.3315 17.2865 11.5364 17.395 11.7592 17.4386C11.982 17.4821 12.2127 17.4588 12.4223 17.3715C12.6318 17.2841 12.8109 17.1367 12.9368 16.9479C13.0627 16.759 13.1299 16.537 13.1299 16.31C13.1274 16.0092 13.0082 15.7212 12.7974 15.5066C12.5865 15.292 12.3006 15.1678 11.9999 15.16H11.9699ZM16.3199 15.16C16.0929 15.162 15.8716 15.2311 15.6838 15.3587C15.496 15.4862 15.3501 15.6665 15.2646 15.8768C15.1791 16.0871 15.1578 16.318 15.2033 16.5404C15.2487 16.7628 15.3591 16.9668 15.5203 17.1266C15.6815 17.2865 15.8864 17.395 16.1092 17.4386C16.332 17.4821 16.5627 17.4588 16.7723 17.3715C16.9818 17.2841 17.1609 17.1367 17.2868 16.9479C17.4127 16.759 17.4799 16.537 17.4799 16.31C17.4773 16.0041 17.3539 15.7116 17.1367 15.4962C16.9194 15.2808 16.6258 15.16 16.3199 15.16Z" fill="black"/>
</svg>
