<svg width="24" height="24" viewBox="0 0 24 24" fill="none" xmlns="http://www.w3.org/2000/svg">
<path d="M16.0499 22.75H7.99992C6.22379 22.7474 4.52115 22.0406 3.26523 20.7847C2.00931 19.5288 1.30257 17.8261 1.29992 16.05V8C1.29466 7.11631 1.46399 6.24028 1.79822 5.42222C2.13244 4.60416 2.62497 3.86017 3.24751 3.23298C3.87006 2.60578 4.61036 2.10774 5.42592 1.76745C6.24148 1.42715 7.11622 1.2513 7.99992 1.25H16.0999C17.8761 1.26585 19.5734 1.98528 20.82 3.25059C22.0666 4.51589 22.7606 6.22383 22.7499 8V16.1C22.7341 17.8675 22.0216 19.5573 20.7671 20.8024C19.5126 22.0476 17.8174 22.7474 16.0499 22.75ZM7.99992 2.75C7.309 2.74467 6.62392 2.87683 5.98455 3.13879C5.34519 3.40074 4.76431 3.78725 4.27574 4.27582C3.78717 4.76439 3.40066 5.34526 3.13871 5.98463C2.87676 6.62399 2.7446 7.30908 2.74992 8V16.1C2.76576 17.4783 3.32714 18.7942 4.31115 19.7594C5.29515 20.7247 6.62157 21.2607 7.99992 21.25H16.0999C17.4782 21.2474 18.7993 20.6987 19.774 19.724C20.7486 18.7494 21.2973 17.4283 21.2999 16.05V8C21.2973 6.62169 20.7486 5.30058 19.774 4.32596C18.7993 3.35135 17.4782 2.80264 16.0999 2.8L7.99992 2.75ZM17.4999 7.53C17.5013 7.43114 17.4828 7.33301 17.4456 7.2414C17.4084 7.1498 17.3532 7.06659 17.2833 6.99667C17.2133 6.92676 17.1301 6.87156 17.0385 6.83435C16.9469 6.79714 16.8488 6.77866 16.7499 6.78H13.3399C13.141 6.78 12.9502 6.85902 12.8096 6.99967C12.6689 7.14032 12.5899 7.33109 12.5899 7.53C12.5899 7.72891 12.6689 7.91968 12.8096 8.06033C12.9502 8.20098 13.141 8.28 13.3399 8.28H16.6999C16.8988 8.28 17.0896 8.20098 17.2303 8.06033C17.3709 7.91968 17.4499 7.72891 17.4499 7.53H17.4999ZM17.4999 12C17.4999 11.8011 17.4209 11.6103 17.2803 11.4697C17.1396 11.329 16.9488 11.25 16.7499 11.25H8.23992C8.04101 11.25 7.85025 11.329 7.70959 11.4697C7.56894 11.6103 7.48992 11.8011 7.48992 12C7.48992 12.1989 7.56894 12.3897 7.70959 12.5303C7.85025 12.671 8.04101 12.75 8.23992 12.75H16.6999C16.8988 12.75 17.0896 12.671 17.2303 12.5303C17.3709 12.3897 17.4499 12.1989 17.4499 12H17.4999ZM17.2299 16.47C17.2273 16.2719 17.1475 16.0826 17.0074 15.9425C16.8673 15.8024 16.678 15.7226 16.4799 15.72H10.6999C10.501 15.72 10.3102 15.799 10.1696 15.9397C10.0289 16.0803 9.94992 16.2711 9.94992 16.47C9.94992 16.6689 10.0289 16.8597 10.1696 17.0003C10.3102 17.141 10.501 17.22 10.6999 17.22H16.4299C16.6288 17.22 16.8196 17.141 16.9603 17.0003C17.1009 16.8597 17.1799 16.6689 17.1799 16.47H17.2299Z" fill="black"/>
</svg>
