<svg width="24" height="24" viewBox="0 0 24 24" fill="none" xmlns="http://www.w3.org/2000/svg">
<path d="M12 22.75C9.87386 22.75 7.79545 22.1195 6.02762 20.9383C4.2598 19.7571 2.88194 18.0782 2.0683 16.1139C1.25466 14.1495 1.04177 11.9881 1.45656 9.90278C1.87135 7.81749 2.89519 5.90202 4.39861 4.39861C5.90202 2.89519 7.81749 1.87135 9.90278 1.45656C11.9881 1.04177 14.1495 1.25466 16.1139 2.0683C18.0782 2.88194 19.7571 4.2598 20.9383 6.02762C22.1195 7.79545 22.75 9.87386 22.75 12C22.7474 14.8503 21.6139 17.583 19.5985 19.5985C17.583 21.6139 14.8503 22.7474 12 22.75ZM12 2.75C10.1705 2.75 8.38213 3.29251 6.86098 4.30891C5.33983 5.32531 4.15423 6.76997 3.45412 8.46018C2.75401 10.1504 2.57083 12.0103 2.92774 13.8046C3.28465 15.5989 4.16563 17.2471 5.45927 18.5407C6.7529 19.8344 8.40109 20.7154 10.1954 21.0723C11.9897 21.4292 13.8496 21.246 15.5398 20.5459C17.23 19.8458 18.6747 18.6602 19.6911 17.139C20.7075 15.6179 21.25 13.8295 21.25 12C21.2474 9.54756 20.272 7.19633 18.5378 5.46219C16.8037 3.72805 14.4524 2.75265 12 2.75ZM14.86 12C14.86 11.8011 14.781 11.6103 14.6403 11.4697C14.4997 11.329 14.3089 11.25 14.11 11.25H9.89001C9.69109 11.25 9.50033 11.329 9.35967 11.4697C9.21902 11.6103 9.14001 11.8011 9.14001 12C9.14001 12.1989 9.21902 12.3897 9.35967 12.5303C9.50033 12.671 9.69109 12.75 9.89001 12.75H14.11C14.3089 12.75 14.4997 12.671 14.6403 12.5303C14.781 12.3897 14.86 12.1989 14.86 12ZM16.7 15.45C16.7004 15.2595 16.6283 15.0759 16.4983 14.9366C16.3683 14.7973 16.1901 14.7127 16 14.7H8.05C7.85109 14.7 7.66033 14.779 7.51967 14.9197C7.37902 15.0603 7.3 15.2511 7.3 15.45C7.3 15.6489 7.37902 15.8397 7.51967 15.9803C7.66033 16.121 7.85109 16.2 8.05 16.2H16C16.1893 16.185 16.3661 16.0997 16.4956 15.9609C16.6252 15.8221 16.6981 15.6399 16.7 15.45ZM16.7 8.55C16.6981 8.36015 16.6252 8.17788 16.4956 8.03907C16.3661 7.90027 16.1893 7.81498 16 7.8H8.05C7.85109 7.8 7.66033 7.87902 7.51967 8.01967C7.37902 8.16033 7.3 8.35109 7.3 8.55C7.3 8.74892 7.37902 8.93968 7.51967 9.08033C7.66033 9.22099 7.85109 9.3 8.05 9.3H16C16.1901 9.2873 16.3683 9.20271 16.4983 9.06341C16.6283 8.92411 16.7004 8.74055 16.7 8.55Z" fill="black"/>
</svg>
