<svg width="24" height="24" viewBox="0 0 24 24" fill="none" xmlns="http://www.w3.org/2000/svg">
<path d="M4.99981 7.59011C4.48259 7.5802 3.97989 7.41741 3.55505 7.12224C3.13022 6.82708 2.80227 6.41275 2.61254 5.93149C2.42282 5.45023 2.37981 4.92358 2.48893 4.41791C2.59805 3.91224 2.85443 3.4502 3.22574 3.09001C3.59705 2.72982 4.06668 2.48762 4.57544 2.39392C5.08419 2.30022 5.60929 2.35923 6.08456 2.56351C6.55983 2.76778 6.96399 3.10818 7.2461 3.54179C7.5282 3.97541 7.67564 4.48283 7.66981 5.00011C7.66459 5.3455 7.59139 5.68647 7.45438 6.00357C7.31738 6.32066 7.11924 6.60766 6.8713 6.84817C6.62336 7.08868 6.33047 7.278 6.00936 7.4053C5.68824 7.5326 5.3452 7.5954 4.99981 7.59011ZM4.99981 3.86011C4.78155 3.8699 4.57092 3.94331 4.39386 4.07131C4.2168 4.1993 4.08104 4.37629 4.0033 4.58047C3.92557 4.78465 3.90924 5.0071 3.95635 5.22044C4.00345 5.43378 4.11192 5.62869 4.2684 5.78116C4.42488 5.93363 4.62254 6.037 4.83703 6.07854C5.05152 6.12009 5.27348 6.098 5.47557 6.01498C5.67766 5.93197 5.85106 5.79166 5.97441 5.61133C6.09777 5.43101 6.16569 5.21855 6.16981 5.00011C6.17125 4.84745 6.14175 4.69608 6.08308 4.55513C6.02441 4.41419 5.93779 4.2866 5.82845 4.18006C5.7191 4.07352 5.5893 3.99024 5.44688 3.93525C5.30446 3.88026 5.15238 3.8547 4.99981 3.86011ZM11.9998 7.59011C11.4846 7.57237 10.986 7.403 10.5665 7.10323C10.1471 6.80345 9.82541 6.38659 9.64178 5.90484C9.45815 5.42309 9.42074 4.89787 9.53422 4.39496C9.6477 3.89204 9.90704 3.43379 10.2798 3.07758C10.6525 2.72137 11.122 2.48304 11.6295 2.39243C12.1371 2.30183 12.66 2.36298 13.133 2.56822C13.6059 2.77347 14.0078 3.11369 14.2883 3.54627C14.5688 3.97886 14.7154 4.48458 14.7098 5.00011C14.7019 5.69324 14.4196 6.35499 13.9248 6.84043C13.43 7.32587 12.763 7.59544 12.0698 7.59011H11.9998ZM11.9998 3.86011C11.7838 3.87757 11.5776 3.95729 11.406 4.08961C11.2345 4.22194 11.105 4.40118 11.0332 4.60563C10.9615 4.81007 10.9506 5.03093 11.0019 5.24144C11.0531 5.45195 11.1643 5.64308 11.322 5.79165C11.4797 5.94023 11.6771 6.03987 11.8903 6.07851C12.1035 6.11715 12.3233 6.09312 12.5231 6.00934C12.723 5.92556 12.8942 5.78563 13.0161 5.60649C13.1379 5.42736 13.2052 5.21672 13.2098 5.00011C13.2125 4.84965 13.1849 4.7002 13.1286 4.56066C13.0722 4.42112 12.9884 4.29437 12.8819 4.18797C12.7755 4.08156 12.6488 3.99769 12.5093 3.94136C12.3697 3.88503 12.2203 3.8574 12.0698 3.86011H11.9998ZM19.0998 7.59011C18.5846 7.57237 18.086 7.403 17.6665 7.10323C17.2471 6.80345 16.9254 6.38659 16.7418 5.90484C16.5582 5.42309 16.5207 4.89787 16.6342 4.39496C16.7477 3.89204 17.007 3.43379 17.3798 3.07758C17.7525 2.72137 18.222 2.48304 18.7295 2.39243C19.2371 2.30183 19.76 2.36298 20.233 2.56822C20.7059 2.77347 21.1078 3.11369 21.3883 3.54627C21.6688 3.97886 21.8154 4.48458 21.8098 5.00011C21.7993 5.69241 21.5162 6.35263 21.0219 6.83751C20.5277 7.32239 19.8622 7.59282 19.1698 7.59011H19.0998ZM19.0998 3.86011C18.8838 3.87757 18.6776 3.95729 18.506 4.08961C18.3345 4.22194 18.205 4.40118 18.1332 4.60563C18.0615 4.81007 18.0506 5.03093 18.1019 5.24144C18.1531 5.45195 18.2643 5.64308 18.422 5.79165C18.5797 5.94023 18.7771 6.03987 18.9903 6.07851C19.2035 6.11715 19.4233 6.09312 19.6231 6.00934C19.823 5.92556 19.9942 5.78563 20.1161 5.60649C20.2379 5.42736 20.3052 5.21672 20.3098 5.00011C20.3111 4.85003 20.2826 4.70119 20.2257 4.56227C20.1689 4.42336 20.085 4.29716 19.9789 4.19103C19.8728 4.08491 19.7466 4.00098 19.6076 3.94417C19.4687 3.88735 19.3199 3.85877 19.1698 3.86011H19.0998ZM4.99981 14.6301C4.48292 14.6262 3.97874 14.4694 3.55074 14.1796C3.12274 13.8897 2.79004 13.4798 2.59451 13.0013C2.39898 12.5228 2.34936 11.9971 2.45189 11.4905C2.55442 10.9838 2.80453 10.5189 3.17073 10.1541C3.53693 9.78924 4.00286 9.5409 4.50988 9.44029C5.0169 9.33968 5.54235 9.3913 6.0201 9.58864C6.49785 9.78599 6.90655 10.1202 7.19476 10.5493C7.48298 10.9784 7.63782 11.4832 7.63981 12.0001C7.63716 12.6985 7.35785 13.3675 6.86304 13.8604C6.36823 14.3533 5.69825 14.6301 4.99981 14.6301ZM4.99981 10.8901C4.70277 10.8901 4.41789 11.0081 4.20785 11.2181C3.99781 11.4282 3.87981 11.7131 3.87981 12.0101C3.87981 12.3071 3.99781 12.592 4.20785 12.8021C4.41789 13.0121 4.70277 13.1301 4.99981 13.1301C5.29685 13.1301 5.58173 13.0121 5.79177 12.8021C6.00181 12.592 6.11981 12.3071 6.11981 12.0101C6.11981 11.7131 6.00181 11.4282 5.79177 11.2181C5.58173 11.0081 5.29685 10.8901 4.99981 10.8901ZM12.0498 14.6301C11.5329 14.6262 11.0287 14.4694 10.6007 14.1796C10.1727 13.8897 9.84004 13.4798 9.64451 13.0013C9.44898 12.5228 9.39935 11.9971 9.50189 11.4905C9.60442 10.9838 9.85453 10.5189 10.2207 10.1541C10.5869 9.78924 11.0529 9.5409 11.5599 9.44029C12.0669 9.33968 12.5923 9.3913 13.0701 9.58864C13.5478 9.78599 13.9565 10.1202 14.2448 10.5493C14.533 10.9784 14.6878 11.4832 14.6898 12.0001C14.6898 12.3463 14.6215 12.6891 14.4887 13.0089C14.3559 13.3286 14.1612 13.619 13.916 13.8633C13.6707 14.1077 13.3796 14.3012 13.0593 14.4328C12.7391 14.5644 12.396 14.6314 12.0498 14.6301ZM12.0498 10.8901C11.8288 10.8941 11.6138 10.9633 11.4321 11.0892C11.2504 11.2151 11.1099 11.392 11.0285 11.5975C10.9471 11.8031 10.9284 12.0281 10.9746 12.2443C11.0209 12.4605 11.1301 12.6581 11.2885 12.8124C11.4469 12.9666 11.6474 13.0705 11.8648 13.111C12.0821 13.1515 12.3066 13.1267 12.5099 13.0399C12.7132 12.953 12.8862 12.8079 13.0072 12.6229C13.1282 12.4379 13.1917 12.2212 13.1898 12.0001C13.182 11.703 13.0584 11.4207 12.8455 11.2133C12.6325 11.006 12.347 10.89 12.0498 10.8901ZM19.1398 14.6301C18.6229 14.6262 18.1187 14.4694 17.6907 14.1796C17.2627 13.8897 16.93 13.4798 16.7345 13.0013C16.539 12.5228 16.4894 11.9971 16.5919 11.4905C16.6944 10.9838 16.9445 10.5189 17.3107 10.1541C17.6769 9.78924 18.1429 9.5409 18.6499 9.44029C19.1569 9.33968 19.6823 9.3913 20.1601 9.58864C20.6378 9.78599 21.0466 10.1202 21.3348 10.5493C21.623 10.9784 21.7778 11.4832 21.7798 12.0001C21.7798 12.3463 21.7115 12.6891 21.5787 13.0089C21.4459 13.3286 21.2512 13.619 21.006 13.8633C20.7607 14.1077 20.4696 14.3012 20.1493 14.4328C19.8291 14.5644 19.486 14.6314 19.1398 14.6301ZM19.1398 10.8901C18.9188 10.8941 18.7038 10.9633 18.5221 11.0892C18.3404 11.2151 18.1999 11.392 18.1185 11.5975C18.0371 11.8031 18.0184 12.0281 18.0646 12.2443C18.1109 12.4605 18.2201 12.6581 18.3785 12.8124C18.5369 12.9666 18.7374 13.0705 18.9548 13.111C19.1721 13.1515 19.3966 13.1267 19.5999 13.0399C19.8032 12.953 19.9762 12.8079 20.0972 12.6229C20.2182 12.4379 20.2817 12.2212 20.2798 12.0001C20.2745 11.7022 20.1518 11.4183 19.9383 11.2104C19.7248 11.0026 19.4378 10.8874 19.1398 10.8901ZM4.99981 21.6401C4.48248 21.6401 3.97673 21.4869 3.54631 21.1999C3.1159 20.9129 2.78009 20.5049 2.58122 20.0273C2.38234 19.5497 2.3293 19.024 2.42878 18.5163C2.52827 18.0086 2.77582 17.5417 3.14023 17.1745C3.50465 16.8073 3.96962 16.5563 4.47652 16.4529C4.98343 16.3496 5.50958 16.3986 5.98866 16.5938C6.46773 16.7891 6.87829 17.1218 7.16857 17.55C7.45885 17.9782 7.61586 18.4828 7.61981 19.0001C7.62245 19.3458 7.55663 19.6887 7.42614 20.0089C7.29566 20.3291 7.10309 20.6203 6.85953 20.8657C6.61598 21.1111 6.32626 21.3059 6.00708 21.4388C5.6879 21.5717 5.34556 21.6401 4.99981 21.6401ZM4.99981 17.9101C4.77703 17.9102 4.55934 17.9767 4.37456 18.1011C4.18979 18.2256 4.04632 18.4023 3.9625 18.6087C3.87869 18.8151 3.85833 19.0418 3.90403 19.2599C3.94973 19.4779 4.05942 19.6774 4.21907 19.8327C4.37872 19.9881 4.58108 20.0924 4.80028 20.1321C5.01948 20.1719 5.24555 20.1454 5.44961 20.056C5.65366 19.9666 5.82643 19.8184 5.94581 19.6303C6.06519 19.4422 6.12577 19.2228 6.11981 19.0001C6.10951 18.7091 5.98729 18.4333 5.77863 18.2303C5.56996 18.0272 5.29097 17.9125 4.99981 17.9101ZM11.9998 21.6401C11.4843 21.6322 10.9825 21.4724 10.5574 21.1806C10.1322 20.8889 9.80264 20.4781 9.60987 19.9999C9.41711 19.5217 9.36973 18.9972 9.47369 18.4922C9.57764 17.9872 9.8283 17.524 10.1943 17.1608C10.5602 16.7976 11.0252 16.5504 11.531 16.4503C12.0368 16.3502 12.5609 16.4015 13.0377 16.5979C13.5145 16.7942 13.9227 17.1269 14.2112 17.5542C14.4998 17.9815 14.6558 18.4845 14.6598 19.0001C14.6612 19.3489 14.5931 19.6944 14.4597 20.0166C14.3262 20.3388 14.13 20.6313 13.8825 20.877C13.6349 21.1227 13.341 21.3166 13.0178 21.4477C12.6946 21.5787 12.3485 21.6441 11.9998 21.6401ZM11.9998 17.9101C11.7789 17.9181 11.5653 17.9912 11.3859 18.1204C11.2065 18.2495 11.0693 18.4288 10.9916 18.6358C10.914 18.8427 10.8992 19.068 10.9494 19.2833C10.9995 19.4986 11.1122 19.6942 11.2732 19.8456C11.4343 19.9969 11.6366 20.0973 11.8546 20.1339C12.0726 20.1705 12.2965 20.1418 12.4982 20.0514C12.6999 19.961 12.8704 19.813 12.9881 19.6259C13.1058 19.4388 13.1656 19.2211 13.1598 19.0001C13.1494 18.7021 13.0216 18.4204 12.8043 18.2162C12.587 18.012 12.2979 17.902 11.9998 17.9101ZM19.0998 21.6401C18.5843 21.6322 18.0825 21.4724 17.6574 21.1806C17.2322 20.8889 16.9026 20.4781 16.7099 19.9999C16.5171 19.5217 16.4697 18.9972 16.5737 18.4922C16.6776 17.9872 16.9283 17.524 17.2943 17.1608C17.6602 16.7976 18.1252 16.5504 18.631 16.4503C19.1368 16.3502 19.6609 16.4015 20.1377 16.5979C20.6145 16.7942 21.0227 17.1269 21.3112 17.5542C21.5998 17.9815 21.7558 18.4845 21.7598 19.0001C21.7625 19.3475 21.696 19.692 21.5643 20.0135C21.4325 20.335 21.2382 20.6271 20.9925 20.8728C20.7468 21.1185 20.4547 21.3128 20.1332 21.4446C19.8117 21.5763 19.4672 21.6428 19.1198 21.6401H19.0998ZM19.0998 17.9101C18.8789 17.9181 18.6653 17.9912 18.4859 18.1204C18.3065 18.2495 18.1693 18.4288 18.0916 18.6358C18.014 18.8427 17.9992 19.068 18.0494 19.2833C18.0995 19.4986 18.2122 19.6942 18.3732 19.8456C18.5343 19.9969 18.7366 20.0973 18.9546 20.1339C19.1726 20.1705 19.3965 20.1418 19.5982 20.0514C19.7999 19.961 19.9704 19.813 20.0881 19.6259C20.2058 19.4388 20.2656 19.2211 20.2598 19.0001C20.2494 18.7057 20.1244 18.4269 19.9114 18.2233C19.6985 18.0197 19.4144 17.9073 19.1198 17.9101H19.0998Z" fill="black"/>
</svg>
