<svg width="24" height="24" viewBox="0 0 24 24" fill="none" xmlns="http://www.w3.org/2000/svg">
<path d="M17.5002 12.7499H6.5002C6.30128 12.7499 6.11052 12.6709 5.96987 12.5303C5.82921 12.3896 5.7502 12.1989 5.7502 11.9999C5.7502 11.801 5.82921 11.6103 5.96987 11.4696C6.11052 11.329 6.30128 11.2499 6.5002 11.2499H17.5002C17.6991 11.2499 17.8899 11.329 18.0305 11.4696C18.1712 11.6103 18.2502 11.801 18.2502 11.9999C18.2502 12.1989 18.1712 12.3896 18.0305 12.5303C17.8899 12.6709 17.6991 12.7499 17.5002 12.7499ZM20.5502 18.8099C20.5502 18.611 20.4712 18.4203 20.3305 18.2796C20.1899 18.139 19.9991 18.0599 19.8002 18.0599H4.2002C4.00128 18.0599 3.81052 18.139 3.66987 18.2796C3.52921 18.4203 3.4502 18.611 3.4502 18.8099C3.4502 19.0089 3.52921 19.1996 3.66987 19.3403C3.81052 19.4809 4.00128 19.5599 4.2002 19.5599H19.8002C19.9983 19.5574 20.1876 19.4775 20.3277 19.3374C20.4678 19.1973 20.5476 19.008 20.5502 18.8099ZM20.5502 5.18994C20.5476 4.99183 20.4678 4.80257 20.3277 4.66248C20.1876 4.52238 19.9983 4.44253 19.8002 4.43994H4.2002C4.00128 4.43994 3.81052 4.51896 3.66987 4.65961C3.52921 4.80026 3.4502 4.99103 3.4502 5.18994C3.4502 5.38885 3.52921 5.57962 3.66987 5.72027C3.81052 5.86092 4.00128 5.93994 4.2002 5.93994H19.8002C19.9991 5.93994 20.1899 5.86092 20.3305 5.72027C20.4712 5.57962 20.5502 5.38885 20.5502 5.18994Z" fill="black"/>
</svg>
