<svg width="24" height="24" viewBox="0 0 24 24" fill="none" xmlns="http://www.w3.org/2000/svg">
<path d="M17.31 1.25H6.69C5.77766 1.25 4.90268 1.61243 4.25755 2.25755C3.61243 2.90268 3.25 3.77766 3.25 4.69V19.31C3.25 20.2223 3.61243 21.0973 4.25755 21.7424C4.90268 22.3876 5.77766 22.75 6.69 22.75H17.31C18.2223 22.75 19.0973 22.3876 19.7424 21.7424C20.3876 21.0973 20.75 20.2223 20.75 19.31V4.69C20.75 4.23825 20.661 3.79093 20.4881 3.37357C20.3153 2.95621 20.0619 2.57699 19.7424 2.25755C19.423 1.93812 19.0438 1.68473 18.6264 1.51185C18.2091 1.33898 17.7617 1.25 17.31 1.25ZM4.75 8.75H19.25V12.25H4.75V8.75ZM19.25 19.31C19.25 19.8245 19.0456 20.318 18.6818 20.6818C18.318 21.0456 17.8245 21.25 17.31 21.25H6.69C6.43524 21.25 6.18297 21.1998 5.94759 21.1023C5.71222 21.0048 5.49836 20.8619 5.31821 20.6818C4.95439 20.318 4.75 19.8245 4.75 19.31V13.75H19.25V19.31ZM4.75 7.25V4.69C4.75 4.17548 4.95439 3.68203 5.31821 3.31821C5.68203 2.95439 6.17548 2.75 6.69 2.75H17.31C17.8245 2.75 18.318 2.95439 18.6818 3.31821C19.0456 3.68203 19.25 4.17548 19.25 4.69V7.25H4.75ZM14.53 5.75H9.66C9.46109 5.75 9.27032 5.67098 9.12967 5.53033C8.98902 5.38968 8.91 5.19891 8.91 5C8.91 4.80109 8.98902 4.61032 9.12967 4.46967C9.27032 4.32902 9.46109 4.25 9.66 4.25H14.53C14.7289 4.25 14.9197 4.32902 15.0603 4.46967C15.201 4.61032 15.28 4.80109 15.28 5C15.28 5.19891 15.201 5.38968 15.0603 5.53033C14.9197 5.67098 14.7289 5.75 14.53 5.75ZM9.25 17.5C9.25 17.7472 9.17669 17.9889 9.03934 18.1945C8.90199 18.4 8.70676 18.5602 8.47835 18.6549C8.24995 18.7495 7.99861 18.7742 7.75614 18.726C7.51366 18.6777 7.29093 18.5587 7.11612 18.3839C6.9413 18.2091 6.82225 17.9863 6.77402 17.7439C6.72579 17.5014 6.75054 17.2501 6.84515 17.0216C6.93976 16.7932 7.09998 16.598 7.30554 16.4607C7.5111 16.3233 7.75277 16.25 8 16.25C8.33152 16.25 8.64946 16.3817 8.88388 16.6161C9.1183 16.8505 9.25 17.1685 9.25 17.5ZM17.25 17.5C17.25 17.7472 17.1767 17.9889 17.0393 18.1945C16.902 18.4 16.7068 18.5602 16.4784 18.6549C16.2499 18.7495 15.9986 18.7742 15.7561 18.726C15.5137 18.6777 15.2909 18.5587 15.1161 18.3839C14.9413 18.2091 14.8222 17.9863 14.774 17.7439C14.7258 17.5014 14.7505 17.2501 14.8452 17.0216C14.9398 16.7932 15.1 16.598 15.3055 16.4607C15.5111 16.3233 15.7528 16.25 16 16.25C16.3315 16.25 16.6495 16.3817 16.8839 16.6161C17.1183 16.8505 17.25 17.1685 17.25 17.5Z" fill="black"/>
</svg>
