<svg width="24" height="24" viewBox="0 0 24 24" fill="none" xmlns="http://www.w3.org/2000/svg">
<path d="M16.93 22.75H7.07C5.79166 22.75 4.56567 22.2422 3.66175 21.3383C2.75782 20.4343 2.25 19.2083 2.25 17.93V6.07C2.25 4.79166 2.75782 3.56567 3.66175 2.66175C4.56567 1.75782 5.79166 1.25 7.07 1.25H16.93C17.563 1.25 18.1897 1.37467 18.7745 1.6169C19.3593 1.85913 19.8907 2.21417 20.3383 2.66175C20.7858 3.10932 21.1409 3.64068 21.3831 4.22547C21.6253 4.81026 21.75 5.43703 21.75 6.07V17.93C21.75 18.563 21.6253 19.1897 21.3831 19.7745C21.1409 20.3593 20.7858 20.8907 20.3383 21.3383C19.8907 21.7858 19.3593 22.1409 18.7745 22.3831C18.1897 22.6253 17.563 22.75 16.93 22.75ZM7.07 2.75C6.18948 2.75 5.34503 3.09978 4.72241 3.72241C4.09978 4.34503 3.75 5.18948 3.75 6.07V17.93C3.75 18.366 3.83587 18.7977 4.00272 19.2005C4.16957 19.6033 4.41411 19.9693 4.72241 20.2776C5.0307 20.5859 5.39669 20.8304 5.79949 20.9973C6.20229 21.1641 6.63401 21.25 7.07 21.25H16.93C17.366 21.25 17.7977 21.1641 18.2005 20.9973C18.6033 20.8304 18.9693 20.5859 19.2776 20.2776C19.5859 19.9693 19.8304 19.6033 19.9973 19.2005C20.1641 18.7977 20.25 18.366 20.25 17.93V6.07C20.25 5.18948 19.9002 4.34503 19.2776 3.72241C18.655 3.09978 17.8105 2.75 16.93 2.75H7.07ZM16.26 11.75H7.74C7.08042 11.7474 6.44861 11.4842 5.98221 11.0178C5.51582 10.5514 5.25263 9.91958 5.25 9.26V6.74C5.25263 6.08042 5.51582 5.44861 5.98221 4.98221C6.44861 4.51582 7.08042 4.25263 7.74 4.25H16.26C16.9196 4.25263 17.5514 4.51582 18.0178 4.98221C18.4842 5.44861 18.7474 6.08042 18.75 6.74V9.26C18.7474 9.91958 18.4842 10.5514 18.0178 11.0178C17.5514 11.4842 16.9196 11.7474 16.26 11.75ZM7.74 5.75C7.47478 5.75 7.22043 5.85536 7.03289 6.04289C6.84536 6.23043 6.74 6.48478 6.74 6.75V9.26C6.74 9.52522 6.84536 9.77957 7.03289 9.96711C7.22043 10.1546 7.47478 10.26 7.74 10.26H16.26C16.5252 10.26 16.7796 10.1546 16.9671 9.96711C17.1546 9.77957 17.26 9.52522 17.26 9.26V6.74C17.26 6.47478 17.1546 6.22043 16.9671 6.03289C16.7796 5.84536 16.5252 5.74 16.26 5.74L7.74 5.75ZM16.5 14.33C16.3022 14.33 16.1089 14.3886 15.9444 14.4985C15.78 14.6084 15.6518 14.7646 15.5761 14.9473C15.5004 15.13 15.4806 15.3311 15.5192 15.5251C15.5578 15.7191 15.653 15.8973 15.7929 16.0371C15.9327 16.177 16.1109 16.2722 16.3049 16.3108C16.4989 16.3494 16.7 16.3296 16.8827 16.2539C17.0654 16.1782 17.2216 16.05 17.3315 15.8856C17.4414 15.7211 17.5 15.5278 17.5 15.33C17.5 15.0648 17.3946 14.8104 17.2071 14.6229C17.0196 14.4354 16.7652 14.33 16.5 14.33ZM14.5 16.48C14.3022 16.48 14.1089 16.5386 13.9444 16.6485C13.78 16.7584 13.6518 16.9146 13.5761 17.0973C13.5004 17.28 13.4806 17.4811 13.5192 17.6751C13.5578 17.8691 13.653 18.0473 13.7929 18.1871C13.9327 18.327 14.1109 18.4222 14.3049 18.4608C14.4989 18.4994 14.7 18.4796 14.8827 18.4039C15.0654 18.3282 15.2216 18.2 15.3315 18.0356C15.4414 17.8711 15.5 17.6778 15.5 17.48C15.5 17.3478 15.4738 17.217 15.4229 17.095C15.3721 16.973 15.2975 16.8623 15.2036 16.7693C15.1097 16.6763 14.9982 16.6029 14.8758 16.5532C14.7533 16.5036 14.6222 16.4787 14.49 16.48H14.5ZM10.29 16.41L10.85 15.87C10.9905 15.7294 11.0693 15.5388 11.0693 15.34C11.0693 15.1412 10.9905 14.9506 10.85 14.81C10.7146 14.6827 10.5358 14.6119 10.35 14.6119C10.1642 14.6119 9.98538 14.6827 9.85 14.81L9.23 15.39L8.61 14.81C8.46937 14.6695 8.27875 14.5907 8.08 14.5907C7.88125 14.5907 7.69063 14.6695 7.55 14.81C7.40955 14.9506 7.33066 15.1412 7.33066 15.34C7.33066 15.5388 7.40955 15.7294 7.55 15.87L8.11 16.41L7.55 16.94C7.43879 17.0431 7.36144 17.1774 7.32814 17.3254C7.29484 17.4733 7.30716 17.6278 7.36347 17.7686C7.41978 17.9094 7.51745 18.0298 7.64358 18.114C7.76971 18.1981 7.91839 18.2421 8.07 18.24C8.26175 18.2289 8.4414 18.1427 8.57 18L9.19 17.41L9.81 18C9.946 18.134 10.1291 18.2094 10.32 18.21C10.422 18.2111 10.523 18.1903 10.6162 18.1488C10.7093 18.1074 10.7925 18.0464 10.86 17.97C11.0005 17.8294 11.0793 17.6388 11.0793 17.44C11.0793 17.2413 11.0005 17.0506 10.86 16.91L10.29 16.41Z" fill="black"/>
</svg>
