<svg width="24" height="25" viewBox="0 0 24 25" fill="none" xmlns="http://www.w3.org/2000/svg">
<path d="M16.15 23.4301H7.85C6.10038 23.4274 4.42318 22.7312 3.18602 21.494C1.94885 20.2569 1.25264 18.5797 1.25 16.8301V8.53005C1.25264 6.78044 1.94885 5.10324 3.18602 3.86607C4.42318 2.6289 6.10038 1.9327 7.85 1.93005H16.15C17.8996 1.9327 19.5768 2.6289 20.814 3.86607C22.0512 5.10324 22.7474 6.78044 22.75 8.53005V16.8301C22.7474 18.5797 22.0512 20.2569 20.814 21.494C19.5768 22.7312 17.8996 23.4274 16.15 23.4301ZM7.85 3.43005C6.49821 3.4327 5.20254 3.97087 4.24667 4.92673C3.29081 5.88259 2.75264 7.17826 2.75 8.53005V16.8301C2.75264 18.1818 3.29081 19.4775 4.24667 20.4334C5.20254 21.3892 6.49821 21.9274 7.85 21.9301H16.15C17.5018 21.9274 18.7975 21.3892 19.7533 20.4334C20.7092 19.4775 21.2474 18.1818 21.25 16.8301V8.53005C21.2474 7.17826 20.7092 5.88259 19.7533 4.92673C18.7975 3.97087 17.5018 3.4327 16.15 3.43005H7.85ZM16.31 11.4801H7.62C6.88708 11.4774 6.18509 11.1844 5.66778 10.6652C5.15046 10.146 4.86 9.44297 4.86 8.71005V8.08005C4.86 7.34713 5.15046 6.64408 5.66778 6.1249C6.18509 5.60571 6.88708 5.3127 7.62 5.31005H16.31C17.0446 5.31005 17.7492 5.60189 18.2687 6.12137C18.7882 6.64084 19.08 7.3454 19.08 8.08005V8.71005C19.08 9.4447 18.7882 10.1493 18.2687 10.6687C17.7492 11.1882 17.0446 11.4801 16.31 11.4801ZM7.62 6.81005C7.45369 6.81005 7.28902 6.84297 7.1355 6.90691C6.98197 6.97086 6.84262 7.06456 6.72549 7.18263C6.60836 7.30069 6.51576 7.44077 6.45303 7.5948C6.3903 7.74883 6.35868 7.91375 6.36 8.08005V8.71005C6.356 8.87803 6.38563 9.0451 6.44716 9.20145C6.50869 9.3578 6.60087 9.50027 6.71827 9.62047C6.83567 9.74066 6.97593 9.83617 7.13079 9.90136C7.28565 9.96654 7.45198 10.0001 7.62 10.0001H16.31C16.6468 10.0001 16.9699 9.86625 17.208 9.62808C17.4462 9.38991 17.58 9.06688 17.58 8.73005V8.08005C17.58 7.74323 17.4462 7.4202 17.208 7.18203C16.9699 6.94386 16.6468 6.81005 16.31 6.81005H7.62ZM7.52 13.3401C7.37169 13.2997 7.21609 13.2942 7.06527 13.3238C6.91446 13.3533 6.77249 13.4173 6.6504 13.5106C6.5283 13.604 6.42937 13.7242 6.36127 13.862C6.29317 13.9997 6.25775 14.1514 6.25775 14.3051C6.25775 14.4587 6.29317 14.6104 6.36127 14.7481C6.42937 14.8859 6.5283 15.0061 6.6504 15.0995C6.77249 15.1928 6.91446 15.2568 7.06527 15.2864C7.21609 15.3159 7.37169 15.3104 7.52 15.2701C7.66831 15.3104 7.82391 15.3159 7.97473 15.2864C8.12554 15.2568 8.26751 15.1928 8.3896 15.0995C8.5117 15.0061 8.61063 14.8859 8.67873 14.7481C8.74683 14.6104 8.78225 14.4587 8.78225 14.3051C8.78225 14.1514 8.74683 13.9997 8.67873 13.862C8.61063 13.7242 8.5117 13.604 8.3896 13.5106C8.26751 13.4173 8.12554 13.3533 7.97473 13.3238C7.82391 13.2942 7.66831 13.2997 7.52 13.3401ZM12.75 13.3401C12.5522 13.3401 12.3589 13.3987 12.1944 13.5086C12.03 13.6185 11.9018 13.7746 11.8261 13.9574C11.7504 14.1401 11.7306 14.3412 11.7692 14.5351C11.8078 14.7291 11.903 14.9073 12.0429 15.0472C12.1827 15.187 12.3609 15.2823 12.5549 15.3208C12.7489 15.3594 12.95 15.3396 13.1327 15.2639C13.3154 15.1882 13.4716 15.0601 13.5815 14.8956C13.6914 14.7312 13.75 14.5378 13.75 14.3401C13.75 14.0748 13.6446 13.8205 13.4571 13.6329C13.2696 13.4454 13.0152 13.3401 12.75 13.3401ZM7.52 17.0001C7.32222 17.0001 7.12888 17.0587 6.96443 17.1686C6.79998 17.2785 6.67181 17.4346 6.59612 17.6174C6.52043 17.8001 6.50063 18.0012 6.53921 18.1951C6.5778 18.3891 6.67304 18.5673 6.81289 18.7072C6.95275 18.847 7.13093 18.9423 7.32491 18.9808C7.51889 19.0194 7.71996 18.9996 7.90268 18.9239C8.08541 18.8482 8.24159 18.7201 8.35147 18.5556C8.46135 18.3912 8.52 18.1978 8.52 18.0001C8.52 17.7348 8.41464 17.4805 8.22711 17.2929C8.03957 17.1054 7.78522 17.0001 7.52 17.0001ZM12.75 17.0001C12.5522 17.0001 12.3589 17.0587 12.1944 17.1686C12.03 17.2785 11.9018 17.4346 11.8261 17.6174C11.7504 17.8001 11.7306 18.0012 11.7692 18.1951C11.8078 18.3891 11.903 18.5673 12.0429 18.7072C12.1827 18.847 12.3609 18.9423 12.5549 18.9808C12.7489 19.0194 12.95 18.9996 13.1327 18.9239C13.3154 18.8482 13.4716 18.7201 13.5815 18.5556C13.6914 18.3912 13.75 18.1978 13.75 18.0001C13.75 17.7348 13.6446 17.4805 13.4571 17.2929C13.2696 17.1054 13.0152 17.0001 12.75 17.0001ZM17.93 18.3201V14.0001C17.93 13.8011 17.851 13.6104 17.7103 13.4697C17.5697 13.3291 17.3789 13.2501 17.18 13.2501C16.9811 13.2501 16.7903 13.3291 16.6497 13.4697C16.509 13.6104 16.43 13.8011 16.43 14.0001V18.3501C16.43 18.549 16.509 18.7397 16.6497 18.8804C16.7903 19.021 16.9811 19.1001 17.18 19.1001C17.3789 19.1001 17.5697 19.021 17.7103 18.8804C17.851 18.7397 17.93 18.549 17.93 18.3501V18.3201Z" fill="black"/>
</svg>
