<svg width="24" height="24" viewBox="0 0 24 24" fill="none" xmlns="http://www.w3.org/2000/svg">
<path d="M16.7698 2.72V2C16.7698 1.80109 16.6908 1.61032 16.5501 1.46967C16.4095 1.32902 16.2187 1.25 16.0198 1.25C15.8209 1.25 15.6301 1.32902 15.4895 1.46967C15.3488 1.61032 15.2698 1.80109 15.2698 2V2.69H8.7598V2C8.7598 1.80109 8.68078 1.61032 8.54013 1.46967C8.39948 1.32902 8.20871 1.25 8.0098 1.25C7.81089 1.25 7.62012 1.32902 7.47947 1.46967C7.33882 1.61032 7.2598 1.80109 7.2598 2V2.69C6.53632 2.68868 5.81971 2.83037 5.15117 3.10693C4.48263 3.38348 3.87534 3.78946 3.36423 4.3015C2.85311 4.81355 2.44824 5.42157 2.1729 6.09061C1.89755 6.75965 1.75717 7.47652 1.7598 8.2V17.25C1.76245 18.6999 2.3396 20.0897 3.36485 21.115C4.3901 22.1402 5.77988 22.7174 7.2298 22.72H16.7698C18.2197 22.7174 19.6095 22.1402 20.6348 21.115C21.66 20.0897 22.2372 18.6999 22.2398 17.25V8.25C22.2451 7.52736 22.1076 6.8108 21.8353 6.1414C21.563 5.47201 21.1613 4.86295 20.6531 4.34918C20.1449 3.83541 19.5402 3.42702 18.8739 3.14745C18.2075 2.86787 17.4925 2.72261 16.7698 2.72ZM7.2298 4.22V4.84C7.2298 5.03891 7.30882 5.22968 7.44947 5.37033C7.59012 5.51098 7.78089 5.59 7.9798 5.59C8.17871 5.59 8.36948 5.51098 8.51013 5.37033C8.65078 5.22968 8.7298 5.03891 8.7298 4.84V4.22H15.2298V4.84C15.2298 5.03891 15.3088 5.22968 15.4495 5.37033C15.5901 5.51098 15.7809 5.59 15.9798 5.59C16.1787 5.59 16.3695 5.51098 16.5101 5.37033C16.6508 5.22968 16.7298 5.03891 16.7298 4.84V4.22C17.7907 4.22 18.8081 4.64143 19.5582 5.39157C20.3084 6.14172 20.7298 7.15913 20.7298 8.22V16.84H3.2598V8.2C3.26503 7.14778 3.68467 6.14 4.42777 5.39502C5.17088 4.65004 6.1776 4.22788 7.2298 4.22ZM16.7698 21.22H7.2298C6.36861 21.2101 5.53361 20.9226 4.84896 20.4001C4.16431 19.8776 3.66659 19.1481 3.4298 18.32H20.5698C20.333 19.1481 19.8353 19.8776 19.1506 20.4001C18.466 20.9226 17.631 21.2101 16.7698 21.22ZM9.4898 13.36C9.51328 14.0037 9.79034 14.612 10.2605 15.0522C10.7307 15.4925 11.356 15.7289 11.9998 15.71C12.6454 15.7316 13.2731 15.4964 13.7455 15.0558C14.2179 14.6153 14.4963 14.0055 14.5198 13.36C14.518 13.0375 14.4475 12.7191 14.313 12.4259C14.1785 12.1328 13.9831 11.8717 13.7398 11.66C14.0496 11.2977 14.2198 10.8367 14.2198 10.36C14.2198 9.77122 13.9859 9.20655 13.5696 8.79022C13.1532 8.37389 12.5886 8.14 11.9998 8.14C11.411 8.14 10.8464 8.37389 10.43 8.79022C10.0137 9.20655 9.7798 9.77122 9.7798 10.36C9.77977 10.8367 9.94999 11.2977 10.2598 11.66C10.0183 11.8726 9.82477 12.1341 9.69202 12.4272C9.55927 12.7203 9.49034 13.0383 9.4898 13.36ZM12.0098 14.21C11.7686 14.2127 11.5346 14.1282 11.3508 13.972C11.1671 13.8158 11.046 13.5985 11.0098 13.36C11.0438 13.1197 11.1639 12.9 11.3479 12.7418C11.5319 12.5835 11.7671 12.4976 12.0098 12.5C12.2525 12.4976 12.4877 12.5835 12.6717 12.7418C12.8557 12.9 12.9758 13.1197 13.0098 13.36C12.9734 13.6002 12.8508 13.8189 12.665 13.9753C12.4791 14.1318 12.2427 14.2152 11.9998 14.21H12.0098ZM12.0098 9.75C12.1854 9.73875 12.3586 9.79602 12.4928 9.90978C12.6271 10.0235 12.712 10.1849 12.7298 10.36C12.7013 10.5304 12.6133 10.6851 12.4815 10.7967C12.3497 10.9083 12.1825 10.9696 12.0098 10.9696C11.8371 10.9696 11.6699 10.9083 11.5381 10.7967C11.4063 10.6851 11.3183 10.5304 11.2898 10.36C11.3075 10.1867 11.391 10.0269 11.5231 9.91339C11.6552 9.7999 11.8259 9.74141 11.9998 9.75H12.0098Z" fill="black"/>
</svg>
