<svg width="24" height="24" viewBox="0 0 24 24" fill="none" xmlns="http://www.w3.org/2000/svg">
<path d="M9.24012 13.6901C9.2461 13.8657 9.19936 14.0391 9.10593 14.188C9.01249 14.3368 8.87664 14.4542 8.71586 14.5252C8.55509 14.5961 8.37676 14.6173 8.20384 14.586C8.03093 14.5547 7.87135 14.4723 7.74565 14.3495C7.61996 14.2267 7.53391 14.0691 7.49859 13.8969C7.46327 13.7248 7.48029 13.546 7.54747 13.3836C7.61465 13.2213 7.72891 13.0827 7.87552 12.9859C8.02214 12.889 8.1944 12.8382 8.37012 12.8401C8.48306 12.8388 8.59515 12.8597 8.7 12.9017C8.80484 12.9437 8.90039 13.006 8.98117 13.0849C9.06196 13.1638 9.12641 13.2579 9.17084 13.3618C9.21527 13.4656 9.23881 13.5772 9.24012 13.6901ZM12.4901 13.6901C12.4941 13.863 12.4465 14.0331 12.3533 14.1788C12.2602 14.3245 12.1257 14.4391 11.9671 14.508C11.8086 14.5769 11.633 14.597 11.463 14.5658C11.2929 14.5345 11.136 14.4532 11.0124 14.3324C10.8887 14.2116 10.8038 14.0566 10.7686 13.8873C10.7334 13.7181 10.7494 13.5421 10.8146 13.382C10.8798 13.2218 10.9913 13.0848 11.1348 12.9882C11.2782 12.8917 11.4472 12.8402 11.6201 12.8401C11.7331 12.8388 11.8451 12.8597 11.95 12.9017C12.0548 12.9437 12.1504 13.006 12.2312 13.0849C12.312 13.1638 12.3764 13.2579 12.4208 13.3618C12.4653 13.4656 12.4888 13.5772 12.4901 13.6901ZM9.23012 16.9201C9.207 17.1361 9.10485 17.3358 8.94332 17.481C8.78179 17.6261 8.57229 17.7064 8.35512 17.7064C8.13795 17.7064 7.92844 17.6261 7.76691 17.481C7.60538 17.3358 7.50323 17.1361 7.48012 16.9201C7.50323 16.7042 7.60538 16.5044 7.76691 16.3593C7.92844 16.2141 8.13795 16.1338 8.35512 16.1338C8.57229 16.1338 8.78179 16.2141 8.94332 16.3593C9.10485 16.5044 9.207 16.7042 9.23012 16.9201ZM18.3801 23.6501C17.4407 23.6501 16.5223 23.3715 15.7412 22.8496C14.96 22.3277 14.3512 21.5858 13.9917 20.7179C13.6322 19.8499 13.5381 18.8948 13.7214 17.9734C13.9047 17.052 14.3571 16.2057 15.0214 15.5414C15.6857 14.8771 16.532 14.4247 17.4534 14.2414C18.3748 14.0581 19.3299 14.1522 20.1979 14.5117C21.0658 14.8712 21.8077 15.48 22.3296 16.2612C22.8515 17.0423 23.1301 17.9607 23.1301 18.9001C23.1275 20.1591 22.6262 21.3657 21.736 22.256C20.8457 23.1462 19.6391 23.6475 18.3801 23.6501ZM18.3801 15.6501C17.7373 15.6501 17.109 15.8407 16.5745 16.1978C16.0401 16.555 15.6235 17.0625 15.3775 17.6564C15.1315 18.2503 15.0672 18.9037 15.1926 19.5342C15.318 20.1646 15.6275 20.7437 16.082 21.1982C16.5365 21.6527 17.1156 21.9623 17.7461 22.0877C18.3765 22.2131 19.03 22.1487 19.6238 21.9027C20.2177 21.6567 20.7253 21.2402 21.0824 20.7057C21.4395 20.1713 21.6301 19.5429 21.6301 18.9001C21.6301 18.4733 21.5461 18.0507 21.3827 17.6564C21.2194 17.2621 20.98 16.9038 20.6782 16.602C20.3764 16.3002 20.0181 16.0608 19.6238 15.8975C19.2295 15.7342 18.8069 15.6501 18.3801 15.6501ZM20.6401 18.5501L18.9301 20.7301C18.8597 20.8188 18.77 20.8902 18.6677 20.9387C18.5654 20.9873 18.4533 21.0117 18.3401 21.0101C18.2264 21.0149 18.1133 20.9919 18.0105 20.9431C17.9077 20.8944 17.8183 20.8212 17.7501 20.7301L16.5201 19.1501C16.3981 18.9923 16.3438 18.7925 16.3691 18.5947C16.3944 18.3968 16.4973 18.2171 16.6551 18.0951C16.8129 17.9731 17.0127 17.9188 17.2106 17.9441C17.4084 17.9694 17.5881 18.0723 17.7101 18.2301L18.3401 19.0501L19.4601 17.6201C19.5839 17.4656 19.7637 17.3662 19.9604 17.3438C20.1571 17.3213 20.3547 17.3775 20.5101 17.5001C20.5885 17.5599 20.6542 17.6346 20.7033 17.7201C20.7523 17.8056 20.7839 17.9 20.796 17.9978C20.8081 18.0956 20.8005 18.1948 20.7738 18.2897C20.747 18.3845 20.7016 18.4731 20.6401 18.5501ZM17.1901 3.29012V1.80012C17.1901 1.61447 17.1164 1.43642 16.9851 1.30514C16.8538 1.17387 16.6758 1.10012 16.4901 1.10012C16.3045 1.10012 16.1264 1.17387 15.9951 1.30514C15.8639 1.43642 15.7901 1.61447 15.7901 1.80012V3.06012H15.4801H12.4801V1.80012C12.4919 1.70185 12.4828 1.6022 12.4532 1.50773C12.4237 1.41326 12.3745 1.32613 12.3088 1.25209C12.2431 1.17805 12.1625 1.11878 12.0722 1.07818C11.9819 1.03759 11.8841 1.0166 11.7851 1.0166C11.6861 1.0166 11.5883 1.03759 11.498 1.07818C11.4078 1.11878 11.3271 1.17805 11.2614 1.25209C11.1958 1.32613 11.1465 1.41326 11.117 1.50773C11.0875 1.6022 11.0783 1.70185 11.0901 1.80012V3.00012H7.82012H7.50012V1.80012C7.50012 1.61447 7.42637 1.43642 7.29509 1.30514C7.16382 1.17387 6.98577 1.10012 6.80012 1.10012C6.61447 1.10012 6.43642 1.17387 6.30514 1.30514C6.17387 1.43642 6.10012 1.61447 6.10012 1.80012V3.29012C4.81368 3.65648 3.68113 4.43098 2.8731 5.49693C2.06508 6.56287 1.62533 7.86254 1.62012 9.20012V16.4501C1.62806 18.0874 2.28541 19.6547 3.44785 20.8077C4.61029 21.9608 6.1828 22.6054 7.82012 22.6001H12.6401C12.7307 22.6001 12.8205 22.5823 12.9042 22.5476C12.9879 22.5129 13.0639 22.4621 13.128 22.398C13.1921 22.334 13.2429 22.2579 13.2776 22.1742C13.3123 22.0905 13.3301 22.0007 13.3301 21.9101C13.3301 21.7271 13.2574 21.5516 13.128 21.4222C12.9986 21.2928 12.8231 21.2201 12.6401 21.2201H7.82012C7.19025 21.2241 6.56578 21.1038 5.98247 20.866C5.39915 20.6283 4.86845 20.2779 4.42074 19.8349C3.97303 19.3918 3.6171 18.8648 3.37333 18.284C3.12956 17.7032 3.00273 17.08 3.00012 16.4501V9.89012H20.2701V13.0001C20.2727 13.184 20.3477 13.3595 20.4786 13.4886C20.6096 13.6178 20.7862 13.6901 20.9701 13.6901C21.0616 13.6914 21.1524 13.6746 21.2372 13.6405C21.3221 13.6064 21.3994 13.5558 21.4645 13.4916C21.5296 13.4274 21.5814 13.3509 21.6167 13.2665C21.652 13.1821 21.6701 13.0916 21.6701 13.0001V9.20012C21.6649 7.86254 21.2252 6.56287 20.4171 5.49693C19.6091 4.43098 18.4766 3.65648 17.1901 3.29012ZM3.09012 8.51012C3.21288 7.67524 3.55539 6.888 4.08254 6.22906C4.60969 5.57011 5.30255 5.06316 6.09012 4.76012V5.56012C6.09012 5.74577 6.16387 5.92382 6.29514 6.05509C6.42642 6.18637 6.60447 6.26012 6.79012 6.26012C6.97577 6.26012 7.15382 6.18637 7.28509 6.05509C7.41637 5.92382 7.49012 5.74577 7.49012 5.56012V4.46012C7.60012 4.46012 7.70012 4.46012 7.81012 4.46012H11.1301V5.56012C11.1183 5.65839 11.1275 5.75804 11.157 5.85251C11.1865 5.94697 11.2358 6.0341 11.3014 6.10814C11.3671 6.18219 11.4478 6.24146 11.538 6.28205C11.6283 6.32265 11.7261 6.34363 11.8251 6.34363C11.9241 6.34363 12.0219 6.32265 12.1122 6.28205C12.2025 6.24146 12.2831 6.18219 12.3488 6.10814C12.4145 6.0341 12.4637 5.94697 12.4932 5.85251C12.5228 5.75804 12.5319 5.65839 12.5201 5.56012V4.43012H15.5201H15.8301V5.53012C15.8301 5.71577 15.9039 5.89382 16.0351 6.02509C16.1664 6.15637 16.3445 6.23012 16.5301 6.23012C16.7158 6.23012 16.8938 6.15637 17.0251 6.02509C17.1564 5.89382 17.2301 5.71577 17.2301 5.53012V4.73012C18.0177 5.03316 18.7105 5.54011 19.2377 6.19906C19.7648 6.858 20.1074 7.64524 20.2301 8.48012L3.09012 8.51012Z" fill="black"/>
</svg>
