<svg width="24" height="24" viewBox="0 0 24 24" fill="none" xmlns="http://www.w3.org/2000/svg">
<path d="M8.73 13C8.56233 13.002 8.39898 13.0535 8.26052 13.1481C8.12206 13.2427 8.01467 13.3761 7.95187 13.5316C7.88906 13.6871 7.87365 13.8576 7.90757 14.0219C7.94149 14.1861 8.02322 14.3366 8.14248 14.4545C8.26175 14.5724 8.41321 14.6523 8.57782 14.6843C8.74242 14.7163 8.91281 14.6989 9.06755 14.6343C9.22228 14.5697 9.35445 14.4607 9.44741 14.3212C9.54038 14.1816 9.58999 14.0177 9.59 13.85C9.59001 13.7375 9.5677 13.6262 9.52435 13.5224C9.48101 13.4186 9.41751 13.3244 9.33752 13.2454C9.25752 13.1663 9.16264 13.1039 9.05835 13.0618C8.95407 13.0197 8.84246 12.9987 8.73 13ZM11.94 13C11.7723 13.002 11.609 13.0535 11.4705 13.1481C11.3321 13.2427 11.2247 13.3761 11.1619 13.5316C11.0991 13.6871 11.0837 13.8576 11.1176 14.0219C11.1515 14.1861 11.2332 14.3366 11.3525 14.4545C11.4717 14.5724 11.6232 14.6523 11.7878 14.6843C11.9524 14.7163 12.1228 14.6989 12.2775 14.6343C12.4323 14.5697 12.5645 14.4607 12.6574 14.3212C12.7504 14.1816 12.8 14.0177 12.8 13.85C12.8 13.7375 12.7777 13.6262 12.7344 13.5224C12.691 13.4186 12.6275 13.3244 12.5475 13.2454C12.4675 13.1663 12.3726 13.1039 12.2684 13.0618C12.1641 13.0197 12.0525 12.9987 11.94 13ZM8.72 16.2C8.55233 16.202 8.38898 16.2535 8.25052 16.3481C8.11206 16.4427 8.00467 16.5761 7.94187 16.7316C7.87906 16.8871 7.86365 17.0576 7.89757 17.2219C7.93149 17.3861 8.01322 17.5366 8.13248 17.6545C8.25175 17.7724 8.40321 17.8523 8.56782 17.8843C8.73242 17.9163 8.90281 17.8989 9.05755 17.8343C9.21228 17.7697 9.34445 17.6607 9.43741 17.5212C9.53038 17.3816 9.57999 17.2177 9.58 17.05C9.58546 16.9342 9.56719 16.8185 9.52629 16.7101C9.4854 16.6016 9.42275 16.5026 9.3422 16.4193C9.26165 16.3359 9.1649 16.2699 9.0579 16.2253C8.9509 16.1807 8.83591 16.1585 8.72 16.16V16.2ZM17.54 3.42999V1.93999C17.5196 1.77002 17.4376 1.61343 17.3095 1.49984C17.1814 1.38624 17.0162 1.32351 16.845 1.32351C16.6738 1.32351 16.5086 1.38624 16.3805 1.49984C16.2524 1.61343 16.1704 1.77002 16.15 1.93999V3.20999H15.83H12.89V1.93999C12.89 1.75434 12.8162 1.57629 12.685 1.44502C12.5537 1.31374 12.3757 1.23999 12.19 1.23999C12.0043 1.23999 11.8263 1.31374 11.695 1.44502C11.5638 1.57629 11.49 1.75434 11.49 1.93999V3.18999H8.17H7.85V1.93999C7.82958 1.77002 7.74758 1.61343 7.61951 1.49984C7.49144 1.38624 7.32619 1.32351 7.155 1.32351C6.98381 1.32351 6.81856 1.38624 6.69049 1.49984C6.56242 1.61343 6.48042 1.77002 6.46 1.93999V3.42999C5.17564 3.80046 4.04634 4.57801 3.242 5.64565C2.43766 6.71329 2.0018 8.01327 2 9.34999V16.59C2.0053 18.2273 2.66011 19.7956 3.82068 20.9505C4.98124 22.1055 6.55269 22.7526 8.19 22.75H15.85C17.4804 22.7421 19.0416 22.0902 20.1935 20.9364C21.3454 19.7826 21.9947 18.2204 22 16.59V9.34999C21.9982 8.01327 21.5623 6.71329 20.758 5.64565C19.9537 4.57801 18.8244 3.80046 17.54 3.42999ZM6.46 4.89999V5.70999C6.48042 5.87996 6.56242 6.03655 6.69049 6.15014C6.81856 6.26374 6.98381 6.32647 7.155 6.32647C7.32619 6.32647 7.49144 6.26374 7.61951 6.15014C7.74758 6.03655 7.82958 5.87996 7.85 5.70999V4.60999C7.96 4.60999 8.06 4.60999 8.17 4.60999H11.49V5.70999C11.49 5.89564 11.5638 6.07369 11.695 6.20496C11.8263 6.33624 12.0043 6.40999 12.19 6.40999C12.3757 6.40999 12.5537 6.33624 12.685 6.20496C12.8162 6.07369 12.89 5.89564 12.89 5.70999V4.57999H15.83C15.94 4.57999 16.04 4.57999 16.15 4.57999V5.67999C16.1704 5.84996 16.2524 6.00655 16.3805 6.12014C16.5086 6.23374 16.6738 6.29647 16.845 6.29647C17.0162 6.29647 17.1814 6.23374 17.3095 6.12014C17.4376 6.00655 17.5196 5.84996 17.54 5.67999V4.89999C18.3259 5.20568 19.0171 5.71341 19.5439 6.37187C20.0707 7.03033 20.4143 7.81618 20.54 8.64999H3.44C3.56754 7.81397 3.91414 7.02662 4.44458 6.36796C4.97502 5.7093 5.67039 5.20282 6.46 4.89999ZM20.63 16.59C20.6247 17.8586 20.1163 19.0734 19.2164 19.9676C18.3166 20.8619 17.0987 21.3626 15.83 21.36H8.17C6.90134 21.3626 5.68344 20.8619 4.78355 19.9676C3.88366 19.0734 3.37529 17.8586 3.37 16.59V9.99999H20.63V16.59Z" fill="black"/>
</svg>
