<svg width="24" height="24" viewBox="0 0 24 24" fill="none" xmlns="http://www.w3.org/2000/svg">
<path d="M9.19 20.33C8.95273 20.3292 8.7185 20.2765 8.50368 20.1758C8.28886 20.075 8.09862 19.9286 7.94625 19.7467C7.79389 19.5648 7.68307 19.3519 7.62154 19.1227C7.56 18.8936 7.54924 18.6537 7.59 18.42L7.83 17.05C7.88145 16.7418 8.02429 16.4561 8.24 16.23L12.45 11.66C12.6112 11.4848 12.8056 11.3433 13.0219 11.2437C13.2382 11.1442 13.4721 11.0885 13.71 11.08C14.1883 11.0596 14.6553 11.2285 15.01 11.55L15.85 12.33C16.0261 12.4905 16.1682 12.6847 16.2678 12.9012C16.3674 13.1176 16.4226 13.3518 16.43 13.59C16.4399 13.8276 16.4025 14.0649 16.3201 14.288C16.2377 14.5112 16.1119 14.7158 15.95 14.89L11.74 19.46C11.5252 19.6866 11.2517 19.8493 10.95 19.93L9.6 20.28C9.46553 20.3114 9.32807 20.3281 9.19 20.33ZM13.78 12.57C13.6977 12.5785 13.6205 12.6136 13.56 12.67L9.34 17.24L9.07 18.68C9.06123 18.697 9.05665 18.7159 9.05665 18.735C9.05665 18.7541 9.06123 18.773 9.07 18.79C9.07 18.79 9.14 18.79 9.19 18.79L10.53 18.45C10.5494 18.4569 10.5706 18.4569 10.59 18.45L14.81 13.88C14.8374 13.8506 14.8586 13.8159 14.8723 13.7781C14.8861 13.7403 14.8921 13.7002 14.89 13.66C14.8867 13.5764 14.8508 13.4974 14.79 13.44L14 12.66C13.9711 12.6313 13.9367 12.6085 13.899 12.5931C13.8612 12.5776 13.8208 12.5698 13.78 12.57ZM17.54 3.42999V1.93999C17.5196 1.77002 17.4376 1.61343 17.3095 1.49984C17.1814 1.38624 17.0162 1.32351 16.845 1.32351C16.6738 1.32351 16.5086 1.38624 16.3805 1.49984C16.2524 1.61343 16.1704 1.77002 16.15 1.93999V3.20999H15.83H12.89V1.93999C12.89 1.75434 12.8162 1.57629 12.685 1.44502C12.5537 1.31374 12.3757 1.23999 12.19 1.23999C12.0043 1.23999 11.8263 1.31374 11.695 1.44502C11.5638 1.57629 11.49 1.75434 11.49 1.93999V3.18999H8.17H7.85V1.93999C7.82958 1.77002 7.74758 1.61343 7.61951 1.49984C7.49144 1.38624 7.32619 1.32351 7.155 1.32351C6.98381 1.32351 6.81856 1.38624 6.69049 1.49984C6.56242 1.61343 6.48042 1.77002 6.46 1.93999V3.42999C5.17564 3.80046 4.04634 4.57801 3.242 5.64565C2.43766 6.71329 2.0018 8.01327 2 9.34999V16.59C2.0053 18.2273 2.66011 19.7956 3.82068 20.9505C4.98124 22.1055 6.55269 22.7526 8.19 22.75H15.85C17.4804 22.7421 19.0416 22.0902 20.1935 20.9364C21.3454 19.7826 21.9947 18.2204 22 16.59V9.34999C21.9982 8.01327 21.5623 6.71329 20.758 5.64565C19.9537 4.57801 18.8244 3.80046 17.54 3.42999ZM6.46 4.89999V5.70999C6.48042 5.87996 6.56242 6.03655 6.69049 6.15014C6.81856 6.26374 6.98381 6.32647 7.155 6.32647C7.32619 6.32647 7.49144 6.26374 7.61951 6.15014C7.74758 6.03655 7.82958 5.87996 7.85 5.70999V4.60999C7.96 4.60999 8.06 4.60999 8.17 4.60999H11.49V5.70999C11.49 5.89564 11.5638 6.07369 11.695 6.20496C11.8263 6.33624 12.0043 6.40999 12.19 6.40999C12.3757 6.40999 12.5537 6.33624 12.685 6.20496C12.8162 6.07369 12.89 5.89564 12.89 5.70999V4.57999H15.83C15.94 4.57999 16.04 4.57999 16.15 4.57999V5.67999C16.1704 5.84996 16.2524 6.00655 16.3805 6.12014C16.5086 6.23374 16.6738 6.29647 16.845 6.29647C17.0162 6.29647 17.1814 6.23374 17.3095 6.12014C17.4376 6.00655 17.5196 5.84996 17.54 5.67999V4.89999C18.3259 5.20568 19.0171 5.71341 19.5439 6.37187C20.0707 7.03033 20.4143 7.81618 20.54 8.64999H3.44C3.56754 7.81397 3.91414 7.02662 4.44458 6.36796C4.97502 5.7093 5.67039 5.20282 6.46 4.89999ZM20.63 16.59C20.6247 17.8586 20.1163 19.0734 19.2164 19.9676C18.3166 20.8619 17.0987 21.3626 15.83 21.36H8.17C6.90134 21.3626 5.68344 20.8619 4.78355 19.9676C3.88366 19.0734 3.37529 17.8586 3.37 16.59V9.99999H20.63V16.59Z" fill="black"/>
</svg>
