<svg width="24" height="24" viewBox="0 0 24 24" fill="none" xmlns="http://www.w3.org/2000/svg">
<path d="M17.54 3.42999V1.93999C17.5196 1.77002 17.4376 1.61343 17.3095 1.49984C17.1814 1.38624 17.0162 1.32351 16.845 1.32351C16.6738 1.32351 16.5086 1.38624 16.3805 1.49984C16.2524 1.61343 16.1704 1.77002 16.15 1.93999V3.20999H15.83H12.89V1.93999C12.89 1.75434 12.8162 1.57629 12.685 1.44502C12.5537 1.31374 12.3757 1.23999 12.19 1.23999C12.0043 1.23999 11.8263 1.31374 11.695 1.44502C11.5638 1.57629 11.49 1.75434 11.49 1.93999V3.18999H8.17H7.85V1.93999C7.82958 1.77002 7.74758 1.61343 7.61951 1.49984C7.49144 1.38624 7.32619 1.32351 7.155 1.32351C6.98381 1.32351 6.81856 1.38624 6.69049 1.49984C6.56242 1.61343 6.48042 1.77002 6.46 1.93999V3.42999C5.17564 3.80046 4.04634 4.57801 3.242 5.64565C2.43766 6.71329 2.0018 8.01327 2 9.34999V16.59C2.0053 18.2273 2.66011 19.7956 3.82068 20.9505C4.98124 22.1055 6.55269 22.7526 8.19 22.75H15.85C17.4804 22.7421 19.0416 22.0902 20.1935 20.9364C21.3454 19.7826 21.9947 18.2204 22 16.59V9.34999C21.9982 8.01327 21.5623 6.71329 20.758 5.64565C19.9537 4.57801 18.8244 3.80046 17.54 3.42999ZM6.46 4.89999V5.70999C6.48042 5.87996 6.56242 6.03655 6.69049 6.15014C6.81856 6.26374 6.98381 6.32647 7.155 6.32647C7.32619 6.32647 7.49144 6.26374 7.61951 6.15014C7.74758 6.03655 7.82958 5.87996 7.85 5.70999V4.60999C7.96 4.60999 8.06 4.60999 8.17 4.60999H11.49V5.70999C11.49 5.89564 11.5638 6.07369 11.695 6.20496C11.8263 6.33624 12.0043 6.40999 12.19 6.40999C12.3757 6.40999 12.5537 6.33624 12.685 6.20496C12.8162 6.07369 12.89 5.89564 12.89 5.70999V4.57999H15.83C15.94 4.57999 16.04 4.57999 16.15 4.57999V5.67999C16.1704 5.84996 16.2524 6.00655 16.3805 6.12014C16.5086 6.23374 16.6738 6.29647 16.845 6.29647C17.0162 6.29647 17.1814 6.23374 17.3095 6.12014C17.4376 6.00655 17.5196 5.84996 17.54 5.67999V4.89999C18.3259 5.20568 19.0171 5.71341 19.5439 6.37187C20.0707 7.03033 20.4143 7.81618 20.54 8.64999H3.44C3.56754 7.81397 3.91414 7.02662 4.44458 6.36796C4.97502 5.7093 5.67039 5.20282 6.46 4.89999ZM15.83 21.36H8.17C6.90134 21.3626 5.68344 20.8619 4.78355 19.9676C3.88366 19.0734 3.37529 17.8586 3.37 16.59V9.99999H20.63V16.55C20.6326 17.1815 20.5104 17.8074 20.2702 18.3915C20.03 18.9756 19.6767 19.5065 19.2306 19.9535C18.7845 20.4006 18.2544 20.755 17.6708 20.9964C17.0871 21.2377 16.4616 21.3613 15.83 21.36ZM9.59 13.84C9.59598 14.0132 9.55008 14.1843 9.45819 14.3312C9.36629 14.4782 9.2326 14.5944 9.07425 14.6648C8.91589 14.7353 8.7401 14.7569 8.56941 14.7268C8.39872 14.6967 8.24091 14.6163 8.11622 14.4959C7.99153 14.3755 7.90564 14.2206 7.86957 14.0511C7.8335 13.8815 7.84888 13.7051 7.91376 13.5444C7.97863 13.3836 8.09003 13.2459 8.23368 13.149C8.37733 13.052 8.54667 13.0001 8.72 13C8.94563 12.9999 9.16249 13.0874 9.32481 13.2441C9.48714 13.4008 9.58222 13.6145 9.59 13.84ZM12.85 13.84C12.8579 14.0168 12.8124 14.1919 12.7193 14.3424C12.6262 14.4929 12.4899 14.6118 12.3282 14.6837C12.1665 14.7556 11.9868 14.777 11.8128 14.7452C11.6387 14.7134 11.4782 14.6298 11.3523 14.5054C11.2264 14.381 11.141 14.2216 11.1071 14.0479C11.0733 13.8742 11.0926 13.6943 11.1625 13.5317C11.2325 13.3692 11.3498 13.2315 11.4992 13.1366C11.6486 13.0417 11.8231 12.9941 12 13C12.2222 13.005 12.434 13.0948 12.592 13.251C12.7501 13.4072 12.8424 13.6179 12.85 13.84ZM16.13 13.84C16.134 14.0153 16.0855 14.1877 15.9908 14.3353C15.8961 14.4828 15.7595 14.5987 15.5985 14.6681C15.4375 14.7375 15.2595 14.7572 15.0872 14.7247C14.9149 14.6922 14.7563 14.609 14.6316 14.4858C14.5069 14.3625 14.4219 14.2049 14.3874 14.033C14.3529 13.8611 14.3706 13.6828 14.4381 13.521C14.5056 13.3592 14.6199 13.2213 14.7664 13.1249C14.9128 13.0285 15.0847 12.978 15.26 12.98C15.489 12.98 15.7088 13.0703 15.8717 13.2313C16.0345 13.3923 16.1274 13.611 16.13 13.84ZM9.58 17.07C9.57869 17.1829 9.55515 17.2945 9.51073 17.3983C9.4663 17.5022 9.40185 17.5963 9.32106 17.6752C9.24027 17.7541 9.14472 17.8164 9.03988 17.8584C8.93503 17.9004 8.82294 17.9213 8.71 17.92C8.53992 17.918 8.37426 17.8656 8.23395 17.7695C8.09364 17.6733 7.98499 17.5378 7.92174 17.3799C7.85848 17.222 7.84347 17.0489 7.87859 16.8825C7.91372 16.716 7.9974 16.5638 8.11906 16.4449C8.24072 16.326 8.39489 16.2459 8.56208 16.2147C8.72928 16.1834 8.90198 16.2025 9.05835 16.2694C9.21473 16.3363 9.34775 16.4481 9.4406 16.5906C9.53346 16.7331 9.58197 16.8999 9.58 17.07ZM12.84 17.07C12.844 17.2448 12.7958 17.4169 12.7015 17.5642C12.6073 17.7115 12.4713 17.8274 12.3109 17.8971C12.1504 17.9668 11.9729 17.9871 11.8009 17.9554C11.6289 17.9238 11.4702 17.8416 11.3452 17.7194C11.2201 17.5971 11.1343 17.4404 11.0987 17.2692C11.0631 17.0979 11.0793 16.92 11.1452 16.758C11.2112 16.596 11.324 16.4574 11.4691 16.3598C11.6142 16.2622 11.7851 16.21 11.96 16.21C12.0746 16.2073 12.1886 16.2276 12.2953 16.2696C12.4019 16.3116 12.4991 16.3746 12.5811 16.4547C12.6631 16.5348 12.7282 16.6305 12.7727 16.7362C12.8171 16.8419 12.84 16.9554 12.84 17.07ZM16.12 17.07C16.124 17.2448 16.0758 17.4169 15.9815 17.5642C15.8873 17.7115 15.7513 17.8274 15.5909 17.8971C15.4304 17.9668 15.2529 17.9871 15.0809 17.9554C14.9089 17.9238 14.7502 17.8416 14.6252 17.7194C14.5001 17.5971 14.4143 17.4404 14.3787 17.2692C14.3431 17.0979 14.3593 16.92 14.4252 16.758C14.4912 16.596 14.604 16.4574 14.7491 16.3598C14.8942 16.2622 15.0651 16.21 15.24 16.21C15.3546 16.2073 15.4686 16.2276 15.5753 16.2696C15.6819 16.3116 15.7791 16.3746 15.8611 16.4547C15.9431 16.5348 16.0082 16.6305 16.0527 16.7362C16.0971 16.8419 16.12 16.9554 16.12 17.07Z" fill="black"/>
</svg>
