<svg width="24" height="24" viewBox="0 0 24 24" fill="none" xmlns="http://www.w3.org/2000/svg">
<path d="M12 19.79C12.9054 19.7887 13.7885 19.5095 14.53 18.99L15.07 19.55C15.1401 19.6218 15.2242 19.6784 15.3171 19.7162C15.41 19.7541 15.5097 19.7724 15.61 19.77C15.8036 19.7678 15.9892 19.6929 16.13 19.56C16.2704 19.4194 16.3493 19.2287 16.3493 19.03C16.3493 18.8312 16.2704 18.6406 16.13 18.5L15.58 17.93C16.1494 17.1245 16.4317 16.1511 16.3814 15.1659C16.3312 14.1807 15.9514 13.241 15.3029 12.4977C14.6545 11.7543 13.7751 11.2504 12.8059 11.0669C11.8367 10.8833 10.8339 11.0308 9.95858 11.4855C9.08324 11.9403 8.38611 12.6761 7.97912 13.5746C7.57213 14.4732 7.47889 15.4824 7.71437 16.4404C7.94984 17.3983 8.50038 18.2493 9.27758 18.8567C10.0548 19.4642 11.0136 19.7929 12 19.79ZM12 12.48C12.576 12.478 13.1396 12.647 13.6194 12.9655C14.0993 13.2841 14.4738 13.7379 14.6956 14.2694C14.9174 14.801 14.9764 15.3864 14.8653 15.9515C14.7541 16.5167 14.4778 17.0361 14.0712 17.4441C13.6646 17.8521 13.1462 18.1302 12.5814 18.2433C12.0166 18.3564 11.431 18.2994 10.8987 18.0794C10.3664 17.8595 9.91133 17.4865 9.59113 17.0077C9.27093 16.529 9.1 15.966 9.1 15.39C9.1 14.6199 9.40521 13.8813 9.94878 13.3358C10.4924 12.7904 11.23 12.4826 12 12.48ZM17.54 3.47999V1.93999C17.5196 1.77002 17.4376 1.61343 17.3095 1.49984C17.1814 1.38624 17.0162 1.32351 16.845 1.32351C16.6738 1.32351 16.5086 1.38624 16.3805 1.49984C16.2524 1.61343 16.1704 1.77002 16.15 1.93999V3.20999H15.83H12.89V1.93999C12.89 1.75434 12.8162 1.57629 12.685 1.44502C12.5537 1.31374 12.3757 1.23999 12.19 1.23999C12.0043 1.23999 11.8263 1.31374 11.695 1.44502C11.5638 1.57629 11.49 1.75434 11.49 1.93999V3.18999H8.17H7.85V1.93999C7.82958 1.77002 7.74758 1.61343 7.61951 1.49984C7.49144 1.38624 7.32619 1.32351 7.155 1.32351C6.98381 1.32351 6.81856 1.38624 6.69049 1.49984C6.56242 1.61343 6.48042 1.77002 6.46 1.93999V3.42999C5.17564 3.80046 4.04634 4.57801 3.242 5.64565C2.43766 6.71329 2.0018 8.01327 2 9.34999V16.59C2.0053 18.2273 2.66011 19.7956 3.82068 20.9505C4.98124 22.1055 6.55269 22.7526 8.19 22.75H15.85C17.4804 22.7421 19.0416 22.0902 20.1935 20.9364C21.3454 19.7826 21.9947 18.2204 22 16.59V9.34999C21.9982 8.01327 21.5623 6.71329 20.758 5.64565C19.9537 4.57801 18.8244 3.80046 17.54 3.42999V3.47999ZM6.46 4.89999V5.70999C6.48042 5.87996 6.56242 6.03655 6.69049 6.15014C6.81856 6.26374 6.98381 6.32647 7.155 6.32647C7.32619 6.32647 7.49144 6.26374 7.61951 6.15014C7.74758 6.03655 7.82958 5.87996 7.85 5.70999V4.60999C7.96 4.60999 8.06 4.60999 8.17 4.60999H11.49V5.70999C11.49 5.89564 11.5638 6.07369 11.695 6.20496C11.8263 6.33624 12.0043 6.40999 12.19 6.40999C12.3757 6.40999 12.5537 6.33624 12.685 6.20496C12.8162 6.07369 12.89 5.89564 12.89 5.70999V4.57999H15.83C15.94 4.57999 16.04 4.57999 16.15 4.57999V5.67999C16.1704 5.84996 16.2524 6.00655 16.3805 6.12014C16.5086 6.23374 16.6738 6.29647 16.845 6.29647C17.0162 6.29647 17.1814 6.23374 17.3095 6.12014C17.4376 6.00655 17.5196 5.84996 17.54 5.67999V4.89999C18.3259 5.20568 19.0171 5.71341 19.5439 6.37187C20.0707 7.03033 20.4143 7.81618 20.54 8.64999H3.44C3.56754 7.81397 3.91414 7.02662 4.44458 6.36796C4.97502 5.7093 5.67039 5.20282 6.46 4.89999ZM20.63 16.59C20.6247 17.8586 20.1163 19.0734 19.2164 19.9676C18.3166 20.8619 17.0987 21.3626 15.83 21.36H8.17C6.90134 21.3626 5.68344 20.8619 4.78355 19.9676C3.88366 19.0734 3.37529 17.8586 3.37 16.59V9.99999H20.63V16.59Z" fill="black"/>
</svg>
