<svg width="24" height="24" viewBox="0 0 24 24" fill="none" xmlns="http://www.w3.org/2000/svg">
<path d="M12.7701 1.22998H4.8501C4.05445 1.22998 3.29139 1.54605 2.72878 2.10866C2.16617 2.67127 1.8501 3.43433 1.8501 4.22998V19.76C1.8501 20.5556 2.16617 21.3187 2.72878 21.8813C3.29139 22.4439 4.05445 22.76 4.8501 22.76H12.7701C13.5657 22.76 14.3288 22.4439 14.8914 21.8813C15.454 21.3187 15.7701 20.5556 15.7701 19.76V4.23998C15.7714 3.84517 15.6948 3.45399 15.5446 3.08886C15.3944 2.72373 15.1737 2.39183 14.895 2.11219C14.6163 1.83256 14.2851 1.61068 13.9205 1.45929C13.5558 1.30791 13.1649 1.22998 12.7701 1.22998ZM14.2801 19.76C14.2775 20.1596 14.1175 20.5422 13.8349 20.8248C13.5523 21.1074 13.1698 21.2674 12.7701 21.27H4.8501C4.45136 21.2673 4.06985 21.1071 3.78882 20.8242C3.5078 20.5413 3.35009 20.1587 3.3501 19.76V4.23998C3.35009 3.84123 3.5078 3.45866 3.78882 3.17577C4.06985 2.89288 4.45136 2.73262 4.8501 2.72998H7.7801V2.99998C7.7801 3.27448 7.88914 3.53774 8.08324 3.73184C8.27734 3.92594 8.5406 4.03498 8.8151 4.03498C9.0896 4.03498 9.35285 3.92594 9.54695 3.73184C9.74105 3.53774 9.8501 3.27448 9.8501 2.99998V2.72998H12.7701C13.1698 2.7326 13.5523 2.89253 13.8349 3.17515C14.1175 3.45776 14.2775 3.84031 14.2801 4.23998V19.76ZM7.2801 16.48H10.3801C10.3801 16.8911 10.2168 17.2853 9.92611 17.576C9.63543 17.8667 9.24118 18.03 8.8301 18.03C8.41901 18.03 8.02476 17.8667 7.73408 17.576C7.4434 17.2853 7.2801 16.8911 7.2801 16.48ZM9.5801 8.63998V7.56998C9.5801 7.37107 9.50108 7.1803 9.36043 7.03965C9.21978 6.899 9.02901 6.81998 8.8301 6.81998C8.63119 6.81998 8.44042 6.899 8.29977 7.03965C8.15912 7.1803 8.0801 7.37107 8.0801 7.56998V8.63998C7.22978 8.8193 6.46722 9.28612 5.9208 9.96186C5.37439 10.6376 5.07749 11.481 5.0801 12.35V14.68C5.07992 14.9808 5.19663 15.27 5.40559 15.4864C5.61456 15.7028 5.89943 15.8296 6.2001 15.84H11.4301C11.5833 15.8413 11.7352 15.8123 11.8771 15.7546C12.019 15.6969 12.148 15.6116 12.2568 15.5038C12.3656 15.3959 12.4519 15.2676 12.5109 15.1262C12.5698 14.9848 12.6001 14.8332 12.6001 14.68V12.35C12.5989 11.4759 12.2957 10.629 11.7416 9.95291C11.1876 9.27679 10.4169 8.81296 9.5601 8.63998H9.5801ZM11.1201 14.34H6.5401V12.34C6.5401 12.0406 6.59907 11.7441 6.71365 11.4675C6.82823 11.1908 6.99618 10.9395 7.20789 10.7278C7.41961 10.5161 7.67096 10.3481 7.94758 10.2335C8.2242 10.119 8.52068 10.06 8.8201 10.06C9.11951 10.06 9.41599 10.119 9.69262 10.2335C9.96924 10.3481 10.2206 10.5161 10.4323 10.7278C10.644 10.9395 10.812 11.1908 10.9265 11.4675C11.0411 11.7441 11.1001 12.0406 11.1001 12.34L11.1201 14.34ZM17.8601 12.2C17.8627 12.0019 17.9425 11.8126 18.0826 11.6725C18.2227 11.5324 18.412 11.4526 18.6101 11.45H21.4001C21.599 11.45 21.7898 11.529 21.9304 11.6697C22.0711 11.8103 22.1501 12.0011 22.1501 12.2C22.1501 12.3989 22.0711 12.5897 21.9304 12.7303C21.7898 12.871 21.599 12.95 21.4001 12.95H18.5901C18.3912 12.95 18.2004 12.871 18.0598 12.7303C17.9191 12.5897 17.8401 12.3989 17.8401 12.2H17.8601ZM18.0001 7.57998C17.9137 7.40533 17.8978 7.20419 17.9554 7.01809C18.0131 6.83199 18.1401 6.67516 18.3101 6.57998L21.0001 5.09998C21.1765 5.00583 21.383 4.9856 21.5743 5.04373C21.7656 5.10187 21.9259 5.23361 22.0201 5.40998C22.1143 5.58635 22.1345 5.7929 22.0763 5.98418C22.0182 6.17547 21.8865 6.33583 21.7101 6.42998L19.0001 7.87998C18.8888 7.93778 18.7655 7.96861 18.6401 7.96998C18.5088 7.96582 18.3808 7.92771 18.2687 7.85936C18.1565 7.79101 18.064 7.69475 18.0001 7.57998ZM22.0001 19C21.9367 19.1202 21.8417 19.2209 21.7255 19.2914C21.6092 19.3618 21.476 19.3994 21.3401 19.4C21.2177 19.3998 21.0974 19.3688 20.9901 19.31L18.2601 17.85C18.1734 17.8014 18.0972 17.7362 18.0357 17.6581C17.9742 17.5801 17.9287 17.4907 17.9018 17.395C17.8748 17.2994 17.867 17.1994 17.8787 17.1007C17.8905 17.002 17.9215 16.9067 17.9701 16.82C18.0187 16.7333 18.0839 16.6571 18.1619 16.5956C18.24 16.5341 18.3294 16.4886 18.425 16.4617C18.5207 16.4347 18.6207 16.4269 18.7194 16.4386C18.818 16.4503 18.9134 16.4814 19.0001 16.53L21.7201 18C21.8868 18.0983 22.009 18.2573 22.0612 18.4437C22.1133 18.63 22.0915 18.8294 22.0001 19Z" fill="black"/>
</svg>
