<svg width="24" height="24" viewBox="0 0 24 24" fill="none" xmlns="http://www.w3.org/2000/svg">
<path d="M20.8201 3.18998C20.2069 2.57469 19.4783 2.08648 18.6761 1.75337C17.8739 1.42025 17.0138 1.24878 16.1451 1.24878C15.2764 1.24878 14.4163 1.42025 13.6141 1.75337C12.8119 2.08648 12.0833 2.57469 11.4701 3.18998L7.3301 7.32998L3.1901 11.47C2.5763 12.083 2.08937 12.8109 1.75714 13.6123C1.42491 14.4136 1.25391 15.2725 1.25391 16.14C1.25391 17.0074 1.42491 17.8664 1.75714 18.6677C2.08937 19.469 2.5763 20.197 3.1901 20.81C3.80241 21.425 4.53016 21.913 5.33157 22.2459C6.13298 22.5789 6.99227 22.7503 7.8601 22.7503C8.72793 22.7503 9.58722 22.5789 10.3886 22.2459C11.19 21.913 11.9178 21.425 12.5301 20.81L16.6701 16.67L20.8201 12.53C22.0548 11.2894 22.748 9.61031 22.748 7.85998C22.748 6.10966 22.0548 4.43057 20.8201 3.18998ZM11.4701 19.75C10.9971 20.2259 10.4346 20.6036 9.81504 20.8613C9.19549 21.119 8.53111 21.2517 7.8601 21.2517C7.18909 21.2517 6.5247 21.119 5.90516 20.8613C5.28561 20.6036 4.72314 20.2259 4.2501 19.75C3.7742 19.2769 3.39652 18.7145 3.13881 18.0949C2.88109 17.4754 2.74841 16.811 2.74841 16.14C2.74841 15.469 2.88109 14.8046 3.13881 14.185C3.39652 13.5655 3.7742 13.003 4.2501 12.53L7.8601 8.91998L11.4701 12.53L15.0801 16.14L11.4701 19.75ZM19.7501 11.47L16.1401 15.08L12.5301 11.47L8.9201 7.85998L12.5301 4.24998C13.5007 3.35922 14.7777 2.8777 16.0948 2.90591C17.4119 2.93413 18.6671 3.46991 19.5987 4.40143C20.5302 5.33294 21.066 6.58822 21.0942 7.90529C21.1224 9.22235 20.6409 10.4994 19.7501 11.47Z" fill="black"/>
</svg>
