<svg width="24" height="24" viewBox="0 0 24 24" fill="none" xmlns="http://www.w3.org/2000/svg">
<path d="M20.88 10.71L18.72 10.22C18.5623 10.187 18.4169 10.1109 18.3 10L14.74 6.61005C14.2897 6.20076 13.6982 5.98209 13.09 6.00005H7.94C7.57663 5.99876 7.21771 6.07999 6.89032 6.23763C6.56292 6.39526 6.27559 6.62518 6.05 6.91005L4.17 9.26005C4.05575 9.40752 3.8985 9.51585 3.72 9.57005L3 9.77005C2.4965 9.92182 2.05488 10.2309 1.73993 10.6521C1.42498 11.0732 1.25328 11.5842 1.25 12.11V14.39C1.24966 14.9584 1.47227 15.5041 1.87 15.91C2.25044 16.2953 2.75959 16.5267 3.3 16.56H3.79C3.93991 16.9951 4.22186 17.3725 4.59652 17.6396C4.97118 17.9067 5.41987 18.0502 5.88 18.05C6.34333 18.0542 6.79645 17.9139 7.17638 17.6486C7.55631 17.3834 7.84418 17.0064 8 16.57H16C16.1543 17.0008 16.4379 17.3734 16.812 17.6367C17.1861 17.9001 17.6325 18.0415 18.09 18.0415C18.5475 18.0415 18.9939 17.9001 19.368 17.6367C19.7421 17.3734 20.0257 17.0008 20.18 16.57H20.7C21.2633 16.5493 21.7964 16.3101 22.1864 15.9033C22.5765 15.4964 22.793 14.9537 22.79 14.39V13.05C22.7878 12.5002 22.597 11.9678 22.2493 11.5419C21.9016 11.116 21.4182 10.8223 20.88 10.71ZM5.88 16.55C5.7352 16.55 5.59367 16.507 5.47341 16.4263C5.35316 16.3456 5.25961 16.231 5.20466 16.097C5.14972 15.9631 5.13586 15.8158 5.16485 15.6739C5.19383 15.532 5.26436 15.402 5.36745 15.3003C5.47055 15.1986 5.60155 15.1299 5.74381 15.1029C5.88607 15.0758 6.03315 15.0917 6.16636 15.1485C6.29956 15.2053 6.41287 15.3004 6.49186 15.4218C6.57086 15.5431 6.61198 15.6853 6.61 15.83C6.60737 16.0219 6.5293 16.205 6.39268 16.3398C6.25607 16.4745 6.07189 16.5501 5.88 16.55ZM18.05 16.55C17.9048 16.552 17.7623 16.5106 17.6407 16.4312C17.5191 16.3517 17.424 16.2378 17.3676 16.1041C17.3111 15.9703 17.2958 15.8227 17.3236 15.6801C17.3515 15.5376 17.4212 15.4066 17.5239 15.3039C17.6266 15.2012 17.7576 15.1315 17.9001 15.1037C18.0426 15.0758 18.1902 15.0911 18.324 15.1476C18.4578 15.2041 18.5717 15.2992 18.6511 15.4208C18.7306 15.5423 18.772 15.6848 18.77 15.83C18.77 16.021 18.6941 16.2041 18.5591 16.3392C18.4241 16.4742 18.241 16.55 18.05 16.55ZM21.25 14.38C21.2491 14.4812 21.2263 14.581 21.1831 14.6725C21.14 14.764 21.0775 14.845 21 14.91C20.8948 15.003 20.7603 15.056 20.62 15.06H20.13C19.9782 14.6282 19.6961 14.2541 19.3227 13.9895C18.9492 13.7249 18.5027 13.5828 18.045 13.5828C17.5873 13.5828 17.1408 13.7249 16.7673 13.9895C16.3939 14.2541 16.1118 14.6282 15.96 15.06H8C7.84573 14.6293 7.56213 14.2567 7.18802 13.9933C6.8139 13.73 6.36754 13.5886 5.91 13.5886C5.45246 13.5886 5.0061 13.73 4.63198 13.9933C4.25787 14.2567 3.97427 14.6293 3.82 15.06H3.38C3.21819 15.0439 3.06664 14.9734 2.95 14.86C2.88636 14.7974 2.83588 14.7227 2.80153 14.6402C2.76719 14.5578 2.74967 14.4693 2.75 14.38V12.11C2.75887 11.9102 2.82745 11.7177 2.94688 11.5572C3.06632 11.3968 3.23112 11.2759 3.42 11.21L4.14 11.01C4.61922 10.8647 5.04183 10.5748 5.35 10.18L7.23 7.79005C7.31435 7.68272 7.42225 7.59624 7.54537 7.53728C7.66848 7.47832 7.80351 7.44848 7.94 7.45005H13.09C13.3199 7.44696 13.5421 7.53296 13.71 7.69005L17.27 11.08C17.5799 11.3808 17.9679 11.5887 18.39 11.68L20.55 12.18C20.7484 12.2234 20.9261 12.3334 21.0534 12.4916C21.1807 12.6499 21.2501 12.8469 21.25 13.05V14.38ZM14.87 9.72005L13.87 8.57005C13.7295 8.412 13.5569 8.28567 13.3638 8.19946C13.1707 8.11325 12.9615 8.06913 12.75 8.07005H8.54C8.28859 8.06952 8.04097 8.13136 7.81933 8.25004C7.59768 8.36871 7.40894 8.54051 7.27 8.75005L6.49 9.89005C6.33743 10.1209 6.25035 10.3889 6.23802 10.6654C6.22569 10.9418 6.28859 11.2165 6.42 11.46C6.54798 11.7047 6.74056 11.9095 6.97681 12.0523C7.21306 12.1951 7.48394 12.2704 7.76 12.27H13.76C14.0545 12.2681 14.3421 12.1811 14.5884 12.0197C14.8347 11.8583 15.0291 11.6292 15.1484 11.3599C15.2678 11.0907 15.3068 10.7928 15.261 10.5019C15.2151 10.211 15.0863 9.93953 14.89 9.72005H14.87ZM7.74 10.72L8.54 9.54005H9.88V10.72H7.74ZM13.74 10.72H11.38V9.57005H12.72L13.72 10.76L13.74 10.72Z" fill="black"/>
</svg>
