<svg width="24" height="24" viewBox="0 0 24 24" fill="none" xmlns="http://www.w3.org/2000/svg">
<path d="M22.26 17.7599V12.4999C22.2597 11.9251 22.1405 11.3565 21.91 10.8299L21.51 9.88995C21.6637 9.7989 21.7903 9.66833 21.8764 9.51181C21.9626 9.35529 22.0053 9.17854 22 8.99994C22.0013 8.85859 21.9746 8.71838 21.9214 8.5874C21.8683 8.45643 21.7897 8.33729 21.6902 8.23687C21.5907 8.13645 21.4723 8.05674 21.3418 8.00234C21.2113 7.94794 21.0714 7.91994 20.93 7.91994H20.67L19.47 5.14994C19.1443 4.39631 18.6054 3.75435 17.9196 3.30306C17.2338 2.85177 16.431 2.61084 15.61 2.60994H8.61C7.75794 2.59931 6.92298 2.84935 6.217 3.32656C5.51103 3.80376 4.96776 4.48533 4.66 5.27994L3.6 7.93994H3.07C2.78794 7.93993 2.51729 8.05129 2.31691 8.2498C2.11653 8.4483 2.00264 8.7179 2 8.99994C2.00483 9.22844 2.08339 9.44925 2.22395 9.62946C2.36451 9.80967 2.55956 9.93963 2.78 9.99994L2.43 10.8699C2.23321 11.3628 2.1347 11.8893 2.14 12.4199V17.7899C2.14 17.7899 2.14 17.7899 2.14 17.8399V18.9099C2.14 19.5544 2.39602 20.1725 2.85173 20.6282C3.30744 21.0839 3.92552 21.3399 4.57 21.3399C5.21448 21.3399 5.83256 21.0839 6.28827 20.6282C6.74398 20.1725 7 19.5544 7 18.9099V18.5899H17.42V18.9099C17.42 19.2291 17.4829 19.545 17.605 19.8399C17.7271 20.1347 17.9061 20.4026 18.1317 20.6282C18.3574 20.8539 18.6253 21.0329 18.9201 21.155C19.2149 21.2771 19.5309 21.3399 19.85 21.3399C20.1691 21.3399 20.4851 21.2771 20.7799 21.155C21.0747 21.0329 21.3426 20.8539 21.5683 20.6282C21.7939 20.4026 21.9729 20.1347 22.095 19.8399C22.2171 19.545 22.28 19.2291 22.28 18.9099V17.8699C22.28 17.8699 22.26 17.7999 22.26 17.7599ZM6.05 5.83994C6.24922 5.33446 6.59631 4.90083 7.0459 4.59575C7.49549 4.29067 8.02667 4.12833 8.57 4.12994H15.57C16.0974 4.12974 16.6133 4.28399 17.054 4.57366C17.4948 4.86333 17.841 5.27573 18.05 5.75994L20.49 11.4299C20.6406 11.7666 20.7189 12.1311 20.72 12.4999V17.1199H3.64V12.4499C3.63735 12.1074 3.7019 11.7677 3.83 11.4499L6.05 5.83994ZM5.48 18.9399C5.48 19.1866 5.38202 19.4231 5.20761 19.5976C5.0332 19.772 4.79665 19.8699 4.55 19.8699C4.30335 19.8699 4.0668 19.772 3.89239 19.5976C3.71798 19.4231 3.62 19.1866 3.62 18.9399V18.6199H5.48V18.9399ZM20.78 18.9399C20.78 19.1866 20.682 19.4231 20.5076 19.5976C20.3332 19.772 20.0967 19.8699 19.85 19.8699C19.6033 19.8699 19.3668 19.772 19.1924 19.5976C19.018 19.4231 18.92 19.1866 18.92 18.9399V18.6199H20.78V18.9399ZM17 10.8399H7.17C6.97439 10.8369 6.78218 10.7883 6.60861 10.698C6.43504 10.6077 6.28487 10.4783 6.17 10.3199C6.03774 10.1416 5.94821 9.93518 5.90834 9.71672C5.86846 9.49826 5.87929 9.27356 5.94 9.05995L6.75 6.24994C6.82411 5.97409 6.98636 5.73003 7.21202 5.55491C7.43768 5.3798 7.71439 5.28324 8 5.27994H16.2C16.4896 5.28499 16.7693 5.38587 16.9955 5.56681C17.2217 5.74774 17.3815 5.99853 17.45 6.27994L18.26 9.08994C18.314 9.30117 18.3186 9.52199 18.2735 9.73529C18.2284 9.94859 18.1349 10.1486 18 10.3199C17.8846 10.4777 17.7343 10.6068 17.5608 10.697C17.3874 10.7872 17.1955 10.8361 17 10.8399ZM7.36 9.33994H16.78L16 6.77994H8.14L7.36 9.33994ZM5.6 14.4699C5.39233 14.4699 5.18932 14.4084 5.01665 14.293C4.84398 14.1776 4.7094 14.0136 4.62993 13.8218C4.55045 13.6299 4.52966 13.4188 4.57018 13.2151C4.61069 13.0114 4.71069 12.8243 4.85754 12.6775C5.00438 12.5306 5.19147 12.4306 5.39515 12.3901C5.59883 12.3496 5.80996 12.3704 6.00182 12.4499C6.19368 12.5293 6.35767 12.6639 6.47304 12.8366C6.58842 13.0093 6.65 13.2123 6.65 13.4199C6.65718 13.5597 6.63494 13.6995 6.58472 13.8301C6.53449 13.9608 6.4574 14.0794 6.35842 14.1784C6.25945 14.2773 6.14081 14.3544 6.01016 14.4047C5.87952 14.4549 5.73978 14.4771 5.6 14.4699ZM18.6 14.4699C18.3923 14.4699 18.1893 14.4084 18.0167 14.293C17.844 14.1776 17.7094 14.0136 17.6299 13.8218C17.5505 13.6299 17.5297 13.4188 17.5702 13.2151C17.6107 13.0114 17.7107 12.8243 17.8575 12.6775C18.0044 12.5306 18.1915 12.4306 18.3952 12.3901C18.5988 12.3496 18.81 12.3704 19.0018 12.4499C19.1937 12.5293 19.3577 12.6639 19.473 12.8366C19.5884 13.0093 19.65 13.2123 19.65 13.4199C19.657 13.558 19.6353 13.696 19.5862 13.8252C19.5372 13.9544 19.4619 14.072 19.3651 14.1707C19.2684 14.2694 19.1522 14.3469 19.0239 14.3984C18.8957 14.4499 18.7581 14.4743 18.62 14.4699H18.6ZM15.82 16.2299H8.82C8.62109 16.2299 8.43032 16.1509 8.28967 16.0103C8.14902 15.8696 8.07 15.6789 8.07 15.4799C8.07 15.281 8.14902 15.0903 8.28967 14.9496C8.43032 14.809 8.62109 14.7299 8.82 14.7299H15.82C16.0189 14.7299 16.2097 14.809 16.3503 14.9496C16.491 15.0903 16.57 15.281 16.57 15.4799C16.57 15.6789 16.491 15.8696 16.3503 16.0103C16.2097 16.1509 16.0189 16.2299 15.82 16.2299Z" fill="black"/>
</svg>
