<svg width="24" height="24" viewBox="0 0 24 24" fill="none" xmlns="http://www.w3.org/2000/svg">
<path d="M9.39007 13.28C9.38748 13.4781 9.30763 13.6674 9.16754 13.8074C9.02744 13.9475 8.83818 14.0274 8.64007 14.03H5.39007C5.19116 14.03 5.00039 13.951 4.85974 13.8103C4.71909 13.6697 4.64007 13.4789 4.64007 13.28C4.64007 13.0811 4.71909 12.8903 4.85974 12.7497C5.00039 12.609 5.19116 12.53 5.39007 12.53H8.64007C8.83899 12.53 9.02975 12.609 9.1704 12.7497C9.31106 12.8903 9.39007 13.0811 9.39007 13.28ZM18.6401 12.53H15.3901C15.1912 12.53 15.0004 12.609 14.8597 12.7497C14.7191 12.8903 14.6401 13.0811 14.6401 13.28C14.6401 13.4789 14.7191 13.6697 14.8597 13.8103C15.0004 13.951 15.1912 14.03 15.3901 14.03H18.6401C18.839 14.03 19.0298 13.951 19.1704 13.8103C19.3111 13.6697 19.3901 13.4789 19.3901 13.28C19.3901 13.0811 19.3111 12.8903 19.1704 12.7497C19.0298 12.609 18.839 12.53 18.6401 12.53ZM23.3601 20.39C23.3848 20.7064 23.3441 21.0246 23.2404 21.3246C23.1367 21.6247 22.9722 21.9001 22.7574 22.1337C22.5425 22.3674 22.2818 22.5542 21.9915 22.6826C21.7012 22.811 21.3875 22.8782 21.0701 22.88H16.8601C16.2881 22.8801 15.7365 22.6671 15.3131 22.2825C14.8897 21.8979 14.6248 21.3694 14.5701 20.8V20.6C14.5502 20.402 14.4572 20.2185 14.3093 20.0853C14.1613 19.9522 13.9691 19.879 13.7701 19.88H9.87007C9.66698 19.8819 9.47203 19.9601 9.32386 20.099C9.17569 20.2379 9.08511 20.4274 9.07007 20.63C9.05199 21.2296 8.80233 21.799 8.37349 22.2185C7.94465 22.638 7.36997 22.8751 6.77007 22.88H2.93007C2.61256 22.88 2.29848 22.8142 2.00762 22.6869C1.71677 22.5595 1.45543 22.3733 1.24007 22.14C1.02637 21.9044 0.862949 21.6277 0.759787 21.3268C0.656626 21.0259 0.615891 20.7071 0.640073 20.39L1.31007 12C1.35668 11.4872 1.51848 10.9915 1.78341 10.55C2.04833 10.1084 2.40953 9.73243 2.84007 9.44998L3.08007 8.13998H2.90007C2.70116 8.13998 2.51039 8.06096 2.36974 7.92031C2.22909 7.77966 2.15007 7.58889 2.15007 7.38998C2.15007 7.19107 2.22909 7.0003 2.36974 6.85965C2.51039 6.719 2.70116 6.63998 2.90007 6.63998H3.35007L3.78007 4.19998C3.93298 3.33832 4.38478 2.55816 5.05601 1.99666C5.72725 1.43516 6.57495 1.12828 7.45007 1.12998H16.3101C17.1886 1.12356 18.0411 1.42829 18.7165 1.99019C19.3919 2.5521 19.8466 3.33492 20.0001 4.19998L20.4401 6.63998H20.6401C20.839 6.63998 21.0298 6.719 21.1704 6.85965C21.3111 7.0003 21.3901 7.19107 21.3901 7.38998C21.388 7.57615 21.3158 7.75469 21.1879 7.88999C21.06 8.02529 20.8858 8.10741 20.7001 8.11998L20.9101 9.29998C21.4065 9.56826 21.8288 9.9552 22.1394 10.4263C22.4499 10.8974 22.6391 11.438 22.6901 12L23.3601 20.39ZM4.47007 8.87998H19.2901L19.1601 8.13998L18.8901 6.63998L18.5001 4.45998C18.4084 3.94618 18.1386 3.48111 17.7381 3.14644C17.3376 2.81178 16.832 2.62892 16.3101 2.62998H12.6601V3.20998H13.3601C13.559 3.20998 13.7498 3.289 13.8904 3.42965C14.0311 3.5703 14.1101 3.76107 14.1101 3.95998C14.1101 4.15889 14.0311 4.34966 13.8904 4.49031C13.7498 4.63096 13.559 4.70998 13.3601 4.70998H10.3601C10.1612 4.70998 9.9704 4.63096 9.82974 4.49031C9.68909 4.34966 9.61007 4.15889 9.61007 3.95998C9.61007 3.76107 9.68909 3.5703 9.82974 3.42965C9.9704 3.289 10.1612 3.20998 10.3601 3.20998H11.1401V2.62998H7.45007C6.92815 2.62892 6.42255 2.81178 6.02205 3.14644C5.62154 3.48111 5.35176 3.94618 5.26007 4.45998L4.87007 6.63998L4.60007 8.13998L4.47007 8.87998ZM21.8701 20.51L21.2001 12.15C21.1695 11.7942 21.0412 11.4537 20.8295 11.1661C20.6178 10.8785 20.3307 10.6549 20.0001 10.52H19.9301C19.8396 10.4841 19.7458 10.4573 19.6501 10.44C19.5369 10.4303 19.4232 10.4303 19.3101 10.44H4.72007C4.24586 10.4393 3.788 10.6133 3.43387 10.9287C3.07974 11.2441 2.85413 11.6789 2.80007 12.15L2.13007 20.51C2.12186 20.6205 2.1364 20.7314 2.17278 20.8361C2.20917 20.9407 2.26662 21.0367 2.3416 21.1183C2.41658 21.1998 2.50749 21.2651 2.60871 21.3101C2.70993 21.3551 2.8193 21.3789 2.93007 21.38H6.77007C6.97549 21.3802 7.17314 21.3015 7.32207 21.16C7.471 21.0185 7.5598 20.8251 7.57007 20.62C7.58822 20.0213 7.83822 19.453 8.26732 19.0351C8.69643 18.6172 9.27109 18.3823 9.87007 18.38H13.7601C14.3312 18.3773 14.8826 18.5882 15.3063 18.9711C15.7299 19.3541 15.9952 19.8815 16.0501 20.45V20.65C16.0675 20.8481 16.158 21.0326 16.3041 21.1676C16.4501 21.3025 16.6412 21.3783 16.8401 21.38H21.0501C21.1608 21.3789 21.2702 21.3551 21.3714 21.3101C21.4727 21.2651 21.5636 21.1998 21.6385 21.1183C21.7135 21.0367 21.771 20.9407 21.8074 20.8361C21.8437 20.7314 21.8583 20.6205 21.8501 20.51H21.8701Z" fill="black"/>
</svg>
