<svg width="24" height="24" viewBox="0 0 24 24" fill="none" xmlns="http://www.w3.org/2000/svg">
<path d="M7.73 11.29H4.83C3.88134 11.2873 2.97228 10.9093 2.30147 10.2385C1.63066 9.5677 1.25264 8.65864 1.25 7.70998V4.79998C1.25265 3.85224 1.63099 2.94422 2.30209 2.275C2.97318 1.60578 3.88226 1.22998 4.83 1.22998H7.73C8.67774 1.22998 9.58682 1.60578 10.2579 2.275C10.929 2.94422 11.3074 3.85224 11.31 4.79998V7.70998C11.3074 8.65864 10.9293 9.5677 10.2585 10.2385C9.58772 10.9093 8.67866 11.2873 7.73 11.29ZM4.83 2.72998C4.28008 2.72997 3.75253 2.94774 3.36274 3.33566C2.97295 3.72357 2.75264 4.25006 2.75 4.79998V7.70998C2.75 8.26163 2.96914 8.79069 3.35922 9.18076C3.74929 9.57084 4.27835 9.78998 4.83 9.78998H7.73C8.28165 9.78998 8.81071 9.57084 9.20078 9.18076C9.59086 8.79069 9.81 8.26163 9.81 7.70998V4.79998C9.80736 4.25006 9.58705 3.72357 9.19726 3.33566C8.80747 2.94774 8.27992 2.72997 7.73 2.72998H4.83ZM19.17 11.32H16.27C15.3205 11.32 14.4099 10.9428 13.7386 10.2714C13.0672 9.60004 12.69 8.68946 12.69 7.73998V4.83998C12.6926 3.89132 13.0707 2.98226 13.7415 2.31145C14.4123 1.64064 15.3213 1.26262 16.27 1.25998H19.17C20.1187 1.26262 21.0277 1.64064 21.6985 2.31145C22.3693 2.98226 22.7474 3.89132 22.75 4.83998V7.73998C22.75 8.68946 22.3728 9.60004 21.7014 10.2714C21.0301 10.9428 20.1195 11.32 19.17 11.32ZM16.27 2.75998C15.7184 2.75998 15.1893 2.97912 14.7992 3.3692C14.4091 3.75927 14.19 4.28833 14.19 4.83998V7.73998C14.19 8.29163 14.4091 8.82069 14.7992 9.21076C15.1893 9.60084 15.7184 9.81998 16.27 9.81998H19.17C19.7217 9.81998 20.2507 9.60084 20.6408 9.21076C21.0309 8.82069 21.25 8.29163 21.25 7.73998V4.83998C21.25 4.28833 21.0309 3.75927 20.6408 3.3692C20.2507 2.97912 19.7217 2.75998 19.17 2.75998H16.27ZM7.73 22.76H4.83C3.88134 22.7573 2.97228 22.3793 2.30147 21.7085C1.63066 21.0377 1.25264 20.1286 1.25 19.18V16.28C1.25 15.3305 1.62718 14.4199 2.29856 13.7485C2.96994 13.0772 3.88052 12.7 4.83 12.7H7.73C8.67947 12.7 9.59006 13.0772 10.2614 13.7485C10.9328 14.4199 11.31 15.3305 11.31 16.28V19.18C11.3021 20.1252 10.9218 21.0291 10.2515 21.6956C9.58127 22.3621 8.67522 22.7374 7.73 22.74V22.76ZM4.83 14.2C4.27835 14.2 3.74929 14.4191 3.35922 14.8092C2.96914 15.1993 2.75 15.7283 2.75 16.28V19.18C2.75 19.7316 2.96914 20.2607 3.35922 20.6508C3.74929 21.0408 4.27835 21.26 4.83 21.26H7.73C8.28165 21.26 8.81071 21.0408 9.20078 20.6508C9.59086 20.2607 9.81 19.7316 9.81 19.18V16.28C9.81 15.7283 9.59086 15.1993 9.20078 14.8092C8.81071 14.4191 8.28165 14.2 7.73 14.2H4.83ZM19.17 22.79H16.27C15.3223 22.79 14.4132 22.4142 13.7421 21.745C13.071 21.0757 12.6926 20.1677 12.69 19.22V16.29C12.6926 15.3413 13.0707 14.4323 13.7415 13.7615C14.4123 13.0906 15.3213 12.7126 16.27 12.71H19.17C20.1187 12.7126 21.0277 13.0906 21.6985 13.7615C22.3693 14.4323 22.7474 15.3413 22.75 16.29V19.2C22.7474 20.1477 22.369 21.0557 21.6979 21.725C21.0268 22.3942 20.1177 22.77 19.17 22.77V22.79ZM16.27 14.23C15.7184 14.23 15.1893 14.4491 14.7992 14.8392C14.4091 15.2293 14.19 15.7583 14.19 16.31V19.2C14.1926 19.7499 14.413 20.2764 14.8027 20.6643C15.1925 21.0522 15.7201 21.27 16.27 21.27H19.17C19.7199 21.27 20.2475 21.0522 20.6373 20.6643C21.027 20.2764 21.2474 19.7499 21.25 19.2V16.29C21.25 15.7383 21.0309 15.2093 20.6408 14.8192C20.2507 14.4291 19.7217 14.21 19.17 14.21L16.27 14.23Z" fill="black"/>
</svg>
