<svg width="24" height="24" viewBox="0 0 24 24" fill="none" xmlns="http://www.w3.org/2000/svg">
<path d="M12 15.25C11.3572 15.25 10.7289 15.0594 10.1944 14.7023C9.65994 14.3452 9.24338 13.8376 8.9974 13.2437C8.75141 12.6499 8.68705 11.9964 8.81245 11.366C8.93785 10.7355 9.24739 10.1564 9.70191 9.70191C10.1564 9.24739 10.7355 8.93785 11.366 8.81245C11.9964 8.68705 12.6499 8.75141 13.2437 8.9974C13.8376 9.24338 14.3452 9.65994 14.7023 10.1944C15.0594 10.7289 15.25 11.3572 15.25 12C15.2474 12.8611 14.9041 13.6863 14.2952 14.2952C13.6863 14.9041 12.8611 15.2474 12 15.25ZM12 10.25C11.6539 10.25 11.3155 10.3526 11.0278 10.5449C10.74 10.7372 10.5157 11.0105 10.3832 11.3303C10.2508 11.6501 10.2161 12.0019 10.2836 12.3414C10.3512 12.6809 10.5178 12.9927 10.7626 13.2374C11.0073 13.4822 11.3191 13.6489 11.6586 13.7164C11.9981 13.7839 12.3499 13.7492 12.6697 13.6168C12.9895 13.4843 13.2628 13.26 13.4551 12.9723C13.6474 12.6845 13.75 12.3461 13.75 12C13.75 11.5359 13.5656 11.0908 13.2374 10.7626C12.9093 10.4344 12.4641 10.25 12 10.25ZM12 22.75C9.87386 22.75 7.79545 22.1195 6.02762 20.9383C4.2598 19.7571 2.88194 18.0782 2.0683 16.1139C1.25466 14.1495 1.04177 11.9881 1.45656 9.90278C1.87135 7.81749 2.89519 5.90202 4.39861 4.39861C5.90202 2.89519 7.81749 1.87135 9.90278 1.45656C11.9881 1.04177 14.1495 1.25466 16.1139 2.0683C18.0782 2.88194 19.7571 4.2598 20.9383 6.02762C22.1195 7.79545 22.75 9.87386 22.75 12C22.7474 14.8503 21.6139 17.583 19.5985 19.5985C17.583 21.6139 14.8503 22.7474 12 22.75ZM12 2.75C10.1705 2.75 8.38213 3.29251 6.86098 4.30891C5.33983 5.32531 4.15423 6.76997 3.45412 8.46018C2.75401 10.1504 2.57083 12.0103 2.92774 13.8046C3.28465 15.5989 4.16563 17.2471 5.45927 18.5407C6.7529 19.8344 8.40109 20.7154 10.1954 21.0723C11.9897 21.4292 13.8496 21.246 15.5398 20.5459C17.23 19.8458 18.6747 18.6602 19.6911 17.139C20.7075 15.6179 21.25 13.8295 21.25 12C21.2474 9.54756 20.272 7.19633 18.5378 5.46219C16.8037 3.72805 14.4524 2.75265 12 2.75Z" fill="black"/>
</svg>
