<svg width="24" height="25" viewBox="0 0 24 25" fill="none" xmlns="http://www.w3.org/2000/svg">
<path d="M11.69 18.62C10.0669 18.62 8.51023 17.9752 7.36251 16.8275C6.21479 15.6798 5.57 14.1231 5.57 12.5C5.57 10.8769 6.21479 9.32023 7.36251 8.17251C8.51023 7.02479 10.0669 6.38 11.69 6.38C12.8812 6.37341 14.0474 6.72152 15.04 7.38C15.1966 7.48779 15.3064 7.65099 15.3472 7.83662C15.388 8.02225 15.3569 8.21647 15.26 8.38C15.1507 8.53491 14.9868 8.64269 14.8013 8.68165C14.6158 8.72061 14.4224 8.68787 14.26 8.59C13.5108 8.10131 12.6359 7.8406 11.7414 7.83954C10.8469 7.83848 9.97135 8.0971 9.221 8.58401C8.47065 9.07093 7.87779 9.76519 7.51438 10.5825C7.15097 11.3999 7.03264 12.3051 7.17375 13.1884C7.31487 14.0717 7.70936 14.895 8.30934 15.5584C8.90933 16.2219 9.68899 16.6968 10.5537 16.9257C11.4184 17.1546 12.331 17.1276 13.1806 16.8478C14.0302 16.5681 14.7804 16.0478 15.34 15.35C15.4652 15.197 15.6457 15.0996 15.8424 15.079C16.039 15.0584 16.2358 15.1162 16.39 15.24C16.5286 15.3633 16.6173 15.5331 16.6394 15.7173C16.6615 15.9015 16.6155 16.0874 16.51 16.24C15.9423 16.9791 15.2125 17.578 14.3768 17.9906C13.5412 18.4032 12.622 18.6186 11.69 18.62ZM17.26 9.5C17.0286 9.5 16.8024 9.56862 16.61 9.69719C16.4176 9.82575 16.2676 10.0085 16.1791 10.2223C16.0905 10.4361 16.0673 10.6713 16.1125 10.8983C16.1576 11.1252 16.2691 11.3337 16.4327 11.4973C16.5963 11.6609 16.8048 11.7724 17.0317 11.8175C17.2587 11.8627 17.494 11.8395 17.7077 11.7509C17.9215 11.6624 18.1043 11.5124 18.2328 11.32C18.3614 11.1276 18.43 10.9014 18.43 10.67C18.43 10.3597 18.3067 10.0621 18.0873 9.84269C17.8679 9.62327 17.5703 9.5 17.26 9.5ZM12 23.25C9.87386 23.25 7.79545 22.6195 6.02762 21.4383C4.2598 20.2571 2.88194 18.5782 2.0683 16.6139C1.25466 14.6495 1.04177 12.4881 1.45656 10.4028C1.87135 8.31749 2.89519 6.40202 4.39861 4.89861C5.90202 3.39519 7.81749 2.37135 9.90278 1.95656C11.9881 1.54177 14.1495 1.75466 16.1139 2.5683C18.0782 3.38194 19.7571 4.7598 20.9383 6.52762C22.1195 8.29545 22.75 10.3739 22.75 12.5C22.7474 15.3503 21.6139 18.083 19.5985 20.0985C17.583 22.1139 14.8503 23.2474 12 23.25ZM12 3.25C10.1705 3.25 8.38213 3.79251 6.86098 4.80891C5.33983 5.82531 4.15423 7.26997 3.45412 8.96018C2.75401 10.6504 2.57083 12.5103 2.92774 14.3046C3.28465 16.0989 4.16563 17.7471 5.45927 19.0407C6.7529 20.3344 8.40109 21.2154 10.1954 21.5723C11.9897 21.9292 13.8496 21.746 15.5398 21.0459C17.23 20.3458 18.6747 19.1602 19.6911 17.639C20.7075 16.1179 21.25 14.3295 21.25 12.5C21.2474 10.0476 20.272 7.69633 18.5378 5.96219C16.8037 4.22805 14.4524 3.25265 12 3.25Z" fill="black"/>
</svg>
