<svg width="24" height="24" viewBox="0 0 24 24" fill="none" xmlns="http://www.w3.org/2000/svg">
<path d="M10.5299 22.75C8.24068 22.7186 6.05752 21.7799 4.4599 20.14C2.45433 18.1084 1.30528 15.3843 1.2499 12.53C1.1399 7.43004 4.2499 3.00004 8.6499 2.00004C8.95187 1.93306 9.26527 1.93702 9.56546 2.01164C9.86564 2.08625 10.1444 2.22947 10.3799 2.43004C10.6505 2.66427 10.8668 2.95473 11.0136 3.28117C11.1604 3.6076 11.2342 3.96214 11.2299 4.32004V10.98C11.2506 12.3308 11.7873 13.6224 12.7299 14.59L15.5099 17.74C15.7464 18.0113 15.9215 18.3304 16.0234 18.6756C16.1252 19.0208 16.1513 19.3839 16.0999 19.74C16.0642 20.0756 15.9564 20.3995 15.7838 20.6895C15.6112 20.9795 15.3779 21.2287 15.0999 21.42C13.8178 22.2514 12.3365 22.7245 10.8099 22.79L10.5299 22.75ZM9.0899 3.40004L8.9999 3.42004C5.2599 4.28004 2.6199 8.10004 2.7199 12.49C2.76187 14.9533 3.75017 17.3058 5.4799 19.06C6.16696 19.7704 6.99309 20.3315 7.90671 20.7083C8.82033 21.0851 9.80182 21.2695 10.7899 21.25C12.0682 21.2052 13.3099 20.8109 14.3799 20.11C14.4789 20.0397 14.5614 19.9487 14.6218 19.8434C14.6822 19.7381 14.7191 19.621 14.7299 19.5C14.7498 19.3596 14.7396 19.2165 14.6999 19.0803C14.6603 18.9441 14.5921 18.8179 14.4999 18.71L11.7299 15.56C10.5198 14.3233 9.8292 12.6701 9.7999 10.94V4.28004C9.80515 4.14451 9.78004 4.00952 9.7264 3.88495C9.67276 3.76038 9.59196 3.64937 9.4899 3.56004C9.37998 3.46061 9.23807 3.40385 9.0899 3.40004ZM19.6099 19.63C19.3651 19.6296 19.1229 19.5798 18.8978 19.4835C18.6727 19.3873 18.4694 19.2467 18.2999 19.07L14.7099 15.35C14.4854 15.1171 14.3329 14.8242 14.2708 14.5067C14.2087 14.1891 14.2397 13.8604 14.3599 13.56C14.4721 13.2683 14.6694 13.0169 14.9261 12.8386C15.1829 12.6603 15.4873 12.5633 15.7999 12.56H20.8699C21.1468 12.5628 21.4196 12.6271 21.6686 12.7481C21.9176 12.8692 22.1367 13.044 22.3099 13.26C22.4806 13.4729 22.6059 13.7185 22.6781 13.9816C22.7503 14.2447 22.768 14.5199 22.7299 14.79C22.5116 16.2222 21.9789 17.5883 21.1699 18.79C21.0098 19.0195 20.8034 19.2128 20.564 19.3575C20.3246 19.5022 20.0575 19.595 19.7799 19.63H19.6099ZM15.7999 14C15.7726 13.9992 15.7459 14.0076 15.7241 14.024C15.7023 14.0403 15.6867 14.0636 15.6799 14.09C15.6621 14.1129 15.6524 14.1411 15.6524 14.17C15.6524 14.199 15.6621 14.2272 15.6799 14.25L19.2999 18C19.3443 18.0472 19.3989 18.0835 19.4597 18.1061C19.5204 18.1286 19.5855 18.1368 19.6499 18.13C19.7225 18.1225 19.7925 18.0988 19.8548 18.0608C19.9171 18.0227 19.9701 17.9712 20.0099 17.91C20.6897 16.8934 21.137 15.7393 21.3199 14.53C21.3274 14.4726 21.3223 14.4143 21.305 14.3591C21.2878 14.3038 21.2587 14.253 21.2199 14.21C21.1795 14.1549 21.1269 14.11 21.0661 14.0787C21.0054 14.0475 20.9382 14.0308 20.8699 14.03L15.7999 14ZM21.0599 11.4H15.9999C15.19 11.3843 14.4195 11.048 13.8571 10.4651C13.2948 9.88209 12.9865 9.09993 12.9999 8.29004V3.00004C12.9992 2.75173 13.0504 2.50602 13.1503 2.27869C13.2502 2.05136 13.3965 1.84744 13.5799 1.68004C13.7529 1.51641 13.9604 1.39373 14.1871 1.32103C14.4139 1.24834 14.654 1.22749 14.8899 1.26004C16.9025 1.55284 18.7565 2.51864 20.1499 4.00004C21.5756 5.51168 22.4828 7.43812 22.7399 9.50004C22.7688 9.7443 22.7473 9.99188 22.6768 10.2275C22.6063 10.4631 22.4882 10.6818 22.3299 10.87C22.1721 11.0513 21.9768 11.1962 21.7575 11.2946C21.5383 11.393 21.3002 11.4426 21.0599 11.44V11.4ZM14.6699 2.70004C14.6415 2.70094 14.6135 2.70761 14.5877 2.71964C14.5619 2.73167 14.5389 2.74882 14.5199 2.77004C14.4907 2.79435 14.4674 2.82499 14.4518 2.85965C14.4362 2.8943 14.4287 2.93206 14.4299 2.97004V8.33004C14.4191 8.5438 14.4516 8.75754 14.5254 8.95844C14.5992 9.15935 14.7128 9.34328 14.8594 9.49922C15.006 9.65517 15.1826 9.7799 15.3786 9.86596C15.5746 9.95202 15.7859 9.99762 15.9999 10H21.0799C21.1187 10 21.157 9.99101 21.1917 9.97365C21.2264 9.95629 21.2566 9.93109 21.2799 9.90004C21.3041 9.87533 21.3222 9.84524 21.3326 9.81222C21.3431 9.77921 21.3456 9.7442 21.3399 9.71004C21.1361 7.94319 20.364 6.2903 19.1399 5.00004C17.9577 3.76842 16.3922 2.97505 14.6999 2.75004L14.6699 2.70004Z" fill="black"/>
</svg>
