<svg width="24" height="24" viewBox="0 0 24 24" fill="none" xmlns="http://www.w3.org/2000/svg">
<path d="M21.78 22.8H7.59C5.90842 22.7947 4.29737 22.1237 3.10925 20.9337C1.92113 19.7437 1.25264 18.1316 1.25 16.45V2.22003C1.25 2.11366 1.27095 2.00833 1.31166 1.91006C1.35236 1.81179 1.41203 1.72249 1.48724 1.64728C1.56246 1.57206 1.65175 1.5124 1.75003 1.47169C1.8483 1.43099 1.95363 1.41003 2.06 1.41003C2.16637 1.41003 2.2717 1.43099 2.36997 1.47169C2.46825 1.5124 2.55754 1.57206 2.63276 1.64728C2.70797 1.72249 2.76764 1.81179 2.80834 1.91006C2.84905 2.00833 2.87 2.11366 2.87 2.22003V16.45C2.87 17.7028 3.36696 18.9044 4.25185 19.7911C5.13673 20.6779 6.33726 21.1774 7.59 21.18H21.78C21.9948 21.18 22.2009 21.2654 22.3528 21.4173C22.5047 21.5692 22.59 21.7752 22.59 21.99C22.59 22.2049 22.5047 22.4109 22.3528 22.5628C22.2009 22.7147 21.9948 22.8 21.78 22.8ZM22.31 16.67C22.4734 16.5288 22.5745 16.3289 22.5914 16.1135C22.6082 15.8982 22.5395 15.6849 22.4 15.52L18.52 11C18.0195 10.4108 17.3057 10.0442 16.5353 9.98042C15.7648 9.91668 15.0005 10.1611 14.41 10.66L13.31 11.59C13.0544 11.8062 12.7247 11.9145 12.3907 11.8921C12.0567 11.8698 11.7445 11.7184 11.52 11.47L7.06 6.54003C6.98843 6.46124 6.90204 6.39732 6.80577 6.35191C6.70949 6.3065 6.60521 6.2805 6.49889 6.2754C6.39257 6.27029 6.28628 6.28617 6.1861 6.32214C6.08591 6.35811 5.99379 6.41346 5.915 6.48503C5.83621 6.5566 5.77228 6.64299 5.72688 6.73927C5.68147 6.83554 5.65547 6.93982 5.65036 7.04614C5.64526 7.15247 5.66114 7.25875 5.69711 7.35894C5.73308 7.45912 5.78843 7.55124 5.86 7.63003L10.32 12.53C10.825 13.0792 11.5217 13.4135 12.2661 13.4637C13.0105 13.514 13.7458 13.2764 14.32 12.8L15.42 11.87C15.6822 11.6508 16.0202 11.5436 16.3608 11.5717C16.7014 11.5997 17.0173 11.7608 17.24 12.02L21.13 16.58C21.2066 16.6666 21.3004 16.7362 21.4054 16.7844C21.5105 16.8327 21.6244 16.8584 21.74 16.86C21.9475 16.8732 22.1519 16.805 22.31 16.67Z" fill="black"/>
</svg>
