<svg width="24" height="24" viewBox="0 0 24 24" fill="none" xmlns="http://www.w3.org/2000/svg">
<path d="M20.7802 22.87H3.22021C3.0213 22.87 2.83054 22.791 2.68988 22.6503C2.54923 22.5097 2.47021 22.3189 2.47021 22.12C2.47021 21.9211 2.54923 21.7303 2.68988 21.5897C2.83054 21.449 3.0213 21.37 3.22021 21.37H20.7802C20.9791 21.37 21.1699 21.449 21.3105 21.5897C21.4512 21.7303 21.5302 21.9211 21.5302 22.12C21.5302 22.3189 21.4512 22.5097 21.3105 22.6503C21.1699 22.791 20.9791 22.87 20.7802 22.87ZM12.0202 19.87H11.0702C10.5693 19.8678 10.0887 19.6718 9.72899 19.3233C9.36926 18.9748 9.15828 18.5006 9.14021 18V7.39C9.14021 6.87814 9.34355 6.38723 9.7055 6.02529C10.0674 5.66334 10.5583 5.46 11.0702 5.46H12.0002C12.2595 5.45059 12.518 5.49356 12.7603 5.58633C13.0026 5.6791 13.2237 5.81977 13.4104 5.99993C13.5971 6.18009 13.7456 6.39605 13.8469 6.63489C13.9482 6.87373 14.0004 7.13055 14.0002 7.39V18C13.9937 18.2557 13.9368 18.5075 13.8326 18.7411C13.7285 18.9746 13.5792 19.1853 13.3933 19.361C13.2074 19.5366 12.9887 19.6738 12.7496 19.7646C12.5105 19.8554 12.2558 19.898 12.0002 19.89L12.0202 19.87ZM11.0702 7C10.9562 7 10.8468 7.04531 10.7662 7.12595C10.6855 7.20659 10.6402 7.31596 10.6402 7.43V18C10.6402 18.114 10.6855 18.2234 10.7662 18.3041C10.8468 18.3847 10.9562 18.43 11.0702 18.43H12.0002C12.1152 18.43 12.2256 18.3851 12.3079 18.3047C12.3901 18.2243 12.4376 18.115 12.4402 18V7.39C12.4279 7.28218 12.3761 7.18271 12.2949 7.11072C12.2137 7.03873 12.1087 6.9993 12.0002 7H11.0702ZM6.25021 19.89H5.53022C4.98652 19.89 4.4651 19.674 4.08065 19.2896C3.6962 18.9051 3.48021 18.3837 3.48021 17.84V3.18001C3.48021 2.63631 3.6962 2.11489 4.08065 1.73044C4.4651 1.34599 4.98652 1.13 5.53022 1.13H6.25021C6.51942 1.13 6.786 1.18303 7.03472 1.28605C7.28343 1.38907 7.50942 1.54008 7.69978 1.73044C7.89014 1.9208 8.04115 2.14679 8.14417 2.3955C8.24719 2.64422 8.30021 2.9108 8.30021 3.18001V17.84C8.30021 18.1092 8.24719 18.3758 8.14417 18.6245C8.04115 18.8732 7.89014 19.0992 7.69978 19.2896C7.50942 19.4799 7.28343 19.6309 7.03472 19.734C6.786 19.837 6.51942 19.89 6.25021 19.89ZM5.53022 2.63001C5.38784 2.63519 5.25303 2.69541 5.15417 2.798C5.05531 2.90059 5.00012 3.03754 5.00021 3.18001V17.84C5.00021 17.9859 5.05816 18.1258 5.16131 18.2289C5.26445 18.3321 5.40435 18.39 5.55022 18.39H6.27021C6.41608 18.39 6.55598 18.3321 6.65912 18.2289C6.76227 18.1258 6.82022 17.9859 6.82022 17.84V3.18001C6.82022 3.10778 6.80599 3.03626 6.77835 2.96953C6.75071 2.9028 6.7102 2.84217 6.65912 2.7911C6.60805 2.74002 6.54742 2.69951 6.48069 2.67187C6.41396 2.64423 6.34244 2.63001 6.27021 2.63001H5.53022ZM17.6702 19.89H16.6702C16.1747 19.8748 15.7038 19.6705 15.3542 19.3191C15.0046 18.9676 14.8028 18.4956 14.7902 18V12.4C14.7928 11.8889 14.997 11.3996 15.3584 11.0382C15.7198 10.6768 16.2092 10.4726 16.7202 10.47H17.7202C18.233 10.47 18.7249 10.673 19.0885 11.0347C19.452 11.3963 19.6576 11.8872 19.6602 12.4V18C19.6537 18.2548 19.5971 18.5058 19.4936 18.7387C19.39 18.9716 19.2416 19.1818 19.0568 19.3573C18.872 19.5329 18.6544 19.6702 18.4165 19.7616C18.1786 19.853 17.925 19.8967 17.6702 19.89ZM16.6702 11.89C16.5562 11.89 16.4468 11.9353 16.3662 12.0159C16.2855 12.0966 16.2402 12.206 16.2402 12.32V18C16.2402 18.114 16.2855 18.2234 16.3662 18.3041C16.4468 18.3847 16.5562 18.43 16.6702 18.43H17.6702C17.7852 18.43 17.8956 18.3851 17.9779 18.3047C18.0601 18.2243 18.1076 18.115 18.1102 18V12.4C18.1076 12.2851 18.0601 12.1757 17.9779 12.0953C17.8956 12.015 17.7852 11.97 17.6702 11.97L16.6702 11.89Z" fill="black"/>
</svg>
