<svg width="24" height="24" viewBox="0 0 24 24" fill="none" xmlns="http://www.w3.org/2000/svg">
<path d="M15.3101 22.38C14.7797 22.38 14.271 22.1692 13.8959 21.7942C13.5209 21.4191 13.3101 20.9104 13.3101 20.38V15.94C13.3075 15.5565 13.3804 15.1763 13.5247 14.821C13.6691 14.4657 13.8819 14.1423 14.1512 13.8693C14.4205 13.5963 14.7409 13.379 15.0942 13.2299C15.4475 13.0807 15.8267 13.0026 16.2101 13H20.6201C20.9206 12.9974 21.2178 13.0627 21.4896 13.1908C21.7614 13.3189 22.0008 13.5066 22.1901 13.74C22.3816 13.9706 22.5187 14.2413 22.5914 14.5321C22.6641 14.8229 22.6705 15.1263 22.6101 15.42C22.2742 17.1248 21.4387 18.6912 20.2101 19.92C18.9866 21.1555 17.4179 21.9922 15.7101 22.32C15.5796 22.3553 15.4453 22.3755 15.3101 22.38ZM16.2101 14.45C15.815 14.45 15.436 14.6069 15.1565 14.8864C14.8771 15.1658 14.7201 15.5448 14.7201 15.94V20.36C14.7215 20.448 14.7418 20.5346 14.7798 20.614C14.8177 20.6934 14.8725 20.7637 14.9401 20.82C15.0091 20.8726 15.0883 20.9105 15.1726 20.9311C15.2569 20.9518 15.3446 20.9548 15.4301 20.94C16.8586 20.6594 18.1712 19.9598 19.2006 18.9304C20.23 17.9011 20.9296 16.5884 21.2101 15.16C21.2245 15.0736 21.2201 14.9851 21.1972 14.9005C21.1744 14.816 21.1335 14.7373 21.0776 14.67C21.0216 14.6026 20.9518 14.5481 20.8728 14.5101C20.7939 14.4722 20.7077 14.4516 20.6201 14.45H16.2101ZM9.80014 22.33C9.66367 22.3403 9.52661 22.3403 9.39014 22.33C7.12992 21.8932 5.09227 20.6832 3.62702 18.9077C2.16177 17.1322 1.36035 14.902 1.36035 12.6C1.36035 10.2979 2.16177 8.06771 3.62702 6.29221C5.09227 4.51672 7.12992 3.30671 9.39014 2.86995C9.70558 2.81138 10.03 2.82218 10.3408 2.90162C10.6517 2.98106 10.9415 3.12722 11.1901 3.32995C11.4392 3.53202 11.6408 3.78633 11.7808 4.0749C11.9208 4.36347 11.9956 4.67926 12.0001 4.99995V20.17C11.9992 20.4868 11.9289 20.7996 11.7941 21.0864C11.6594 21.3732 11.4635 21.627 11.2201 21.83C10.8191 22.1562 10.3171 22.3329 9.80014 22.33ZM9.80014 4.22995H9.65014C7.71402 4.59925 5.96731 5.63223 4.71092 7.15092C3.45452 8.66961 2.76712 10.5789 2.76712 12.55C2.76712 14.521 3.45452 16.4303 4.71092 17.949C5.96731 19.4677 7.71402 20.5007 9.65014 20.87C9.75815 20.8921 9.86972 20.8901 9.97688 20.8642C10.084 20.8382 10.1842 20.789 10.2701 20.72C10.3531 20.6518 10.4202 20.5664 10.4668 20.4697C10.5134 20.373 10.5384 20.2673 10.5401 20.16V4.99995C10.5398 4.89381 10.5153 4.78913 10.4685 4.69384C10.4217 4.59856 10.3539 4.51516 10.2701 4.44995C10.1487 4.31737 9.97973 4.23827 9.80014 4.22995ZM20.6201 11.88H16.2101C15.4426 11.88 14.7059 11.5779 14.1594 11.0389C13.6129 10.4999 13.3007 9.76743 13.2901 8.99995V4.54995C13.2834 4.24792 13.3451 3.94827 13.4708 3.67352C13.5964 3.39877 13.7827 3.15606 14.0155 2.9636C14.2484 2.77114 14.5219 2.63394 14.8154 2.5623C15.1089 2.49065 15.4148 2.48643 15.7101 2.54995C17.4149 2.88607 18.9812 3.72158 20.2099 4.95024C21.4385 6.1789 22.274 7.74519 22.6101 9.44995C22.6705 9.74356 22.6641 10.047 22.5914 10.3378C22.5187 10.6286 22.3816 10.8993 22.1901 11.13C22.0018 11.3651 21.7628 11.5548 21.491 11.6846C21.2191 11.8145 20.9214 11.8813 20.6201 11.88ZM15.3101 3.99995C15.1742 4.00182 15.0433 4.05137 14.9401 4.13995C14.8703 4.19428 14.814 4.26414 14.7758 4.34398C14.7376 4.42382 14.7186 4.51146 14.7201 4.59995V8.99995C14.7201 9.39513 14.8771 9.77411 15.1565 10.0535C15.436 10.333 15.815 10.49 16.2101 10.49H20.6201C20.7086 10.4915 20.7963 10.4724 20.8761 10.4343C20.956 10.3961 21.0258 10.3398 21.0801 10.27C21.1388 10.2043 21.1812 10.1256 21.2038 10.0405C21.2264 9.95537 21.2285 9.8661 21.2101 9.77995C20.9295 8.34862 20.2299 7.03295 19.2001 5.99995C18.1661 4.97896 16.8553 4.28361 15.4301 3.99995H15.3101Z" fill="black"/>
</svg>
