<svg width="24" height="24" viewBox="0 0 24 24" fill="none" xmlns="http://www.w3.org/2000/svg">
<path d="M22.75 22C22.75 22.2175 22.6636 22.426 22.5098 22.5798C22.356 22.7336 22.1475 22.82 21.93 22.82H7.64C5.94608 22.8174 4.32229 22.1433 3.12451 20.9455C1.92672 19.7477 1.25264 18.1239 1.25 16.43V2.07C1.25 1.85252 1.33639 1.64395 1.49017 1.49017C1.64395 1.33639 1.85252 1.25 2.07 1.25C2.28574 1.25263 2.49175 1.34018 2.64337 1.49368C2.795 1.64718 2.88002 1.85424 2.88 2.07V16.41C2.88265 17.6707 3.38532 18.8789 4.2777 19.7694C5.17009 20.6599 6.3793 21.16 7.64 21.16H21.93C22.0394 21.16 22.1477 21.1818 22.2485 21.2243C22.3493 21.2667 22.4406 21.3289 22.517 21.4072C22.5934 21.4855 22.6534 21.5782 22.6934 21.6801C22.7334 21.7819 22.7527 21.8906 22.75 22ZM6.49 16.82C6.6095 16.8187 6.72737 16.7921 6.83592 16.7422C6.94448 16.6922 7.04128 16.6199 7.12 16.53L11 11.94C11.1106 11.8087 11.246 11.7006 11.3985 11.622C11.5511 11.5433 11.7177 11.4956 11.8888 11.4817C12.0598 11.4677 12.2319 11.4878 12.3952 11.5407C12.5585 11.5936 12.7096 11.6784 12.84 11.79L13.95 12.73C14.5316 13.2202 15.2805 13.466 16.0394 13.4156C16.7984 13.3653 17.5083 13.0227 18.02 12.46L22.51 7.52C22.637 7.35694 22.6978 7.15192 22.6801 6.94597C22.6625 6.74003 22.5677 6.54835 22.4147 6.40931C22.2618 6.27027 22.062 6.19412 21.8553 6.1961C21.6486 6.19808 21.4503 6.27805 21.3 6.42L16.81 11.36C16.5821 11.6097 16.2665 11.7616 15.9291 11.784C15.5918 11.8063 15.2589 11.6974 15 11.48L13.89 10.54C13.2962 10.0399 12.5287 9.79496 11.7549 9.85866C10.9812 9.92236 10.264 10.2895 9.76 10.88L5.87 15.47C5.73516 15.6399 5.67314 15.8563 5.6975 16.0718C5.72187 16.2874 5.83064 16.4845 6 16.62C6.13789 16.7371 6.30954 16.8072 6.49 16.82Z" fill="black"/>
</svg>
