<svg width="24" height="24" viewBox="0 0 24 24" fill="none" xmlns="http://www.w3.org/2000/svg">
<path d="M20.78 22.75H3.21996C3.0184 22.75 2.82509 22.6699 2.68256 22.5274C2.54003 22.3848 2.45996 22.1915 2.45996 21.99C2.45996 21.7884 2.54003 21.5951 2.68256 21.4526C2.82509 21.31 3.0184 21.23 3.21996 21.23H20.78C20.9815 21.23 21.1748 21.31 21.3174 21.4526C21.4599 21.5951 21.54 21.7884 21.54 21.99C21.54 22.1915 21.4599 22.3848 21.3174 22.5274C21.1748 22.6699 20.9815 22.75 20.78 22.75ZM18.29 19.75H17.29C16.7798 19.7447 16.2925 19.5377 15.9346 19.1741C15.5767 18.8106 15.3773 18.3201 15.38 17.81V7.50998C15.3773 6.99983 15.5767 6.50937 15.9346 6.14583C16.2925 5.7823 16.7798 5.57526 17.29 5.56998H18.29C18.8001 5.57526 19.2874 5.7823 19.6453 6.14583C20.0032 6.50937 20.2026 6.99983 20.2 7.50998V17.77C20.2026 18.2801 20.0032 18.7706 19.6453 19.1341C19.2874 19.4977 18.8001 19.7047 18.29 19.71V19.75ZM17.29 7.12998C17.1803 7.13259 17.076 7.17799 16.9994 7.25647C16.9228 7.33496 16.8799 7.4403 16.88 7.54998V17.77C16.88 17.8787 16.9232 17.983 17 18.0599C17.0769 18.1368 17.1812 18.18 17.29 18.18H18.29C18.3987 18.18 18.503 18.1368 18.5799 18.0599C18.6568 17.983 18.7 17.8787 18.7 17.77V7.50998C18.7013 7.4553 18.6917 7.40091 18.6717 7.35C18.6517 7.2991 18.6217 7.25271 18.5835 7.21358C18.5453 7.17444 18.4996 7.14334 18.4492 7.12211C18.3988 7.10089 18.3447 7.08996 18.29 7.08998L17.29 7.12998ZM11.92 19.71H11.15C10.6132 19.6969 10.1031 19.4738 9.7291 19.0886C9.35513 18.7034 9.14718 18.1868 9.14996 17.65V3.40998C9.14193 3.14233 9.18772 2.87579 9.28463 2.62617C9.38154 2.37655 9.52758 2.14893 9.7141 1.95681C9.90063 1.76469 10.1238 1.61199 10.3705 1.50775C10.6171 1.40351 10.8822 1.34986 11.15 1.34998H11.92C12.1877 1.34986 12.4528 1.40351 12.6994 1.50775C12.9461 1.61199 13.1693 1.76469 13.3558 1.95681C13.5423 2.14893 13.6884 2.37655 13.7853 2.62617C13.8822 2.87579 13.928 3.14233 13.92 3.40998V17.65C13.928 17.9176 13.8822 18.1842 13.7853 18.4338C13.6884 18.6834 13.5423 18.911 13.3558 19.1031C13.1693 19.2953 12.9461 19.448 12.6994 19.5522C12.4528 19.6564 12.1877 19.7101 11.92 19.71ZM11.15 2.87998C11.0804 2.87998 11.0114 2.89368 10.9471 2.92032C10.8828 2.94695 10.8244 2.98599 10.7752 3.03521C10.726 3.08442 10.6869 3.14285 10.6603 3.20715C10.6337 3.27146 10.62 3.34038 10.62 3.40998V17.65C10.62 17.7905 10.6758 17.9253 10.7752 18.0247C10.8746 18.1241 11.0094 18.18 11.15 18.18H11.92C11.9891 18.18 12.0575 18.1662 12.1213 18.1395C12.185 18.1127 12.2428 18.0735 12.2912 18.0242C12.3397 17.9748 12.3777 17.9163 12.4033 17.852C12.4288 17.7878 12.4413 17.7191 12.44 17.65V3.40998C12.4413 3.34085 12.4288 3.27216 12.4033 3.20791C12.3777 3.14366 12.3397 3.08515 12.2912 3.0358C12.2428 2.98645 12.185 2.94725 12.1213 2.92049C12.0575 2.89374 11.9891 2.87996 11.92 2.87998H11.15ZM5.99996 19.71H4.99996C4.74782 19.7074 4.49866 19.6551 4.26671 19.5562C4.03477 19.4573 3.82458 19.3137 3.64814 19.1335C3.47171 18.9534 3.33249 18.7402 3.23843 18.5063C3.14437 18.2723 3.09732 18.0221 3.09996 17.77V12.36C3.09732 12.1078 3.14437 11.8576 3.23843 11.6237C3.33249 11.3897 3.47171 11.1766 3.64814 10.9964C3.82458 10.8163 4.03477 10.6727 4.26671 10.5738C4.49866 10.4748 4.74782 10.4226 4.99996 10.42H5.99996C6.25295 10.4213 6.50318 10.4726 6.73628 10.5709C6.96939 10.6692 7.18076 10.8126 7.35825 10.9929C7.53574 11.1732 7.67585 11.3868 7.77053 11.6214C7.86522 11.856 7.9126 12.107 7.90996 12.36V17.77C7.9126 18.023 7.86522 18.274 7.77053 18.5086C7.67585 18.7432 7.53574 18.9567 7.35825 19.137C7.18076 19.3173 6.96939 19.4607 6.73628 19.5591C6.50318 19.6574 6.25295 19.7087 5.99996 19.71ZM4.99996 12C4.94658 12 4.89374 12.0106 4.84454 12.0314C4.79535 12.0521 4.7508 12.0824 4.71352 12.1206C4.67625 12.1589 4.64699 12.2041 4.62749 12.2538C4.60799 12.3035 4.59863 12.3566 4.59996 12.41V17.82C4.59863 17.8733 4.60799 17.9264 4.62749 17.9761C4.64699 18.0258 4.67625 18.0711 4.71352 18.1093C4.7508 18.1475 4.79535 18.1779 4.84454 18.1986C4.89374 18.2193 4.94658 18.23 4.99996 18.23H5.99996C6.1087 18.23 6.21298 18.1868 6.28987 18.1099C6.36676 18.033 6.40996 17.9287 6.40996 17.82V12.36C6.39769 12.2601 6.34914 12.1683 6.27354 12.1019C6.19794 12.0355 6.10057 11.9992 5.99996 12H4.99996Z" fill="black"/>
</svg>
