<svg width="24" height="24" viewBox="0 0 24 24" fill="none" xmlns="http://www.w3.org/2000/svg">
<path d="M15.84 2.67C16.5702 2.67654 17.2919 2.82683 17.9639 3.1123C18.636 3.39778 19.2453 3.81283 19.7569 4.33378C20.2686 4.85472 20.6726 5.47134 20.946 6.14844C21.2193 6.82554 21.3566 7.54984 21.35 8.28V15.72C21.3566 16.4502 21.2193 17.1745 20.946 17.8516C20.6726 18.5287 20.2686 19.1453 19.7569 19.6662C19.2453 20.1872 18.636 20.6022 17.9639 20.8877C17.2919 21.1732 16.5702 21.3235 15.84 21.33H8.16C7.42984 21.3235 6.70812 21.1732 6.03605 20.8877C5.36398 20.6022 4.75472 20.1872 4.24306 19.6662C3.73141 19.1453 3.32737 18.5287 3.05404 17.8516C2.7807 17.1745 2.6434 16.4502 2.65 15.72V8.28C2.6434 7.54984 2.7807 6.82554 3.05404 6.14844C3.32737 5.47134 3.73141 4.85472 4.24306 4.33378C4.75472 3.81283 5.36398 3.39778 6.03605 3.1123C6.70812 2.82683 7.42984 2.67654 8.16 2.67H15.84ZM14.11 10H15.22L12.94 12.49C12.9143 12.5 12.8857 12.5 12.86 12.49C12.8506 12.4944 12.8404 12.4968 12.83 12.4968C12.8196 12.4968 12.8094 12.4944 12.8 12.49L11.36 11.32C11.0926 11.1075 10.7615 10.9913 10.42 10.99C10.2195 10.9885 10.021 11.0287 9.83678 11.1078C9.65262 11.187 9.48687 11.3035 9.35 11.45L7.11 13.74C6.98046 13.8742 6.90807 14.0535 6.90807 14.24C6.90807 14.4265 6.98046 14.6058 7.11 14.74C7.17368 14.8091 7.25099 14.8642 7.33704 14.9019C7.4231 14.9397 7.51604 14.9591 7.61 14.9591C7.70396 14.9591 7.7969 14.9397 7.88296 14.9019C7.96901 14.8642 8.04632 14.8091 8.11 14.74L10.35 12.41C10.3727 12.4024 10.3973 12.4024 10.42 12.41H10.48L11.93 13.58C12.1896 13.8005 12.5194 13.921 12.86 13.92C13.0673 13.9188 13.272 13.8746 13.4613 13.7902C13.6507 13.7059 13.8204 13.5832 13.96 13.43L16.12 11V12C16.12 12.0919 16.1381 12.183 16.1733 12.2679C16.2085 12.3528 16.26 12.43 16.325 12.495C16.39 12.56 16.4672 12.6115 16.5521 12.6467C16.637 12.6819 16.7281 12.7 16.82 12.7C16.9119 12.7 17.003 12.6819 17.0879 12.6467C17.1728 12.6115 17.25 12.56 17.315 12.495C17.38 12.43 17.4315 12.3528 17.4667 12.2679C17.5019 12.183 17.52 12.0919 17.52 12V9.24C17.5213 9.14676 17.5043 9.05417 17.4698 8.96752C17.4353 8.88087 17.3841 8.80187 17.3191 8.73501C17.2541 8.66815 17.1766 8.61475 17.091 8.57785C17.0053 8.54096 16.9132 8.5213 16.82 8.52H14.11C13.9349 8.54074 13.7736 8.62499 13.6565 8.75677C13.5394 8.88855 13.4747 9.05871 13.4747 9.235C13.4747 9.41129 13.5394 9.58145 13.6565 9.71323C13.7736 9.84501 13.9349 9.92926 14.11 9.95M15.84 1.25H8.16C6.31913 1.27367 4.56168 2.0216 3.26833 3.3318C1.97498 4.642 1.24985 6.40897 1.25 8.25V15.69C1.24985 17.531 1.97498 19.298 3.26833 20.6082C4.56168 21.9184 6.31913 22.6663 8.16 22.69H15.84C17.6809 22.6663 19.4383 21.9184 20.7317 20.6082C22.025 19.298 22.7502 17.531 22.75 15.69V8.28C22.7502 6.43897 22.025 4.672 20.7317 3.3618C19.4383 2.0516 17.6809 1.30367 15.84 1.28V1.25Z" fill="black"/>
</svg>
