<svg width="24" height="24" viewBox="0 0 24 24" fill="none" xmlns="http://www.w3.org/2000/svg">
<path d="M20.78 22.7499H3.21996C3.0184 22.7499 2.82509 22.6699 2.68256 22.5273C2.54003 22.3848 2.45996 22.1915 2.45996 21.9899C2.45996 21.7884 2.54003 21.5951 2.68256 21.4525C2.82509 21.31 3.0184 21.2299 3.21996 21.2299H20.78C20.9815 21.2299 21.1748 21.31 21.3174 21.4525C21.4599 21.5951 21.54 21.7884 21.54 21.9899C21.54 22.1915 21.4599 22.3848 21.3174 22.5273C21.1748 22.6699 20.9815 22.7499 20.78 22.7499ZM12 19.6999H11C10.4898 19.6947 10.0025 19.4876 9.64463 19.1241C9.28671 18.7606 9.08729 18.2701 9.08996 17.7599V7.47995C9.08729 6.9698 9.28671 6.47934 9.64463 6.1158C10.0025 5.75227 10.4898 5.54523 11 5.53995H12C12.5101 5.54523 12.9974 5.75227 13.3553 6.1158C13.7132 6.47934 13.9126 6.9698 13.91 7.47995V17.7599C13.9126 18.2701 13.7132 18.7606 13.3553 19.1241C12.9974 19.4876 12.5101 19.6947 12 19.6999ZM11 7.06995C10.892 7.07249 10.7892 7.1165 10.7129 7.19285C10.6365 7.26919 10.5925 7.37201 10.59 7.47995V17.7599C10.5899 17.8696 10.6328 17.975 10.7094 18.0535C10.786 18.1319 10.8903 18.1773 11 18.1799H12C12.0547 18.18 12.1088 18.169 12.1592 18.1478C12.2096 18.1266 12.2553 18.0955 12.2935 18.0563C12.3317 18.0172 12.3617 17.9708 12.3817 17.9199C12.4017 17.869 12.4113 17.8146 12.41 17.7599V7.47995C12.41 7.37121 12.3668 7.26692 12.2899 7.19003C12.213 7.11314 12.1087 7.06995 12 7.06995H11ZM18 19.6999H17.23C16.9622 19.7001 16.6971 19.6464 16.4505 19.5422C16.2038 19.4379 15.9806 19.2852 15.7941 19.0931C15.6076 18.901 15.4615 18.6734 15.3646 18.4238C15.2677 18.1741 15.2219 17.9076 15.23 17.6399V3.37995C15.2219 3.1123 15.2677 2.84576 15.3646 2.59614C15.4615 2.34652 15.6076 2.1189 15.7941 1.92678C15.9806 1.73467 16.2038 1.58196 16.4505 1.47772C16.6971 1.37348 16.9622 1.31983 17.23 1.31995H18C18.2677 1.31983 18.5328 1.37348 18.7794 1.47772C19.0261 1.58196 19.2493 1.73467 19.4358 1.92678C19.6223 2.1189 19.7684 2.34652 19.8653 2.59614C19.9622 2.84576 20.008 3.1123 20 3.37995V17.6399C20.008 17.9076 19.9622 18.1741 19.8653 18.4238C19.7684 18.6734 19.6223 18.901 19.4358 19.0931C19.2493 19.2852 19.0261 19.4379 18.7794 19.5422C18.5328 19.6464 18.2677 19.7001 18 19.6999ZM17.25 2.83995C17.1804 2.84125 17.1117 2.85625 17.0479 2.88409C16.9841 2.91194 16.9264 2.95208 16.8781 3.00222C16.8298 3.05237 16.7919 3.11154 16.7665 3.17635C16.741 3.24116 16.7286 3.31034 16.73 3.37995V17.6399C16.7286 17.7095 16.741 17.7787 16.7665 17.8435C16.7919 17.9084 16.8298 17.9675 16.8781 18.0177C16.9264 18.0678 16.9841 18.108 17.0479 18.1358C17.1117 18.1636 17.1804 18.1786 17.25 18.1799H18C18.0696 18.1786 18.1382 18.1636 18.202 18.1358C18.2658 18.108 18.3235 18.0678 18.3718 18.0177C18.4201 17.9675 18.4581 17.9084 18.4835 17.8435C18.5089 17.7787 18.5213 17.7095 18.52 17.6399V3.37995C18.5213 3.31034 18.5089 3.24116 18.4835 3.17635C18.4581 3.11154 18.4201 3.05237 18.3718 3.00222C18.3235 2.95208 18.2658 2.91194 18.202 2.88409C18.1382 2.85625 18.0696 2.84125 18 2.83995H17.25ZM5.99996 19.6999H4.99996C4.74697 19.6986 4.49674 19.6474 4.26364 19.549C4.03054 19.4507 3.81917 19.3073 3.64167 19.127C3.46418 18.9467 3.32407 18.7331 3.22939 18.4985C3.13471 18.2639 3.08732 18.0129 3.08996 17.7599V12.3399C3.08732 12.087 3.13471 11.836 3.22939 11.6014C3.32407 11.3668 3.46418 11.1532 3.64167 10.9729C3.81917 10.7926 4.03054 10.6492 4.26364 10.5509C4.49674 10.4525 4.74697 10.4012 4.99996 10.3999H5.99996C6.25295 10.4012 6.50318 10.4525 6.73628 10.5509C6.96939 10.6492 7.18076 10.7926 7.35825 10.9729C7.53574 11.1532 7.67585 11.3668 7.77053 11.6014C7.86522 11.836 7.9126 12.087 7.90996 12.3399V17.7599C7.9126 18.0129 7.86522 18.2639 7.77053 18.4985C7.67585 18.7331 7.53574 18.9467 7.35825 19.127C7.18076 19.3073 6.96939 19.4507 6.73628 19.549C6.50318 19.6474 6.25295 19.6986 5.99996 19.6999ZM4.99996 11.9299C4.89122 11.9299 4.78694 11.9731 4.71005 12.05C4.63316 12.1269 4.58996 12.2312 4.58996 12.3399V17.7599C4.58863 17.8146 4.59825 17.869 4.61825 17.9199C4.63826 17.9708 4.66825 18.0172 4.70645 18.0563C4.74466 18.0955 4.79031 18.1266 4.84072 18.1478C4.89112 18.169 4.94527 18.18 4.99996 18.1799H5.99996C6.05465 18.18 6.1088 18.169 6.15921 18.1478C6.20961 18.1266 6.25526 18.0955 6.29347 18.0563C6.33167 18.0172 6.36166 17.9708 6.38167 17.9199C6.40168 17.869 6.41129 17.8146 6.40996 17.7599V12.3399C6.40996 12.2312 6.36676 12.1269 6.28987 12.05C6.21298 11.9731 6.1087 11.9299 5.99996 11.9299H4.99996Z" fill="black"/>
</svg>
