<svg width="24" height="24" viewBox="0 0 24 24" fill="none" xmlns="http://www.w3.org/2000/svg">
<path d="M13.1102 12.23C13.1102 12.23 13.1102 12.23 13.0502 12.23L11.6002 11C11.3406 10.7796 11.0108 10.659 10.6702 10.66C10.4701 10.6609 10.2722 10.7021 10.0884 10.7812C9.90457 10.8602 9.73854 10.9755 9.60021 11.12L7.36021 13.5C7.22831 13.633 7.1543 13.8127 7.1543 14C7.1543 14.1874 7.22831 14.3671 7.36021 14.5C7.42317 14.5667 7.49914 14.6198 7.58343 14.6559C7.66771 14.692 7.75852 14.7104 7.85021 14.71C8.03931 14.7052 8.21892 14.6262 8.35021 14.49L10.5902 12.16C10.6013 12.1554 10.6132 12.153 10.6252 12.153C10.6372 12.153 10.6491 12.1554 10.6602 12.16H10.7202L12.1602 13.33C12.4252 13.5469 12.7579 13.6637 13.1002 13.66C13.3067 13.6601 13.511 13.6175 13.7003 13.5349C13.8896 13.4523 14.0598 13.3315 14.2002 13.18L16.6502 10.5C16.7797 10.3658 16.8521 10.1866 16.8521 10C16.8521 9.81352 16.7797 9.63427 16.6502 9.50005C16.5224 9.37334 16.3502 9.30157 16.1702 9.30005C16.0741 9.30185 15.9793 9.32316 15.8916 9.3627C15.8039 9.40223 15.7252 9.45917 15.6602 9.53005L13.1802 12.2C13.1691 12.2047 13.1572 12.2071 13.1452 12.2071C13.1332 12.2071 13.1213 12.2047 13.1102 12.2" fill="black"/>
<path d="M16.18 2.75C16.8458 2.75 17.5051 2.88114 18.1202 3.13593C18.7353 3.39072 19.2942 3.76418 19.765 4.23497C20.2358 4.70576 20.6093 5.26467 20.8641 5.8798C21.1189 6.49492 21.25 7.1542 21.25 7.82V16.18C21.25 16.8458 21.1189 17.5051 20.8641 18.1202C20.6093 18.7353 20.2358 19.2942 19.765 19.765C19.2942 20.2358 18.7353 20.6093 18.1202 20.8641C17.5051 21.1189 16.8458 21.25 16.18 21.25H7.82C7.1542 21.25 6.49492 21.1189 5.8798 20.8641C5.26467 20.6093 4.70576 20.2358 4.23497 19.765C3.76418 19.2942 3.39072 18.7353 3.13593 18.1202C2.88114 17.5051 2.75 16.8458 2.75 16.18V7.82C2.75 6.47535 3.28416 5.18578 4.23497 4.23497C5.18578 3.28416 6.47535 2.75 7.82 2.75H16.18ZM16.18 1.25H7.82C6.07753 1.25 4.40642 1.94219 3.17431 3.17431C1.94219 4.40642 1.25 6.07753 1.25 7.82V16.18C1.25 17.9225 1.94219 19.5936 3.17431 20.8257C4.40642 22.0578 6.07753 22.75 7.82 22.75H16.18C17.9225 22.75 19.5936 22.0578 20.8257 20.8257C22.0578 19.5936 22.75 17.9225 22.75 16.18V7.82C22.75 6.07753 22.0578 4.40642 20.8257 3.17431C19.5936 1.94219 17.9225 1.25 16.18 1.25Z" fill="black"/>
</svg>
