<svg width="24" height="24" viewBox="0 0 24 24" fill="none" xmlns="http://www.w3.org/2000/svg">
<path d="M11.9999 22.7001C10.5562 22.7032 9.12674 22.4152 7.79687 21.8534C6.467 21.2915 5.26405 20.4673 4.25992 19.43C4.05666 19.2188 3.9042 18.964 3.8141 18.6851C3.724 18.4061 3.69863 18.1103 3.73992 17.82C3.78487 17.5181 3.89837 17.2304 4.0717 16.979C4.24504 16.7277 4.47362 16.5194 4.73992 16.37L6.37992 15.37C6.6817 15.1916 7.03349 15.1165 7.38184 15.1562C7.73019 15.1959 8.05605 15.3482 8.30992 15.59C9.2994 16.5635 10.6319 17.1091 12.0199 17.1091C13.408 17.1091 14.7404 16.5635 15.7299 15.59C15.9838 15.3482 16.3097 15.1959 16.658 15.1562C17.0064 15.1165 17.3581 15.1916 17.6599 15.37L19.2999 16.37C19.5662 16.5194 19.7948 16.7277 19.9681 16.979C20.1415 17.2304 20.255 17.5181 20.2999 17.82C20.3412 18.1103 20.3158 18.4061 20.2257 18.6851C20.1356 18.964 19.9832 19.2188 19.7799 19.43C18.7711 20.4722 17.5617 21.2992 16.2246 21.8612C14.8874 22.4232 13.4503 22.7086 11.9999 22.7001ZM7.17992 16.7C7.15735 16.6916 7.13249 16.6916 7.10992 16.7L5.46992 17.64C5.40192 17.6775 5.34379 17.7306 5.30032 17.7949C5.25686 17.8592 5.2293 17.933 5.21992 18.01C5.20982 18.0729 5.2145 18.1373 5.23359 18.198C5.25268 18.2588 5.28567 18.3143 5.32992 18.3601C6.19669 19.2521 7.23359 19.9612 8.37926 20.4455C9.52494 20.9297 10.7561 21.1792 11.9999 21.1792C13.2437 21.1792 14.4749 20.9297 15.6206 20.4455C16.7663 19.9612 17.8032 19.2521 18.6699 18.3601C18.7142 18.3143 18.7472 18.2588 18.7663 18.198C18.7853 18.1373 18.79 18.0729 18.7799 18.01C18.7705 17.933 18.743 17.8592 18.6995 17.7949C18.6561 17.7306 18.5979 17.6775 18.5299 17.64L16.8899 16.7C16.8705 16.6876 16.848 16.6809 16.8249 16.6809C16.8019 16.6809 16.7793 16.6876 16.7599 16.7C15.4913 17.9508 13.7814 18.6519 11.9999 18.6519C10.2184 18.6519 8.50854 17.9508 7.23992 16.7H7.17992ZM20.5299 16.18C20.1796 16.1825 19.8347 16.0928 19.5299 15.92L17.8999 15C17.5939 14.8239 17.3534 14.5531 17.2146 14.2285C17.0757 13.9039 17.046 13.543 17.1299 13.2C17.4785 11.857 17.2835 10.4307 16.587 9.23068C15.8906 8.03062 14.749 7.15363 13.4099 6.79005C13.0421 6.66863 12.7272 6.42457 12.5179 6.09873C12.3086 5.77288 12.2175 5.38502 12.2599 5.00005V3.29005C12.2559 2.9879 12.3204 2.68876 12.4486 2.4151C12.5767 2.14145 12.7652 1.9004 12.9999 1.71005C13.2302 1.52996 13.4985 1.40481 13.7844 1.34416C14.0704 1.2835 14.3664 1.28894 14.6499 1.36005C16.9829 1.95412 19.0511 3.30928 20.5273 5.21107C22.0034 7.11285 22.8032 9.45261 22.7999 11.86C22.7992 12.8226 22.6714 13.7809 22.4199 14.71C22.3379 14.9964 22.1931 15.2608 21.9958 15.484C21.7986 15.7072 21.554 15.8835 21.2799 16C21.044 16.1081 20.7892 16.1693 20.5299 16.18ZM14.2099 2.80005C14.1144 2.80283 14.0227 2.83811 13.9499 2.90005C13.8899 2.94557 13.8414 3.0046 13.8083 3.07236C13.7753 3.14011 13.7587 3.21469 13.7599 3.29005V5.00005C13.7528 5.11653 13.7734 5.23303 13.8199 5.34005C15.2546 5.73212 16.5208 6.58438 17.4241 7.76589C18.3274 8.9474 18.8178 10.3928 18.8199 11.88C18.8213 12.4506 18.7473 13.0189 18.5999 13.57C18.5977 13.5948 18.6033 13.6197 18.6158 13.6412C18.6283 13.6627 18.6472 13.6798 18.6699 13.69L20.3099 14.64C20.3756 14.6712 20.4473 14.6873 20.5199 14.6873C20.5926 14.6873 20.6643 14.6712 20.7299 14.64C20.8002 14.6108 20.8628 14.5658 20.9131 14.5086C20.9634 14.4514 20.9999 14.3835 21.0199 14.31C21.3465 13.1155 21.432 11.868 21.2714 10.6401C21.1109 9.41216 20.7075 8.22851 20.0848 7.15811C19.4621 6.08771 18.6326 5.15198 17.6445 4.40547C16.6565 3.65896 15.5297 3.11661 14.3299 2.81005L14.2099 2.80005ZM3.46992 16.18C3.21061 16.1693 2.95587 16.1081 2.71992 16C2.43586 15.8831 2.18255 15.7023 1.97965 15.4716C1.77675 15.241 1.6297 14.9667 1.54992 14.67C1.29842 13.7409 1.17066 12.7826 1.16992 11.82C1.17556 9.41946 1.97937 7.08892 3.45482 5.19527C4.93027 3.30163 6.99357 1.95243 9.31992 1.36005C9.60837 1.29007 9.90879 1.28517 10.1994 1.34571C10.4899 1.40624 10.7634 1.5307 10.9999 1.71005C11.2401 1.89738 11.4343 2.13711 11.5678 2.41093C11.7012 2.68475 11.7704 2.98544 11.7699 3.29005V5.20005C11.7736 5.54968 11.6634 5.89102 11.4559 6.17247C11.2485 6.45392 10.955 6.66017 10.6199 6.76005C9.28089 7.12363 8.13927 8.00062 7.44282 9.20068C6.74637 10.4007 6.55129 11.827 6.89992 13.17C6.99021 13.5206 6.96048 13.8913 6.81548 14.223C6.67048 14.5547 6.41856 14.8283 6.09992 15L4.45992 15.95C4.15523 16.1107 3.81422 16.1899 3.46992 16.18ZM9.78992 2.80005H9.68992C8.48793 3.10645 7.35911 3.64945 6.36947 4.3973C5.37984 5.14516 4.54927 6.08284 3.92634 7.15551C3.30341 8.22818 2.90063 9.41429 2.74156 10.6445C2.58249 11.8747 2.67032 13.1242 2.99992 14.32C3.01995 14.3935 3.05648 14.4614 3.10674 14.5186C3.15699 14.5758 3.21965 14.6208 3.28992 14.65C3.35555 14.6812 3.42728 14.6973 3.49992 14.6973C3.57256 14.6973 3.64429 14.6812 3.70992 14.65L5.34992 13.7C5.37259 13.6898 5.39151 13.6727 5.40405 13.6512C5.41659 13.6297 5.42214 13.6048 5.41992 13.58C5.27193 13.029 5.19794 12.4606 5.19992 11.89C5.20487 10.4023 5.69614 8.95707 6.59884 7.77453C7.50154 6.59199 8.76616 5.73705 10.1999 5.34005C10.1999 5.34005 10.2499 5.34005 10.2499 5.23005V3.29005C10.2503 3.21482 10.2334 3.14051 10.2004 3.07288C10.1675 3.00524 10.1194 2.94611 10.0599 2.90005C9.98452 2.83594 9.88889 2.80053 9.78992 2.80005Z" fill="black"/>
</svg>
