<svg width="24" height="24" viewBox="0 0 24 24" fill="none" xmlns="http://www.w3.org/2000/svg">
<path d="M11.0501 22.64C8.66704 22.6282 6.37193 21.7386 4.60339 20.1413C2.83486 18.544 1.71693 16.3511 1.46327 13.9816C1.20962 11.612 1.83802 9.23211 3.22838 7.29667C4.61874 5.36124 6.67354 4.00601 9.00007 3.49001C9.19362 3.44831 9.39581 3.48483 9.56253 3.59161C9.72926 3.69839 9.847 3.86677 9.89007 4.06001C9.9198 4.16212 9.92717 4.26943 9.91168 4.37464C9.8962 4.47985 9.85821 4.58049 9.80032 4.6697C9.74243 4.7589 9.666 4.83458 9.57622 4.89159C9.48644 4.94859 9.38543 4.98557 9.28007 5.00001C7.84153 5.31817 6.51544 6.01848 5.44156 7.02715C4.36768 8.03582 3.58577 9.31549 3.17824 10.7313C2.7707 12.1471 2.75263 13.6467 3.12592 15.0719C3.49922 16.4971 4.25006 17.7953 5.29932 18.8295C6.34858 19.8638 7.65741 20.5959 9.08787 20.9486C10.5183 21.3013 12.0174 21.2617 13.4273 20.8338C14.8371 20.4059 16.1053 19.6056 17.0984 18.5173C18.0915 17.429 18.7727 16.093 19.0701 14.65C19.1099 14.4551 19.2254 14.2839 19.3914 14.1742C19.5574 14.0645 19.7601 14.0252 19.9551 14.065C20.15 14.1048 20.3212 14.2204 20.4309 14.3864C20.5406 14.5523 20.5799 14.7551 20.5401 14.95C20.0742 17.1228 18.8786 19.0706 17.1521 20.4697C15.4256 21.8687 13.2722 22.6346 11.0501 22.64ZM20.3001 11.7H15.8101C14.8792 11.7 13.9864 11.3302 13.3281 10.672C12.6699 10.0137 12.3001 9.12092 12.3001 8.19001V3.70001C12.2995 3.35085 12.3773 3.006 12.5279 2.69098C12.6785 2.37596 12.898 2.0988 13.1701 1.88001C13.4344 1.66306 13.7446 1.50894 14.0772 1.42926C14.4098 1.34958 14.7561 1.34642 15.0901 1.42001C16.9313 1.80566 18.6203 2.71944 19.9505 4.04963C21.2806 5.37983 22.1944 7.06879 22.5801 8.91001C22.6537 9.24399 22.6505 9.59032 22.5708 9.9229C22.4911 10.2555 22.337 10.5656 22.1201 10.83C21.9013 11.1021 21.6241 11.3216 21.3091 11.4722C20.9941 11.6228 20.6492 11.7006 20.3001 11.7ZM14.6101 2.86001C14.4282 2.86359 14.2525 2.92684 14.1101 3.04001C14.0142 3.12148 13.937 3.22254 13.8835 3.33639C13.83 3.45024 13.8016 3.57424 13.8001 3.70001V8.19001C13.8001 8.72045 14.0108 9.22915 14.3859 9.60423C14.7609 9.9793 15.2696 10.19 15.8001 10.19H20.3001C20.4318 10.1956 20.563 10.1716 20.6842 10.1197C20.8054 10.0677 20.9133 9.98925 21.0001 9.89001C21.0756 9.79766 21.1292 9.68941 21.1569 9.57337C21.1847 9.45733 21.1857 9.33652 21.1601 9.22001C20.8213 7.66712 20.0437 6.24416 18.9198 5.12027C17.7959 3.99638 16.373 3.21882 14.8201 2.88001L14.6101 2.86001Z" fill="black"/>
</svg>
