<svg width="24" height="24" viewBox="0 0 24 24" fill="none" xmlns="http://www.w3.org/2000/svg">
<path d="M15.84 2.67C16.5702 2.67654 17.2919 2.82683 17.9639 3.1123C18.636 3.39778 19.2453 3.81283 19.7569 4.33378C20.2686 4.85472 20.6726 5.47134 20.946 6.14844C21.2193 6.82554 21.3566 7.54984 21.35 8.28V15.72C21.3566 16.4502 21.2193 17.1745 20.946 17.8516C20.6726 18.5287 20.2686 19.1453 19.7569 19.6662C19.2453 20.1872 18.636 20.6022 17.9639 20.8877C17.2919 21.1732 16.5702 21.3235 15.84 21.33H8.16C7.42984 21.3235 6.70812 21.1732 6.03605 20.8877C5.36398 20.6022 4.75472 20.1872 4.24306 19.6662C3.73141 19.1453 3.32737 18.5287 3.05404 17.8516C2.7807 17.1745 2.6434 16.4502 2.65 15.72V8.28C2.6434 7.54984 2.7807 6.82554 3.05404 6.14844C3.32737 5.47134 3.73141 4.85472 4.24306 4.33378C4.75472 3.81283 5.36398 3.39778 6.03605 3.1123C6.70812 2.82683 7.42984 2.67654 8.16 2.67H15.84ZM10.42 13.05C10.7615 13.0487 11.0926 12.9325 11.36 12.72L12.8 11.55C12.8094 11.5456 12.8196 11.5432 12.83 11.5432C12.8404 11.5432 12.8506 11.5456 12.86 11.55C12.8857 11.54 12.9143 11.54 12.94 11.55L15.22 14.04H14.11C13.9349 14.0607 13.7736 14.145 13.6565 14.2768C13.5394 14.4086 13.4747 14.5787 13.4747 14.755C13.4747 14.9313 13.5394 15.1014 13.6565 15.2332C13.7736 15.365 13.9349 15.4493 14.11 15.47H16.82C16.9132 15.4687 17.0053 15.449 17.091 15.4121C17.1766 15.3753 17.2541 15.3219 17.3191 15.255C17.3841 15.1881 17.4353 15.1091 17.4698 15.0225C17.5043 14.9358 17.5213 14.8432 17.52 14.75V12C17.52 11.9081 17.5019 11.817 17.4667 11.7321C17.4315 11.6472 17.38 11.57 17.315 11.505C17.25 11.44 17.1728 11.3885 17.0879 11.3533C17.003 11.3181 16.9119 11.3 16.82 11.3C16.7281 11.3 16.637 11.3181 16.5521 11.3533C16.4672 11.3885 16.39 11.44 16.325 11.505C16.26 11.57 16.2085 11.6472 16.1733 11.7321C16.1381 11.817 16.12 11.9081 16.12 12V13L14 10.59C13.8604 10.4368 13.6907 10.3141 13.5013 10.2298C13.312 10.1454 13.1073 10.1012 12.9 10.1C12.5594 10.099 12.2296 10.2195 11.97 10.44L10.52 11.61H10.46C10.4373 11.6176 10.4127 11.6176 10.39 11.61L8.11 9.27C8.0464 9.20076 7.96912 9.14545 7.88306 9.10758C7.797 9.06972 7.70402 9.05011 7.61 9.05C7.42536 9.05263 7.24924 9.12811 7.12 9.26C6.99046 9.39422 6.91807 9.57347 6.91807 9.76C6.91807 9.94653 6.99046 10.1258 7.12 10.26L9.36 12.59C9.49686 12.7365 9.66262 12.853 9.84678 12.9322C10.031 13.0113 10.2295 13.0515 10.43 13.05M15.85 1.25H8.16C6.31913 1.27367 4.56168 2.0216 3.26833 3.3318C1.97498 4.642 1.24985 6.40897 1.25 8.25V15.69C1.24985 17.531 1.97498 19.298 3.26833 20.6082C4.56168 21.9184 6.31913 22.6663 8.16 22.69H15.84C17.6809 22.6663 19.4383 21.9184 20.7317 20.6082C22.025 19.298 22.7502 17.531 22.75 15.69V8.28C22.7502 6.43897 22.025 4.672 20.7317 3.3618C19.4383 2.0516 17.6809 1.30367 15.84 1.28L15.85 1.25Z" fill="black"/>
</svg>
