<svg width="24" height="24" viewBox="0 0 24 24" fill="none" xmlns="http://www.w3.org/2000/svg">
<path d="M15.3202 2.75C15.3798 2.74047 15.4406 2.74047 15.5002 2.75C17.1375 3.16883 18.5927 4.11206 19.6436 5.43563C20.6946 6.7592 21.2834 8.39036 21.3202 10.08C21.2822 11.7705 20.6932 13.4023 19.6426 14.7272C18.5921 16.0522 17.1375 16.9977 15.5002 17.42H15.3202C15.1753 17.4287 15.0326 17.3818 14.9211 17.2889C14.8096 17.196 14.7377 17.0641 14.7202 16.92V3.25C14.7377 3.10594 14.8096 2.974 14.9211 2.88109C15.0326 2.78818 15.1753 2.7413 15.3202 2.75ZM8.69018 6.53C8.83395 6.52148 8.97547 6.56868 9.08535 6.6618C9.19522 6.75491 9.265 6.88678 9.28018 7.03V20.75C9.26581 20.8353 9.23317 20.9165 9.18449 20.988C9.13582 21.0595 9.07226 21.1196 8.99818 21.1642C8.92409 21.2089 8.84123 21.237 8.75528 21.2466C8.66932 21.2562 8.5823 21.2471 8.50018 21.22C6.86285 20.8012 5.40762 19.8579 4.35671 18.5344C3.3058 17.2108 2.71698 15.5796 2.68018 13.89C2.71811 12.1995 3.30716 10.5677 4.35772 9.24277C5.40829 7.91783 6.86286 6.9723 8.50018 6.55H8.69018M15.3202 1.27C14.7772 1.25923 14.2519 1.46332 13.8586 1.83787C13.4653 2.21242 13.2359 2.72713 13.2202 3.27V17C13.2359 17.5429 13.4653 18.0576 13.8586 18.4321C14.2519 18.8067 14.7772 19.0108 15.3202 19C15.5164 19.0019 15.7118 18.975 15.9002 18.92C17.856 18.4164 19.5925 17.2846 20.8426 15.6984C22.0928 14.1122 22.7876 12.1594 22.8202 10.14C22.7941 8.11544 22.1023 6.15576 20.8517 4.56349C19.601 2.97122 17.8609 1.83492 15.9002 1.33C15.7109 1.27956 15.5161 1.25269 15.3202 1.25V1.27ZM8.68018 5C8.48397 4.99807 8.28854 5.02503 8.10018 5.08C6.14431 5.58355 4.40789 6.71539 3.15771 8.30159C1.90754 9.88779 1.21278 11.8406 1.18018 13.86C1.20625 15.8846 1.89802 17.8442 3.1487 19.4365C4.39938 21.0288 6.13942 22.1651 8.10018 22.67C8.28948 22.7204 8.48429 22.7473 8.68018 22.75C9.22317 22.7608 9.74845 22.5567 10.1417 22.1821C10.535 21.8076 10.7645 21.2929 10.7802 20.75V7C10.7645 6.45713 10.535 5.94242 10.1417 5.56787C9.74845 5.19332 9.22317 4.98923 8.68018 5Z" fill="black"/>
</svg>
