<svg width="24" height="24" viewBox="0 0 24 24" fill="none" xmlns="http://www.w3.org/2000/svg">
<path d="M22.9101 17.1599C22.7757 16.7161 22.5151 16.3209 22.1599 16.0226C21.8048 15.7243 21.3706 15.5357 20.9101 15.4799H20.5401L20.4501 15.2799C20.2553 14.8233 19.9347 14.4314 19.5258 14.1499C19.1168 13.8684 18.6363 13.7089 18.1401 13.6899H18.0801C17.5962 13.6952 17.1244 13.8418 16.7228 14.1119C16.3212 14.382 16.0074 14.7637 15.8201 15.2099L15.7301 15.4099H15.3701C14.9093 15.4689 14.4754 15.6598 14.1206 15.9596C13.7658 16.2595 13.5052 16.6555 13.3701 17.0999C13.2278 17.5542 13.2171 18.0396 13.3392 18.4997C13.4613 18.9599 13.7113 19.376 14.0601 19.6999L14.3401 19.9499L14.2301 20.3799C14.1617 20.7282 14.1692 21.0872 14.2521 21.4323C14.3349 21.7774 14.4911 22.1006 14.7101 22.3799C14.9277 22.6871 15.2154 22.9381 15.5493 23.112C15.8832 23.2859 16.2537 23.3777 16.6301 23.3799C17.0647 23.3721 17.488 23.2403 17.8501 22.9999L18.1701 22.8099L18.4901 22.9999C18.8524 23.2177 19.2675 23.3318 19.6901 23.3299C20.05 23.3146 20.4015 23.2163 20.7171 23.0429C21.0328 22.8694 21.3042 22.6255 21.5101 22.3299C21.7268 22.0495 21.8809 21.7259 21.962 21.3809C22.043 21.0359 22.0492 20.6775 21.9801 20.3299V19.9999L22.2501 19.7499C22.5939 19.4249 22.8385 19.009 22.9553 18.5505C23.0721 18.0921 23.0565 17.6099 22.9101 17.1599ZM21.2001 18.6199L20.6701 19.1099C20.5546 19.2244 20.4688 19.3652 20.42 19.5203C20.3712 19.6754 20.3609 19.84 20.3901 19.9999L20.5401 20.7099C20.5942 20.9485 20.5521 21.1988 20.423 21.4066C20.2938 21.6144 20.088 21.7629 19.8501 21.8199H19.6501C19.4882 21.817 19.3297 21.7722 19.1901 21.6899L18.5801 21.3299C18.4396 21.2511 18.2812 21.2097 18.1201 21.2097C17.959 21.2097 17.8006 21.2511 17.6601 21.3299L17.0501 21.6999C16.9126 21.7869 16.7528 21.8321 16.5901 21.8299C16.468 21.8273 16.3476 21.8007 16.2357 21.7516C16.1239 21.7024 16.0228 21.6317 15.9383 21.5435C15.8538 21.4552 15.7875 21.3512 15.7432 21.2374C15.6989 21.1235 15.6775 21.0021 15.6801 20.8799V20.7099L15.8301 19.9899C15.8641 19.8316 15.8562 19.6671 15.8071 19.5127C15.758 19.3584 15.6694 19.2195 15.5501 19.1099L15.0001 18.6199C14.8257 18.4468 14.7211 18.2155 14.7064 17.9702C14.6916 17.7249 14.7677 17.4827 14.9201 17.2899C15.0632 17.131 15.2582 17.0282 15.4701 16.9999L16.1801 16.9199C16.3423 16.9057 16.4973 16.8467 16.6279 16.7496C16.7586 16.6525 16.8597 16.5211 16.9201 16.3699L17.1401 15.8499C17.2161 15.6757 17.3402 15.5267 17.4978 15.4204C17.6554 15.3141 17.8401 15.255 18.0301 15.2499C18.2219 15.2531 18.4087 15.3114 18.5683 15.4178C18.7278 15.5241 18.8534 15.6742 18.9301 15.8499L19.1501 16.3599C19.2011 16.5197 19.2971 16.6612 19.4266 16.7677C19.5561 16.8741 19.7136 16.9409 19.8801 16.9599L20.5901 17.0299C20.8365 17.0623 21.0601 17.191 21.2118 17.3878C21.3636 17.5845 21.4313 17.8334 21.4001 18.0799C21.3879 18.2757 21.3183 18.4634 21.2001 18.6199Z" fill="black"/>
<path d="M16.13 8.37995C16.0268 8.38053 15.9248 8.40211 15.8303 8.44337C15.7357 8.48463 15.6505 8.54471 15.58 8.61995L13 11.51H12.85L11.3 10.24C10.9914 9.98464 10.5968 9.85693 10.1972 9.88295C9.79748 9.90898 9.42285 10.0868 9.14996 10.38L6.72996 12.93C6.6583 13.0015 6.60145 13.0864 6.56266 13.1799C6.52387 13.2735 6.50391 13.3737 6.50391 13.475C6.50391 13.5762 6.52387 13.6764 6.56266 13.77C6.60145 13.8635 6.6583 13.9484 6.72996 14.02C6.7992 14.096 6.88502 14.1552 6.98079 14.1927C7.07655 14.2303 7.17968 14.2453 7.28218 14.2366C7.38468 14.2279 7.4838 14.1957 7.57186 14.1425C7.65992 14.0894 7.73454 14.0166 7.78996 13.93L10.18 11.42H10.32L11.87 12.73C12.1835 12.9691 12.5744 13.084 12.9675 13.0526C13.3606 13.0213 13.7283 12.8458 14 12.56L16.62 9.65995C16.7593 9.51471 16.8371 9.32123 16.8371 9.11995C16.8371 8.91868 16.7593 8.7252 16.62 8.57995C16.554 8.51526 16.4758 8.46428 16.39 8.42995C16.3041 8.39562 16.2124 8.37863 16.12 8.37995H16.13Z" fill="black"/>
<path d="M8.94 22.14H7.38C5.68517 22.1321 4.06245 21.4532 2.86683 20.252C1.6712 19.0507 0.999981 17.4248 1 15.73V7C1.00789 5.31035 1.6826 3.69215 2.87738 2.49737C4.07215 1.30259 5.69035 0.627885 7.38 0.619995H16.08C17.774 0.622601 19.3984 1.29466 20.5991 2.48973C21.7998 3.68479 22.4794 5.30598 22.49 7V10.21C22.49 10.4089 22.411 10.5997 22.2703 10.7403C22.1297 10.881 21.9389 10.96 21.74 10.96C21.5411 10.96 21.3503 10.881 21.2097 10.7403C21.069 10.5997 20.99 10.4089 20.99 10.21V7C20.99 5.69778 20.4727 4.4489 19.5519 3.5281C18.6311 2.6073 17.3822 2.09 16.08 2.09H7.38C6.07779 2.09 4.82891 2.6073 3.90811 3.5281C2.9873 4.4489 2.47 5.69778 2.47 7V15.7C2.47 16.3448 2.597 16.9833 2.84375 17.579C3.0905 18.1747 3.45217 18.716 3.90811 19.1719C4.82891 20.0927 6.07779 20.61 7.38 20.61H8.94C9.13891 20.61 9.32968 20.689 9.47033 20.8297C9.61098 20.9703 9.69 21.1611 9.69 21.36C9.69 21.5589 9.61098 21.7497 9.47033 21.8903C9.32968 22.031 9.13891 22.11 8.94 22.11V22.14Z" fill="black"/>
</svg>
