<svg width="24" height="24" viewBox="0 0 24 24" fill="none" xmlns="http://www.w3.org/2000/svg">
<path d="M15.92 2.65C16.6331 2.65 17.3392 2.79045 17.998 3.06333C18.6568 3.33622 19.2554 3.73619 19.7596 4.24041C20.2638 4.74463 20.6638 5.34323 20.9367 6.00203C21.2095 6.66083 21.35 7.36692 21.35 8.08V15.92C21.35 16.6331 21.2095 17.3392 20.9367 17.998C20.6638 18.6568 20.2638 19.2554 19.7596 19.7596C19.2554 20.2638 18.6568 20.6638 17.998 20.9367C17.3392 21.2095 16.6331 21.35 15.92 21.35H8.08C6.63987 21.35 5.25873 20.7779 4.24041 19.7596C3.22209 18.7413 2.65 17.3601 2.65 15.92V8.08C2.65 6.63987 3.22209 5.25873 4.24041 4.24041C5.25873 3.22209 6.63987 2.65 8.08 2.65H15.92ZM11.07 13.48L8 10.4C7.82065 10.232 7.5857 10.1358 7.34 10.13C7.15544 10.1318 6.9755 10.1879 6.82262 10.2913C6.66975 10.3948 6.55069 10.5409 6.48031 10.7115C6.40993 10.8821 6.39133 11.0697 6.42685 11.2508C6.46236 11.4319 6.5504 11.5986 6.68 11.73L10.41 15.47C10.5931 15.6331 10.8298 15.7232 11.075 15.7232C11.3202 15.7232 11.5569 15.6331 11.74 15.47L17.34 9.86C17.4696 9.72859 17.5576 9.56193 17.5932 9.38081C17.6287 9.19969 17.6101 9.01212 17.5397 8.8415C17.4693 8.67088 17.3503 8.52475 17.1974 8.42135C17.0445 8.31794 16.8646 8.26182 16.68 8.26C16.4343 8.26584 16.1993 8.36195 16.02 8.53L11.08 13.53M15.92 1.25H8.08C6.26857 1.25 4.53133 1.96959 3.25046 3.25046C1.96959 4.53133 1.25 6.26857 1.25 8.08V15.92C1.25 17.7314 1.96959 19.4687 3.25046 20.7495C4.53133 22.0304 6.26857 22.75 8.08 22.75H15.92C17.7314 22.75 19.4687 22.0304 20.7495 20.7495C22.0304 19.4687 22.75 17.7314 22.75 15.92V8.08C22.75 6.26857 22.0304 4.53133 20.7495 3.25046C19.4687 1.96959 17.7314 1.25 15.92 1.25Z" fill="black"/>
</svg>
