<svg width="24" height="24" viewBox="0 0 24 24" fill="none" xmlns="http://www.w3.org/2000/svg">
<path d="M17.17 7.85L10.49 14.53L6.60997 10.65C6.42261 10.4637 6.16916 10.3592 5.90497 10.3592C5.64079 10.3592 5.38733 10.4637 5.19997 10.65C5.01372 10.8374 4.90918 11.0908 4.90918 11.355C4.90918 11.6192 5.01372 11.8726 5.19997 12.06L9.78997 16.65C9.97733 16.8362 10.2308 16.9408 10.495 16.9408C10.7592 16.9408 11.0126 16.8362 11.2 16.65L18.58 9.27C18.6737 9.17703 18.7481 9.06643 18.7989 8.94457C18.8496 8.82271 18.8758 8.69201 18.8758 8.56C18.8758 8.42799 18.8496 8.29728 18.7989 8.17542C18.7481 8.05356 18.6737 7.94296 18.58 7.85C18.3926 7.66375 18.1392 7.5592 17.875 7.5592C17.6108 7.5592 17.3573 7.66375 17.17 7.85Z" fill="black"/>
</svg>
