<svg width="24" height="24" viewBox="0 0 24 24" fill="none" xmlns="http://www.w3.org/2000/svg">
<path d="M12 2.65C13.8493 2.65 15.657 3.19837 17.1946 4.22576C18.7322 5.25315 19.9306 6.71342 20.6383 8.42191C21.346 10.1304 21.5311 12.0104 21.1703 13.8241C20.8096 15.6378 19.9191 17.3038 18.6115 18.6114C17.3038 19.9191 15.6378 20.8096 13.8241 21.1703C12.0104 21.5311 10.1304 21.346 8.42192 20.6383C6.71343 19.9306 5.25315 18.7322 4.22576 17.1946C3.19837 15.657 2.65 13.8493 2.65 12C2.65 9.52023 3.63509 7.14202 5.38856 5.38855C7.14202 3.63509 9.52023 2.65 12 2.65ZM11.07 13.48L8 10.4C7.82066 10.232 7.58571 10.1358 7.34 10.13C7.15545 10.1318 6.97551 10.1879 6.82263 10.2913C6.66975 10.3948 6.5507 10.5409 6.48032 10.7115C6.40993 10.8821 6.39134 11.0697 6.42685 11.2508C6.46236 11.4319 6.55041 11.5986 6.68 11.73L10.41 15.47C10.5931 15.6331 10.8298 15.7232 11.075 15.7232C11.3202 15.7232 11.5569 15.6331 11.74 15.47L17.34 9.86C17.4696 9.72859 17.5576 9.56193 17.5932 9.38081C17.6287 9.19969 17.6101 9.01212 17.5397 8.8415C17.4693 8.67088 17.3503 8.52475 17.1974 8.42135C17.0445 8.31794 16.8646 8.26182 16.68 8.26C16.4343 8.26584 16.1994 8.36195 16.02 8.53L11.08 13.53M12 1.25C9.87386 1.25 7.79545 1.88048 6.02762 3.0617C4.2598 4.24293 2.88194 5.92185 2.0683 7.88615C1.25466 9.85046 1.04177 12.0119 1.45656 14.0972C1.87135 16.1825 2.89519 18.098 4.39861 19.6014C5.90202 21.1048 7.81749 22.1287 9.90278 22.5434C11.9881 22.9582 14.1495 22.7453 16.1139 21.9317C18.0782 21.1181 19.7571 19.7402 20.9383 17.9724C22.1195 16.2046 22.75 14.1261 22.75 12C22.7474 9.14974 21.6139 6.41697 19.5985 4.40153C17.583 2.38608 14.8503 1.25265 12 1.25Z" fill="black"/>
</svg>
