<svg width="24" height="24" viewBox="0 0 24 24" fill="none" xmlns="http://www.w3.org/2000/svg">
<path d="M7.1501 7.29006C7.34156 7.29216 7.52517 7.36646 7.66422 7.4981C7.80327 7.62973 7.88751 7.809 7.9001 8.00006V16.0001C7.9001 16.199 7.82108 16.3897 7.68043 16.5304C7.53977 16.671 7.34901 16.7501 7.1501 16.7501C6.95118 16.7501 6.76042 16.671 6.61977 16.5304C6.47911 16.3897 6.4001 16.199 6.4001 16.0001V8.00006C6.41268 7.809 6.49692 7.62973 6.63597 7.4981C6.77502 7.36646 6.95863 7.29216 7.1501 7.29006ZM12.2201 3.79006C12.2241 3.68859 12.2078 3.58735 12.172 3.49232C12.1362 3.39728 12.0818 3.31038 12.0119 3.23673C11.9419 3.16309 11.858 3.10421 11.7649 3.06356C11.6719 3.02291 11.5716 3.00132 11.4701 3.00006H6.0001C4.73053 3.01326 3.5179 3.52891 2.62766 4.43415C1.73742 5.33938 1.24209 6.56045 1.2501 7.83006V16.1701C1.24209 17.4397 1.73742 18.6607 2.62766 19.566C3.5179 20.4712 4.73053 20.9869 6.0001 21.0001H11.2401C11.439 21.0001 11.6298 20.921 11.7704 20.7804C11.9111 20.6397 11.9901 20.449 11.9901 20.2501C11.9901 20.0511 11.9111 19.8604 11.7704 19.7197C11.6298 19.5791 11.439 19.5001 11.2401 19.5001H6.0001C5.12834 19.4974 4.29305 19.15 3.67663 18.5335C3.0602 17.9171 2.71273 17.0818 2.7101 16.2101V7.83006C2.71273 6.95831 3.0602 6.12302 3.67663 5.50659C4.29305 4.89017 5.12834 4.5427 6.0001 4.54006H11.4301C11.5319 4.5455 11.6337 4.53012 11.7294 4.49487C11.8251 4.45962 11.9125 4.40524 11.9865 4.33505C12.0604 4.26485 12.1193 4.18032 12.1594 4.08662C12.1996 3.99292 12.2202 3.89201 12.2201 3.79006ZM22.7501 7.79006V16.1301C22.7593 16.7621 22.6437 17.3897 22.4097 17.9769C22.1758 18.5641 21.8281 19.0993 21.3868 19.5518C20.9454 20.0043 20.4191 20.3652 19.8379 20.6137C19.2567 20.8623 18.6322 20.9935 18.0001 21.0001H15.5701V21.2301C15.5701 21.429 15.4911 21.6197 15.3504 21.7604C15.2098 21.901 15.019 21.9801 14.8201 21.9801C14.6212 21.9801 14.4304 21.901 14.2898 21.7604C14.1491 21.6197 14.0701 21.429 14.0701 21.2301V2.81006C14.0701 2.61115 14.1491 2.42038 14.2898 2.27973C14.4304 2.13908 14.6212 2.06006 14.8201 2.06006C15.019 2.06006 15.2098 2.13908 15.3504 2.27973C15.4911 2.42038 15.5701 2.61115 15.5701 2.81006V3.00006H18.0001C19.2697 3.01326 20.4823 3.52891 21.3725 4.43415C22.2628 5.33938 22.7581 6.56045 22.7501 7.83006V7.79006ZM21.2501 7.79006C21.2372 6.93213 20.8906 6.11295 20.2839 5.50623C19.6772 4.89951 18.858 4.55296 18.0001 4.54006H15.5701V19.4601H18.0001C18.8718 19.4574 19.7071 19.11 20.3236 18.4935C20.94 17.8771 21.2875 17.0418 21.2901 16.1701L21.2501 7.79006Z" fill="black"/>
</svg>
