<svg width="24" height="24" viewBox="0 0 24 24" fill="none" xmlns="http://www.w3.org/2000/svg">
<path d="M8.57985 8.68998C8.57985 8.88889 8.50084 9.07966 8.36018 9.22031C8.21953 9.36096 8.02877 9.43998 7.82985 9.43998H5.59985C5.40094 9.43998 5.21018 9.36096 5.06952 9.22031C4.92887 9.07966 4.84985 8.88889 4.84985 8.68998C4.84985 8.49107 4.92887 8.3003 5.06952 8.15965C5.21018 8.019 5.40094 7.93998 5.59985 7.93998H7.82985C8.02796 7.94257 8.21723 8.02242 8.35732 8.16252C8.49742 8.30261 8.57726 8.49187 8.57985 8.68998ZM11.9299 14.5H9.69985C9.50094 14.5 9.31018 14.579 9.16952 14.7197C9.02887 14.8603 8.94985 15.0511 8.94985 15.25C8.94985 15.4489 9.02887 15.6397 9.16952 15.7803C9.31018 15.921 9.50094 16 9.69985 16H11.9299C12.1288 16 12.3195 15.921 12.4602 15.7803C12.6008 15.6397 12.6799 15.4489 12.6799 15.25C12.6799 15.0511 12.6008 14.8603 12.4602 14.7197C12.3195 14.579 12.1288 14.5 11.9299 14.5ZM7.82985 11.22H5.59985C5.40094 11.22 5.21018 11.299 5.06952 11.4397C4.92887 11.5803 4.84985 11.7711 4.84985 11.97C4.84985 12.1689 4.92887 12.3597 5.06952 12.5003C5.21018 12.641 5.40094 12.72 5.59985 12.72H7.82985C8.02877 12.72 8.21953 12.641 8.36018 12.5003C8.50084 12.3597 8.57985 12.1689 8.57985 11.97C8.57985 11.7711 8.50084 11.5803 8.36018 11.4397C8.21953 11.299 8.02877 11.22 7.82985 11.22ZM11.9299 7.93998H10.5699C10.3709 7.93998 10.1802 8.019 10.0395 8.15965C9.89887 8.3003 9.81985 8.49107 9.81985 8.68998C9.81985 8.88889 9.89887 9.07966 10.0395 9.22031C10.1802 9.36096 10.3709 9.43998 10.5699 9.43998H11.9299C12.1288 9.43998 12.3195 9.36096 12.4602 9.22031C12.6008 9.07966 12.6799 8.88889 12.6799 8.68998C12.6799 8.49107 12.6008 8.3003 12.4602 8.15965C12.3195 8.019 12.1288 7.93998 11.9299 7.93998ZM21.9299 16.64V18.94C21.9312 19.4398 21.8339 19.9351 21.6435 20.3972C21.4531 20.8594 21.1734 21.2795 20.8204 21.6335C20.4674 21.9874 20.0481 22.2682 19.5864 22.4598C19.1247 22.6514 18.6297 22.75 18.1299 22.75H5.85985C4.84846 22.7473 3.8794 22.3437 3.16517 21.6276C2.45094 20.9115 2.04985 19.9414 2.04985 18.93V3.45998C2.0475 3.15911 2.12846 2.86346 2.28378 2.60577C2.4391 2.34808 2.66271 2.13841 2.92985 1.99998C3.19642 1.86194 3.49559 1.79924 3.79515 1.81862C4.09471 1.838 4.3833 1.93874 4.62985 2.10998L5.87985 2.99998C5.8981 3.01051 5.91879 3.01606 5.93985 3.01606C5.96092 3.01606 5.98161 3.01051 5.99985 2.99998L7.99985 1.52998C8.26911 1.32461 8.59534 1.20763 8.93375 1.19509C9.27215 1.18256 9.60614 1.27509 9.88985 1.45998L11.8899 2.79998C11.9138 2.81508 11.9415 2.8231 11.9699 2.8231C11.9982 2.8231 12.0259 2.81508 12.0499 2.79998L13.2699 1.99998C13.5185 1.8407 13.8054 1.75106 14.1005 1.74042C14.3956 1.72979 14.6881 1.79854 14.9476 1.93952C15.2071 2.08049 15.4239 2.28852 15.5756 2.54189C15.7273 2.79526 15.8082 3.08469 15.8099 3.37998V13.16H19.1399C19.516 13.1519 19.8899 13.2197 20.2392 13.3593C20.5885 13.4989 20.9061 13.7074 21.1731 13.9725C21.44 14.2376 21.6508 14.5537 21.7929 14.9021C21.9349 15.2504 22.0053 15.6238 21.9999 16L21.9299 16.64ZM15.0999 21.26C14.5931 20.5928 14.3191 19.7778 14.3199 18.94V13.94V3.38998C14.3215 3.36394 14.3158 3.33797 14.3034 3.315C14.291 3.29203 14.2725 3.27298 14.2499 3.25998C14.2268 3.24772 14.201 3.24131 14.1749 3.24131C14.1487 3.24131 14.123 3.24772 14.0999 3.25998L12.8999 4.04998C12.6312 4.22189 12.3188 4.31325 11.9999 4.31325C11.6809 4.31325 11.3686 4.22189 11.0999 4.04998L9.09985 2.69998C9.07401 2.68506 9.0447 2.67721 9.01485 2.67721C8.98501 2.67721 8.9557 2.68506 8.92985 2.69998L6.99985 4.18998C6.71648 4.41488 6.36669 4.53976 6.00496 4.54518C5.64323 4.55061 5.28985 4.43627 4.99985 4.21998L3.76985 3.33998C3.74385 3.33157 3.71586 3.33157 3.68985 3.33998H3.61985C3.59723 3.35298 3.57869 3.37203 3.56632 3.395C3.55396 3.41797 3.54825 3.44394 3.54985 3.46998V18.94C3.54985 19.5536 3.7929 20.1421 4.22583 20.5769C4.65875 21.0117 5.24629 21.2573 5.85985 21.26H15.0999ZM20.4499 16C20.4499 15.6543 20.3132 15.3226 20.0697 15.0772C19.8262 14.8318 19.4956 14.6926 19.1499 14.69H15.8199V18.85C15.8183 19.259 15.9179 19.662 16.1098 20.0231C16.3018 20.3843 16.58 20.6924 16.9199 20.92L17.0899 21.02L17.2499 21.1C17.4237 21.1677 17.605 21.2146 17.7899 21.24C18.1106 21.2928 18.439 21.2764 18.7529 21.1919C19.0668 21.1073 19.359 20.9567 19.6099 20.75C19.8731 20.5319 20.0849 20.2584 20.2301 19.9489C20.3753 19.6395 20.4504 19.3018 20.4499 18.96V16ZM11.9299 11.24H10.5699C10.3709 11.24 10.1802 11.319 10.0395 11.4597C9.89887 11.6003 9.81985 11.7911 9.81985 11.99C9.81985 12.1889 9.89887 12.3797 10.0395 12.5203C10.1802 12.661 10.3709 12.74 10.5699 12.74H11.9299C12.1288 12.74 12.3195 12.661 12.4602 12.5203C12.6008 12.3797 12.6799 12.1889 12.6799 11.99C12.6799 11.7911 12.6008 11.6003 12.4602 11.4597C12.3195 11.319 12.1288 11.24 11.9299 11.24Z" fill="black"/>
</svg>
