<svg width="24" height="24" viewBox="0 0 24 24" fill="none" xmlns="http://www.w3.org/2000/svg">
<path d="M12.5402 1.15002C10.3918 1.15003 8.29178 1.78721 6.50565 2.98096C4.71951 4.17472 3.32756 5.87141 2.50589 7.8564C1.68422 9.84138 1.46974 12.0255 1.88959 14.1324C2.30943 16.2393 3.34474 18.1743 4.86454 19.6927C6.38434 21.2111 8.32034 22.2447 10.4276 22.6626C12.5349 23.0805 14.7188 22.864 16.7031 22.0405C18.6873 21.217 20.3827 19.8235 21.5748 18.0362C22.7669 16.249 23.4022 14.1484 23.4002 12C23.3975 9.12151 22.2522 6.36179 20.2158 4.32731C18.1795 2.29283 15.4187 1.15002 12.5402 1.15002ZM12.5402 2.65002C14.0724 2.64759 15.5816 3.02212 16.9349 3.74061C18.2881 4.4591 19.4439 5.49948 20.3002 6.77002C17.499 6.49306 14.6723 6.62782 11.9102 7.17002C10.8576 7.31933 9.88006 7.80023 9.11941 8.5429C8.35876 9.28557 7.85462 10.2513 7.68018 11.3C6.64019 9.74038 5.7908 8.06175 5.15018 6.30002C6.02017 5.1663 7.13897 4.24758 8.42027 3.61474C9.70157 2.98189 11.1111 2.65183 12.5402 2.65002ZM16.0002 12.11C16.0002 12.8003 15.7955 13.475 15.412 14.049C15.0285 14.6229 14.4835 15.0702 13.8457 15.3344C13.208 15.5985 12.5063 15.6676 11.8293 15.533C11.1523 15.3983 10.5305 15.0659 10.0424 14.5778C9.55429 14.0897 9.2219 13.4679 9.08723 12.7909C8.95257 12.1139 9.02169 11.4122 9.28584 10.7745C9.54999 10.1367 9.99731 9.59168 10.5712 9.2082C11.1452 8.82471 11.8199 8.62002 12.5102 8.62002C13.4358 8.62002 14.3235 8.98772 14.978 9.64222C15.6325 10.2967 16.0002 11.1844 16.0002 12.11ZM3.19018 12C3.19654 10.6139 3.51438 9.24683 4.12018 8.00002C5.33662 10.7197 6.93987 13.2492 8.88018 15.51H8.94018C9.40319 16.0012 9.96087 16.3935 10.5796 16.6633C11.1983 16.9331 11.8652 17.0749 12.5402 17.08C13.1107 17.0757 13.6761 16.9708 14.2102 16.77C13.337 18.3445 12.3335 19.8431 11.2102 21.25C8.98713 20.9243 6.95486 19.8114 5.48303 18.1138C4.01119 16.4163 3.19758 14.2468 3.19018 12ZM13.1202 21.33C14.7787 19.0968 16.1245 16.6475 17.1202 14.05C17.3816 13.4365 17.5176 12.7769 17.5202 12.11C17.5152 11.3607 17.3419 10.6221 17.013 9.94873C16.6841 9.2754 16.2081 8.68461 15.6202 8.22002C17.4645 8.1407 19.3122 8.18747 21.1502 8.36002C21.6449 9.50979 21.9001 10.7483 21.9002 12C21.8971 14.38 20.9876 16.6694 19.3566 18.4026C17.7255 20.1358 15.4956 21.1826 13.1202 21.33Z" fill="black"/>
</svg>
