<svg width="24" height="24" viewBox="0 0 24 24" fill="none" xmlns="http://www.w3.org/2000/svg">
<path d="M12 8.39001C12.1741 8.39001 12.3442 8.44162 12.4889 8.53831C12.6336 8.63501 12.7464 8.77244 12.813 8.93324C12.8796 9.09404 12.8971 9.27098 12.8631 9.44168C12.8291 9.61239 12.7453 9.76919 12.6223 9.89226C12.4992 10.0153 12.3424 10.0991 12.1717 10.1331C12.001 10.1671 11.824 10.1496 11.6632 10.083C11.5024 10.0164 11.365 9.90362 11.2683 9.75891C11.1716 9.61419 11.12 9.44405 11.12 9.27001C11.1187 9.15407 11.1405 9.03904 11.1843 8.93166C11.228 8.82429 11.2928 8.72675 11.3748 8.64476C11.4567 8.56278 11.5543 8.49801 11.6617 8.45426C11.769 8.41051 11.8841 8.38866 12 8.39001ZM12 6.89C11.5293 6.89 11.0691 7.02959 10.6777 7.29111C10.2864 7.55262 9.98131 7.92433 9.80117 8.35922C9.62103 8.79411 9.5739 9.27264 9.66574 9.73432C9.75757 10.196 9.98424 10.6201 10.3171 10.9529C10.6499 11.2858 11.074 11.5124 11.5357 11.6043C11.9974 11.6961 12.4759 11.649 12.9108 11.4688C13.3457 11.2887 13.7174 10.9837 13.9789 10.5923C14.2404 10.2009 14.38 9.74072 14.38 9.27001C14.38 8.63879 14.1293 8.03343 13.6829 7.58709C13.2366 7.14075 12.6312 6.89 12 6.89ZM13.37 14.36C13.7099 14.271 14.0439 14.1608 14.37 14.03C14.4612 13.99 14.5435 13.9322 14.6121 13.86C14.6807 13.7879 14.7343 13.7028 14.7696 13.6097C14.805 13.5166 14.8215 13.4174 14.8181 13.3179C14.8148 13.2183 14.7916 13.1205 14.75 13.03C14.7111 12.9379 14.6539 12.8547 14.5819 12.7853C14.51 12.7159 14.4247 12.6618 14.3312 12.6263C14.2378 12.5908 14.1381 12.5746 14.0382 12.5786C13.9383 12.5827 13.8403 12.607 13.75 12.65C13.2183 12.9128 12.6331 13.0494 12.04 13.0494C11.4469 13.0494 10.8617 12.9128 10.33 12.65C10.1601 12.5602 9.96243 12.5382 9.77689 12.5883C9.59134 12.6384 9.43166 12.7569 9.33 12.92C9.23689 13.0882 9.21195 13.2858 9.26033 13.4719C9.30872 13.658 9.42674 13.8184 9.59 13.92C9.90323 14.0989 10.2398 14.2336 10.59 14.32L9.36 15.89C9.23535 16.0452 9.17744 16.2435 9.19901 16.4413C9.22057 16.6392 9.31985 16.8204 9.47501 16.945C9.63016 17.0697 9.82847 17.1276 10.0263 17.106C10.2242 17.0844 10.4054 16.9852 10.53 16.83L12 15L13.47 16.83C13.5407 16.9158 13.6292 16.9852 13.7293 17.0336C13.8294 17.0819 13.9388 17.108 14.05 17.11C14.2226 17.1151 14.3906 17.0543 14.52 16.94C14.5976 16.8795 14.6624 16.8042 14.7106 16.7184C14.7588 16.6325 14.7893 16.538 14.8005 16.4402C14.8117 16.3424 14.8033 16.2434 14.7757 16.1489C14.7481 16.0545 14.702 15.9664 14.64 15.89L13.37 14.36ZM12 22.75C9.87386 22.75 7.79545 22.1195 6.02762 20.9383C4.2598 19.7571 2.88194 18.0782 2.0683 16.1139C1.25466 14.1495 1.04177 11.9881 1.45656 9.90278C1.87135 7.81749 2.89519 5.90202 4.39861 4.39861C5.90202 2.89519 7.81749 1.87135 9.90278 1.45656C11.9881 1.04177 14.1495 1.25466 16.1139 2.0683C18.0782 2.88194 19.7571 4.2598 20.9383 6.02762C22.1195 7.79545 22.75 9.87386 22.75 12C22.7474 14.8503 21.6139 17.583 19.5985 19.5985C17.583 21.6139 14.8503 22.7474 12 22.75ZM12 2.75C10.1705 2.75 8.38213 3.29251 6.86098 4.30891C5.33983 5.32531 4.15423 6.76997 3.45412 8.46018C2.75401 10.1504 2.57083 12.0103 2.92774 13.8046C3.28465 15.5989 4.16563 17.2471 5.45927 18.5407C6.7529 19.8344 8.40109 20.7154 10.1954 21.0723C11.9897 21.4292 13.8496 21.246 15.5398 20.5459C17.23 19.8458 18.6747 18.6602 19.6911 17.139C20.7075 15.6179 21.25 13.8295 21.25 12C21.2474 9.54756 20.272 7.19633 18.5378 5.46219C16.8037 3.72805 14.4524 2.75265 12 2.75Z" fill="black"/>
</svg>
