<svg width="24" height="24" viewBox="0 0 24 24" fill="none" xmlns="http://www.w3.org/2000/svg">
<path d="M14.8401 21.75C14.397 21.7517 13.9634 21.6213 13.5947 21.3755C13.2261 21.1297 12.939 20.7797 12.7701 20.37L11.6001 17.61C11.0732 17.9298 10.5656 18.2804 10.0801 18.66C9.81967 18.8598 9.50937 18.984 9.1831 19.0193C8.85683 19.0546 8.52714 18.9995 8.23007 18.86C7.93251 18.7163 7.68113 18.4921 7.5044 18.2129C7.32767 17.9336 7.23264 17.6105 7.23007 17.28V5.00004C7.22701 4.6511 7.32834 4.30922 7.52105 4.0183C7.71375 3.72738 7.98903 3.50072 8.31152 3.36742C8.63401 3.23413 8.98899 3.20029 9.33085 3.27025C9.67272 3.34021 9.98587 3.51078 10.2301 3.76004L18.9101 12.45C19.144 12.6812 19.3076 12.9739 19.3819 13.2943C19.4562 13.6146 19.4383 13.9495 19.3301 14.26C19.2193 14.5714 19.024 14.8457 18.7662 15.0523C18.5083 15.259 18.198 15.3898 17.8701 15.43C17.1444 15.5091 16.4257 15.6428 15.7201 15.83L16.9001 18.63C17.0164 18.9016 17.0777 19.1936 17.0802 19.489C17.0828 19.7845 17.0266 20.0775 16.9149 20.351C16.8033 20.6245 16.6384 20.8732 16.4298 21.0824C16.2213 21.2917 15.9732 21.4575 15.7001 21.57C15.4288 21.6886 15.1361 21.7499 14.8401 21.75ZM11.9601 15.75C12.1064 15.7552 12.2484 15.801 12.3703 15.8822C12.4921 15.9635 12.589 16.0769 12.6501 16.21L14.1501 19.76C14.2314 19.9442 14.3816 20.0892 14.5685 20.164C14.7554 20.2387 14.9642 20.2373 15.1501 20.16C15.243 20.1219 15.3273 20.0655 15.3981 19.9942C15.4688 19.9228 15.5244 19.838 15.5617 19.7447C15.5991 19.6514 15.6172 19.5516 15.6152 19.4512C15.6132 19.3508 15.5911 19.2517 15.5501 19.16L14.0001 15.64C13.9507 15.5406 13.925 15.4311 13.925 15.32C13.925 15.209 13.9507 15.0995 14.0001 15C14.0429 14.9056 14.105 14.8211 14.1825 14.7522C14.2601 14.6833 14.3512 14.6315 14.4501 14.6C15.4984 14.2639 16.5768 14.0295 17.6701 13.9C17.7169 13.8968 17.7617 13.8799 17.799 13.8515C17.8364 13.8231 17.8645 13.7843 17.8801 13.74C17.8956 13.6955 17.8983 13.6474 17.8877 13.6014C17.877 13.5554 17.8536 13.5133 17.8201 13.48L9.18007 4.82004C9.1433 4.78541 9.09724 4.76224 9.04751 4.75336C8.99779 4.74448 8.94655 4.75028 8.90007 4.77004C8.85535 4.78956 8.81732 4.82173 8.79066 4.8626C8.76401 4.90347 8.7499 4.95125 8.75007 5.00004V17.28C8.74773 17.328 8.75982 17.3755 8.78477 17.4165C8.80973 17.4575 8.84641 17.4901 8.89007 17.51C8.92778 17.5377 8.97332 17.5526 9.02007 17.5526C9.06682 17.5526 9.11235 17.5377 9.15007 17.51C9.91983 16.9081 10.7395 16.3729 11.6001 15.91C11.7163 15.8255 11.8563 15.78 12.0001 15.78L11.9601 15.75ZM14.8001 5.00004L15.7501 3.25004C15.8398 3.07704 15.8586 2.87592 15.8026 2.68927C15.7466 2.50262 15.6202 2.34509 15.4501 2.25004C15.365 2.20296 15.2713 2.17336 15.1746 2.16298C15.0779 2.1526 14.9801 2.16165 14.8869 2.1896C14.7938 2.21755 14.7071 2.26383 14.6321 2.32573C14.5571 2.38762 14.4952 2.46389 14.4501 2.55004L13.4501 4.31004C13.3577 4.48253 13.3374 4.68456 13.3937 4.87196C13.4499 5.05936 13.578 5.21687 13.7501 5.31004C13.8596 5.37235 13.9841 5.40348 14.1101 5.40004C14.2511 5.40501 14.3906 5.37012 14.5126 5.29936C14.6347 5.22861 14.7343 5.12486 14.8001 5.00004ZM17.8001 8.54004L19.5901 7.64004C19.6781 7.59539 19.7564 7.53385 19.8206 7.45893C19.8848 7.38401 19.9336 7.29717 19.9642 7.20339C19.9949 7.1096 20.0068 7.01069 19.9992 6.91232C19.9916 6.81394 19.9647 6.71803 19.9201 6.63004C19.8754 6.54206 19.8139 6.46373 19.739 6.39952C19.664 6.33532 19.5772 6.28651 19.4834 6.25586C19.3896 6.22522 19.2907 6.21335 19.1923 6.22093C19.094 6.22851 18.9981 6.25539 18.9101 6.30004L17.1201 7.20004C16.969 7.27601 16.8481 7.40077 16.7769 7.55409C16.7057 7.7074 16.6884 7.88028 16.7277 8.04469C16.7671 8.20909 16.8608 8.35537 16.9938 8.45981C17.1267 8.56425 17.291 8.62071 17.4601 8.62004C17.5796 8.60666 17.6935 8.5618 17.7901 8.49004L17.8001 8.54004ZM5.53007 10C5.53274 9.90119 5.51557 9.80281 5.47958 9.71071C5.44359 9.61861 5.38951 9.53465 5.32053 9.4638C5.25154 9.39296 5.16906 9.33665 5.07795 9.29822C4.98684 9.25979 4.88895 9.24 4.79007 9.24004H2.79007C2.68777 9.236 2.58571 9.25267 2.49001 9.28905C2.39431 9.32543 2.30695 9.38077 2.23317 9.45175C2.15939 9.52273 2.10071 9.60788 2.06065 9.7021C2.02059 9.79632 1.99999 9.89766 2.00007 10C1.99875 10.0985 2.01684 10.1963 2.05331 10.2878C2.08979 10.3793 2.14393 10.4627 2.21265 10.5333C2.28136 10.6039 2.36331 10.6602 2.45381 10.6991C2.5443 10.738 2.64157 10.7587 2.74007 10.76H4.74007C4.84272 10.7655 4.94541 10.7499 5.04175 10.714C5.13809 10.6782 5.22603 10.6229 5.30012 10.5516C5.3742 10.4803 5.43284 10.3946 5.4724 10.2997C5.51196 10.2048 5.53159 10.1028 5.53007 10ZM3.60007 16.09L5.39007 15.2C5.47869 15.1574 5.55792 15.0976 5.62314 15.024C5.68836 14.9504 5.73825 14.8645 5.76991 14.7714C5.80156 14.6783 5.81434 14.5798 5.8075 14.4817C5.80066 14.3836 5.77434 14.2878 5.73007 14.2C5.64192 14.0229 5.48737 13.8878 5.30007 13.8242C5.11277 13.7605 4.9079 13.7734 4.73007 13.86L2.94007 14.75C2.7898 14.8256 2.6693 14.9495 2.59792 15.1018C2.52655 15.2541 2.50844 15.426 2.54652 15.5898C2.58459 15.7537 2.67664 15.9 2.80786 16.0052C2.93908 16.1104 3.10187 16.1685 3.27007 16.17C3.38461 16.1679 3.49728 16.1406 3.60007 16.09Z" fill="black"/>
</svg>
