<svg width="24" height="24" viewBox="0 0 24 24" fill="none" xmlns="http://www.w3.org/2000/svg">
<g style="mix-blend-mode:multiply">
<path d="M19.7899 6.60995C19.6157 5.51398 19.0975 4.50181 18.3101 3.71982C17.5227 2.93783 16.507 2.42656 15.4099 2.25995L8.64986 1.25995C7.96696 1.15474 7.27003 1.18509 6.59887 1.34929C5.92772 1.51349 5.29549 1.80831 4.7383 2.21692C4.18111 2.62552 3.70989 3.1399 3.35155 3.73067C2.99321 4.32143 2.75477 4.97701 2.64986 5.65995L1.64986 12.42C1.51725 13.3242 1.62486 14.2475 1.96186 15.097C2.29887 15.9465 2.85343 16.6925 3.56986 17.26C3.83625 17.9854 4.26342 18.6412 4.81935 19.1781C5.37528 19.715 6.04553 20.119 6.77986 20.36L13.2599 22.52C13.8182 22.7177 14.4077 22.8125 14.9999 22.8C16.1038 22.8047 17.1812 22.4613 18.0789 21.8186C18.9765 21.1759 19.6487 20.2666 19.9999 19.22L22.1599 12.73C22.5227 11.5925 22.4854 10.3652 22.0543 9.25195C21.6231 8.13864 20.8241 7.20635 19.7899 6.60995ZM3.16986 12.61L4.16986 5.84995C4.30871 4.9677 4.75952 4.16456 5.44033 3.58651C6.12114 3.00846 6.98677 2.69388 7.87986 2.69995C8.06305 2.68986 8.24666 2.68986 8.42986 2.69995L15.1899 3.69995C16.0229 3.82926 16.7883 4.23478 17.3632 4.85138C17.9381 5.46798 18.2891 6.2599 18.3599 7.09995C18.3899 7.38583 18.3899 7.67407 18.3599 7.95995L17.3599 14.72C17.253 15.4491 16.933 16.1305 16.4402 16.6785C15.9474 17.2264 15.3037 17.6166 14.5899 17.8H14.4999C14.2934 17.8527 14.0825 17.8862 13.8699 17.9C13.6174 17.93 13.3623 17.93 13.1099 17.9L6.34986 16.9C6.05876 16.8506 5.7738 16.7701 5.49986 16.66C5.21772 16.5457 4.95206 16.3943 4.70986 16.21L4.62986 16.15C4.09499 15.7511 3.67724 15.2157 3.42037 14.6C3.1635 13.9842 3.07698 13.3107 3.16986 12.65V12.61ZM20.6799 12.22L18.5199 18.7C18.2027 19.6408 17.5264 20.418 16.6384 20.862C15.7504 21.306 14.7228 21.3807 13.7799 21.07L7.29986 19C6.94083 18.8722 6.60357 18.6901 6.29986 18.46L12.9099 19.46C13.1645 19.5002 13.422 19.5202 13.6799 19.52H14.2099C14.4252 19.5013 14.6391 19.4679 14.8499 19.42L15.1699 19.33C15.3699 19.27 15.5799 19.19 15.7799 19.11L16.0799 18.96C16.2663 18.8645 16.4466 18.7576 16.6199 18.64L16.9099 18.43C17.0703 18.3014 17.2238 18.1646 17.3699 18.02L17.6199 17.77C17.6999 17.68 17.8699 17.44 17.9899 17.27C18.1099 17.1 18.1299 17.08 18.1899 16.98C18.2499 16.88 18.3999 16.57 18.4899 16.36L18.6099 16.08C18.7269 15.7553 18.8139 15.4205 18.8699 15.08L19.8699 8.57995C20.3167 9.06786 20.6269 9.66503 20.7691 10.3112C20.9113 10.9573 20.8805 11.6295 20.6799 12.26V12.22ZM8.73986 9.99995C9.28767 10.0059 9.82492 9.84918 10.2837 9.54975C10.7425 9.25032 11.1021 8.82157 11.3172 8.31772C11.5323 7.81388 11.5932 7.25757 11.4922 6.71913C11.3911 6.18069 11.1326 5.68431 10.7495 5.29275C10.3663 4.9012 9.87565 4.63206 9.33952 4.51936C8.8034 4.40666 8.2459 4.45547 7.73751 4.65961C7.22913 4.86375 6.79269 5.21406 6.48339 5.66623C6.17409 6.11841 6.00582 6.65214 5.99986 7.19995C5.9959 7.56372 6.06363 7.92471 6.19919 8.26229C6.33475 8.59988 6.53547 8.90746 6.78991 9.16747C7.04435 9.42748 7.34751 9.63482 7.68208 9.77766C8.01666 9.9205 8.37609 9.99603 8.73986 9.99995ZM8.73986 5.92995C9.08293 5.94552 9.40642 6.09417 9.64168 6.34436C9.87693 6.59455 10.0054 6.92658 9.99986 7.26995C9.99986 7.60678 9.86606 7.92981 9.62788 8.16798C9.38971 8.40615 9.06668 8.53995 8.72986 8.53995C8.56355 8.53996 8.39888 8.50704 8.24536 8.44309C8.09183 8.37915 7.95248 8.28544 7.83535 8.16738C7.71822 8.04932 7.62561 7.90923 7.56288 7.75521C7.50015 7.60118 7.46854 7.43626 7.46986 7.26995V7.19995C7.46986 6.86313 7.60366 6.5401 7.84183 6.30193C8.08 6.06376 8.40303 5.92995 8.73986 5.92995Z" fill="black"/>
</g>
</svg>
