<svg width="24" height="24" viewBox="0 0 24 24" fill="none" xmlns="http://www.w3.org/2000/svg">
<path d="M18.9999 15.93H4.99991C4.07495 15.9226 3.18536 15.5737 2.50209 14.9502C1.81883 14.3267 1.3901 13.4727 1.2983 12.5523C1.20651 11.6318 1.45813 10.71 2.0048 9.96383C2.55148 9.21768 3.35463 8.6999 4.25991 8.51C4.25991 8.4 4.25991 8.29 4.25991 8.18C4.25919 6.97907 4.63582 5.80827 5.33659 4.833C6.03737 3.85773 7.02685 3.12728 8.16527 2.74486C9.30369 2.36245 10.5335 2.34738 11.6809 2.70179C12.8284 3.05621 13.8355 3.76219 14.5599 4.72C15.0157 4.52807 15.5053 4.42946 15.9999 4.43C16.9937 4.43264 17.946 4.82858 18.6486 5.53127C19.3513 6.23396 19.7473 7.18625 19.7499 8.18C19.7598 8.28978 19.7598 8.40022 19.7499 8.51C20.656 8.70014 21.4597 9.21872 22.0063 9.96591C22.5529 10.7131 22.8038 11.6361 22.7107 12.5572C22.6176 13.4783 22.1871 14.3324 21.502 14.9551C20.8169 15.5778 19.9257 15.925 18.9999 15.93ZM4.93991 9.93C4.34317 9.93796 3.77403 10.1826 3.3577 10.6102C2.94137 11.0378 2.71195 11.6133 2.71991 12.21C2.72786 12.8067 2.97255 13.3759 3.40013 13.7922C3.82771 14.2085 4.40317 14.438 4.99991 14.43H18.9999C19.5966 14.43 20.1689 14.1929 20.5909 13.771C21.0129 13.349 21.2499 12.7767 21.2499 12.18C21.2499 11.5833 21.0129 11.011 20.5909 10.589C20.1689 10.1671 19.5966 9.93 18.9999 9.93H18.8599C18.7356 9.93978 18.6108 9.91798 18.4972 9.86663C18.3835 9.81528 18.2847 9.73604 18.2099 9.63628C18.135 9.53651 18.0866 9.41946 18.0692 9.29598C18.0517 9.1725 18.0657 9.04661 18.1099 8.93C18.198 8.68263 18.2453 8.42256 18.2499 8.16C18.2492 7.75188 18.1374 7.35165 17.9267 7.00216C17.7159 6.65267 17.4141 6.36709 17.0534 6.176C16.6928 5.9849 16.287 5.89549 15.8795 5.91733C15.472 5.93917 15.078 6.07145 14.7399 6.3C14.655 6.3591 14.5585 6.39947 14.4567 6.41844C14.355 6.4374 14.2504 6.43453 14.1499 6.41C14.0496 6.38917 13.9549 6.34717 13.8721 6.28681C13.7894 6.22646 13.7204 6.14913 13.6699 6.06C13.3016 5.4118 12.7677 4.87305 12.1229 4.49881C11.4781 4.12457 10.7454 3.92828 9.99991 3.93C8.87355 3.93264 7.79408 4.38126 6.99762 5.17771C6.20116 5.97417 5.75255 7.05364 5.74991 8.18C5.7524 8.45566 5.78255 8.73037 5.83991 9C5.86026 9.11262 5.85557 9.22833 5.82619 9.33894C5.79681 9.44954 5.74346 9.55233 5.66991 9.64C5.597 9.727 5.5048 9.79581 5.40065 9.84094C5.29649 9.88607 5.18325 9.9063 5.06991 9.9L4.93991 9.93ZM13.2099 21.16L15.3699 19C15.5024 18.8578 15.5745 18.6698 15.5711 18.4755C15.5677 18.2812 15.4889 18.0958 15.3515 17.9584C15.2141 17.821 15.0287 17.7423 14.8344 17.7388C14.6401 17.7354 14.4521 17.8075 14.3099 17.94L12.1399 20.1C12.1221 20.1194 12.1005 20.1349 12.0764 20.1455C12.0523 20.1561 12.0262 20.1615 11.9999 20.1615C11.9736 20.1615 11.9475 20.1561 11.9234 20.1455C11.8993 20.1349 11.8777 20.1194 11.8599 20.1L9.68991 17.93C9.61965 17.8604 9.53637 17.8053 9.44483 17.7679C9.35328 17.7305 9.25527 17.7115 9.15637 17.7119C9.05748 17.7124 8.95964 17.7323 8.86845 17.7706C8.77726 17.8089 8.69451 17.8647 8.62491 17.935C8.48434 18.0769 8.4059 18.2688 8.40684 18.4685C8.4073 18.5674 8.42724 18.6653 8.46552 18.7565C8.50379 18.8476 8.55965 18.9304 8.62991 19L10.7899 21.17C11.1144 21.484 11.5483 21.6596 11.9999 21.6596C12.4515 21.6596 12.8854 21.484 13.2099 21.17V21.16Z" fill="black"/>
</svg>
