<svg width="24" height="24" viewBox="0 0 24 24" fill="none" xmlns="http://www.w3.org/2000/svg">
<path d="M19 18.75H5.00003C4.06654 18.7548 3.16483 18.4112 2.47122 17.7864C1.7776 17.1616 1.34194 16.3006 1.24943 15.3717C1.15691 14.4428 1.41419 13.5128 1.97095 12.7635C2.52772 12.0142 3.34394 11.4995 4.26003 11.32C4.26003 11.22 4.26003 11.11 4.26003 11C4.25932 9.79908 4.63595 8.62828 5.33672 7.65301C6.03749 6.67774 7.02698 5.9473 8.1654 5.56488C9.30381 5.18246 10.5336 5.16739 11.6811 5.52181C12.8285 5.87622 13.8356 6.5822 14.56 7.54002C15.1297 7.30311 15.749 7.21041 16.363 7.27012C16.977 7.32983 17.5668 7.54011 18.0802 7.88233C18.5935 8.22454 19.0144 8.68811 19.3057 9.23195C19.597 9.77578 19.7496 10.3831 19.75 11C19.76 11.1065 19.76 11.2136 19.75 11.32C20.667 11.4996 21.484 12.015 22.0408 12.7654C22.5977 13.5158 22.8543 14.447 22.7605 15.3767C22.6666 16.3065 22.2291 17.1676 21.5335 17.7916C20.8379 18.4156 19.9344 18.7573 19 18.75ZM5.00003 12.75C4.4033 12.75 3.831 12.9871 3.40904 13.409C2.98709 13.831 2.75003 14.4033 2.75003 15C2.75003 15.5968 2.98709 16.169 3.40904 16.591C3.831 17.013 4.4033 17.25 5.00003 17.25H19C19.5968 17.25 20.1691 17.013 20.591 16.591C21.013 16.169 21.25 15.5968 21.25 15C21.25 14.4033 21.013 13.831 20.591 13.409C20.1691 12.9871 19.5968 12.75 19 12.75H18.86C18.7365 12.7572 18.6131 12.7336 18.5008 12.6815C18.3886 12.6294 18.291 12.5503 18.2167 12.4513C18.1424 12.3523 18.0938 12.2364 18.0752 12.114C18.0566 11.9917 18.0686 11.8666 18.11 11.75C18.199 11.5063 18.2464 11.2494 18.25 10.99C18.2474 10.395 18.0092 9.82528 17.5875 9.40549C17.1658 8.98569 16.595 8.75001 16 8.75002C15.5498 8.74679 15.1097 8.88303 14.74 9.14002C14.6551 9.19912 14.5586 9.23949 14.4569 9.25845C14.3551 9.27742 14.2506 9.27454 14.15 9.25002C14.0498 9.22572 13.9555 9.18128 13.873 9.11939C13.7905 9.0575 13.7214 8.97946 13.67 8.89002C13.2056 8.07842 12.4859 7.44313 11.6229 7.08302C10.7599 6.72291 9.80209 6.65818 8.89851 6.89891C7.99493 7.13964 7.19627 7.67231 6.62684 8.41404C6.05741 9.15576 5.74915 10.0649 5.75003 11C5.74978 11.289 5.77995 11.5773 5.84003 11.86C5.86038 11.9726 5.8557 12.0883 5.82632 12.199C5.79694 12.3096 5.74358 12.4123 5.67003 12.5C5.59568 12.5853 5.50323 12.6529 5.39943 12.6978C5.29562 12.7428 5.18309 12.7641 5.07003 12.76L5.00003 12.75Z" fill="black"/>
</svg>
