<svg width="24" height="24" viewBox="0 0 24 24" fill="none" xmlns="http://www.w3.org/2000/svg">
<path d="M14.8398 21.65C14.7412 21.651 14.6434 21.6321 14.5523 21.5943C14.4612 21.5565 14.3787 21.5006 14.3098 21.43L12.1398 19.27C12.122 19.2506 12.1004 19.2351 12.0763 19.2245C12.0522 19.2139 12.0262 19.2085 11.9998 19.2085C11.9735 19.2085 11.9475 19.2139 11.9234 19.2245C11.8993 19.2351 11.8776 19.2506 11.8598 19.27L9.68983 21.43C9.62089 21.5008 9.53847 21.557 9.44744 21.5954C9.35642 21.6338 9.25863 21.6536 9.15983 21.6536C9.06104 21.6536 8.96325 21.6338 8.87222 21.5954C8.78119 21.557 8.69878 21.5008 8.62983 21.43C8.48938 21.2894 8.41049 21.0988 8.41049 20.9C8.41049 20.7013 8.48938 20.5106 8.62983 20.37L10.7898 18.21C11.1131 17.8936 11.5475 17.7164 11.9998 17.7164C12.4522 17.7164 12.8865 17.8936 13.2098 18.21L15.3698 20.37C15.5103 20.5106 15.5892 20.7013 15.5892 20.9C15.5892 21.0988 15.5103 21.2894 15.3698 21.43C15.3006 21.5001 15.218 21.5557 15.127 21.5935C15.036 21.6312 14.9384 21.6505 14.8398 21.65ZM22.7498 12.18C22.7489 11.3164 22.4498 10.4795 21.9032 9.81089C21.3566 9.14223 20.596 8.68273 19.7498 8.51C19.7598 8.40023 19.7598 8.28978 19.7498 8.18C19.7472 7.18625 19.3513 6.23396 18.6486 5.53127C17.9459 4.82858 16.9936 4.43264 15.9998 4.43C15.5053 4.42946 15.0156 4.52807 14.5598 4.72C13.8366 3.75805 12.8289 3.04822 11.6796 2.69121C10.5303 2.33421 9.29771 2.34814 8.15676 2.73104C7.01581 3.11394 6.02438 3.84636 5.32311 4.82442C4.62184 5.80248 4.24632 6.97652 4.24983 8.18C4.24983 8.29 4.24983 8.4 4.24983 8.51C3.34378 8.70015 2.54009 9.21873 1.99347 9.96591C1.44685 10.7131 1.19594 11.6361 1.28904 12.5572C1.38214 13.4783 1.81267 14.3324 2.49776 14.9551C3.18285 15.5778 4.07406 15.925 4.99983 15.93H18.9998C19.4923 15.93 19.9799 15.833 20.4349 15.6446C20.8899 15.4561 21.3033 15.1799 21.6515 14.8317C21.9997 14.4834 22.2759 14.07 22.4644 13.6151C22.6528 13.1601 22.7498 12.6725 22.7498 12.18ZM5.06983 9.94C5.18317 9.9463 5.29642 9.92608 5.40057 9.88094C5.50473 9.83581 5.59692 9.76701 5.66983 9.68C5.74926 9.58778 5.806 9.47825 5.83552 9.36017C5.86504 9.2421 5.86651 9.11875 5.83983 9C5.77975 8.71729 5.74958 8.42903 5.74983 8.14C5.76297 7.0206 6.21621 5.95135 7.01154 5.16351C7.80687 4.37566 8.88035 3.93255 9.99983 3.93C10.7474 3.93028 11.4813 4.12959 12.1263 4.50745C12.7713 4.8853 13.3041 5.42808 13.6698 6.08C13.7203 6.16913 13.7893 6.24646 13.8721 6.30681C13.9548 6.36717 14.0495 6.40917 14.1498 6.43C14.2504 6.45453 14.3549 6.4574 14.4567 6.43844C14.5584 6.41947 14.6549 6.3791 14.7398 6.32C15.078 6.09145 15.4719 5.95918 15.8794 5.93733C16.2869 5.91549 16.6927 6.0049 17.0534 6.196C17.414 6.38709 17.7158 6.67268 17.9266 7.02216C18.1374 7.37165 18.2491 7.77188 18.2498 8.18C18.2453 8.44256 18.198 8.70263 18.1098 8.95C18.0656 9.06661 18.0516 9.1925 18.0691 9.31598C18.0866 9.43946 18.135 9.55652 18.2098 9.65628C18.2846 9.75605 18.3834 9.83529 18.4971 9.88664C18.6107 9.93799 18.7355 9.95978 18.8598 9.95H18.9998C19.5966 9.95 20.1689 10.1871 20.5908 10.609C21.0128 11.031 21.2498 11.6033 21.2498 12.2C21.2498 12.7967 21.0128 13.369 20.5908 13.791C20.1689 14.2129 19.5966 14.45 18.9998 14.45H4.99983C4.4031 14.458 3.82764 14.2285 3.40006 13.8122C2.97247 13.3959 2.72779 12.8267 2.71983 12.23C2.71188 11.6333 2.9413 11.0578 3.35763 10.6302C3.77396 10.2026 4.3431 9.95796 4.93983 9.95L5.06983 9.94Z" fill="black"/>
</svg>
