<svg width="24" height="24" viewBox="0 0 24 24" fill="none" xmlns="http://www.w3.org/2000/svg">
<path d="M19 16H5.00003C4.06654 16.0047 3.16483 15.6611 2.47122 15.0364C1.7776 14.4116 1.34194 13.5506 1.24943 12.6217C1.15691 11.6928 1.41419 10.7628 1.97095 10.0135C2.52772 9.26416 3.34394 8.74947 4.26003 8.57C4.26003 8.47 4.26003 8.36 4.26003 8.25C4.25299 7.0465 4.62507 5.87134 5.3235 4.89121C6.02193 3.91108 7.01124 3.17575 8.1511 2.78953C9.29096 2.4033 10.5235 2.38579 11.6739 2.73948C12.8242 3.09317 13.834 3.80011 14.56 4.76C15.0158 4.56807 15.5055 4.46946 16 4.47C16.9946 4.47 17.9484 4.86509 18.6517 5.56835C19.3549 6.27161 19.75 7.22544 19.75 8.22C19.76 8.32644 19.76 8.43357 19.75 8.54C20.7205 8.6624 21.6047 9.15915 22.2141 9.92429C22.8235 10.6894 23.1098 11.6624 23.012 12.6356C22.9141 13.6089 22.4399 14.5054 21.6904 15.1339C20.9409 15.7624 19.9754 16.0732 19 16ZM4.94003 10C4.39244 10.0706 3.88991 10.34 3.52809 10.7571C3.16628 11.1741 2.97044 11.7097 2.97785 12.2617C2.98526 12.8138 3.1954 13.3439 3.56828 13.7511C3.94116 14.1583 4.45074 14.4141 5.00003 14.47H19C19.5482 14.4064 20.0538 14.1436 20.4209 13.7315C20.7879 13.3194 20.9907 12.7868 20.9907 12.235C20.9907 11.6832 20.7879 11.1506 20.4209 10.7385C20.0538 10.3264 19.5482 10.0636 19 10H18.86C18.7365 10.0072 18.6131 9.98361 18.5008 9.93149C18.3886 9.87936 18.291 9.80026 18.2167 9.70125C18.1424 9.60224 18.0938 9.48639 18.0752 9.36403C18.0566 9.24167 18.0686 9.11661 18.11 9C18.199 8.75633 18.2464 8.4994 18.25 8.24C18.2474 7.645 18.0092 7.07527 17.5875 6.65547C17.1658 6.23567 16.595 5.99999 16 6C15.5498 5.99678 15.1097 6.13301 14.74 6.39C14.6551 6.4491 14.5586 6.48947 14.4569 6.50844C14.3551 6.5274 14.2506 6.52453 14.15 6.5C14.0498 6.47571 13.9555 6.43126 13.873 6.36937C13.7905 6.30748 13.7214 6.22944 13.67 6.14C13.2069 5.3306 12.4898 4.69647 11.6298 4.3358C10.7698 3.97513 9.81491 3.90804 8.91294 4.14492C8.01098 4.3818 7.21226 4.90944 6.64048 5.64613C6.06869 6.38282 5.75572 7.28747 5.75003 8.22C5.74978 8.50903 5.77995 8.79728 5.84003 9.08C5.86038 9.19262 5.8557 9.30833 5.82632 9.41894C5.79694 9.52954 5.74358 9.63233 5.67003 9.72C5.59568 9.80526 5.50323 9.87285 5.39943 9.91783C5.29562 9.96281 5.18309 9.98405 5.07003 9.98L4.94003 10ZM11.53 21.34C11.6705 21.1994 11.7494 21.0088 11.7494 20.81C11.7494 20.6112 11.6705 20.4206 11.53 20.28L9.37003 18.09C9.0472 17.7766 8.61496 17.6013 8.16503 17.6013C7.7151 17.6013 7.28287 17.7766 6.96003 18.09L4.79003 20.25C4.71635 20.3187 4.65724 20.4015 4.61625 20.4935C4.57526 20.5855 4.55322 20.6848 4.55144 20.7855C4.54966 20.8862 4.56819 20.9862 4.60591 21.0796C4.64363 21.173 4.69978 21.2578 4.771 21.329C4.84221 21.4003 4.92705 21.4564 5.02044 21.4941C5.11382 21.5318 5.21385 21.5504 5.31456 21.5486C5.41526 21.5468 5.51457 21.5248 5.60657 21.4838C5.69857 21.4428 5.78137 21.3837 5.85003 21.31L8.00003 19.15C8.01676 19.1273 8.0386 19.1088 8.06379 19.096C8.08897 19.0833 8.11681 19.0767 8.14503 19.0767C8.17326 19.0767 8.20109 19.0833 8.22628 19.096C8.25147 19.1088 8.27331 19.1273 8.29003 19.15L10.45 21.31C10.5907 21.4504 10.7813 21.5293 10.98 21.5293C11.1788 21.5293 11.3694 21.4504 11.51 21.31L11.53 21.34ZM17 21L19.17 18.84C19.3105 18.6994 19.3894 18.5088 19.3894 18.31C19.3894 18.1112 19.3105 17.9206 19.17 17.78C19.1011 17.7092 19.0187 17.653 18.9276 17.6146C18.8366 17.5762 18.7388 17.5564 18.64 17.5564C18.5412 17.5564 18.4434 17.5762 18.3524 17.6146C18.2614 17.653 18.179 17.7092 18.11 17.78L16 20C15.9833 20.0227 15.9615 20.0412 15.9363 20.054C15.9111 20.0667 15.8833 20.0733 15.855 20.0733C15.8268 20.0733 15.799 20.0667 15.7738 20.054C15.7486 20.0412 15.7268 20.0227 15.71 20L13.55 17.84C13.4811 17.7692 13.3987 17.713 13.3076 17.6746C13.2166 17.6362 13.1188 17.6164 13.02 17.6164C12.9212 17.6164 12.8234 17.6362 12.7324 17.6746C12.6414 17.713 12.559 17.7692 12.49 17.84C12.3496 17.9806 12.2707 18.1713 12.2707 18.37C12.2707 18.5688 12.3496 18.7594 12.49 18.9L14.63 21C14.9517 21.3197 15.3866 21.4994 15.84 21.5C16.2766 21.4885 16.6919 21.3095 17 21Z" fill="black"/>
</svg>
