<svg width="24" height="24" viewBox="0 0 24 24" fill="none" xmlns="http://www.w3.org/2000/svg">
<path d="M16.7198 1.25H7.27979C5.68849 1.25 4.16236 1.88214 3.03714 3.00736C1.91193 4.13258 1.27979 5.6587 1.27979 7.25V16.69C1.27979 18.2813 1.91193 19.8074 3.03714 20.9326C4.16236 22.0579 5.68849 22.69 7.27979 22.69H16.7198C18.3111 22.69 19.8372 22.0579 20.9624 20.9326C22.0876 19.8074 22.7198 18.2813 22.7198 16.69V7.28C22.7237 6.48955 22.5715 5.70611 22.2717 4.97469C21.9719 4.24327 21.5306 3.57829 20.9731 3.01795C20.4155 2.45762 19.7528 2.01298 19.0228 1.70958C18.2929 1.40617 17.5102 1.24999 16.7198 1.25ZM16.7198 2.75C17.0254 2.74923 17.3303 2.77938 17.6298 2.84L17.9598 2.94C18.136 2.98759 18.3095 3.04433 18.4798 3.11C18.6082 3.16672 18.732 3.2336 18.8498 3.31C18.9798 3.38 19.1198 3.44 19.2498 3.52L19.5998 3.81C19.6998 3.9 19.8198 3.98 19.9198 4.08C20.0198 4.18 20.1098 4.31 20.2098 4.43C20.3018 4.52874 20.3886 4.63222 20.4698 4.74C20.5498 4.87 20.6098 5 20.6798 5.13C20.7498 5.26 20.8298 5.38 20.8898 5.51C20.9498 5.64 20.9698 5.78 21.0098 5.91C21.0669 6.05654 21.1137 6.20691 21.1498 6.36C21.1498 6.49 21.1498 6.63 21.1998 6.77C21.2268 6.93211 21.2435 7.09577 21.2498 7.26H2.74979C2.73994 7.09682 2.73994 6.93319 2.74979 6.77C2.74979 6.64 2.74979 6.49 2.74979 6.36C2.74979 6.23 2.83979 6.07 2.88979 5.93C2.92396 5.78733 2.96738 5.64703 3.01979 5.51C3.07378 5.39683 3.13387 5.28667 3.19979 5.18C3.27979 5.03 3.34979 4.88 3.43979 4.74L3.63979 4.5C3.74841 4.3503 3.86526 4.20675 3.98979 4.07L4.29979 3.9C4.44265 3.76512 4.59288 3.63826 4.74979 3.52L4.99979 3.38C5.16445 3.28026 5.33473 3.19011 5.50979 3.11C5.63979 3.05 5.76978 3.03 5.89979 2.98C6.02979 2.93 6.19979 2.87 6.35979 2.84C6.65931 2.77938 6.96419 2.74923 7.26978 2.75H16.7198ZM16.7198 21.25H7.27979C6.07835 21.25 4.92613 20.7727 4.07659 19.9232C3.22705 19.0737 2.74979 17.9214 2.74979 16.72V8.72H21.2498V16.72C21.2498 17.3149 21.1326 17.904 20.905 18.4536C20.6773 19.0032 20.3436 19.5025 19.923 19.9232C19.5023 20.3438 19.0029 20.6775 18.4533 20.9052C17.9037 21.1328 17.3147 21.25 16.7198 21.25ZM8.92979 17.76C8.73179 17.7557 8.54263 17.6772 8.39979 17.54L6.39979 15.54C6.32665 15.4704 6.26851 15.3866 6.22896 15.2938C6.1894 15.2009 6.16927 15.1009 6.16979 15C6.17812 14.798 6.25991 14.606 6.39979 14.46L8.39979 12.54C8.46502 12.4505 8.54926 12.3766 8.64647 12.3235C8.74367 12.2704 8.85142 12.2395 8.96198 12.2331C9.07254 12.2266 9.18316 12.2447 9.2859 12.286C9.38864 12.3274 9.48094 12.391 9.55618 12.4722C9.63143 12.5535 9.68774 12.6504 9.72108 12.756C9.75441 12.8616 9.76395 12.9733 9.749 13.083C9.73404 13.1928 9.69498 13.2978 9.6346 13.3907C9.57422 13.4835 9.49403 13.5618 9.39979 13.62L7.99979 15L9.45979 16.43C9.60024 16.5706 9.67913 16.7612 9.67913 16.96C9.67913 17.1587 9.60024 17.3494 9.45979 17.49C9.32572 17.6465 9.13518 17.7435 8.92979 17.76ZM15.0698 17.76C14.8667 17.7566 14.673 17.674 14.5298 17.53C14.3893 17.3894 14.3104 17.1988 14.3104 17C14.3104 16.8012 14.3893 16.6106 14.5298 16.47L15.9998 15L14.5498 13.61C14.4474 13.4695 14.397 13.2979 14.4071 13.1243C14.4173 12.9508 14.4874 12.7862 14.6055 12.6587C14.7236 12.5311 14.8824 12.4486 15.0546 12.4251C15.2268 12.4016 15.4019 12.4387 15.5498 12.53L17.5498 14.45C17.6897 14.596 17.7714 14.788 17.7798 14.99C17.7803 15.0909 17.7602 15.1909 17.7206 15.2838C17.6811 15.3766 17.6229 15.4604 17.5498 15.53L15.5498 17.53C15.4212 17.6599 15.2516 17.7412 15.0698 17.76Z" fill="black"/>
</svg>
