<svg width="24" height="24" viewBox="0 0 24 24" fill="none" xmlns="http://www.w3.org/2000/svg">
<path d="M22.4098 14.44C22.4073 13.3459 22.0123 12.289 21.2966 11.4614C20.5809 10.6338 19.5921 10.0904 18.5098 9.93C18.3925 9.10504 18.0651 8.32408 17.559 7.66213C17.0529 7.00018 16.3852 6.47947 15.6198 6.15C15.0223 5.89575 14.3791 5.76643 13.7298 5.77H6.43981C5.79048 5.76643 5.14729 5.89575 4.5498 6.15C3.66495 6.51369 2.90772 7.13146 2.37377 7.92527C1.83982 8.71908 1.55309 9.65332 1.5498 10.61V17.91C1.55245 19.1946 2.0646 20.4256 2.97387 21.333C3.88313 22.2404 5.11524 22.75 6.39981 22.75H13.6898C14.7911 22.7583 15.8624 22.3914 16.7275 21.7099C17.5927 21.0283 18.2001 20.0726 18.4498 19C19.5507 18.8496 20.5594 18.3041 21.2879 17.4652C22.0165 16.6263 22.4152 15.5511 22.4098 14.44ZM5.7598 7.33C5.98417 7.28931 6.21178 7.26923 6.43981 7.27H13.7298C13.9578 7.26967 14.1854 7.28975 14.4098 7.33C15.1633 7.4881 15.8396 7.90014 16.3256 8.49721C16.8116 9.09427 17.0779 9.84013 17.0798 10.61V11.41H3.0798V10.61C3.08221 9.83873 3.34988 9.09178 3.83788 8.49452C4.32588 7.89727 5.0045 7.48609 5.7598 7.33ZM13.7598 21.25H6.43981C5.55306 21.25 4.70249 20.8984 4.07453 20.2723C3.44657 19.6463 3.09245 18.7967 3.0898 17.91V12.91H17.0898V17.91C17.0939 17.9532 17.0939 17.9968 17.0898 18.04V18.2C17.0191 19.039 16.6332 19.82 16.0097 20.3859C15.3863 20.9518 14.5717 21.2606 13.7298 21.25H13.7598ZM18.6098 17.45V11.45C19.2739 11.6229 19.8618 12.0112 20.2815 12.5541C20.7011 13.097 20.9288 13.7638 20.9288 14.45C20.9288 15.1362 20.7011 15.803 20.2815 16.3459C19.8618 16.8888 19.2739 17.2771 18.6098 17.45ZM10.0798 4.72C9.88598 4.72016 9.69963 4.64527 9.55981 4.51104C9.41998 4.37681 9.33756 4.19367 9.3298 4V2C9.3298 1.80109 9.40882 1.61032 9.54947 1.46967C9.69013 1.32902 9.88089 1.25 10.0798 1.25C10.2787 1.25 10.4695 1.32902 10.6101 1.46967C10.7508 1.61032 10.8298 1.80109 10.8298 2V4C10.8246 4.19452 10.7429 4.37914 10.6025 4.5139C10.4622 4.64866 10.2744 4.7227 10.0798 4.72ZM6.1698 4.72C5.97598 4.72016 5.78963 4.64527 5.64981 4.51104C5.50999 4.37681 5.42756 4.19367 5.4198 4V2C5.4198 1.80109 5.49882 1.61032 5.63947 1.46967C5.78013 1.32902 5.97089 1.25 6.1698 1.25C6.36872 1.25 6.55948 1.32902 6.70014 1.46967C6.84079 1.61032 6.9198 1.80109 6.9198 2V4C6.91456 4.19452 6.83292 4.37914 6.69255 4.5139C6.55217 4.64866 6.36437 4.7227 6.1698 4.72ZM14.0398 4.82C13.8417 4.81741 13.6524 4.73756 13.5123 4.59747C13.3722 4.45737 13.2924 4.26811 13.2898 4.07V2.07C13.2898 1.87109 13.3688 1.68032 13.5095 1.53967C13.6501 1.39902 13.8409 1.32 14.0398 1.32C14.2387 1.32 14.4295 1.39902 14.5701 1.53967C14.7108 1.68032 14.7898 1.87109 14.7898 2.07V4.07C14.7899 4.17195 14.7693 4.27286 14.7291 4.36656C14.689 4.46027 14.6301 4.5448 14.5562 4.61499C14.4823 4.68518 14.3948 4.73956 14.2991 4.77481C14.2035 4.81006 14.1016 4.82544 13.9998 4.82H14.0398Z" fill="black"/>
</svg>
