<svg width="24" height="24" viewBox="0 0 24 24" fill="none" xmlns="http://www.w3.org/2000/svg">
<path d="M17 1.29004H7.05004C5.52239 1.29004 4.05731 1.89689 2.9771 2.9771C1.89689 4.05731 1.29004 5.52239 1.29004 7.05004V17C1.29004 18.5277 1.89689 19.9928 2.9771 21.073C4.05731 22.1532 5.52239 22.76 7.05004 22.76H17C18.519 22.7469 19.9713 22.1342 21.0407 21.0554C22.1101 19.9766 22.7101 18.5191 22.71 17V7.05004C22.7101 5.53102 22.1101 4.07346 21.0407 2.99468C19.9713 1.9159 18.519 1.30323 17 1.29004ZM21.21 17C21.1971 18.1126 20.7493 19.1759 19.9626 19.9626C19.1759 20.7493 18.1126 21.1971 17 21.21H7.05004C5.92883 21.2101 4.85279 20.7682 4.05531 19.98C3.25782 19.1919 2.8032 18.1212 2.79004 17V7.05004C2.79004 5.92022 3.23886 4.83667 4.03776 4.03776C4.83667 3.23886 5.92022 2.79004 7.05004 2.79004H17C18.1299 2.79004 19.2134 3.23886 20.0123 4.03776C20.8112 4.83667 21.26 5.92022 21.26 7.05004L21.21 17ZM16.3 10.52C16.3607 10.234 16.3908 9.9424 16.39 9.65004C16.39 8.49635 15.9317 7.38991 15.116 6.57412C14.3002 5.75834 13.1937 5.30004 12.04 5.30004C10.8863 5.30004 9.77991 5.75834 8.96412 6.57412C8.14834 7.38991 7.69004 8.49635 7.69004 9.65004C7.68924 9.9424 7.7194 10.234 7.78004 10.52C6.88468 10.9395 6.1594 11.6522 5.72424 12.54C5.28909 13.4279 5.17015 14.4377 5.38711 15.4024C5.60407 16.3671 6.14393 17.2287 6.91732 17.8448C7.69072 18.4608 8.65129 18.7943 9.64004 18.79C10.5029 18.7936 11.3467 18.5356 12.06 18.05C12.7613 18.5296 13.5905 18.7874 14.44 18.79C15.4288 18.7943 16.3894 18.4608 17.1628 17.8448C17.9362 17.2287 18.476 16.3671 18.693 15.4024C18.9099 14.4377 18.791 13.4279 18.3558 12.54C17.9207 11.6522 17.1954 10.9395 16.3 10.52ZM12 6.80004C12.5654 6.7921 13.1203 6.95249 13.5942 7.26078C14.0681 7.56908 14.4396 8.01137 14.6614 8.53139C14.8833 9.05141 14.9455 9.62567 14.8401 10.1811C14.7347 10.7366 14.4664 11.2481 14.0695 11.6507C13.6725 12.0533 13.1648 12.3287 12.6109 12.442C12.057 12.5552 11.4819 12.5012 10.9588 12.2867C10.4357 12.0722 9.98824 11.707 9.67327 11.2375C9.3583 10.768 9.19009 10.2154 9.19004 9.65004C9.18996 8.90105 9.48474 8.18214 10.0106 7.6488C10.5365 7.11545 11.2511 6.81055 12 6.80004ZM6.79004 14.44C6.79006 13.9164 6.93484 13.403 7.20838 12.9565C7.48191 12.51 7.87356 12.1479 8.34004 11.91C8.72371 12.5394 9.26066 13.0612 9.90072 13.4267C10.5408 13.7922 11.2631 13.9894 12 14C12.1377 13.9932 12.2748 13.9765 12.41 13.95C12.4249 14.113 12.4249 14.277 12.41 14.44C12.4104 14.6382 12.3903 14.836 12.35 15.03V15.11C12.3136 15.274 12.2634 15.4345 12.2 15.59C12.037 15.9474 11.8022 16.2674 11.51 16.53C10.9912 17.0051 10.3135 17.269 9.61004 17.27C8.86364 17.2596 8.15088 16.9578 7.62398 16.4291C7.09708 15.9003 6.7978 15.1865 6.79004 14.44ZM14.44 17.29C13.9967 17.2932 13.5587 17.1939 13.16 17C13.25 16.87 13.32 16.74 13.4 16.6L13.55 16.33L13.7 15.96C13.7 15.83 13.79 15.69 13.83 15.56C13.87 15.43 13.88 15.35 13.9 15.25C14.0196 14.7065 14.0196 14.1435 13.9 13.6C14.6644 13.2374 15.3071 12.6608 15.75 11.94C16.3159 12.2335 16.767 12.7081 17.0313 13.2881C17.2957 13.8681 17.358 14.5199 17.2083 15.1395C17.0586 15.759 16.7055 16.3105 16.2055 16.7058C15.7055 17.1011 15.0874 17.3173 14.45 17.32L14.44 17.29Z" fill="black"/>
</svg>
