<svg width="24" height="24" viewBox="0 0 24 24" fill="none" xmlns="http://www.w3.org/2000/svg">
<path d="M19.87 13.25H17.47L19.17 11.55C19.7068 11.0087 20.008 10.2773 20.008 9.515C20.008 8.7527 19.7068 8.02127 19.17 7.48L16.52 4.83C15.9787 4.29322 15.2473 3.99204 14.485 3.99204C13.7227 3.99204 12.9913 4.29322 12.45 4.83L10.75 6.53V4.13C10.75 3.36618 10.4466 2.63364 9.90647 2.09353C9.36636 1.55343 8.63382 1.25 7.87 1.25H4.13C3.36618 1.25 2.63364 1.55343 2.09353 2.09353C1.55343 2.63364 1.25 3.36618 1.25 4.13V18C1.25 19.2598 1.75044 20.468 2.64124 21.3588C3.53204 22.2496 4.74022 22.75 6 22.75H19.87C20.6338 22.75 21.3664 22.4466 21.9065 21.9065C22.4466 21.3664 22.75 20.6338 22.75 19.87V16.13C22.75 15.3662 22.4466 14.6336 21.9065 14.0935C21.3664 13.5534 20.6338 13.25 19.87 13.25ZM10.75 8.65L13.51 5.9C13.6389 5.76445 13.794 5.65652 13.9659 5.58278C14.1378 5.50903 14.3229 5.471 14.51 5.471C14.6971 5.471 14.8822 5.50903 15.0541 5.58278C15.226 5.65652 15.3811 5.76445 15.51 5.9L18.1 8.54C18.2355 8.66891 18.3435 8.82403 18.4172 8.99593C18.491 9.16784 18.529 9.35294 18.529 9.54C18.529 9.72706 18.491 9.91216 18.4172 10.0841C18.3435 10.256 18.2355 10.4111 18.1 10.54L15.35 13.3L10.75 17.9V8.65ZM9.25 18C9.25672 18.6327 9.07863 19.2535 8.73757 19.7864C8.3965 20.3193 7.90731 20.7411 7.33 21H7.26C7.10004 21.0604 6.93637 21.1105 6.77 21.15C6.73013 21.1545 6.68987 21.1545 6.65 21.15C6.43679 21.1985 6.21865 21.222 6 21.22C5.14401 21.2174 4.32338 20.8783 3.7153 20.2758C3.10722 19.6734 2.7605 18.8559 2.75 18V4.13C2.75 3.764 2.89539 3.41299 3.15419 3.15419C3.41299 2.89539 3.764 2.75 4.13 2.75H7.87C8.236 2.75 8.58701 2.89539 8.84581 3.15419C9.10461 3.41299 9.25 3.764 9.25 4.13V18ZM21.25 19.87C21.25 20.236 21.1046 20.587 20.8458 20.8458C20.587 21.1046 20.236 21.25 19.87 21.25H9.47L9.97 20.75L15.97 14.75H19.87C20.236 14.75 20.587 14.8954 20.8458 15.1542C21.1046 15.413 21.25 15.764 21.25 16.13V19.87Z" fill="black"/>
<path d="M6 20.12C5.60444 20.12 5.21776 20.0027 4.88886 19.7829C4.55996 19.5632 4.30362 19.2508 4.15224 18.8854C4.00087 18.5199 3.96126 18.1178 4.03843 17.7298C4.1156 17.3419 4.30608 16.9855 4.58579 16.7058C4.86549 16.4261 5.22186 16.2356 5.60982 16.1584C5.99778 16.0813 6.39992 16.1209 6.76537 16.2722C7.13082 16.4236 7.44318 16.68 7.66294 17.0089C7.8827 17.3378 8 17.7244 8 18.12C8 18.6504 7.78929 19.1591 7.41421 19.5342C7.03914 19.9093 6.53043 20.12 6 20.12ZM6 17.56C5.89518 17.56 5.79271 17.5911 5.70555 17.6493C5.61839 17.7076 5.55046 17.7903 5.51035 17.8872C5.47023 17.984 5.45973 18.0906 5.48018 18.1934C5.50063 18.2962 5.55111 18.3906 5.62523 18.4648C5.69936 18.5389 5.79379 18.5894 5.8966 18.6098C5.99941 18.6303 6.10598 18.6198 6.20282 18.5797C6.29967 18.5395 6.38244 18.4716 6.44068 18.3844C6.49892 18.2973 6.53 18.1948 6.53 18.09C6.53 17.9494 6.47416 17.8146 6.37477 17.7152C6.27537 17.6158 6.14057 17.56 6 17.56Z" fill="black"/>
</svg>
