<svg width="24" height="24" viewBox="0 0 24 24" fill="none" xmlns="http://www.w3.org/2000/svg">
<path d="M15.85 5.8L8.59 8.59L5.8 15.85C5.69241 16.1248 5.65362 16.4216 5.68701 16.7148C5.7204 17.008 5.82495 17.2886 5.99157 17.5321C6.1582 17.7756 6.38183 17.9747 6.64299 18.112C6.90416 18.2494 7.19494 18.3208 7.49 18.32C7.71542 18.3199 7.93898 18.2792 8.15 18.2L15.41 15.41L18.2 8.15C18.3255 7.82173 18.3533 7.46414 18.28 7.12041C18.2067 6.77669 18.0355 6.46153 17.787 6.21302C17.5385 5.9645 17.2233 5.79326 16.8796 5.71997C16.5359 5.64668 16.1783 5.67447 15.85 5.8ZM7.62 16.8C7.56131 16.8244 7.49667 16.8308 7.43434 16.8183C7.372 16.8059 7.31479 16.7751 7.27 16.73C7.22704 16.6839 7.19774 16.6267 7.18538 16.5649C7.17302 16.5031 7.17808 16.4391 7.2 16.38L9.46 10.52L13.46 14.52L7.62 16.8ZM16.8 7.61L14.54 13.48L10.54 9.48L16.39 7.2C16.4472 7.17641 16.5101 7.17047 16.5707 7.18295C16.6313 7.19542 16.6868 7.22574 16.73 7.27C16.7721 7.31457 16.801 7.37 16.8133 7.43005C16.8257 7.49011 16.8211 7.55242 16.8 7.61ZM12 1.25C9.87386 1.25 7.79545 1.88048 6.02762 3.0617C4.2598 4.24293 2.88194 5.92185 2.0683 7.88615C1.25466 9.85046 1.04177 12.0119 1.45656 14.0972C1.87135 16.1825 2.89519 18.098 4.39861 19.6014C5.90202 21.1048 7.81749 22.1287 9.90278 22.5434C11.9881 22.9582 14.1495 22.7453 16.1139 21.9317C18.0782 21.1181 19.7571 19.7402 20.9383 17.9724C22.1195 16.2046 22.75 14.1261 22.75 12C22.7474 9.14974 21.6139 6.41697 19.5985 4.40153C17.583 2.38608 14.8503 1.25265 12 1.25ZM12 21.25C10.1705 21.25 8.38213 20.7075 6.86098 19.6911C5.33983 18.6747 4.15423 17.23 3.45412 15.5398C2.75401 13.8496 2.57083 11.9897 2.92774 10.1954C3.28465 8.40109 4.16563 6.7529 5.45927 5.45926C6.7529 4.16563 8.40109 3.28465 10.1954 2.92774C11.9897 2.57082 13.8496 2.754 15.5398 3.45411C17.23 4.15423 18.6747 5.33982 19.6911 6.86098C20.7075 8.38213 21.25 10.1705 21.25 12C21.2474 14.4524 20.272 16.8037 18.5378 18.5378C16.8037 20.272 14.4524 21.2474 12 21.25Z" fill="black"/>
</svg>
