<svg width="24" height="24" viewBox="0 0 24 24" fill="none" xmlns="http://www.w3.org/2000/svg">
<path d="M12.31 22.7499H5.68C4.5059 22.7473 3.38065 22.2797 2.55043 21.4495C1.72022 20.6193 1.25264 19.494 1.25 18.3199V11.6899C1.25 10.5141 1.71641 9.3863 2.54691 8.55392C3.37741 7.72155 4.50417 7.25259 5.68 7.24994H12.31C13.4876 7.24994 14.6169 7.71773 15.4496 8.55039C16.2822 9.38305 16.75 10.5124 16.75 11.6899V18.3199C16.7474 19.4958 16.2784 20.6225 15.446 21.453C14.6136 22.2835 13.4858 22.7499 12.31 22.7499ZM5.68 8.74994C4.902 8.75259 4.15676 9.06351 3.60757 9.61458C3.05837 10.1656 2.75 10.9119 2.75 11.6899V18.3199C2.75 19.097 3.0587 19.8423 3.60818 20.3918C4.15766 20.9412 4.90292 21.2499 5.68 21.2499H12.31C13.088 21.2499 13.8343 20.9416 14.3854 20.3924C14.9364 19.8432 15.2474 19.0979 15.25 18.3199V11.6899C15.25 10.9102 14.9403 10.1624 14.3889 9.61105C13.8375 9.05969 13.0897 8.74994 12.31 8.74994H5.68ZM19.55 16.5699C20.4725 16.3016 21.283 15.7414 21.86 14.9733C22.437 14.2052 22.7493 13.2706 22.75 12.3099V5.67994C22.7474 4.50585 22.2798 3.38059 21.4496 2.55038C20.6194 1.72017 19.4941 1.25259 18.32 1.24994H11.69C10.7622 1.24485 9.8563 1.53185 9.10069 2.07029C8.34508 2.60873 7.77807 3.3713 7.48 4.24994C7.44029 4.34524 7.42068 4.44771 7.4224 4.55093C7.42412 4.65416 7.44713 4.75592 7.49 4.84984C7.53286 4.94376 7.59466 5.02782 7.67151 5.09675C7.74836 5.16568 7.83862 5.21801 7.93663 5.25045C8.03464 5.28289 8.13829 5.29475 8.24109 5.28528C8.3439 5.2758 8.44364 5.24521 8.53407 5.19541C8.62451 5.14561 8.70369 5.07768 8.76665 4.99586C8.82962 4.91405 8.87501 4.82011 8.9 4.71994C9.09561 4.13551 9.47053 3.62764 9.97143 3.26857C10.4723 2.9095 11.0737 2.71753 11.69 2.71994H18.32C19.0971 2.71994 19.8423 3.02864 20.3918 3.57812C20.9413 4.1276 21.25 4.87286 21.25 5.64994V12.2799C21.2398 12.9137 21.0292 13.5279 20.6483 14.0345C20.2675 14.5411 19.736 14.9141 19.13 15.0999C18.939 15.1556 18.778 15.2849 18.6824 15.4593C18.5867 15.6337 18.5643 15.839 18.62 16.0299C18.6757 16.2209 18.805 16.3819 18.9794 16.4776C19.1538 16.5732 19.359 16.5956 19.55 16.5399V16.5699Z" fill="black"/>
</svg>
