<svg width="24" height="24" viewBox="0 0 24 24" fill="none" xmlns="http://www.w3.org/2000/svg">
<path d="M19.34 16.6C19.1773 16.6017 19.0186 16.5497 18.8885 16.4521C18.7583 16.3545 18.664 16.2167 18.62 16.06C18.5643 15.8691 18.5867 15.6638 18.6824 15.4894C18.778 15.315 18.939 15.1857 19.13 15.13C19.7417 14.9541 20.2795 14.5837 20.662 14.0749C21.0445 13.5661 21.2509 12.9466 21.25 12.31V5.68005C21.25 4.90296 20.9413 4.1577 20.3918 3.60822C19.8423 3.05874 19.0971 2.75005 18.32 2.75005H11.69C11.1158 2.75313 10.5551 2.92428 10.0771 3.24238C9.59902 3.56047 9.22459 4.01159 9 4.54005C8.96454 4.63197 8.91133 4.71601 8.84339 4.78737C8.77545 4.85873 8.69413 4.91601 8.60406 4.95594C8.51398 4.99587 8.41693 5.01767 8.31843 5.02009C8.21993 5.02251 8.12192 5.0055 8.03 4.97005C7.93807 4.93459 7.85403 4.88137 7.78267 4.81344C7.71132 4.7455 7.65404 4.66417 7.61411 4.5741C7.57418 4.48403 7.55238 4.38697 7.54996 4.28848C7.54754 4.18998 7.56454 4.09197 7.6 4.00005C7.93891 3.19563 8.50791 2.50927 9.23557 2.02713C9.96323 1.54499 10.8171 1.28856 11.69 1.29005H18.32C19.4941 1.29269 20.6194 1.76027 21.4496 2.59048C22.2798 3.42069 22.7474 4.54595 22.75 5.72005V12.35C22.746 13.3125 22.4314 14.248 21.853 15.0173C21.2747 15.7866 20.4635 16.3488 19.54 16.62C19.4727 16.6229 19.4054 16.6162 19.34 16.6ZM16.75 18.32V11.69C16.75 10.5125 16.2822 9.38315 15.4496 8.55049C14.6169 7.71783 13.4876 7.25005 12.31 7.25005H5.68C4.50417 7.25269 3.37741 7.72165 2.54691 8.55402C1.71641 9.3864 1.25 10.5142 1.25 11.69V18.32C1.25264 19.4941 1.72022 20.6194 2.55043 21.4496C3.38065 22.2798 4.5059 22.7474 5.68 22.75H12.31C13.4858 22.75 14.6136 22.2836 15.446 21.4531C16.2784 20.6226 16.7474 19.4959 16.75 18.32ZM12.31 8.75005C13.0897 8.75005 13.8375 9.05979 14.3889 9.61115C14.9403 10.1625 15.25 10.9103 15.25 11.69V18.32C15.2474 19.098 14.9364 19.8433 14.3854 20.3925C13.8343 20.9417 13.088 21.25 12.31 21.25H5.68C4.90292 21.25 4.15766 20.9414 3.60818 20.3919C3.0587 19.8424 2.75 19.0971 2.75 18.32V11.69C2.75 10.912 3.05837 10.1657 3.60757 9.61468C4.15676 9.06361 4.902 8.75269 5.68 8.75005H12.31ZM12.84 12.46C12.6994 12.3196 12.5088 12.2407 12.31 12.2407C12.1112 12.2407 11.9206 12.3196 11.78 12.46L8.61 15.5L7.37 14.23C7.2292 14.1334 7.05966 14.0878 6.88939 14.1006C6.71912 14.1134 6.55833 14.1839 6.43358 14.3005C6.30883 14.4171 6.22759 14.5728 6.20331 14.7418C6.17902 14.9108 6.21313 15.083 6.3 15.23L8.06 17.03C8.20188 17.1681 8.39204 17.2453 8.59 17.2453C8.78796 17.2453 8.97812 17.1681 9.12 17.03L12.82 13.46C12.9458 13.325 13.0173 13.1484 13.021 12.9639C13.0247 12.7794 12.9603 12.6 12.84 12.46Z" fill="black"/>
</svg>
