<svg width="24" height="24" viewBox="0 0 24 24" fill="none" xmlns="http://www.w3.org/2000/svg">
<path d="M21.5598 6.58006H19.6598C19.2009 6.58006 18.7609 6.76233 18.4365 7.08676C18.112 7.4112 17.9298 7.85123 17.9298 8.31006V10.0001H17.5998L17.0798 8.00006C17.0111 7.73462 16.8885 7.48614 16.7198 7.27006C16.7198 7.21006 16.6198 7.16006 16.5798 7.11006C17.0228 6.8746 17.3935 6.52324 17.6524 6.0935C17.9113 5.66376 18.0487 5.17176 18.0498 4.67006V4.62006H18.7298C18.9287 4.62006 19.1194 4.54104 19.2601 4.40039C19.4007 4.25974 19.4798 4.06897 19.4798 3.87006C19.4798 3.67115 19.4007 3.48038 19.2601 3.33973C19.1194 3.19908 18.9287 3.12006 18.7298 3.12006H17.9998C17.8576 2.44679 17.47 1.85053 16.9123 1.4474C16.3547 1.04427 15.6669 0.863126 14.9831 0.939251C14.2992 1.01538 13.6681 1.34332 13.2128 1.85921C12.7574 2.37511 12.5104 3.04202 12.5198 3.73006V4.73006C12.5221 4.97335 12.5557 5.21533 12.6198 5.45006C12.0409 5.60842 11.5484 5.98953 11.2498 6.51006L8.24976 11.8501L6.99976 13.0001L1.31976 18.6901C1.1202 18.8856 0.961663 19.119 0.853432 19.3765C0.745201 19.6341 0.689453 19.9107 0.689453 20.1901C0.689453 20.4694 0.745201 20.746 0.853432 21.0036C0.961663 21.2612 1.1202 21.4945 1.31976 21.6901C1.71997 22.0834 2.25864 22.3038 2.81976 22.3038C3.38088 22.3038 3.91955 22.0834 4.31976 21.6901L9.79976 16.1401L10.5798 16.7301L8.17976 19.1301C7.97896 19.3249 7.81933 19.558 7.71031 19.8157C7.6013 20.0734 7.54513 20.3503 7.54513 20.6301C7.54513 20.9098 7.6013 21.1868 7.71031 21.4444C7.81933 21.7021 7.97896 21.9352 8.17976 22.1301C8.37386 22.3321 8.60678 22.4929 8.86454 22.6027C9.1223 22.7125 9.39958 22.7691 9.67976 22.7691C9.95994 22.7691 10.2372 22.7125 10.495 22.6027C10.7527 22.4929 10.9857 22.3321 11.1798 22.1301L15.2298 18.0001C15.4255 17.8064 15.5811 17.5759 15.6875 17.3219C15.7939 17.0679 15.849 16.7954 15.8498 16.5201C15.8561 16.2377 15.8044 15.9571 15.6977 15.6956C15.5911 15.4342 15.4318 15.1974 15.2298 15.0001L14.3598 14.1301L14.6398 13.6301L14.8798 13.8101L14.9798 13.8801H15.0798C15.156 13.9218 15.2364 13.9554 15.3198 13.9801L15.5698 14.0601H15.6698C15.8223 14.0821 15.9772 14.0821 16.1298 14.0601H19.6398C20.079 14.065 20.5087 13.9315 20.8677 13.6784C21.2267 13.4253 21.4969 13.0654 21.6398 12.6501C22.0703 12.6283 22.4775 12.4475 22.7823 12.1426C23.0872 11.8378 23.268 11.4306 23.2898 11.0001V8.31006C23.2898 7.85123 23.1075 7.4112 22.7831 7.08676C22.4586 6.76233 22.0186 6.58006 21.5598 6.58006ZM16.5598 4.69006C16.5754 4.86698 16.5541 5.04524 16.4972 5.21348C16.4402 5.38172 16.3489 5.53627 16.229 5.6673C16.109 5.79832 15.9632 5.90295 15.8006 5.97453C15.6381 6.04612 15.4624 6.08308 15.2848 6.08308C15.1071 6.08308 14.9315 6.04612 14.7689 5.97453C14.6063 5.90295 14.4605 5.79832 14.3405 5.6673C14.2206 5.53627 14.1293 5.38172 14.0723 5.21348C14.0154 5.04524 13.9941 4.86698 14.0098 4.69006V4.62006H16.5598V4.69006ZM15.2698 2.46006C15.4954 2.46149 15.7165 2.52349 15.91 2.63959C16.1035 2.75569 16.2623 2.92163 16.3698 3.12006H14.1698C14.278 2.92231 14.437 2.75696 14.6303 2.64097C14.8236 2.52498 15.0443 2.46254 15.2698 2.46006ZM19.6198 12.6601H15.9998L15.7498 12.5901C15.6859 12.5488 15.6286 12.4983 15.5798 12.4401C15.5136 12.3451 15.4723 12.2351 15.4598 12.1201L15.4098 11.9401C15.3718 11.7941 15.2902 11.6632 15.1758 11.5649C15.0615 11.4666 14.9198 11.4056 14.7698 11.3901C14.6236 11.371 14.4751 11.3961 14.3432 11.462C14.2114 11.5279 14.1022 11.6317 14.0298 11.7601L12.9598 13.6601C12.9014 13.7118 12.8478 13.7687 12.7998 13.8301C12.7015 13.9747 12.6576 14.1495 12.6759 14.3234C12.6942 14.4973 12.7735 14.659 12.8998 14.7801L14.2098 16.1001C14.3131 16.2115 14.3703 16.3581 14.3698 16.5101C14.3698 16.5886 14.3538 16.6663 14.3229 16.7385C14.2919 16.8107 14.2466 16.8759 14.1898 16.9301L10.0798 21.0001C9.9676 21.11 9.81681 21.1716 9.65976 21.1716C9.50271 21.1716 9.35192 21.11 9.23976 21.0001C9.18288 20.9459 9.1376 20.8807 9.10666 20.8085C9.07571 20.7363 9.05976 20.6586 9.05976 20.5801C9.05976 20.5015 9.07571 20.4238 9.10666 20.3516C9.1376 20.2794 9.18288 20.2142 9.23976 20.1601L12.2398 17.1601C12.3157 17.0841 12.3744 16.9927 12.412 16.8921C12.4496 16.7915 12.4651 16.684 12.4575 16.5768C12.4499 16.4697 12.4194 16.3654 12.368 16.2711C12.3167 16.1768 12.2456 16.0946 12.1598 16.0301L10.1598 14.5301C10.0336 14.4249 9.87402 14.3681 9.70976 14.3701C9.51135 14.3724 9.32148 14.4512 9.17976 14.5901L3.17976 20.5901C3.0676 20.7 2.91681 20.7616 2.75976 20.7616C2.60271 20.7616 2.45192 20.7 2.33976 20.5901C2.22982 20.4779 2.16824 20.3271 2.16824 20.1701C2.16824 20.013 2.22982 19.8622 2.33976 19.7501L8.08976 14.0001H8.13976L9.32976 12.8001C9.37849 12.7513 9.42205 12.6977 9.45976 12.6401L12.4598 7.21006C12.517 7.11434 12.5955 7.03302 12.6891 6.97235C12.7827 6.91167 12.889 6.87326 12.9998 6.86006C13.0952 6.83347 13.195 6.82686 13.2931 6.84062C13.3912 6.85439 13.4854 6.88824 13.5698 6.94006L15.2898 7.94006C15.3934 8.00791 15.4819 8.09642 15.5498 8.20006C15.6038 8.26332 15.6416 8.33885 15.6598 8.42006L16.3298 10.9201C16.3735 11.0804 16.4685 11.2219 16.6004 11.3231C16.7322 11.4242 16.8936 11.4794 17.0598 11.4801H19.6498C19.7344 11.4691 19.8203 11.4762 19.902 11.5011C19.9836 11.526 20.059 11.568 20.1231 11.6243C20.1871 11.6806 20.2385 11.7499 20.2737 11.8277C20.3089 11.9054 20.3271 11.9897 20.3271 12.0751C20.3271 12.1604 20.3089 12.2447 20.2737 12.3224C20.2385 12.4002 20.1871 12.4695 20.1231 12.5258C20.059 12.5821 19.9836 12.6241 19.902 12.649C19.8203 12.6739 19.7344 12.6811 19.6498 12.6701L19.6198 12.6601ZM21.7898 11.0001C21.7911 11.0311 21.7862 11.0621 21.7752 11.0911C21.7643 11.1202 21.7475 11.1468 21.726 11.1692C21.7045 11.1916 21.6787 11.2095 21.6502 11.2216C21.6216 11.2338 21.5908 11.2401 21.5598 11.2401C21.3933 10.8661 21.1208 10.5493 20.7759 10.3288C20.431 10.1084 20.029 9.99407 19.6198 10.0001H19.4298V8.31006C19.4298 8.24906 19.454 8.19056 19.4971 8.14742C19.5403 8.10429 19.5988 8.08006 19.6598 8.08006H21.5598C21.6208 8.08006 21.6793 8.10429 21.7224 8.14742C21.7655 8.19056 21.7898 8.24906 21.7898 8.31006V11.0001ZM2.14976 8.29006C2.14974 8.09287 2.22739 7.9036 2.36588 7.76323C2.50438 7.62286 2.69258 7.54269 2.88976 7.54006L8.99976 7.50006C9.19867 7.50006 9.38944 7.57908 9.53009 7.71973C9.67074 7.86038 9.74976 8.05115 9.74976 8.25006C9.74976 8.44897 9.67074 8.63974 9.53009 8.78039C9.38944 8.92104 9.19867 9.00006 8.99976 9.00006H2.89976C2.70759 9.00033 2.52264 8.92683 2.38308 8.79471C2.24353 8.6626 2.16001 8.48196 2.14976 8.29006ZM5.22976 5.29006C5.22832 5.18947 5.2474 5.08963 5.28584 4.99667C5.32429 4.9037 5.38129 4.81954 5.45335 4.74935C5.52542 4.67915 5.61104 4.62439 5.70499 4.5884C5.79894 4.55242 5.89924 4.53597 5.99976 4.54006H8.99976C9.16425 4.57883 9.31083 4.67201 9.41573 4.80451C9.52064 4.93701 9.57771 5.10106 9.57771 5.27006C9.57771 5.43906 9.52064 5.6031 9.41573 5.7356C9.31083 5.8681 9.16425 5.96129 8.99976 6.00006H5.99976C5.80579 6.00566 5.61719 5.93586 5.47361 5.80533C5.33002 5.67479 5.24262 5.49368 5.22976 5.30006V5.29006Z" fill="black"/>
</svg>
