<svg width="24" height="24" viewBox="0 0 24 24" fill="none" xmlns="http://www.w3.org/2000/svg">
<path d="M15.05 9.86005H13.37L12.64 8.00005C12.596 7.39752 12.3156 6.8368 11.86 6.44005C12.3078 5.93925 12.5568 5.29185 12.56 4.62005V4.54005H13.23C13.4289 4.54005 13.6197 4.46103 13.7603 4.32038C13.901 4.17972 13.98 3.98896 13.98 3.79005C13.98 3.59113 13.901 3.40037 13.7603 3.25972C13.6197 3.11906 13.4289 3.04005 13.23 3.04005H12.49C12.3378 2.37478 11.9463 1.78872 11.3899 1.3935C10.8336 0.998289 10.1513 0.821529 9.47298 0.896893C8.79471 0.972256 8.16785 1.29448 7.71181 1.80218C7.25577 2.30989 7.00242 2.9676 7 3.65005V4.65005C7.00349 5.27445 7.2225 5.8785 7.62 6.36005C7.33231 6.56845 7.09807 6.84202 6.93642 7.15836C6.77478 7.47469 6.69033 7.82481 6.69 8.18005V13.88C6.69 13.88 6.69 13.93 6.69 13.95V16.9C6.68969 17.3237 6.60114 17.7425 6.43 18.13L5.5 20.18C5.30363 20.6233 5.29011 21.1261 5.46238 21.5792C5.63465 22.0324 5.97878 22.3992 6.42 22.6C6.63848 22.7003 6.87466 22.7563 7.11489 22.7648C7.35513 22.7732 7.59467 22.734 7.81967 22.6494C8.04467 22.5648 8.25069 22.4365 8.42581 22.2718C8.60094 22.1071 8.74171 21.9094 8.84 21.69L10 19.18C10.2056 18.7244 10.334 18.2378 10.38 17.74C10.5333 18.1037 10.6082 18.4955 10.6 18.89V20.89C10.5987 21.1304 10.6447 21.3686 10.7355 21.5911C10.8262 21.8137 10.9599 22.0161 11.1289 22.187C11.2979 22.3578 11.4989 22.4937 11.7204 22.5869C11.942 22.6801 12.1797 22.7287 12.42 22.73C12.9028 22.7274 13.3653 22.5352 13.7076 22.1947C14.05 21.8542 14.2448 21.3928 14.25 20.91V18.33C14.2588 17.5331 14.0515 16.7486 13.65 16.06L12.65 14.38V13.52H15.05C15.5353 13.52 16.0008 13.3272 16.344 12.9841C16.6872 12.6409 16.88 12.1754 16.88 11.69C16.88 11.2047 16.6872 10.7392 16.344 10.396C16.0008 10.0528 15.5353 9.86005 15.05 9.86005ZM11.05 4.61005C11.05 4.94952 10.9151 5.2751 10.6751 5.51514C10.4351 5.75519 10.1095 5.89005 9.77 5.89005C9.43052 5.89005 9.10495 5.75519 8.8649 5.51514C8.62486 5.2751 8.49 4.94952 8.49 4.61005V4.54005H11.05V4.61005ZM9.78 2.38005C10.0057 2.38148 10.2268 2.44348 10.4203 2.55958C10.6138 2.67568 10.7725 2.84161 10.88 3.04005H8.68C8.78745 2.84161 8.94622 2.67568 9.13972 2.55958C9.33322 2.44348 9.55435 2.38148 9.78 2.38005ZM15.05 12H11.9C11.7011 12 11.5103 12.0791 11.3697 12.2197C11.229 12.3604 11.15 12.5511 11.15 12.75V14.56C11.1477 14.6903 11.1824 14.8186 11.25 14.93L12.32 16.79C12.5843 17.2492 12.7223 17.7702 12.72 18.3V20.9C12.72 20.9876 12.6852 21.0715 12.6233 21.1334C12.5615 21.1953 12.4775 21.23 12.39 21.23C12.3463 21.2314 12.3028 21.2238 12.2621 21.2078C12.2214 21.1917 12.1845 21.1674 12.1536 21.1365C12.1226 21.1056 12.0984 21.0686 12.0823 21.028C12.0662 20.9873 12.0586 20.9438 12.06 20.9V18.9C12.0675 18.1064 11.8602 17.3255 11.46 16.64L10.26 14.55C10.192 14.4382 10.0967 14.3456 9.98294 14.2808C9.86921 14.2161 9.74086 14.1814 9.61 14.18H9.41C9.2507 14.2241 9.11041 14.3196 9.01095 14.4516C8.91149 14.5836 8.85842 14.7448 8.86 14.91V17.32C8.86021 17.7448 8.76808 18.1645 8.59 18.55L7.46 21C7.44445 21.0411 7.42036 21.0783 7.38933 21.1094C7.3583 21.1404 7.32103 21.1645 7.28 21.18C7.19934 21.2099 7.11066 21.2099 7.03 21.18C6.98963 21.1627 6.95314 21.1375 6.92266 21.1058C6.89217 21.0742 6.86831 21.0368 6.85248 20.9958C6.83665 20.9548 6.82915 20.9111 6.83045 20.8672C6.83174 20.8232 6.84178 20.78 6.86 20.74L7.78 18.69C8.04688 18.11 8.18342 17.4785 8.18 16.84V14C8.18412 13.9769 8.18412 13.9532 8.18 13.93V8.14005C8.17866 8.04118 8.19714 7.94305 8.23435 7.85145C8.27156 7.75985 8.32676 7.67663 8.39667 7.60672C8.46659 7.5368 8.5498 7.48161 8.6414 7.4444C8.73301 7.40718 8.83114 7.3887 8.93 7.39005H10.4C10.5989 7.39005 10.7897 7.46906 10.9303 7.60972C11.071 7.75037 11.15 7.94113 11.15 8.14005C11.1362 8.22616 11.1362 8.31393 11.15 8.40005L12.09 10.92C12.1488 11.0633 12.2484 11.1861 12.3764 11.2732C12.5044 11.3603 12.6552 11.4079 12.81 11.41L15.01 11.36C15.0975 11.36 15.1815 11.3948 15.2433 11.4567C15.3052 11.5186 15.34 11.6025 15.34 11.69C15.34 11.7776 15.3052 11.8615 15.2433 11.9234C15.1815 11.9853 15.0975 12.02 15.01 12.02L15.05 12ZM18.51 4.00005H15.7C15.254 4.01012 14.8289 4.1911 14.5126 4.50561C14.1962 4.82012 14.0127 5.24413 14 5.69005V7.58005C13.9999 8.03468 14.1777 8.4713 14.4954 8.79648C14.8131 9.12167 15.2455 9.30959 15.7 9.32005H18.51C18.9715 9.32005 19.4141 9.13673 19.7404 8.81041C20.0667 8.4841 20.25 8.04152 20.25 7.58005V5.69005C20.237 5.23729 20.0479 4.80745 19.723 4.49188C19.3981 4.1763 18.9629 3.99986 18.51 4.00005ZM18.75 7.63005C18.75 7.6937 18.7247 7.75474 18.6797 7.79975C18.6347 7.84476 18.5737 7.87005 18.51 7.87005H15.7C15.6685 7.87005 15.6373 7.86384 15.6082 7.85178C15.579 7.83972 15.5526 7.82204 15.5303 7.79975C15.508 7.77747 15.4903 7.75101 15.4783 7.72189C15.4662 7.69277 15.46 7.66156 15.46 7.63005V5.69005C15.46 5.62639 15.4853 5.56535 15.5303 5.52034C15.5753 5.47533 15.6363 5.45005 15.7 5.45005H18.51C18.5737 5.45005 18.6347 5.47533 18.6797 5.52034C18.7247 5.56535 18.75 5.62639 18.75 5.69005V7.63005Z" fill="black"/>
</svg>
