<svg width="24" height="25" viewBox="0 0 24 25" fill="none" xmlns="http://www.w3.org/2000/svg">
<path d="M18.73 5H5.27002C4.20915 5 3.19174 5.42143 2.44159 6.17157C1.69145 6.92172 1.27002 7.93913 1.27002 9V17.26C1.27002 18.3209 1.69145 19.3383 2.44159 20.0884C3.19174 20.8386 4.20915 21.26 5.27002 21.26H18.73C19.7909 21.26 20.8083 20.8386 21.5584 20.0884C22.3086 19.3383 22.73 18.3209 22.73 17.26V9C22.73 7.93913 22.3086 6.92172 21.5584 6.17157C20.8083 5.42143 19.7909 5 18.73 5ZM2.73002 10.23H21.23V12.4H2.75002L2.73002 10.23ZM5.27002 6.46H18.73C19.3459 6.46324 19.9392 6.69188 20.398 7.10275C20.8567 7.51361 21.1492 8.07824 21.22 8.69H2.78002C2.85088 8.07824 3.14331 7.51361 3.60208 7.10275C4.06084 6.69188 4.65418 6.46324 5.27002 6.46ZM18.73 19.76H5.27002C4.60167 19.76 3.9607 19.4945 3.48811 19.0219C3.01552 18.5493 2.75002 17.9083 2.75002 17.24V13.86H21.25V17.24C21.25 17.5709 21.1848 17.8986 21.0582 18.2044C20.9316 18.5101 20.7459 18.7879 20.5119 19.0219C20.2779 19.2559 20.0001 19.4415 19.6944 19.5682C19.3886 19.6948 19.0609 19.76 18.73 19.76ZM14.09 17.59C14.0874 17.7881 14.0076 17.9774 13.8675 18.1175C13.7274 18.2576 13.5381 18.3374 13.34 18.34H11.85C11.6511 18.34 11.4603 18.261 11.3197 18.1203C11.179 17.9797 11.1 17.7889 11.1 17.59C11.1 17.3911 11.179 17.2003 11.3197 17.0597C11.4603 16.919 11.6511 16.84 11.85 16.84H13.34C13.5381 16.8426 13.7274 16.9224 13.8675 17.0625C14.0076 17.2026 14.0874 17.3919 14.09 17.59ZM20.09 17.59C20.0874 17.7881 20.0076 17.9774 19.8675 18.1175C19.7274 18.2576 19.5381 18.3374 19.34 18.34H15.8C15.6011 18.34 15.4103 18.261 15.2697 18.1203C15.129 17.9797 15.05 17.7889 15.05 17.59C15.05 17.3911 15.129 17.2003 15.2697 17.0597C15.4103 16.919 15.6011 16.84 15.8 16.84H19.35C19.5481 16.8426 19.7374 16.9224 19.8775 17.0625C20.0176 17.2026 20.0974 17.3919 20.1 17.59H20.09Z" fill="black"/>
</svg>
