<svg width="24" height="24" viewBox="0 0 24 24" fill="none" xmlns="http://www.w3.org/2000/svg">
<path d="M13.4099 12L16.9999 8.44C17.1909 8.24639 17.2971 7.98486 17.2952 7.71293C17.2933 7.441 17.1835 7.18096 16.9899 6.99C16.7963 6.79904 16.5348 6.69282 16.2628 6.6947C15.9909 6.69657 15.7309 6.80639 15.5399 7L11.9999 10.59L8.45992 7.07C8.27256 6.88375 8.0191 6.77921 7.75492 6.77921C7.49073 6.77921 7.23728 6.88375 7.04992 7.07C6.95619 7.16296 6.8818 7.27357 6.83103 7.39542C6.78026 7.51728 6.75412 7.64799 6.75412 7.78C6.75412 7.91201 6.78026 8.04272 6.83103 8.16458C6.8818 8.28644 6.95619 8.39704 7.04992 8.49L10.5899 12L6.99992 15.56C6.80896 15.7536 6.70274 16.0151 6.70461 16.2871C6.70649 16.559 6.81631 16.819 7.00992 17.01C7.20353 17.201 7.46506 17.3072 7.73699 17.3053C8.00892 17.3034 8.26896 17.1936 8.45992 17L11.9999 13.41L15.5399 16.93C15.7273 17.1163 15.9807 17.2208 16.2449 17.2208C16.5091 17.2208 16.7626 17.1163 16.9499 16.93C17.0436 16.837 17.118 16.7264 17.1688 16.6046C17.2196 16.4827 17.2457 16.352 17.2457 16.22C17.2457 16.088 17.2196 15.9573 17.1688 15.8354C17.118 15.7136 17.0436 15.603 16.9499 15.51L13.4099 12Z" fill="black"/>
</svg>
