<svg width="24" height="24" viewBox="0 0 24 24" fill="none" xmlns="http://www.w3.org/2000/svg">
<path d="M15.92 2.65C16.6331 2.65 17.3392 2.79045 17.998 3.06333C18.6568 3.33622 19.2554 3.73619 19.7596 4.24041C20.2638 4.74463 20.6638 5.34323 20.9367 6.00203C21.2095 6.66083 21.35 7.36692 21.35 8.08V15.92C21.35 16.6331 21.2095 17.3392 20.9367 17.998C20.6638 18.6568 20.2638 19.2554 19.7596 19.7596C19.2554 20.2638 18.6568 20.6638 17.998 20.9367C17.3392 21.2095 16.6331 21.35 15.92 21.35H8.08C6.63987 21.35 5.25873 20.7779 4.24041 19.7596C3.22209 18.7413 2.65 17.3601 2.65 15.92V8.08C2.65 6.63987 3.22209 5.25873 4.24041 4.24041C5.25873 3.22209 6.63987 2.65 8.08 2.65H15.92ZM12 10.65L9.36 8C9.17508 7.8285 8.9322 7.73321 8.68 7.73321C8.4278 7.73321 8.18492 7.8285 8 8C7.8285 8.18492 7.73321 8.4278 7.73321 8.68C7.73321 8.9322 7.8285 9.17508 8 9.36L10.68 12L8 14.64C7.8285 14.8249 7.73321 15.0678 7.73321 15.32C7.73321 15.5722 7.8285 15.8151 8 16C8.18313 16.1631 8.41979 16.2532 8.665 16.2532C8.91021 16.2532 9.14687 16.1631 9.33 16L12 13.32L14.64 16C14.8249 16.1715 15.0678 16.2668 15.32 16.2668C15.5722 16.2668 15.8151 16.1715 16 16C16.1631 15.8169 16.2532 15.5802 16.2532 15.335C16.2532 15.0898 16.1631 14.8531 16 14.67L13.32 12L16 9.36C16.1715 9.17508 16.2668 8.9322 16.2668 8.68C16.2668 8.4278 16.1715 8.18492 16 8C15.8169 7.83694 15.5802 7.74684 15.335 7.74684C15.0898 7.74684 14.8531 7.83694 14.67 8L12 10.68M15.92 1.25H8.08C6.26857 1.25 4.53133 1.96959 3.25046 3.25046C1.96959 4.53133 1.25 6.26857 1.25 8.08V15.92C1.25 17.7314 1.96959 19.4687 3.25046 20.7495C4.53133 22.0304 6.26857 22.75 8.08 22.75H15.92C17.7314 22.75 19.4687 22.0304 20.7495 20.7495C22.0304 19.4687 22.75 17.7314 22.75 15.92V8.08C22.75 6.26857 22.0304 4.53133 20.7495 3.25046C19.4687 1.96959 17.7314 1.25 15.92 1.25Z" fill="black"/>
</svg>
