<svg width="24" height="24" viewBox="0 0 24 24" fill="none" xmlns="http://www.w3.org/2000/svg">
<path d="M12 2.65C13.8493 2.65 15.657 3.19837 17.1946 4.22576C18.7322 5.25315 19.9306 6.71342 20.6383 8.42191C21.346 10.1304 21.5311 12.0104 21.1703 13.8241C20.8096 15.6378 19.9191 17.3038 18.6115 18.6114C17.3038 19.9191 15.6378 20.8096 13.8241 21.1703C12.0104 21.5311 10.1304 21.346 8.42192 20.6383C6.71343 19.9306 5.25315 18.7322 4.22576 17.1946C3.19837 15.657 2.65 13.8493 2.65 12C2.65 9.52023 3.63509 7.14202 5.38856 5.38855C7.14202 3.63509 9.52023 2.65 12 2.65ZM12 10.65L9.36 8C9.17509 7.8285 8.9322 7.73321 8.68001 7.73321C8.42781 7.73321 8.18492 7.8285 8 8C7.82851 8.18492 7.73322 8.4278 7.73322 8.68C7.73322 8.9322 7.82851 9.17508 8 9.36L10.68 12L8 14.64C7.82851 14.8249 7.73322 15.0678 7.73322 15.32C7.73322 15.5722 7.82851 15.8151 8 16C8.18314 16.1631 8.4198 16.2532 8.665 16.2532C8.91021 16.2532 9.14687 16.1631 9.33 16L12 13.32L14.64 16C14.8249 16.1715 15.0678 16.2668 15.32 16.2668C15.5722 16.2668 15.8151 16.1715 16 16C16.1631 15.8169 16.2532 15.5802 16.2532 15.335C16.2532 15.0898 16.1631 14.8531 16 14.67L13.32 12L16 9.36C16.1715 9.17508 16.2668 8.9322 16.2668 8.68C16.2668 8.4278 16.1715 8.18492 16 8C15.8169 7.83694 15.5802 7.74684 15.335 7.74684C15.0898 7.74684 14.8531 7.83694 14.67 8L12 10.68M12 1.25C9.87386 1.25 7.79545 1.88048 6.02762 3.0617C4.2598 4.24293 2.88194 5.92185 2.0683 7.88615C1.25466 9.85046 1.04177 12.0119 1.45656 14.0972C1.87135 16.1825 2.89519 18.098 4.39861 19.6014C5.90202 21.1048 7.81749 22.1287 9.90278 22.5434C11.9881 22.9582 14.1495 22.7453 16.1139 21.9317C18.0782 21.1181 19.7571 19.7402 20.9383 17.9724C22.1195 16.2046 22.75 14.1261 22.75 12C22.7474 9.14974 21.6139 6.41697 19.5985 4.40153C17.583 2.38608 14.8503 1.25265 12 1.25Z" fill="black"/>
</svg>
