<svg width="24" height="24" viewBox="0 0 24 24" fill="none" xmlns="http://www.w3.org/2000/svg">
<path d="M16.7999 20H7.09988C6.72409 20.0033 6.35658 19.8895 6.04837 19.6745C5.74016 19.4595 5.50652 19.1538 5.37988 18.8L1.37988 7.18C1.25212 6.82451 1.24352 6.43711 1.35537 6.0763C1.46722 5.71549 1.69345 5.40088 1.99988 5.18C2.30369 4.95044 2.67409 4.82623 3.05488 4.82623C3.43567 4.82623 3.80607 4.95044 4.10988 5.18L8.10988 8.06C8.13802 8.06672 8.16755 8.06456 8.19441 8.05382C8.22127 8.04307 8.24414 8.02427 8.25988 8L10.2599 2.77C10.3891 2.43459 10.6169 2.14617 10.9132 1.94269C11.2095 1.7392 11.5604 1.63019 11.9199 1.63C12.282 1.63032 12.6353 1.74171 12.9322 1.94914C13.229 2.15656 13.4551 2.45005 13.5799 2.79L15.5499 8C15.558 8.01919 15.5703 8.03633 15.5858 8.05017C15.6014 8.06401 15.6199 8.0742 15.6399 8.08C15.6603 8.08909 15.6825 8.09379 15.7049 8.09379C15.7273 8.09379 15.7494 8.08909 15.7699 8.08L19.8999 5C20.2053 4.77879 20.5728 4.65969 20.9499 4.65969C21.327 4.65969 21.6945 4.77879 21.9999 5C22.3076 5.21978 22.5348 5.53435 22.6468 5.89555C22.7588 6.25675 22.7493 6.64469 22.6199 7L18.5099 18.81C18.3822 19.1603 18.1493 19.4627 17.8433 19.6757C17.5372 19.8887 17.1728 20.002 16.7999 20ZM2.99988 6.32C2.93712 6.32428 2.87746 6.34884 2.82988 6.39C2.78375 6.42055 2.74959 6.46611 2.73319 6.51895C2.71679 6.5718 2.71915 6.62869 2.73988 6.68L6.73988 18.31C6.76239 18.3715 6.80323 18.4246 6.85687 18.4622C6.91052 18.4997 6.9744 18.5199 7.03988 18.52H16.7399C16.8047 18.5173 16.8674 18.496 16.9206 18.4588C16.9737 18.4216 17.0151 18.37 17.0399 18.31L21.2299 6.53C21.2503 6.47552 21.2525 6.41592 21.2363 6.36007C21.2201 6.30421 21.1863 6.25508 21.1399 6.22C21.0899 6.1856 21.0306 6.16718 20.9699 6.16718C20.9092 6.16718 20.8499 6.1856 20.7999 6.22L16.6599 9.3C16.4567 9.4529 16.2205 9.55614 15.9703 9.60147C15.7201 9.6468 15.4627 9.63296 15.2188 9.56104C14.9749 9.48913 14.7512 9.36115 14.5656 9.18733C14.38 9.01351 14.2376 8.79867 14.1499 8.56L12.1499 3.3C12.1267 3.24942 12.0903 3.20602 12.0446 3.17435C11.9988 3.14268 11.9454 3.12391 11.8899 3.12C11.8335 3.12031 11.7784 3.13766 11.732 3.16978C11.6856 3.2019 11.65 3.24729 11.6299 3.3L9.62988 8.53C9.54222 8.7671 9.40093 8.98073 9.21705 9.1542C9.03317 9.32767 8.81168 9.45628 8.56988 9.53C8.3285 9.60242 8.07356 9.61754 7.82531 9.57414C7.57707 9.53074 7.34237 9.43002 7.13988 9.28L3.13988 6.4C3.10081 6.36182 3.05261 6.33428 2.99988 6.32ZM15.2299 14.32C15.2299 14.2207 15.2102 14.1223 15.1719 14.0307C15.1335 13.939 15.0774 13.8559 15.0067 13.7861C14.936 13.7163 14.8521 13.6613 14.76 13.6242C14.6678 13.5871 14.5692 13.5687 14.4699 13.57H9.46988C9.27097 13.57 9.0802 13.649 8.93955 13.7897C8.7989 13.9303 8.71988 14.1211 8.71988 14.32C8.71988 14.5189 8.7989 14.7097 8.93955 14.8503C9.0802 14.991 9.27097 15.07 9.46988 15.07H14.4699C14.5739 15.0741 14.6776 15.0569 14.7747 15.0193C14.8718 14.9817 14.9601 14.9245 15.0341 14.8514C15.1082 14.7783 15.1665 14.6907 15.2053 14.5941C15.2441 14.4976 15.2627 14.394 15.2599 14.29L15.2299 14.32ZM17.8499 21.66C17.8499 21.5607 17.8302 21.4623 17.7919 21.3707C17.7535 21.279 17.6974 21.1959 17.6267 21.1261C17.556 21.0563 17.4721 21.0013 17.38 20.9642C17.2878 20.9271 17.1892 20.9087 17.0899 20.91H6.87988C6.68097 20.91 6.4902 20.989 6.34955 21.1297C6.2089 21.2703 6.12988 21.4611 6.12988 21.66C6.12988 21.8589 6.2089 22.0497 6.34955 22.1903C6.4902 22.331 6.68097 22.41 6.87988 22.41H17.1199C17.2214 22.41 17.3219 22.3897 17.4154 22.3503C17.509 22.3109 17.5936 22.2531 17.6645 22.1804C17.7353 22.1077 17.7909 22.0215 17.8279 21.927C17.8649 21.8325 17.8826 21.7315 17.8799 21.63L17.8499 21.66Z" fill="black"/>
</svg>
