<svg width="24" height="24" viewBox="0 0 24 24" fill="none" xmlns="http://www.w3.org/2000/svg">
<path d="M16.9998 21H6.99983C5.46595 21 3.99476 20.3914 2.90921 19.3077C1.82366 18.224 1.21248 16.7539 1.20983 15.22V5.34C1.19939 5.02152 1.28612 4.70741 1.45847 4.4394C1.63083 4.17139 1.88065 3.96216 2.17476 3.83953C2.46886 3.71689 2.79332 3.68665 3.10502 3.75283C3.41673 3.819 3.70091 3.97845 3.91983 4.21L6.91983 7.21L10.9198 3.44C11.2158 3.1564 11.6099 2.99809 12.0198 2.99809C12.4298 2.99809 12.8238 3.1564 13.1198 3.44L16.9998 7.18C17.0063 7.18665 17.0141 7.19194 17.0227 7.19554C17.0313 7.19915 17.0405 7.20101 17.0498 7.20101C17.0591 7.20101 17.0684 7.19915 17.0769 7.19554C17.0855 7.19194 17.0933 7.18665 17.0998 7.18L20.0998 4.18C20.3211 3.9627 20.6018 3.81581 20.9065 3.75785C21.2111 3.69989 21.5262 3.73347 21.8118 3.85435C22.0974 3.97523 22.3408 4.17799 22.5113 4.43705C22.6818 4.69611 22.7718 4.99987 22.7698 5.31V15.22C22.7672 16.7504 22.1588 18.2175 21.0775 19.3006C19.9963 20.3837 18.5302 20.9947 16.9998 21ZM2.86983 5.29H2.74983V15.2C2.74455 15.7634 2.85029 16.3223 3.06103 16.8448C3.27176 17.3673 3.58334 17.8432 3.978 18.2453C4.37265 18.6473 4.84264 18.9677 5.36113 19.1882C5.87962 19.4086 6.43645 19.5248 6.99983 19.53H16.9998C18.1359 19.53 19.2255 19.0794 20.0298 18.277C20.834 17.4747 21.2872 16.386 21.2898 15.25V5.34H21.1698L18.1698 8.34C17.8738 8.6236 17.4797 8.78191 17.0698 8.78191C16.6599 8.78191 16.2658 8.6236 15.9698 8.34L12.0498 4.49L8.04983 8.26C7.75626 8.54827 7.36126 8.70978 6.94983 8.70978C6.53839 8.70978 6.14339 8.54827 5.84983 8.26L2.86983 5.29Z" fill="black"/>
</svg>
