<svg width="24" height="24" viewBox="0 0 24 24" fill="none" xmlns="http://www.w3.org/2000/svg">
<path d="M12.0002 22.75C11.6954 22.7517 11.3921 22.7079 11.1002 22.62L6.35023 21.26C5.72501 21.0822 5.16721 20.7216 4.74847 20.2245C4.32972 19.7273 4.06916 19.1163 4.00023 18.47L2.59023 4.84001C2.54614 4.38768 2.59623 3.93113 2.73737 3.49913C2.8785 3.06713 3.1076 2.66906 3.41023 2.33001C3.7151 1.99009 4.08818 1.71823 4.50515 1.53215C4.92212 1.34606 5.37362 1.24993 5.83023 1.25001H18.1702C18.6254 1.24905 19.0758 1.34374 19.492 1.52792C19.9083 1.7121 20.2812 1.98168 20.5867 2.31918C20.8921 2.65668 21.1233 3.05459 21.2652 3.48712C21.407 3.91965 21.4564 4.37716 21.4102 4.83001L20.0002 18.46C19.9379 19.1082 19.6811 19.7224 19.2635 20.2221C18.8459 20.7218 18.2871 21.0836 17.6602 21.26L12.8802 22.62C12.595 22.7068 12.2984 22.7506 12.0002 22.75ZM5.83023 2.75001C5.58538 2.75177 5.34355 2.80432 5.12005 2.90433C4.89655 3.00434 4.69622 3.14963 4.53175 3.33102C4.36727 3.51242 4.24222 3.72596 4.1645 3.95816C4.08678 4.19036 4.05809 4.43615 4.08023 4.68001L5.50023 18.31C5.53669 18.6572 5.67614 18.9855 5.90067 19.2528C6.12521 19.5201 6.42455 19.7142 6.76023 19.81L11.5102 21.18C11.8367 21.2756 12.1837 21.2756 12.5102 21.18L17.2902 19.81C17.6266 19.7154 17.9266 19.5217 18.1514 19.2542C18.3761 18.9866 18.5151 18.6576 18.5502 18.31L19.9502 4.68001C19.9724 4.43615 19.9437 4.19036 19.866 3.95816C19.7882 3.72596 19.6632 3.51242 19.4987 3.33102C19.3342 3.14963 19.1339 3.00434 18.9104 2.90433C18.6869 2.80432 18.4451 2.75177 18.2002 2.75001H5.83023ZM17.0702 6.53001C16.9978 6.45096 16.9098 6.3879 16.8116 6.34485C16.7135 6.3018 16.6074 6.27971 16.5002 6.28001H7.50023C7.39378 6.26774 7.28595 6.27811 7.1838 6.31045C7.08164 6.3428 6.98749 6.39637 6.9075 6.46767C6.82751 6.53896 6.76351 6.62637 6.71968 6.72414C6.67585 6.82192 6.65319 6.92786 6.65319 7.03501C6.65319 7.14216 6.67585 7.24809 6.71968 7.34587C6.76351 7.44365 6.82751 7.53105 6.9075 7.60235C6.98749 7.67364 7.08164 7.72722 7.1838 7.75956C7.28595 7.7919 7.39378 7.80228 7.50023 7.79001H15.6602L15.3802 10.4H8.00023C7.89378 10.3877 7.78595 10.3981 7.6838 10.4305C7.58164 10.4628 7.48749 10.5164 7.4075 10.5877C7.32751 10.659 7.26351 10.7464 7.21968 10.8441C7.17585 10.9419 7.15319 11.0479 7.15319 11.155C7.15319 11.2622 7.17585 11.3681 7.21968 11.4659C7.26351 11.5636 7.32751 11.651 7.4075 11.7223C7.48749 11.7936 7.58164 11.8472 7.6838 11.8796C7.78595 11.9119 7.89378 11.9223 8.00023 11.91H15.1902L14.8102 15.43L12.0402 16.25L9.16023 15.37L8.80023 14C8.77331 13.9048 8.7279 13.8158 8.66659 13.7382C8.60528 13.6605 8.52928 13.5957 8.44292 13.5474C8.35656 13.4991 8.26154 13.4683 8.16328 13.4567C8.06502 13.4452 7.96544 13.4531 7.87023 13.48C7.77502 13.5069 7.68605 13.5523 7.60839 13.6136C7.53073 13.6749 7.46591 13.751 7.41762 13.8373C7.36933 13.9237 7.33853 14.0187 7.32697 14.117C7.3154 14.2152 7.32331 14.3148 7.35023 14.41L7.85023 16.18C7.88477 16.3009 7.94841 16.4115 8.03557 16.5022C8.12273 16.5928 8.23076 16.6608 8.35023 16.7L11.8402 17.78C11.9132 17.7898 11.9872 17.7898 12.0602 17.78C12.1332 17.7904 12.2073 17.7904 12.2802 17.78L15.7602 16.78C15.9018 16.7374 16.0277 16.654 16.122 16.5401C16.2163 16.4262 16.2748 16.287 16.2902 16.14L17.2902 7.14001C17.3088 7.02195 17.2984 6.90116 17.2601 6.78796C17.2218 6.67477 17.1567 6.57254 17.0702 6.49001V6.53001Z" fill="black"/>
</svg>
