<svg width="24" height="24" viewBox="0 0 24 24" fill="none" xmlns="http://www.w3.org/2000/svg">
<path d="M21.9098 8.39995C21.8593 8.02263 21.7619 7.65311 21.6198 7.29995H21.6798L21.3098 6.64995C21.2841 6.61832 21.2607 6.5849 21.2398 6.54995L20.9198 5.99995C20.7046 5.73304 20.4597 5.49148 20.1898 5.27995L20.1098 5.20995C19.9395 5.08087 19.7626 4.9607 19.5798 4.84995L14.4598 1.84995C13.7234 1.4271 12.889 1.20459 12.0398 1.20459C11.1906 1.20459 10.3562 1.4271 9.6198 1.84995L4.4998 4.84995L3.9698 5.19995L3.8498 5.30995C3.38914 5.67504 2.99646 6.11849 2.6898 6.61995L2.3198 7.26995H2.3798C2.16471 7.82152 2.05285 8.40793 2.0498 8.99995V14.9999C2.04981 15.8468 2.27247 16.6788 2.69546 17.4124C3.11845 18.1461 3.72691 18.7556 4.4598 19.1799L9.5798 22.1799C10.1383 22.4977 10.7529 22.7048 11.3898 22.7899V22.8399H11.9798H12.2498H12.7198H12.8598L13.3098 22.7399L13.5098 22.6699C13.6298 22.6699 13.7498 22.5999 13.8698 22.5499C14.0579 22.4701 14.2415 22.3799 14.4198 22.2799L19.5398 19.2799C20.2969 18.8537 20.925 18.2312 21.3579 17.478C21.7908 16.7247 22.0126 15.8687 21.9998 14.9999V8.99995C21.9835 8.79813 21.9535 8.59766 21.9098 8.39995ZM10.3298 3.18995C10.8385 2.89971 11.4141 2.74706 11.9998 2.74706C12.5855 2.74706 13.1611 2.89971 13.6698 3.18995L18.7898 6.18995L19.1798 6.44995L19.2998 6.55995L19.5198 6.75995L14.9998 9.40995L11.9998 11.1299L4.4498 6.75995C4.5215 6.68159 4.59833 6.60809 4.6798 6.53995L4.7898 6.43995L5.1798 6.17995L10.3298 3.18995ZM10.3298 20.7899L5.2098 17.7899C4.71676 17.5067 4.30501 17.1011 4.01426 16.6124C3.7235 16.1238 3.56354 15.5684 3.5498 14.9999V8.99995C3.54598 8.66074 3.59662 8.32311 3.6998 7.99995L11.2598 12.3699L11.3698 21.0899C11.009 21.0479 10.6576 20.9465 10.3298 20.7899ZM20.4498 14.9999C20.4517 15.5837 20.2991 16.1577 20.0076 16.6634C19.716 17.1692 19.2959 17.5889 18.7898 17.8799L13.6698 20.8799C13.4209 21.0288 13.1513 21.14 12.8698 21.2099L12.7598 12.5099L20.2998 8.05995C20.3392 8.1808 20.3693 8.3045 20.3898 8.42995C20.3842 8.46305 20.3842 8.49685 20.3898 8.52995C20.3997 8.68646 20.3997 8.84344 20.3898 8.99995L20.4498 14.9999Z" fill="black"/>
</svg>
