<svg width="24" height="24" viewBox="0 0 24 24" fill="none" xmlns="http://www.w3.org/2000/svg">
<path d="M16.0499 22.75H7.99992C6.22379 22.7474 4.52115 22.0406 3.26523 20.7847C2.00931 19.5288 1.30257 17.8261 1.29992 16.05V8C1.29466 7.11631 1.46399 6.24028 1.79822 5.42222C2.13244 4.60416 2.62497 3.86017 3.24751 3.23298C3.87006 2.60578 4.61036 2.10774 5.42592 1.76745C6.24148 1.42715 7.11622 1.2513 7.99992 1.25H16.0999C17.8761 1.26585 19.5734 1.98528 20.82 3.25059C22.0666 4.51589 22.7606 6.22383 22.7499 8V16.1C22.7341 17.8675 22.0216 19.5573 20.7671 20.8024C19.5126 22.0476 17.8174 22.7474 16.0499 22.75ZM7.99992 2.75C7.30863 2.74332 6.62294 2.87455 5.98296 3.13603C5.34298 3.3975 4.76157 3.78396 4.27273 4.2728C3.78388 4.76165 3.39742 5.34306 3.13595 5.98304C2.87448 6.62301 2.74324 7.3087 2.74992 8V16.1C2.75646 16.7829 2.89744 17.4578 3.16482 18.0862C3.4322 18.7146 3.82074 19.2842 4.30825 19.7624C4.79577 20.2406 5.37271 20.6181 6.00613 20.8734C6.63955 21.1286 7.31704 21.2566 7.99992 21.25H16.0999C17.479 21.25 18.8017 20.7021 19.7769 19.727C20.7521 18.7518 21.2999 17.4291 21.2999 16.05V8C21.2999 6.62087 20.7521 5.29823 19.7769 4.32304C18.8017 3.34786 17.479 2.8 16.0999 2.8L7.99992 2.75ZM13.9999 18.54C13.7339 18.5376 13.4727 18.4688 13.2399 18.34C12.9911 18.2143 12.7814 18.0231 12.6334 17.787C12.4853 17.5508 12.4046 17.2787 12.3999 17V13.77C12.402 13.5045 12.4732 13.2441 12.6065 13.0144C12.7397 12.7847 12.9305 12.5936 13.1599 12.46L15.9999 10.83C16.2305 10.6957 16.4926 10.6249 16.7594 10.6248C17.0263 10.6247 17.2884 10.6953 17.5191 10.8294C17.7497 10.9635 17.9408 11.1564 18.0727 11.3884C18.2046 11.6204 18.2726 11.8832 18.2699 12.15V15.4C18.2698 15.6648 18.2006 15.9249 18.069 16.1547C17.9375 16.3845 17.7482 16.5759 17.5199 16.71L14.6999 18.34C14.4612 18.4721 14.1927 18.5409 13.9199 18.54H13.9999ZM16.4299 11.48L16.8099 12.13L13.9899 13.76V17L16.8399 15.39V12.15L16.4299 11.48ZM10.1599 18.48C9.8924 18.479 9.63 18.4065 9.39992 18.27L6.49992 16.65C6.27153 16.5135 6.0824 16.3202 5.95096 16.0888C5.81952 15.8575 5.75026 15.5961 5.74992 15.33V12.08C5.75101 11.8169 5.82081 11.5587 5.9524 11.3309C6.08399 11.1031 6.2728 10.9137 6.50015 10.7813C6.72749 10.6489 6.98547 10.5783 7.24853 10.5763C7.5116 10.5743 7.77061 10.6411 7.99992 10.77L10.8199 12.39C11.0508 12.5245 11.2425 12.7171 11.3759 12.9487C11.5092 13.1803 11.5796 13.4428 11.5799 13.71V17C11.5747 17.4015 11.4129 17.7851 11.129 18.0691C10.8451 18.353 10.4614 18.5148 10.0599 18.52L10.1599 18.48ZM7.25992 12.06V15.33L10.0699 17V13.74L7.26992 12.07L7.25992 12.06ZM12.1699 11.74C11.9033 11.7425 11.6408 11.6735 11.4099 11.54L8.58992 9.93C8.359 9.79551 8.16733 9.60288 8.03399 9.37129C7.90065 9.13971 7.83029 8.87723 7.82992 8.61C7.82688 8.34344 7.89589 8.08101 8.02967 7.85042C8.16344 7.61984 8.35701 7.42967 8.58992 7.3L11.3999 5.66C11.6295 5.52747 11.8899 5.4577 12.1549 5.4577C12.42 5.4577 12.6804 5.52747 12.9099 5.66L15.7399 7.28C15.9704 7.41359 16.1616 7.60539 16.2946 7.83617C16.4276 8.06696 16.4976 8.32864 16.4976 8.595C16.4976 8.86136 16.4276 9.12303 16.2946 9.35382C16.1616 9.58461 15.9704 9.77641 15.7399 9.91L12.9299 11.54C12.6994 11.6744 12.4367 11.7435 12.1699 11.74ZM12.1699 6.96L9.33992 8.6L12.1699 10.24L14.9999 8.61L12.1699 6.96Z" fill="black"/>
</svg>
