<svg width="24" height="24" viewBox="0 0 24 24" fill="none" xmlns="http://www.w3.org/2000/svg">
<path d="M15.85 13.9H16.26C17.9848 13.8947 19.6371 13.2051 20.8539 11.9827C22.0707 10.7602 22.7527 9.10483 22.75 7.38C22.7466 6.78412 22.5497 6.20547 22.189 5.73115C21.8283 5.25683 21.3233 4.9125 20.75 4.75C20.6601 4.72409 20.5659 4.71622 20.4729 4.72685C20.3799 4.73748 20.2899 4.7664 20.2081 4.81194C20.1263 4.85748 20.0543 4.91874 19.9963 4.99221C19.9383 5.06567 19.8954 5.14988 19.87 5.24C19.8174 5.42299 19.8394 5.61937 19.9313 5.78616C20.0231 5.95296 20.1773 6.07659 20.36 6.13C20.6292 6.20993 20.8654 6.37491 21.033 6.60025C21.2007 6.82558 21.2908 7.09914 21.29 7.38C21.2933 8.56749 20.8797 9.71846 20.1213 10.6322C19.3629 11.546 18.3078 12.1645 17.14 12.38C18.7083 9.87153 19.5046 6.95742 19.43 4C19.4519 3.32826 19.2098 2.67468 18.7556 2.17932C18.3013 1.68396 17.6711 1.38625 17 1.35H7.44001C6.76803 1.38624 6.1368 1.68361 5.68097 2.17867C5.22513 2.67374 4.98077 3.32731 5.00001 4C4.94336 6.98793 5.77518 9.92539 7.39001 12.44C6.12964 12.3378 4.95295 11.7683 4.09081 10.8433C3.22867 9.91825 2.74333 8.70443 2.73001 7.44C2.72704 7.14605 2.82457 6.85991 3.00642 6.62895C3.18828 6.39799 3.44357 6.23607 3.73001 6.17C3.89618 6.10898 4.03406 5.98889 4.11729 5.83265C4.20053 5.67642 4.22329 5.495 4.18123 5.32305C4.13917 5.15109 4.03523 5.00066 3.88928 4.90049C3.74333 4.80031 3.56558 4.75742 3.39001 4.78C2.79398 4.91174 2.2593 5.23944 1.87138 5.71074C1.48346 6.18205 1.26469 6.76976 1.25001 7.38C1.24735 9.10483 1.92931 10.7602 3.14613 11.9827C4.36296 13.2051 6.01518 13.8947 7.74001 13.9H8.62001C9.07007 14.3028 9.57513 14.6395 10.12 14.9C10.1562 14.9173 10.1851 14.9469 10.2016 14.9835C10.218 15.0201 10.221 15.0614 10.21 15.1C9.76162 16.9215 9.06155 18.6717 8.13001 20.3C7.98782 20.5463 7.91297 20.8256 7.91297 21.11C7.91297 21.3944 7.98782 21.6737 8.13001 21.92C8.26595 22.1637 8.46476 22.3664 8.70572 22.5072C8.94668 22.6479 9.22097 22.7214 9.50001 22.72H14.92C15.1938 22.733 15.4663 22.6755 15.7114 22.5529C15.9566 22.4303 16.1661 22.2468 16.32 22.02C16.4513 21.781 16.5201 21.5127 16.5201 21.24C16.5201 20.9673 16.4513 20.699 16.32 20.46C15.5233 18.708 14.91 16.8782 14.49 15C14.4792 14.968 14.4803 14.9331 14.4932 14.9019C14.5061 14.8707 14.5298 14.8451 14.56 14.83C15.0261 14.5734 15.4593 14.2611 15.85 13.9ZM15.06 21.09C15.0886 21.1503 15.1088 21.2142 15.12 21.28C15.0548 21.2995 14.9853 21.2995 14.92 21.28H9.50001C9.47168 21.2803 9.44379 21.273 9.41919 21.2589C9.3946 21.2449 9.37417 21.2245 9.36001 21.2C9.34316 21.173 9.33423 21.1418 9.33423 21.11C9.33423 21.0782 9.34316 21.047 9.36001 21.02C10.3527 19.2743 11.0997 17.3999 11.58 15.45V15.39C11.6483 15.0239 11.593 14.6455 11.4229 14.3143C11.2527 13.983 10.9774 13.7177 10.64 13.56C10.0998 13.284 9.61234 12.915 9.20001 12.47C7.50001 10.65 6.38001 7.43 6.38001 4C6.36353 3.70081 6.46551 3.40716 6.66388 3.18259C6.86226 2.95801 7.14107 2.82057 7.44001 2.8H17C17.2891 2.83279 17.5545 2.97586 17.7407 3.19939C17.927 3.42292 18.0199 3.7097 18 4C18 7.53 16.95 10.69 15.27 12.48C14.877 12.8798 14.4251 13.217 13.93 13.48C13.6178 13.6659 13.3729 13.9464 13.2309 14.2808C13.0888 14.6153 13.057 14.9863 13.14 15.34C13.5826 17.317 14.226 19.2437 15.06 21.09Z" fill="black"/>
</svg>
