<svg width="24" height="25" viewBox="0 0 24 25" fill="none" xmlns="http://www.w3.org/2000/svg">
<path d="M12 23.25C9.87386 23.25 7.79545 22.6195 6.02762 21.4383C4.2598 20.2571 2.88194 18.5782 2.0683 16.6139C1.25466 14.6495 1.04177 12.4881 1.45656 10.4028C1.87135 8.31749 2.89519 6.40202 4.39861 4.89861C5.90202 3.39519 7.81749 2.37135 9.90278 1.95656C11.9881 1.54177 14.1495 1.75466 16.1139 2.5683C18.0782 3.38194 19.7571 4.7598 20.9383 6.52762C22.1195 8.29545 22.75 10.3739 22.75 12.5C22.7474 15.3503 21.6139 18.083 19.5985 20.0985C17.583 22.1139 14.8503 23.2474 12 23.25ZM12 3.25C10.1705 3.25 8.38213 3.79251 6.86098 4.80891C5.33983 5.82531 4.15423 7.26997 3.45412 8.96018C2.75401 10.6504 2.57083 12.5103 2.92774 14.3046C3.28465 16.0989 4.16563 17.7471 5.45927 19.0407C6.7529 20.3344 8.40109 21.2154 10.1954 21.5723C11.9897 21.9292 13.8496 21.746 15.5398 21.0459C17.23 20.3458 18.6747 19.1602 19.6911 17.639C20.7075 16.1179 21.25 14.3295 21.25 12.5C21.2474 10.0476 20.272 7.69633 18.5378 5.96219C16.8037 4.22805 14.4524 3.25265 12 3.25ZM18 13.69H17.19C17.2423 13.4029 17.2691 13.1118 17.27 12.82V12.37C17.2679 11.9732 17.2244 11.5777 17.14 11.19H18C18.1989 11.19 18.3897 11.111 18.5303 10.9703C18.671 10.8297 18.75 10.6389 18.75 10.44C18.75 10.2411 18.671 10.0503 18.5303 9.90967C18.3897 9.76902 18.1989 9.69 18 9.69H16.61C16.1272 8.80018 15.4137 8.05673 14.5445 7.53767C13.6753 7.01862 12.6824 6.74309 11.67 6.74H7.48C7.2819 6.74259 7.09263 6.82244 6.95254 6.96254C6.81244 7.10263 6.73259 7.2919 6.73 7.49V9.69H6C5.80109 9.69 5.61033 9.76902 5.46967 9.90967C5.32902 10.0503 5.25 10.2411 5.25 10.44C5.25 10.6389 5.32902 10.8297 5.46967 10.9703C5.61033 11.111 5.80109 11.19 6 11.19H6.75V13.69H6C5.80109 13.69 5.61033 13.769 5.46967 13.9097C5.32902 14.0503 5.25 14.2411 5.25 14.44C5.25 14.6389 5.32902 14.8297 5.46967 14.9703C5.61033 15.111 5.80109 15.19 6 15.19H6.75V17.51C6.75259 17.7081 6.83244 17.8974 6.97254 18.0375C7.11263 18.1776 7.3019 18.2574 7.5 18.26H11.88C12.8994 18.2569 13.8973 17.9674 14.7601 17.4246C15.623 16.8818 16.3159 16.1075 16.76 15.19H18C18.1989 15.19 18.3897 15.111 18.5303 14.9703C18.671 14.8297 18.75 14.6389 18.75 14.44C18.75 14.2411 18.671 14.0503 18.5303 13.9097C18.3897 13.769 18.1989 13.69 18 13.69ZM8.23 8.24H11.67C12.261 8.24212 12.8445 8.37293 13.3798 8.62333C13.9152 8.87374 14.3896 9.23773 14.77 9.69H8.23V8.24ZM8.23 11.19H15.6C15.7205 11.572 15.7845 11.9695 15.79 12.37V12.82C15.7875 13.1127 15.754 13.4044 15.69 13.69H8.23V11.19ZM11.86 16.76H8.23V15.19H15C14.6336 15.6766 14.1594 16.0716 13.6145 16.3441C13.0697 16.6165 12.4691 16.7588 11.86 16.76Z" fill="black"/>
</svg>
