<svg width="24" height="24" viewBox="0 0 24 24" fill="none" xmlns="http://www.w3.org/2000/svg">
<path d="M15.25 5.75C15.25 6.28043 15.4607 6.78914 15.8358 7.16421C16.2109 7.53929 16.7196 7.75 17.25 7.75H20.67C21.2004 7.75 21.7091 7.53929 22.0842 7.16421C22.4593 6.78914 22.67 6.28043 22.67 5.75V4.29C22.67 3.75957 22.4593 3.25086 22.0842 2.87579C21.7091 2.50071 21.2004 2.29 20.67 2.29H17.29C16.7596 2.29 16.2509 2.50071 15.8758 2.87579C15.5007 3.25086 15.29 3.75957 15.29 4.29H9.75V4.08C9.75 3.32944 9.45184 2.60962 8.92111 2.07889C8.39038 1.54816 7.67056 1.25 6.92 1.25H4.08C3.32944 1.25 2.60962 1.54816 2.07889 2.07889C1.54816 2.60962 1.25 3.32944 1.25 4.08V5.92C1.25 6.67056 1.54816 7.39038 2.07889 7.92111C2.60962 8.45184 3.32944 8.75 4.08 8.75H6.92C7.67056 8.75 8.39038 8.45184 8.92111 7.92111C9.45184 7.39038 9.75 6.67056 9.75 5.92V5.75H11.75V17.82C11.75 18.5971 12.0587 19.3423 12.6082 19.8918C13.1577 20.4413 13.9029 20.75 14.68 20.75H15.25C15.25 21.2804 15.4607 21.7891 15.8358 22.1642C16.2109 22.5393 16.7196 22.75 17.25 22.75H20.67C21.2004 22.75 21.7091 22.5393 22.0842 22.1642C22.4593 21.7891 22.67 21.2804 22.67 20.75V19.29C22.67 18.7596 22.4593 18.2509 22.0842 17.8758C21.7091 17.5007 21.2004 17.29 20.67 17.29H17.29C16.7596 17.29 16.2509 17.5007 15.8758 17.8758C15.5007 18.2509 15.29 18.7596 15.29 19.29H14.72C14.3407 19.29 13.977 19.1393 13.7088 18.8712C13.4407 18.603 13.29 18.2393 13.29 17.86V13.25H15.29C15.29 13.7804 15.5007 14.2891 15.8758 14.6642C16.2509 15.0393 16.7596 15.25 17.29 15.25H20.71C21.2404 15.25 21.7491 15.0393 22.1242 14.6642C22.4993 14.2891 22.71 13.7804 22.71 13.25V11.79C22.71 11.2596 22.4993 10.7509 22.1242 10.3758C21.7491 10.0007 21.2404 9.79 20.71 9.79H17.29C16.7596 9.79 16.2509 10.0007 15.8758 10.3758C15.5007 10.7509 15.29 11.2596 15.29 11.79H13.29V5.79L15.25 5.75ZM16.75 4.29C16.75 4.14678 16.8069 4.00943 16.9082 3.90816C17.0094 3.80689 17.1468 3.75 17.29 3.75H20.71C20.8532 3.75 20.9906 3.80689 21.0918 3.90816C21.1931 4.00943 21.25 4.14678 21.25 4.29V5.71C21.25 5.85322 21.1931 5.99057 21.0918 6.09184C20.9906 6.19311 20.8532 6.25 20.71 6.25H17.29C17.1468 6.25 17.0094 6.19311 16.9082 6.09184C16.8069 5.99057 16.75 5.85322 16.75 5.71V4.29ZM8.25 5.92C8.24738 6.27193 8.10642 6.6087 7.85756 6.85756C7.6087 7.10642 7.27193 7.24738 6.92 7.25H4.08C3.72807 7.24738 3.3913 7.10642 3.14244 6.85756C2.89358 6.6087 2.75262 6.27193 2.75 5.92V4.08C2.75262 3.72807 2.89358 3.3913 3.14244 3.14244C3.3913 2.89358 3.72807 2.75262 4.08 2.75H6.92C7.27193 2.75262 7.6087 2.89358 7.85756 3.14244C8.10642 3.3913 8.24738 3.72807 8.25 4.08V5.92ZM16.75 19.29C16.75 19.1468 16.8069 19.0094 16.9082 18.9082C17.0094 18.8069 17.1468 18.75 17.29 18.75H20.71C20.8532 18.75 20.9906 18.8069 21.0918 18.9082C21.1931 19.0094 21.25 19.1468 21.25 19.29V20.71C21.25 20.8532 21.1931 20.9906 21.0918 21.0918C20.9906 21.1931 20.8532 21.25 20.71 21.25H17.29C17.1468 21.25 17.0094 21.1931 16.9082 21.0918C16.8069 20.9906 16.75 20.8532 16.75 20.71V19.29ZM16.75 11.79C16.75 11.6468 16.8069 11.5094 16.9082 11.4082C17.0094 11.3069 17.1468 11.25 17.29 11.25H20.71C20.8532 11.25 20.9906 11.3069 21.0918 11.4082C21.1931 11.5094 21.25 11.6468 21.25 11.79V13.21C21.25 13.3532 21.1931 13.4906 21.0918 13.5918C20.9906 13.6931 20.8532 13.75 20.71 13.75H17.29C17.1468 13.75 17.0094 13.6931 16.9082 13.5918C16.8069 13.4906 16.75 13.3532 16.75 13.21V11.79Z" fill="black"/>
</svg>
