<svg width="24" height="24" viewBox="0 0 24 24" fill="none" xmlns="http://www.w3.org/2000/svg">
<path d="M22.58 10C22.5904 9.92704 22.5904 9.85296 22.58 9.78V8.57C22.4885 6.88943 21.7604 5.30679 20.5437 4.14393C19.327 2.98107 17.713 2.32531 16.03 2.31H10.52C10.2603 1.98018 9.92918 1.71346 9.55162 1.52988C9.17406 1.3463 8.75983 1.25061 8.34 1.25H6.18C4.87248 1.25 3.61852 1.76941 2.69396 2.69396C1.76941 3.61852 1.25 4.87248 1.25 6.18V17.07C1.25 18.5764 1.84843 20.0212 2.91363 21.0864C3.97884 22.1516 5.42357 22.75 6.93 22.75H17.07C18.5764 22.75 20.0212 22.1516 21.0864 21.0864C22.1516 20.0212 22.75 18.5764 22.75 17.07V11.35C22.7487 10.8947 22.6916 10.4414 22.58 10ZM20.7 7C19.6808 6.15157 18.3961 5.68794 17.07 5.69H13.89C13.3291 5.68921 12.7816 5.51878 12.3193 5.2011C11.8571 4.88342 11.5018 4.43334 11.3 3.91V3.84H16.1C17.0924 3.85637 18.058 4.16483 18.8762 4.72685C19.6943 5.28886 20.3287 6.07951 20.7 7ZM21.22 17.09C21.22 18.1906 20.7828 19.2462 20.0045 20.0245C19.2262 20.8028 18.1706 21.24 17.07 21.24H6.93C5.82935 21.24 4.77378 20.8028 3.99551 20.0245C3.21723 19.2462 2.78 18.1906 2.78 17.09V6.18C2.78 5.27826 3.13821 4.41346 3.77584 3.77584C4.41346 3.13821 5.27826 2.78 6.18 2.78H8.34C8.5934 2.77782 8.84138 2.85333 9.05057 2.99636C9.25975 3.13939 9.42009 3.34308 9.51 3.58L9.87 4.48C10.1881 5.28151 10.7394 5.96916 11.4524 6.45406C12.1655 6.93895 13.0077 7.1988 13.87 7.2H17.05C18.1506 7.2 19.2062 7.63723 19.9845 8.41551C20.7628 9.19378 21.2 10.2494 21.2 11.35L21.22 17.09ZM14.42 15.54C14.3498 15.6157 14.2647 15.6761 14.17 15.7174C14.0754 15.7587 13.9733 15.78 13.87 15.78C13.673 15.7804 13.4833 15.7052 13.34 15.57L12.13 14.41L11 15.61C10.8578 15.7111 10.6855 15.7608 10.5113 15.7511C10.3371 15.7414 10.1713 15.6729 10.0412 15.5567C9.91103 15.4405 9.82421 15.2835 9.79493 15.1115C9.76564 14.9396 9.79564 14.7627 9.88 14.61L11 13.33L9.8 12.16C9.72741 12.09 9.66968 12.0062 9.63024 11.9134C9.59081 11.8206 9.57048 11.7208 9.57048 11.62C9.57048 11.5192 9.59081 11.4194 9.63024 11.3266C9.66968 11.2338 9.72741 11.15 9.8 11.08C9.87067 11.0086 9.95477 10.952 10.0475 10.9133C10.1401 10.8747 10.2396 10.8548 10.34 10.8548C10.4404 10.8548 10.5399 10.8747 10.6325 10.9133C10.7252 10.952 10.8093 11.0086 10.88 11.08L12.09 12.24L13.21 11C13.3522 10.8989 13.5245 10.8492 13.6987 10.8589C13.8729 10.8686 14.0387 10.9371 14.1688 11.0533C14.299 11.1695 14.3858 11.3265 14.4151 11.4985C14.4444 11.6704 14.4144 11.8473 14.33 12L13.18 13.23L14.4 14.4C14.4802 14.4689 14.545 14.5541 14.59 14.6498C14.635 14.7456 14.6593 14.8497 14.6612 14.9555C14.6631 15.0613 14.6425 15.1663 14.601 15.2636C14.5594 15.3608 14.4977 15.4482 14.42 15.52V15.54Z" fill="black"/>
</svg>
