<svg width="24" height="24" viewBox="0 0 24 24" fill="none" xmlns="http://www.w3.org/2000/svg">
<path d="M22.8901 10.49C22.8956 10.4435 22.8956 10.3965 22.8901 10.35C22.9201 10.2252 22.9184 10.0949 22.8853 9.97085C22.8521 9.84685 22.7884 9.73312 22.7001 9.63999L14.7001 1.63999C14.6333 1.58102 14.5594 1.53063 14.4801 1.48999H14.4101C14.3437 1.48055 14.2764 1.48055 14.2101 1.48999H7.73008C6.01876 1.53205 4.38563 2.21519 3.15407 3.40416C1.92251 4.59312 1.18232 6.20121 1.08008 7.90999V12.8C1.08008 12.9989 1.1591 13.1897 1.29975 13.3303C1.4404 13.471 1.63117 13.55 1.83008 13.55C2.02899 13.55 2.21976 13.471 2.36041 13.3303C2.50106 13.1897 2.58008 12.9989 2.58008 12.8V7.99999C2.64225 6.66072 3.20685 5.39407 4.16134 4.45256C5.11583 3.51104 6.39009 2.96382 7.73008 2.91999H13.3901V6.91999C13.3901 7.98085 13.8115 8.99827 14.5617 9.74841C15.3118 10.4986 16.3292 10.92 17.3901 10.92H21.3901V16.21C21.3901 17.4999 20.8784 18.7371 19.9672 19.6501C19.0561 20.5631 17.82 21.0773 16.5301 21.08H10.0001C9.80117 21.08 9.6104 21.159 9.46975 21.2997C9.3291 21.4403 9.25008 21.6311 9.25008 21.83C9.25008 22.0289 9.3291 22.2197 9.46975 22.3603C9.6104 22.501 9.80117 22.58 10.0001 22.58H16.5601C18.2478 22.5773 19.8654 21.905 21.0579 20.7107C22.2503 19.5164 22.9201 17.8977 22.9201 16.21L22.8901 10.49ZM17.4301 9.41999C16.7582 9.41999 16.1136 9.15376 15.6376 8.67958C15.1615 8.2054 14.8927 7.5619 14.8901 6.88999V3.99999L20.3301 9.43999L17.4301 9.41999ZM6.12008 19.55H2.12008C1.92025 19.5474 1.7295 19.4661 1.58913 19.3239C1.44876 19.1816 1.37006 18.9898 1.37008 18.79C1.36468 18.689 1.37975 18.588 1.41439 18.493C1.44903 18.398 1.50252 18.311 1.57164 18.2372C1.64076 18.1634 1.72409 18.1044 1.81662 18.0636C1.90915 18.0228 2.00897 18.0012 2.11008 18H6.11008C6.30991 18.0026 6.50065 18.0838 6.64103 18.2261C6.7814 18.3683 6.8601 18.5601 6.86008 18.76C6.86548 18.861 6.85041 18.962 6.81577 19.057C6.78113 19.152 6.72764 19.239 6.65852 19.3128C6.58939 19.3866 6.50606 19.4456 6.41353 19.4864C6.321 19.5271 6.22118 19.5488 6.12008 19.55Z" fill="black"/>
</svg>
