<svg width="24" height="24" viewBox="0 0 24 24" fill="none" xmlns="http://www.w3.org/2000/svg">
<path d="M10.0001 11.81H15.7601C16.067 11.81 16.3708 11.7494 16.6541 11.6317C16.9375 11.514 17.1948 11.3415 17.4113 11.1241C17.6277 10.9066 17.7992 10.6486 17.9157 10.3647C18.0322 10.0809 18.0915 9.77685 18.0901 9.47003V4.47003C18.0915 4.16321 18.0322 3.85915 17.9157 3.5753C17.7992 3.29146 17.6277 3.03342 17.4113 2.816C17.1948 2.59858 16.9375 2.42606 16.6541 2.30834C16.3708 2.19062 16.067 2.13002 15.7601 2.13003H10.0001C9.69164 2.12869 9.38593 2.18864 9.10077 2.30639C8.81561 2.42414 8.55668 2.59735 8.33899 2.81596C8.12131 3.03458 7.9492 3.29425 7.83267 3.57991C7.71614 3.86557 7.6575 4.17152 7.66015 4.48003V9.48003C7.66014 9.78685 7.72074 10.0907 7.83846 10.374C7.95618 10.6573 8.1287 10.9146 8.34612 11.1311C8.56354 11.3476 8.82158 11.519 9.10542 11.6355C9.38927 11.752 9.69333 11.8113 10.0001 11.81ZM13.7301 3.64003V4.87003C13.7301 4.99203 13.6817 5.10903 13.5954 5.1953C13.5091 5.28156 13.3921 5.33003 13.2701 5.33003H12.4901C12.4273 5.33414 12.3642 5.32528 12.3049 5.30401C12.2456 5.28274 12.1912 5.24951 12.1453 5.20638C12.0994 5.16325 12.0628 5.11114 12.0378 5.05328C12.0128 4.99542 12 4.93304 12.0001 4.87003V3.64003H13.7301ZM9.17015 4.48003C9.17013 4.25897 9.25726 4.04681 9.41263 3.88956C9.56801 3.73232 9.7791 3.64266 10.0001 3.64003H10.5301V4.87003C10.5301 5.40046 10.7409 5.90917 11.1159 6.28424C11.491 6.65931 11.9997 6.87003 12.5301 6.87003H13.3101C13.8406 6.87003 14.3493 6.65931 14.7244 6.28424C15.0994 5.90917 15.3101 5.40046 15.3101 4.87003V3.64003H15.8401C16.0612 3.64266 16.2723 3.73232 16.4277 3.88956C16.583 4.04681 16.6702 4.25897 16.6701 4.48003V9.48003C16.6702 9.70109 16.583 9.91324 16.4277 10.0705C16.2723 10.2277 16.0612 10.3174 15.8401 10.32H10.0001C9.7791 10.3174 9.56801 10.2277 9.41263 10.0705C9.25726 9.91324 9.17013 9.70109 9.17015 9.48003V4.48003ZM22.3901 11.37C22.0876 11.018 21.6683 10.7869 21.2091 10.7189C20.75 10.651 20.2817 10.7508 19.8901 11L15.7601 13.95C15.7007 13.9896 15.6497 14.0406 15.6101 14.1C15.3529 13.888 15.0526 13.7345 14.7301 13.65L8.26015 12C8.09343 11.9582 7.92202 11.938 7.75015 11.94C7.1576 11.8996 6.5642 12.0052 6.02197 12.2476C5.47975 12.4899 5.00527 12.8616 4.64015 13.33C3.70015 14.38 2.55015 15.59 1.78015 16.4C1.59197 16.5904 1.44392 16.8167 1.3448 17.0654C1.24567 17.314 1.19748 17.5801 1.20307 17.8477C1.20867 18.1154 1.26794 18.3792 1.37737 18.6235C1.4868 18.8678 1.64417 19.0877 1.84015 19.27L3.57015 20.94C3.75607 21.1275 3.97728 21.2763 4.22099 21.3778C4.46471 21.4793 4.72612 21.5316 4.99015 21.5316C5.25417 21.5316 5.51558 21.4793 5.7593 21.3778C6.00302 21.2763 6.22422 21.1275 6.41015 20.94C6.65015 20.71 6.79015 20.59 6.87015 20.52C7.58015 20.58 10.2401 21.18 12.4501 21.73C12.7745 21.8271 13.1116 21.8743 13.4501 21.87C13.68 21.8739 13.9092 21.8436 14.1301 21.78C14.7098 21.562 15.2352 21.2208 15.6701 20.78L22.2401 14.07C22.5607 13.6998 22.7485 13.2331 22.7738 12.7441C22.7992 12.255 22.6607 11.7715 22.3801 11.37H22.3901ZM21.0701 13.11L14.5801 19.74C14.3204 19.9873 14.0191 20.187 13.6901 20.33C13.4165 20.3881 13.1338 20.3881 12.8601 20.33C10.8609 19.7033 8.80931 19.2582 6.73015 19C6.58221 18.9873 6.43359 19.0149 6.30015 19.08C5.94875 19.2823 5.63151 19.5388 5.36015 19.84C5.31092 19.8893 5.25247 19.9284 5.18812 19.9551C5.12378 19.9818 5.0548 19.9955 4.98515 19.9955C4.91549 19.9955 4.84652 19.9818 4.78217 19.9551C4.71783 19.9284 4.65937 19.8893 4.61015 19.84L2.88015 18.2C2.78168 18.096 2.72681 17.9582 2.72681 17.815C2.72681 17.6718 2.78168 17.534 2.88015 17.43C3.67015 16.61 4.82015 15.43 5.77015 14.33C5.98105 14.0355 6.26325 13.7994 6.59032 13.6438C6.91738 13.4881 7.2786 13.418 7.64015 13.44H7.75015C7.80291 13.429 7.85739 13.429 7.91015 13.44L14.3801 15.07C14.4784 15.0927 14.5709 15.1356 14.6518 15.1958C14.7327 15.256 14.8002 15.3324 14.8501 15.42C14.9036 15.5112 14.9374 15.6126 14.9495 15.7176C14.9615 15.8227 14.9515 15.9291 14.9201 16.03C14.88 16.1842 14.7812 16.3165 14.6447 16.3987C14.5083 16.4809 14.3452 16.5065 14.1901 16.47L11.3501 15.74C11.2536 15.717 11.1535 15.7133 11.0556 15.729C10.9576 15.7447 10.8637 15.7796 10.7792 15.8316C10.6947 15.8836 10.6212 15.9517 10.5631 16.0321C10.5049 16.1125 10.4631 16.2035 10.4401 16.3C10.4172 16.3965 10.4134 16.4967 10.4291 16.5946C10.4448 16.6926 10.4797 16.7865 10.5317 16.871C10.5837 16.9555 10.6518 17.0289 10.7322 17.0871C10.8126 17.1453 10.9036 17.187 11.0001 17.21L13.8301 17.94C14.368 18.0694 14.935 17.9854 15.4123 17.7057C15.8896 17.4261 16.24 16.9725 16.3901 16.44C16.4901 16.0564 16.4901 15.6536 16.3901 15.27C16.4868 15.2471 16.5784 15.2064 16.6601 15.15L20.6601 12.25C20.7465 12.1961 20.8491 12.1746 20.9498 12.1892C21.0505 12.2039 21.1428 12.2538 21.2101 12.33C21.4001 12.53 21.1301 13 21.0601 13.11H21.0701Z" fill="black"/>
</svg>
