<svg width="24" height="24" viewBox="0 0 24 24" fill="none" xmlns="http://www.w3.org/2000/svg">
<path d="M12.4702 22.2901C11.1163 22.1962 9.81021 21.7517 8.68021 21.0001C5.99993 19.3991 3.79703 17.1099 2.30021 14.3701C0.900214 11.6301 1.00021 9.57008 2.63021 8.07008C3.08491 7.60413 3.69165 7.31673 4.34021 7.26008C4.68769 7.22025 5.03953 7.27224 5.36064 7.41086C5.68175 7.54948 5.96089 7.76989 6.17021 8.05008L8.08021 10.9301C8.14815 11.1136 8.19186 11.3052 8.21021 11.5001C8.23755 11.8545 8.14222 12.2076 7.94021 12.5001L7.16021 13.4101C8.00639 14.5732 9.04057 15.5871 10.2202 16.4101C10.501 16.1356 10.7982 15.8784 11.1102 15.6401C11.3512 15.4798 11.6288 15.3829 11.9173 15.3584C12.2057 15.334 12.4956 15.3827 12.7602 15.5001L12.8802 15.5701L15.6702 17.5001C15.8557 17.6727 16.0232 17.8637 16.1702 18.0701C16.3867 18.5333 16.4258 19.0599 16.2802 19.5501C16.1676 19.9909 15.9646 20.4034 15.684 20.7615C15.4033 21.1196 15.0513 21.4154 14.6502 21.6301C13.9969 22.0439 13.2433 22.272 12.4702 22.2901ZM4.68021 8.72008C4.49192 8.7245 4.30643 8.76659 4.13468 8.84388C3.96292 8.92117 3.8084 9.03209 3.68021 9.17008C2.95021 9.85008 2.28021 10.9801 3.68021 13.6901C5.04132 16.1701 7.04023 18.2415 9.47021 19.6901C11.5702 20.8901 12.7302 21.0701 13.9302 20.3801C14.2276 20.2498 14.4805 20.0358 14.6581 19.764C14.8357 19.4923 14.9303 19.1747 14.9302 18.8501L14.7602 18.6701L12.1102 16.9001H12.0002C11.7302 17.1001 11.2602 17.5601 11.1002 17.7101C10.9346 17.8893 10.7146 18.0089 10.4742 18.0505C10.2338 18.092 9.98637 18.0532 9.77022 17.9401C8.17313 16.8995 6.81076 15.5372 5.77021 13.9401C5.64579 13.7306 5.59586 13.4852 5.62854 13.2437C5.66122 13.0023 5.77458 12.779 5.95021 12.6101C6.15021 12.3901 6.81021 11.6101 6.81021 11.6101C6.80381 11.5872 6.80381 11.563 6.81021 11.5401L4.93021 8.90008C4.86613 8.81708 4.77926 8.75453 4.68021 8.72008ZM10.0002 16.6401C10.0002 16.6401 10.0002 16.6601 10.0002 16.6401V16.6401ZM12.4202 12.2801H10.7702C11.7702 11.2801 12.5802 10.4201 12.5802 9.34008C12.5895 9.09693 12.5471 8.85458 12.4559 8.62902C12.3646 8.40347 12.2265 8.19985 12.0507 8.03162C11.8749 7.86338 11.6654 7.73436 11.436 7.65308C11.2067 7.57179 10.9627 7.5401 10.7202 7.56008C10.1182 7.55823 9.53454 7.76694 9.07021 8.15008C9.02643 8.18932 8.9961 8.24134 8.98354 8.29878C8.97097 8.35621 8.97681 8.41615 9.00021 8.47008L9.23021 9.00008C9.24402 9.03892 9.26802 9.07333 9.29968 9.09972C9.33135 9.12611 9.36952 9.1435 9.41021 9.15008C9.44637 9.16636 9.48556 9.17479 9.52521 9.17479C9.56486 9.17479 9.60406 9.16636 9.64021 9.15008C9.90082 8.91956 10.2326 8.78543 10.5802 8.77008C10.6826 8.75532 10.787 8.76445 10.8852 8.79676C10.9834 8.82907 11.0729 8.88369 11.1465 8.95633C11.2201 9.02897 11.2759 9.11767 11.3095 9.21547C11.3431 9.31328 11.3536 9.41753 11.3402 9.52008C11.3402 10.1801 10.7902 10.8101 9.48021 12.0601L8.93021 12.6001C8.90232 12.6233 8.87981 12.6523 8.86427 12.6852C8.84873 12.718 8.84052 12.7538 8.84021 12.7901V13.2201C8.8427 13.2909 8.87195 13.3581 8.92205 13.4082C8.97216 13.4583 9.0394 13.4876 9.11021 13.4901H12.4402C12.5118 13.4901 12.5805 13.4616 12.6311 13.411C12.6818 13.3604 12.7102 13.2917 12.7102 13.2201V12.6401C12.7251 12.5981 12.7294 12.5531 12.7227 12.509C12.716 12.465 12.6985 12.4233 12.6718 12.3876C12.6451 12.352 12.6099 12.3235 12.5695 12.3047C12.5291 12.286 12.4847 12.2775 12.4402 12.2801H12.4202ZM17.6902 10.8901H17.2302V7.89008C17.2241 7.83015 17.1982 7.77398 17.1565 7.73049C17.1149 7.687 17.0598 7.6587 17.0002 7.65008H16.2302C16.1876 7.65046 16.1456 7.66057 16.1075 7.67963C16.0694 7.69869 16.0361 7.72621 16.0102 7.76008L13.6902 11.0901C13.6587 11.1376 13.6413 11.1931 13.6402 11.2501V11.7101C13.6402 11.7817 13.6687 11.8504 13.7193 11.901C13.7699 11.9516 13.8386 11.9801 13.9102 11.9801H16.0002V13.1301C16.0002 13.2017 16.0287 13.2704 16.0793 13.321C16.1299 13.3716 16.1986 13.4001 16.2702 13.4001H17.0002C17.0718 13.4001 17.1405 13.3716 17.1911 13.321C17.2418 13.2704 17.2702 13.2017 17.2702 13.1301V12.0001H17.7302C17.8018 12.0001 17.8705 11.9716 17.9211 11.921C17.9718 11.8704 18.0002 11.8017 18.0002 11.7301V11.1801C18.0032 11.1412 17.9978 11.1022 17.9843 11.0656C17.9708 11.0291 17.9495 10.9959 17.9219 10.9684C17.8944 10.9408 17.8612 10.9195 17.8246 10.906C17.7881 10.8925 17.7491 10.8871 17.7102 10.8901H17.6902ZM16.0202 10.8901H15.1002L16.0002 9.60008L16.0202 10.8901Z" fill="black"/>
<path d="M19.1605 18.6201C19.0594 18.6212 18.9593 18.6013 18.8663 18.5617C18.7734 18.5221 18.6896 18.4637 18.6205 18.39C18.48 18.2494 18.4011 18.0588 18.4011 17.8601C18.4011 17.6613 18.48 17.4707 18.6205 17.33C19.4235 16.5679 20.0621 15.6496 20.4972 14.6315C20.9323 13.6134 21.1546 12.5172 21.1505 11.41C21.1479 9.24471 20.29 7.16807 18.7635 5.63226C17.2371 4.09646 15.1657 3.22587 13.0005 3.21005C11.8775 3.19752 10.7643 3.41863 9.73135 3.85934C8.69844 4.30005 7.76846 4.95073 7.00045 5.77005C6.86055 5.87903 6.68655 5.93492 6.50935 5.92778C6.33215 5.92063 6.16321 5.85093 6.03253 5.73104C5.90185 5.61115 5.81788 5.44883 5.79553 5.2729C5.77318 5.09696 5.8139 4.91881 5.91045 4.77005C7.2465 3.36473 8.97307 2.3921 10.8673 1.97767C12.7616 1.56325 14.7366 1.72606 16.5374 2.44509C18.3382 3.16413 19.8822 4.40638 20.97 6.01151C22.0579 7.61665 22.6398 9.51099 22.6405 11.45C22.6449 12.7599 22.3811 14.0567 21.8651 15.2606C21.3491 16.4645 20.592 17.55 19.6405 18.4501C19.506 18.5625 19.3357 18.6228 19.1605 18.6201Z" fill="black"/>
</svg>
