<svg width="24" height="24" viewBox="0 0 24 24" fill="none" xmlns="http://www.w3.org/2000/svg">
<path d="M10.6702 7.99996C10.7593 8.33398 10.9562 8.62925 11.2302 8.83996C11.1155 9.19764 11.1155 9.58228 11.2302 9.93996L12.4502 14.23C12.5621 14.6166 12.7958 14.9568 13.1165 15.2C13.4372 15.4432 13.8278 15.5765 14.2302 15.58C14.3991 15.577 14.567 15.5535 14.7302 15.51L19.2202 14.23C19.695 14.0959 20.0976 13.7796 20.3402 13.35C20.46 13.1376 20.5358 12.9034 20.5633 12.6612C20.5908 12.419 20.5693 12.1737 20.5002 11.94L19.2602 7.64996C19.154 7.28442 18.9376 6.96055 18.6405 6.72253C18.3434 6.48451 17.9801 6.34393 17.6002 6.31996C17.5963 6.21169 17.5795 6.10428 17.5502 5.99996L16.5502 2.41996C16.4914 2.2097 16.3916 2.01311 16.2567 1.84146C16.1217 1.66981 15.9543 1.52647 15.7638 1.41964C15.5734 1.31282 15.3638 1.24461 15.1469 1.21892C14.9301 1.19324 14.7103 1.21058 14.5002 1.26996L10.8102 2.26996C10.3856 2.39076 10.026 2.67479 9.81023 3.05996C9.6002 3.44899 9.54999 3.90453 9.67023 4.32996L10.6702 7.99996ZM17.8202 8.05996L19.0002 12.35C19.0248 12.4414 19.0124 12.5389 18.9656 12.6213C18.9188 12.7037 18.8414 12.7643 18.7502 12.79L14.3002 14.06C14.2496 14.0789 14.1947 14.0833 14.1417 14.0727C14.0887 14.0621 14.0397 14.0369 14.0002 14C13.9583 13.9795 13.9213 13.9501 13.892 13.9138C13.8626 13.8775 13.8415 13.8352 13.8302 13.79L12.6502 9.52996C12.6306 9.48767 12.6204 9.4416 12.6204 9.39496C12.6204 9.34832 12.6306 9.30225 12.6502 9.25996C12.6964 9.18509 12.7671 9.12854 12.8502 9.09996L13.8502 8.80996L14.1202 9.80996C14.1759 9.98903 14.2984 10.1398 14.4622 10.231C14.626 10.3223 14.8187 10.3469 15.0002 10.3L16.1402 9.99996C16.2303 9.97461 16.3146 9.93169 16.388 9.87367C16.4615 9.81565 16.5228 9.74368 16.5683 9.66189C16.6138 9.5801 16.6428 9.49012 16.6534 9.39711C16.664 9.30411 16.6561 9.20992 16.6302 9.11996L16.3602 8.11996H16.4302L17.3802 7.84996H17.4802C17.5511 7.84874 17.6208 7.86789 17.681 7.90511C17.7413 7.94234 17.7896 7.99608 17.8202 8.05996ZM11.1102 3.87996C11.1302 3.84375 11.1619 3.8155 11.2002 3.79996L12.0002 3.56996L12.2002 4.24996C12.2199 4.32458 12.2542 4.39452 12.3013 4.4557C12.3483 4.51687 12.407 4.56805 12.4741 4.60623C12.5411 4.64441 12.6151 4.66883 12.6917 4.67806C12.7684 4.68728 12.846 4.68113 12.9202 4.65996L13.8002 4.40996C13.9488 4.36356 14.074 4.26212 14.1502 4.12641C14.2265 3.9907 14.2479 3.83098 14.2102 3.67996L14.0502 2.99996L14.8902 2.76996C14.9269 2.77244 14.9621 2.78495 14.9921 2.80611C15.0221 2.82728 15.0456 2.85629 15.0602 2.88996L16.0602 6.46996C16.0663 6.49031 16.0683 6.51168 16.0661 6.53281C16.0638 6.55394 16.0574 6.57441 16.0472 6.59303C16.0369 6.61164 16.0231 6.62804 16.0064 6.64125C15.9898 6.65445 15.9707 6.66422 15.9502 6.66996L12.4302 7.66996H12.2802C12.2392 7.67971 12.196 7.67385 12.159 7.65352C12.1221 7.63319 12.094 7.59984 12.0802 7.55996L11.0902 3.99996C11.0819 3.95886 11.089 3.91612 11.1102 3.87996ZM6.21023 4.08996C6.15314 4.19463 6.07467 4.28611 5.97991 4.35847C5.88515 4.43083 5.77624 4.48244 5.66023 4.50996L3.15023 5.14996C3.03727 5.17826 2.91982 5.18387 2.80468 5.16644C2.68953 5.14902 2.579 5.10891 2.47947 5.04845C2.37994 4.98799 2.2934 4.90838 2.22487 4.81422C2.15634 4.72007 2.10718 4.61325 2.08023 4.49996L2.00023 4.25996C1.97182 4.14636 1.9661 4.02827 1.98341 3.91246C2.00071 3.79665 2.0407 3.68539 2.10109 3.58506C2.16147 3.48473 2.24106 3.3973 2.33529 3.32779C2.42953 3.25827 2.53655 3.20804 2.65023 3.17996L5.16023 2.54996C5.27286 2.5204 5.39032 2.51402 5.50549 2.53121C5.62066 2.5484 5.73114 2.5888 5.83023 2.64996L7.14023 2.28996C7.33117 2.23767 7.53503 2.26299 7.70737 2.3604C7.87971 2.45781 8.00655 2.61941 8.06023 2.80996L11.1402 13.94C11.1926 14.1282 11.1684 14.3296 11.0728 14.5001C10.9773 14.6706 10.8182 14.7964 10.6302 14.85H10.4302C10.2667 14.8493 10.1078 14.7953 9.9778 14.696C9.84781 14.5967 9.75385 14.4576 9.71023 14.3L6.83023 3.91996L6.21023 4.08996ZM21.4702 15.94L15.2702 17.66H15.0702C14.9067 17.6593 14.7478 17.6053 14.6178 17.506C14.4878 17.4067 14.3939 17.2676 14.3502 17.11C14.3245 17.0161 14.3175 16.918 14.3297 16.8214C14.3419 16.7248 14.3731 16.6316 14.4214 16.547C14.4697 16.4625 14.5342 16.3883 14.6112 16.3288C14.6882 16.2692 14.7763 16.2254 14.8702 16.2L21.0702 14.48C21.1641 14.4537 21.2623 14.4462 21.3591 14.4579C21.4559 14.4695 21.5494 14.5001 21.6344 14.548C21.7194 14.5958 21.7941 14.6599 21.8543 14.7366C21.9145 14.8133 21.959 14.9011 21.9852 14.995C22.0115 15.0889 22.019 15.187 22.0073 15.2838C21.9957 15.3806 21.9651 15.4742 21.9172 15.5591C21.8694 15.6441 21.8053 15.7188 21.7286 15.779C21.6519 15.8392 21.5641 15.8837 21.4702 15.91V15.94ZM19.8102 20.51H11.3002C11.8836 20.48 12.4322 20.2233 12.829 19.7947C13.2258 19.366 13.4395 18.7993 13.4245 18.2154C13.4095 17.6315 13.167 17.0765 12.7487 16.6688C12.3304 16.2611 11.7694 16.0329 11.1852 16.0329C10.6011 16.0329 10.0401 16.2611 9.62178 16.6688C9.20347 17.0765 8.96097 17.6315 8.94597 18.2154C8.93097 18.7993 9.14466 19.366 9.54149 19.7947C9.93831 20.2233 10.4869 20.48 11.0702 20.51H7.49023C7.29306 20.5126 7.10485 20.5928 6.96636 20.7331C6.82786 20.8735 6.75022 21.0628 6.75023 21.26C6.75023 21.4562 6.8282 21.6444 6.96697 21.7832C7.10575 21.922 7.29397 22 7.49023 22H19.8102C20.0065 22 20.1947 21.922 20.3335 21.7832C20.4723 21.6444 20.5502 21.4562 20.5502 21.26C20.5502 21.0628 20.4726 20.8735 20.3341 20.7331C20.1956 20.5928 20.0074 20.5126 19.8102 20.51ZM10.4402 18.22C10.4321 18.0147 10.5052 17.8145 10.6438 17.6629C10.7823 17.5112 10.9751 17.4203 11.1802 17.41C11.3453 17.3938 11.5114 17.428 11.6566 17.5082C11.8018 17.5884 11.9192 17.7107 11.9935 17.859C12.0677 18.0073 12.0952 18.1746 12.0724 18.3389C12.0496 18.5032 11.9775 18.6567 11.8656 18.7791C11.7537 18.9016 11.6074 18.9872 11.4458 19.0248C11.2843 19.0623 11.1151 19.05 10.9607 18.9894C10.8063 18.9288 10.6739 18.8229 10.581 18.6855C10.4881 18.5481 10.439 18.3858 10.4402 18.22Z" fill="black"/>
</svg>
