<svg width="24" height="24" viewBox="0 0 24 24" fill="none" xmlns="http://www.w3.org/2000/svg">
<path d="M21.39 12.62L18.85 7.83002C18.6078 7.37198 18.2585 6.97917 17.832 6.68496C17.4055 6.39074 16.9142 6.2038 16.4 6.14002C16.1859 4.77415 15.4909 3.5297 14.4403 2.63099C13.3897 1.73227 12.0526 1.2384 10.67 1.2384C9.28747 1.2384 7.95038 1.73227 6.89978 2.63099C5.84918 3.5297 5.15417 4.77415 4.94002 6.14002C4.18833 6.26098 3.5041 6.64518 3.00952 7.22402C2.51494 7.80287 2.24221 8.53866 2.24002 9.30002V17.71C2.2307 18.1387 2.3071 18.565 2.46474 18.9638C2.62238 19.3625 2.85809 19.7258 3.15802 20.0323C3.45796 20.3387 3.81609 20.5822 4.21139 20.7484C4.60669 20.9146 5.03121 21.0001 5.46002 21H5.92002C6.07466 21.5177 6.39223 21.9717 6.82553 22.2945C7.25882 22.6173 7.78471 22.7916 8.32502 22.7916C8.86533 22.7916 9.39122 22.6173 9.82451 22.2945C10.2578 21.9717 10.5754 21.5177 10.73 21H13C13.1547 21.5177 13.4722 21.9717 13.9055 22.2945C14.3388 22.6173 14.8647 22.7916 15.405 22.7916C15.9453 22.7916 16.4712 22.6173 16.9045 22.2945C17.3378 21.9717 17.6554 21.5177 17.81 21H18.5C19.354 21 20.173 20.6608 20.7769 20.0569C21.3808 19.453 21.72 18.634 21.72 17.78V14.12C21.7311 13.6009 21.6179 13.0866 21.39 12.62ZM20.06 13.32C20.1917 13.5661 20.2604 13.8409 20.26 14.12H18.11C18.0808 14.1155 18.0539 14.1012 18.0339 14.0794C18.0139 14.0575 18.002 14.0296 18 14V11.3C18 11.2655 18.0137 11.2325 18.0381 11.2081C18.0625 11.1837 18.0955 11.17 18.13 11.17H18.95L20.06 13.32ZM10.16 2.79002C11.039 2.67695 11.9315 2.83695 12.7165 3.24834C13.5015 3.65972 14.1409 4.30257 14.5481 5.08972C14.9554 5.87686 15.1106 6.7702 14.9929 7.64858C14.8752 8.52696 14.4901 9.34789 13.89 10L11.31 12.88C11.2175 12.9436 11.1113 12.9847 11 13C10.9336 13.0085 10.8664 13.0085 10.8 13H10.65C10.6035 13.0047 10.5566 13.0047 10.51 13C10.4403 13.0095 10.3697 13.0095 10.3 13C10.1883 12.9584 10.0886 12.8897 10.01 12.8L7.45002 10C7.26005 9.77835 7.08943 9.54082 6.94002 9.29002C6.87325 9.16812 6.8164 9.04104 6.77002 8.91002C6.71002 8.78002 6.64002 8.65002 6.59002 8.51002C6.54183 8.34271 6.50508 8.17231 6.48002 8.00002C6.48002 7.87002 6.42002 7.74002 6.40002 7.62002C6.38002 7.50002 6.40002 7.30002 6.40002 7.14002C6.40002 6.98002 6.40002 6.72002 6.40002 6.50002C6.53126 5.55409 6.97083 4.67786 7.65061 4.00712C8.33039 3.33638 9.21242 2.90858 10.16 2.79002ZM8.33002 21.24C8.13224 21.24 7.9389 21.1814 7.77445 21.0715C7.61 20.9616 7.48183 20.8054 7.40614 20.6227C7.33045 20.44 7.31065 20.2389 7.34923 20.0449C7.38782 19.8509 7.48306 19.6728 7.62291 19.5329C7.76276 19.3931 7.94095 19.2978 8.13493 19.2592C8.32891 19.2206 8.52998 19.2404 8.7127 19.3161C8.89543 19.3918 9.05161 19.52 9.16149 19.6844C9.27137 19.8489 9.33002 20.0422 9.33002 20.24C9.33002 20.5052 9.22466 20.7596 9.03713 20.9471C8.84959 21.1347 8.59523 21.24 8.33002 21.24ZM15.45 21.24C15.2522 21.24 15.0589 21.1814 14.8944 21.0715C14.73 20.9616 14.6018 20.8054 14.5261 20.6227C14.4505 20.44 14.4306 20.2389 14.4692 20.0449C14.5078 19.8509 14.6031 19.6728 14.7429 19.5329C14.8828 19.3931 15.0609 19.2978 15.2549 19.2592C15.4489 19.2206 15.65 19.2404 15.8327 19.3161C16.0154 19.3918 16.1716 19.52 16.2815 19.6844C16.3914 19.8489 16.45 20.0422 16.45 20.24C16.45 20.5052 16.3447 20.7596 16.1571 20.9471C15.9696 21.1347 15.7152 21.24 15.45 21.24ZM20.26 17.74C20.26 18.1962 20.0788 18.6337 19.7562 18.9562C19.4337 19.2788 18.9962 19.46 18.54 19.46H17.85C17.6954 18.9423 17.3778 18.4883 16.9445 18.1655C16.5112 17.8428 15.9853 17.6684 15.445 17.6684C14.9047 17.6684 14.3788 17.8428 13.9455 18.1655C13.5122 18.4883 13.1947 18.9423 13.04 19.46H10.73C10.5754 18.9423 10.2578 18.4883 9.82451 18.1655C9.39122 17.8428 8.86533 17.6684 8.32502 17.6684C7.78471 17.6684 7.25882 17.8428 6.82553 18.1655C6.39223 18.4883 6.07466 18.9423 5.92002 19.46H5.46002C5.00385 19.46 4.56636 19.2788 4.2438 18.9562C3.92123 18.6337 3.74002 18.1962 3.74002 17.74V9.33002C3.73984 8.97264 3.85163 8.62418 4.0597 8.33361C4.26776 8.04304 4.56163 7.82496 4.90002 7.71002C4.90002 7.71002 4.90002 7.71002 4.90002 7.78002C4.92791 8.01595 4.97133 8.2498 5.03002 8.48002C5.03002 8.54002 5.03002 8.60002 5.03002 8.66002C5.09556 8.91685 5.18253 9.16773 5.29002 9.41002L5.35002 9.53002C5.45002 9.73002 5.55002 9.93002 5.67002 10.12L5.79002 10.31C5.93882 10.5341 6.10252 10.7479 6.28002 10.95L8.85002 13.83C9.07111 14.0713 9.33997 14.264 9.63952 14.3958C9.93907 14.5276 10.2628 14.5957 10.59 14.5957C10.9173 14.5957 11.241 14.5276 11.5405 14.3958C11.8401 14.264 12.1089 14.0713 12.33 13.83L15 11C15.2228 10.7512 15.4236 10.4836 15.6 10.2L15.75 9.91002C15.8492 9.70321 15.9328 9.48928 16 9.27002C16.05 9.15002 16.09 9.03002 16.13 8.91002C16.1939 8.71636 16.2473 8.51941 16.29 8.32002C16.323 8.19194 16.3464 8.06157 16.36 7.93002C16.3815 7.84434 16.3982 7.75754 16.41 7.67002C16.6397 7.73099 16.8542 7.83889 17.0401 7.9869C17.226 8.13492 17.3792 8.31984 17.49 8.53002L18.09 9.67002C17.6577 9.67002 17.2431 9.84175 16.9374 10.1474C16.6318 10.4531 16.46 10.8677 16.46 11.3V14C16.46 14.4323 16.6318 14.8469 16.9374 15.1526C17.2431 15.4583 17.6577 15.63 18.09 15.63H20.24L20.26 17.74ZM10.67 9.74002C11.1924 9.73606 11.702 9.57778 12.1347 9.28509C12.5674 8.99239 12.904 8.57832 13.102 8.09492C13.3001 7.61152 13.3509 7.08036 13.248 6.56818C13.1452 6.056 12.8932 5.58566 12.5238 5.21626C12.1544 4.84686 11.684 4.59488 11.1719 4.49199C10.6597 4.38911 10.1285 4.4399 9.64511 4.63799C9.16171 4.83608 8.74765 5.17262 8.45495 5.60533C8.16225 6.03805 8.00398 6.54762 8.00002 7.07002C8.00001 7.41971 8.06921 7.76594 8.20363 8.08877C8.33806 8.41159 8.53505 8.70462 8.78324 8.95095C9.03144 9.19729 9.32594 9.39207 9.64976 9.52407C9.97359 9.65606 10.3203 9.72266 10.67 9.72002V9.74002ZM10.67 5.94002C10.8983 5.94005 11.1214 6.00803 11.311 6.1353C11.5005 6.26257 11.6478 6.44337 11.7343 6.65467C11.8207 6.86598 11.8423 7.09822 11.7962 7.32183C11.7502 7.54543 11.6387 7.75029 11.4759 7.91029C11.313 8.0703 11.1062 8.17821 10.8819 8.2203C10.6575 8.26239 10.4257 8.23674 10.2159 8.14663C10.0061 8.05651 9.82796 7.90601 9.70403 7.71428C9.5801 7.52255 9.51605 7.29827 9.52002 7.07002C9.52263 6.76582 9.64463 6.47483 9.85973 6.25973C10.0748 6.04463 10.3658 5.92263 10.67 5.92002V5.94002Z" fill="black"/>
</svg>
