<svg width="24" height="24" viewBox="0 0 24 24" fill="none" xmlns="http://www.w3.org/2000/svg">
<path d="M11.7498 19.7H8.44977C7.73541 19.6973 7.05123 19.4117 6.54704 18.9056C6.04285 18.3996 5.75976 17.7143 5.75977 17V3.99997C5.75976 3.28562 6.04285 2.60037 6.54704 2.09431C7.05123 1.58825 7.73541 1.30262 8.44977 1.29997H14.9998C15.3569 1.296 15.7112 1.36291 16.0422 1.49682C16.3733 1.63073 16.6745 1.82898 16.9284 2.0801C17.1823 2.33121 17.3838 2.6302 17.5214 2.95975C17.659 3.2893 17.7298 3.64286 17.7298 3.99997V12.64C17.7298 12.8389 17.6507 13.0296 17.5101 13.1703C17.3694 13.311 17.1787 13.39 16.9798 13.39C16.7809 13.39 16.5901 13.311 16.4494 13.1703C16.3088 13.0296 16.2298 12.8389 16.2298 12.64V3.99997C16.2382 3.8353 16.2123 3.67068 16.1537 3.51654C16.0951 3.36241 16.0052 3.22213 15.8895 3.1046C15.7739 2.98707 15.6351 2.89486 15.4819 2.83381C15.3287 2.77276 15.1646 2.74421 14.9998 2.74997H8.44977C8.28831 2.74977 8.12851 2.78242 7.98007 2.84594C7.83164 2.90946 7.69769 3.00252 7.58636 3.11945C7.47504 3.23639 7.38868 3.37476 7.33253 3.52613C7.27638 3.67751 7.25163 3.83872 7.25977 3.99997V17C7.25845 17.1571 7.28825 17.3129 7.34746 17.4584C7.40667 17.604 7.49412 17.7363 7.60475 17.8479C7.71539 17.9595 7.84702 18.048 7.99205 18.1084C8.13708 18.1689 8.29265 18.2 8.44977 18.2H11.7498C11.9487 18.2 12.1394 18.279 12.2801 18.4196C12.4207 18.5603 12.4998 18.7511 12.4998 18.95C12.4998 19.1489 12.4207 19.3396 12.2801 19.4803C12.1394 19.621 11.9487 19.7 11.7498 19.7ZM15.7498 10.99V9.17997C15.7498 8.98106 15.6707 8.79029 15.5301 8.64964C15.3894 8.50899 15.1987 8.42997 14.9998 8.42997C14.8009 8.42997 14.6101 8.50899 14.4694 8.64964C14.3288 8.79029 14.2498 8.98106 14.2498 9.17997V11C14.2498 11.1989 14.3288 11.3896 14.4694 11.5303C14.6101 11.671 14.8009 11.75 14.9998 11.75C15.1987 11.75 15.3894 11.671 15.5301 11.5303C15.6707 11.3896 15.7498 11.1989 15.7498 11V10.99ZM21.7498 20.99V16.31C21.7511 16.0741 21.7058 15.8402 21.6164 15.6219C21.527 15.4036 21.3954 15.2051 21.229 15.0378C21.0627 14.8705 20.8649 14.7378 20.6471 14.6472C20.4293 14.5566 20.1957 14.51 19.9598 14.51H15.2898C14.8124 14.51 14.3545 14.6996 14.017 15.0372C13.6794 15.3747 13.4898 15.8326 13.4898 16.31V21C13.4924 21.4766 13.6829 21.9329 14.0199 22.2699C14.3569 22.6069 14.8132 22.7973 15.2898 22.8H19.9398C20.4154 22.7973 20.8707 22.6065 21.2061 22.2692C21.5415 21.932 21.7298 21.4756 21.7298 21L21.7498 20.99ZM19.9398 16C19.9787 15.9999 20.0173 16.0078 20.0531 16.023C20.089 16.0382 20.1214 16.0604 20.1484 16.0884C20.1755 16.1164 20.1967 16.1496 20.2106 16.1859C20.2246 16.2223 20.2311 16.2611 20.2298 16.3V21C20.2311 21.0389 20.2246 21.0777 20.2106 21.114C20.1967 21.1504 20.1755 21.1835 20.1484 21.2115C20.1214 21.2395 20.089 21.2618 20.0531 21.277C20.0173 21.2922 19.9787 21.3 19.9398 21.3H15.2898C15.2119 21.2974 15.1382 21.2646 15.0841 21.2086C15.03 21.1527 14.9997 21.0778 14.9998 21V16.31C14.9998 16.2706 15.0075 16.2316 15.0226 16.1952C15.0377 16.1588 15.0598 16.1257 15.0876 16.0978C15.1155 16.07 15.1486 16.0479 15.185 16.0328C15.2214 16.0177 15.2604 16.01 15.2998 16.01L19.9398 16ZM12.6498 22C12.6472 21.8019 12.5673 21.6126 12.4272 21.4725C12.2871 21.3324 12.0979 21.2526 11.8998 21.25H3.75977C3.56085 21.25 3.37009 21.329 3.22944 21.4696C3.08878 21.6103 3.00977 21.8011 3.00977 22C3.00977 22.1989 3.08878 22.3897 3.22944 22.5303C3.37009 22.671 3.56085 22.75 3.75977 22.75H11.8998C12.0979 22.7474 12.2871 22.6675 12.4272 22.5274C12.5673 22.3873 12.6472 22.1981 12.6498 22Z" fill="black"/>
</svg>
