<svg width="24" height="24" viewBox="0 0 24 24" fill="none" xmlns="http://www.w3.org/2000/svg">
<path d="M8.00012 8.99999C7.89462 8.84738 7.84858 8.66146 7.87069 8.47726C7.89279 8.29306 7.98151 8.1233 8.12012 7.99999L9.61012 6.78999V4.93999C9.61012 4.74108 9.68913 4.55031 9.82979 4.40966C9.97044 4.26901 10.1612 4.18999 10.3601 4.18999C10.559 4.18999 10.7498 4.26901 10.8904 4.40966C11.0311 4.55031 11.1101 4.74108 11.1101 4.93999V7.14999C11.1098 7.2639 11.0835 7.37623 11.0332 7.47846C10.983 7.58069 10.9101 7.67012 10.8201 7.73999L9.05012 9.14999C8.92003 9.25514 8.75738 9.31171 8.59012 9.30999C8.47483 9.30581 8.36196 9.27579 8.25984 9.22213C8.15772 9.16847 8.06896 9.09256 8.00012 8.99999ZM22.8801 13.13V17.19C22.8775 18.1254 22.5047 19.0217 21.8433 19.6832C21.1819 20.3446 20.2855 20.7174 19.3501 20.72H18.5101C18.3468 21.2929 18.0012 21.7969 17.5257 22.1557C17.0503 22.5146 16.4708 22.7087 15.8751 22.7087C15.2794 22.7087 14.7 22.5146 14.2245 22.1557C13.749 21.7969 13.4034 21.2929 13.2401 20.72H10.5101C10.3468 21.2929 10.0012 21.7969 9.52575 22.1557C9.05028 22.5146 8.47081 22.7087 7.87512 22.7087C7.27942 22.7087 6.69995 22.5146 6.22448 22.1557C5.74901 21.7969 5.40344 21.2929 5.24012 20.72H4.65012C3.71471 20.7174 2.81838 20.3446 2.15695 19.6832C1.49551 19.0217 1.12276 18.1254 1.12012 17.19V7.77999C1.12276 6.84459 1.49551 5.94825 2.15695 5.28682C2.81838 4.62538 3.71471 4.25263 4.65012 4.24999H5.17012C5.69755 3.34076 6.45459 2.58604 7.36544 2.0614C8.27629 1.53676 9.30898 1.26062 10.3601 1.26062C11.4113 1.26062 12.4439 1.53676 13.3548 2.0614C14.2656 2.58604 15.0227 3.34076 15.5501 4.24999H16.5001C17.1419 4.25011 17.7716 4.42521 18.3213 4.75646C18.8711 5.08772 19.3201 5.56259 19.6201 6.12999L22.4701 11.51C22.7344 12.0202 22.8749 12.5854 22.8801 13.16V13.13ZM19.8801 9.71999H18.8801C18.8165 9.71999 18.7554 9.74527 18.7104 9.79028C18.6654 9.83529 18.6401 9.89634 18.6401 9.95999V12.96C18.6401 13.0236 18.6654 13.0847 18.7104 13.1297C18.7554 13.1747 18.8165 13.2 18.8801 13.2H21.4001V13.11C21.4001 12.7783 21.3176 12.4519 21.1601 12.16L19.8801 9.71999ZM5.88012 7.21999C5.88012 8.11 6.14404 8.98003 6.6385 9.72005C7.13297 10.4601 7.83577 11.0369 8.65804 11.3774C9.48031 11.718 10.3851 11.8072 11.258 11.6335C12.1309 11.4599 12.9328 11.0313 13.5621 10.402C14.1914 9.77263 14.62 8.97081 14.7937 8.0979C14.9673 7.22498 14.8782 6.32018 14.5376 5.49791C14.197 4.67565 13.6202 3.97284 12.8802 3.47838C12.1402 2.98391 11.2701 2.71999 10.3801 2.71999C9.78533 2.71866 9.19615 2.83501 8.64651 3.06231C8.09687 3.28962 7.59761 3.62341 7.1775 4.04445C6.75738 4.4655 6.4247 4.96548 6.19861 5.51563C5.97252 6.06577 5.85748 6.6552 5.86012 7.24999L5.88012 7.21999ZM9.12012 20C9.12012 19.7528 9.04681 19.5111 8.90945 19.3055C8.7721 19.1 8.57688 18.9397 8.34847 18.8451C8.12006 18.7505 7.86873 18.7258 7.62625 18.774C7.38378 18.8222 7.16105 18.9413 6.98623 19.1161C6.81142 19.2909 6.69237 19.5137 6.64414 19.7561C6.5959 19.9986 6.62066 20.2499 6.71527 20.4783C6.80988 20.7067 6.97009 20.902 7.17565 21.0393C7.38122 21.1767 7.62289 21.25 7.87012 21.25C8.20164 21.25 8.51958 21.1183 8.754 20.8839C8.98842 20.6495 9.12012 20.3315 9.12012 20ZM17.1201 20C17.1201 19.7528 17.0468 19.5111 16.9095 19.3055C16.7721 19.1 16.5769 18.9397 16.3485 18.8451C16.1201 18.7505 15.8687 18.7258 15.6263 18.774C15.3838 18.8222 15.161 18.9413 14.9862 19.1161C14.8114 19.2909 14.6924 19.5137 14.6441 19.7561C14.5959 19.9986 14.6207 20.2499 14.7153 20.4783C14.8099 20.7067 14.9701 20.902 15.1757 21.0393C15.3812 21.1767 15.6229 21.25 15.8701 21.25C16.0343 21.25 16.1968 21.2177 16.3485 21.1548C16.5001 21.092 16.6379 20.9999 16.754 20.8839C16.8701 20.7678 16.9621 20.63 17.025 20.4783C17.0878 20.3267 17.1201 20.1641 17.1201 20ZM21.3801 14.75H18.8601C18.6308 14.75 18.4037 14.7047 18.1919 14.6166C17.9802 14.5285 17.7879 14.3995 17.6262 14.2368C17.4645 14.0742 17.3365 13.8812 17.2497 13.6689C17.1628 13.4567 17.1188 13.2293 17.1201 13V9.99999C17.1201 9.53851 17.3034 9.09594 17.6298 8.76962C17.9561 8.44331 18.3986 8.25999 18.8601 8.25999H19.0001L18.2501 6.83999C18.0849 6.51652 17.8347 6.24415 17.5264 6.05212C17.2181 5.86008 16.8633 5.75564 16.5001 5.74999H16.1601C16.293 6.2389 16.3603 6.74333 16.3601 7.24999C16.3601 8.84129 15.728 10.3674 14.6028 11.4926C13.4775 12.6178 11.9514 13.25 10.3601 13.25C8.76882 13.25 7.24269 12.6178 6.11748 11.4926C4.99226 10.3674 4.36012 8.84129 4.36012 7.24999C4.36233 6.74742 4.42614 6.24703 4.55012 5.75999C4.03191 5.77814 3.54101 5.99684 3.18094 6.36996C2.82088 6.74308 2.6198 7.24146 2.62012 7.75999V17.2C2.62012 17.7304 2.83083 18.2391 3.2059 18.6142C3.58098 18.9893 4.08968 19.2 4.62012 19.2H5.21012C5.37344 18.6271 5.71901 18.1231 6.19448 17.7642C6.66995 17.4054 7.24942 17.2112 7.84512 17.2112C8.44081 17.2112 9.02028 17.4054 9.49575 17.7642C9.97122 18.1231 10.3168 18.6271 10.4801 19.2H13.2101C13.3734 18.6271 13.719 18.1231 14.1945 17.7642C14.67 17.4054 15.2494 17.2112 15.8451 17.2112C16.4408 17.2112 17.0203 17.4054 17.4957 17.7642C17.9712 18.1231 18.3168 18.6271 18.4801 19.2H19.3201C19.8505 19.2 20.3593 18.9893 20.7343 18.6142C21.1094 18.2391 21.3201 17.7304 21.3201 17.2L21.3801 14.75Z" fill="black"/>
</svg>
