<svg width="24" height="24" viewBox="0 0 24 24" fill="none" xmlns="http://www.w3.org/2000/svg">
<path d="M23.5298 12.57L21.8298 9.30005L20.7298 7.19005C20.437 6.62243 19.994 6.14605 19.4492 5.81279C18.9043 5.47953 18.2784 5.30218 17.6398 5.30005H16.7898V4.73005C16.7911 4.41141 16.7295 4.09565 16.6084 3.80088C16.4874 3.50612 16.3094 3.23816 16.0845 3.01238C15.8597 2.7866 15.5924 2.60745 15.2982 2.48521C15.0039 2.36297 14.6884 2.30005 14.3698 2.30005H7.08976C5.86885 2.3027 4.69884 2.78956 3.83646 3.65382C2.97408 4.51807 2.48976 5.68913 2.48976 6.91005V18.28C2.48844 18.7418 2.57826 19.1993 2.75407 19.6263C2.92987 20.0533 3.18821 20.4415 3.51427 20.7685C3.84034 21.0955 4.22772 21.3549 4.65423 21.5319C5.08073 21.7089 5.53798 21.8001 5.99976 21.8H6.55976C6.71552 22.3716 7.05492 22.8761 7.52567 23.2357C7.99641 23.5953 8.57237 23.7901 9.16476 23.7901C9.75715 23.7901 10.3331 23.5953 10.8039 23.2357C11.2746 22.8761 11.614 22.3716 11.7698 21.8H14.4398C14.5955 22.3716 14.9349 22.8761 15.4057 23.2357C15.8764 23.5953 16.4524 23.7901 17.0448 23.7901C17.6372 23.7901 18.2131 23.5953 18.6839 23.2357C19.1546 22.8761 19.494 22.3716 19.6498 21.8H20.4698C21.3989 21.7948 22.2881 21.4212 22.9423 20.7614C23.5965 20.1016 23.9624 19.2092 23.9598 18.28V14.22C23.9555 13.6429 23.8077 13.0759 23.5298 12.57ZM22.1998 13.26C22.3656 13.5668 22.4483 13.9115 22.4398 14.26V14.34H19.9998C19.97 14.3401 19.9406 14.3341 19.9132 14.3224C19.8858 14.3107 19.8611 14.2936 19.8406 14.2721C19.82 14.2506 19.804 14.2252 19.7935 14.1973C19.7831 14.1695 19.7784 14.1398 19.7798 14.11V11C19.7868 10.9461 19.8128 10.8963 19.8531 10.8597C19.8934 10.8231 19.9454 10.802 19.9998 10.8H20.9998L22.1998 13.26ZM3.99976 6.91005C3.99974 6.08868 4.32466 5.30065 4.90358 4.71799C5.4825 4.13532 6.26841 3.80533 7.08976 3.80005H14.3698C14.6147 3.80268 14.8487 3.90183 15.0209 4.07595C15.1932 4.25007 15.2898 4.48512 15.2898 4.73005V13.39C15.2871 13.6323 15.189 13.8638 15.0168 14.0341C14.8445 14.2045 14.612 14.3001 14.3698 14.3H3.99976V6.91005ZM9.14976 22.3C8.90134 22.306 8.65678 22.2378 8.44731 22.1041C8.23785 21.9704 8.07297 21.7774 7.97374 21.5496C7.87452 21.3217 7.84544 21.0695 7.89023 20.8251C7.93502 20.5807 8.05165 20.3552 8.22521 20.1773C8.39877 19.9995 8.62139 19.8774 8.86465 19.8267C9.10791 19.776 9.36076 19.7989 9.59093 19.8926C9.82109 19.9863 10.0181 20.1464 10.1568 20.3526C10.2956 20.5587 10.3697 20.8016 10.3698 21.05C10.3724 21.3772 10.2457 21.6922 10.0172 21.9263C9.78868 22.1604 9.47689 22.2948 9.14976 22.3ZM17.0298 22.3C16.6982 22.3 16.3803 22.1684 16.1459 21.9339C15.9115 21.6995 15.7798 21.3816 15.7798 21.05C15.7798 20.7185 15.9115 20.4006 16.1459 20.1662C16.3803 19.9317 16.6982 19.8 17.0298 19.8C17.3613 19.8 17.6792 19.9317 17.9136 20.1662C18.1481 20.4006 18.2798 20.7185 18.2798 21.05C18.2798 21.3816 18.1481 21.6995 17.9136 21.9339C17.6792 22.1684 17.3613 22.3 17.0298 22.3ZM22.4398 18.3C22.4398 18.8305 22.229 19.3392 21.854 19.7143C21.4789 20.0893 20.9702 20.3 20.4398 20.3H19.6198C19.464 19.7285 19.1246 19.224 18.6539 18.8644C18.1831 18.5048 17.6072 18.31 17.0148 18.31C16.4224 18.31 15.8464 18.5048 15.3757 18.8644C14.9049 19.224 14.5655 19.7285 14.4098 20.3H11.7498C11.594 19.7285 11.2546 19.224 10.7839 18.8644C10.3131 18.5048 9.73715 18.31 9.14476 18.31C8.55237 18.31 7.97641 18.5048 7.50567 18.8644C7.03492 19.224 6.69552 19.7285 6.53976 20.3H5.99976C5.46933 20.3 4.96062 20.0893 4.58555 19.7143C4.21047 19.3392 3.99976 18.8305 3.99976 18.3V15.8H14.3698C14.6871 15.8014 15.0015 15.74 15.2951 15.6195C15.5886 15.499 15.8555 15.3216 16.0804 15.0977C16.3052 14.8738 16.4836 14.6077 16.6054 14.3146C16.7271 14.0216 16.7898 13.7074 16.7898 13.39V6.80005H17.6398C18.0036 6.80294 18.3598 6.90503 18.6699 7.09534C18.9801 7.28565 19.2324 7.55696 19.3998 7.88005L20.1398 9.30005H19.9998C19.5426 9.2947 19.102 9.4705 18.7741 9.78904C18.4462 10.1076 18.2577 10.543 18.2498 11V14C18.2388 14.2351 18.2761 14.4699 18.3595 14.69C18.443 14.91 18.5706 15.1106 18.7347 15.2793C18.8987 15.448 19.0956 15.5813 19.3132 15.6709C19.5308 15.7604 19.7645 15.8044 19.9998 15.8H22.4698L22.4398 18.3Z" fill="black"/>
</svg>
