<svg width="24" height="24" viewBox="0 0 24 24" fill="none" xmlns="http://www.w3.org/2000/svg">
<path d="M4.00011 17.11C3.80201 17.1074 3.61274 17.0276 3.47265 16.8875C3.33255 16.7474 3.2527 16.5581 3.25011 16.36V8.72001C3.25142 8.00478 3.39376 7.29682 3.66899 6.63666C3.94421 5.9765 4.34692 5.37709 4.85406 4.87273C5.36119 4.36838 5.96281 3.96899 6.62448 3.6974C7.28615 3.42582 7.99488 3.28738 8.71011 3.29001H16.0001C16.199 3.29001 16.3898 3.36903 16.5304 3.50968C16.6711 3.65034 16.7501 3.8411 16.7501 4.04001C16.7501 4.23893 16.6711 4.42969 16.5304 4.57034C16.3898 4.711 16.199 4.79001 16.0001 4.79001H8.71011C7.66781 4.79001 6.6682 5.20407 5.93118 5.94109C5.19417 6.6781 4.78011 7.67771 4.78011 8.72001V16.36C4.78019 16.4611 4.75985 16.5611 4.72029 16.6541C4.68074 16.7471 4.6228 16.8312 4.54995 16.9012C4.47709 16.9713 4.39083 17.0259 4.29635 17.0618C4.20186 17.0976 4.1011 17.1141 4.00011 17.11ZM20.7501 18.27V5.73001C21.1297 5.54642 21.4369 5.24118 21.623 4.86285C21.8092 4.48452 21.8634 4.05482 21.7772 3.6421C21.691 3.22938 21.4692 2.85735 21.1472 2.58517C20.8252 2.31299 20.4214 2.1563 20.0001 2.14001C19.573 2.14134 19.1589 2.28729 18.8254 2.55408C18.4919 2.82087 18.2585 3.19276 18.1634 3.60915C18.0683 4.02553 18.1171 4.46185 18.3017 4.84699C18.4863 5.23213 18.7959 5.54338 19.1801 5.73001C18.0001 15.71 9.59011 18.56 5.81011 19.34C5.66574 18.9316 5.38548 18.5852 5.01624 18.3588C4.647 18.1324 4.21118 18.0396 3.78174 18.0961C3.35229 18.1526 2.95528 18.3549 2.65714 18.6691C2.359 18.9833 2.17784 19.3904 2.14397 19.8222C2.1101 20.254 2.22559 20.6843 2.47109 21.0412C2.71659 21.3981 3.07722 21.6597 3.49261 21.7825C3.908 21.9052 4.35295 21.8816 4.75298 21.7155C5.153 21.5494 5.48384 21.2509 5.69011 20.87C8.90011 20.23 16.1301 18 19.2801 11V18.24C18.8717 18.3966 18.5299 18.6893 18.3122 19.0687C18.0946 19.4481 18.0145 19.891 18.0856 20.3226C18.1566 20.7541 18.3743 21.148 18.702 21.4377C19.0298 21.7273 19.4474 21.8951 19.8844 21.9126C20.3214 21.93 20.7511 21.7962 21.1009 21.5336C21.4507 21.2711 21.6993 20.8958 21.8045 20.4713C21.9098 20.0468 21.8653 19.5989 21.6787 19.2034C21.4921 18.8078 21.1747 18.4887 20.7801 18.3L20.7501 18.27Z" fill="black"/>
</svg>
