<svg width="24" height="24" viewBox="0 0 24 24" fill="none" xmlns="http://www.w3.org/2000/svg">
<path d="M21 1.25H19C18.5367 1.25263 18.0931 1.43784 17.7655 1.76546C17.4378 2.09309 17.2526 2.53668 17.25 3V3.25H8.67C7.23253 3.25 5.85393 3.82103 4.83748 4.83748C3.82103 5.85393 3.25 7.23253 3.25 8.67V17.25H3C2.53668 17.2526 2.09309 17.4378 1.76546 17.7655C1.43784 18.0931 1.25263 18.5367 1.25 19V21C1.25263 21.4633 1.43784 21.9069 1.76546 22.2345C2.09309 22.5622 2.53668 22.7474 3 22.75H13C13.4633 22.7474 13.9069 22.5622 14.2345 22.2345C14.5622 21.9069 14.7474 21.4633 14.75 21V18.75H17C17.4633 18.7474 17.9069 18.5622 18.2345 18.2345C18.5622 17.9069 18.7474 17.4633 18.75 17V14.75H21C21.4633 14.7474 21.9069 14.5622 22.2345 14.2345C22.5622 13.9069 22.7474 13.4633 22.75 13V3C22.7474 2.53668 22.5622 2.09309 22.2345 1.76546C21.9069 1.43784 21.4633 1.25263 21 1.25ZM18.75 3C18.75 2.9337 18.7763 2.87011 18.8232 2.82322C18.8701 2.77634 18.9337 2.75 19 2.75H21C21.0663 2.75 21.1299 2.77634 21.1768 2.82322C21.2237 2.87011 21.25 2.9337 21.25 3V9C21.25 9.0663 21.2237 9.12989 21.1768 9.17678C21.1299 9.22366 21.0663 9.25 21 9.25H18.75V3ZM17.25 13C17.25 13.0663 17.2237 13.1299 17.1768 13.1768C17.1299 13.2237 17.0663 13.25 17 13.25H14.75V11C14.75 10.9337 14.7763 10.8701 14.8232 10.8232C14.8701 10.7763 14.9337 10.75 15 10.75H17.25V13ZM4.75 8.67C4.75264 7.63116 5.16649 6.63563 5.90106 5.90106C6.63563 5.16649 7.63116 4.75264 8.67 4.75H17.25V9.25H15C14.5367 9.25263 14.0931 9.43784 13.7655 9.76546C13.4378 10.0931 13.2526 10.5367 13.25 11V13.25H11C10.5367 13.2526 10.0931 13.4378 9.76546 13.7655C9.43784 14.0931 9.25263 14.5367 9.25 15V17.25H4.75V8.67ZM13.25 17C13.25 17.0663 13.2237 17.1299 13.1768 17.1768C13.1299 17.2237 13.0663 17.25 13 17.25H10.75V15C10.75 14.9337 10.7763 14.8701 10.8232 14.8232C10.8701 14.7763 10.9337 14.75 11 14.75H13.25V17ZM7.11 21.25H3C2.9337 21.25 2.87011 21.2237 2.82322 21.1768C2.77634 21.1299 2.75 21.0663 2.75 21V19C2.75 18.9337 2.77634 18.8701 2.82322 18.8232C2.87011 18.7763 2.9337 18.75 3 18.75H9.25V21C9.25 21.0663 9.22366 21.1299 9.17678 21.1768C9.12989 21.2237 9.0663 21.25 9 21.25H7.11ZM13 21.25H10.72C10.7305 21.167 10.7305 21.083 10.72 21V18.75H13C13.083 18.7605 13.167 18.7605 13.25 18.75V21C13.25 21.0663 13.2237 21.1299 13.1768 21.1768C13.1299 21.2237 13.0663 21.25 13 21.25ZM17 17.25H14.72C14.7305 17.167 14.7305 17.083 14.72 17V14.75H17C17.083 14.7605 17.167 14.7605 17.25 14.75V17C17.25 17.0663 17.2237 17.1299 17.1768 17.1768C17.1299 17.2237 17.0663 17.25 17 17.25ZM21 13.25H18.72C18.7305 13.167 18.7305 13.083 18.72 13V10.75H21C21.083 10.7605 21.167 10.7605 21.25 10.75V13C21.25 13.0663 21.2237 13.1299 21.1768 13.1768C21.1299 13.2237 21.0663 13.25 21 13.25Z" fill="black"/>
</svg>
