<svg width="24" height="24" viewBox="0 0 24 24" fill="none" xmlns="http://www.w3.org/2000/svg">
<path d="M16.54 22.75H7.46C6.07903 22.7474 4.75539 22.1976 3.77889 21.2211C2.8024 20.2446 2.25264 18.921 2.25 17.54V6.46C2.25264 5.07903 2.8024 3.75539 3.77889 2.77889C4.75539 1.8024 6.07903 1.25264 7.46 1.25H13.17C13.9034 1.25277 14.6279 1.41004 15.2965 1.71157C15.965 2.0131 16.5625 2.45211 17.05 3L20.42 6.75C21.2779 7.70593 21.7517 8.94555 21.75 10.23V17.56C21.7421 18.9375 21.19 20.256 20.2141 21.2282C19.2382 22.2004 17.9175 22.7474 16.54 22.75ZM7.46 2.75C6.47605 2.75 5.53239 3.14087 4.83663 3.83663C4.14087 4.53239 3.75 5.47605 3.75 6.46V17.54C3.75 18.524 4.14087 19.4676 4.83663 20.1634C5.53239 20.8591 6.47605 21.25 7.46 21.25H16.54C17.524 21.25 18.4676 20.8591 19.1634 20.1634C19.8591 19.4676 20.25 18.524 20.25 17.54V10.21C20.2502 9.29443 19.9118 8.41112 19.3 7.73L15.93 4C15.5816 3.6133 15.1559 3.30402 14.6805 3.09214C14.2051 2.88027 13.6905 2.77052 13.17 2.77L7.46 2.75ZM10.08 18.51C10.2205 18.3694 10.2993 18.1788 10.2993 17.98C10.2993 17.7812 10.2205 17.5906 10.08 17.45L8.6 16L10.08 14.53C10.2219 14.3868 10.3011 14.1931 10.3001 13.9915C10.2992 13.7899 10.2182 13.5969 10.075 13.455C9.93178 13.3131 9.73807 13.2339 9.53646 13.2349C9.33486 13.2358 9.14189 13.3168 9 13.46L7 15.46C6.85955 15.6006 6.78066 15.7912 6.78066 15.99C6.78066 16.1888 6.85955 16.3794 7 16.52L9 18.52C9.14172 18.6589 9.33159 18.7377 9.53 18.74C9.63253 18.7413 9.73424 18.7216 9.82883 18.682C9.92343 18.6424 10.0089 18.5839 10.08 18.51ZM14.98 18.51L16.98 16.51C17.1205 16.3694 17.1993 16.1788 17.1993 15.98C17.1993 15.7812 17.1205 15.5906 16.98 15.45L14.98 13.45C14.9113 13.3763 14.8285 13.3172 14.7365 13.2762C14.6445 13.2352 14.5452 13.2132 14.4445 13.2114C14.3438 13.2096 14.2438 13.2282 14.1504 13.2659C14.057 13.3036 13.9722 13.3597 13.901 13.431C13.8297 13.5022 13.7736 13.587 13.7359 13.6804C13.6982 13.7738 13.6796 13.8738 13.6814 13.9745C13.6832 14.0752 13.7052 14.1745 13.7462 14.2665C13.7872 14.3585 13.8463 14.4413 13.92 14.51L15.4 16L13.93 17.46C13.7894 17.6019 13.711 17.7938 13.7119 17.9935C13.7129 18.1933 13.7931 18.3844 13.935 18.525C14.0769 18.6656 14.2688 18.744 14.4685 18.7431C14.6683 18.7421 14.8594 18.6619 15 18.52L14.98 18.51Z" fill="black"/>
</svg>
