<svg width="24" height="24" viewBox="0 0 24 24" fill="none" xmlns="http://www.w3.org/2000/svg">
<path d="M17.75 21.5H6.25C4.92392 21.5 3.65215 20.9732 2.71447 20.0355C1.77678 19.0979 1.25 17.8261 1.25 16.5V7.5C1.25 6.17392 1.77678 4.90215 2.71447 3.96447C3.65215 3.02678 4.92392 2.5 6.25 2.5H17.75C19.0761 2.5 20.3479 3.02678 21.2855 3.96447C22.2232 4.90215 22.75 6.17392 22.75 7.5V16.5C22.75 17.8261 22.2232 19.0979 21.2855 20.0355C20.3479 20.9732 19.0761 21.5 17.75 21.5ZM6.25 4C5.32174 4 4.4315 4.36875 3.77513 5.02513C3.11875 5.6815 2.75 6.57174 2.75 7.5V16.5C2.75 17.4283 3.11875 18.3185 3.77513 18.9749C4.4315 19.6313 5.32174 20 6.25 20H17.75C18.6783 20 19.5685 19.6313 20.2249 18.9749C20.8813 18.3185 21.25 17.4283 21.25 16.5V7.5C21.25 6.57174 20.8813 5.6815 20.2249 5.02513C19.5685 4.36875 18.6783 4 17.75 4H6.25ZM7.25 9C7.05222 9 6.85888 9.05865 6.69443 9.16853C6.52998 9.27841 6.40181 9.43459 6.32612 9.61732C6.25043 9.80004 6.23063 10.0011 6.26921 10.1951C6.3078 10.3891 6.40304 10.5673 6.54289 10.7071C6.68275 10.847 6.86093 10.9422 7.05491 10.9808C7.24889 11.0194 7.44996 10.9996 7.63268 10.9239C7.81541 10.8482 7.97159 10.72 8.08147 10.5556C8.19135 10.3911 8.25 10.1978 8.25 10C8.25006 9.86612 8.22324 9.73358 8.17111 9.61026C8.11899 9.48693 8.04264 9.37533 7.94658 9.28207C7.85052 9.18881 7.73671 9.11579 7.6119 9.06733C7.48709 9.01888 7.35382 8.99598 7.22 9H7.25ZM10.18 9C9.98222 9 9.78888 9.05865 9.62443 9.16853C9.45998 9.27841 9.33181 9.43459 9.25612 9.61732C9.18043 9.80004 9.16063 10.0011 9.19921 10.1951C9.2378 10.3891 9.33304 10.5673 9.47289 10.7071C9.61275 10.847 9.79093 10.9422 9.98491 10.9808C10.1789 11.0194 10.38 10.9996 10.5627 10.9239C10.7454 10.8482 10.9016 10.72 11.0115 10.5556C11.1214 10.3911 11.18 10.1978 11.18 10C11.1801 9.86612 11.1532 9.73358 11.1011 9.61026C11.049 9.48693 10.9726 9.37533 10.8766 9.28207C10.7805 9.18881 10.6667 9.11579 10.5419 9.06733C10.4171 9.01888 10.2838 8.99598 10.15 9H10.18ZM17.64 10C17.6374 9.80189 17.5576 9.61263 17.4175 9.47253C17.2774 9.33244 17.0881 9.25259 16.89 9.25H13.58C13.3811 9.25 13.1903 9.32902 13.0497 9.46967C12.909 9.61032 12.83 9.80109 12.83 10C12.83 10.1989 12.909 10.3897 13.0497 10.5303C13.1903 10.671 13.3811 10.75 13.58 10.75H16.86C17.0581 10.7474 17.2474 10.6676 17.3875 10.5275C17.5276 10.3874 17.6074 10.1981 17.61 10H17.64ZM17.64 15.5C17.6374 15.3019 17.5576 15.1126 17.4175 14.9725C17.2774 14.8324 17.0881 14.7526 16.89 14.75H7.22C7.02109 14.75 6.83032 14.829 6.68967 14.9697C6.54902 15.1103 6.47 15.3011 6.47 15.5C6.47 15.6989 6.54902 15.8897 6.68967 16.0303C6.83032 16.171 7.02109 16.25 7.22 16.25H16.86C17.0581 16.2474 17.2474 16.1676 17.3875 16.0275C17.5276 15.8874 17.6074 15.6981 17.61 15.5H17.64Z" fill="black"/>
</svg>
