<svg width="24" height="24" viewBox="0 0 24 24" fill="none" xmlns="http://www.w3.org/2000/svg">
<path d="M16.4998 2.75H16.7798C17.0961 2.79889 17.3951 2.92608 17.6498 3.12C17.7706 3.20739 17.8813 3.30801 17.9798 3.42C18.0443 3.49053 18.1013 3.56761 18.1498 3.65C18.2044 3.72861 18.2513 3.81234 18.2898 3.9L20.9998 10C21.201 10.4395 21.2695 10.9283 21.1966 11.4063C21.1238 11.8842 20.9129 12.3304 20.5898 12.69L13.4998 20.58C13.305 20.7915 13.0684 20.9603 12.8051 21.0758C12.5417 21.1913 12.2573 21.2509 11.9698 21.2509C11.6822 21.2509 11.3978 21.1913 11.1344 21.0758C10.8711 20.9603 10.6346 20.7915 10.4398 20.58L3.37976 12.67C3.06558 12.3091 2.86253 11.8649 2.7951 11.3912C2.72768 10.9174 2.79875 10.4343 2.99976 10L5.70976 3.93C5.70976 3.84 5.95976 3.52 6.01976 3.44C6.13753 3.29351 6.27959 3.16836 6.43976 3.07C6.75375 2.86101 7.12258 2.74967 7.49976 2.75H16.4998ZM16.4998 1.25H7.49976C6.83169 1.24791 6.1778 1.44268 5.61976 1.81C5.34188 1.98831 5.09242 2.20743 4.87976 2.46C4.70576 2.69871 4.54871 2.94932 4.40976 3.21L1.67976 9.21C1.35891 9.9165 1.25047 10.7011 1.36766 11.4681C1.48485 12.2351 1.8226 12.9515 2.33976 13.53L9.42976 21.42C9.76434 21.7875 10.172 22.0812 10.6266 22.2821C11.0812 22.483 11.5727 22.5868 12.0698 22.5868C12.5668 22.5868 13.0583 22.483 13.5129 22.2821C13.9675 22.0812 14.3752 21.7875 14.7098 21.42L21.7998 13.54C22.3166 12.9635 22.655 12.2494 22.7739 11.4844C22.8928 10.7193 22.7872 9.93618 22.4698 9.23L19.6498 3.31C19.584 3.15284 19.5036 3.00218 19.4098 2.86L19.1998 2.49C18.9835 2.11345 18.6719 1.80055 18.2961 1.58285C17.9204 1.36515 17.494 1.25035 17.0598 1.25H16.4998Z" fill="black"/>
</svg>
