<svg width="24" height="24" viewBox="0 0 24 24" fill="none" xmlns="http://www.w3.org/2000/svg">
<path d="M20.0001 11.22V5.17001C19.9975 4.13118 19.5837 3.13564 18.8491 2.40107C18.1145 1.6665 17.119 1.25265 16.0801 1.25001H8.00014C7.47902 1.24073 6.96127 1.33519 6.477 1.52791C5.99274 1.72062 5.55165 2.00773 5.17941 2.37253C4.80716 2.73733 4.51119 3.17254 4.30874 3.6528C4.10628 4.13307 4.00138 4.64882 4.00014 5.17001V11.17C3.42985 11.5377 2.9608 12.0425 2.63588 12.6381C2.31096 13.2338 2.14052 13.9015 2.14014 14.58V18C2.14666 18.6312 2.27763 19.2549 2.52553 19.8355C2.77343 20.416 3.1334 20.9419 3.58484 21.3831C4.03627 21.8243 4.5703 22.1722 5.15635 22.4067C5.74239 22.6413 6.36895 22.7579 7.00014 22.75H17.0001C18.268 22.7554 19.4865 22.2589 20.3896 21.3689C21.2927 20.4789 21.8069 19.2678 21.8201 18V14.62C21.8224 13.9468 21.6573 13.2836 21.3396 12.6901C21.0219 12.0966 20.5616 11.5914 20.0001 11.22ZM5.54014 5.17001C5.54143 4.8492 5.60624 4.53183 5.73082 4.23619C5.8554 3.94055 6.03729 3.67251 6.26599 3.44753C6.49469 3.22255 6.76568 3.04508 7.06331 2.92536C7.36095 2.80565 7.67935 2.74605 8.00014 2.75001H16.1001C16.7411 2.75265 17.3552 3.00845 17.8084 3.46172C18.2617 3.91499 18.5175 4.529 18.5201 5.17001V10.62C18.2792 10.5764 18.035 10.553 17.7901 10.55H16.9601C16.3544 10.5417 15.7543 10.6673 15.2029 10.918C14.6514 11.1687 14.1621 11.5382 13.7701 12L13.4801 12.35C13.2978 12.5675 13.0697 12.7421 12.8122 12.8614C12.5546 12.9806 12.274 13.0416 11.9901 13.04C11.708 13.0402 11.4293 12.9785 11.1736 12.8592C10.9179 12.74 10.6914 12.5662 10.5101 12.35L10.2101 11.99C9.82342 11.5316 9.34104 11.1633 8.79687 10.9111C8.2527 10.6588 7.65992 10.5288 7.06014 10.53H6.25014C6.0119 10.533 5.77437 10.5564 5.54014 10.6V5.17001ZM20.3201 18C20.3096 18.8708 19.9542 19.702 19.3318 20.3112C18.7095 20.9204 17.871 21.258 17.0001 21.25H7.00014C6.12928 21.258 5.29077 20.9204 4.66843 20.3112C4.04609 19.702 3.69069 18.8708 3.68014 18V14.62C3.68014 14.2825 3.74661 13.9483 3.87577 13.6365C4.00492 13.3247 4.19423 13.0414 4.43287 12.8027C4.67152 12.5641 4.95483 12.3748 5.26664 12.2456C5.57845 12.1165 5.91264 12.05 6.25014 12.05H7.06014C7.44107 12.0503 7.81735 12.1337 8.16277 12.2943C8.50818 12.4549 8.81442 12.6889 9.06014 12.98L9.36014 13.34C9.68527 13.7228 10.0898 14.0302 10.5457 14.2409C11.0016 14.4515 11.4979 14.5604 12.0001 14.56C12.5033 14.5599 13.0002 14.4497 13.4563 14.2373C13.9123 14.0248 14.3164 13.7151 14.6401 13.33L14.9301 12.98C15.1759 12.6889 15.4821 12.4549 15.8275 12.2943C16.1729 12.1337 16.5492 12.0503 16.9301 12.05H17.7601C18.4417 12.05 19.0954 12.3208 19.5774 12.8027C20.0594 13.2847 20.3301 13.9384 20.3301 14.62L20.3201 18ZM9.00014 6.42001C9.00273 6.22191 9.08258 6.03264 9.22267 5.89255C9.36277 5.75245 9.55203 5.6726 9.75014 5.67001H14.2501C14.449 5.67001 14.6398 5.74903 14.7805 5.88968C14.9211 6.03034 15.0001 6.2211 15.0001 6.42001C15.0001 6.61893 14.9211 6.80969 14.7805 6.95034C14.6398 7.091 14.449 7.17001 14.2501 7.17001H9.75014C9.55203 7.16742 9.36277 7.08757 9.22267 6.94748C9.08258 6.80738 9.00273 6.61812 9.00014 6.42001ZM14.0001 9.21001C14.0001 9.40893 13.9211 9.59969 13.7805 9.74034C13.6398 9.881 13.449 9.96001 13.2501 9.96001H10.6501C10.4512 9.96001 10.2605 9.881 10.1198 9.74034C9.97915 9.59969 9.90014 9.40893 9.90014 9.21001C9.90014 9.0111 9.97915 8.82034 10.1198 8.67968C10.2605 8.53903 10.4512 8.46001 10.6501 8.46001H13.2301C13.3303 8.45734 13.43 8.47477 13.5233 8.51126C13.6166 8.54775 13.7017 8.60257 13.7734 8.67249C13.8452 8.7424 13.9023 8.82598 13.9412 8.9183C13.9801 9.01063 14.0002 9.10982 14.0001 9.21001Z" fill="#050505"/>
</svg>
