<svg width="24" height="24" viewBox="0 0 24 24" fill="none" xmlns="http://www.w3.org/2000/svg">
<path d="M12 22.73C11.6281 22.7319 11.2596 22.6595 10.9162 22.5169C10.5727 22.3744 10.2612 22.1647 9.99998 21.9L8.58998 20.49C8.56358 20.4641 8.53231 20.4437 8.49798 20.43C8.46366 20.4163 8.42695 20.4095 8.38998 20.41H6.38998C5.64115 20.41 4.92284 20.1132 4.3924 19.5847C3.86196 19.0561 3.56263 18.3388 3.55998 17.59V15.59C3.56109 15.553 3.55455 15.5161 3.54079 15.4817C3.52703 15.4473 3.50633 15.4161 3.47998 15.39L2.07998 14C1.81633 13.7379 1.6071 13.4263 1.46432 13.0831C1.32155 12.7398 1.24805 12.3718 1.24805 12C1.24805 11.6283 1.32155 11.2602 1.46432 10.9169C1.6071 10.5737 1.81633 10.2621 2.07998 10L3.48998 8.58001C3.51798 8.55521 3.53979 8.52421 3.55368 8.48948C3.56757 8.45476 3.57315 8.41727 3.56998 8.38001V6.38001C3.57263 5.63118 3.87196 4.91392 4.4024 4.38535C4.93284 3.85679 5.65115 3.56 6.39998 3.56001H8.39998C8.43695 3.56054 8.47366 3.55374 8.50798 3.54001C8.54231 3.52628 8.57358 3.50588 8.59998 3.48001L9.99998 2.07001C10.538 1.55417 11.2546 1.26617 12 1.26617C12.7454 1.26617 13.4619 1.55417 14 2.07001L15.41 3.48001C15.4602 3.53075 15.5286 3.55952 15.6 3.56001H17.6C18.3488 3.56265 19.0661 3.86198 19.5946 4.39242C20.1232 4.92286 20.42 5.64117 20.42 6.39001V8.39001C20.4195 8.42697 20.4263 8.46368 20.44 8.49801C20.4537 8.53233 20.4741 8.5636 20.5 8.59001L21.92 10C22.4476 10.5319 22.7437 11.2508 22.7437 12C22.7437 12.7492 22.4476 13.4681 21.92 14L20.5 15.39C20.451 15.4454 20.4227 15.5161 20.42 15.59V17.59C20.42 18.3379 20.1229 19.0552 19.594 19.584C19.0652 20.1129 18.3479 20.41 17.6 20.41H15.6C15.5286 20.4105 15.4602 20.4393 15.41 20.49L14 21.9C13.7381 22.1638 13.4264 22.3729 13.0831 22.5154C12.7398 22.6579 12.3717 22.7308 12 22.73ZM6.39998 5.06001C6.04805 5.06262 5.71128 5.20359 5.46242 5.45245C5.21356 5.7013 5.0726 6.03808 5.06998 6.39001V8.39001C5.06853 8.86193 4.88179 9.31441 4.54998 9.65001L3.13998 11.05C2.89388 11.299 2.75586 11.6349 2.75586 11.985C2.75586 12.3351 2.89388 12.671 3.13998 12.92L4.54998 14.33C4.71563 14.4952 4.84688 14.6917 4.93614 14.9079C5.02539 15.1242 5.07089 15.356 5.06998 15.59V17.59C5.07262 17.941 5.21391 18.2767 5.46305 18.524C5.71219 18.7713 6.04897 18.91 6.39998 18.91H8.39998C8.87191 18.9115 9.32439 19.0982 9.65998 19.43L11.07 20.84C11.3242 21.0798 11.6605 21.2134 12.01 21.2134C12.3595 21.2134 12.6957 21.0798 12.95 20.84L14.36 19.43C14.6913 19.0979 15.1409 18.9108 15.61 18.91H17.61C17.9601 18.91 18.2958 18.7709 18.5434 18.5234C18.7909 18.2758 18.93 17.9401 18.93 17.59V15.59C18.9325 15.1183 19.1191 14.6662 19.45 14.33L20.87 12.92C21.1137 12.6698 21.2501 12.3343 21.2501 11.985C21.2501 11.6357 21.1137 11.3002 20.87 11.05L19.44 9.64001C19.1082 9.30441 18.9214 8.85193 18.92 8.38001V6.38001C18.9174 6.03073 18.7775 5.6965 18.5305 5.44952C18.2835 5.20253 17.9493 5.06262 17.6 5.06001H15.6C15.3674 5.06182 15.1368 5.01671 14.922 4.92736C14.7072 4.83801 14.5127 4.70627 14.35 4.54001L12.94 3.13001C12.6857 2.89021 12.3495 2.75665 12 2.75665C11.6505 2.75665 11.3142 2.89021 11.06 3.13001L9.64998 4.54001C9.48577 4.70702 9.28953 4.83917 9.07302 4.92852C8.85651 5.01788 8.62419 5.0626 8.38998 5.06001H6.39998ZM8.99998 15.75C8.90119 15.7522 8.80303 15.7338 8.71177 15.6959C8.6205 15.6581 8.53815 15.6015 8.46998 15.53C8.32953 15.3894 8.25064 15.1988 8.25064 15C8.25064 14.8013 8.32953 14.6106 8.46998 14.47L14.47 8.47001C14.6106 8.32956 14.8012 8.25067 15 8.25067C15.1987 8.25067 15.3894 8.32956 15.53 8.47001C15.6704 8.61063 15.7493 8.80126 15.7493 9.00001C15.7493 9.19876 15.6704 9.38938 15.53 9.53001L9.52998 15.53C9.46074 15.6001 9.37819 15.6557 9.28718 15.6935C9.19616 15.7313 9.09852 15.7505 8.99998 15.75ZM8.99998 8.00001C8.8022 8.00001 8.60886 8.05865 8.44441 8.16854C8.27996 8.27842 8.15179 8.4346 8.0761 8.61732C8.00042 8.80005 7.98061 9.00111 8.0192 9.1951C8.05778 9.38908 8.15302 9.56726 8.29288 9.70711C8.43273 9.84696 8.61091 9.94221 8.80489 9.98079C8.99887 10.0194 9.19994 9.99957 9.38267 9.92389C9.56539 9.8482 9.72157 9.72003 9.83145 9.55558C9.94133 9.39113 9.99998 9.19779 9.99998 9.00001C9.99998 8.73479 9.89463 8.48044 9.70709 8.2929C9.51955 8.10536 9.2652 8.00001 8.99998 8.00001ZM15 14C14.8022 14 14.6089 14.0587 14.4444 14.1685C14.28 14.2784 14.1518 14.4346 14.0761 14.6173C14.0004 14.8 13.9806 15.0011 14.0192 15.1951C14.0578 15.3891 14.153 15.5673 14.2929 15.7071C14.4327 15.847 14.6109 15.9422 14.8049 15.9808C14.9989 16.0194 15.1999 15.9996 15.3827 15.9239C15.5654 15.8482 15.7216 15.72 15.8315 15.5556C15.9413 15.3911 16 15.1978 16 15C16 14.7348 15.8946 14.4804 15.7071 14.2929C15.5196 14.1054 15.2652 14 15 14Z" fill="black"/>
</svg>
