<svg width="24" height="24" viewBox="0 0 24 24" fill="none" xmlns="http://www.w3.org/2000/svg">
<path d="M7.00023 22.7501H6.75023C5.94276 22.7176 5.15144 22.5136 4.42898 22.1515C3.70651 21.7894 3.06946 21.2776 2.56023 20.6501C1.66186 19.4984 1.21927 18.0562 1.31704 16.5989C1.41481 15.1416 2.04608 13.7714 3.09023 12.7501L5.74023 10.1001C6.06822 9.77336 6.5123 9.58993 6.97523 9.58993C7.43817 9.58993 7.88225 9.77336 8.21023 10.1001L8.93023 10.8201C9.25755 11.1498 9.44123 11.5955 9.44123 12.0601C9.44123 12.5246 9.25755 12.9704 8.93023 13.3001L6.13023 16.0901C6.0041 16.221 5.90755 16.3774 5.8471 16.5489C5.78664 16.7203 5.7637 16.9027 5.77981 17.0838C5.79593 17.2649 5.85073 17.4404 5.94051 17.5985C6.0303 17.7565 6.15297 17.8935 6.30023 18.0001C6.56415 18.1671 6.87782 18.2375 7.18781 18.1992C7.49779 18.1609 7.78491 18.0163 8.00023 17.7901L10.7102 15.0701C10.8788 14.9011 11.0803 14.7687 11.3022 14.681C11.5241 14.5932 11.7617 14.5521 12.0002 14.5601C12.2304 14.5588 12.4585 14.6033 12.6713 14.6908C12.8842 14.7784 13.0775 14.9073 13.2402 15.0701L13.9602 15.7901C14.2653 16.1181 14.4303 16.5522 14.4202 17.0001C14.4215 17.2302 14.377 17.4583 14.2895 17.6712C14.2019 17.884 14.073 18.0774 13.9102 18.2401L11.1102 21.0401C10.021 22.1322 8.54271 22.7472 7.00023 22.7501ZM7.00023 11.0801C6.934 11.0821 6.87047 11.1068 6.82023 11.1501L4.15023 13.8001C3.36955 14.5566 2.89434 15.5739 2.81505 16.6581C2.73576 17.7424 3.05793 18.8179 3.72023 19.6801C4.09675 20.1459 4.56768 20.5266 5.10201 20.7972C5.63634 21.0678 6.22194 21.2222 6.82023 21.2501C7.41573 21.2758 8.01011 21.178 8.56599 20.9629C9.12186 20.7478 9.62721 20.42 10.0502 20.0001L12.8502 17.2001C12.8958 17.1513 12.9209 17.0868 12.9202 17.0201C12.9203 16.9885 12.9142 16.9573 12.9022 16.9281C12.8901 16.8989 12.8725 16.8724 12.8502 16.8501L12.1302 16.1301C12.0002 16.0001 11.9002 16.0001 11.7802 16.1301L9.06024 18.8501C8.59523 19.3281 7.97731 19.6279 7.31404 19.6974C6.65077 19.7668 5.98416 19.6014 5.43023 19.2301C5.09774 18.9984 4.82034 18.6964 4.61773 18.3455C4.41511 17.9945 4.29226 17.6033 4.2579 17.1995C4.22354 16.7957 4.27851 16.3894 4.4189 16.0092C4.55929 15.6291 4.78167 15.2846 5.07023 15.0001L7.87023 12.2101C7.89425 12.1869 7.91296 12.1588 7.92504 12.1278C7.93713 12.0967 7.94231 12.0633 7.94023 12.0301C7.94303 11.9967 7.93817 11.9632 7.92604 11.932C7.91391 11.9008 7.89482 11.8728 7.87023 11.8501L7.15023 11.1301C7.10816 11.0954 7.0547 11.0776 7.00023 11.0801ZM16.9102 14.6001C16.6703 14.5918 16.4346 14.5343 16.2178 14.4311C16.0011 14.3279 15.8079 14.1812 15.6502 14.0001L14.9302 13.2901C14.6029 12.9604 14.4192 12.5146 14.4192 12.0501C14.4192 11.5855 14.6029 11.1398 14.9302 10.8101L17.8702 7.88006C17.9912 7.74954 18.0835 7.59504 18.1409 7.42659C18.1984 7.25813 18.2198 7.07948 18.2038 6.90221C18.1877 6.72495 18.1346 6.55303 18.0479 6.39762C17.9611 6.2422 17.8427 6.10675 17.7002 6.00006C17.4352 5.83422 17.1209 5.7655 16.8108 5.80562C16.5008 5.84575 16.2143 5.99222 16.0002 6.22006L13.1502 9.07006C12.8205 9.39737 12.3748 9.58106 11.9102 9.58106C11.4457 9.58106 10.9999 9.39737 10.6702 9.07006L10.0002 8.35006C9.83605 8.18901 9.70563 7.99683 9.6166 7.78478C9.52757 7.57272 9.48171 7.34505 9.48171 7.11506C9.48171 6.88507 9.52757 6.6574 9.6166 6.44534C9.70563 6.23329 9.83605 6.04111 10.0002 5.88006L12.9302 2.94006C13.5011 2.3735 14.1834 1.93164 14.9339 1.64245C15.6844 1.35327 16.4868 1.22305 17.2902 1.26006C18.0977 1.29248 18.889 1.49652 19.6115 1.85862C20.334 2.22072 20.971 2.73255 21.4802 3.36006C22.3786 4.51168 22.8212 5.95393 22.7234 7.41124C22.6257 8.86855 21.9944 10.2388 20.9502 11.2601L18.1202 14.0001C17.9621 14.1689 17.7718 14.3045 17.5606 14.3989C17.3494 14.4934 17.1215 14.5448 16.8902 14.5501L16.9102 14.6001ZM17.0002 4.29006C17.5541 4.28605 18.0956 4.45374 18.5502 4.77006C18.8841 5.00011 19.1632 5.30089 19.3677 5.65102C19.5721 6.00115 19.6969 6.39203 19.7332 6.79586C19.7695 7.19969 19.7163 7.60655 19.5776 7.98752C19.4388 8.36848 19.2178 8.71419 18.9302 9.00006L16.0002 11.9101C15.9547 11.9588 15.9296 12.0233 15.9302 12.0901C15.9302 12.1216 15.9363 12.1529 15.9483 12.182C15.9603 12.2112 15.978 12.2377 16.0002 12.2601L16.7202 12.9801C16.7427 13.004 16.7698 13.023 16.7999 13.0361C16.83 13.0491 16.8624 13.0558 16.8952 13.0558C16.928 13.0558 16.9605 13.0491 16.9906 13.0361C17.0207 13.023 17.0478 13.004 17.0702 12.9801L19.8602 10.2001C20.6416 9.44181 21.1172 8.42286 21.1965 7.33692C21.2758 6.25097 20.9532 5.17376 20.2902 4.31006C19.9119 3.84704 19.4404 3.46885 18.9063 3.20008C18.3722 2.93131 17.7875 2.77797 17.1902 2.75006C16.6014 2.72986 16.0146 2.83033 15.466 3.0453C14.9174 3.26026 14.4186 3.58518 14.0002 4.00006L11.0002 6.94006C10.9752 6.96073 10.955 6.9867 10.9412 7.01609C10.9273 7.04548 10.9202 7.07757 10.9202 7.11006C10.9201 7.14401 10.9271 7.17762 10.9409 7.20864C10.9547 7.23967 10.9749 7.26742 11.0002 7.29006L11.7102 8.01006C11.7289 8.04112 11.7553 8.06683 11.7868 8.08467C11.8184 8.10252 11.854 8.11189 11.8902 8.11189C11.9265 8.11189 11.9621 8.10252 11.9936 8.08467C12.0252 8.06683 12.0516 8.04112 12.0702 8.01006L14.9202 5.15006C15.4757 4.60431 16.2216 4.29592 17.0002 4.29006ZM6.07023 7.76006C6.12979 7.57043 6.11163 7.36491 6.01976 7.18866C5.92788 7.01241 5.7698 6.87983 5.58023 6.82006L3.48023 6.16006C3.38639 6.12918 3.2873 6.1174 3.18883 6.12543C3.09036 6.13345 2.99449 6.16112 2.90688 6.20679C2.81927 6.25246 2.74169 6.31521 2.67872 6.39134C2.61575 6.46747 2.56866 6.55544 2.54023 6.65006C2.48189 6.83584 2.49707 7.03694 2.58267 7.21185C2.66826 7.38676 2.81773 7.52214 3.00023 7.59006L5.09023 8.25006H5.32023C5.48103 8.25836 5.64032 8.21538 5.77511 8.12732C5.9099 8.03925 6.01325 7.91065 6.07023 7.76006ZM8.56024 5.30006C8.65778 5.28778 8.7519 5.25619 8.8371 5.20713C8.9223 5.15807 8.99687 5.09253 9.05646 5.01432C9.11604 4.93612 9.15944 4.84683 9.18413 4.75166C9.20881 4.6565 9.21429 4.55737 9.20023 4.46006L9.00023 3.00006C8.98674 2.90209 8.95401 2.80777 8.90392 2.7225C8.85383 2.63723 8.78737 2.56272 8.70837 2.50323C8.62937 2.44375 8.53939 2.40048 8.4436 2.37591C8.34781 2.35134 8.24811 2.34595 8.15023 2.36006C8.05269 2.37234 7.95857 2.40393 7.87337 2.45299C7.78817 2.50205 7.7136 2.56759 7.65401 2.6458C7.59443 2.724 7.55103 2.81329 7.52634 2.90846C7.50165 3.00362 7.49618 3.10275 7.51023 3.20006L7.71023 4.64006C7.73848 4.81679 7.82819 4.97789 7.96356 5.09497C8.09893 5.21205 8.27128 5.27759 8.45023 5.28006L8.56024 5.30006ZM16.4102 20.7301C16.604 20.6869 16.7732 20.5695 16.8816 20.4032C16.9899 20.2369 17.029 20.0348 16.9902 19.8401L16.5502 17.6901C16.5048 17.4976 16.387 17.33 16.2213 17.222C16.0556 17.114 15.8547 17.0739 15.6602 17.1101C15.5636 17.1303 15.472 17.1694 15.3905 17.2251C15.3091 17.2808 15.2394 17.352 15.1855 17.4347C15.1316 17.5174 15.0946 17.6099 15.0765 17.7069C15.0585 17.8039 15.0597 17.9035 15.0802 18.0001L15.5202 20.1501C15.5549 20.3176 15.6466 20.468 15.7797 20.5756C15.9128 20.6832 16.0791 20.7413 16.2502 20.7401L16.4102 20.7301ZM20.9202 15.9301C20.9658 15.7366 20.9337 15.533 20.8309 15.3629C20.7281 15.1928 20.5627 15.0697 20.3702 15.0201L19.0002 14.6801C18.9018 14.6461 18.7974 14.6329 18.6936 14.6415C18.5898 14.6501 18.489 14.6801 18.3975 14.7298C18.306 14.7795 18.2258 14.8477 18.1621 14.9301C18.0984 15.0124 18.0525 15.1072 18.0274 15.2082C18.0023 15.3093 17.9985 15.4145 18.0163 15.5171C18.0341 15.6197 18.0731 15.7174 18.1307 15.8042C18.1884 15.8909 18.2635 15.9646 18.3512 16.0207C18.4389 16.0769 18.5373 16.1141 18.6402 16.1301L20.0402 16.4801C20.0998 16.4899 20.1606 16.4899 20.2202 16.4801C20.3804 16.4752 20.5347 16.4191 20.6607 16.3201C20.7866 16.2212 20.8776 16.0845 20.9202 15.9301Z" fill="black"/>
</svg>
