<svg width="24" height="24" viewBox="0 0 24 24" fill="none" xmlns="http://www.w3.org/2000/svg">
<path d="M12 1.25C9.87386 1.25 7.79545 1.88048 6.02762 3.0617C4.2598 4.24293 2.88194 5.92185 2.0683 7.88615C1.25466 9.85046 1.04177 12.0119 1.45656 14.0972C1.87135 16.1825 2.89519 18.098 4.39861 19.6014C5.90202 21.1048 7.81749 22.1287 9.90278 22.5434C11.9881 22.9582 14.1495 22.7453 16.1139 21.9317C18.0782 21.1181 19.7571 19.7402 20.9383 17.9724C22.1195 16.2046 22.75 14.1261 22.75 12C22.7474 9.14974 21.6139 6.41697 19.5985 4.40153C17.583 2.38608 14.8503 1.25265 12 1.25ZM12 21.25C10.1705 21.25 8.38213 20.7075 6.86098 19.6911C5.33983 18.6747 4.15423 17.23 3.45412 15.5398C2.75401 13.8496 2.57083 11.9897 2.92774 10.1954C3.28465 8.40109 4.16563 6.7529 5.45927 5.45926C6.7529 4.16563 8.40109 3.28465 10.1954 2.92774C11.9897 2.57082 13.8496 2.754 15.5398 3.45411C17.23 4.15423 18.6747 5.33982 19.6911 6.86098C20.7075 8.38213 21.25 10.1705 21.25 12C21.2474 14.4524 20.272 16.8037 18.5378 18.5378C16.8037 20.272 14.4524 21.2474 12 21.25ZM19.62 13.93C19.301 15.204 18.6668 16.3773 17.7756 17.3419C16.8843 18.3065 15.7648 19.0314 14.52 19.45C14.4403 19.4596 14.3597 19.4596 14.28 19.45C14.1241 19.4521 13.9715 19.4049 13.844 19.3151C13.7164 19.2253 13.6206 19.0975 13.57 18.95C13.507 18.7667 13.5164 18.5662 13.5964 18.3896C13.6763 18.213 13.8207 18.0736 14 18C15.0028 17.6549 15.9047 17.067 16.6253 16.2888C17.3459 15.5107 17.8628 14.5664 18.13 13.54C18.1533 13.4442 18.1955 13.3541 18.2541 13.2748C18.3128 13.1956 18.3866 13.1288 18.4714 13.0785C18.5562 13.0282 18.6501 12.9954 18.7478 12.9819C18.8454 12.9684 18.9448 12.9746 19.04 13C19.1416 13.0184 19.2382 13.0579 19.3236 13.1158C19.409 13.1738 19.4813 13.249 19.536 13.3366C19.5906 13.4241 19.6263 13.5222 19.6408 13.6244C19.6552 13.7266 19.6482 13.8307 19.62 13.93ZM10.16 5.93C9.04499 6.26465 8.04365 6.89984 7.26575 7.76594C6.48786 8.63203 5.96344 9.69559 5.75 10.84C5.71763 11.0104 5.6272 11.1643 5.49409 11.2755C5.36099 11.3868 5.19345 11.4484 5.02 11.45H4.88C4.78264 11.432 4.6898 11.3949 4.60684 11.3408C4.52388 11.2868 4.45245 11.2168 4.39667 11.135C4.34089 11.0532 4.30186 10.9611 4.28184 10.8642C4.26182 10.7672 4.26119 10.6672 4.28 10.57C4.53677 9.14921 5.18187 7.82725 6.14381 6.75057C7.10576 5.6739 8.347 4.88456 9.73 4.47C9.82456 4.44177 9.92374 4.43243 10.0219 4.44253C10.1201 4.45263 10.2153 4.48196 10.3021 4.52886C10.3889 4.57575 10.4657 4.63928 10.5279 4.71583C10.5902 4.79238 10.6368 4.88045 10.665 4.975C10.6932 5.06955 10.7026 5.16874 10.6925 5.2669C10.6824 5.36506 10.653 5.46027 10.6061 5.54709C10.5593 5.63391 10.4957 5.71065 10.4192 5.77292C10.3426 5.83518 10.2546 5.88177 10.16 5.91V5.93ZM15.31 12C15.31 11.3453 15.1159 10.7054 14.7522 10.1611C14.3885 9.61674 13.8715 9.19248 13.2667 8.94196C12.6619 8.69143 11.9963 8.62588 11.3543 8.7536C10.7122 8.88132 10.1224 9.19656 9.65948 9.65948C9.19657 10.1224 8.88132 10.7122 8.75361 11.3543C8.62589 11.9963 8.69144 12.6619 8.94196 13.2667C9.19249 13.8715 9.61674 14.3885 10.1611 14.7522C10.7054 15.1159 11.3453 15.31 12 15.31C12.8779 15.31 13.7198 14.9613 14.3405 14.3405C14.9613 13.7198 15.31 12.8779 15.31 12ZM12 13.81C11.642 13.81 11.2921 13.7038 10.9944 13.505C10.6968 13.3061 10.4648 13.0234 10.3278 12.6927C10.1908 12.3619 10.1549 11.998 10.2248 11.6469C10.2946 11.2958 10.467 10.9733 10.7201 10.7201C10.9733 10.467 11.2958 10.2946 11.6469 10.2248C11.998 10.1549 12.3619 10.1908 12.6927 10.3278C13.0234 10.4648 13.3061 10.6968 13.505 10.9944C13.7038 11.2921 13.81 11.642 13.81 12C13.81 12.48 13.6193 12.9404 13.2799 13.2799C12.9404 13.6193 12.48 13.81 12 13.81Z" fill="black"/>
</svg>
