<svg width="24" height="24" viewBox="0 0 24 24" fill="none" xmlns="http://www.w3.org/2000/svg">
<path d="M20.3098 2.83003H18.2098C17.8346 2.83137 17.4652 2.92292 17.1328 3.09696C16.8003 3.271 16.5147 3.52243 16.2998 3.83003L14.3898 2.29003C13.6915 1.79449 12.8561 1.52885 11.9998 1.53003H6.92978C6.28748 1.52961 5.66199 1.73535 5.14535 2.11698C4.62871 2.49861 4.24819 3.03598 4.05978 3.65003L1.45978 12.13C1.34455 12.5067 1.31888 12.9051 1.3848 13.2935C1.45073 13.6819 1.60643 14.0495 1.83951 14.3671C2.07259 14.6846 2.37661 14.9434 2.72735 15.1227C3.07809 15.3021 3.46587 15.397 3.85978 15.4H7.92978C7.99475 15.3999 8.05894 15.4142 8.11772 15.4419C8.17651 15.4696 8.22844 15.5099 8.26978 15.56C8.31219 15.6107 8.34237 15.6704 8.35797 15.7345C8.37358 15.7987 8.3742 15.8656 8.35978 15.93L7.83978 18.93C7.70984 19.6086 7.82303 20.3113 8.1595 20.9147C8.49597 21.5182 9.03422 21.9839 9.67978 22.23C10.0421 22.3772 10.4288 22.4553 10.8198 22.46C11.3108 22.4568 11.7931 22.3306 12.2228 22.0931C12.6526 21.8555 13.0159 21.5141 13.2798 21.1L16.0798 16.86C16.262 17.2732 16.5602 17.6245 16.9384 17.8713C17.3165 18.1181 17.7582 18.2497 18.2098 18.25H20.3098C20.9304 18.25 21.5256 18.0035 21.9644 17.5647C22.4032 17.1258 22.6498 16.5306 22.6498 15.91V5.17003C22.6498 4.54943 22.4032 3.95424 21.9644 3.5154C21.5256 3.07657 20.9304 2.83003 20.3098 2.83003ZM11.9998 20.29C11.8108 20.5755 11.5293 20.7872 11.2025 20.8895C10.8758 20.9918 10.5238 20.9784 10.2058 20.8517C9.88771 20.7249 9.62302 20.4925 9.4562 20.1935C9.28938 19.8946 9.23061 19.5472 9.28978 19.21L9.80978 16.21C9.8605 15.9304 9.84917 15.6431 9.7766 15.3683C9.70402 15.0936 9.57197 14.8381 9.38978 14.62C9.20643 14.4056 8.97977 14.2323 8.72469 14.1117C8.46961 13.991 8.1919 13.9257 7.90978 13.92H3.83978C3.67944 13.9209 3.52125 13.8832 3.37854 13.8101C3.23582 13.737 3.11278 13.6307 3.01978 13.5C2.92189 13.3724 2.85624 13.223 2.82838 13.0646C2.80053 12.9062 2.8113 12.7434 2.85978 12.59L5.45978 4.11003C5.54803 3.78876 5.74005 3.5057 6.00593 3.30493C6.27181 3.10416 6.59663 2.99696 6.92978 3.00003H11.9998C12.5318 2.99731 13.0519 3.15786 13.4898 3.46003L15.8598 5.35003V7.26003V14.45L11.9998 20.29ZM21.1198 15.93C21.1172 16.152 21.0279 16.3642 20.8709 16.5211C20.7139 16.6781 20.5018 16.7674 20.2798 16.77H18.1798C17.957 16.77 17.7433 16.6815 17.5858 16.524C17.4283 16.3665 17.3398 16.1528 17.3398 15.93V5.17003C17.3398 4.94725 17.4283 4.73359 17.5858 4.57606C17.7433 4.41853 17.957 4.33003 18.1798 4.33003H20.2798C20.5018 4.33263 20.7139 4.42196 20.8709 4.57893C21.0279 4.73591 21.1172 4.94806 21.1198 5.17003V15.93Z" fill="black"/>
</svg>
