<svg width="24" height="24" viewBox="0 0 24 24" fill="none" xmlns="http://www.w3.org/2000/svg">
<path d="M12.1001 17.2399H8.57014C7.06371 17.2399 5.61898 16.6415 4.55377 15.5763C3.48856 14.5111 2.89014 13.0664 2.89014 11.5599C2.89014 10.0535 3.48856 8.60876 4.55377 7.54356C5.61898 6.47835 7.06371 5.87992 8.57014 5.87992H10.0001V3.06992C10.0001 2.49971 10.2267 1.95285 10.6299 1.54964C11.0331 1.14644 11.5799 0.919922 12.1501 0.919922C12.7204 0.919922 13.2672 1.14644 13.6704 1.54964C14.0736 1.95285 14.3001 2.49971 14.3001 3.06992V15.0699C14.3029 15.3582 14.2477 15.6441 14.1377 15.9106C14.0277 16.1771 13.8653 16.4187 13.66 16.6212C13.4548 16.8236 13.2109 16.9827 12.9429 17.089C12.675 17.1953 12.3883 17.2466 12.1001 17.2399ZM8.57014 7.37992C7.46153 7.37992 6.39833 7.82031 5.61443 8.60422C4.83053 9.38812 4.39014 10.4513 4.39014 11.5599C4.39014 12.6685 4.83053 13.7317 5.61443 14.5156C6.39833 15.2995 7.46153 15.7399 8.57014 15.7399H12.1001C12.2725 15.7399 12.4379 15.6714 12.5598 15.5495C12.6817 15.4276 12.7501 15.2623 12.7501 15.0899V3.08992C12.7501 2.91753 12.6817 2.7522 12.5598 2.6303C12.4379 2.5084 12.2725 2.43992 12.1001 2.43992C11.9277 2.43992 11.7624 2.5084 11.6405 2.6303C11.5186 2.7522 11.4501 2.91753 11.4501 3.08992V6.62992C11.4501 6.82883 11.3711 7.0196 11.2305 7.16025C11.0898 7.3009 10.899 7.37992 10.7001 7.37992H8.57014ZM10.7001 14.4399H8.57014C7.80631 14.4399 7.07377 14.1365 6.53367 13.5964C5.99356 13.0563 5.69014 12.3237 5.69014 11.5599C5.69014 10.7961 5.99356 10.0636 6.53367 9.52345C7.07377 8.98335 7.80631 8.67992 8.57014 8.67992H10.7001C10.8982 8.68251 11.0875 8.76236 11.2276 8.90246C11.3677 9.04255 11.4475 9.23182 11.4501 9.42992V13.6899C11.4501 13.8888 11.3711 14.0796 11.2305 14.2203C11.0898 14.3609 10.899 14.4399 10.7001 14.4399ZM8.57014 10.1799C8.20414 10.1799 7.85313 10.3253 7.59433 10.5841C7.33553 10.8429 7.19014 11.1939 7.19014 11.5599C7.19014 11.9259 7.33553 12.2769 7.59433 12.5357C7.85313 12.7945 8.20414 12.9399 8.57014 12.9399H10.0001V10.1799H8.57014ZM16.0501 23.0799C15.5429 23.078 15.0527 22.8968 14.6661 22.5683C14.2796 22.2399 14.0216 21.7853 13.9379 21.285C13.8541 20.7848 13.9499 20.271 14.2083 19.8345C14.4668 19.398 14.8712 19.067 15.3501 18.8999C15.7757 18.767 16.1473 18.5009 16.4102 18.1409C16.673 17.7808 16.8133 17.3457 16.8101 16.8999V7.89992C16.8101 7.61758 16.8657 7.338 16.9738 7.07715C17.0818 6.8163 17.2402 6.57929 17.4399 6.37964C17.6395 6.18 17.8765 6.02163 18.1374 5.91358C18.3982 5.80553 18.6778 5.74992 18.9601 5.74992C19.2425 5.74992 19.5221 5.80553 19.7829 5.91358C20.0438 6.02163 20.2808 6.18 20.4804 6.37964C20.6801 6.57929 20.8384 6.8163 20.9465 7.07715C21.0545 7.338 21.1101 7.61758 21.1101 7.89992V16.8999C21.1188 18.2464 20.7018 19.5612 19.9189 20.6566C19.1359 21.7521 18.0269 22.5722 16.7501 22.9999C16.5228 23.0649 16.2863 23.0919 16.0501 23.0799ZM19.0001 7.26992C18.8277 7.26992 18.6624 7.3384 18.5405 7.4603C18.4186 7.5822 18.3501 7.74753 18.3501 7.91992V16.9199C18.3452 17.6712 18.104 18.402 17.6607 19.0086C17.2174 19.6152 16.5945 20.067 15.8801 20.2999C15.7978 20.3262 15.7214 20.3686 15.6557 20.4248C15.5899 20.4809 15.536 20.5496 15.4971 20.6268C15.4582 20.7041 15.4351 20.7883 15.4292 20.8746C15.4232 20.9608 15.4345 21.0474 15.4625 21.1292C15.4904 21.2111 15.5344 21.2865 15.5919 21.3511C15.6493 21.4157 15.7191 21.4683 15.7971 21.5056C15.8751 21.5429 15.9598 21.5643 16.0462 21.5684C16.1326 21.5726 16.2189 21.5595 16.3001 21.5299C17.2727 21.212 18.1202 20.5952 18.7217 19.7674C19.3232 18.9397 19.6481 17.9432 19.6501 16.9199V7.91992C19.6501 7.83456 19.6333 7.75004 19.6007 7.67118C19.568 7.59232 19.5201 7.52066 19.4598 7.4603C19.3994 7.39994 19.3277 7.35207 19.2489 7.3194C19.17 7.28673 19.0855 7.26992 19.0001 7.26992ZM19.0001 5.19992C18.5753 5.20786 18.1577 5.08914 17.8005 4.85887C17.4434 4.62861 17.1629 4.29723 16.9947 3.90696C16.8266 3.51669 16.7785 3.08521 16.8565 2.66749C16.9345 2.24977 17.1351 1.86473 17.4327 1.56143C17.7304 1.25813 18.1115 1.05031 18.5277 0.96444C18.9439 0.878574 19.3762 0.918553 19.7696 1.07928C20.1629 1.24001 20.4996 1.51421 20.7365 1.86695C20.9735 2.21969 21.1001 2.63498 21.1001 3.05992C21.1002 3.62062 20.8803 4.15896 20.4876 4.55916C20.0948 4.95936 19.5607 5.18944 19.0001 5.19992ZM19.0001 2.41992C18.8736 2.41992 18.7498 2.45746 18.6446 2.52778C18.5393 2.59811 18.4573 2.69806 18.4089 2.815C18.3604 2.93195 18.3477 3.06063 18.3724 3.18478C18.3971 3.30893 18.4581 3.42296 18.5476 3.51247C18.6371 3.60198 18.7511 3.66293 18.8753 3.68762C18.9994 3.71232 19.1281 3.69964 19.2451 3.6512C19.362 3.60276 19.462 3.52073 19.5323 3.41549C19.6026 3.31024 19.6401 3.1865 19.6401 3.05992C19.6401 2.97588 19.6236 2.89265 19.5914 2.815C19.5593 2.73736 19.5121 2.6668 19.4527 2.60737C19.3933 2.54794 19.3227 2.5008 19.2451 2.46864C19.1674 2.43648 19.0842 2.41992 19.0001 2.41992Z" fill="black"/>
</svg>
