<svg width="24" height="24" viewBox="0 0 24 24" fill="none" xmlns="http://www.w3.org/2000/svg">
<path d="M15.9999 16.51C16.0138 16.6952 15.9546 16.8785 15.8349 17.0206C15.7153 17.1627 15.5447 17.2522 15.3599 17.27H7.87985C7.69945 17.2406 7.53538 17.148 7.41697 17.0088C7.29856 16.8696 7.23355 16.6928 7.23355 16.51C7.23355 16.3272 7.29856 16.1504 7.41697 16.0111C7.53538 15.8719 7.69945 15.7793 7.87985 15.75H15.3499C15.5365 15.7653 15.7096 15.8538 15.8314 15.9961C15.9531 16.1385 16.0137 16.3232 15.9999 16.51ZM8.09985 13.18H11.2599C11.4597 13.1773 11.6504 13.0961 11.7908 12.9539C11.9312 12.8116 12.0099 12.6198 12.0099 12.42C12.0099 12.2192 11.9315 12.0263 11.7914 11.8825C11.6513 11.7386 11.4606 11.6552 11.2599 11.65H8.08985C7.99005 11.6513 7.89147 11.6722 7.79976 11.7116C7.70806 11.751 7.62501 11.8081 7.55536 11.8796C7.48572 11.9511 7.43084 12.0357 7.39386 12.1284C7.35688 12.2211 7.33853 12.3202 7.33985 12.42C7.33853 12.5193 7.35695 12.6179 7.39405 12.7101C7.43114 12.8022 7.48618 12.8861 7.55596 12.9568C7.62573 13.0275 7.70886 13.0836 7.80051 13.1219C7.89216 13.1603 7.99051 13.18 8.08985 13.18H8.09985ZM22.7599 10.47C22.7656 10.4201 22.7656 10.3698 22.7599 10.32C22.7926 10.1937 22.7924 10.0612 22.7591 9.93511C22.7258 9.80901 22.6606 9.6936 22.5699 9.59998L14.5699 1.46998C14.5069 1.40871 14.432 1.36105 14.3499 1.32998H14.2899C14.2202 1.32051 14.1495 1.32051 14.0799 1.32998H7.58985C5.90183 1.3457 4.2877 2.0246 3.09591 3.22013C1.90412 4.41566 1.23028 6.03192 1.21985 7.71998V16.28C1.20919 17.9819 1.87371 19.6186 3.06776 20.8314C4.26181 22.0442 5.88798 22.7341 7.58985 22.75H16.4099C18.1117 22.7341 19.7379 22.0442 20.9319 20.8314C22.126 19.6186 22.7905 17.9819 22.7799 16.28L22.7599 10.47ZM14.7599 3.84998L20.1999 9.37998H17.2799C16.6044 9.37206 15.9594 9.09749 15.4855 8.61609C15.0116 8.13469 14.7472 7.48549 14.7499 6.80998L14.7599 3.84998ZM16.4199 21.23H7.58985C6.94506 21.2247 6.3076 21.0926 5.7139 20.841C5.12019 20.5894 4.58185 20.2233 4.12963 19.7636C3.6774 19.304 3.32014 18.7597 3.07825 18.162C2.83636 17.5643 2.71458 16.9248 2.71985 16.28V7.71998C2.71458 7.07518 2.83636 6.43566 3.07825 5.83793C3.32014 5.2402 3.6774 4.69597 4.12963 4.23632C4.58185 3.77666 5.12019 3.41059 5.7139 3.15899C6.3076 2.90739 6.94506 2.77521 7.58985 2.76998H13.2499V6.76998C13.2444 7.84085 13.6613 8.8707 14.41 9.63631C15.1588 10.4019 16.1791 10.8416 17.2499 10.86H21.2499V16.24C21.2604 16.8856 21.1436 17.527 20.9059 18.1274C20.6683 18.7278 20.3146 19.2755 19.865 19.739C19.4154 20.2025 18.8788 20.5728 18.2859 20.8286C17.693 21.0845 17.0555 21.2209 16.4099 21.23H16.4199Z" fill="black"/>
</svg>
