<svg width="24" height="24" viewBox="0 0 24 24" fill="none" xmlns="http://www.w3.org/2000/svg">
<path d="M20.9999 7.6C21.1831 7.78693 21.2857 8.03825 21.2857 8.3C21.2857 8.56175 21.1831 8.81307 20.9999 9L13.6499 16.4C13.4625 16.5862 13.209 16.6908 12.9449 16.6908C12.6807 16.6908 12.4272 16.5862 12.2399 16.4L10.5399 14.69L8.82985 16.4C8.64249 16.5862 8.38904 16.6908 8.12486 16.6908C7.86067 16.6908 7.60722 16.5862 7.41986 16.4L2.82986 11.81C2.6436 11.6226 2.53906 11.3692 2.53906 11.105C2.53906 10.8408 2.6436 10.5874 2.82986 10.4C2.92282 10.3063 3.03342 10.2319 3.15528 10.1811C3.27714 10.1303 3.40784 10.1042 3.53986 10.1042C3.67187 10.1042 3.80257 10.1303 3.92443 10.1811C4.04629 10.2319 4.15689 10.3063 4.24986 10.4L8.11985 14.27L9.11985 13.27L7.64986 11.81C7.4636 11.6226 7.35906 11.3692 7.35906 11.105C7.35906 10.8408 7.4636 10.5874 7.64986 10.4C7.74282 10.3063 7.85342 10.2319 7.97528 10.1811C8.09714 10.1303 8.22784 10.1042 8.35985 10.1042C8.49187 10.1042 8.62257 10.1303 8.74443 10.1811C8.86629 10.2319 8.97689 10.3063 9.06985 10.4L10.5399 11.86L14.7899 7.6C14.8788 7.49473 14.9885 7.40898 15.1121 7.34812C15.2357 7.28726 15.3706 7.25261 15.5083 7.24634C15.6459 7.24006 15.7834 7.26231 15.912 7.31167C16.0407 7.36104 16.1577 7.43645 16.2559 7.5332C16.354 7.62994 16.4311 7.74592 16.4822 7.87385C16.5334 8.00179 16.5576 8.13892 16.5533 8.27665C16.549 8.41437 16.5162 8.54972 16.4571 8.6742C16.398 8.79868 16.3138 8.9096 16.2099 9L11.9999 13.28L12.9999 14.28L19.6199 7.6C19.8058 7.42271 20.0529 7.32381 20.3099 7.32381C20.5668 7.32381 20.8139 7.42271 20.9999 7.6Z" fill="black"/>
</svg>
