<svg width="24" height="25" viewBox="0 0 24 25" fill="none" xmlns="http://www.w3.org/2000/svg">
<path d="M15.15 12.35C14.7689 12.0843 14.3512 11.8754 13.91 11.73C13.56 11.61 13.17 11.5 12.76 11.39V8.67C12.8897 8.7129 13.0114 8.77711 13.12 8.86C13.4145 9.12281 13.6526 9.44258 13.82 9.8C13.9288 10.0208 14.0667 10.2259 14.23 10.41C14.3901 10.5405 14.594 10.6049 14.8 10.59C14.9284 10.5926 15.0558 10.5671 15.1732 10.5153C15.2907 10.4635 15.3954 10.3866 15.48 10.29C15.6574 10.1006 15.7543 9.84953 15.75 9.59C15.7472 9.28978 15.6717 8.99471 15.53 8.73C15.3645 8.39988 15.1291 8.10981 14.84 7.88C14.4899 7.58719 14.0856 7.3663 13.65 7.23C13.3719 7.12439 13.0837 7.04733 12.79 7V6.5C12.7913 6.40067 12.7729 6.30207 12.7358 6.20992C12.6987 6.11776 12.6437 6.0339 12.5739 5.96319C12.5041 5.89249 12.421 5.83635 12.3293 5.79803C12.2377 5.75972 12.1393 5.73999 12.04 5.74C11.942 5.73868 11.8447 5.75684 11.7537 5.79343C11.6628 5.83003 11.58 5.88433 11.5103 5.95317C11.4405 6.02202 11.3851 6.10405 11.3473 6.19449C11.3095 6.28492 11.29 6.38197 11.29 6.48V7C10.7944 7.03408 10.3062 7.13846 9.84 7.31C9.27645 7.52829 8.79196 7.91169 8.45 8.41C8.13242 8.87758 7.97456 9.43533 8 10C7.9804 10.5484 8.13822 11.0885 8.45 11.54C8.76293 11.9776 9.18776 12.323 9.68001 12.54C10.1958 12.7659 10.7314 12.9433 11.28 13.07V16.38C11.1426 16.3502 11.0086 16.3067 10.88 16.25C10.613 16.1183 10.3828 15.9225 10.21 15.68C10.0371 15.411 9.88981 15.1265 9.77001 14.83C9.6883 14.5855 9.55144 14.3631 9.37 14.18C9.2103 14.039 9.00297 13.9639 8.79 13.97C8.66167 13.9647 8.5337 13.987 8.41469 14.0353C8.29567 14.0836 8.18838 14.1568 8.10001 14.25C8.00886 14.3357 7.93681 14.4397 7.88857 14.5551C7.84032 14.6706 7.81696 14.7949 7.82 14.92C7.83922 15.4174 7.99869 15.8993 8.28 16.31C8.56432 16.7602 8.94732 17.1397 9.4 17.42C9.95917 17.7257 10.5753 17.9129 11.21 17.97V18.46C11.2087 18.5593 11.2271 18.6579 11.2642 18.7501C11.3013 18.8422 11.3563 18.9261 11.4261 18.9968C11.4959 19.0675 11.579 19.1237 11.6707 19.162C11.7623 19.2003 11.8607 19.22 11.96 19.22C12.058 19.2213 12.1553 19.2032 12.2463 19.1666C12.3372 19.13 12.42 19.0757 12.4897 19.0068C12.5595 18.938 12.6149 18.856 12.6527 18.7655C12.6905 18.6751 12.71 18.578 12.71 18.48V18C13.2491 17.9572 13.7785 17.8324 14.28 17.63C14.8737 17.3767 15.3809 16.9563 15.74 16.42C16.0728 15.9012 16.2466 15.2964 16.24 14.68C16.2773 14.1974 16.1949 13.7131 16 13.27C15.7983 12.8969 15.506 12.5806 15.15 12.35ZM11.24 11C11.0266 10.9305 10.8192 10.8435 10.62 10.74C10.4374 10.6364 10.2749 10.5009 10.14 10.34C10.0374 10.1683 9.98861 9.96973 10 9.77C10.0044 9.59232 10.0534 9.41861 10.1426 9.26484C10.2317 9.11106 10.358 8.98216 10.51 8.89C10.7519 8.73354 11.0248 8.63121 11.31 8.59V10.99L11.24 11ZM13.51 16C13.2715 16.1662 13.0033 16.285 12.72 16.35V13.46L12.93 13.52C13.2435 13.6161 13.5285 13.7878 13.76 14.02C13.8703 14.1336 13.9565 14.2683 14.0132 14.4162C14.0699 14.564 14.0961 14.7218 14.09 14.88C14.0918 15.0998 14.0399 15.3167 13.9388 15.5119C13.8378 15.7071 13.6906 15.8746 13.51 16ZM12 1.75C9.87386 1.75 7.79545 2.38048 6.02762 3.5617C4.2598 4.74293 2.88194 6.42185 2.0683 8.38615C1.25466 10.3505 1.04177 12.5119 1.45656 14.5972C1.87135 16.6825 2.89519 18.598 4.39861 20.1014C5.90202 21.6048 7.81749 22.6287 9.90278 23.0434C11.9881 23.4582 14.1495 23.2453 16.1139 22.4317C18.0782 21.6181 19.7571 20.2402 20.9383 18.4724C22.1195 16.7046 22.75 14.6261 22.75 12.5C22.7474 9.64974 21.6139 6.91697 19.5985 4.90153C17.583 2.88608 14.8503 1.75265 12 1.75ZM12 21.75C10.1705 21.75 8.38213 21.2075 6.86098 20.1911C5.33983 19.1747 4.15423 17.73 3.45412 16.0398C2.75401 14.3496 2.57083 12.4897 2.92774 10.6954C3.28465 8.90109 4.16563 7.2529 5.45927 5.95926C6.7529 4.66563 8.40109 3.78465 10.1954 3.42774C11.9897 3.07082 13.8496 3.254 15.5398 3.95411C17.23 4.65423 18.6747 5.83982 19.6911 7.36098C20.7075 8.88213 21.25 10.6705 21.25 12.5C21.2474 14.9524 20.272 17.3037 18.5378 19.0378C16.8037 20.772 14.4524 21.7474 12 21.75Z" fill="black"/>
</svg>
