<svg width="24" height="24" viewBox="0 0 24 24" fill="none" xmlns="http://www.w3.org/2000/svg">
<path d="M12 22.75C9.87386 22.75 7.79545 22.1195 6.02762 20.9383C4.2598 19.7571 2.88194 18.0782 2.0683 16.1139C1.25466 14.1495 1.04177 11.9881 1.45656 9.90278C1.87135 7.81749 2.89519 5.90202 4.39861 4.39861C5.90202 2.89519 7.81749 1.87135 9.90278 1.45656C11.9881 1.04177 14.1495 1.25466 16.1139 2.0683C18.0782 2.88194 19.7571 4.2598 20.9383 6.02762C22.1195 7.79545 22.75 9.87386 22.75 12C22.7474 14.8503 21.6139 17.583 19.5985 19.5985C17.583 21.6139 14.8503 22.7474 12 22.75ZM12 2.75C10.1705 2.75 8.38213 3.29251 6.86098 4.30891C5.33983 5.32531 4.15423 6.76997 3.45412 8.46018C2.75401 10.1504 2.57083 12.0103 2.92774 13.8046C3.28465 15.5989 4.16563 17.2471 5.45927 18.5407C6.7529 19.8344 8.40109 20.7154 10.1954 21.0723C11.9897 21.4292 13.8496 21.246 15.5398 20.5459C17.23 19.8458 18.6747 18.6602 19.6911 17.139C20.7075 15.6179 21.25 13.8295 21.25 12C21.2474 9.54756 20.272 7.19633 18.5378 5.46219C16.8037 3.72805 14.4524 2.75265 12 2.75ZM13.34 7C13.338 7.2646 13.2578 7.52268 13.1093 7.74172C12.9609 7.96077 12.7509 8.13096 12.5059 8.23085C12.2609 8.33074 11.9918 8.35585 11.7325 8.30303C11.4732 8.2502 11.2354 8.12179 11.049 7.934C10.8626 7.7462 10.736 7.50743 10.6851 7.24777C10.6342 6.98811 10.6613 6.7192 10.763 6.47493C10.8647 6.23066 11.0365 6.02196 11.2566 5.87516C11.4767 5.72836 11.7354 5.65001 12 5.65C12.1768 5.65 12.3519 5.68499 12.5151 5.75295C12.6784 5.82092 12.8265 5.92052 12.9511 6.04601C13.0756 6.1715 13.1741 6.32041 13.2409 6.48414C13.3076 6.64787 13.3413 6.82319 13.34 7ZM13.34 11.89C13.338 12.1546 13.2578 12.4127 13.1093 12.6317C12.9609 12.8508 12.7509 13.021 12.5059 13.1209C12.2609 13.2207 11.9918 13.2459 11.7325 13.193C11.4732 13.1402 11.2354 13.0118 11.049 12.824C10.8626 12.6362 10.736 12.3974 10.6851 12.1378C10.6342 11.8781 10.6613 11.6092 10.763 11.3649C10.8647 11.1207 11.0365 10.912 11.2566 10.7652C11.4767 10.6184 11.7354 10.54 12 10.54C12.3554 10.54 12.6962 10.6812 12.9475 10.9325C13.1988 11.1838 13.34 11.5246 13.34 11.88V11.89ZM13.34 17.02C13.338 17.2846 13.2578 17.5427 13.1093 17.7617C12.9609 17.9808 12.7509 18.151 12.5059 18.2509C12.2609 18.3507 11.9918 18.3759 11.7325 18.323C11.4732 18.2702 11.2354 18.1418 11.049 17.954C10.8626 17.7662 10.736 17.5274 10.6851 17.2678C10.6342 17.0081 10.6613 16.7392 10.763 16.4949C10.8647 16.2507 11.0365 16.042 11.2566 15.8952C11.4767 15.7484 11.7354 15.67 12 15.67C12.3537 15.67 12.693 15.8098 12.944 16.0589C13.195 16.3081 13.3374 16.6463 13.34 17V17.02Z" fill="black"/>
</svg>
