<svg width="24" height="24" viewBox="0 0 24 24" fill="none" xmlns="http://www.w3.org/2000/svg">
<path d="M12.1198 13.28C12.8598 13.28 13.4598 12.6801 13.4598 11.94C13.4598 11.1999 12.8598 10.6 12.1198 10.6C11.3797 10.6 10.7798 11.1999 10.7798 11.94C10.7798 12.6801 11.3797 13.28 12.1198 13.28Z" fill="black"/>
<path d="M7.09977 13.28C7.83983 13.28 8.43976 12.6801 8.43976 11.94C8.43976 11.1999 7.83983 10.6 7.09977 10.6C6.3597 10.6 5.75977 11.1999 5.75977 11.94C5.75977 12.6801 6.3597 13.28 7.09977 13.28Z" fill="black"/>
<path d="M17.1295 13.28C17.8696 13.28 18.4696 12.6801 18.4696 11.94C18.4696 11.1999 17.8696 10.6 17.1295 10.6C16.3895 10.6 15.7896 11.1999 15.7896 11.94C15.7896 12.6801 16.3895 13.28 17.1295 13.28Z" fill="black"/>
</svg>
