<svg width="24" height="24" viewBox="0 0 24 24" fill="none" xmlns="http://www.w3.org/2000/svg">
<path d="M12.0002 13.46C12.7402 13.46 13.3402 12.8601 13.3402 12.12C13.3402 11.3799 12.7402 10.78 12.0002 10.78C11.2601 10.78 10.6602 11.3799 10.6602 12.12C10.6602 12.8601 11.2601 13.46 12.0002 13.46Z" fill="black"/>
<path d="M12.0002 8.44001C12.7402 8.44001 13.3402 7.84007 13.3402 7.10001C13.3402 6.35995 12.7402 5.76001 12.0002 5.76001C11.2601 5.76001 10.6602 6.35995 10.6602 7.10001C10.6602 7.84007 11.2601 8.44001 12.0002 8.44001Z" fill="black"/>
<path d="M12.0002 18.47C12.7402 18.47 13.3402 17.8701 13.3402 17.13C13.3402 16.3899 12.7402 15.79 12.0002 15.79C11.2601 15.79 10.6602 16.3899 10.6602 17.13C10.6602 17.8701 11.2601 18.47 12.0002 18.47Z" fill="black"/>
</svg>
