<svg width="24" height="24" viewBox="0 0 24 24" fill="none" xmlns="http://www.w3.org/2000/svg">
<path d="M16.25 22.75H7.75C6.02691 22.7474 4.37514 22.0617 3.15673 20.8433C1.93831 19.6249 1.25264 17.9731 1.25 16.25V7.75C1.25264 6.02691 1.93831 4.37514 3.15673 3.15673C4.37514 1.93831 6.02691 1.25264 7.75 1.25H16.25C17.9731 1.25264 19.6249 1.93831 20.8433 3.15673C22.0617 4.37514 22.7474 6.02691 22.75 7.75V16.25C22.7474 17.9731 22.0617 19.6249 20.8433 20.8433C19.6249 22.0617 17.9731 22.7474 16.25 22.75ZM7.75 2.75C6.42392 2.75 5.15215 3.27678 4.21447 4.21447C3.27678 5.15215 2.75 6.42392 2.75 7.75V16.25C2.75 17.5761 3.27678 18.8479 4.21447 19.7855C5.15215 20.7232 6.42392 21.25 7.75 21.25H16.25C17.5761 21.25 18.8479 20.7232 19.7855 19.7855C20.7232 18.8479 21.25 17.5761 21.25 16.25V7.75C21.25 6.42392 20.7232 5.15215 19.7855 4.21447C18.8479 3.27678 17.5761 2.75 16.25 2.75H7.75ZM11.88 13C12.145 13 12.4041 12.9214 12.6245 12.7742C12.8448 12.6269 13.0166 12.4176 13.118 12.1728C13.2194 11.9279 13.246 11.6585 13.1943 11.3986C13.1425 11.1386 13.0149 10.8999 12.8275 10.7125C12.6401 10.5251 12.4014 10.3975 12.1414 10.3457C11.8815 10.294 11.6121 10.3206 11.3672 10.422C11.1224 10.5234 10.9131 10.6952 10.7658 10.9155C10.6186 11.1359 10.54 11.395 10.54 11.66C10.54 12.0154 10.6812 12.3562 10.9325 12.6075C11.1838 12.8588 11.5246 13 11.88 13ZM11.88 18C12.145 18 12.4041 17.9214 12.6245 17.7742C12.8448 17.6269 13.0166 17.4176 13.118 17.1728C13.2194 16.9279 13.246 16.6585 13.1943 16.3986C13.1425 16.1386 13.0149 15.8999 12.8275 15.7125C12.6401 15.5251 12.4014 15.3975 12.1414 15.3457C11.8815 15.294 11.6121 15.3206 11.3672 15.422C11.1224 15.5234 10.9131 15.6952 10.7658 15.9155C10.6186 16.1359 10.54 16.395 10.54 16.66C10.54 17.0154 10.6812 17.3562 10.9325 17.6075C11.1838 17.8588 11.5246 18 11.88 18ZM11.88 8C12.145 8 12.4041 7.92141 12.6245 7.77417C12.8448 7.62693 13.0166 7.41765 13.118 7.1728C13.2194 6.92794 13.246 6.65851 13.1943 6.39858C13.1425 6.13864 13.0149 5.89988 12.8275 5.71248C12.6401 5.52507 12.4014 5.39745 12.1414 5.34575C11.8815 5.29404 11.6121 5.32058 11.3672 5.422C11.1224 5.52342 10.9131 5.69517 10.7658 5.91554C10.6186 6.1359 10.54 6.39497 10.54 6.66C10.54 7.01539 10.6812 7.35622 10.9325 7.60752C11.1838 7.85882 11.5246 8 11.88 8Z" fill="black"/>
</svg>
