<svg width="24" height="24" viewBox="0 0 24 24" fill="none" xmlns="http://www.w3.org/2000/svg">
<path d="M12 22.75C9.87386 22.75 7.79545 22.1195 6.02762 20.9383C4.2598 19.7571 2.88194 18.0782 2.0683 16.1139C1.25466 14.1495 1.04177 11.9881 1.45656 9.90278C1.87135 7.81749 2.89519 5.90202 4.39861 4.39861C5.90202 2.89519 7.81749 1.87135 9.90278 1.45656C11.9881 1.04177 14.1495 1.25466 16.1139 2.0683C18.0782 2.88194 19.7571 4.2598 20.9383 6.02762C22.1195 7.79545 22.75 9.87386 22.75 12C22.7474 14.8503 21.6139 17.583 19.5985 19.5985C17.583 21.6139 14.8503 22.7474 12 22.75ZM12 2.75C10.1705 2.75 8.38213 3.29251 6.86098 4.30891C5.33983 5.32531 4.15423 6.76997 3.45412 8.46018C2.75401 10.1504 2.57083 12.0103 2.92774 13.8046C3.28465 15.5989 4.16563 17.2471 5.45927 18.5407C6.7529 19.8344 8.40109 20.7154 10.1954 21.0723C11.9897 21.4292 13.8496 21.246 15.5398 20.5459C17.23 19.8458 18.6747 18.6602 19.6911 17.139C20.7075 15.6179 21.25 13.8295 21.25 12C21.2474 9.54756 20.272 7.19633 18.5378 5.46219C16.8037 3.72805 14.4524 2.75265 12 2.75ZM10.78 11.94C10.78 12.205 10.8586 12.4641 11.0058 12.6845C11.1531 12.9048 11.3624 13.0766 11.6072 13.178C11.8521 13.2794 12.1215 13.306 12.3814 13.2543C12.6414 13.2026 12.8801 13.0749 13.0675 12.8875C13.2549 12.7001 13.3826 12.4614 13.4343 12.2014C13.486 11.9415 13.4594 11.6721 13.358 11.4272C13.2566 11.1824 13.0848 10.9731 12.8645 10.8258C12.6441 10.6786 12.385 10.6 12.12 10.6C11.7646 10.6 11.4238 10.7412 11.1725 10.9925C10.9212 11.2438 10.78 11.5846 10.78 11.94ZM5.78 11.94C5.78003 12.2059 5.85915 12.4657 6.0073 12.6865C6.15544 12.9073 6.36592 13.079 6.61194 13.1798C6.85796 13.2806 7.1284 13.306 7.38887 13.2526C7.64933 13.1993 7.88804 13.0696 8.07463 12.8802C8.26121 12.6908 8.38723 12.4502 8.43665 12.189C8.48607 11.9277 8.45667 11.6577 8.35217 11.4132C8.24768 11.1687 8.07282 10.9609 7.84984 10.816C7.62686 10.6712 7.36585 10.596 7.1 10.6C6.74461 10.6 6.40378 10.7412 6.15248 10.9925C5.90118 11.2438 5.76 11.5846 5.76 11.94H5.78ZM15.78 11.94C15.78 12.205 15.8586 12.4641 16.0058 12.6845C16.1531 12.9048 16.3624 13.0766 16.6072 13.178C16.8521 13.2794 17.1215 13.306 17.3814 13.2543C17.6414 13.2026 17.8801 13.0749 18.0675 12.8875C18.2549 12.7001 18.3826 12.4614 18.4343 12.2014C18.486 11.9415 18.4594 11.6721 18.358 11.4272C18.2566 11.1824 18.0848 10.9731 17.8645 10.8258C17.6441 10.6786 17.385 10.6 17.12 10.6C16.7664 10.6026 16.4281 10.745 16.1789 10.996C15.9298 11.247 15.79 11.5863 15.79 11.94H15.78Z" fill="black"/>
</svg>
