<svg width="24" height="24" viewBox="0 0 24 24" fill="none" xmlns="http://www.w3.org/2000/svg">
<path d="M16.25 22.75H7.75C6.02691 22.7474 4.37514 22.0617 3.15673 20.8433C1.93831 19.6249 1.25264 17.9731 1.25 16.25V7.75C1.25264 6.02691 1.93831 4.37514 3.15673 3.15673C4.37514 1.93831 6.02691 1.25264 7.75 1.25H16.25C17.9731 1.25264 19.6249 1.93831 20.8433 3.15673C22.0617 4.37514 22.7474 6.02691 22.75 7.75V16.25C22.7474 17.9731 22.0617 19.6249 20.8433 20.8433C19.6249 22.0617 17.9731 22.7474 16.25 22.75ZM7.75 2.75C6.42392 2.75 5.15215 3.27678 4.21447 4.21447C3.27678 5.15215 2.75 6.42392 2.75 7.75V16.25C2.75 17.5761 3.27678 18.8479 4.21447 19.7855C5.15215 20.7232 6.42392 21.25 7.75 21.25H16.25C17.5761 21.25 18.8479 20.7232 19.7855 19.7855C20.7232 18.8479 21.25 17.5761 21.25 16.25V7.75C21.25 6.42392 20.7232 5.15215 19.7855 4.21447C18.8479 3.27678 17.5761 2.75 16.25 2.75H7.75ZM11 11.88C11 12.145 11.0786 12.4041 11.2258 12.6245C11.3731 12.8448 11.5824 13.0166 11.8272 13.118C12.0721 13.2194 12.3415 13.246 12.6014 13.1943C12.8614 13.1425 13.1001 13.0149 13.2875 12.8275C13.4749 12.6401 13.6025 12.4014 13.6543 12.1414C13.706 11.8815 13.6794 11.6121 13.578 11.3672C13.4766 11.1224 13.3048 10.9131 13.0845 10.7658C12.8641 10.6186 12.605 10.54 12.34 10.54C11.9846 10.54 11.6438 10.6812 11.3925 10.9325C11.1412 11.1838 11 11.5246 11 11.88ZM6 11.88C6 12.145 6.07859 12.4041 6.22583 12.6245C6.37307 12.8448 6.58235 13.0166 6.8272 13.118C7.07206 13.2194 7.34149 13.246 7.60142 13.1943C7.86136 13.1425 8.10012 13.0149 8.28752 12.8275C8.47493 12.6401 8.60255 12.4014 8.65425 12.1414C8.70596 11.8815 8.67942 11.6121 8.578 11.3672C8.47658 11.1224 8.30483 10.9131 8.08446 10.7658C7.8641 10.6186 7.60503 10.54 7.34 10.54C6.98461 10.54 6.64378 10.6812 6.39248 10.9325C6.14118 11.1838 6 11.5246 6 11.88ZM16 11.88C16 12.145 16.0786 12.4041 16.2258 12.6245C16.3731 12.8448 16.5824 13.0166 16.8272 13.118C17.0721 13.2194 17.3415 13.246 17.6014 13.1943C17.8614 13.1425 18.1001 13.0149 18.2875 12.8275C18.4749 12.6401 18.6025 12.4014 18.6543 12.1414C18.706 11.8815 18.6794 11.6121 18.578 11.3672C18.4766 11.1224 18.3048 10.9131 18.0845 10.7658C17.8641 10.6186 17.605 10.54 17.34 10.54C16.9846 10.54 16.6438 10.6812 16.3925 10.9325C16.1412 11.1838 16 11.5246 16 11.88Z" fill="black"/>
</svg>
