<svg width="24" height="24" viewBox="0 0 24 24" fill="none" xmlns="http://www.w3.org/2000/svg">
<path d="M19.3199 18.52C18.8913 18.5195 18.4704 18.4057 18.0999 18.19L15.6999 16.8C15.6146 16.7508 15.5397 16.6852 15.4797 16.607C15.4197 16.5289 15.3757 16.4396 15.3501 16.3445C15.3246 16.2493 15.3181 16.15 15.3309 16.0523C15.3437 15.9546 15.3757 15.8604 15.4249 15.775C15.4742 15.6896 15.5397 15.6148 15.6179 15.5548C15.6961 15.4948 15.7853 15.4508 15.8805 15.4252C15.9757 15.3997 16.0749 15.3931 16.1726 15.406C16.2703 15.4188 16.3646 15.4508 16.4499 15.5L18.8499 16.89C18.9928 16.9725 19.1549 17.0159 19.3199 17.0159C19.4849 17.0159 19.647 16.9725 19.7899 16.89C19.9336 16.8094 20.053 16.6918 20.1357 16.5493C20.2184 16.4068 20.2613 16.2447 20.2599 16.08V7.92C20.2613 7.75527 20.2184 7.5932 20.1357 7.45072C20.053 7.30824 19.9336 7.19057 19.7899 7.11C19.647 7.0275 19.4849 6.98406 19.3199 6.98406C19.1549 6.98406 18.9928 7.0275 18.8499 7.11L16.4499 8.5C16.3646 8.54924 16.2703 8.58119 16.1726 8.59403C16.0749 8.60686 15.9757 8.60032 15.8805 8.57478C15.7853 8.54925 15.6961 8.50521 15.6179 8.4452C15.5397 8.38518 15.4742 8.31036 15.4249 8.225C15.3757 8.13964 15.3437 8.04542 15.3309 7.94771C15.3181 7.85 15.3246 7.75072 15.3501 7.65554C15.3757 7.56036 15.4197 7.47115 15.4797 7.39298C15.5397 7.31482 15.6146 7.24924 15.6999 7.2L18.0999 5.81C18.4706 5.59597 18.8911 5.48324 19.3191 5.4831C19.7472 5.48296 20.1677 5.59543 20.5386 5.80922C20.9094 6.02301 21.2175 6.33059 21.4319 6.70109C21.6462 7.07158 21.7594 7.49195 21.7599 7.92V16.08C21.7573 16.7263 21.4994 17.3454 21.0424 17.8024C20.5853 18.2594 19.9662 18.5174 19.3199 18.52ZM12.4599 18.19C12.8306 17.9772 13.138 17.6696 13.3506 17.2988C13.5633 16.9281 13.6735 16.5074 13.6699 16.08V7.92C13.6735 7.48928 13.5625 7.06534 13.3484 6.69162C13.1342 6.31789 12.8246 6.0078 12.4512 5.79311C12.0778 5.57842 11.654 5.46685 11.2233 5.46981C10.7925 5.47278 10.3703 5.59018 9.99992 5.81L3.70992 9.45C3.2637 9.70955 2.8934 10.0816 2.63601 10.5291C2.37862 10.9766 2.24316 11.4838 2.24316 12C2.24316 12.5162 2.37862 13.0234 2.63601 13.4709C2.8934 13.9183 3.2637 14.2904 3.70992 14.55L9.99992 18.19C10.3702 18.4061 10.7912 18.52 11.2199 18.52C11.6486 18.52 12.0697 18.4061 12.4399 18.19H12.4599ZM10.7699 7.11C10.9128 7.0275 11.0749 6.98406 11.2399 6.98406C11.4049 6.98406 11.567 7.0275 11.7099 7.11C11.8525 7.19105 11.9705 7.3091 12.0514 7.45168C12.1324 7.59426 12.1733 7.75607 12.1699 7.92V16.08C12.1733 16.2439 12.1324 16.4057 12.0514 16.5483C11.9705 16.6909 11.8525 16.809 11.7099 16.89C11.567 16.9725 11.4049 17.0159 11.2399 17.0159C11.0749 17.0159 10.9128 16.9725 10.7699 16.89L4.45992 13.25C4.24217 13.122 4.06163 12.9393 3.9362 12.7201C3.81076 12.5008 3.74477 12.2526 3.74477 12C3.74477 11.7474 3.81076 11.4992 3.9362 11.2799C4.06163 11.0607 4.24217 10.878 4.45992 10.75L10.7699 7.11Z" fill="black"/>
</svg>
