<svg width="24" height="24" viewBox="0 0 24 24" fill="none" xmlns="http://www.w3.org/2000/svg">
<path d="M4.68023 18.52C4.03392 18.5174 3.41482 18.2594 2.9578 17.8024C2.50078 17.3454 2.24287 16.7263 2.24023 16.08V7.91999C2.24078 7.49195 2.35392 7.07157 2.56829 6.70108C2.78267 6.33058 3.09074 6.023 3.46158 5.80922C3.83241 5.59543 4.25296 5.48296 4.68101 5.48309C5.10906 5.48323 5.52954 5.59597 5.90023 5.80999L8.30023 7.19999C8.46691 7.29835 8.58912 7.45733 8.6413 7.64369C8.69348 7.83006 8.6716 8.02938 8.58023 8.19999C8.48017 8.36481 8.32119 8.48543 8.13552 8.53742C7.94984 8.58941 7.75134 8.56888 7.58023 8.47999L5.15023 7.10999C5.00734 7.02749 4.84524 6.98406 4.68023 6.98406C4.51523 6.98406 4.35313 7.02749 4.21023 7.10999C4.06655 7.19056 3.94714 7.30823 3.86446 7.45072C3.78178 7.5932 3.73888 7.75527 3.74023 7.91999V16.08C3.73888 16.2447 3.78178 16.4068 3.86446 16.5493C3.94714 16.6918 4.06655 16.8094 4.21023 16.89C4.35313 16.9725 4.51523 17.0159 4.68023 17.0159C4.84524 17.0159 5.00734 16.9725 5.15023 16.89L7.55023 15.5C7.72263 15.4005 7.92746 15.3736 8.11969 15.4252C8.31191 15.4768 8.47578 15.6026 8.57523 15.775C8.67469 15.9474 8.70159 16.1522 8.65002 16.3444C8.59845 16.5367 8.47263 16.7005 8.30023 16.8L5.90023 18.19C5.52979 18.4057 5.10889 18.5195 4.68023 18.52ZM13.9802 18.19L20.2902 14.55C20.7365 14.2904 21.1068 13.9183 21.3641 13.4709C21.6215 13.0234 21.757 12.5162 21.757 12C21.757 11.4838 21.6215 10.9766 21.3641 10.5291C21.1068 10.0816 20.7365 9.70954 20.2902 9.44999L14.0002 5.80999C13.6295 5.59597 13.2091 5.48323 12.781 5.48309C12.353 5.48296 11.9324 5.59543 11.5616 5.80922C11.1907 6.023 10.8827 6.33058 10.6683 6.70108C10.4539 7.07157 10.3408 7.49195 10.3402 7.91999V16.08C10.3387 16.5082 10.4509 16.9291 10.6652 17.2998C10.8795 17.6705 11.1884 17.9777 11.5602 18.19C11.9312 18.4044 12.3518 18.5181 12.7802 18.52C13.2089 18.5195 13.6298 18.4057 14.0002 18.19H13.9802ZM13.2302 7.10999L19.5402 10.75C19.758 10.878 19.9385 11.0607 20.064 11.2799C20.1894 11.4992 20.2554 11.7474 20.2554 12C20.2554 12.2526 20.1894 12.5008 20.064 12.7201C19.9385 12.9393 19.758 13.122 19.5402 13.25L13.2302 16.89C13.0873 16.9725 12.9252 17.0159 12.7602 17.0159C12.5952 17.0159 12.4331 16.9725 12.2902 16.89C12.1466 16.8094 12.0271 16.6918 11.9445 16.5493C11.8618 16.4068 11.8189 16.2447 11.8202 16.08V7.91999C11.8189 7.75527 11.8618 7.5932 11.9445 7.45072C12.0271 7.30823 12.1466 7.19056 12.2902 7.10999C12.4386 7.03389 12.6036 6.99607 12.7702 6.99999C12.9308 6.99348 13.09 7.03155 13.2302 7.10999Z" fill="black"/>
</svg>
