<svg width="24" height="24" viewBox="0 0 24 24" fill="none" xmlns="http://www.w3.org/2000/svg">
<path d="M22.75 7.81V16.19C22.75 17.9298 22.0589 19.5984 20.8286 20.8286C19.5984 22.0589 17.9298 22.75 16.19 22.75H7.81C6.07018 22.75 4.40162 22.0589 3.17138 20.8286C1.94114 19.5984 1.25 17.9298 1.25 16.19V7.81C1.25 6.07018 1.94114 4.40162 3.17138 3.17138C4.40162 1.94114 6.07018 1.25 7.81 1.25H16.19C17.9298 1.25 19.5984 1.94114 20.8286 3.17138C22.0589 4.40162 22.75 6.07018 22.75 7.81ZM2.75 16.19C2.75264 17.5312 3.2866 18.8167 4.23496 19.765C5.18332 20.7134 6.46882 21.2474 7.81 21.25H16.19C17.5312 21.2474 18.8167 20.7134 19.765 19.765C20.7134 18.8167 21.2474 17.5312 21.25 16.19V7.81C21.2474 6.46882 20.7134 5.18332 19.765 4.23496C18.8167 3.2866 17.5312 2.75264 16.19 2.75H7.81C6.46882 2.75264 5.18332 3.2866 4.23496 4.23496C3.2866 5.18332 2.75264 6.46882 2.75 7.81V16.19ZM16.29 10.29C16.1026 10.1037 15.8492 9.99921 15.585 9.99921C15.3208 9.99921 15.0674 10.1037 14.88 10.29L12 13.06L9.2 10.14C9.11244 10.0339 9.00393 9.94699 8.88126 9.88473C8.75858 9.82247 8.62438 9.78619 8.48704 9.77816C8.34971 9.77013 8.21219 9.79053 8.0831 9.83807C7.954 9.88561 7.83611 9.95928 7.73678 10.0545C7.63746 10.1497 7.55884 10.2643 7.50585 10.3913C7.45286 10.5182 7.42663 10.6547 7.42881 10.7923C7.43099 10.9299 7.46153 11.0655 7.51852 11.1907C7.5755 11.3159 7.65771 11.428 7.76 11.52L11.25 15.17C11.3406 15.2651 11.4491 15.3414 11.5692 15.3946C11.6893 15.4478 11.8187 15.4768 11.95 15.48C12.2144 15.4842 12.4697 15.3835 12.66 15.2L16.31 11.71C16.4087 11.6159 16.4872 11.5026 16.5405 11.377C16.5938 11.2515 16.6208 11.1164 16.62 10.98C16.6058 10.7154 16.4871 10.4672 16.29 10.29Z" fill="black"/>
</svg>
