<svg width="24" height="24" viewBox="0 0 24 24" fill="none" xmlns="http://www.w3.org/2000/svg">
<path d="M11.8901 17.24C11.7585 17.2408 11.628 17.2155 11.5062 17.1658C11.3843 17.116 11.2735 17.0427 11.1801 16.95L5.18008 10.95C5.08635 10.857 5.01195 10.7464 4.96118 10.6246C4.91042 10.5027 4.88428 10.372 4.88428 10.24C4.88428 10.108 4.91042 9.97727 4.96118 9.85541C5.01195 9.73355 5.08635 9.62295 5.18008 9.52999C5.36744 9.34374 5.62089 9.2392 5.88508 9.2392C6.14926 9.2392 6.40271 9.34374 6.59008 9.52999L11.8901 14.83L17.1801 9.52999C17.3674 9.34374 17.6209 9.2392 17.8851 9.2392C18.1493 9.2392 18.4027 9.34374 18.5901 9.52999C18.6838 9.62295 18.7582 9.73355 18.809 9.85541C18.8597 9.97727 18.8859 10.108 18.8859 10.24C18.8859 10.372 18.8597 10.5027 18.809 10.6246C18.7582 10.7464 18.6838 10.857 18.5901 10.95L12.5901 16.95C12.4038 17.1347 12.1524 17.2389 11.8901 17.24Z" fill="black"/>
</svg>
