<svg width="24" height="24" viewBox="0 0 24 24" fill="none" xmlns="http://www.w3.org/2000/svg">
<path d="M15.7299 22.72H8.2699C6.62464 22.7174 5.04767 22.0619 3.88523 20.8976C2.72279 19.7333 2.0699 18.1553 2.0699 16.51V9.11002C2.06364 7.86218 2.43589 6.64178 3.13752 5.60986C3.83915 4.57795 4.83718 3.78303 5.9999 3.33002C6.09365 3.29125 6.19421 3.27164 6.29566 3.27234C6.3971 3.27305 6.49738 3.29406 6.59058 3.33414C6.68378 3.37421 6.76801 3.43254 6.83831 3.50568C6.90861 3.57883 6.96355 3.66531 6.9999 3.76002C7.04037 3.85297 7.06157 3.95316 7.06223 4.05453C7.06289 4.15591 7.04299 4.25636 7.00373 4.34983C6.96448 4.4433 6.90668 4.52784 6.83383 4.59834C6.76099 4.66884 6.6746 4.72384 6.5799 4.76002C5.69427 5.09914 4.93287 5.69985 4.39697 6.48226C3.86108 7.26467 3.57609 8.19169 3.5799 9.14002V16.54C3.58253 17.7867 4.07824 18.9816 4.9588 19.8641C5.83937 20.7465 7.03328 21.2447 8.2799 21.25H15.7399C16.9873 21.2474 18.1828 20.75 19.0639 19.867C19.945 18.984 20.4399 17.7875 20.4399 16.54V9.12002C20.4444 8.17031 20.1597 7.24171 19.6239 6.45759C19.0881 5.67347 18.3263 5.07094 17.4399 4.73002C17.3444 4.69632 17.2568 4.64365 17.1822 4.57516C17.1076 4.50667 17.0477 4.42379 17.006 4.33151C16.9643 4.23924 16.9417 4.13948 16.9397 4.03825C16.9376 3.93702 16.956 3.83642 16.9938 3.7425C17.0317 3.64858 17.0881 3.5633 17.1598 3.49179C17.2315 3.42028 17.3169 3.36403 17.4109 3.32642C17.5049 3.28881 17.6056 3.27063 17.7068 3.27297C17.808 3.2753 17.9077 3.29811 17.9999 3.34002C19.1653 3.79025 20.1662 4.58419 20.8699 5.61651C21.5736 6.64882 21.9468 7.8707 21.9399 9.12002V16.51C21.9412 17.3251 21.7818 18.1324 21.4708 18.8857C21.1598 19.6391 20.7034 20.3238 20.1275 20.9005C19.5517 21.4773 18.8677 21.9349 18.1149 22.2471C17.362 22.5593 16.5549 22.72 15.7399 22.72H15.7299ZM16.5699 4.00002V3.00002C16.5673 2.542 16.3842 2.1035 16.0603 1.77963C15.7364 1.45575 15.2979 1.27264 14.8399 1.27002H9.1599C8.70189 1.27264 8.26338 1.45575 7.93951 1.77963C7.61564 2.1035 7.43253 2.542 7.4299 3.00002V4.00002C7.42989 4.45977 7.61184 4.90084 7.936 5.22686C8.26015 5.55289 8.70016 5.73738 9.1599 5.74002H14.8399C15.2996 5.73738 15.7397 5.55289 16.0638 5.22686C16.388 4.90084 16.5699 4.45977 16.5699 4.00002ZM14.8399 2.78002C14.9009 2.78002 14.9594 2.80425 15.0025 2.84738C15.0457 2.89052 15.0699 2.94902 15.0699 3.01002V4.00002C15.0699 4.06102 15.0457 4.11952 15.0025 4.16265C14.9594 4.20579 14.9009 4.23002 14.8399 4.23002H9.1599C9.0989 4.23002 9.0404 4.20579 8.99727 4.16265C8.95413 4.11952 8.9299 4.06102 8.9299 4.00002V3.00002C8.9299 2.93902 8.95413 2.88052 8.99727 2.83738C9.0404 2.79425 9.0989 2.77002 9.1599 2.77002L14.8399 2.78002ZM9.3099 10.52C9.19443 10.5196 9.08039 10.5455 8.97642 10.5957C8.87246 10.646 8.78131 10.7193 8.7099 10.81C8.60455 10.9642 8.56051 11.1522 8.58641 11.3371C8.6123 11.5221 8.70626 11.6907 8.8499 11.81L12.9999 15.07L10.7699 15.62C10.5918 15.6619 10.4352 15.7674 10.3295 15.9167C10.2237 16.066 10.1762 16.2488 10.1959 16.4307C10.2156 16.6126 10.301 16.781 10.4362 16.9043C10.5714 17.0276 10.747 17.0972 10.9299 17.1H11.1099L14.8599 16.18C14.9065 16.1544 14.9573 16.1375 15.0099 16.13C15.134 16.0643 15.2384 15.9666 15.3122 15.8471C15.3861 15.7275 15.4267 15.5905 15.4299 15.45V11.45C15.4327 11.3512 15.4152 11.2529 15.3784 11.1612C15.3416 11.0694 15.2862 10.9863 15.2159 10.9169C15.1455 10.8474 15.0616 10.7932 14.9694 10.7577C14.8772 10.7221 14.7787 10.7059 14.6799 10.71C14.5815 10.7073 14.4836 10.7245 14.392 10.7606C14.3005 10.7967 14.2172 10.851 14.1471 10.9201C14.0771 10.9892 14.0217 11.0718 13.9844 11.1629C13.947 11.2539 13.9285 11.3516 13.9299 11.45V13.9L9.7599 10.67C9.63042 10.572 9.4723 10.5193 9.3099 10.52Z" fill="black"/>
</svg>
