<svg width="24" height="24" viewBox="0 0 24 24" fill="none" xmlns="http://www.w3.org/2000/svg">
<path d="M12 1.25C9.87386 1.25 7.79545 1.88048 6.02762 3.0617C4.2598 4.24293 2.88194 5.92185 2.0683 7.88615C1.25466 9.85046 1.04177 12.0119 1.45656 14.0972C1.87135 16.1825 2.89519 18.098 4.39861 19.6014C5.90202 21.1048 7.81749 22.1287 9.90278 22.5434C11.9881 22.9582 14.1495 22.7453 16.1139 21.9317C18.0782 21.1181 19.7571 19.7402 20.9383 17.9724C22.1195 16.2046 22.75 14.1261 22.75 12C22.7474 9.14974 21.6139 6.41697 19.5985 4.40153C17.583 2.38608 14.8503 1.25265 12 1.25ZM21.24 11.81C19.0711 11.38 16.8389 11.38 14.67 11.81C14.38 11.13 14.06 10.49 13.74 9.86C15.7773 9.00489 17.631 7.76569 19.2 6.21C20.4839 7.79783 21.2017 9.7684 21.24 11.81ZM18.16 5.12C16.6801 6.56895 14.9258 7.70788 13 8.47C11.9462 6.59185 10.7316 4.80851 9.37 3.14C10.8832 2.68622 12.488 2.63192 14.0284 2.9824C15.5688 3.33289 16.9921 4.0762 18.16 5.14V5.12ZM7.89 3.72C9.26453 5.36995 10.4925 7.13664 11.56 9C8.78815 9.83281 5.88332 10.1314 3 9.88C3.31237 8.55699 3.91251 7.31909 4.7577 6.25439C5.60289 5.1897 6.67236 4.32437 7.89 3.72ZM2.75 12C2.75 11.79 2.75 11.58 2.75 11.36C3.51373 11.4441 4.28167 11.4842 5.05 11.48C7.50027 11.4844 9.93622 11.1065 12.27 10.36C12.57 10.93 12.87 11.52 13.15 12.15C9.89334 13.2106 7.08001 15.3206 5.15 18.15C3.61589 16.468 2.76066 14.2765 2.75 12ZM6.26 19.24C7.98602 16.4911 10.6453 14.4567 13.75 13.51C14.6622 15.7537 15.2774 18.1069 15.58 20.51C14.0538 21.1515 12.383 21.3703 10.7431 21.1433C9.10314 20.9163 7.55458 20.252 6.26 19.22V19.24ZM17 19.78C16.6814 17.5171 16.1008 15.2989 15.27 13.17C17.2253 12.8498 19.2235 12.9007 21.16 13.32C20.97 14.632 20.5002 15.8878 19.7825 17.0024C19.0647 18.1169 18.1158 19.0642 17 19.78Z" fill="black"/>
</svg>
