<svg width="24" height="24" viewBox="0 0 24 24" fill="none" xmlns="http://www.w3.org/2000/svg">
<path d="M21.69 11L19.1 9.14002L21.68 7.32002C21.8987 7.16585 22.0772 6.96138 22.2004 6.72383C22.3236 6.48629 22.3879 6.22261 22.3879 5.95502C22.3879 5.68742 22.3236 5.42375 22.2004 5.1862C22.0772 4.94865 21.8987 4.74418 21.68 4.59002L17.59 1.59002C17.3007 1.37568 16.9501 1.25998 16.59 1.25998C16.2299 1.25998 15.8794 1.37568 15.59 1.59002L12 4.13002L8.35001 1.56002C8.06066 1.34568 7.7101 1.22998 7.35001 1.22998C6.98992 1.22998 6.63936 1.34568 6.35001 1.56002L2.26001 4.56002C2.04072 4.72785 1.86591 4.94687 1.75085 5.1979C1.63579 5.44893 1.584 5.72434 1.60001 6.00002C1.60294 6.26629 1.66989 6.52795 1.7952 6.76291C1.92052 6.99788 2.10052 7.19924 2.32001 7.35002L4.90001 9.14002L2.32001 11C2.10052 11.1508 1.92052 11.3522 1.7952 11.5871C1.66989 11.8221 1.60294 12.0837 1.60001 12.35C1.59767 12.6172 1.65797 12.8812 1.77605 13.1208C1.89414 13.3605 2.06674 13.5691 2.28001 13.73L3.87001 14.91V17C3.87379 17.4527 3.99572 17.8966 4.22373 18.2877C4.45174 18.6789 4.77792 19.0037 5.17001 19.23L10.72 22.43C11.1131 22.6593 11.56 22.7801 12.015 22.7801C12.4701 22.7801 12.917 22.6593 13.31 22.43L18.85 19.23C19.2441 19.006 19.572 18.6817 19.8003 18.2901C20.0286 17.8984 20.1493 17.4534 20.15 17V14.86L21.73 13.69C21.9449 13.5331 22.1197 13.3278 22.2402 13.0906C22.3608 12.8534 22.4236 12.5911 22.4236 12.325C22.4236 12.059 22.3608 11.7967 22.2402 11.5595C22.1197 11.3223 21.9449 11.1169 21.73 10.96L21.69 11ZM12 12.3L7.50001 9.14002L12 6.00002L16.5 9.17002L12 12.3ZM16.51 2.78002C16.5427 2.75851 16.5809 2.74705 16.62 2.74705C16.6591 2.74705 16.6974 2.75851 16.73 2.78002L20.82 5.78002C20.8402 5.7886 20.8585 5.80125 20.8736 5.81718C20.8887 5.83311 20.9004 5.85198 20.9079 5.87262C20.9154 5.89326 20.9185 5.91522 20.9172 5.93713C20.9158 5.95905 20.91 5.98046 20.9 6.00002C20.8985 6.02936 20.8906 6.05801 20.8767 6.08394C20.8629 6.10987 20.8435 6.13243 20.82 6.15002L17.82 8.27002L13.3 5.05002L16.51 2.78002ZM3.10001 6.00002C3.0979 5.97002 3.10429 5.94004 3.11844 5.91351C3.13259 5.88698 3.15393 5.86498 3.18001 5.85002L7.27001 2.85002C7.30535 2.83609 7.34467 2.83609 7.38001 2.85002C7.41596 2.83974 7.45406 2.83974 7.49001 2.85002L10.7 5.05002L6.20001 8.22002L3.20001 6.10002C3.15561 6.07998 3.12005 6.04442 3.10001 6.00002ZM3.10001 12.38C3.10071 12.3519 3.10839 12.3244 3.12236 12.2999C3.13632 12.2755 3.15613 12.2549 3.18001 12.24L6.18001 10.1L10.68 13.26L7.33001 15.58L3.18001 12.48C3.15393 12.4651 3.13259 12.4431 3.11844 12.4165C3.10429 12.39 3.0979 12.36 3.10001 12.33V12.38ZM18.65 16V17C18.6599 17.192 18.6142 17.3828 18.5184 17.5495C18.4227 17.7163 18.2809 17.8518 18.11 17.94L12.57 21.14C12.405 21.2377 12.2168 21.2892 12.025 21.2892C11.8333 21.2892 11.645 21.2377 11.48 21.14L5.93001 17.9C5.76967 17.8088 5.6351 17.6784 5.5389 17.521C5.44271 17.3636 5.38804 17.1843 5.38001 17V16L6.87001 17.11C6.93325 17.1584 7.00427 17.1956 7.08001 17.22H7.16001H7.31001C7.3632 17.2256 7.41683 17.2256 7.47001 17.22H7.53001C7.60919 17.2014 7.68395 17.1675 7.75001 17.12L9.19001 16.12L12 14.12L14.81 16.12L16.25 17.12C16.3161 17.1675 16.3908 17.2014 16.47 17.22H16.53C16.5832 17.2256 16.6368 17.2256 16.69 17.22H16.84H16.92C16.9958 17.1956 17.0668 17.1584 17.13 17.11L18.65 16ZM20.82 12.5L18.94 13.91L16.67 15.6L13.3 13.21L17.8 10.05L20.8 12.19C20.8239 12.2049 20.8437 12.2255 20.8577 12.2499C20.8716 12.2744 20.8793 12.3019 20.88 12.33C20.8842 12.3581 20.8809 12.3868 20.8703 12.4131C20.8598 12.4395 20.8424 12.4626 20.82 12.48V12.5Z" fill="black"/>
</svg>
