<svg width="24" height="24" viewBox="0 0 24 24" fill="none" xmlns="http://www.w3.org/2000/svg">
<path d="M12 21.8001C10.0825 21.8001 8.24353 21.0384 6.88764 19.6825C5.53175 18.3266 4.77002 16.4876 4.77002 14.5701C4.77002 11.9001 7.77002 6.90008 10.33 3.17008C10.5144 2.89725 10.7633 2.67418 11.0547 2.52066C11.346 2.36715 11.6707 2.28794 12 2.29008C12.3293 2.28794 12.654 2.36715 12.9454 2.52066C13.2367 2.67418 13.4856 2.89725 13.67 3.17008C16.21 6.90008 19.23 11.9001 19.23 14.5701C19.23 16.4876 18.4683 18.3266 17.1124 19.6825C15.7565 21.0384 13.9175 21.8001 12 21.8001ZM12 3.80008C11.9148 3.79946 11.8309 3.82018 11.7557 3.86036C11.6806 3.90053 11.6168 3.95888 11.57 4.03008C8.25002 8.90008 6.27002 12.8501 6.27002 14.5801C6.27002 16.0998 6.87371 17.5572 7.9483 18.6318C9.02288 19.7064 10.4803 20.3101 12 20.3101C13.5197 20.3101 14.9772 19.7064 16.0517 18.6318C17.1263 17.5572 17.73 16.0998 17.73 14.5801C17.73 12.8501 15.73 8.90008 12.43 4.03008C12.3844 3.95703 12.3211 3.89671 12.2459 3.85474C12.1707 3.81278 12.0861 3.79053 12 3.79008V3.80008Z" fill="black"/>
</svg>
