<svg width="24" height="24" viewBox="0 0 24 24" fill="none" xmlns="http://www.w3.org/2000/svg">
<path d="M18.5699 11.22C18.7562 11.4074 18.8607 11.6608 18.8607 11.925C18.8607 12.1892 18.7562 12.4426 18.5699 12.63L12.5699 18.63C12.3826 18.8163 12.1291 18.9208 11.8649 18.9208C11.6007 18.9208 11.3473 18.8163 11.1599 18.63L5.15993 12.63C4.97368 12.4426 4.86914 12.1892 4.86914 11.925C4.86914 11.6608 4.97368 11.4074 5.15993 11.22C5.2529 11.1263 5.3635 11.0519 5.48536 11.0011C5.60722 10.9503 5.73792 10.9242 5.86993 10.9242C6.00195 10.9242 6.13265 10.9503 6.25451 11.0011C6.37637 11.0519 6.48697 11.1263 6.57993 11.22L11.8399 16.48L17.0899 11.22C17.1837 11.1169 17.2979 11.0345 17.4253 10.9781C17.5528 10.9217 17.6906 10.8926 17.8299 10.8926C17.9693 10.8926 18.1071 10.9217 18.2345 10.9781C18.362 11.0345 18.4762 11.1169 18.5699 11.22ZM17.1499 5.85001L11.8999 11.1L6.63993 5.85001C6.54697 5.75628 6.43637 5.68188 6.31451 5.63112C6.19265 5.58035 6.06194 5.55421 5.92993 5.55421C5.79792 5.55421 5.66722 5.58035 5.54536 5.63112C5.4235 5.68188 5.3129 5.75628 5.21993 5.85001C5.03368 6.03737 4.92914 6.29082 4.92914 6.55501C4.92914 6.81919 5.03368 7.07264 5.21993 7.26001L11.2199 13.26C11.3134 13.3527 11.4242 13.426 11.546 13.4758C11.6679 13.5255 11.7983 13.5508 11.9299 13.55C12.1923 13.5489 12.4437 13.4448 12.6299 13.26L18.6299 7.26001C18.8162 7.07264 18.9207 6.81919 18.9207 6.55501C18.9207 6.29082 18.8162 6.03737 18.6299 5.85001C18.5362 5.74689 18.422 5.6645 18.2945 5.60812C18.1671 5.55174 18.0293 5.52261 17.8899 5.52261C17.7506 5.52261 17.6128 5.55174 17.4853 5.60812C17.3579 5.6645 17.2437 5.74689 17.1499 5.85001Z" fill="black"/>
</svg>
