<svg width="24" height="24" viewBox="0 0 24 24" fill="none" xmlns="http://www.w3.org/2000/svg">
<path d="M11.5999 18.85C11.4683 18.8508 11.3379 18.8255 11.216 18.7758C11.0942 18.726 10.9834 18.6527 10.8899 18.56C10.7037 18.3726 10.5991 18.1192 10.5991 17.855C10.5991 17.5908 10.7037 17.3374 10.8899 17.15L15.9999 12L10.8999 6.90001C10.7137 6.71265 10.6091 6.4592 10.6091 6.19501C10.6091 5.93083 10.7137 5.67737 10.8999 5.49001C10.9929 5.39628 11.1035 5.32189 11.2254 5.27112C11.3472 5.22035 11.4779 5.19421 11.6099 5.19421C11.7419 5.19421 11.8727 5.22035 11.9945 5.27112C12.1164 5.32189 12.227 5.39628 12.3199 5.49001L18.1199 11.3C18.3062 11.4874 18.4107 11.7408 18.4107 12.005C18.4107 12.2692 18.3062 12.5226 18.1199 12.71L12.3199 18.52C12.2287 18.6211 12.1178 18.7026 11.994 18.7593C11.8702 18.8161 11.7361 18.8469 11.5999 18.85ZM7.06993 18.56L12.8799 12.75C13.0662 12.5626 13.1707 12.3092 13.1707 12.045C13.1707 11.7808 13.0662 11.5274 12.8799 11.34L7.06993 5.53001C6.87863 5.36619 6.63256 5.28058 6.38088 5.2903C6.1292 5.30002 5.89046 5.40435 5.71237 5.58245C5.53428 5.76054 5.42994 5.99928 5.42022 6.25096C5.4105 6.50264 5.49611 6.74871 5.65993 6.94001L10.7599 12.04L5.65993 17.15C5.47368 17.3374 5.36914 17.5908 5.36914 17.855C5.36914 18.1192 5.47368 18.3726 5.65993 18.56C5.8473 18.7463 6.10075 18.8508 6.36493 18.8508C6.62912 18.8508 6.88257 18.7463 7.06993 18.56Z" fill="black"/>
</svg>
