<svg width="24" height="24" viewBox="0 0 24 24" fill="none" xmlns="http://www.w3.org/2000/svg">
<path d="M18.5701 11.33C18.6626 11.4232 18.7359 11.5338 18.7858 11.6554C18.8357 11.7769 18.8611 11.9071 18.8606 12.0385C18.8601 12.1699 18.8338 12.3 18.7831 12.4212C18.7324 12.5424 18.6583 12.6524 18.5651 12.745C18.4718 12.8376 18.3613 12.9109 18.2397 12.9608C18.1181 13.0106 17.9879 13.036 17.8565 13.0356C17.7251 13.0351 17.5951 13.0088 17.4739 12.958C17.3527 12.9073 17.2426 12.8332 17.1501 12.74L11.9001 7.49001L6.64006 12.74C6.54744 12.8345 6.437 12.9097 6.31512 12.9612C6.19325 13.0127 6.06236 13.0395 5.93006 13.04C5.79775 13.0395 5.66687 13.0127 5.54499 12.9612C5.42312 12.9097 5.31267 12.8345 5.22006 12.74C5.03381 12.5526 4.92926 12.2992 4.92926 12.035C4.92926 11.7708 5.03381 11.5174 5.22006 11.33L11.2201 5.33001C11.4074 5.14376 11.6609 5.03922 11.9251 5.03922C12.1892 5.03922 12.4427 5.14376 12.6301 5.33001L18.5701 11.33ZM12.5701 10.74C12.3827 10.5538 12.1292 10.4492 11.8651 10.4492C11.6009 10.4492 11.3474 10.5538 11.1601 10.74L5.16006 16.74C5.06633 16.833 4.99193 16.9436 4.94116 17.0654C4.8904 17.1873 4.86426 17.318 4.86426 17.45C4.86426 17.582 4.8904 17.7127 4.94116 17.8346C4.99193 17.9564 5.06633 18.067 5.16006 18.16C5.2535 18.2527 5.36431 18.326 5.48615 18.3758C5.60799 18.4255 5.73845 18.4508 5.87006 18.45C6.00166 18.4508 6.13213 18.4255 6.25396 18.3758C6.3758 18.326 6.48662 18.2527 6.58006 18.16L11.8401 12.9L17.0901 18.16C17.2784 18.3483 17.5338 18.4541 17.8001 18.4541C18.0664 18.4541 18.3218 18.3483 18.5101 18.16C18.6984 17.9717 18.8041 17.7163 18.8041 17.45C18.8041 17.1837 18.6984 16.9283 18.5101 16.74L12.5701 10.74Z" fill="black"/>
</svg>
