<svg width="24" height="24" viewBox="0 0 24 24" fill="none" xmlns="http://www.w3.org/2000/svg">
<path d="M11.9998 19C11.8675 18.9995 11.7366 18.9727 11.6148 18.9212C11.4929 18.8697 11.3824 18.7945 11.2898 18.7L5.28982 12.7C5.10356 12.5127 4.99902 12.2592 4.99902 11.995C4.99902 11.7308 5.10356 11.4774 5.28982 11.29L11.2898 5.29001C11.3831 5.19743 11.4936 5.12412 11.6152 5.07427C11.7368 5.02441 11.867 4.99899 11.9984 4.99946C12.1297 4.99992 12.2598 5.02626 12.381 5.07697C12.5022 5.12768 12.6122 5.20177 12.7048 5.29501C12.7974 5.38825 12.8707 5.49881 12.9206 5.62038C12.9704 5.74195 12.9958 5.87215 12.9954 6.00355C12.9949 6.13494 12.9686 6.26496 12.9179 6.38618C12.8671 6.50739 12.7931 6.61743 12.6998 6.71001L7.46982 12L12.7198 17.26C12.8726 17.3984 12.9789 17.5806 13.0241 17.7818C13.0694 17.9829 13.0514 18.1931 12.9725 18.3836C12.8937 18.574 12.7579 18.7355 12.5838 18.8459C12.4097 18.9562 12.2057 19.0101 11.9998 19ZM18.0798 18.7C18.2661 18.5127 18.3706 18.2592 18.3706 17.995C18.3706 17.7308 18.2661 17.4774 18.0798 17.29L12.8398 12L18.0998 6.79001C18.1931 6.69677 18.267 6.58608 18.3175 6.46426C18.3679 6.34244 18.3939 6.21187 18.3939 6.08001C18.3939 5.94815 18.3679 5.81759 18.3175 5.69576C18.267 5.57394 18.1931 5.46325 18.0998 5.37001C18.0066 5.27677 17.8959 5.20281 17.7741 5.15235C17.6522 5.10189 17.5217 5.07592 17.3898 5.07592C17.258 5.07592 17.1274 5.10189 17.0056 5.15235C16.8837 5.20281 16.7731 5.27677 16.6798 5.37001L10.6798 11.37C10.4936 11.5574 10.389 11.8108 10.389 12.075C10.389 12.3392 10.4936 12.5926 10.6798 12.78L16.6798 18.78C16.7728 18.8737 16.8834 18.9481 17.0052 18.9989C17.1271 19.0497 17.2578 19.0758 17.3898 19.0758C17.5218 19.0758 17.6525 19.0497 17.7744 18.9989C17.8963 18.9481 18.0069 18.8737 18.0998 18.78L18.0798 18.7Z" fill="black"/>
</svg>
