<svg width="24" height="24" viewBox="0 0 24 24" fill="none" xmlns="http://www.w3.org/2000/svg">
<path d="M12.2 22.87C10.076 22.8601 8.00255 22.2213 6.24131 21.034C4.48007 19.8468 3.11 18.1645 2.30402 16.1993C1.49804 14.2342 1.29227 12.0743 1.7127 9.9923C2.13312 7.91031 3.16088 5.99953 4.66626 4.50111C6.17165 3.00269 8.08719 1.98381 10.1711 1.57305C12.255 1.1623 14.4139 1.37808 16.3753 2.19317C18.3367 3.00826 20.0127 4.38613 21.1917 6.15285C22.3707 7.91958 23 9.99599 23 12.12C22.9987 13.5356 22.7181 14.9369 22.1743 16.2439C21.6304 17.5508 20.8341 18.7376 19.8308 19.7362C18.8275 20.7348 17.6371 21.5257 16.3277 22.0634C15.0182 22.6012 13.6155 22.8753 12.2 22.87ZM12.2 2.87001C10.3705 2.87001 8.58214 3.41251 7.06098 4.42891C5.53983 5.44531 4.35423 6.88997 3.65412 8.58018C2.95401 10.2704 2.77083 12.1303 3.12774 13.9246C3.48465 15.7189 4.36563 17.3671 5.65927 18.6607C6.9529 19.9544 8.60109 20.8354 10.3954 21.1923C12.1897 21.5492 14.0496 21.366 15.7398 20.6659C17.43 19.9658 18.8747 18.7802 19.8911 17.259C20.9075 15.7379 21.45 13.9495 21.45 12.12C21.4474 9.66757 20.472 7.31633 18.7378 5.58219C17.0037 3.84805 14.6524 2.87265 12.2 2.87001ZM9.53 15.72L15.07 10.17C15.2437 9.99761 15.3418 9.76328 15.3428 9.51854C15.3437 9.27381 15.2474 9.03872 15.075 8.86501C14.9026 8.69129 14.6683 8.59317 14.4235 8.59223C14.1788 8.59129 13.9437 8.68761 13.77 8.86001L8.87 13.76L5.87 10.76C5.69641 10.626 5.48104 10.5576 5.26194 10.567C5.04284 10.5764 4.83409 10.6629 4.67258 10.8112C4.51107 10.9596 4.40718 11.1602 4.37926 11.3778C4.35134 11.5953 4.40119 11.8157 4.52 12L8.22001 15.7C8.3942 15.8728 8.62963 15.9698 8.875 15.9698C9.12038 15.9698 9.35581 15.8728 9.53 15.7V15.72ZM19.88 9.00001C19.7058 8.82719 19.4704 8.73021 19.225 8.73021C18.9796 8.73021 18.7442 8.82719 18.57 9.00001L13.68 13.9L13.06 13.28L11.75 14.58L13 15.83C13.1725 16.0022 13.4063 16.0989 13.65 16.0989C13.8937 16.0989 14.1275 16.0022 14.3 15.83L19.85 10.28C20.018 10.1111 20.1148 9.88415 20.1203 9.64599C20.1259 9.40783 20.0399 9.1766 19.88 9.00001ZM9.38 12.19L10.69 10.88L10.63 10.82C10.4575 10.6478 10.2237 10.5511 9.98 10.5511C9.73627 10.5511 9.50249 10.6478 9.33 10.82C9.15719 10.9942 9.06021 11.2296 9.06021 11.475C9.06021 11.7204 9.15719 11.9558 9.33 12.13L9.38 12.19Z" fill="black"/>
</svg>
