<svg width="24" height="24" viewBox="0 0 24 24" fill="none" xmlns="http://www.w3.org/2000/svg">
<path d="M5.40011 17.4H5.20011C4.91376 17.366 4.63889 17.2674 4.39633 17.1114C4.15376 16.9555 3.94988 16.7464 3.80011 16.5L1.50011 13C1.30234 12.704 1.19678 12.356 1.19678 12C1.19678 11.644 1.30234 11.296 1.50011 11L3.80011 7.49999C3.94426 7.2695 4.13388 7.07081 4.3574 6.91607C4.58092 6.76132 4.83363 6.65377 5.10011 6.59999C5.371 6.57701 5.64372 6.6095 5.90162 6.69546C6.15953 6.78143 6.3972 6.91908 6.60011 7.09999L10.2001 10.6C10.5306 10.9522 10.7145 11.417 10.7145 11.9C10.7145 12.3829 10.5306 12.8478 10.2001 13.2L6.70011 16.8C6.536 16.9836 6.33595 17.1316 6.11234 17.2348C5.88873 17.338 5.64632 17.3942 5.40011 17.4ZM5.30011 8.09999C5.20011 8.09999 5.10011 8.09999 5.00011 8.29999L2.80011 11.8C2.75092 11.855 2.72372 11.9262 2.72372 12C2.72372 12.0738 2.75092 12.145 2.80011 12.2L5.00011 15.7C5.03097 15.7545 5.0742 15.801 5.1263 15.8357C5.17841 15.8704 5.23794 15.8925 5.30011 15.9H5.60011L9.20011 12.3C9.25692 12.229 9.28786 12.1409 9.28786 12.05C9.28786 11.9591 9.25692 11.8709 9.20011 11.8L5.60011 8.19999L5.30011 8.09999ZM18.6001 17.4C18.3539 17.3942 18.1115 17.338 17.8879 17.2348C17.6643 17.1316 17.4642 16.9836 17.3001 16.8L13.8001 13.2C13.4697 12.8478 13.2858 12.3829 13.2858 11.9C13.2858 11.417 13.4697 10.9522 13.8001 10.6L17.3001 7.09999C17.5108 6.89983 17.7646 6.75068 18.042 6.664C18.3194 6.57732 18.6129 6.55542 18.9001 6.59999C19.1666 6.65377 19.4193 6.76132 19.6428 6.91607C19.8663 7.07081 20.056 7.2695 20.2001 7.49999L22.5001 11C22.6507 11.3118 22.7289 11.6537 22.7289 12C22.7289 12.3463 22.6507 12.6881 22.5001 13L20.2001 16.5C20.0504 16.7464 19.8465 16.9555 19.6039 17.1114C19.3613 17.2674 19.0865 17.366 18.8001 17.4H18.6001ZM18.7001 8.09999H18.4001L14.8001 11.6C14.7509 11.655 14.7237 11.7262 14.7237 11.8C14.7237 11.8738 14.7509 11.945 14.8001 12L18.4001 15.7H18.7001C18.7001 15.7 18.9001 15.6 18.9001 15.5L21.2001 11.9C21.2214 11.8812 21.2384 11.8581 21.2501 11.8323C21.2618 11.8064 21.2678 11.7784 21.2678 11.75C21.2678 11.7216 21.2618 11.6936 21.2501 11.6677C21.2384 11.6418 21.2214 11.6188 21.2001 11.6L19.0001 8.29999C18.9001 8.09999 18.8001 8.09999 18.7001 8.09999ZM12.0001 16.1C12.1316 16.0958 12.2625 16.1205 12.3834 16.1723C12.5044 16.2241 12.6125 16.3019 12.7001 16.4L15.6001 19.4C15.6608 19.486 15.7014 19.5847 15.7187 19.6886C15.736 19.7924 15.7297 19.8989 15.7001 20C15.6767 20.1146 15.6139 20.2174 15.5225 20.2905C15.4312 20.3636 15.3171 20.4023 15.2001 20.4H8.80011C8.69587 20.4086 8.59155 20.3842 8.50186 20.3304C8.41216 20.2766 8.3416 20.196 8.30011 20.1C8.2618 20.0001 8.25086 19.8919 8.26845 19.7864C8.28603 19.6809 8.33149 19.582 8.40011 19.5L11.3001 16.4C11.3878 16.3019 11.4959 16.2241 11.6168 16.1723C11.7378 16.1205 11.8686 16.0958 12.0001 16.1ZM12.0001 14.6C11.6615 14.6045 11.3274 14.6777 11.018 14.8152C10.7086 14.9528 10.4303 15.1517 10.2001 15.4L7.30011 18.4C7.0432 18.7176 6.87161 19.0956 6.80162 19.4981C6.73162 19.9006 6.76552 20.3143 6.90011 20.7C7.07972 21.0523 7.35098 21.3497 7.68534 21.5609C8.0197 21.7721 8.4048 21.8892 8.80011 21.9H15.2001C15.606 21.8799 15.9984 21.7478 16.3337 21.5184C16.6691 21.2889 16.9344 20.971 17.1001 20.6C17.2478 20.2256 17.2791 19.8153 17.1899 19.4228C17.1007 19.0302 16.8952 18.6738 16.6001 18.4L13.8001 15.4C13.5699 15.1517 13.2916 14.9528 12.9822 14.8152C12.6728 14.6777 12.3387 14.6045 12.0001 14.6ZM8.90011 4.29999H15.2001C15.3171 4.29763 15.4312 4.33636 15.5225 4.40945C15.6139 4.48254 15.6767 4.58535 15.7001 4.69999C15.7297 4.80108 15.736 4.90753 15.7187 5.01142C15.7014 5.1153 15.6608 5.21394 15.6001 5.29999L12.7001 8.29999C12.5132 8.48321 12.2619 8.58584 12.0001 8.58584C11.7384 8.58584 11.487 8.48321 11.3001 8.29999L8.40011 5.19999C8.33149 5.11797 8.28603 5.01909 8.26845 4.9136C8.25086 4.80811 8.2618 4.69983 8.30011 4.59999C8.3416 4.50397 8.41216 4.42337 8.50186 4.36956C8.59155 4.31574 8.69587 4.29141 8.80011 4.29999H8.90011ZM8.90011 2.79999H8.80011C8.4048 2.81077 8.0197 2.92792 7.68534 3.13909C7.35098 3.35027 7.07972 3.64766 6.90011 3.99999C6.76552 4.38571 6.73162 4.79941 6.80162 5.2019C6.87161 5.60439 7.0432 5.98235 7.30011 6.29999L10.2001 9.29999C10.4303 9.54828 10.7086 9.74722 11.018 9.88474C11.3274 10.0223 11.6615 10.0955 12.0001 10.1C12.3387 10.0955 12.6728 10.0223 12.9822 9.88474C13.2916 9.74722 13.5699 9.54828 13.8001 9.29999L16.6001 6.29999C16.8952 6.02619 17.1007 5.66973 17.1899 5.27722C17.2791 4.88471 17.2478 4.47442 17.1001 4.09999C16.9344 3.72896 16.6691 3.41109 16.3337 3.18163C15.9984 2.95216 15.606 2.82006 15.2001 2.79999H8.90011Z" fill="black"/>
</svg>
