<svg width="24" height="24" viewBox="0 0 24 24" fill="none" xmlns="http://www.w3.org/2000/svg">
<path d="M19.27 7.55006C19.1796 7.23983 19.006 6.96027 18.768 6.74169C18.5301 6.5231 18.2368 6.37383 17.92 6.31006C17.8001 5.82632 17.5504 5.38446 17.198 5.03205C16.8456 4.67963 16.4038 4.43001 15.92 4.31006L15.68 2.88006C15.5991 2.41047 15.3531 1.98522 14.9864 1.68089C14.6198 1.37655 14.1565 1.21313 13.68 1.22006H8.82002C8.34356 1.21313 7.88027 1.37655 7.51361 1.68089C7.14694 1.98522 6.90098 2.41047 6.82002 2.88006L6.62002 4.34006C6.02235 4.48363 5.49032 4.824 5.10944 5.30644C4.72856 5.78889 4.52096 6.38539 4.52002 7.00006V17.0001C4.52096 17.6147 4.72856 18.2112 5.10944 18.6937C5.49032 19.1761 6.02235 19.5165 6.62002 19.6601L6.86002 21.0901C6.94098 21.5596 7.18694 21.9849 7.55361 22.2892C7.92027 22.5936 8.38356 22.757 8.86002 22.7501H13.76C14.2365 22.757 14.6998 22.5936 15.0664 22.2892C15.4331 21.9849 15.6791 21.5596 15.76 21.0901L16 19.6601C16.5791 19.4976 17.0887 19.1492 17.4501 18.6685C17.8116 18.1878 18.0048 17.6015 18 17.0001V11.6701C18.2961 11.5922 18.5669 11.4388 18.786 11.225C19.0051 11.0112 19.165 10.7442 19.25 10.4501C19.5366 9.50561 19.5436 8.49837 19.27 7.55006ZM8.34002 3.15006C8.35911 3.03707 8.41799 2.93463 8.50603 2.86127C8.59406 2.78791 8.70544 2.74846 8.82002 2.75006H13.72C13.8361 2.74882 13.9486 2.78967 14.0369 2.86505C14.1252 2.94043 14.1831 3.04524 14.2 3.16006L14.38 4.25006H8.16002L8.34002 3.15006ZM14.2 20.8401C14.1831 20.9549 14.1252 21.0597 14.0369 21.1351C13.9486 21.2104 13.8361 21.2513 13.72 21.2501H8.82002C8.70544 21.2517 8.59406 21.2122 8.50603 21.1389C8.41799 21.0655 8.35911 20.9631 8.34002 20.8501L8.16002 19.7501H14.38L14.2 20.8401ZM16.52 17.0001C16.52 17.3316 16.3883 17.6495 16.1539 17.8839C15.9195 18.1184 15.6015 18.2501 15.27 18.2501H7.27002C7.10419 18.2527 6.93949 18.2223 6.78552 18.1607C6.63155 18.0991 6.49138 18.0074 6.37318 17.8911C6.25498 17.7748 6.16111 17.6361 6.09705 17.4831C6.03298 17.3301 6 17.1659 6.00002 17.0001V7.00006C6 6.83421 6.03298 6.67002 6.09705 6.51704C6.16111 6.36407 6.25498 6.22537 6.37318 6.10903C6.49138 5.99269 6.63155 5.90104 6.78552 5.83941C6.93949 5.77778 7.10419 5.74741 7.27002 5.75006H15.27C15.6015 5.75006 15.9195 5.88176 16.1539 6.11618C16.3883 6.3506 16.52 6.66854 16.52 7.00006V17.0001Z" fill="black"/>
</svg>
