<svg width="24" height="24" viewBox="0 0 24 24" fill="none" xmlns="http://www.w3.org/2000/svg">
<path d="M16.7798 20.1401C15.8919 20.67 14.922 21.0485 13.9098 21.2601C13.763 21.2902 13.6113 21.287 13.4659 21.2507C13.3205 21.2143 13.1851 21.1458 13.0698 21.0501C12.9506 20.9559 12.8544 20.8358 12.7886 20.6989C12.7228 20.562 12.689 20.412 12.6898 20.2601V16.6801C12.6898 16.6801 12.6898 16.6801 12.6898 16.6201C13.5658 16.4656 14.3599 16.0086 14.9337 15.3289C15.5075 14.6491 15.8246 13.7896 15.8298 12.9001V11.1901C16.3111 11.0668 16.7356 10.7821 17.0323 10.3835C17.329 9.98489 17.4799 9.49654 17.4598 9.00006C17.4571 8.43423 17.2305 7.89248 16.8295 7.49331C16.4284 7.09414 15.8856 6.87005 15.3198 6.87006H15.2598V4.69006C15.2598 4.50706 15.1871 4.33156 15.0577 4.20216C14.9283 4.07276 14.7528 4.00006 14.5698 4.00006C14.3868 4.00006 14.2113 4.07276 14.0819 4.20216C13.9525 4.33156 13.8798 4.50706 13.8798 4.69006V6.91006H10.2098V4.68006C10.2098 4.58945 10.1919 4.49972 10.1573 4.41601C10.1226 4.33229 10.0718 4.25623 10.0077 4.19215C9.94361 4.12808 9.86755 4.07726 9.78383 4.04258C9.70012 4.00791 9.6104 3.99006 9.51978 3.99006C9.42917 3.99006 9.33945 4.00791 9.25573 4.04258C9.17202 4.07726 9.09595 4.12808 9.03188 4.19215C8.96781 4.25623 8.91698 4.33229 8.88231 4.41601C8.84763 4.49972 8.82978 4.58945 8.82978 4.68006V6.91006H8.67978C8.14902 6.9117 7.63727 7.10781 7.24133 7.46128C6.8454 7.81475 6.59274 8.30108 6.53115 8.82826C6.46957 9.35543 6.60332 9.8869 6.90712 10.3221C7.21092 10.7573 7.66369 11.0661 8.17978 11.1901V12.9001C8.18304 13.7901 8.49945 14.6507 9.07357 15.3308C9.64769 16.011 10.4429 16.4674 11.3198 16.6201C11.3198 16.6201 11.3198 16.6201 11.3198 16.6801V20.2601C11.3171 20.5756 11.377 20.8885 11.4959 21.1808C11.6149 21.4731 11.7905 21.7389 12.0127 21.963C12.2349 22.187 12.4992 22.3649 12.7905 22.4862C13.0818 22.6076 13.3942 22.6701 13.7098 22.6701C13.8749 22.6699 14.0395 22.6497 14.1998 22.6101C15.3631 22.369 16.4782 21.9365 17.4998 21.3301C17.5782 21.2837 17.6467 21.2223 17.7012 21.1493C17.7558 21.0764 17.7954 20.9934 17.8177 20.9051C17.84 20.8167 17.8446 20.7249 17.8312 20.6348C17.8179 20.5447 17.7868 20.4581 17.7398 20.3801C17.6443 20.221 17.4895 20.1064 17.3095 20.0614C17.1294 20.0163 16.9389 20.0447 16.7798 20.1401ZM7.92978 9.00006C7.92978 8.80115 8.0088 8.61038 8.14945 8.46973C8.2901 8.32908 8.48087 8.25006 8.67978 8.25006H15.3198C15.424 8.25385 15.5264 8.27851 15.621 8.32257C15.7155 8.36664 15.8002 8.42921 15.8701 8.5066C15.9401 8.58398 15.9938 8.6746 16.0281 8.7731C16.0624 8.8716 16.0765 8.97598 16.0698 9.08006C16.0672 9.27817 15.9873 9.46743 15.8472 9.60752C15.7072 9.74762 15.5179 9.82747 15.3198 9.83006H8.67978C8.57511 9.82766 8.47202 9.80394 8.37682 9.76034C8.28162 9.71674 8.19632 9.65419 8.12612 9.5765C8.05592 9.49882 8.0023 9.40763 7.96854 9.30852C7.93479 9.2094 7.9216 9.10444 7.92978 9.00006ZM9.55978 12.9001V11.2601H14.4398V12.9001C14.4398 13.5472 14.1827 14.1678 13.7251 14.6254C13.2675 15.083 12.6469 15.3401 11.9998 15.3401C11.3527 15.3401 10.732 15.083 10.2744 14.6254C9.81685 14.1678 9.55978 13.5472 9.55978 12.9001ZM22.7498 12.0901C22.7542 13.7338 22.3777 15.3562 21.6498 16.8301C21.5935 16.9467 21.5054 17.0451 21.3958 17.1141C21.2862 17.1831 21.1593 17.2198 21.0298 17.2201C20.9223 17.2219 20.816 17.1979 20.7198 17.1501C20.5567 17.0663 20.4323 16.9228 20.3727 16.7494C20.313 16.5761 20.3227 16.3864 20.3998 16.2201C21.0505 14.9402 21.3929 13.5259 21.3998 12.0901C21.4021 10.7658 21.1233 9.45622 20.582 8.24771C20.0407 7.03919 19.2491 5.9593 18.2595 5.07936C17.2699 4.19943 16.1049 3.53948 14.8414 3.14312C13.5779 2.74676 12.2447 2.62302 10.9298 2.78006C9.96105 2.89021 9.01595 3.15349 8.12978 3.56006C8.04713 3.59862 7.95765 3.62042 7.86651 3.62418C7.77538 3.62794 7.68441 3.6136 7.59885 3.58198C7.5133 3.55037 7.43486 3.5021 7.36808 3.43998C7.3013 3.37785 7.2475 3.30311 7.20978 3.22006C7.13462 3.05274 7.12813 2.86261 7.19171 2.69056C7.2553 2.5185 7.38387 2.37828 7.54978 2.30006C8.57303 1.83373 9.66283 1.53008 10.7798 1.40006C12.2875 1.22514 13.8151 1.37118 15.2624 1.82858C16.7096 2.28599 18.0437 3.0444 19.1771 4.05401C20.3104 5.06362 21.2173 6.30157 21.8382 7.68657C22.4591 9.07156 22.78 10.5722 22.7798 12.0901H22.7498ZM5.10978 16.8401C4.76427 16.8479 4.424 16.9262 4.10978 17.0701C2.98653 15.2826 2.49696 13.1694 2.71978 11.0701C2.85143 9.76244 3.26785 8.49952 3.93978 7.37006C4.03117 7.2106 4.05618 7.02159 4.00941 6.84384C3.96263 6.6661 3.84783 6.51388 3.68978 6.42006C3.60986 6.36359 3.5187 6.32503 3.42251 6.30702C3.32632 6.28901 3.22738 6.29198 3.13245 6.31571C3.03751 6.33944 2.94881 6.38339 2.87242 6.44454C2.79602 6.5057 2.73373 6.58262 2.68978 6.67006C1.91791 7.96729 1.44001 9.41805 1.28978 10.9201C1.01771 13.4072 1.62251 15.9113 2.99978 18.0001C2.73906 18.4058 2.60023 18.8778 2.59978 19.3601C2.60176 19.8521 2.74947 20.3325 3.02428 20.7407C3.29908 21.1489 3.68865 21.4664 4.14381 21.6534C4.59897 21.8403 5.09931 21.8882 5.58166 21.791C6.06401 21.6938 6.50675 21.4559 6.85398 21.1072C7.20122 20.7586 7.43738 20.3149 7.53264 19.8322C7.62791 19.3494 7.57802 18.8493 7.38927 18.3949C7.20052 17.9405 6.88137 17.5522 6.47211 17.279C6.06285 17.0058 5.58183 16.8601 5.08978 16.8601L5.10978 16.8401ZM5.10978 20.4401C4.88982 20.4401 4.67482 20.3747 4.49207 20.2523C4.30932 20.1299 4.16707 19.9559 4.08335 19.7525C3.99964 19.5491 3.97825 19.3254 4.0219 19.1098C4.06555 18.8942 4.17226 18.6965 4.3285 18.5416C4.48474 18.3868 4.68345 18.2819 4.89943 18.2402C5.1154 18.1985 5.33889 18.2219 5.54154 18.3075C5.74418 18.393 5.91684 18.5368 6.03759 18.7207C6.15835 18.9045 6.22176 19.1201 6.21978 19.3401C6.21715 19.6327 6.09904 19.9125 5.89116 20.1185C5.68328 20.3245 5.40245 20.4401 5.10978 20.4401ZM20.1098 18.8001C20.1111 18.8876 20.095 18.9745 20.0624 19.0557C20.0299 19.1369 19.9815 19.2109 19.92 19.2732C19.8586 19.3356 19.7854 19.3851 19.7047 19.4189C19.624 19.4527 19.5373 19.4701 19.4498 19.4701C19.3556 19.4816 19.26 19.4731 19.1694 19.4449C19.0788 19.4168 18.9952 19.3697 18.9241 19.3069C18.8531 19.244 18.7962 19.1668 18.7572 19.0803C18.7182 18.9937 18.6981 18.8999 18.6981 18.8051C18.6981 18.7102 18.7182 18.6164 18.7572 18.5299C18.7962 18.4434 18.8531 18.3661 18.9241 18.3032C18.9952 18.2404 19.0788 18.1933 19.1694 18.1652C19.26 18.1371 19.3556 18.1285 19.4498 18.1401C19.5398 18.1346 19.6299 18.1476 19.7147 18.1783C19.7994 18.209 19.877 18.2568 19.9426 18.3186C20.0081 18.3805 20.0604 18.4551 20.096 18.5379C20.1316 18.6207 20.1499 18.7099 20.1498 18.8001H20.1098ZM4.72978 4.69006C4.72978 4.55755 4.76908 4.42801 4.8427 4.31783C4.91632 4.20765 5.02096 4.12177 5.14338 4.07106C5.26581 4.02035 5.40053 4.00708 5.53049 4.03293C5.66046 4.05878 5.77984 4.1226 5.87354 4.2163C5.96725 4.31 6.03106 4.42938 6.05691 4.55935C6.08276 4.68932 6.06949 4.82403 6.01878 4.94646C5.96807 5.06888 5.8822 5.17352 5.77202 5.24714C5.66183 5.32076 5.5323 5.36006 5.39978 5.36006C5.22209 5.36006 5.05167 5.28947 4.92602 5.16382C4.80037 5.03817 4.72978 4.86775 4.72978 4.69006Z" fill="black"/>
</svg>
