<svg width="24" height="24" viewBox="0 0 24 24" fill="none" xmlns="http://www.w3.org/2000/svg">
<path d="M5.89 21.75H3.68C3.36089 21.75 3.0449 21.6871 2.75008 21.565C2.45526 21.4429 2.18738 21.2639 1.96173 21.0383C1.73608 20.8126 1.55709 20.5447 1.43497 20.2499C1.31285 19.9551 1.25 19.6391 1.25 19.32V4.68C1.25 4.03552 1.50602 3.41744 1.96173 2.96173C2.41744 2.50602 3.03552 2.25 3.68 2.25H5.89C6.53448 2.25 7.15256 2.50602 7.60827 2.96173C8.06398 3.41744 8.32 4.03552 8.32 4.68V19.32C8.32 19.6391 8.25715 19.9551 8.13503 20.2499C8.01291 20.5447 7.83392 20.8126 7.60827 21.0383C7.38262 21.2639 7.11474 21.4429 6.81992 21.565C6.5251 21.6871 6.20911 21.75 5.89 21.75ZM3.68 3.75C3.43335 3.75 3.1968 3.84798 3.02239 4.02239C2.84798 4.1968 2.75 4.43335 2.75 4.68V19.32C2.75 19.5667 2.84798 19.8032 3.02239 19.9776C3.10875 20.064 3.21127 20.1325 3.3241 20.1792C3.43694 20.2259 3.55787 20.25 3.68 20.25H5.89C6.13665 20.25 6.3732 20.152 6.54761 19.9776C6.72202 19.8032 6.82 19.5667 6.82 19.32V4.68C6.82 4.43335 6.72202 4.1968 6.54761 4.02239C6.3732 3.84798 6.13665 3.75 5.89 3.75H3.68ZM20.34 21.75H12.18C11.5426 21.7474 10.9321 21.4923 10.4823 21.0406C10.0325 20.5889 9.77999 19.9774 9.78 19.34V15.13C9.77999 14.4926 10.0325 13.8811 10.4823 13.4294C10.9321 12.9777 11.5426 12.7226 12.18 12.72H20.34C20.9792 12.72 21.5922 12.9739 22.0441 13.4259C22.4961 13.8778 22.75 14.4908 22.75 15.13V19.34C22.75 19.9792 22.4961 20.5922 22.0441 21.0441C21.5922 21.4961 20.9792 21.75 20.34 21.75ZM12.18 14.22C12.061 14.22 11.9431 14.2436 11.8333 14.2895C11.7234 14.3353 11.6237 14.4025 11.54 14.4871C11.4563 14.5718 11.3903 14.6722 11.3456 14.7825C11.301 14.8929 11.2787 15.011 11.28 15.13V19.34C11.2787 19.459 11.301 19.5771 11.3456 19.6875C11.3903 19.7978 11.4563 19.8982 11.54 19.9829C11.6237 20.0675 11.7234 20.1347 11.8333 20.1805C11.9431 20.2264 12.061 20.25 12.18 20.25H20.34C20.5813 20.25 20.8128 20.1541 20.9835 19.9835C21.1541 19.8128 21.25 19.5813 21.25 19.34V15.13C21.25 14.8887 21.1541 14.6572 20.9835 14.4865C20.8128 14.3159 20.5813 14.22 20.34 14.22H12.18ZM20.34 11.22H12.18C11.5443 11.2174 10.9354 10.9637 10.4859 10.5141C10.0363 10.0646 9.78263 9.45571 9.78 8.82V4.66C9.77999 4.02256 10.0325 3.41107 10.4823 2.9594C10.9321 2.50772 11.5426 2.25264 12.18 2.25H20.34C20.9792 2.25 21.5922 2.50391 22.0441 2.95587C22.4961 3.40784 22.75 4.02083 22.75 4.66V8.87C22.7474 9.50744 22.4923 10.1179 22.0406 10.5677C21.5889 11.0175 20.9774 11.27 20.34 11.27V11.22ZM12.18 3.75C12.061 3.74999 11.9431 3.7736 11.8333 3.81945C11.7234 3.86531 11.6237 3.93249 11.54 4.01713C11.4563 4.10176 11.3903 4.20216 11.3456 4.31251C11.301 4.42286 11.2787 4.54097 11.28 4.66V8.87C11.28 9.10869 11.3748 9.33761 11.5436 9.5064C11.7124 9.67518 11.9413 9.77 12.18 9.77H20.34C20.459 9.77132 20.5771 9.74902 20.6875 9.70438C20.7978 9.65975 20.8982 9.59366 20.9829 9.50996C21.0675 9.42625 21.1347 9.32659 21.1805 9.21674C21.2264 9.10689 21.25 8.98904 21.25 8.87V4.66C21.25 4.41865 21.1541 4.18719 20.9835 4.01653C20.8128 3.84587 20.5813 3.75 20.34 3.75H12.18Z" fill="black"/>
</svg>
