<svg width="24" height="24" viewBox="0 0 24 24" fill="none" xmlns="http://www.w3.org/2000/svg">
<path d="M20.29 21.75H12.21C11.8869 21.75 11.5671 21.6864 11.2686 21.5627C10.9701 21.4391 10.6989 21.2579 10.4705 21.0295C10.2421 20.8011 10.0609 20.5299 9.93726 20.2314C9.81363 19.9329 9.75 19.6131 9.75 19.29V4.71C9.75 4.05757 10.0092 3.43186 10.4705 2.97052C10.9319 2.50918 11.5576 2.25 12.21 2.25H20.29C20.9424 2.25 21.5681 2.50918 22.0295 2.97052C22.4908 3.43186 22.75 4.05757 22.75 4.71V19.29C22.75 19.6131 22.6864 19.9329 22.5627 20.2314C22.4391 20.5299 22.2579 20.8011 22.0295 21.0295C21.8011 21.2579 21.5299 21.4391 21.2314 21.5627C20.9329 21.6864 20.6131 21.75 20.29 21.75ZM12.21 3.75C11.9448 3.75 11.6904 3.85536 11.5029 4.04289C11.3154 4.23043 11.21 4.48478 11.21 4.75V19.29C11.21 19.5552 11.3154 19.8096 11.5029 19.9971C11.6904 20.1846 11.9448 20.29 12.21 20.29H20.29C20.5552 20.29 20.8096 20.1846 20.9971 19.9971C21.1846 19.8096 21.29 19.5552 21.29 19.29V4.71C21.29 4.44478 21.1846 4.19043 20.9971 4.00289C20.8096 3.81536 20.5552 3.71 20.29 3.71L12.21 3.75ZM5.86 21.75H3.68C3.36089 21.75 3.0449 21.6871 2.75008 21.565C2.45526 21.4429 2.18738 21.2639 1.96173 21.0383C1.73608 20.8126 1.55709 20.5447 1.43497 20.2499C1.31285 19.9551 1.25 19.6391 1.25 19.32V4.68C1.25 4.03552 1.50602 3.41744 1.96173 2.96173C2.41744 2.50602 3.03552 2.25 3.68 2.25H5.86C6.50448 2.25 7.12256 2.50602 7.57827 2.96173C8.03398 3.41744 8.29 4.03552 8.29 4.68V19.32C8.29 19.6391 8.22715 19.9551 8.10503 20.2499C7.98291 20.5447 7.80392 20.8126 7.57827 21.0383C7.35262 21.2639 7.08474 21.4429 6.78992 21.565C6.4951 21.6871 6.17911 21.75 5.86 21.75ZM3.68 3.75C3.43335 3.75 3.1968 3.84798 3.02239 4.02239C2.84798 4.1968 2.75 4.43335 2.75 4.68V19.32C2.75 19.5667 2.84798 19.8032 3.02239 19.9776C3.1968 20.152 3.43335 20.25 3.68 20.25H5.86C6.10665 20.25 6.3432 20.152 6.51761 19.9776C6.69202 19.8032 6.79 19.5667 6.79 19.32V4.68C6.79 4.43335 6.69202 4.1968 6.51761 4.02239C6.3432 3.84798 6.10665 3.75 5.86 3.75H3.68Z" fill="black"/>
</svg>
