<svg width="24" height="24" viewBox="0 0 24 24" fill="none" xmlns="http://www.w3.org/2000/svg">
<path d="M19.8999 13.25H15.0499C14.4099 13.2474 13.7969 12.9912 13.3452 12.5377C12.8935 12.0841 12.6399 11.4701 12.6399 10.83V3.66C12.6399 3.02083 12.8939 2.40784 13.3458 1.95587C13.7978 1.50391 14.4108 1.25 15.0499 1.25H19.8999C20.5391 1.25 21.1521 1.50391 21.6041 1.95587C22.056 2.40784 22.3099 3.02083 22.3099 3.66V10.83C22.3099 11.4701 22.0564 12.0841 21.6047 12.5377C21.153 12.9912 20.54 13.2474 19.8999 13.25ZM15.0499 2.75C14.8086 2.75 14.5771 2.84587 14.4065 3.01653C14.2358 3.18719 14.1399 3.41865 14.1399 3.66V10.83C14.1399 11.0723 14.2355 11.3048 14.4059 11.477C14.5762 11.6493 14.8077 11.7474 15.0499 11.75H19.8999C20.1422 11.7474 20.3736 11.6493 20.544 11.477C20.7144 11.3048 20.81 11.0723 20.8099 10.83V3.66C20.8099 3.41865 20.7141 3.18719 20.5434 3.01653C20.3727 2.84587 20.1413 2.75 19.8999 2.75H15.0499ZM19.9199 22.75H15.1399C14.5052 22.7474 13.8973 22.4933 13.4493 22.0435C13.0014 21.5937 12.7499 20.9848 12.7499 20.35V17.09C12.7499 16.4561 13.0017 15.8482 13.45 15.4C13.8982 14.9518 14.5061 14.7 15.1399 14.7H19.9199C20.5538 14.7 21.1617 14.9518 21.6099 15.4C22.0581 15.8482 22.3099 16.4561 22.3099 17.09V20.35C22.3099 20.9848 22.0585 21.5937 21.6105 22.0435C21.1626 22.4933 20.5547 22.7474 19.9199 22.75ZM15.1399 16.2C15.0231 16.2 14.9073 16.223 14.7994 16.2677C14.6914 16.3125 14.5933 16.378 14.5106 16.4607C14.428 16.5433 14.3624 16.6414 14.3177 16.7494C14.273 16.8574 14.2499 16.9731 14.2499 17.09V20.35C14.2486 20.4677 14.2707 20.5845 14.3148 20.6937C14.3589 20.8028 14.4243 20.9021 14.5071 20.9858C14.5898 21.0695 14.6884 21.136 14.797 21.1813C14.9057 21.2267 15.0222 21.25 15.1399 21.25H19.9199C20.0377 21.25 20.1542 21.2267 20.2629 21.1813C20.3715 21.136 20.4701 21.0695 20.5528 20.9858C20.6356 20.9021 20.701 20.8028 20.7451 20.6937C20.7892 20.5845 20.8113 20.4677 20.8099 20.35V17.09C20.8099 16.854 20.7162 16.6276 20.5493 16.4607C20.3824 16.2938 20.156 16.2 19.9199 16.2H15.1399ZM8.74994 22.75H4.12994C3.48362 22.7474 2.86453 22.4895 2.40751 22.0324C1.95049 21.5754 1.69257 20.9563 1.68994 20.31V3.69C1.69257 3.04368 1.95049 2.42459 2.40751 1.96757C2.86453 1.51055 3.48362 1.25263 4.12994 1.25H8.74994C9.39626 1.25263 10.0154 1.51055 10.4724 1.96757C10.9294 2.42459 11.1873 3.04368 11.1899 3.69V20.31C11.1873 20.9563 10.9294 21.5754 10.4724 22.0324C10.0154 22.4895 9.39626 22.7474 8.74994 22.75ZM4.12994 2.75C3.88064 2.75 3.64155 2.84904 3.46526 3.02532C3.28898 3.2016 3.18994 3.4407 3.18994 3.69V20.31C3.18994 20.5593 3.28898 20.7984 3.46526 20.9747C3.64155 21.151 3.88064 21.25 4.12994 21.25H8.74994C8.99924 21.25 9.23834 21.151 9.41462 20.9747C9.59091 20.7984 9.68994 20.5593 9.68994 20.31V3.69C9.68994 3.4407 9.59091 3.2016 9.41462 3.02532C9.23834 2.84904 8.99924 2.75 8.74994 2.75H4.12994Z" fill="black"/>
</svg>
