<svg width="24" height="24" viewBox="0 0 24 24" fill="none" xmlns="http://www.w3.org/2000/svg">
<path d="M8.47 11.25H3.47C2.81036 11.2369 2.18216 10.9656 1.72033 10.4945C1.2585 10.0233 0.99987 9.38977 1 8.73V3.73C1.0105 3.06861 1.28063 2.43787 1.75209 1.97389C2.22354 1.50992 2.85853 1.24992 3.52 1.25H8.52C9.18139 1.2605 9.81213 1.53063 10.2761 2.00209C10.7401 2.47354 11.0001 3.10853 11 3.77V8.77C10.9895 9.43312 10.718 10.0654 10.2444 10.5296C9.77074 10.9939 9.1332 11.2527 8.47 11.25ZM3.47 2.75C3.20478 2.75 2.95043 2.85536 2.76289 3.04289C2.57536 3.23043 2.47 3.48478 2.47 3.75V8.75C2.47 9.01522 2.57536 9.26957 2.76289 9.45711C2.95043 9.64464 3.20478 9.75 3.47 9.75H8.47C8.73522 9.75 8.98957 9.64464 9.17711 9.45711C9.36464 9.26957 9.47 9.01522 9.47 8.75V3.75C9.47 3.48478 9.36464 3.23043 9.17711 3.04289C8.98957 2.85536 8.73522 2.75 8.47 2.75H3.47ZM20 11.25H15C14.3351 11.2447 13.6993 10.9769 13.231 10.5049C12.7627 10.0329 12.5 9.39489 12.5 8.73V3.73C12.5104 3.07206 12.7778 2.44429 13.2449 1.98087C13.7121 1.51745 14.342 1.25514 15 1.25H20C20.6683 1.25 21.3093 1.5155 21.7819 1.98809C22.2545 2.46068 22.52 3.10165 22.52 3.77V8.77C22.5095 9.43139 22.2394 10.0621 21.7679 10.5261C21.2965 10.9901 20.6615 11.2501 20 11.25ZM15 2.75C14.7348 2.75 14.4804 2.85536 14.2929 3.04289C14.1054 3.23043 14 3.48478 14 3.75V8.75C14 9.01522 14.1054 9.26957 14.2929 9.45711C14.4804 9.64464 14.7348 9.75 15 9.75H20C20.2652 9.75 20.5196 9.64464 20.7071 9.45711C20.8946 9.26957 21 9.01522 21 8.75V3.75C21 3.48478 20.8946 3.23043 20.7071 3.04289C20.5196 2.85536 20.2652 2.75 20 2.75H15ZM8.45 22.75H3.45C2.79386 22.7318 2.17073 22.4582 1.71317 21.9876C1.25562 21.517 0.999747 20.8864 1 20.23V15.23C1 14.5617 1.2655 13.9207 1.73809 13.4481C2.21068 12.9755 2.85165 12.71 3.52 12.71H8.52C8.85094 12.7152 9.17762 12.7856 9.48137 12.917C9.78512 13.0485 10.06 13.2386 10.2903 13.4763C10.5206 13.714 10.7018 13.9948 10.8236 14.3025C10.9453 14.6103 11.0053 14.9391 11 15.27V20.27C10.9895 20.9331 10.718 21.5654 10.2444 22.0296C9.77074 22.4939 9.1332 22.7527 8.47 22.75H8.45ZM3.45 14.25C3.18478 14.25 2.93043 14.3554 2.74289 14.5429C2.55536 14.7304 2.45 14.9848 2.45 15.25V20.25C2.45 20.5152 2.55536 20.7696 2.74289 20.9571C2.93043 21.1446 3.18478 21.25 3.45 21.25H8.45C8.71522 21.25 8.96957 21.1446 9.15711 20.9571C9.34464 20.7696 9.45 20.5152 9.45 20.25V15.25C9.45 14.9848 9.34464 14.7304 9.15711 14.5429C8.96957 14.3554 8.71522 14.25 8.45 14.25H3.45ZM21.74 19.67C21.7374 19.4719 21.6576 19.2826 21.5175 19.1425C21.3774 19.0024 21.1881 18.9226 20.99 18.92H14C13.8011 18.92 13.6103 18.999 13.4697 19.1397C13.329 19.2803 13.25 19.4711 13.25 19.67C13.25 19.8689 13.329 20.0597 13.4697 20.2003C13.6103 20.341 13.8011 20.42 14 20.42H21C21.1972 20.4174 21.3854 20.3372 21.5239 20.1968C21.6624 20.0565 21.74 19.8672 21.74 19.67ZM21.74 15.83C21.74 15.6311 21.661 15.4403 21.5203 15.2997C21.3797 15.159 21.1889 15.08 20.99 15.08H14C13.8011 15.08 13.6103 15.159 13.4697 15.2997C13.329 15.4403 13.25 15.6311 13.25 15.83C13.25 16.0289 13.329 16.2197 13.4697 16.3603C13.6103 16.501 13.8011 16.58 14 16.58H21C21.1964 16.5748 21.3831 16.4939 21.5211 16.354C21.659 16.2142 21.7375 16.0264 21.74 15.83Z" fill="black"/>
</svg>
