<svg width="24" height="24" viewBox="0 0 24 24" fill="none" xmlns="http://www.w3.org/2000/svg">
<path d="M19.91 22.25H12.49C11.8685 22.25 11.2722 22.0038 10.8318 21.5652C10.3914 21.1267 10.1426 20.5315 10.14 19.91V18.78C10.1426 18.1585 10.3914 17.5633 10.8318 17.1248C11.2722 16.6862 11.8685 16.44 12.49 16.44H19.91C20.5306 16.44 21.1258 16.6865 21.5646 17.1254C22.0035 17.5642 22.25 18.1594 22.25 18.78V19.91C22.25 20.5306 22.0035 21.1258 21.5646 21.5646C21.1258 22.0035 20.5306 22.25 19.91 22.25ZM12.49 17.94C12.2663 17.94 12.0516 18.0282 11.8925 18.1854C11.7333 18.3427 11.6426 18.5563 11.64 18.78V19.91C11.6426 20.1337 11.7333 20.3473 11.8925 20.5046C12.0516 20.6618 12.2663 20.75 12.49 20.75H19.91C20.132 20.7474 20.3441 20.6581 20.5011 20.5011C20.6581 20.3441 20.7474 20.132 20.75 19.91V18.78C20.7474 18.558 20.6581 18.3459 20.5011 18.1889C20.3441 18.0319 20.132 17.9426 19.91 17.94H12.49ZM19.91 15H12.48C11.8594 15 11.2642 14.7535 10.8254 14.3146C10.3865 13.8758 10.14 13.2806 10.14 12.66V11.55C10.1426 10.9311 10.3903 10.3385 10.8289 9.90183C11.2674 9.46516 11.8611 9.21999 12.48 9.22H19.91C20.5289 9.21999 21.1226 9.46516 21.5611 9.90183C21.9997 10.3385 22.2474 10.9311 22.25 11.55V12.66C22.25 13.2806 22.0035 13.8758 21.5646 14.3146C21.1258 14.7535 20.5306 15 19.91 15ZM12.48 10.72C12.2589 10.72 12.0468 10.8071 11.8895 10.9625C11.7323 11.1179 11.6426 11.329 11.64 11.55V12.66C11.6426 12.882 11.7319 13.0941 11.8889 13.2511C12.0459 13.4081 12.258 13.4974 12.48 13.5H19.91C20.1328 13.5 20.3464 13.4115 20.504 13.254C20.6615 13.0964 20.75 12.8828 20.75 12.66V11.55C20.75 11.4402 20.7282 11.3314 20.6859 11.23C20.6435 11.1287 20.5815 11.0367 20.5034 10.9595C20.4252 10.8823 20.3326 10.8214 20.2307 10.7803C20.1288 10.7392 20.0198 10.7187 19.91 10.72H12.48ZM19.85 7.72H4.15C3.51256 7.71735 2.90214 7.46228 2.45233 7.0106C2.00253 6.55893 1.74999 5.94744 1.75 5.31V4.15C1.75263 3.51429 2.00633 2.90537 2.45585 2.45585C2.90537 2.00633 3.51429 1.75263 4.15 1.75H19.85C20.4857 1.75263 21.0946 2.00633 21.5441 2.45585C21.9937 2.90537 22.2474 3.51429 22.25 4.15V5.33C22.25 5.96744 21.9975 6.57893 21.5477 7.0306C21.0979 7.48228 20.4874 7.73735 19.85 7.74V7.72ZM4.15 3.25C3.91211 3.2526 3.6847 3.34826 3.51648 3.51648C3.34826 3.6847 3.2526 3.91211 3.25 4.15V5.33C3.24999 5.56962 3.34449 5.79958 3.51299 5.96996C3.68149 6.14033 3.91039 6.23737 4.15 6.24H19.85C20.0896 6.23737 20.3185 6.14033 20.487 5.96996C20.6555 5.79958 20.75 5.56962 20.75 5.33V4.15C20.7474 3.91211 20.6517 3.6847 20.4835 3.51648C20.3153 3.34826 20.0879 3.2526 19.85 3.25H4.15ZM6.3 22.25H4.13C3.4996 22.2474 2.89576 21.9958 2.44999 21.55C2.00423 21.1042 1.75263 20.5004 1.75 19.87V11.6C1.75263 10.9696 2.00423 10.3658 2.44999 9.91999C2.89576 9.47423 3.4996 9.22263 4.13 9.22H6.3C6.93122 9.22 7.53658 9.47075 7.98291 9.91709C8.42925 10.3634 8.68 10.9688 8.68 11.6V19.87C8.68 20.1825 8.61844 20.492 8.49883 20.7808C8.37923 21.0695 8.20392 21.3319 7.98291 21.5529C7.76191 21.7739 7.49954 21.9492 7.21079 22.0688C6.92203 22.1884 6.61255 22.25 6.3 22.25ZM4.13 10.72C4.01407 10.7187 3.89903 10.7405 3.79166 10.7843C3.68429 10.828 3.58674 10.8928 3.50476 10.9748C3.42278 11.0567 3.358 11.1543 3.31426 11.2617C3.27051 11.369 3.24866 11.4841 3.25 11.6V19.87C3.24866 19.9859 3.27051 20.101 3.31426 20.2083C3.358 20.3157 3.42278 20.4133 3.50476 20.4952C3.58674 20.5772 3.68429 20.642 3.79166 20.6857C3.89903 20.7295 4.01407 20.7513 4.13 20.75H6.3C6.41594 20.7513 6.53097 20.7295 6.63834 20.6857C6.74571 20.642 6.84326 20.5772 6.92524 20.4952C7.00723 20.4133 7.072 20.3157 7.11574 20.2083C7.15949 20.101 7.18134 19.9859 7.18 19.87V11.6C7.18134 11.4841 7.15949 11.369 7.11574 11.2617C7.072 11.1543 7.00723 11.0567 6.92524 10.9748C6.84326 10.8928 6.74571 10.828 6.63834 10.7843C6.53097 10.7405 6.41594 10.7187 6.3 10.72H4.13Z" fill="black"/>
</svg>
