<svg width="24" height="24" viewBox="0 0 24 24" fill="none" xmlns="http://www.w3.org/2000/svg">
<path d="M5.41 2.75V5.41H2.75V2.75H5.41ZM5.78 1.25H2.38C2.08111 1.25261 1.79521 1.3725 1.58385 1.58385C1.3725 1.79521 1.25261 2.08111 1.25 2.38V5.78C1.25261 6.07889 1.3725 6.36479 1.58385 6.57615C1.79521 6.7875 2.08111 6.90739 2.38 6.91H5.78C6.07889 6.90739 6.36479 6.7875 6.57615 6.57615C6.7875 6.36479 6.90739 6.07889 6.91 5.78V2.38C6.90739 2.08111 6.7875 1.79521 6.57615 1.58385C6.36479 1.3725 6.07889 1.25261 5.78 1.25ZM21.25 2.75V5.41H18.59V2.75H21.25ZM13.33 2.75V5.41H10.67V2.75H13.33ZM21.25 10.67V13.33H18.59V10.67H21.25ZM13.33 10.67V13.33H10.67V10.67H13.33ZM5.41 10.67V13.33H2.75V10.67H5.41ZM21.25 18.59V21.25H18.59V18.59H21.25ZM13.33 18.59V21.25H10.67V18.59H13.33ZM5.41 18.59V21.25H2.75V18.59H5.41ZM21.62 1.25H18.22C17.9211 1.25261 17.6352 1.3725 17.4239 1.58385C17.2125 1.79521 17.0926 2.08111 17.09 2.38V5.78C17.0926 6.07889 17.2125 6.36479 17.4239 6.57615C17.6352 6.7875 17.9211 6.90739 18.22 6.91H21.62C21.9189 6.90739 22.2048 6.7875 22.4161 6.57615C22.6275 6.36479 22.7474 6.07889 22.75 5.78V2.38C22.7474 2.08111 22.6275 1.79521 22.4161 1.58385C22.2048 1.3725 21.9189 1.25261 21.62 1.25ZM13.7 1.25H10.3C10.0011 1.25261 9.71521 1.3725 9.50385 1.58385C9.2925 1.79521 9.17261 2.08111 9.17 2.38V5.78C9.17261 6.07889 9.2925 6.36479 9.50385 6.57615C9.71521 6.7875 10.0011 6.90739 10.3 6.91H13.7C13.9989 6.90739 14.2848 6.7875 14.4961 6.57615C14.7075 6.36479 14.8274 6.07889 14.83 5.78V2.38C14.8274 2.08111 14.7075 1.79521 14.4961 1.58385C14.2848 1.3725 13.9989 1.25261 13.7 1.25ZM21.62 9.17H18.22C17.9211 9.17261 17.6352 9.2925 17.4239 9.50385C17.2125 9.71521 17.0926 10.0011 17.09 10.3V13.7C17.0926 13.9989 17.2125 14.2848 17.4239 14.4961C17.6352 14.7075 17.9211 14.8274 18.22 14.83H21.62C21.9189 14.8274 22.2048 14.7075 22.4161 14.4961C22.6275 14.2848 22.7474 13.9989 22.75 13.7V10.3C22.7474 10.0011 22.6275 9.71521 22.4161 9.50385C22.2048 9.2925 21.9189 9.17261 21.62 9.17ZM13.7 9.17H10.3C10.0011 9.17261 9.71521 9.2925 9.50385 9.50385C9.2925 9.71521 9.17261 10.0011 9.17 10.3V13.7C9.17261 13.9989 9.2925 14.2848 9.50385 14.4961C9.71521 14.7075 10.0011 14.8274 10.3 14.83H13.7C13.9989 14.8274 14.2848 14.7075 14.4961 14.4961C14.7075 14.2848 14.8274 13.9989 14.83 13.7V10.3C14.8274 10.0011 14.7075 9.71521 14.4961 9.50385C14.2848 9.2925 13.9989 9.17261 13.7 9.17ZM5.78 9.17H2.38C2.08111 9.17261 1.79521 9.2925 1.58385 9.50385C1.3725 9.71521 1.25261 10.0011 1.25 10.3V13.7C1.25261 13.9989 1.3725 14.2848 1.58385 14.4961C1.79521 14.7075 2.08111 14.8274 2.38 14.83H5.78C6.07889 14.8274 6.36479 14.7075 6.57615 14.4961C6.7875 14.2848 6.90739 13.9989 6.91 13.7V10.3C6.90739 10.0011 6.7875 9.71521 6.57615 9.50385C6.36479 9.2925 6.07889 9.17261 5.78 9.17ZM21.62 17.09H18.22C17.9211 17.0926 17.6352 17.2125 17.4239 17.4239C17.2125 17.6352 17.0926 17.9211 17.09 18.22V21.62C17.0926 21.9189 17.2125 22.2048 17.4239 22.4161C17.6352 22.6275 17.9211 22.7474 18.22 22.75H21.62C21.9189 22.7474 22.2048 22.6275 22.4161 22.4161C22.6275 22.2048 22.7474 21.9189 22.75 21.62V18.22C22.7474 17.9211 22.6275 17.6352 22.4161 17.4239C22.2048 17.2125 21.9189 17.0926 21.62 17.09ZM13.7 17.09H10.3C10.0011 17.0926 9.71521 17.2125 9.50385 17.4239C9.2925 17.6352 9.17261 17.9211 9.17 18.22V21.62C9.17261 21.9189 9.2925 22.2048 9.50385 22.4161C9.71521 22.6275 10.0011 22.7474 10.3 22.75H13.7C13.9989 22.7474 14.2848 22.6275 14.4961 22.4161C14.7075 22.2048 14.8274 21.9189 14.83 21.62V18.22C14.8274 17.9211 14.7075 17.6352 14.4961 17.4239C14.2848 17.2125 13.9989 17.0926 13.7 17.09ZM5.78 17.09H2.38C2.08111 17.0926 1.79521 17.2125 1.58385 17.4239C1.3725 17.6352 1.25261 17.9211 1.25 18.22V21.62C1.25261 21.9189 1.3725 22.2048 1.58385 22.4161C1.79521 22.6275 2.08111 22.7474 2.38 22.75H5.78C6.07889 22.7474 6.36479 22.6275 6.57615 22.4161C6.7875 22.2048 6.90739 21.9189 6.91 21.62V18.22C6.90739 17.9211 6.7875 17.6352 6.57615 17.4239C6.36479 17.2125 6.07889 17.0926 5.78 17.09Z" fill="black"/>
</svg>
