<svg width="24" height="24" viewBox="0 0 24 24" fill="none" xmlns="http://www.w3.org/2000/svg">
<path d="M20 22.25H18.8C18.19 22.25 17.605 22.0077 17.1737 21.5763C16.7423 21.145 16.5 20.56 16.5 19.95V12C16.5 11.3891 16.742 10.803 17.173 10.3701C17.6041 9.93719 18.1891 9.69264 18.8 9.69H20C20.6022 9.70565 21.1744 9.95591 21.5948 10.3874C22.0151 10.819 22.2502 11.3976 22.25 12V20C22.2372 20.5927 21.9961 21.1577 21.5769 21.5769C21.1577 21.9961 20.5927 22.2372 20 22.25ZM18.8 11.25C18.5962 11.2496 18.4 11.327 18.2513 11.4664C18.1026 11.6057 18.0127 11.7966 18 12V20C18 20.2122 18.0843 20.4157 18.2343 20.5657C18.3843 20.7157 18.5878 20.8 18.8 20.8H20C20.2122 20.8 20.4157 20.7157 20.5657 20.5657C20.7157 20.4157 20.8 20.2122 20.8 20V12C20.8013 11.8941 20.7816 11.789 20.742 11.6908C20.7024 11.5926 20.6437 11.5032 20.5693 11.4278C20.4948 11.3525 20.4062 11.2927 20.3085 11.2518C20.2108 11.211 20.1059 11.19 20 11.19L18.8 11.25ZM12.73 22.25H11.53C10.9313 22.2475 10.3573 22.0106 9.93114 21.59C9.50496 21.1694 9.26045 20.5987 9.25 20V12C9.24999 11.3944 9.48989 10.8134 9.91719 10.3843C10.3445 9.95508 10.9244 9.71264 11.53 9.71H12.68C12.9829 9.70736 13.2833 9.76458 13.564 9.87836C13.8447 9.99214 14.1002 10.1602 14.3157 10.373C14.5313 10.5858 14.7027 10.8391 14.8202 11.1183C14.9376 11.3975 14.9987 11.6971 15 12V20C14.9869 20.6048 14.736 21.18 14.3018 21.6012C13.8676 22.0223 13.2849 22.2554 12.68 22.25H12.73ZM11.58 11.25C11.3722 11.2526 11.1738 11.337 11.0278 11.4849C10.8818 11.6328 10.8 11.8322 10.8 12.04V20C10.7987 20.1033 10.8179 20.2058 10.8565 20.3016C10.8951 20.3974 10.9523 20.4845 11.0249 20.558C11.0975 20.6315 11.1839 20.6899 11.2792 20.7297C11.3745 20.7695 11.4767 20.79 11.58 20.79H12.73C12.9395 20.79 13.1405 20.7068 13.2886 20.5586C13.4368 20.4105 13.52 20.2095 13.52 20V12C13.52 11.7905 13.4368 11.5895 13.2886 11.4414C13.1405 11.2932 12.9395 11.21 12.73 11.21L11.58 11.25ZM5.43 22.25H4.08C3.46286 22.2474 2.87174 22.001 2.43535 21.5647C1.99896 21.1283 1.75263 20.5371 1.75 19.92V12.06C1.75263 11.4429 1.99896 10.8517 2.43535 10.4153C2.87174 9.97896 3.46286 9.73263 4.08 9.73H5.38C5.99714 9.73263 6.58826 9.97896 7.02465 10.4153C7.46104 10.8517 7.70737 11.4429 7.71 12.06V19.92C7.70737 20.5371 7.46104 21.1283 7.02465 21.5647C6.58826 22.001 5.99714 22.2474 5.38 22.25H5.43ZM4.13 11.25C3.90987 11.25 3.69876 11.3374 3.5431 11.4931C3.38745 11.6488 3.3 11.8599 3.3 12.08V19.94C3.3 20.1601 3.38745 20.3712 3.5431 20.5269C3.69876 20.6826 3.90987 20.77 4.13 20.77H5.43C5.65013 20.77 5.86124 20.6826 6.0169 20.5269C6.17255 20.3712 6.26 20.1601 6.26 19.94V12.06C6.26 11.8399 6.17255 11.6288 6.0169 11.4731C5.86124 11.3174 5.65013 11.23 5.43 11.23L4.13 11.25ZM19.8 8.25H4.25C3.58696 8.25 2.95107 7.98661 2.48223 7.51777C2.01339 7.04893 1.75 6.41304 1.75 5.75V4.25C1.75 3.58696 2.01339 2.95107 2.48223 2.48223C2.95107 2.01339 3.58696 1.75 4.25 1.75H19.75C20.413 1.75 21.0489 2.01339 21.5178 2.48223C21.9866 2.95107 22.25 3.58696 22.25 4.25V5.75C22.25 6.41304 21.9866 7.04893 21.5178 7.51777C21.0489 7.98661 20.413 8.25 19.75 8.25H19.8ZM4.3 3.25C4.03478 3.25 3.78043 3.35536 3.59289 3.54289C3.40536 3.73043 3.3 3.98478 3.3 4.25V5.75C3.3 6.01522 3.40536 6.26957 3.59289 6.45711C3.78043 6.64464 4.03478 6.75 4.3 6.75H19.8C20.0652 6.75 20.3196 6.64464 20.5071 6.45711C20.6946 6.26957 20.8 6.01522 20.8 5.75V4.25C20.8 3.98478 20.6946 3.73043 20.5071 3.54289C20.3196 3.35536 20.0652 3.25 19.8 3.25H4.3Z" fill="black"/>
</svg>
