<svg width="24" height="24" viewBox="0 0 24 24" fill="none" xmlns="http://www.w3.org/2000/svg">
<path d="M19.86 7.68H4.14C3.50613 7.68 2.89823 7.4282 2.45001 6.97999C2.0018 6.53177 1.75 5.92387 1.75 5.29V4.14C1.75 3.50613 2.0018 2.89823 2.45001 2.45001C2.89823 2.0018 3.50613 1.75 4.14 1.75H19.86C20.4939 1.75 21.1018 2.0018 21.55 2.45001C21.9982 2.89823 22.25 3.50613 22.25 4.14V5.29C22.25 5.92387 21.9982 6.53177 21.55 6.97999C21.1018 7.4282 20.4939 7.68 19.86 7.68ZM4.14 3.25C3.90396 3.25 3.67758 3.34377 3.51067 3.51067C3.34377 3.67758 3.25 3.90396 3.25 4.14V5.29C3.25 5.52604 3.34377 5.75242 3.51067 5.91932C3.67758 6.08623 3.90396 6.18 4.14 6.18H19.86C19.9769 6.18 20.0926 6.15698 20.2006 6.11225C20.3086 6.06753 20.4067 6.00197 20.4893 5.91932C20.572 5.83668 20.6375 5.73857 20.6823 5.63059C20.727 5.52261 20.75 5.40688 20.75 5.29V4.14C20.75 4.02312 20.727 3.90739 20.6823 3.79941C20.6375 3.69143 20.572 3.59332 20.4893 3.51067C20.4067 3.42803 20.3086 3.36247 20.2006 3.31775C20.0926 3.27302 19.9769 3.25 19.86 3.25H4.14ZM6.34 22.25H4.14C3.50613 22.25 2.89823 21.9982 2.45001 21.55C2.0018 21.1018 1.75 20.4939 1.75 19.86V11.6C1.75 10.9661 2.0018 10.3582 2.45001 9.91002C2.89823 9.4618 3.50613 9.21 4.14 9.21H6.34C6.97213 9.21265 7.57747 9.46562 8.02352 9.91354C8.46958 10.3615 8.72001 10.9679 8.72 11.6V19.86C8.72001 20.4921 8.46958 21.0985 8.02352 21.5465C7.57747 21.9944 6.97213 22.2474 6.34 22.25ZM4.14 10.71C3.90396 10.71 3.67758 10.8038 3.51067 10.9707C3.34377 11.1376 3.25 11.364 3.25 11.6V19.86C3.25 19.9769 3.27302 20.0926 3.31775 20.2006C3.36247 20.3086 3.42803 20.4067 3.51067 20.4893C3.59332 20.572 3.69143 20.6375 3.79941 20.6823C3.90739 20.727 4.02312 20.75 4.14 20.75H6.34C6.57431 20.7474 6.79812 20.6524 6.96287 20.4858C7.12762 20.3192 7.22001 20.0943 7.22 19.86V11.6C7.22001 11.3657 7.12762 11.1408 6.96287 10.9742C6.79812 10.8076 6.57431 10.7126 6.34 10.71H4.14ZM19.83 22.25H12.66C12.019 22.2474 11.405 21.9916 10.9517 21.5383C10.4984 21.085 10.2426 20.471 10.24 19.83V11.64C10.24 10.9973 10.4946 10.3807 10.9482 9.92526C11.4017 9.46983 12.0173 9.21265 12.66 9.21H19.83C20.4727 9.21265 21.0883 9.46983 21.5418 9.92526C21.9954 10.3807 22.25 10.9973 22.25 11.64V19.83C22.2474 20.471 21.9916 21.085 21.5383 21.5383C21.085 21.9916 20.471 22.2474 19.83 22.25ZM12.66 10.71C12.4151 10.7126 12.1811 10.8118 12.0088 10.9859C11.8366 11.16 11.74 11.3951 11.74 11.64V19.83C11.74 20.074 11.8369 20.308 12.0095 20.4805C12.182 20.6531 12.416 20.75 12.66 20.75H19.83C20.074 20.75 20.308 20.6531 20.4805 20.4805C20.6531 20.308 20.75 20.074 20.75 19.83V11.64C20.75 11.3951 20.6534 11.16 20.4812 10.9859C20.3089 10.8118 20.0749 10.7126 19.83 10.71H12.66Z" fill="black"/>
</svg>
