<svg width="24" height="24" viewBox="0 0 24 24" fill="none" xmlns="http://www.w3.org/2000/svg">
<path d="M9 8.72H4.07C3.76533 8.72 3.46365 8.65999 3.18217 8.5434C2.9007 8.42681 2.64494 8.25592 2.42951 8.04049C1.99443 7.6054 1.75 7.0153 1.75 6.4V3.57C1.75 2.9547 1.99443 2.3646 2.42951 1.92951C2.8646 1.49443 3.4547 1.25 4.07 1.25H9C9.6153 1.25 10.2054 1.49443 10.6405 1.92951C11.0756 2.3646 11.32 2.9547 11.32 3.57V6.4C11.32 7.0153 11.0756 7.6054 10.6405 8.04049C10.2054 8.47557 9.6153 8.72 9 8.72ZM4.06 2.72C3.84252 2.72 3.63395 2.80639 3.48017 2.96017C3.32639 3.11395 3.24 3.32252 3.24 3.54V6.4C3.24 6.61748 3.32639 6.82605 3.48017 6.97983C3.63395 7.13361 3.84252 7.22 4.06 7.22H9C9.10768 7.22 9.21431 7.19879 9.3138 7.15758C9.41329 7.11637 9.50368 7.05597 9.57983 6.97983C9.65597 6.90368 9.71637 6.81329 9.75758 6.7138C9.79879 6.61431 9.82 6.50768 9.82 6.4V3.57C9.82 3.46232 9.79879 3.35569 9.75758 3.2562C9.71637 3.15671 9.65597 3.06632 9.57983 2.99017C9.50368 2.91403 9.41329 2.85363 9.3138 2.81242C9.21431 2.77121 9.10768 2.75 9 2.75L4.06 2.72ZM8.87 22.72H4.2C3.55538 22.72 2.93672 22.466 2.47811 22.0131C2.0195 21.5601 1.75789 20.9446 1.75 20.3V12.7C1.75 12.0502 2.00812 11.4271 2.46759 10.9676C2.92705 10.5081 3.55022 10.25 4.2 10.25H8.88C9.52978 10.25 10.1529 10.5081 10.6124 10.9676C11.0719 11.4271 11.33 12.0502 11.33 12.7V20.3C11.33 20.6217 11.2666 20.9403 11.1435 21.2376C11.0204 21.5348 10.8399 21.8049 10.6124 22.0324C10.3849 22.2599 10.1148 22.4404 9.81757 22.5635C9.52033 22.6866 9.20174 22.75 8.88 22.75L8.87 22.72ZM4.19 11.72C3.93322 11.7197 3.68616 11.8181 3.5 11.995C3.31384 12.1719 3.20284 12.4135 3.19 12.67V20.27C3.20284 20.5265 3.31384 20.7681 3.5 20.945C3.68616 21.1219 3.93322 21.2203 4.19 21.22H8.88C9.12804 21.2079 9.3627 21.1039 9.5383 20.9283C9.7139 20.7527 9.81788 20.518 9.83 20.27V12.7C9.81788 12.452 9.7139 12.2173 9.5383 12.0417C9.3627 11.8661 9.12804 11.7621 8.88 11.75L4.19 11.72ZM19.8 13.72H15.26C14.6129 13.72 13.9922 13.4629 13.5347 13.0053C13.0771 12.5478 12.82 11.9271 12.82 11.28V3.69C12.82 3.04287 13.0771 2.42225 13.5347 1.96466C13.9922 1.50707 14.6129 1.25 15.26 1.25H19.81C20.4571 1.25 21.0778 1.50707 21.5353 1.96466C21.9929 2.42225 22.25 3.04287 22.25 3.69V11.31C22.25 11.9571 21.9929 12.5778 21.5353 13.0353C21.0778 13.4929 20.4571 13.75 19.81 13.75L19.8 13.72ZM15.25 2.72C15.0007 2.72 14.7616 2.81904 14.5853 2.99532C14.409 3.1716 14.31 3.4107 14.31 3.66V11.28C14.31 11.5293 14.409 11.7684 14.5853 11.9447C14.7616 12.121 15.0007 12.22 15.25 12.22H19.8C19.9234 12.22 20.0457 12.1957 20.1597 12.1484C20.2738 12.1012 20.3774 12.032 20.4647 11.9447C20.552 11.8574 20.6212 11.7538 20.6684 11.6397C20.7157 11.5257 20.74 11.4034 20.74 11.28V3.69C20.74 3.56656 20.7157 3.44432 20.6684 3.33028C20.6212 3.21623 20.552 3.11261 20.4647 3.02532C20.3774 2.93803 20.2738 2.86879 20.1597 2.82155C20.0457 2.77431 19.9234 2.75 19.8 2.75L15.25 2.72ZM19.93 22.72H15.13C14.5164 22.72 13.9278 22.477 13.493 22.044C13.0582 21.6111 12.8126 21.0236 12.81 20.41V17.53C12.8126 16.9164 13.0582 16.3289 13.493 15.896C13.9278 15.463 14.5164 15.22 15.13 15.22H19.93C20.5418 15.2226 21.1279 15.4669 21.5605 15.8995C21.9931 16.3321 22.2374 16.9182 22.24 17.53V20.44C22.2374 21.0501 21.9946 21.6347 21.5641 22.067C21.1336 22.4994 20.5501 22.7447 19.94 22.75L19.93 22.72ZM15.13 16.72C14.9142 16.72 14.7072 16.805 14.5537 16.9566C14.4002 17.1083 14.3126 17.3143 14.31 17.53V20.44C14.3126 20.6557 14.4002 20.8618 14.5537 21.0134C14.7072 21.165 14.9142 21.25 15.13 21.25H19.93C20.1448 21.25 20.3509 21.1647 20.5028 21.0128C20.6547 20.8609 20.74 20.6548 20.74 20.44V17.53C20.74 17.3152 20.6547 17.1091 20.5028 16.9572C20.3509 16.8053 20.1448 16.72 19.93 16.72H15.13Z" fill="black"/>
</svg>
