<svg width="24" height="24" viewBox="0 0 24 24" fill="none" xmlns="http://www.w3.org/2000/svg">
<path d="M19.82 22.25H4.18C3.53552 22.25 2.91744 21.994 2.46173 21.5383C2.00602 21.0826 1.75 20.4645 1.75 19.82V12.1C1.75265 11.4573 2.00983 10.8417 2.46526 10.3882C2.92068 9.93464 3.53725 9.68 4.18 9.68H19.82C20.4627 9.68 21.0793 9.93464 21.5347 10.3882C21.9902 10.8417 22.2474 11.4573 22.25 12.1V19.82C22.25 20.4645 21.994 21.0826 21.5383 21.5383C21.0826 21.994 20.4645 22.25 19.82 22.25ZM4.18 11.18C3.93507 11.18 3.70003 11.2766 3.5259 11.4488C3.35178 11.6211 3.25263 11.8551 3.25 12.1V19.82C3.25 20.0667 3.34798 20.3032 3.52239 20.4776C3.6968 20.652 3.93335 20.75 4.18 20.75H19.82C20.0667 20.75 20.3032 20.652 20.4776 20.4776C20.652 20.3032 20.75 20.0667 20.75 19.82V12.1C20.7474 11.8551 20.6482 11.6211 20.4741 11.4488C20.3 11.2766 20.0649 11.18 19.82 11.18H4.18ZM19.75 8.25H4.25C3.58696 8.25 2.95107 7.98661 2.48223 7.51777C2.01339 7.04893 1.75 6.41304 1.75 5.75V4.25C1.75 3.58696 2.01339 2.95107 2.48223 2.48223C2.95107 2.01339 3.58696 1.75 4.25 1.75H19.75C20.413 1.75 21.0489 2.01339 21.5178 2.48223C21.9866 2.95107 22.25 3.58696 22.25 4.25V5.75C22.25 6.41304 21.9866 7.04893 21.5178 7.51777C21.0489 7.98661 20.413 8.25 19.75 8.25ZM4.25 3.25C3.98478 3.25 3.73043 3.35536 3.54289 3.54289C3.35536 3.73043 3.25 3.98478 3.25 4.25V5.75C3.25 6.01522 3.35536 6.26957 3.54289 6.45711C3.73043 6.64464 3.98478 6.75 4.25 6.75H19.75C20.0152 6.75 20.2696 6.64464 20.4571 6.45711C20.6446 6.26957 20.75 6.01522 20.75 5.75V4.25C20.75 3.98478 20.6446 3.73043 20.4571 3.54289C20.2696 3.35536 20.0152 3.25 19.75 3.25H4.25Z" fill="black"/>
</svg>
