<svg width="24" height="24" viewBox="0 0 24 24" fill="none" xmlns="http://www.w3.org/2000/svg">
<path d="M10.79 21.75H4.69C3.77766 21.75 2.90268 21.3876 2.25755 20.7424C1.61243 20.0973 1.25 19.2223 1.25 18.31V5.69C1.25 4.77766 1.61243 3.90268 2.25755 3.25755C2.90268 2.61243 3.77766 2.25 4.69 2.25H10.79C11.7006 2.25265 12.573 2.61624 13.216 3.26108C13.8589 3.90592 14.22 4.77939 14.22 5.69V18.31C14.22 19.2206 13.8589 20.0941 13.216 20.7389C12.573 21.3838 11.7006 21.7474 10.79 21.75ZM4.69 3.75C4.17548 3.75 3.68203 3.95439 3.31821 4.31821C2.95439 4.68203 2.75 5.17548 2.75 5.69V18.31C2.75 18.8245 2.95439 19.318 3.31821 19.6818C3.68203 20.0456 4.17548 20.25 4.69 20.25H10.79C11.0443 20.25 11.2961 20.1998 11.5309 20.1021C11.7657 20.0045 11.9789 19.8615 12.1583 19.6812C12.3376 19.5009 12.4796 19.287 12.576 19.0517C12.6724 18.8163 12.7213 18.5643 12.72 18.31V5.69C12.7213 5.43571 12.6724 5.18366 12.576 4.94835C12.4796 4.71304 12.3376 4.49909 12.1583 4.31881C11.9789 4.13854 11.7657 3.99548 11.5309 3.89786C11.2961 3.80025 11.0443 3.75 10.79 3.75H4.69ZM20.32 21.75H18.16C17.8409 21.75 17.5249 21.6871 17.2301 21.565C16.9353 21.4429 16.6674 21.2639 16.4417 21.0383C16.2161 20.8126 16.0371 20.5447 15.915 20.2499C15.7929 19.9551 15.73 19.6391 15.73 19.32V4.68C15.73 4.03552 15.986 3.41744 16.4417 2.96173C16.8974 2.50602 17.5155 2.25 18.16 2.25H20.32C20.9645 2.25 21.5826 2.50602 22.0383 2.96173C22.494 3.41744 22.75 4.03552 22.75 4.68V19.32C22.75 19.6391 22.6871 19.9551 22.565 20.2499C22.4429 20.5447 22.2639 20.8126 22.0383 21.0383C21.8126 21.2639 21.5447 21.4429 21.2499 21.565C20.9551 21.6871 20.6391 21.75 20.32 21.75ZM18.16 3.75C17.9133 3.75 17.6768 3.84798 17.5024 4.02239C17.328 4.1968 17.23 4.43335 17.23 4.68V19.32C17.23 19.5667 17.328 19.8032 17.5024 19.9776C17.6768 20.152 17.9133 20.25 18.16 20.25H20.32C20.5667 20.25 20.8032 20.152 20.9776 19.9776C21.152 19.8032 21.25 19.5667 21.25 19.32V4.68C21.25 4.43335 21.152 4.1968 20.9776 4.02239C20.8032 3.84798 20.5667 3.75 20.32 3.75H18.16Z" fill="black"/>
</svg>
