<svg width="24" height="24" viewBox="0 0 24 24" fill="none" xmlns="http://www.w3.org/2000/svg">
<path d="M8.81 22.75H4.19C3.54368 22.7474 2.92459 22.4895 2.46757 22.0324C2.01055 21.5754 1.75263 20.9563 1.75 20.31V3.69C1.75263 3.04368 2.01055 2.42459 2.46757 1.96757C2.92459 1.51055 3.54368 1.25263 4.19 1.25H8.81C9.45713 1.25 10.0778 1.50707 10.5353 1.96466C10.9929 2.42225 11.25 3.04287 11.25 3.69V20.31C11.25 20.9571 10.9929 21.5778 10.5353 22.0353C10.0778 22.4929 9.45713 22.75 8.81 22.75ZM4.19 2.75C3.9407 2.75 3.7016 2.84904 3.52532 3.02532C3.34904 3.2016 3.25 3.4407 3.25 3.69V20.31C3.25 20.5593 3.34904 20.7984 3.52532 20.9747C3.7016 21.151 3.9407 21.25 4.19 21.25H8.81C9.0593 21.25 9.2984 21.151 9.47468 20.9747C9.65096 20.7984 9.75 20.5593 9.75 20.31V3.69C9.75 3.4407 9.65096 3.2016 9.47468 3.02532C9.2984 2.84904 9.0593 2.75 8.81 2.75H4.19ZM19.86 11.18H15.12C14.4869 11.1774 13.8806 10.9247 13.4329 10.4771C12.9853 10.0294 12.7326 9.42306 12.73 8.79V3.64C12.7326 3.00694 12.9853 2.40057 13.4329 1.95292C13.8806 1.50528 14.4869 1.25263 15.12 1.25H19.86C20.4939 1.25 21.1018 1.5018 21.55 1.95001C21.9982 2.39823 22.25 3.00613 22.25 3.64V8.79C22.2474 9.42306 21.9947 10.0294 21.5471 10.4771C21.0994 10.9247 20.4931 11.1774 19.86 11.18ZM15.12 2.75C14.884 2.75 14.6576 2.84377 14.4907 3.01067C14.3238 3.17758 14.23 3.40396 14.23 3.64V8.79C14.23 9.02604 14.3238 9.25242 14.4907 9.41932C14.6576 9.58623 14.884 9.68 15.12 9.68H19.86C19.9769 9.68 20.0926 9.65698 20.2006 9.61225C20.3086 9.56753 20.4067 9.50197 20.4893 9.41932C20.572 9.33668 20.6375 9.23857 20.6823 9.13059C20.727 9.02261 20.75 8.90688 20.75 8.79V3.64C20.75 3.52312 20.727 3.40739 20.6823 3.29941C20.6375 3.19143 20.572 3.09332 20.4893 3.01067C20.4067 2.92803 20.3086 2.86247 20.2006 2.81775C20.0926 2.77302 19.9769 2.75 19.86 2.75H15.12ZM19.85 22.75H15.14C14.5026 22.75 13.8911 22.4975 13.4394 22.0477C12.9877 21.5979 12.7326 20.9874 12.73 20.35V15.1C12.73 14.784 12.7924 14.4711 12.9136 14.1792C13.0349 13.8874 13.2126 13.6224 13.4365 13.3994C13.6604 13.1764 13.9262 12.9998 14.2185 12.8798C14.5108 12.7598 14.824 12.6987 15.14 12.7H19.85C20.4865 12.7 21.097 12.9529 21.5471 13.4029C21.9971 13.853 22.25 14.4635 22.25 15.1V20.35C22.2474 20.9857 21.9937 21.5946 21.5441 22.0441C21.0946 22.4937 20.4857 22.7474 19.85 22.75ZM15.14 14.2C15.021 14.1987 14.9029 14.221 14.7925 14.2656C14.6822 14.3103 14.5818 14.3763 14.4971 14.46C14.4125 14.5437 14.3453 14.6434 14.2995 14.7533C14.2536 14.8631 14.23 14.981 14.23 15.1V20.35C14.2326 20.5896 14.3297 20.8185 14.5 20.987C14.6704 21.1555 14.9004 21.25 15.14 21.25H19.85C20.0879 21.2474 20.3153 21.1517 20.4835 20.9835C20.6517 20.8153 20.7474 20.5879 20.75 20.35V15.1C20.75 14.8613 20.6552 14.6324 20.4864 14.4636C20.3176 14.2948 20.0887 14.2 19.85 14.2H15.14Z" fill="black"/>
</svg>
