<svg width="24" height="24" viewBox="0 0 24 24" fill="none" xmlns="http://www.w3.org/2000/svg">
<path d="M8.7201 11.25H3.7201C3.06046 11.2369 2.43226 10.9656 1.97042 10.4944C1.50859 10.0232 1.24997 9.38973 1.2501 8.72996V3.72996C1.2606 3.06857 1.53072 2.43783 2.00218 1.97385C2.47364 1.50988 3.10863 1.24988 3.7701 1.24996H8.7701C9.43844 1.24996 10.0794 1.51546 10.552 1.98805C11.0246 2.46064 11.2901 3.10162 11.2901 3.76996V8.76996C11.2849 9.10176 11.2142 9.42927 11.0821 9.73368C10.95 10.0381 10.7591 10.3134 10.5203 10.5438C10.2815 10.7743 9.99954 10.9553 9.69061 11.0764C9.38169 11.1976 9.05187 11.2566 8.7201 11.25ZM3.7201 2.74996C3.45488 2.74996 3.20053 2.85532 3.01299 3.04285C2.82545 3.23039 2.7201 3.48474 2.7201 3.74996V8.74996C2.7201 9.01518 2.82545 9.26953 3.01299 9.45707C3.20053 9.6446 3.45488 9.74996 3.7201 9.74996H8.7201C8.98531 9.74996 9.23967 9.6446 9.4272 9.45707C9.61474 9.26953 9.7201 9.01518 9.7201 8.74996V3.74996C9.7201 3.48474 9.61474 3.23039 9.4272 3.04285C9.23967 2.85532 8.98531 2.74996 8.7201 2.74996H3.7201ZM20.1801 11.25H15.1801C14.5118 11.25 13.8708 10.9845 13.3982 10.5119C12.9256 10.0393 12.6601 9.39831 12.6601 8.72996V3.72996C12.6601 3.06162 12.9256 2.42064 13.3982 1.94805C13.8708 1.47546 14.5118 1.20996 15.1801 1.20996H20.1801C20.8484 1.20996 21.4894 1.47546 21.962 1.94805C22.4346 2.42064 22.7001 3.06162 22.7001 3.72996V8.72996C22.7002 9.38973 22.4416 10.0232 21.9798 10.4944C21.5179 10.9656 20.8897 11.2369 20.2301 11.25H20.1801ZM15.1801 2.74996C14.9149 2.74996 14.6605 2.85532 14.473 3.04285C14.2855 3.23039 14.1801 3.48474 14.1801 3.74996V8.74996C14.1801 9.01518 14.2855 9.26953 14.473 9.45707C14.6605 9.6446 14.9149 9.74996 15.1801 9.74996H20.1801C20.4453 9.74996 20.6997 9.6446 20.8872 9.45707C21.0747 9.26953 21.1801 9.01518 21.1801 8.74996V3.74996C21.1801 3.48474 21.0747 3.23039 20.8872 3.04285C20.6997 2.85532 20.4453 2.74996 20.1801 2.74996H15.1801ZM20.1201 22.75H15.2701C14.6018 22.75 13.9608 22.4845 13.4882 22.0119C13.0156 21.5393 12.7501 20.8983 12.7501 20.23V15.23C12.7501 14.5616 13.0156 13.9206 13.4882 13.4481C13.9608 12.9755 14.6018 12.71 15.2701 12.71H20.2201C20.8884 12.71 21.5294 12.9755 22.002 13.4481C22.4746 13.9206 22.7401 14.5616 22.7401 15.23V20.23C22.7401 20.8983 22.4746 21.5393 22.002 22.0119C21.5294 22.4845 20.8884 22.75 20.2201 22.75H20.1201ZM15.1701 14.25C14.9049 14.25 14.6505 14.3553 14.463 14.5429C14.2755 14.7304 14.1701 14.9847 14.1701 15.25V20.25C14.1701 20.5152 14.2755 20.7695 14.463 20.9571C14.6505 21.1446 14.9049 21.25 15.1701 21.25H20.1201C20.3853 21.25 20.6397 21.1446 20.8272 20.9571C21.0147 20.7695 21.1201 20.5152 21.1201 20.25V15.25C21.1201 14.9847 21.0147 14.7304 20.8272 14.5429C20.6397 14.3553 20.3853 14.25 20.1201 14.25H15.1701ZM8.6201 22.75H3.6201C2.95175 22.75 2.31078 22.4845 1.83819 22.0119C1.3656 21.5393 1.1001 20.8983 1.1001 20.23V15.23C1.1001 14.5616 1.3656 13.9206 1.83819 13.4481C2.31078 12.9755 2.95175 12.71 3.6201 12.71H8.6201C9.28844 12.71 9.92941 12.9755 10.402 13.4481C10.8746 13.9206 11.1401 14.5616 11.1401 15.23V20.23C11.1406 20.8813 10.8889 21.5076 10.4377 21.9774C9.98653 22.4472 9.37096 22.7241 8.7201 22.75H8.6201ZM3.6201 14.25C3.35488 14.25 3.10053 14.3553 2.91299 14.5429C2.72545 14.7304 2.6201 14.9847 2.6201 15.25V20.25C2.6201 20.5152 2.72545 20.7695 2.91299 20.9571C3.10053 21.1446 3.35488 21.25 3.6201 21.25H8.6201C8.88531 21.25 9.13967 21.1446 9.3272 20.9571C9.51474 20.7695 9.6201 20.5152 9.6201 20.25V15.25C9.6201 14.9847 9.51474 14.7304 9.3272 14.5429C9.13967 14.3553 8.88531 14.25 8.6201 14.25H3.6201Z" fill="black"/>
</svg>
