<svg width="24" height="24" viewBox="0 0 24 24" fill="none" xmlns="http://www.w3.org/2000/svg">
<path d="M9.22018 1.25001H4.22018C3.56053 1.2631 2.93233 1.53437 2.4705 2.00555C2.00867 2.47673 1.75005 3.11024 1.75018 3.77001V8.77001C1.75018 9.43835 2.01568 10.0793 2.48827 10.5519C2.96086 11.0245 3.60183 11.29 4.27018 11.29H9.27018C9.93852 11.29 10.5795 11.0245 11.0521 10.5519C11.5247 10.0793 11.7902 9.43835 11.7902 8.77001V3.77001C11.7902 3.43483 11.7234 3.103 11.5937 2.79396C11.4639 2.48491 11.2738 2.20485 11.0345 1.97019C10.7952 1.73552 10.5114 1.55095 10.1999 1.42729C9.88836 1.30363 9.55529 1.24336 9.22018 1.25001ZM10.2202 8.73001C10.2202 8.99522 10.1148 9.24958 9.92728 9.43711C9.73975 9.62465 9.48539 9.73001 9.22018 9.73001H4.22018C3.95496 9.73001 3.70061 9.62465 3.51307 9.43711C3.32553 9.24958 3.22018 8.99522 3.22018 8.73001V3.73001C3.22018 3.46479 3.32553 3.21044 3.51307 3.0229C3.70061 2.83536 3.95496 2.73001 4.22018 2.73001H9.22018C9.48539 2.73001 9.73975 2.83536 9.92728 3.0229C10.1148 3.21044 10.2202 3.46479 10.2202 3.73001V8.73001ZM20.7302 1.25001H15.7302C15.0636 1.25265 14.4252 1.51932 13.9547 1.99163C13.4843 2.46393 13.2202 3.10339 13.2202 3.77001V8.77001C13.2202 9.43662 13.4843 10.0761 13.9547 10.5484C14.4252 11.0207 15.0636 11.2874 15.7302 11.29H20.7302C21.3985 11.29 22.0395 11.0245 22.5121 10.5519C22.9847 10.0793 23.2502 9.43835 23.2502 8.77001V3.77001C23.2502 3.10166 22.9847 2.46069 22.5121 1.9881C22.0395 1.51551 21.3985 1.25001 20.7302 1.25001ZM21.7302 8.73001C21.7302 8.99522 21.6248 9.24958 21.4373 9.43711C21.2497 9.62465 20.9954 9.73001 20.7302 9.73001H15.7302C15.465 9.73001 15.2106 9.62465 15.0231 9.43711C14.8355 9.24958 14.7302 8.99522 14.7302 8.73001V3.73001C14.7302 3.46479 14.8355 3.21044 15.0231 3.0229C15.2106 2.83536 15.465 2.73001 15.7302 2.73001H20.7302C20.9954 2.73001 21.2497 2.83536 21.4373 3.0229C21.6248 3.21044 21.7302 3.46479 21.7302 3.73001V8.73001ZM9.20018 12.73H4.20018C3.53183 12.73 2.89086 12.9955 2.41827 13.4681C1.94567 13.9407 1.68018 14.5817 1.68018 15.25V20.25C1.68018 20.9184 1.94567 21.5593 2.41827 22.0319C2.89086 22.5045 3.53183 22.77 4.20018 22.77H9.20018C9.86852 22.77 10.5095 22.5045 10.9821 22.0319C11.4547 21.5593 11.7202 20.9184 11.7202 20.25V15.25C11.7149 14.5886 11.4499 13.9557 10.9822 13.488C10.5145 13.0203 9.8816 12.7552 9.22018 12.75L9.20018 12.73ZM10.2002 20.21C10.2002 20.4752 10.0948 20.7296 9.90728 20.9171C9.71975 21.1047 9.46539 21.21 9.20018 21.21H4.20018C3.93496 21.21 3.68061 21.1047 3.49307 20.9171C3.30553 20.7296 3.20018 20.4752 3.20018 20.21V15.21C3.20018 14.9448 3.30553 14.6904 3.49307 14.5029C3.68061 14.3154 3.93496 14.21 4.20018 14.21H9.20018C9.46539 14.21 9.71975 14.3154 9.90728 14.5029C10.0948 14.6904 10.2002 14.9448 10.2002 15.21V20.21ZM22.0702 17.73C22.0702 17.9289 21.9912 18.1197 21.8505 18.2603C21.7099 18.401 21.5191 18.48 21.3202 18.48H19.0002V20.84C19.0002 21.0389 18.9212 21.2297 18.7805 21.3703C18.6399 21.511 18.4491 21.59 18.2502 21.59C18.0513 21.59 17.8605 21.511 17.7198 21.3703C17.5792 21.2297 17.5002 21.0389 17.5002 20.84V18.5H15.1402C14.9413 18.5 14.7505 18.421 14.6098 18.2803C14.4692 18.1397 14.3902 17.9489 14.3902 17.75C14.3902 17.5511 14.4692 17.3603 14.6098 17.2197C14.7505 17.079 14.9413 17 15.1402 17H17.5002V14.64C17.5002 14.4411 17.5792 14.2503 17.7198 14.1097C17.8605 13.969 18.0513 13.89 18.2502 13.89C18.4491 13.89 18.6399 13.969 18.7805 14.1097C18.9212 14.2503 19.0002 14.4411 19.0002 14.64V17H21.3602C21.5591 17 21.7499 17.079 21.8905 17.2197C22.0312 17.3603 22.1102 17.5511 22.1102 17.75L22.0702 17.73Z" fill="black"/>
</svg>
