<svg width="24" height="24" viewBox="0 0 24 24" fill="none" xmlns="http://www.w3.org/2000/svg">
<path d="M16.47 22.75H7.53C5.86525 22.7474 4.26945 22.0849 3.09229 20.9077C1.91513 19.7306 1.25264 18.1347 1.25 16.47V7.53C1.25264 5.86525 1.91513 4.26945 3.09229 3.09229C4.26945 1.91513 5.86525 1.25264 7.53 1.25H16.47C18.1347 1.25264 19.7306 1.91513 20.9077 3.09229C22.0849 4.26945 22.7474 5.86525 22.75 7.53V16.47C22.7474 18.1347 22.0849 19.7306 20.9077 20.9077C19.7306 22.0849 18.1347 22.7474 16.47 22.75ZM7.53 2.75C6.26227 2.75 5.04645 3.25361 4.15003 4.15003C3.25361 5.04645 2.75 6.26227 2.75 7.53V16.47C2.75 17.7377 3.25361 18.9535 4.15003 19.85C5.04645 20.7464 6.26227 21.25 7.53 21.25H16.47C17.7369 21.2474 18.9512 20.7429 19.8471 19.8471C20.7429 18.9512 21.2474 17.7369 21.25 16.47V7.53C21.2474 6.26308 20.7429 5.0488 19.8471 4.15295C18.9512 3.2571 17.7369 2.75264 16.47 2.75H7.53ZM8.53 10.88C8.00983 10.88 7.50135 10.7258 7.06885 10.4368C6.63635 10.1478 6.29926 9.73703 6.1002 9.25646C5.90114 8.77589 5.84906 8.24708 5.95053 7.73691C6.05201 7.22674 6.3025 6.75812 6.67031 6.39031C7.03812 6.0225 7.50674 5.77201 8.01691 5.67053C8.52708 5.56906 9.05589 5.62114 9.53646 5.8202C10.017 6.01926 10.4278 6.35635 10.7168 6.78885C11.0058 7.22135 11.16 7.72984 11.16 8.25C11.16 8.59792 11.091 8.94238 10.957 9.26344C10.8229 9.58449 10.6265 9.87576 10.3791 10.1204C10.1317 10.365 9.83823 10.5581 9.51567 10.6885C9.19312 10.8189 8.84789 10.884 8.5 10.88H8.53ZM8.53 7.12C8.30533 7.11403 8.08398 7.1752 7.89424 7.29568C7.70451 7.41617 7.55502 7.59049 7.46487 7.79638C7.37473 8.00226 7.34803 8.23035 7.38818 8.45149C7.42833 8.67262 7.53352 8.87676 7.69029 9.03781C7.84707 9.19886 8.0483 9.3095 8.26828 9.35559C8.48826 9.40168 8.71698 9.38112 8.92522 9.29655C9.13345 9.21197 9.31173 9.06722 9.43728 8.8808C9.56282 8.69438 9.62992 8.47475 9.63 8.25C9.62739 7.95111 9.5075 7.66521 9.29615 7.45385C9.08479 7.2425 8.79889 7.12261 8.5 7.12H8.53ZM15.47 10.88C14.9498 10.88 14.4414 10.7258 14.0089 10.4368C13.5763 10.1478 13.2393 9.73703 13.0402 9.25646C12.8411 8.77589 12.7891 8.24708 12.8905 7.73691C12.992 7.22674 13.2425 6.75812 13.6103 6.39031C13.9781 6.0225 14.4467 5.77201 14.9569 5.67053C15.4671 5.56906 15.9959 5.62114 16.4765 5.8202C16.957 6.01926 17.3678 6.35635 17.6568 6.78885C17.9458 7.22135 18.1 7.72984 18.1 8.25C18.1 8.59792 18.031 8.94238 17.897 9.26344C17.7629 9.58449 17.5665 9.87576 17.3191 10.1204C17.0717 10.365 16.7782 10.5581 16.4557 10.6885C16.1331 10.8189 15.7879 10.884 15.44 10.88H15.47ZM15.47 7.12C15.2465 7.12 15.028 7.18627 14.8422 7.31044C14.6564 7.43461 14.5115 7.61109 14.426 7.81757C14.3405 8.02405 14.3181 8.25125 14.3617 8.47045C14.4053 8.68965 14.5129 8.891 14.671 9.04903C14.829 9.20706 15.0303 9.31469 15.2495 9.35829C15.4687 9.40189 15.696 9.37951 15.9024 9.29398C16.1089 9.20846 16.2854 9.06362 16.4096 8.87779C16.5337 8.69197 16.6 8.47349 16.6 8.25C16.5987 8.09944 16.5676 7.95063 16.5085 7.81215C16.4493 7.67368 16.3634 7.5483 16.2555 7.44323C16.1477 7.33817 16.0201 7.25551 15.8801 7.20003C15.7401 7.14455 15.5905 7.11735 15.44 7.12H15.47ZM12 19.83C10.5094 19.8247 9.08146 19.2295 8.02837 18.1746C6.97527 17.1196 6.38263 15.6906 6.38 14.2C6.38 13.6696 6.59071 13.1609 6.96579 12.7858C7.34086 12.4107 7.84957 12.2 8.38 12.2H15.59C16.1204 12.2 16.6291 12.4107 17.0042 12.7858C17.3793 13.1609 17.59 13.6696 17.59 14.2C17.59 15.6863 17.0024 17.1122 15.9552 18.1669C14.908 19.2216 13.4862 19.8194 12 19.83ZM8.41 13.67C8.3404 13.67 8.27148 13.6837 8.20718 13.7103C8.14288 13.737 8.08445 13.776 8.03523 13.8252C7.98602 13.8744 7.94698 13.9329 7.92034 13.9972C7.89371 14.0615 7.88 14.1304 7.88 14.2C7.88 14.7424 7.98683 15.2794 8.19438 15.7805C8.40193 16.2816 8.70614 16.7368 9.08965 17.1204C9.47316 17.5039 9.92844 17.8081 10.4295 18.0156C10.9306 18.2232 11.4676 18.33 12.01 18.33C12.5524 18.33 13.0894 18.2232 13.5905 18.0156C14.0916 17.8081 14.5468 17.5039 14.9304 17.1204C15.3139 16.7368 15.6181 16.2816 15.8256 15.7805C16.0332 15.2794 16.14 14.7424 16.14 14.2C16.1413 14.1309 16.1289 14.0622 16.1033 13.9979C16.0778 13.9337 16.0397 13.8752 15.9913 13.8258C15.9429 13.7765 15.8851 13.7373 15.8213 13.7105C15.7576 13.6838 15.6891 13.67 15.62 13.67H8.41Z" fill="black"/>
</svg>
