<svg width="24" height="25" viewBox="0 0 24 25" fill="none" xmlns="http://www.w3.org/2000/svg">
<path d="M8.88 13.26V13.41C8.88 14.0492 9.13391 14.6622 9.58588 15.1141C10.0378 15.5661 10.6508 15.82 11.29 15.82H15.87C16.0689 15.82 16.2597 15.899 16.4003 16.0397C16.541 16.1803 16.62 16.3711 16.62 16.57C16.62 16.7689 16.541 16.9597 16.4003 17.1003C16.2597 17.241 16.0689 17.32 15.87 17.32H11.29C10.253 17.32 9.25848 16.9081 8.52522 16.1748C7.79195 15.4415 7.38 14.447 7.38 13.41V11.59C7.38 10.553 7.79195 9.55848 8.52522 8.82522C9.25848 8.09195 10.253 7.68 11.29 7.68H15.87C16.0689 7.68 16.2597 7.75902 16.4003 7.89967C16.541 8.04033 16.62 8.23109 16.62 8.43001C16.62 8.62892 16.541 8.81968 16.4003 8.96033C16.2597 9.10099 16.0689 9.18001 15.87 9.18001H11.29C10.6508 9.18001 10.0378 9.43392 9.58588 9.88588C9.13391 10.3378 8.88 10.9508 8.88 11.59V11.76H15.88C16.0789 11.76 16.2697 11.839 16.4103 11.9797C16.551 12.1203 16.63 12.3111 16.63 12.51C16.63 12.7089 16.551 12.8997 16.4103 13.0403C16.2697 13.181 16.0789 13.26 15.88 13.26H8.88ZM22.75 12.5C22.75 10.3739 22.1195 8.29545 20.9383 6.52762C19.7571 4.7598 18.0782 3.38194 16.1139 2.5683C14.1495 1.75466 11.9881 1.54177 9.90278 1.95656C7.81749 2.37135 5.90202 3.39519 4.39861 4.89861C2.89519 6.40202 1.87135 8.31749 1.45656 10.4028C1.04177 12.4881 1.25466 14.6495 2.0683 16.6139C2.88194 18.5782 4.2598 20.2571 6.02762 21.4383C7.79545 22.6195 9.87386 23.25 12 23.25C14.8503 23.2474 17.583 22.1139 19.5985 20.0985C21.6139 18.083 22.7474 15.3503 22.75 12.5ZM21.25 12.5C21.25 14.3295 20.7075 16.1179 19.6911 17.639C18.6747 19.1602 17.23 20.3458 15.5398 21.0459C13.8496 21.746 11.9897 21.9292 10.1954 21.5723C8.40109 21.2154 6.7529 20.3344 5.45927 19.0407C4.16563 17.7471 3.28465 16.0989 2.92774 14.3046C2.57083 12.5103 2.75401 10.6504 3.45412 8.96018C4.15423 7.26997 5.33983 5.82531 6.86098 4.80891C8.38213 3.79251 10.1705 3.25 12 3.25C14.4524 3.25265 16.8037 4.22805 18.5378 5.96219C20.272 7.69633 21.2474 10.0476 21.25 12.5Z" fill="black"/>
</svg>
