<svg width="24" height="24" viewBox="0 0 24 24" fill="none" xmlns="http://www.w3.org/2000/svg">
<path d="M15.4602 12.54L12.4602 15.54C12.3162 15.6817 12.1223 15.7611 11.9202 15.7611C11.7182 15.7611 11.5243 15.6817 11.3802 15.54C11.3089 15.4693 11.2522 15.3852 11.2136 15.2925C11.1749 15.1998 11.155 15.1004 11.155 15C11.155 14.8996 11.1749 14.8001 11.2136 14.7074C11.2522 14.6148 11.3089 14.5307 11.3802 14.46L13.0502 12.79H3.00023C2.90043 12.79 2.8016 12.7703 2.70939 12.7321C2.61719 12.6939 2.53341 12.638 2.46283 12.5674C2.39226 12.4968 2.33628 12.413 2.29809 12.3208C2.25989 12.2286 2.24023 12.1298 2.24023 12.03C2.24023 11.9302 2.25989 11.8314 2.29809 11.7392C2.33628 11.6469 2.39226 11.5632 2.46283 11.4926C2.53341 11.422 2.61719 11.366 2.70939 11.3278C2.8016 11.2896 2.90043 11.27 3.00023 11.27H13.0802L11.4102 9.56999C11.267 9.42677 11.1866 9.23253 11.1866 9.02999C11.1866 8.82745 11.267 8.63321 11.4102 8.48999C11.5535 8.34677 11.7477 8.26632 11.9502 8.26632C12.1528 8.26632 12.347 8.34677 12.4902 8.48999L15.4902 11.49C15.6214 11.6352 15.6914 11.8254 15.6858 12.021C15.6802 12.2166 15.5994 12.4025 15.4602 12.54ZM21.7402 18.11V5.88999C21.6984 4.62029 21.155 3.41893 20.229 2.54919C19.3031 1.67944 18.0701 1.21225 16.8002 1.24999H12.3602C11.0894 1.21221 9.85535 1.67909 8.92778 2.54857C8.00021 3.41805 7.45461 4.6194 7.41023 5.88999C7.41283 6.0934 7.49478 6.28775 7.63863 6.4316C7.78247 6.57544 7.97682 6.6574 8.18023 6.65999C8.38271 6.65736 8.57601 6.57508 8.71825 6.43096C8.8605 6.28684 8.94025 6.09249 8.94023 5.88999C8.98172 5.02334 9.3649 4.20844 10.0059 3.62369C10.6469 3.03893 11.4934 2.73196 12.3602 2.76999H16.8002C17.667 2.73196 18.5136 3.03893 19.1546 3.62369C19.7956 4.20844 20.1787 5.02334 20.2202 5.88999V18.11C20.1787 18.9766 19.7956 19.7915 19.1546 20.3763C18.5136 20.9611 17.667 21.268 16.8002 21.23H12.3602C11.4934 21.268 10.6469 20.9611 10.0059 20.3763C9.3649 19.7915 8.98172 18.9766 8.94023 18.11C8.94025 17.9075 8.8605 17.7131 8.71825 17.569C8.57601 17.4249 8.38271 17.3426 8.18023 17.34C7.97682 17.3426 7.78247 17.4245 7.63863 17.5684C7.49478 17.7122 7.41283 17.9066 7.41023 18.11C7.45461 19.3806 8.00021 20.5819 8.92778 21.4514C9.85535 22.3209 11.0894 22.7878 12.3602 22.75H16.8002C18.0701 22.7877 19.3031 22.3205 20.229 21.4508C21.155 20.581 21.6984 19.3797 21.7402 18.11Z" fill="black"/>
</svg>
