<svg width="24" height="24" viewBox="0 0 24 24" fill="none" xmlns="http://www.w3.org/2000/svg">
<path d="M11.6998 22.75H7.25982C5.99 22.7877 4.75699 22.3205 3.83101 21.4508C2.90504 20.581 2.36161 19.3797 2.31982 18.11V5.88999C2.36161 4.62029 2.90504 3.41893 3.83101 2.54919C4.75699 1.67944 5.99 1.21225 7.25982 1.24999H11.6998C12.9706 1.21221 14.2047 1.67909 15.1323 2.54857C16.0598 3.41805 16.6055 4.6194 16.6498 5.88999C16.6498 6.09249 16.5701 6.28684 16.4278 6.43096C16.2856 6.57508 16.0923 6.65736 15.8898 6.65999C15.6864 6.6574 15.4921 6.57544 15.3482 6.4316C15.2044 6.28775 15.1224 6.0934 15.1198 5.88999C15.0783 5.02334 14.6952 4.20844 14.0542 3.62369C13.4132 3.03893 12.5666 2.73196 11.6998 2.76999H7.25982C6.39371 2.73462 5.54863 3.04249 4.90823 3.62671C4.26784 4.21093 3.88389 5.02427 3.83982 5.88999V18.11C3.88389 18.9757 4.26784 19.7891 4.90823 20.3733C5.54863 20.9575 6.39371 21.2654 7.25982 21.23H11.6998C12.5666 21.268 13.4132 20.9611 14.0542 20.3763C14.6952 19.7915 15.0783 18.9766 15.1198 18.11C15.1224 17.9066 15.2044 17.7122 15.3482 17.5684C15.4921 17.4245 15.6864 17.3426 15.8898 17.34C16.0923 17.3426 16.2856 17.4249 16.4278 17.569C16.5701 17.7131 16.6498 17.9075 16.6498 18.11C16.6055 19.3806 16.0598 20.5819 15.1323 21.4514C14.2047 22.3209 12.9706 22.7878 11.6998 22.75ZM20.9198 11.24H10.8598L12.5298 9.56999C12.6692 9.42475 12.747 9.23127 12.747 9.02999C12.747 8.82871 12.6692 8.63523 12.5298 8.48999C12.4592 8.41864 12.3751 8.36199 12.2824 8.32334C12.1897 8.28468 12.0902 8.26478 11.9898 8.26478C11.8894 8.26478 11.79 8.28468 11.6973 8.32334C11.6046 8.36199 11.5205 8.41864 11.4498 8.48999L8.44982 11.49C8.37847 11.5607 8.32183 11.6448 8.28317 11.7374C8.24452 11.8301 8.22461 11.9296 8.22461 12.03C8.22461 12.1304 8.24452 12.2298 8.28317 12.3225C8.32183 12.4152 8.37847 12.4993 8.44982 12.57L11.4498 15.57C11.5206 15.6409 11.6048 15.6968 11.6976 15.7346C11.7903 15.7724 11.8897 15.7912 11.9898 15.79C12.0899 15.7907 12.1891 15.7716 12.2818 15.7338C12.3744 15.6961 12.4587 15.6404 12.5298 15.57C12.6692 15.4247 12.747 15.2313 12.747 15.03C12.747 14.8287 12.6692 14.6352 12.5298 14.49L10.8598 12.82H20.9198C21.0196 12.82 21.1185 12.8003 21.2107 12.7621C21.3029 12.7239 21.3867 12.668 21.4572 12.5974C21.5278 12.5268 21.5838 12.443 21.622 12.3508C21.6602 12.2586 21.6798 12.1598 21.6798 12.06C21.6798 11.9602 21.6602 11.8614 21.622 11.7692C21.5838 11.6769 21.5278 11.5932 21.4572 11.5226C21.3867 11.452 21.3029 11.396 21.2107 11.3578C21.1185 11.3196 21.0196 11.3 20.9198 11.3V11.24Z" fill="black"/>
</svg>
