<svg width="24" height="24" viewBox="0 0 24 24" fill="none" xmlns="http://www.w3.org/2000/svg">
<path d="M21.3902 9.85004C21.7804 9.45832 21.9995 8.92794 21.9995 8.37504C21.9995 7.82213 21.7804 7.29176 21.3902 6.90004L17.1002 2.61004C16.9064 2.4152 16.6757 2.26092 16.4216 2.15618C16.1675 2.05145 15.8951 1.99837 15.6202 2.00004C15.3469 1.99859 15.0761 2.0518 14.8236 2.15656C14.5712 2.26132 14.3422 2.4155 14.1502 2.61004L8.38022 8.38004L2.61022 14.15C2.40942 14.3449 2.24979 14.578 2.14077 14.8357C2.03176 15.0933 1.97559 15.3703 1.97559 15.65C1.97559 15.9298 2.03176 16.2067 2.14077 16.4644C2.24979 16.7221 2.40942 16.9552 2.61022 17.15L6.90022 21.39C7.09406 21.5849 7.32476 21.7392 7.57886 21.8439C7.83297 21.9486 8.10538 22.0017 8.38022 22H20.2702C20.4691 22 20.6599 21.921 20.8005 21.7804C20.9412 21.6397 21.0202 21.4489 21.0202 21.25C21.0202 21.0511 20.9412 20.8604 20.8005 20.7197C20.6599 20.5791 20.4691 20.5 20.2702 20.5H10.7502L15.6202 15.63L21.3902 9.85004ZM15.2102 3.67004C15.2637 3.61572 15.3276 3.57269 15.398 3.54349C15.4684 3.51429 15.544 3.49952 15.6202 3.50004C15.698 3.4993 15.7751 3.51394 15.8472 3.54311C15.9193 3.57229 15.9849 3.61542 16.0402 3.67004L20.3302 8.00004C20.4395 8.1105 20.5008 8.25963 20.5008 8.41504C20.5008 8.57044 20.4395 8.71957 20.3302 8.83004L15.0902 14L10.0002 8.91004L15.2102 3.67004ZM3.67022 16C3.56091 15.8896 3.49959 15.7404 3.49959 15.585C3.49959 15.4296 3.56091 15.2805 3.67022 15.17L8.91022 10L14.0002 15.09L8.79022 20.33C8.73672 20.3844 8.67287 20.4274 8.60244 20.4566C8.53202 20.4858 8.45645 20.5006 8.38022 20.5C8.2371 20.4914 8.10202 20.431 8.00022 20.33L3.67022 16Z" fill="black"/>
</svg>
