<svg width="24" height="25" viewBox="0 0 24 25" fill="none" xmlns="http://www.w3.org/2000/svg">
<path d="M12 1.75C9.87386 1.75 7.79545 2.38048 6.02762 3.5617C4.2598 4.74293 2.88194 6.42185 2.0683 8.38615C1.25466 10.3505 1.04177 12.5119 1.45656 14.5972C1.87135 16.6825 2.89519 18.598 4.39861 20.1014C5.90202 21.6048 7.81749 22.6287 9.90278 23.0434C11.9881 23.4582 14.1495 23.2453 16.1139 22.4317C18.0782 21.6181 19.7571 20.2402 20.9383 18.4724C22.1195 16.7046 22.75 14.6261 22.75 12.5C22.7474 9.64974 21.6139 6.91697 19.5985 4.90153C17.583 2.88608 14.8503 1.75265 12 1.75ZM12 21.75C10.1705 21.75 8.38213 21.2075 6.86098 20.1911C5.33983 19.1747 4.15423 17.73 3.45412 16.0398C2.75401 14.3496 2.57083 12.4897 2.92774 10.6954C3.28465 8.90109 4.16563 7.2529 5.45927 5.95926C6.7529 4.66563 8.40109 3.78465 10.1954 3.42774C11.9897 3.07082 13.8496 3.254 15.5398 3.95411C17.23 4.65423 18.6747 5.83982 19.6911 7.36098C20.7075 8.88213 21.25 10.6705 21.25 12.5C21.2474 14.9524 20.272 17.3037 18.5378 19.0378C16.8037 20.772 14.4524 21.7474 12 21.75ZM16.47 15.16C16.5816 15.2818 16.6516 15.4359 16.67 15.6C16.6681 15.8195 16.6157 16.0355 16.5168 16.2315C16.418 16.4274 16.2754 16.598 16.1 16.73C15.7132 17.1322 15.2465 17.4489 14.73 17.66C14.0935 17.9095 13.4134 18.0286 12.73 18.01C12.2155 18.0166 11.702 17.9629 11.2 17.85C10.7552 17.7544 10.3294 17.5854 9.94 17.35C9.56215 17.1075 9.22471 16.8072 8.94 16.46C8.65439 16.118 8.41252 15.7418 8.22001 15.34C8.10368 15.0832 8.00348 14.8193 7.92 14.55H6.56C6.36963 14.5283 6.19389 14.4374 6.0663 14.2944C5.9387 14.1515 5.86818 13.9666 5.86818 13.775C5.86818 13.5834 5.9387 13.3985 6.0663 13.2556C6.19389 13.1126 6.36963 13.0217 6.56 13H7.66C7.66 12.84 7.66 12.68 7.66 12.51C7.66 12.34 7.66 12.17 7.66 12H6.56C6.36963 11.9783 6.19389 11.8874 6.0663 11.7444C5.9387 11.6015 5.86818 11.4166 5.86818 11.225C5.86818 11.0334 5.9387 10.8485 6.0663 10.7056C6.19389 10.5626 6.36963 10.4717 6.56 10.45H8C8.00458 10.3701 8.00458 10.2899 8 10.21C8.23444 9.55858 8.60617 8.96518 9.09 8.47C9.54603 7.98815 10.1025 7.6126 10.72 7.37C11.3548 7.11177 12.0347 6.98259 12.72 6.99C13.5093 6.98018 14.2901 7.15482 15 7.5C15.55 7.79 16.23 8.24 16.28 8.93C16.288 9.09361 16.2558 9.25668 16.186 9.40489C16.1163 9.55311 16.0112 9.68192 15.88 9.78C15.8102 9.84478 15.7288 9.89568 15.64 9.93C15.5373 9.96104 15.4294 9.97084 15.3228 9.9588C15.2162 9.94677 15.1132 9.91315 15.02 9.86C14.66 9.67 14.44 9.32 14.11 9.1C13.6972 8.82244 13.2072 8.68245 12.71 8.7C12.3024 8.68499 11.8972 8.76797 11.5283 8.94197C11.1594 9.11597 10.8376 9.37592 10.59 9.7C10.4204 9.92691 10.2824 10.1759 10.18 10.44H14.12C14.2292 10.4276 14.3397 10.4384 14.4444 10.4716C14.5492 10.5049 14.6456 10.5599 14.7276 10.6331C14.8096 10.7063 14.8752 10.7959 14.9201 10.8962C14.965 10.9965 14.9882 11.1051 14.9882 11.215C14.9882 11.3249 14.965 11.4335 14.9201 11.5338C14.8752 11.6341 14.8096 11.7237 14.7276 11.7969C14.6456 11.8701 14.5492 11.9251 14.4444 11.9584C14.3397 11.9916 14.2292 12.0024 14.12 11.99H9.86C9.86 12.18 9.86 12.37 9.86 12.58C9.86 12.79 9.86 12.85 9.86 12.99H13.35C13.5404 13.0117 13.7161 13.1026 13.8437 13.2456C13.9713 13.3885 14.0418 13.5734 14.0418 13.765C14.0418 13.9566 13.9713 14.1415 13.8437 14.2844C13.7161 14.4274 13.5404 14.5183 13.35 14.54H10.15C10.1467 14.5766 10.1467 14.6134 10.15 14.65C10.3454 15.1551 10.6954 15.5856 11.15 15.88C11.5964 16.1584 12.1141 16.3008 12.64 16.29C13.2033 16.306 13.757 16.1413 14.22 15.82C14.66 15.51 14.97 14.87 15.55 14.82C15.7193 14.8008 15.8906 14.8216 16.0504 14.8807C16.2102 14.9397 16.3539 15.0354 16.47 15.16Z" fill="black"/>
</svg>
