<svg width="24" height="24" viewBox="0 0 24 24" fill="none" xmlns="http://www.w3.org/2000/svg">
<path d="M16.7901 22.75H6.00006C4.75792 22.75 3.56652 22.2573 2.68726 21.3799C1.808 20.5025 1.31271 19.3121 1.31006 18.07V7.28C1.31006 6.03613 1.80418 4.84321 2.68373 3.96367C3.56327 3.08412 4.75619 2.59 6.00006 2.59H13.8601C14.053 2.61181 14.2311 2.7039 14.3605 2.84869C14.4898 2.99349 14.5613 3.18084 14.5613 3.375C14.5613 3.56916 14.4898 3.75651 14.3605 3.90131C14.2311 4.0461 14.053 4.13819 13.8601 4.16H6.00006C5.17258 4.16 4.379 4.48871 3.79389 5.07383C3.20877 5.65894 2.88006 6.45252 2.88006 7.28V18.07C2.88271 18.8957 3.21259 19.6868 3.79741 20.2697C4.38224 20.8527 5.17431 21.18 6.00006 21.18H16.7901C17.6158 21.18 18.4079 20.8527 18.9927 20.2697C19.5775 19.6868 19.9074 18.8957 19.9101 18.07V10.07C19.8976 9.95947 19.9086 9.84755 19.9423 9.74156C19.976 9.63557 20.0318 9.53791 20.1059 9.45495C20.18 9.372 20.2708 9.30563 20.3723 9.26019C20.4738 9.21475 20.5838 9.19126 20.6951 9.19126C20.8063 9.19126 20.9163 9.21475 21.0178 9.26019C21.1193 9.30563 21.2101 9.372 21.2842 9.45495C21.3583 9.53791 21.4141 9.63557 21.4478 9.74156C21.4816 9.84755 21.4926 9.95947 21.4801 10.07V18.07C21.4774 19.3121 20.9821 20.5025 20.1029 21.3799C19.2236 22.2573 18.0322 22.75 16.7901 22.75ZM13.8401 11.26L21.1801 3.93V6.36C21.1676 6.47053 21.1786 6.58245 21.2123 6.68844C21.246 6.79443 21.3018 6.89209 21.3759 6.97505C21.45 7.058 21.5408 7.12437 21.6423 7.16981C21.7438 7.21525 21.8538 7.23874 21.9651 7.23874C22.0763 7.23874 22.1863 7.21525 22.2878 7.16981C22.3893 7.12437 22.4801 7.058 22.5542 6.97505C22.6283 6.89209 22.6841 6.79443 22.7178 6.68844C22.7516 6.58245 22.7626 6.47053 22.7501 6.36V2C22.7404 1.80422 22.6582 1.61903 22.5196 1.48042C22.381 1.34181 22.1958 1.25969 22.0001 1.25H17.6301C17.4371 1.27181 17.259 1.3639 17.1296 1.50869C17.0003 1.65349 16.9288 1.84084 16.9288 2.035C16.9288 2.22916 17.0003 2.41651 17.1296 2.56131C17.259 2.7061 17.4371 2.79819 17.6301 2.82H20.0701L12.7301 10.15C12.5865 10.2991 12.5062 10.498 12.5062 10.705C12.5062 10.912 12.5865 11.1109 12.7301 11.26C12.8026 11.3335 12.889 11.3918 12.9843 11.4316C13.0796 11.4714 13.1818 11.4919 13.2851 11.4919C13.3883 11.4919 13.4905 11.4714 13.5858 11.4316C13.6811 11.3918 13.7675 11.3335 13.8401 11.26Z" fill="black"/>
</svg>
