<svg width="24" height="24" viewBox="0 0 24 24" fill="none" xmlns="http://www.w3.org/2000/svg">
<path d="M18.11 21.68H5.88996C4.62026 21.6382 3.4189 21.0948 2.54916 20.1688C1.67941 19.2428 1.21222 18.0098 1.24996 16.74V12.3C1.22454 11.6666 1.32458 11.0344 1.54431 10.4398C1.76405 9.84521 2.09915 9.2999 2.53035 8.83524C2.96155 8.37059 3.48035 7.99575 4.05691 7.73227C4.63348 7.4688 5.25643 7.3219 5.88996 7.3C6.09246 7.29998 6.28681 7.37973 6.43093 7.52198C6.57505 7.66423 6.65733 7.85752 6.65996 8.06C6.65737 8.26341 6.57541 8.45776 6.43157 8.60161C6.28772 8.74545 6.09337 8.82741 5.88996 8.83C5.45639 8.85042 5.03118 8.95669 4.63899 9.14265C4.24679 9.32861 3.8954 9.59056 3.60519 9.91333C3.31498 10.2361 3.09172 10.6133 2.94834 11.0229C2.80497 11.4326 2.74434 11.8667 2.76996 12.3V16.74C2.73459 17.6061 3.04247 18.4512 3.62668 19.0916C4.2109 19.732 5.02424 20.1159 5.88996 20.16H18.11C18.9757 20.1159 19.789 19.732 20.3732 19.0916C20.9575 18.4512 21.2653 17.6061 21.23 16.74V12.3C21.268 11.4332 20.961 10.5866 20.3763 9.94565C19.7915 9.30467 18.9766 8.92149 18.11 8.88C17.9066 8.87741 17.7122 8.79545 17.5684 8.65161C17.4245 8.50776 17.3426 8.31341 17.34 8.11C17.3426 7.90752 17.4249 7.71423 17.569 7.57198C17.7131 7.42973 17.9075 7.34998 18.11 7.35C18.7435 7.37189 19.3664 7.5188 19.943 7.78227C20.5196 8.04575 21.0384 8.42059 21.4696 8.88524C21.9008 9.3499 22.2359 9.89521 22.4556 10.4898C22.6753 11.0844 22.7754 11.7166 22.75 12.35V16.79C22.7743 18.0513 22.3011 19.2715 21.4328 20.1866C20.5645 21.1017 19.3708 21.6382 18.11 21.68ZM12 15.74C12.2015 15.74 12.3948 15.6599 12.5374 15.5174C12.6799 15.3749 12.76 15.1816 12.76 14.98V4.92L14.43 6.59C14.5006 6.66136 14.5847 6.718 14.6774 6.75665C14.7701 6.79531 14.8695 6.81521 14.97 6.81521C15.0704 6.81521 15.1698 6.79531 15.2625 6.75665C15.3552 6.718 15.4393 6.66136 15.51 6.59C15.6516 6.44598 15.7311 6.25204 15.7311 6.05C15.7311 5.84797 15.6516 5.65402 15.51 5.51L12.51 2.51C12.4393 2.43865 12.3552 2.382 12.2625 2.34335C12.1698 2.30469 12.0704 2.28479 11.97 2.28479C11.8695 2.28479 11.7701 2.30469 11.6774 2.34335C11.5847 2.382 11.5006 2.43865 11.43 2.51L8.42996 5.51C8.28675 5.66117 8.20945 5.86305 8.21507 6.07121C8.2207 6.27938 8.30879 6.47678 8.45996 6.62C8.61114 6.76322 8.81301 6.84052 9.02118 6.83489C9.22934 6.82926 9.42674 6.74117 9.56996 6.59L11.24 4.92V15C11.2452 15.1981 11.3275 15.3863 11.4695 15.5245C11.6115 15.6627 11.8018 15.7401 12 15.74Z" fill="black"/>
</svg>
