<svg width="24" height="24" viewBox="0 0 24 24" fill="none" xmlns="http://www.w3.org/2000/svg">
<path d="M11.3299 22.75H6.88994C5.61914 22.7878 4.38506 22.3209 3.45749 21.4514C2.52992 20.5819 1.98431 19.3806 1.93994 18.11V5.88999C1.98431 4.6194 2.52992 3.41805 3.45749 2.54857C4.38506 1.67909 5.61914 1.21221 6.88994 1.24999H11.3299C12.5998 1.21225 13.8328 1.67944 14.7588 2.54919C15.6847 3.41893 16.2282 4.62029 16.2699 5.88999C16.2699 6.09155 16.1899 6.28486 16.0473 6.42739C15.9048 6.56992 15.7115 6.64999 15.5099 6.64999C15.3084 6.64999 15.1151 6.56992 14.9725 6.42739C14.83 6.28486 14.7499 6.09155 14.7499 5.88999C14.7059 5.02427 14.3219 4.21093 13.6815 3.62671C13.0411 3.04249 12.1961 2.73462 11.3299 2.76999H6.88994C6.02314 2.73196 5.17658 3.03893 4.53559 3.62369C3.89461 4.20844 3.51143 5.02334 3.46994 5.88999V18.11C3.51143 18.9766 3.89461 19.7915 4.53559 20.3763C5.17658 20.9611 6.02314 21.268 6.88994 21.23H11.3299C12.1961 21.2654 13.0411 20.9575 13.6815 20.3733C14.3219 19.7891 14.7059 18.9757 14.7499 18.11C14.7499 17.9084 14.83 17.7151 14.9725 17.5726C15.1151 17.4301 15.3084 17.35 15.5099 17.35C15.7115 17.35 15.9048 17.4301 16.0473 17.5726C16.1899 17.7151 16.2699 17.9084 16.2699 18.11C16.2282 19.3797 15.6847 20.581 14.7588 21.4508C13.8328 22.3205 12.5998 22.7877 11.3299 22.75ZM7.87994 12C7.87994 12.0998 7.8996 12.1986 7.93779 12.2908C7.97599 12.383 8.03197 12.4668 8.10254 12.5374C8.17311 12.608 8.25689 12.6639 8.3491 12.7021C8.44131 12.7403 8.54014 12.76 8.63994 12.76H18.7099L16.9999 14.43C16.9286 14.5007 16.8719 14.5848 16.8333 14.6775C16.7946 14.7701 16.7747 14.8696 16.7747 14.97C16.7747 15.0704 16.7946 15.1698 16.8333 15.2625C16.8719 15.3552 16.9286 15.4393 16.9999 15.51C17.0707 15.5809 17.1549 15.6368 17.2477 15.6746C17.3404 15.7124 17.4398 15.7312 17.5399 15.73C17.6386 15.731 17.7364 15.7121 17.8275 15.6743C17.9186 15.6364 18.001 15.5806 18.0699 15.51L21.0699 12.51C21.1413 12.4393 21.1979 12.3552 21.2366 12.2625C21.2752 12.1698 21.2952 12.0704 21.2952 11.97C21.2952 11.8696 21.2752 11.7701 21.2366 11.6775C21.1979 11.5848 21.1413 11.5007 21.0699 11.43L18.0699 8.42999C18.0001 8.35894 17.9169 8.3025 17.825 8.26398C17.7332 8.22545 17.6345 8.20561 17.5349 8.20561C17.4353 8.20561 17.3367 8.22545 17.2449 8.26398C17.153 8.3025 17.0697 8.35894 16.9999 8.42999C16.9286 8.50066 16.8719 8.58476 16.8333 8.67745C16.7946 8.77014 16.7747 8.86957 16.7747 8.96999C16.7747 9.07042 16.7946 9.16984 16.8333 9.26253C16.8719 9.35522 16.9286 9.43932 16.9999 9.50999L18.6699 11.18H8.63994C8.53488 11.1797 8.43089 11.2011 8.33454 11.243C8.2382 11.2849 8.15158 11.3463 8.08016 11.4234C8.00874 11.5004 7.95408 11.5914 7.91962 11.6907C7.88516 11.7899 7.87165 11.8953 7.87994 12Z" fill="black"/>
</svg>
