<svg width="24" height="24" viewBox="0 0 24 24" fill="none" xmlns="http://www.w3.org/2000/svg">
<path d="M18.1102 16.65C17.9077 16.65 17.7133 16.5703 17.5692 16.428C17.4251 16.2858 17.3428 16.0925 17.3402 15.89C17.3428 15.6866 17.4247 15.4922 17.5686 15.3484C17.7124 15.2046 17.9068 15.1226 18.1102 15.12C18.9768 15.0785 19.7917 14.6953 20.3765 14.0544C20.9612 13.4134 21.2682 12.5668 21.2302 11.7V7.26001C21.2655 6.39389 20.9577 5.54881 20.3735 4.90842C19.7892 4.26803 18.9759 3.88408 18.1102 3.84001H5.89017C5.02446 3.88408 4.21111 4.26803 3.62689 4.90842C3.04268 5.54881 2.7348 6.39389 2.77017 7.26001V11.7C2.73215 12.5668 3.03911 13.4134 3.62387 14.0544C4.20862 14.6953 5.02353 15.0785 5.89017 15.12C6.09358 15.1226 6.28794 15.2046 6.43178 15.3484C6.57563 15.4922 6.65758 15.6866 6.66017 15.89C6.65754 16.0925 6.57526 16.2858 6.43114 16.428C6.28702 16.5703 6.09267 16.65 5.89017 16.65C4.61958 16.6056 3.41823 16.06 2.54875 15.1325C1.67928 14.2049 1.21239 12.9708 1.25017 11.7V7.26001C1.21243 5.99018 1.67963 4.75717 2.54937 3.8312C3.41911 2.90522 4.62047 2.36179 5.89017 2.32001H18.1102C19.3799 2.36179 20.5812 2.90522 21.451 3.8312C22.3207 4.75717 22.7879 5.99018 22.7502 7.26001V11.7C22.788 12.9708 22.3211 14.2049 21.4516 15.1325C20.5821 16.06 19.3808 16.6056 18.1102 16.65ZM11.2402 9.00001V19.08L9.57017 17.41C9.42696 17.2668 9.23271 17.1863 9.03017 17.1863C8.82763 17.1863 8.63339 17.2668 8.49017 17.41C8.34696 17.5532 8.2665 17.7475 8.2665 17.95C8.2665 18.1525 8.34696 18.3468 8.49017 18.49L11.4902 21.49C11.5608 21.5614 11.6449 21.618 11.7376 21.6567C11.8303 21.6953 11.9297 21.7152 12.0302 21.7152C12.1306 21.7152 12.23 21.6953 12.3227 21.6567C12.4154 21.618 12.4995 21.5614 12.5702 21.49L15.5702 18.49C15.641 18.4192 15.697 18.335 15.7348 18.2423C15.7726 18.1495 15.7914 18.0501 15.7902 17.95C15.7912 17.7989 15.7472 17.651 15.6638 17.525C15.5803 17.3991 15.4613 17.3009 15.3217 17.2429C15.1822 17.185 15.0286 17.1699 14.8805 17.1997C14.7324 17.2294 14.5965 17.3027 14.4902 17.41L12.8202 19.08V9.00001C12.8202 8.79844 12.7401 8.60513 12.5976 8.46261C12.455 8.32008 12.2617 8.24001 12.0602 8.24001C11.8586 8.24001 11.6653 8.32008 11.5228 8.46261C11.3802 8.60513 11.3002 8.79844 11.3002 9.00001H11.2402Z" fill="black"/>
</svg>
