<svg width="24" height="24" viewBox="0 0 24 24" fill="none" xmlns="http://www.w3.org/2000/svg">
<path d="M7.67 6.86H6.45C6.25109 6.86 6.06032 6.78098 5.91967 6.64033C5.77902 6.49968 5.7 6.30891 5.7 6.11C5.7 5.91109 5.77902 5.72032 5.91967 5.57967C6.06032 5.43902 6.25109 5.36 6.45 5.36H7.67C7.86891 5.36 8.05968 5.43902 8.20033 5.57967C8.34098 5.72032 8.42 5.91109 8.42 6.11C8.42 6.30891 8.34098 6.49968 8.20033 6.64033C8.05968 6.78098 7.86891 6.86 7.67 6.86ZM8.42 8.38C8.41741 8.18189 8.33756 7.99263 8.19747 7.85253C8.05737 7.71244 7.86811 7.63259 7.67 7.63H6.45C6.25109 7.63 6.06032 7.70902 5.91967 7.84967C5.77902 7.99032 5.7 8.18109 5.7 8.38C5.7 8.57891 5.77902 8.76968 5.91967 8.91033C6.06032 9.05098 6.25109 9.13 6.45 9.13H7.67C7.86891 9.13 8.05968 9.05098 8.20033 8.91033C8.34098 8.76968 8.42 8.57891 8.42 8.38ZM8.42 10.66C8.41741 10.4619 8.33756 10.2726 8.19747 10.1325C8.05737 9.99244 7.86811 9.91259 7.67 9.91H6.45C6.25109 9.91 6.06032 9.98902 5.91967 10.1297C5.77902 10.2703 5.7 10.4611 5.7 10.66C5.7 10.8589 5.77902 11.0497 5.91967 11.1903C6.06032 11.331 6.25109 11.41 6.45 11.41H7.67C7.86811 11.4074 8.05737 11.3276 8.19747 11.1875C8.33756 11.0474 8.41741 10.8581 8.42 10.66ZM21.25 12V5.76C21.2447 4.56377 20.7665 3.41818 19.9197 2.57325C19.0729 1.72832 17.9262 1.25263 16.73 1.25H7.27C6.07295 1.25 4.92479 1.72484 4.07741 2.57034C3.23003 3.41584 2.75265 4.56296 2.75 5.76V12C2.75263 12.4766 2.94311 12.9329 3.28011 13.2699C3.61711 13.6069 4.07342 13.7974 4.55 13.8H19.45C19.9266 13.7974 20.3829 13.6069 20.7199 13.2699C21.0569 12.9329 21.2474 12.4766 21.25 12ZM16.73 2.75C17.5256 2.75 18.2887 3.06607 18.8513 3.62868C19.4139 4.19129 19.73 4.95435 19.73 5.75V12C19.7275 12.0788 19.6951 12.1536 19.6394 12.2094C19.5836 12.2651 19.5088 12.2975 19.43 12.3H4.55C4.47123 12.2975 4.39637 12.2651 4.34064 12.2094C4.28491 12.1536 4.2525 12.0788 4.25 12V5.76C4.25 4.96435 4.56607 4.20129 5.12868 3.63868C5.69129 3.07607 6.45435 2.76 7.25 2.76L16.73 2.75ZM21.25 18.3V17C21.2487 16.7588 21.1997 16.5203 21.1059 16.2981C21.0121 16.0759 20.8753 15.8745 20.7034 15.7054C20.5315 15.5362 20.3278 15.4027 20.1041 15.3126C19.8805 15.2224 19.6412 15.1774 19.4 15.18H4.6C4.35884 15.1774 4.11954 15.2224 3.89586 15.3126C3.67217 15.4027 3.46851 15.5362 3.29659 15.7054C3.12467 15.8745 2.98787 16.0759 2.89407 16.2981C2.80026 16.5203 2.7513 16.7588 2.75 17V18.3C2.76844 19.4953 3.25965 20.6346 4.11614 21.4686C4.97262 22.3026 6.12462 22.7634 7.32 22.75H16.68C17.8754 22.7634 19.0274 22.3026 19.8839 21.4686C20.7403 20.6346 21.2316 19.4953 21.25 18.3ZM19.4 16.69C19.4885 16.6872 19.5746 16.7191 19.64 16.7789C19.7054 16.8387 19.7448 16.9216 19.75 17.01V18.3C19.7435 18.6957 19.6588 19.0862 19.5007 19.449C19.3427 19.8118 19.1144 20.1398 18.829 20.414C18.5437 20.6882 18.2069 20.9032 17.838 21.0467C17.4692 21.1902 17.0756 21.2593 16.68 21.25H7.32C6.92436 21.2593 6.53079 21.1902 6.16196 21.0467C5.79313 20.9032 5.45634 20.6882 5.17098 20.414C4.88561 20.1398 4.65733 19.8118 4.49926 19.449C4.3412 19.0862 4.25649 18.6957 4.25 18.3V17C4.25517 16.9116 4.29463 16.8287 4.36 16.7689C4.42537 16.7091 4.51147 16.6772 4.6 16.68L19.4 16.69ZM17.49 18.76C17.49 18.5622 17.4314 18.3689 17.3215 18.2044C17.2116 18.04 17.0554 17.9118 16.8727 17.8361C16.69 17.7604 16.4889 17.7406 16.2949 17.7792C16.1009 17.8178 15.9227 17.913 15.7829 18.0529C15.643 18.1927 15.5478 18.3709 15.5092 18.5649C15.4706 18.7589 15.4904 18.96 15.5661 19.1427C15.6418 19.3254 15.77 19.4816 15.9344 19.5915C16.0989 19.7014 16.2922 19.76 16.49 19.76C16.7552 19.76 17.0096 19.6546 17.1971 19.4671C17.3846 19.2796 17.49 19.0252 17.49 18.76Z" fill="black"/>
</svg>
