<svg width="24" height="24" viewBox="0 0 24 24" fill="none" xmlns="http://www.w3.org/2000/svg">
<path d="M14.1 12.6099C14.1098 12.5001 14.1098 12.3897 14.1 12.2799C14.0711 12.0825 14.121 11.8818 14.2389 11.7209C14.3567 11.56 14.5331 11.4519 14.73 11.4199C14.8267 11.4028 14.9259 11.4055 15.0216 11.4277C15.1173 11.4499 15.2075 11.4911 15.2869 11.549C15.3662 11.6069 15.4331 11.6802 15.4835 11.7646C15.5338 11.8489 15.5667 11.9425 15.58 12.0399C15.5948 12.2296 15.5948 12.4202 15.58 12.6099C15.58 13.0826 15.4868 13.5508 15.3059 13.9875C15.125 14.4243 14.8598 14.8212 14.5255 15.1555C14.1913 15.4898 13.7944 15.7549 13.3576 15.9358C12.9208 16.1168 12.4527 16.2099 11.98 16.2099H11.58C11.3824 16.1873 11.2019 16.0872 11.0781 15.9315C10.9544 15.7759 10.8975 15.5775 10.92 15.3799C10.9299 15.2825 10.9591 15.188 11.0058 15.102C11.0525 15.0159 11.1159 14.94 11.1921 14.8786C11.2684 14.8173 11.3561 14.7716 11.4501 14.7444C11.5442 14.7171 11.6427 14.7088 11.74 14.7199C12.037 14.7537 12.3378 14.7244 12.6227 14.6337C12.9076 14.5431 13.1701 14.3932 13.393 14.1939C13.6159 13.9947 13.7941 13.7505 13.9159 13.4775C14.0377 13.2045 14.1005 12.9088 14.1 12.6099ZM20.69 7.77988C20.6243 7.70437 20.5444 7.64253 20.4548 7.5979C20.3653 7.55326 20.2678 7.5267 20.168 7.51974C20.0682 7.51277 19.968 7.52554 19.8731 7.55731C19.7782 7.58907 19.6905 7.63922 19.615 7.70488C19.4625 7.83749 19.3689 8.02524 19.3548 8.22685C19.3479 8.32667 19.3606 8.42689 19.3924 8.52178C19.4242 8.61666 19.4743 8.70437 19.54 8.77988C20.5322 9.83872 21.1352 11.2033 21.25 12.6499C21.25 16.0599 16.76 20.4599 12 20.4599C10.7068 20.4112 9.4416 20.0692 8.29996 19.4599C8.21143 19.41 8.11369 19.3786 8.01267 19.3677C7.91165 19.3567 7.80945 19.3664 7.71229 19.3961C7.61513 19.4259 7.52502 19.4751 7.44744 19.5407C7.36985 19.6063 7.30642 19.687 7.26097 19.7779C7.21553 19.8688 7.18903 19.9679 7.18308 20.0694C7.17713 20.1708 7.19186 20.2724 7.22636 20.368C7.26087 20.4636 7.31444 20.5511 7.38382 20.6254C7.4532 20.6996 7.53694 20.759 7.62996 20.7999C8.9823 21.5012 10.477 21.8843 12 21.9199C17.22 21.9199 22.75 17.1399 22.75 12.6099C22.6389 10.811 21.9114 9.10523 20.69 7.77988ZM21.69 3.44988L3.39996 21.6199C3.26252 21.7591 3.07556 21.8382 2.87996 21.8399C2.67849 21.8381 2.48532 21.7594 2.33996 21.6199C2.1989 21.4776 2.11975 21.2853 2.11975 21.0849C2.11975 20.8845 2.1989 20.6922 2.33996 20.5499L4.33996 18.5499C2.33996 16.7099 1.20996 14.5499 1.20996 12.6299C1.24996 8.16988 6.87996 3.29988 12 3.29988C14.0622 3.36889 16.0614 4.02833 17.76 5.19988L20.6 2.37988C20.6635 2.28731 20.747 2.21019 20.8442 2.15419C20.9415 2.09819 21.0502 2.06474 21.1621 2.05631C21.274 2.04789 21.3864 2.0647 21.491 2.10551C21.5956 2.14632 21.6897 2.21008 21.7663 2.2921C21.843 2.37411 21.9002 2.47229 21.9339 2.57938C21.9675 2.68648 21.9767 2.79976 21.9608 2.91088C21.9448 3.022 21.9041 3.12811 21.8416 3.2214C21.7792 3.31469 21.6966 3.39277 21.6 3.44988H21.69ZM5.47996 17.4499L8.80996 14.1399C8.47831 13.47 8.3653 12.7129 8.48688 11.9753C8.60846 11.2377 8.95849 10.557 9.48761 10.0289C10.0167 9.50092 10.6983 9.15231 11.4361 9.03228C12.1739 8.91224 12.9307 9.02682 13.6 9.35988L16.72 6.25988C15.3094 5.35149 13.6771 4.84657 12 4.79988C7.76996 4.79988 2.74996 8.99988 2.74996 12.6099C2.74996 14.0999 3.76996 15.9199 5.43996 17.4699L5.47996 17.4499ZM9.93996 12.9999L12.39 10.5499C12.2601 10.54 12.1298 10.54 12 10.5499C11.443 10.5499 10.9089 10.7711 10.515 11.165C10.1212 11.5588 9.89996 12.0929 9.89996 12.6499C9.90128 12.7676 9.91468 12.8849 9.93996 12.9999Z" fill="black"/>
</svg>
