<svg width="24" height="24" viewBox="0 0 24 24" fill="none" xmlns="http://www.w3.org/2000/svg">
<path d="M12 15.5999C11.288 15.5999 10.592 15.3888 9.99995 14.9932C9.40793 14.5977 8.94651 14.0354 8.67403 13.3776C8.40156 12.7198 8.33027 11.9959 8.46917 11.2976C8.60808 10.5993 8.95095 9.95783 9.45442 9.45436C9.95788 8.95089 10.5993 8.60802 11.2977 8.46911C11.996 8.33021 12.7198 8.4015 13.3777 8.67398C14.0355 8.94645 14.5977 9.40787 14.9933 9.99989C15.3889 10.5919 15.6 11.2879 15.6 11.9999C15.5974 12.9539 15.2172 13.8681 14.5427 14.5426C13.8681 15.2172 12.954 15.5973 12 15.5999ZM12 9.89994C11.5847 9.89994 11.1786 10.0231 10.8333 10.2539C10.488 10.4846 10.2188 10.8126 10.0599 11.1963C9.90091 11.58 9.85932 12.0023 9.94035 12.4096C10.0214 12.817 10.2214 13.1912 10.5151 13.4849C10.8088 13.7786 11.183 13.9786 11.5903 14.0596C11.9977 14.1406 12.4199 14.099 12.8036 13.9401C13.1874 13.7811 13.5153 13.512 13.7461 13.1666C13.9768 12.8213 14.1 12.4153 14.1 11.9999C14.1 11.443 13.8788 10.9088 13.4849 10.515C13.0911 10.1212 12.557 9.89994 12 9.89994ZM12 21.3099C9.29015 21.1858 6.71298 20.101 4.73 18.2499C2.55 16.3399 1.25 13.9999 1.25 11.9999C1.25 7.55994 6.88 2.68994 12 2.68994C17.12 2.68994 22.75 7.68994 22.75 11.9999C22.75 16.5199 17.22 21.3099 12 21.3099ZM12 4.18994C7.77 4.18994 2.75 8.41994 2.75 11.9999C2.75 13.5599 3.89 15.5199 5.75 17.1199C7.45719 18.716 9.66726 19.6673 12 19.8099C16.76 19.8099 21.25 15.4099 21.25 11.9999C21.25 8.76994 16.47 4.18994 12 4.18994Z" fill="black"/>
</svg>
