<svg width="24" height="24" viewBox="0 0 24 24" fill="none" xmlns="http://www.w3.org/2000/svg">
<path d="M18.7198 15C19.1603 14.7115 19.5278 14.3248 19.7933 13.8701C20.0588 13.4154 20.2151 12.9053 20.2498 12.38C20.3401 11.7956 20.2717 11.1978 20.0518 10.6489C19.8319 10.1 19.4686 9.62035 18.9998 9.25997C19.0532 8.42464 18.934 7.58727 18.6498 6.79997C18.354 5.93557 17.8598 5.15248 17.2069 4.51343C16.5539 3.87438 15.7604 3.39715 14.8898 3.11997C13.9424 2.8471 12.9467 2.78448 11.9725 2.93648C10.9984 3.08848 10.0691 3.45144 9.24982 3.99997C8.54589 4.0212 7.85788 4.2146 7.24599 4.56326C6.63409 4.91192 6.11696 5.40521 5.73982 5.99997C5.24742 6.95383 5.06228 8.0367 5.20982 9.09997C4.72701 9.35296 4.33281 9.74715 4.07982 10.23C3.75061 10.8851 3.61531 11.6206 3.68982 12.35C3.72367 12.8843 3.88359 13.403 4.15648 13.8636C4.42936 14.3242 4.80747 14.7136 5.25982 15C5.41924 16.2439 6.04029 17.3825 6.99982 18.19L9.42982 20.19C10.1426 20.7879 11.0371 21.1264 11.9671 21.15C12.8971 21.1736 13.8077 20.881 14.5498 20.32L16.8198 18.63C17.3749 18.1934 17.8312 17.6442 18.1587 17.0185C18.4862 16.3928 18.6774 15.7049 18.7198 15ZM7.06982 6.76997C7.35443 6.3664 7.73426 6.03933 8.17561 5.81779C8.61695 5.59624 9.10616 5.48707 9.59982 5.49997C9.74528 5.48422 9.88363 5.42888 9.99982 5.33997C10.6359 4.88923 11.3659 4.58847 12.1349 4.46031C12.9039 4.33214 13.6919 4.37989 14.4398 4.59997C15.0747 4.81042 15.6519 5.16576 16.1258 5.63785C16.5996 6.10995 16.957 6.68585 17.1698 7.31997C17.5081 8.2338 17.5501 9.23094 17.2898 10.17C17.1559 9.96835 16.9981 9.78367 16.8198 9.61997C16.0471 8.93683 15.0404 8.57856 14.0098 8.61997H13.5398C12.7884 8.64527 12.0422 8.48517 11.3673 8.1538C10.6923 7.82244 10.1094 7.33 9.66982 6.71997C9.56352 6.56206 9.4025 6.44913 9.21783 6.40296C9.03316 6.35679 8.83793 6.38066 8.66982 6.46997C7.84887 6.99353 7.17715 7.72036 6.71982 8.57997C6.66599 7.95583 6.78719 7.32905 7.06982 6.76997ZM17.4198 13.77C17.3407 13.7607 17.2633 13.7405 17.1898 13.71V14.6C17.2004 15.133 17.0876 15.6612 16.8604 16.1434C16.6332 16.6256 16.2976 17.0488 15.8798 17.38L13.6098 19.07C13.1454 19.4313 12.5707 19.6216 11.9824 19.6088C11.3941 19.5961 10.8282 19.3811 10.3798 19L7.99982 17C7.61268 16.666 7.30363 16.2511 7.09454 15.7845C6.88546 15.318 6.78143 14.8112 6.78982 14.3V13.72C6.71933 13.7492 6.6454 13.7694 6.56982 13.78H6.44982C5.84982 13.78 5.30982 13.1 5.21982 12.2C5.16 11.7166 5.27337 11.2277 5.53982 10.82C5.70023 11.4103 5.911 11.9857 6.16982 12.54C6.2482 12.7048 6.38327 12.8359 6.55036 12.9094C6.71745 12.9828 6.90539 12.9937 7.07982 12.94C7.25387 12.8852 7.40321 12.7712 7.50187 12.6177C7.60053 12.4642 7.64227 12.281 7.61982 12.1C7.49508 11.3992 7.54878 10.6782 7.77598 10.0036C8.00317 9.32906 8.39654 8.72253 8.91982 8.23997C9.51147 8.9017 10.2453 9.4209 11.0662 9.75861C11.8871 10.0963 12.7738 10.2438 13.6598 10.19C14.0304 10.1323 14.4089 10.1514 14.7719 10.246C15.1348 10.3406 15.4745 10.5088 15.7698 10.74C16.1585 11.1343 16.3897 11.6571 16.4198 12.21C16.4097 12.3885 16.4621 12.565 16.5679 12.7092C16.6737 12.8533 16.8265 12.9561 16.9998 13H17.2298C17.3562 13.0002 17.4807 12.9693 17.5923 12.91C17.7039 12.8507 17.7992 12.7648 17.8698 12.66C18.1818 12.199 18.437 11.7021 18.6298 11.18C18.7456 11.4998 18.79 11.8411 18.7598 12.18C18.6698 13.08 18.1298 13.76 17.5398 13.76L17.4198 13.77ZM22.7498 17.33V20.66C22.7498 21.1904 22.5391 21.6991 22.164 22.0742C21.789 22.4493 21.2803 22.66 20.7498 22.66H17.7498C17.5456 22.66 17.3498 22.5788 17.2054 22.4344C17.0609 22.29 16.9798 22.0942 16.9798 21.89C16.9798 21.6858 17.0609 21.4899 17.2054 21.3455C17.3498 21.2011 17.5456 21.12 17.7498 21.12H20.7498C20.8639 21.12 20.9732 21.0747 21.0539 20.994C21.1345 20.9134 21.1798 20.804 21.1798 20.69V17.34C21.1798 17.1358 21.2609 16.9399 21.4054 16.7955C21.5498 16.6511 21.7456 16.57 21.9498 16.57C22.154 16.57 22.3499 16.6511 22.4943 16.7955C22.6387 16.9399 22.7198 17.1358 22.7198 17.34L22.7498 17.33ZM6.99982 21.87C6.99982 22.0742 6.9187 22.27 6.7743 22.4144C6.62989 22.5588 6.43404 22.64 6.22982 22.64H3.31982C2.78939 22.64 2.28068 22.4293 1.90561 22.0542C1.53054 21.6791 1.31982 21.1704 1.31982 20.64V17.34C1.31982 17.1358 1.40095 16.9399 1.54535 16.7955C1.68975 16.6511 1.88561 16.57 2.08982 16.57C2.29404 16.57 2.48989 16.6511 2.6343 16.7955C2.7787 16.9399 2.85982 17.1358 2.85982 17.34V20.67C2.85982 20.784 2.90513 20.8934 2.98577 20.974C3.06641 21.0547 3.17578 21.1 3.28982 21.1H6.26982C6.46703 21.1102 6.65276 21.1959 6.78862 21.3392C6.92448 21.4825 7.00009 21.6725 6.99982 21.87ZM22.7498 3.21997V6.54997C22.7498 6.75419 22.6687 6.95004 22.5243 7.09444C22.3799 7.23885 22.184 7.31997 21.9798 7.31997C21.7756 7.31997 21.5798 7.23885 21.4354 7.09444C21.2909 6.95004 21.2098 6.75419 21.2098 6.54997V3.21997C21.2098 3.10593 21.1645 2.99656 21.0839 2.91591C21.0032 2.83527 20.8939 2.78997 20.7798 2.78997H17.7798C17.5756 2.78997 17.3798 2.70885 17.2354 2.56444C17.0909 2.42004 17.0098 2.22419 17.0098 2.01997C17.0098 1.81575 17.0909 1.6199 17.2354 1.4755C17.3798 1.3311 17.5756 1.24997 17.7798 1.24997H20.7798C21.2999 1.25771 21.7965 1.46775 22.1643 1.83554C22.532 2.20332 22.7421 2.69991 22.7498 3.21997ZM1.34982 6.54997V3.21997C1.34982 2.68954 1.56054 2.18083 1.93561 1.80576C2.31068 1.43068 2.81939 1.21997 3.34982 1.21997H6.26982C6.47404 1.21997 6.66989 1.3011 6.8143 1.4455C6.9587 1.5899 7.03982 1.78575 7.03982 1.98997C7.03982 2.19419 6.9587 2.39004 6.8143 2.53444C6.66989 2.67885 6.47404 2.75997 6.26982 2.75997H3.31982C3.26336 2.75997 3.20744 2.77109 3.15527 2.7927C3.1031 2.81431 3.0557 2.84599 3.01577 2.88591C2.97584 2.92584 2.94417 2.97325 2.92256 3.02542C2.90095 3.07759 2.88982 3.1335 2.88982 3.18997V6.54997C2.88982 6.75419 2.8087 6.95004 2.6643 7.09444C2.51989 7.23885 2.32404 7.31997 2.11982 7.31997C1.91561 7.31997 1.71975 7.23885 1.57535 7.09444C1.43095 6.95004 1.34982 6.75419 1.34982 6.54997Z" fill="black"/>
</svg>
