<svg width="24" height="24" viewBox="0 0 24 24" fill="none" xmlns="http://www.w3.org/2000/svg">
<path d="M22.7599 7.89998C22.7493 6.12732 22.0377 4.43086 20.7805 3.18113C19.5233 1.9314 17.8226 1.22995 16.0499 1.22998H7.91989C7.03319 1.22996 6.15524 1.40542 5.33666 1.74625C4.51807 2.08708 3.77504 2.58655 3.15037 3.21587C2.5257 3.84518 2.03176 4.5919 1.697 5.41299C1.36224 6.23408 1.1933 7.1133 1.19989 7.99998V16.08C1.20246 16.9671 1.3809 17.8449 1.72491 18.6626C2.06891 19.4803 2.57165 20.2217 3.20402 20.8438C3.8364 21.466 4.58587 21.9565 5.40907 22.2872C6.23227 22.6178 7.11286 22.7819 7.99989 22.77H8.99989H13.9999H16.1199C17.0036 22.7661 17.8778 22.5876 18.6924 22.2449C19.507 21.9022 20.2458 21.4019 20.8665 20.7729C21.4872 20.1438 21.9775 19.3984 22.3093 18.5793C22.6411 17.7602 22.8078 16.8837 22.7999 16L22.7599 7.89998ZM15.6799 12.77L15.0999 14.21H12.5099V21.21H10.5099V14.21H8.13989V12.77H10.4899V9.05998C10.4899 8.32533 10.7817 7.62077 11.3012 7.10129C11.8207 6.58182 12.5252 6.28998 13.2599 6.28998H15.8599V7.72998H14.4399C13.9288 7.73261 13.4395 7.93679 13.0781 8.29817C12.7167 8.65954 12.5125 9.14892 12.5099 9.65998V12.77H15.6799ZM19.7899 19.68C19.3107 20.1678 18.7398 20.5559 18.1099 20.8219C17.48 21.0879 16.8036 21.2266 16.1199 21.23H13.9999V15.71H15.2599C15.5101 15.7095 15.7544 15.634 15.9612 15.4931C16.168 15.3523 16.3278 15.1526 16.4199 14.92L17.2099 13C17.2834 12.8088 17.31 12.6027 17.2874 12.3991C17.2648 12.1956 17.1936 12.0004 17.0799 11.83C16.9688 11.6655 16.8202 11.5298 16.6463 11.4342C16.4724 11.3386 16.2783 11.2857 16.0799 11.28H13.9999V9.65998C13.9999 9.54594 14.0452 9.43657 14.1258 9.35592C14.2065 9.27528 14.3159 9.22998 14.4299 9.22998H16.0999C16.4297 9.23266 16.7472 9.10488 16.9832 8.87449C17.2192 8.6441 17.3546 8.32976 17.3599 7.99998V5.99998C17.3599 5.66846 17.2282 5.35052 16.9938 5.1161C16.7594 4.88168 16.4414 4.74998 16.1099 4.74998H13.2599C12.697 4.7526 12.1401 4.86623 11.6212 5.08437C11.1023 5.30251 10.6315 5.62087 10.2358 6.02123C9.84006 6.42158 9.52721 6.89606 9.31514 7.4175C9.10307 7.93893 8.99594 8.49708 8.99989 9.05998V11.27H7.88989C7.55837 11.27 7.24043 11.4017 7.00601 11.6361C6.77159 11.8705 6.63989 12.1885 6.63989 12.52V14.46C6.63989 14.7915 6.77159 15.1094 7.00601 15.3439C7.24043 15.5783 7.55837 15.71 7.88989 15.71H8.99989V21.27H7.99989C6.6241 21.2674 5.30496 20.7218 4.32932 19.7517C3.35367 18.7817 2.80043 17.4657 2.78989 16.09L2.69989 7.99998C2.69721 6.62072 3.24051 5.29646 4.2111 4.3165C5.18169 3.33654 6.50067 2.78055 7.87989 2.76998H16.0199C17.3957 2.77258 18.7148 3.31821 19.6905 4.28823C20.6661 5.25825 21.2194 6.57422 21.2299 7.94998V16.03C21.2493 17.3888 20.7318 18.7004 19.7899 19.68Z" fill="black"/>
</svg>
