<svg width="24" height="24" viewBox="0 0 24 24" fill="none" xmlns="http://www.w3.org/2000/svg">
<path d="M21.0602 2.93999C19.9764 1.8573 18.5071 1.24915 16.9752 1.24915C15.4433 1.24915 13.974 1.8573 12.8902 2.93999L9.3402 6.49999C8.85057 6.98908 8.45709 7.56573 8.1802 8.19999C7.5512 8.47218 6.97817 8.85873 6.4902 9.33999L2.9402 12.89C1.91318 13.9847 1.3523 15.436 1.37622 16.9368C1.40015 18.4377 2.00701 19.8704 3.06841 20.9318C4.12981 21.9932 5.56249 22.6 7.06335 22.624C8.56421 22.6479 10.0155 22.087 11.1102 21.06L14.6602 17.51C15.1455 17.0173 15.5383 16.4415 15.8202 15.81C16.4452 15.5261 17.0168 15.1372 17.5102 14.66L21.0602 11.11C22.1429 10.0262 22.751 8.55693 22.751 7.02499C22.751 5.49306 22.1429 4.02378 21.0602 2.93999ZM14.6602 9.33999C14.3547 9.04322 14.0196 8.77851 13.6602 8.54999L16.0702 6.12999C16.3081 5.89367 16.6299 5.76103 16.9652 5.76103C17.3005 5.76103 17.6223 5.89367 17.8602 6.12999C18.0918 6.37039 18.2212 6.69119 18.2212 7.02499C18.2212 7.35879 18.0918 7.6796 17.8602 7.91999L15.4402 10.33C15.2206 9.97009 14.9587 9.63773 14.6602 9.33999ZM10.3402 15.45L7.9202 17.87C7.6775 18.0971 7.35756 18.2234 7.0252 18.2234C6.69284 18.2234 6.3729 18.0971 6.1302 17.87C5.89861 17.6296 5.76922 17.3088 5.76922 16.975C5.76922 16.6412 5.89861 16.3204 6.1302 16.08L8.5502 13.67C8.77227 14.0339 9.03753 14.3697 9.3402 14.67C9.64192 14.9682 9.97755 15.2299 10.3402 15.45ZM10.0502 20C9.23194 20.6804 8.18953 21.0316 7.12633 20.9851C6.06314 20.9385 5.05543 20.4975 4.2998 19.7481C3.54417 18.9987 3.09482 17.9947 3.03943 16.9319C2.98404 15.8692 3.32657 14.8239 4.0002 14L7.5602 10.4L7.6602 10.3C7.65519 10.3499 7.65519 10.4001 7.6602 10.45C7.6602 10.59 7.6602 10.72 7.6602 10.86C7.66483 11.0679 7.68488 11.2751 7.7202 11.48C7.74055 11.6318 7.77061 11.7821 7.8102 11.93C7.82541 12.0243 7.84544 12.1177 7.8702 12.21L5.0702 15C4.55779 15.5217 4.2707 16.2237 4.2707 16.955C4.2707 17.6863 4.55779 18.3883 5.0702 18.91C5.59791 19.4108 6.29768 19.69 7.0252 19.69C7.75272 19.69 8.4525 19.4108 8.9802 18.91L12.5302 15.35C12.7872 15.0944 12.9911 14.7906 13.1303 14.4559C13.2695 14.1213 13.3411 13.7624 13.3411 13.4C13.3411 13.0376 13.2695 12.6787 13.1303 12.344C12.9911 12.0094 12.7872 11.7056 12.5302 11.45C12.2945 11.2138 12.1621 10.8937 12.1621 10.56C12.1621 10.2263 12.2945 9.90621 12.5302 9.66999C13.1204 9.98437 13.6285 10.433 14.0137 10.9797C14.3988 11.5264 14.6501 12.1559 14.7474 12.8175C14.8447 13.4791 14.7852 14.1543 14.5738 14.7887C14.3624 15.4231 14.0049 15.999 13.5302 16.47L10.0502 20ZM20.0502 10.05L16.4402 13.6C16.4402 13.6 16.3602 13.66 16.3202 13.7C16.3487 13.0616 16.271 12.4229 16.0902 11.81L18.9302 8.99999C19.4426 8.47828 19.7297 7.77625 19.7297 7.04499C19.7297 6.31373 19.4426 5.6117 18.9302 5.08999C18.4097 4.57519 17.7072 4.28645 16.9752 4.28645C16.2432 4.28645 15.5407 4.57519 15.0202 5.08999L11.8802 8.21999L11.4702 8.62999C11.2132 8.88555 11.0093 9.18939 10.8701 9.52404C10.7309 9.8587 10.6593 10.2176 10.6593 10.58C10.6593 10.9424 10.7309 11.3013 10.8701 11.6359C11.0093 11.9706 11.2132 12.2744 11.4702 12.53C11.5882 12.6461 11.6817 12.7847 11.7452 12.9376C11.8088 13.0904 11.8411 13.2545 11.8402 13.42C11.8422 13.5857 11.8104 13.7501 11.7468 13.9031C11.6832 14.0561 11.5891 14.1945 11.4702 14.31C11.1016 14.1109 10.7646 13.8581 10.4702 13.56C10.0194 13.1254 9.67684 12.5911 9.4702 12C9.12518 11.0607 9.12518 10.0293 9.4702 9.08999C9.68491 8.49992 10.0262 7.96403 10.4702 7.51999L14.0002 3.99999C14.8241 3.32636 15.8694 2.98383 16.9321 3.03922C17.9949 3.09462 18.9989 3.54396 19.7483 4.29959C20.4977 5.05522 20.9387 6.06293 20.9853 7.12612C21.0318 8.18932 20.6806 9.23173 20.0002 10.05H20.0502Z" fill="black"/>
</svg>
