<svg width="24" height="24" viewBox="0 0 24 24" fill="none" xmlns="http://www.w3.org/2000/svg">
<path d="M20.25 22.75H3.75C3.08696 22.75 2.45107 22.4866 1.98223 22.0178C1.51339 21.5489 1.25 20.913 1.25 20.25V15.25C1.25 14.587 1.51339 13.9511 1.98223 13.4822C2.45107 13.0134 3.08696 12.75 3.75 12.75H20.25C20.913 12.75 21.5489 13.0134 22.0178 13.4822C22.4866 13.9511 22.75 14.587 22.75 15.25V20.25C22.75 20.913 22.4866 21.5489 22.0178 22.0178C21.5489 22.4866 20.913 22.75 20.25 22.75ZM3.75 14.25C3.48478 14.25 3.23043 14.3554 3.04289 14.5429C2.85536 14.7304 2.75 14.9848 2.75 15.25V20.25C2.75 20.5152 2.85536 20.7696 3.04289 20.9571C3.23043 21.1446 3.48478 21.25 3.75 21.25H20.25C20.5152 21.25 20.7696 21.1446 20.9571 20.9571C21.1446 20.7696 21.25 20.5152 21.25 20.25V15.25C21.25 14.9848 21.1446 14.7304 20.9571 14.5429C20.7696 14.3554 20.5152 14.25 20.25 14.25H3.75ZM13.25 11.25H3.75C3.08696 11.25 2.45107 10.9866 1.98223 10.5178C1.51339 10.0489 1.25 9.41304 1.25 8.75V3.75C1.25 3.08696 1.51339 2.45107 1.98223 1.98223C2.45107 1.51339 3.08696 1.25 3.75 1.25H13.25C13.913 1.25 14.5489 1.51339 15.0178 1.98223C15.4866 2.45107 15.75 3.08696 15.75 3.75V8.75C15.75 9.41304 15.4866 10.0489 15.0178 10.5178C14.5489 10.9866 13.913 11.25 13.25 11.25ZM3.75 2.75C3.48478 2.75 3.23043 2.85536 3.04289 3.04289C2.85536 3.23043 2.75 3.48478 2.75 3.75V8.75C2.75 9.01522 2.85536 9.26957 3.04289 9.45711C3.23043 9.64464 3.48478 9.75 3.75 9.75H13.25C13.5152 9.75 13.7696 9.64464 13.9571 9.45711C14.1446 9.26957 14.25 9.01522 14.25 8.75V3.75C14.25 3.48478 14.1446 3.23043 13.9571 3.04289C13.7696 2.85536 13.5152 2.75 13.25 2.75H3.75Z" fill="black"/>
</svg>
