<svg width="24" height="24" viewBox="0 0 24 24" fill="none" xmlns="http://www.w3.org/2000/svg">
<path d="M21.7802 6.45003L17.5502 2.22003C17.0485 1.72355 16.3711 1.44507 15.6652 1.44507C14.9594 1.44507 14.282 1.72355 13.7802 2.22003L12.8902 3.11003L12.3602 3.64003C11.6224 4.36424 10.6981 4.86964 9.69023 5.10003C8.33805 5.43083 7.10084 6.12201 6.11023 7.10003C5.38532 7.82365 4.8148 8.68686 4.43321 9.6374C4.05162 10.5879 3.8669 11.606 3.89023 12.63C3.9045 13.3246 3.77807 14.0149 3.51857 14.6594C3.25907 15.3038 2.87185 15.8891 2.38023 16.38L2.00023 16.82C1.67751 17.1486 1.49471 17.5895 1.49023 18.05C1.49198 18.5082 1.67539 18.9469 2.00023 19.27L4.78023 22.05C4.9394 22.2121 5.12926 22.3408 5.33873 22.4287C5.5482 22.5166 5.77308 22.5618 6.00023 22.5618C6.22739 22.5618 6.45227 22.5166 6.66173 22.4287C6.8712 22.3408 7.06107 22.2121 7.22023 22.05L7.66023 21.62C8.14795 21.1241 8.73267 20.7341 9.37789 20.4743C10.0231 20.2145 10.715 20.0905 11.4102 20.11C12.433 20.1237 13.4483 19.9346 14.3974 19.5535C15.3466 19.1725 16.2109 18.6071 16.9402 17.89C17.9215 16.9019 18.6132 15.6637 18.9402 14.31C19.1706 13.3021 19.676 12.3779 20.4002 11.64L20.9302 11.11L21.8202 10.22C22.3139 9.71428 22.5868 9.03345 22.5794 8.32676C22.5719 7.62008 22.2845 6.94519 21.7802 6.45003ZM17.4402 14C17.1091 15.3466 16.3298 16.5405 15.2304 17.3856C14.1309 18.2306 12.7767 18.6765 11.3902 18.65C10.4941 18.6354 9.6042 18.8004 8.77292 19.1353C7.94164 19.4702 7.18588 19.9682 6.55023 20.6L6.11023 21C6.0916 21.0249 6.06745 21.045 6.03968 21.0589C6.01191 21.0728 5.98128 21.08 5.95023 21.08C5.91919 21.08 5.88856 21.0728 5.86079 21.0589C5.83302 21.045 5.80886 21.0249 5.79023 21L4.93023 20.14L9.85023 15.24C10.4349 15.6105 11.1261 15.776 11.8151 15.7106C12.5041 15.6452 13.1519 15.3525 13.6563 14.8787C14.1608 14.4048 14.4934 13.7767 14.6018 13.0931C14.7101 12.4095 14.5881 11.7092 14.2549 11.1026C13.9217 10.496 13.3962 10.0173 12.7612 9.74202C12.1262 9.46672 11.4177 9.41039 10.7471 9.5819C10.0766 9.7534 9.4821 10.143 9.05724 10.6894C8.63237 11.2358 8.40125 11.9079 8.40023 12.6C8.40281 13.1382 8.54771 13.666 8.82023 14.13L3.87023 19.07L3.00023 18.21C2.97844 18.1895 2.96108 18.1647 2.94922 18.1372C2.93735 18.1096 2.93123 18.08 2.93123 18.05C2.93123 18.0201 2.93735 17.9904 2.94922 17.9629C2.96108 17.9354 2.97844 17.9106 3.00023 17.89L3.43023 17.45C4.06202 16.8144 4.56007 16.0586 4.89498 15.2273C5.2299 14.3961 5.3949 13.5061 5.38023 12.61C5.35973 11.2308 5.80884 9.88551 6.65384 8.7952C7.49883 7.70488 8.68947 6.93431 10.0302 6.61003C11.0657 6.35365 12.0319 5.87223 12.8602 5.20003L15.8602 8.20003L18.8602 11.2C18.1883 12.0186 17.7037 12.9743 17.4402 14ZM9.90023 12.6C9.89825 12.2772 9.99217 11.9611 10.1701 11.6917C10.348 11.4224 10.6018 11.2119 10.8995 11.087C11.1972 10.9621 11.5252 10.9284 11.8421 10.9901C12.1589 11.0519 12.4503 11.2063 12.6792 11.4339C12.9082 11.6615 13.0644 11.9519 13.1281 12.2683C13.1919 12.5848 13.1602 12.913 13.0371 13.2115C12.914 13.5099 12.7051 13.7651 12.4368 13.9446C12.1686 14.1242 11.853 14.22 11.5302 14.22C11.3167 14.2213 11.1049 14.1804 10.9072 14.0996C10.7095 14.0188 10.5297 13.8997 10.3783 13.7491C10.2268 13.5985 10.1065 13.4195 10.0245 13.2223C9.94246 13.0251 9.90023 12.8136 9.90023 12.6ZM20.7102 9.16003L19.8302 10.05L14.0002 4.17003L14.8902 3.29003C15.1107 3.07442 15.4069 2.9537 15.7152 2.9537C16.0236 2.9537 16.3197 3.07442 16.5402 3.29003L20.7602 7.51003C20.8662 7.62119 20.949 7.75228 21.0039 7.89569C21.0588 8.0391 21.0847 8.19199 21.08 8.34548C21.0753 8.49897 21.0403 8.65 20.9768 8.78983C20.9133 8.92966 20.8227 9.05549 20.7102 9.16003Z" fill="black"/>
</svg>
