<svg width="24" height="24" viewBox="0 0 24 24" fill="none" xmlns="http://www.w3.org/2000/svg">
<path d="M17.6698 8.67C18.3797 8.172 18.9124 7.46081 19.1907 6.63959C19.469 5.81837 19.4785 4.92984 19.2177 4.10289C18.9569 3.27594 18.4394 2.55357 17.7403 2.04059C17.0413 1.52761 16.1969 1.25069 15.3298 1.25H8.66983C7.80273 1.25069 6.9584 1.52761 6.25932 2.04059C5.56024 2.55357 5.04277 3.27594 4.78198 4.10289C4.52119 4.92984 4.53064 5.81837 4.80896 6.63959C5.08728 7.46081 5.61999 8.172 6.32983 8.67C5.79343 9.04523 5.35546 9.5443 5.05307 10.1249C4.75068 10.7054 4.59278 11.3504 4.59278 12.005C4.59278 12.6596 4.75068 13.3046 5.05307 13.8851C5.35546 14.4657 5.79343 14.9648 6.32983 15.34C5.75506 15.7424 5.29379 16.2862 4.99056 16.919C4.68732 17.5517 4.55238 18.2519 4.59877 18.952C4.64516 19.6521 4.87131 20.3284 5.25537 20.9156C5.63943 21.5028 6.16842 21.981 6.79126 22.304C7.41409 22.6271 8.10971 22.7841 8.81092 22.7598C9.51213 22.7356 10.1952 22.5309 10.7943 22.1656C11.3933 21.8002 11.8879 21.2866 12.2305 20.6743C12.5731 20.0619 12.7519 19.3716 12.7498 18.67V15.13C13.4706 15.7416 14.3846 16.0781 15.3298 16.08C16.1975 16.083 17.0435 15.8087 17.7442 15.297C18.445 14.7853 18.9639 14.063 19.2252 13.2356C19.4864 12.4082 19.4765 11.5189 19.1967 10.6976C18.9169 9.87626 18.3819 9.16583 17.6698 8.67ZM17.9098 5.33C17.9072 6.01345 17.6345 6.66815 17.1513 7.15143C16.668 7.6347 16.0133 7.90737 15.3298 7.91H12.7498V2.75H15.3298C16.0133 2.75263 16.668 3.0253 17.1513 3.50857C17.6345 3.99185 17.9072 4.64655 17.9098 5.33ZM8.66983 2.75H11.2498V7.91H8.66983C7.98557 7.91 7.32933 7.63818 6.84549 7.15434C6.36165 6.67049 6.08983 6.01426 6.08983 5.33C6.08983 4.64574 6.36165 3.98951 6.84549 3.50566C7.32933 3.02182 7.98557 2.75 8.66983 2.75ZM8.66983 9.42H11.2498V14.58H8.66983C8.33102 14.58 7.99552 14.5133 7.6825 14.3836C7.36948 14.254 7.08507 14.0639 6.84549 13.8243C6.60592 13.5848 6.41587 13.3003 6.28622 12.9873C6.15656 12.6743 6.08983 12.3388 6.08983 12C6.08983 11.6612 6.15656 11.3257 6.28622 11.0127C6.41587 10.6997 6.60592 10.4152 6.84549 10.1757C7.08507 9.93609 7.36948 9.74605 7.6825 9.61639C7.99552 9.48673 8.33102 9.42 8.66983 9.42ZM8.66983 21.25C7.98557 21.25 7.32933 20.9782 6.84549 20.4943C6.36165 20.0105 6.08983 19.3543 6.08983 18.67C6.08983 17.9857 6.36165 17.3295 6.84549 16.8457C7.32933 16.3618 7.98557 16.09 8.66983 16.09H11.2498V18.68C11.2446 19.3617 10.9707 20.0139 10.4878 20.495C10.0048 20.9761 9.35155 21.2474 8.66983 21.25ZM15.3298 14.58C14.8196 14.58 14.3207 14.4287 13.8965 14.1452C13.4722 13.8617 13.1415 13.4588 12.9462 12.9873C12.7509 12.5159 12.6999 11.9971 12.7994 11.4967C12.899 10.9962 13.1447 10.5365 13.5055 10.1757C13.8663 9.81485 14.326 9.56912 14.8265 9.46957C15.327 9.37002 15.8457 9.42112 16.3172 9.61639C16.7886 9.81167 17.1915 10.1423 17.475 10.5666C17.7585 10.9909 17.9098 11.4897 17.9098 12C17.9072 12.6834 17.6345 13.3382 17.1513 13.8214C16.668 14.3047 16.0133 14.5774 15.3298 14.58Z" fill="black"/>
</svg>
