<svg width="24" height="24" viewBox="0 0 24 24" fill="none" xmlns="http://www.w3.org/2000/svg">
<path d="M22.2498 10.47C22.2555 10.4201 22.2555 10.3698 22.2498 10.32C22.2722 10.1886 22.2611 10.0537 22.2174 9.92783C22.1736 9.80195 22.0988 9.68916 21.9998 9.59998L14.3398 1.46998C14.2788 1.41097 14.2077 1.36353 14.1298 1.32998C14.1298 1.32998 14.0798 1.32998 14.0598 1.32998C13.9969 1.31953 13.9327 1.31953 13.8698 1.32998H7.65979C4.31979 1.32998 1.56979 4.12998 1.24979 7.91998V12.92C1.24713 13.0172 1.26364 13.1139 1.29839 13.2047C1.33314 13.2955 1.38544 13.3786 1.45231 13.4492C1.51917 13.5197 1.59929 13.5765 1.68808 13.6161C1.77687 13.6557 1.8726 13.6774 1.96979 13.68C2.06698 13.6774 2.1627 13.6557 2.2515 13.6161C2.34029 13.5765 2.42041 13.5197 2.48727 13.4492C2.55414 13.3786 2.60644 13.2955 2.64119 13.2047C2.67594 13.1139 2.69245 13.0172 2.68979 12.92V7.90998C2.93979 4.97998 5.07979 2.76998 7.68979 2.76998H13.0998V6.76998C13.0825 7.29779 13.1698 7.8238 13.3568 8.31768C13.5439 8.81155 13.8268 9.2635 14.1894 9.64746C14.552 10.0314 14.987 10.3398 15.4693 10.5548C15.9517 10.7697 16.4719 10.8871 16.9998 10.9H20.7998V16.28C20.8321 17.556 20.358 18.793 19.481 19.7205C18.6041 20.6481 17.3956 21.1907 16.1198 21.23H9.83979C9.63822 21.23 9.44492 21.31 9.30239 21.4526C9.15986 21.5951 9.07979 21.7884 9.07979 21.99C9.07979 22.1915 9.15986 22.3848 9.30239 22.5274C9.44492 22.6699 9.63822 22.75 9.83979 22.75H16.1498C17.8191 22.7029 19.4014 21.9949 20.549 20.7817C21.6966 19.5685 22.3155 17.9493 22.2698 16.28L22.2498 10.47ZM16.9998 9.37998C16.3375 9.35906 15.7104 9.07714 15.2552 8.5957C14.8 8.11425 14.5536 7.47235 14.5698 6.80998V3.80998L19.7998 9.33998L16.9998 9.37998ZM6.62979 19.91C6.76471 20.0575 6.83954 20.2501 6.83954 20.45C6.83954 20.6499 6.76471 20.8425 6.62979 20.99C6.56505 21.0605 6.48616 21.1165 6.39828 21.1544C6.31039 21.1923 6.21549 21.2113 6.11979 21.21C6.0234 21.2121 5.92758 21.1946 5.83818 21.1585C5.74878 21.1224 5.66766 21.0685 5.59979 21L4.37979 19.7L3.15979 21C3.09358 21.0686 3.01441 21.1234 2.92686 21.1611C2.83931 21.1989 2.74513 21.2189 2.64979 21.22C2.45767 21.2156 2.27478 21.1367 2.13979 21C2.00487 20.8525 1.93004 20.6599 1.93004 20.46C1.93004 20.2601 2.00487 20.0675 2.13979 19.92L3.36979 18.62L2.14979 17.27C2.0127 17.1236 1.93642 16.9305 1.93642 16.73C1.93642 16.5294 2.0127 16.3364 2.14979 16.19C2.21496 16.1235 2.29276 16.0706 2.37861 16.0345C2.46447 15.9985 2.55666 15.9799 2.64979 15.9799C2.74292 15.9799 2.83511 15.9985 2.92096 16.0345C3.00682 16.0706 3.08461 16.1235 3.14979 16.19L4.35979 17.5L5.57979 16.21C5.64424 16.1422 5.7218 16.0882 5.80775 16.0514C5.89371 16.0145 5.98626 15.9955 6.07979 15.9955C6.17332 15.9955 6.26587 16.0145 6.35182 16.0514C6.43778 16.0882 6.51534 16.1422 6.57979 16.21C6.71688 16.3564 6.79316 16.5494 6.79316 16.75C6.79316 16.9505 6.71688 17.1436 6.57979 17.29L5.39979 18.6L6.62979 19.91Z" fill="black"/>
</svg>
