<svg width="24" height="24" viewBox="0 0 24 24" fill="none" xmlns="http://www.w3.org/2000/svg">
<path d="M12.2399 14.36C12.1756 14.4351 12.0972 14.4967 12.0091 14.5413C11.921 14.586 11.825 14.6128 11.7265 14.6202C11.628 14.6277 11.529 14.6156 11.4352 14.5847C11.3414 14.5537 11.2546 14.5046 11.1799 14.44L9.57985 13.05V18.15C9.57985 18.3489 9.50084 18.5397 9.36018 18.6803C9.21953 18.821 9.02876 18.9 8.82985 18.9C8.63094 18.9 8.44018 18.821 8.29952 18.6803C8.15887 18.5397 8.07985 18.3489 8.07985 18.15V13L6.22985 14.46C6.09976 14.5652 5.93712 14.6217 5.76985 14.62C5.65594 14.6197 5.54361 14.5934 5.44138 14.5431C5.33916 14.4929 5.24972 14.42 5.17985 14.33C5.05607 14.1714 4.99931 13.9705 5.02174 13.7706C5.04417 13.5706 5.144 13.3873 5.29985 13.26L8.35985 10.8C8.39305 10.7742 8.43019 10.754 8.46985 10.74L8.55985 10.69C8.63289 10.6807 8.70681 10.6807 8.77985 10.69H8.82985C8.9233 10.6887 9.01575 10.7093 9.09985 10.75L9.18985 10.8C9.2331 10.8173 9.27354 10.8409 9.30985 10.87L12.1599 13.34C12.2939 13.4719 12.3758 13.6477 12.3905 13.8351C12.4052 14.0225 12.3517 14.2089 12.2399 14.36ZM22.7799 16.28C22.7905 17.9819 22.126 19.6187 20.9319 20.8314C19.7379 22.0442 18.1117 22.7342 16.4099 22.75H7.58985C5.88798 22.7342 4.26181 22.0442 3.06776 20.8314C1.87371 19.6187 1.20919 17.9819 1.21985 16.28V7.72002C1.20919 6.01811 1.87371 4.38139 3.06776 3.16859C4.26181 1.9558 5.88798 1.26587 7.58985 1.25002H13.9999C14.0695 1.24055 14.1402 1.24055 14.2099 1.25002H14.2699C14.352 1.28109 14.4269 1.32875 14.4899 1.39002L22.4899 9.52002C22.5806 9.61365 22.6458 9.72906 22.6791 9.85515C22.7124 9.98125 22.7126 10.1138 22.6799 10.24C22.6856 10.2899 22.6856 10.3402 22.6799 10.39L22.7799 16.28ZM14.7799 6.81002C14.7772 7.48554 15.0416 8.13474 15.5155 8.61614C15.9894 9.09754 16.6344 9.37211 17.3099 9.38002H20.2199L14.7499 3.85002L14.7799 6.81002ZM21.3099 16.28V10.9H17.3099C16.2391 10.8816 15.2188 10.442 14.47 9.67635C13.7213 8.91075 13.3044 7.88089 13.3099 6.81002V2.81002H7.58985C6.29458 2.82057 5.05596 3.34253 4.14379 4.26219C3.23162 5.18185 2.71981 6.42471 2.71985 7.72002V16.28C2.71458 16.9248 2.83636 17.5643 3.07825 18.1621C3.32014 18.7598 3.6774 19.304 4.12963 19.7637C4.58185 20.2233 5.12019 20.5894 5.7139 20.841C6.3076 21.0926 6.94506 21.2248 7.58985 21.23H16.4099C17.0546 21.2248 17.6921 21.0926 18.2858 20.841C18.8795 20.5894 19.4179 20.2233 19.8701 19.7637C20.3223 19.304 20.6796 18.7598 20.9215 18.1621C21.1633 17.5643 21.2851 16.9248 21.2799 16.28H21.3099Z" fill="black"/>
</svg>
