<svg width="24" height="24" viewBox="0 0 24 24" fill="none" xmlns="http://www.w3.org/2000/svg">
<path d="M22.7799 16.28C22.7905 17.9819 22.126 19.6187 20.9319 20.8314C19.7379 22.0442 18.1117 22.7342 16.4099 22.75H7.58985C5.88798 22.7342 4.26181 22.0442 3.06776 20.8314C1.87371 19.6187 1.20919 17.9819 1.21985 16.28V7.72002C1.20919 6.01811 1.87371 4.38139 3.06776 3.16859C4.26181 1.9558 5.88798 1.26587 7.58985 1.25002H14.0499C14.1128 1.24072 14.1769 1.24072 14.2399 1.25002H14.3199C14.3978 1.28358 14.4689 1.33102 14.5299 1.39002L22.5299 9.52002C22.6206 9.61365 22.6858 9.72906 22.7191 9.85516C22.7524 9.98125 22.7526 10.1138 22.7199 10.24C22.7256 10.2899 22.7256 10.3402 22.7199 10.39L22.7799 16.28ZM14.7799 6.81002C14.7772 7.48554 15.0416 8.13474 15.5155 8.61614C15.9894 9.09754 16.6344 9.37211 17.3099 9.38002H20.2199L14.7499 3.85002L14.7799 6.81002ZM21.3099 16.28V10.9H17.3099C16.2391 10.8816 15.2188 10.442 14.47 9.67636C13.7213 8.91075 13.3044 7.88089 13.3099 6.81002V2.81002H7.58985C6.29458 2.82057 5.05596 3.34253 4.14379 4.26219C3.23162 5.18186 2.71981 6.42471 2.71985 7.72002V16.28C2.71458 16.9248 2.83636 17.5643 3.07825 18.1621C3.32014 18.7598 3.6774 19.304 4.12963 19.7637C4.58185 20.2233 5.12019 20.5894 5.7139 20.841C6.3076 21.0926 6.94506 21.2248 7.58985 21.23H16.4099C17.0546 21.2248 17.6921 21.0926 18.2858 20.841C18.8795 20.5894 19.4179 20.2233 19.8701 19.7637C20.3223 19.304 20.6796 18.7598 20.9215 18.1621C21.1633 17.5643 21.2851 16.9248 21.2799 16.28H21.3099Z" fill="black"/>
<path d="M7.31969 18.07C7.20435 18.0697 7.09055 18.0435 6.9867 17.9933C6.88284 17.9431 6.7916 17.8702 6.71969 17.78L4.51969 14.88C4.41833 14.75 4.36328 14.5899 4.36328 14.425C4.36328 14.2602 4.41833 14.1001 4.51969 13.97L6.72969 11.08C6.85169 10.9222 7.03138 10.8194 7.22923 10.794C7.42708 10.7687 7.62689 10.823 7.78469 10.945C7.9425 11.067 8.04537 11.2467 8.07069 11.4446C8.09601 11.6424 8.04169 11.8422 7.91969 12L6.05969 14.43L7.91969 16.87C8.04012 17.0279 8.093 17.2272 8.06676 17.424C8.04051 17.6208 7.93728 17.7992 7.77969 17.92C7.64582 18.0169 7.48494 18.0694 7.31969 18.07Z" fill="black"/>
<path d="M11.8999 15.1801H5.18994C4.99103 15.1801 4.80026 15.101 4.65961 14.9604C4.51896 14.8197 4.43994 14.629 4.43994 14.4301C4.43994 14.2311 4.51896 14.0404 4.65961 13.8997C4.80026 13.7591 4.99103 13.6801 5.18994 13.6801H11.8999C12.0989 13.6801 12.2896 13.7591 12.4303 13.8997C12.5709 14.0404 12.6499 14.2311 12.6499 14.4301C12.6499 14.629 12.5709 14.8197 12.4303 14.9604C12.2896 15.101 12.0989 15.1801 11.8999 15.1801Z" fill="black"/>
</svg>
