<svg width="24" height="24" viewBox="0 0 24 24" fill="none" xmlns="http://www.w3.org/2000/svg">
<path d="M22.7502 10.49C22.7559 10.4435 22.7559 10.3965 22.7502 10.35C22.7831 10.2254 22.7829 10.0943 22.7496 9.96976C22.7163 9.84522 22.651 9.73155 22.5602 9.64001L14.5602 1.64001C14.4951 1.57889 14.4209 1.52829 14.3402 1.49001H14.2702C14.2072 1.48071 14.1432 1.48071 14.0802 1.49001H7.59021C5.91364 1.49251 4.30542 2.15485 3.11337 3.33381C1.92131 4.51276 1.24124 6.11356 1.22021 7.79001V16.21C1.22286 17.8986 1.89483 19.5173 3.08887 20.7114C4.2829 21.9054 5.9016 22.5774 7.59021 22.58H16.4102C18.0988 22.5774 19.7175 21.9054 20.9116 20.7114C22.1056 19.5173 22.7776 17.8986 22.7802 16.21L22.7502 10.49ZM14.7502 4.00001L20.1902 9.44001H17.2802C16.61 9.43738 15.968 9.16998 15.4941 8.69608C15.0202 8.22219 14.7528 7.5802 14.7502 6.91001V4.00001ZM16.4102 21.1H7.59021C6.29942 21.0974 5.06225 20.5834 4.14952 19.6707C3.23679 18.758 2.72286 17.5208 2.72021 16.23V7.79001C2.72286 6.49922 3.23679 5.26205 4.14952 4.34932C5.06225 3.43659 6.29942 2.92265 7.59021 2.92001H13.2502V6.92001C13.2502 7.98088 13.6716 8.99829 14.4218 9.74844C15.1719 10.4986 16.1893 10.92 17.2502 10.92H21.2502V16.21C21.2476 17.4956 20.7378 18.7283 19.8316 19.6402C18.9253 20.5521 17.6958 21.0695 16.4102 21.08V21.1ZM14.2002 20H9.58021C8.17722 20 6.83169 19.4427 5.83962 18.4506C4.84755 17.4585 4.29021 16.113 4.29021 14.71V10C4.30338 8.60478 4.8662 7.27101 5.85656 6.28814C6.84692 5.30527 8.18492 4.75258 9.58021 4.75001H11.2602C11.4591 4.75001 11.6499 4.82903 11.7905 4.96968C11.9312 5.11033 12.0102 5.3011 12.0102 5.50001C12.0102 5.69892 11.9312 5.88969 11.7905 6.03034C11.6499 6.17099 11.4591 6.25001 11.2602 6.25001H9.58021C8.58194 6.24996 7.62395 6.64376 6.91432 7.3459C6.2047 8.04803 5.80075 9.00179 5.79021 10V14.62C5.79021 15.6252 6.18952 16.5892 6.90028 17.2999C7.61104 18.0107 8.57504 18.41 9.58021 18.41H14.2002C15.2002 18.4127 16.1608 18.0201 16.8726 17.3176C17.5843 16.6152 17.9897 15.66 18.0002 14.66V13C18.0002 12.8011 18.0792 12.6103 18.2199 12.4697C18.3605 12.329 18.5513 12.25 18.7502 12.25C18.9491 12.25 19.1399 12.329 19.2805 12.4697C19.4212 12.6103 19.5002 12.8011 19.5002 13V14.68C19.5028 15.3777 19.3677 16.069 19.1025 16.7144C18.8374 17.3597 18.4474 17.9463 17.955 18.4406C17.4626 18.9349 16.8774 19.3271 16.2331 19.5947C15.5887 19.8623 14.8979 20 14.2002 20Z" fill="black"/>
</svg>
