<svg width="24" height="24" viewBox="0 0 24 24" fill="none" xmlns="http://www.w3.org/2000/svg">
<path d="M22.7799 16.2599C22.7933 17.9645 22.1302 19.6048 20.9362 20.8214C19.7421 22.0379 18.1145 22.7315 16.4099 22.7499H7.58992C5.8854 22.7315 4.25772 22.0379 3.06367 20.8214C1.86961 19.6048 1.20659 17.9645 1.21992 16.2599V7.67994C1.20659 5.97536 1.86961 4.33503 3.06367 3.11848C4.25772 1.90194 5.8854 1.20842 7.58992 1.18994H14.0499C14.1154 1.19718 14.1794 1.21403 14.2399 1.23994H14.3199C14.3982 1.27726 14.4692 1.32803 14.5299 1.38994L22.5299 9.53994C22.6207 9.63357 22.6859 9.74898 22.7191 9.87508C22.7524 10.0012 22.7527 10.1337 22.7199 10.2599C22.7246 10.3065 22.7246 10.3534 22.7199 10.3999L22.7799 16.2599ZM14.7799 6.75994C14.7746 7.43719 15.0378 8.08895 15.512 8.57251C15.9862 9.05607 16.6327 9.33203 17.3099 9.33994H20.2199L14.7499 3.79994L14.7799 6.75994ZM21.3099 16.2599V10.8699H17.3099C16.2357 10.8515 15.2124 10.4091 14.463 9.63917C13.7137 8.86924 13.2992 7.83426 13.3099 6.75994V2.75994H7.58992C6.94125 2.76645 6.30027 2.90117 5.70387 3.15635C5.10746 3.41154 4.56741 3.78214 4.11479 4.24685C3.66217 4.71155 3.30591 5.26118 3.06652 5.8641C2.82714 6.46702 2.70934 7.11132 2.71992 7.75994V16.3399C2.70801 16.9889 2.82488 17.6338 3.06379 18.2373C3.30269 18.8408 3.65889 19.391 4.11178 19.856C4.56466 20.3209 5.10525 20.6915 5.70226 20.9462C6.29927 21.2009 6.94086 21.3348 7.58992 21.3399H16.4099C17.0659 21.335 17.7142 21.1986 18.3166 20.9389C18.919 20.6793 19.4633 20.3015 19.9173 19.8279C20.3712 19.3544 20.7257 18.7947 20.9597 18.1819C21.1938 17.569 21.3027 16.9155 21.2799 16.2599H21.3099ZM9.37992 17.9199C9.30078 17.8609 9.23425 17.7867 9.18423 17.7016C9.13421 17.6165 9.10172 17.5223 9.08867 17.4244C9.07563 17.3266 9.08229 17.2271 9.10826 17.1319C9.13424 17.0367 9.179 16.9476 9.23992 16.8699L11.0999 14.4199L9.23992 11.9999C9.17413 11.9224 9.12478 11.8323 9.0949 11.7351C9.06502 11.6379 9.05522 11.5356 9.06609 11.4345C9.07697 11.3334 9.1083 11.2355 9.15817 11.1469C9.20804 11.0583 9.27542 10.9807 9.3562 10.9189C9.43699 10.8571 9.52949 10.8124 9.62809 10.7875C9.72669 10.7626 9.82933 10.758 9.92976 10.774C10.0302 10.79 10.1263 10.8263 10.2123 10.8806C10.2983 10.9349 10.3723 11.0061 10.4299 11.0899L12.6399 13.9999C12.7366 14.1319 12.7887 14.2913 12.7887 14.4549C12.7887 14.6186 12.7366 14.7779 12.6399 14.9099L10.4299 17.7999C10.312 17.9452 10.144 18.0411 9.959 18.0688C9.77399 18.0966 9.58529 18.0542 9.42992 17.9499L9.37992 17.9199ZM4.50992 14.4199C4.50992 14.221 4.58894 14.0303 4.72959 13.8896C4.87025 13.749 5.06101 13.6699 5.25992 13.6699H11.9999C12.1988 13.6699 12.3896 13.749 12.5303 13.8896C12.6709 14.0303 12.7499 14.221 12.7499 14.4199C12.7499 14.6189 12.6709 14.8096 12.5303 14.9503C12.3896 15.0909 12.1988 15.1699 11.9999 15.1699H5.25992C5.16106 15.1713 5.06293 15.1528 4.97133 15.1156C4.87973 15.0784 4.79651 15.0232 4.7266 14.9533C4.65668 14.8834 4.60149 14.8001 4.56427 14.7085C4.52706 14.6169 4.50858 14.5188 4.50992 14.4199Z" fill="black"/>
</svg>
