<svg width="24" height="24" viewBox="0 0 24 24" fill="none" xmlns="http://www.w3.org/2000/svg">
<path d="M11.7699 15.92L8.92985 18.38C8.89225 18.4101 8.8521 18.4369 8.80985 18.46L8.70985 18.51C8.62541 18.5498 8.53319 18.5703 8.43985 18.57C8.34662 18.5693 8.2546 18.5489 8.16985 18.51L8.07985 18.46L7.99985 18.4L4.90985 15.93C4.754 15.8027 4.65417 15.6195 4.63174 15.4195C4.60931 15.2195 4.66607 15.0187 4.78985 14.86C4.85123 14.7821 4.92746 14.717 5.01413 14.6688C5.10081 14.6205 5.19621 14.5899 5.2948 14.5787C5.39339 14.5675 5.49321 14.576 5.58849 14.6037C5.68377 14.6314 5.7726 14.6778 5.84985 14.74L7.68985 16.23V11.05C7.68985 10.8511 7.76887 10.6603 7.90952 10.5197C8.05017 10.379 8.24094 10.3 8.43985 10.3C8.63876 10.3 8.82953 10.379 8.97018 10.5197C9.11084 10.6603 9.18985 10.8511 9.18985 11.05V16.15L10.7999 14.76C10.9461 14.6453 11.1302 14.5899 11.3155 14.6047C11.5008 14.6195 11.6737 14.7035 11.7999 14.84C11.9376 14.9879 12.0117 15.1841 12.0061 15.3862C12.0005 15.5882 11.9156 15.78 11.7699 15.92ZM22.7699 16.28C22.7805 17.9819 22.116 19.6187 20.9219 20.8314C19.7279 22.0442 18.1017 22.7342 16.3999 22.75H7.58985C5.88798 22.7342 4.26181 22.0442 3.06776 20.8314C1.87371 19.6187 1.20919 17.9819 1.21985 16.28V7.72002C1.20919 6.01811 1.87371 4.38139 3.06776 3.16859C4.26181 1.9558 5.88798 1.26587 7.58985 1.25002H14.0499C14.1128 1.24072 14.1769 1.24072 14.2399 1.25002H14.3199C14.3978 1.28358 14.4689 1.33102 14.5299 1.39002L22.5299 9.52002C22.6206 9.61365 22.6858 9.72906 22.7191 9.85516C22.7524 9.98125 22.7526 10.1138 22.7199 10.24C22.7256 10.2899 22.7256 10.3402 22.7199 10.39L22.7699 16.28ZM14.7699 6.81002C14.7672 7.48554 15.0316 8.13474 15.5055 8.61614C15.9794 9.09754 16.6244 9.37211 17.2999 9.38002H20.2099L14.7499 3.85002L14.7699 6.81002ZM21.2999 16.28V10.9H17.2999C16.2291 10.8816 15.2088 10.442 14.46 9.67636C13.7113 8.91075 13.2944 7.88089 13.2999 6.81002V2.81002H7.58985C6.29458 2.82057 5.05596 3.34253 4.14379 4.26219C3.23162 5.18186 2.71981 6.42471 2.71985 7.72002V16.28C2.71458 16.9248 2.83636 17.5643 3.07825 18.1621C3.32014 18.7598 3.6774 19.304 4.12963 19.7637C4.58185 20.2233 5.12019 20.5894 5.7139 20.841C6.3076 21.0926 6.94506 21.2248 7.58985 21.23H16.4099C17.0546 21.2248 17.6921 21.0926 18.2858 20.841C18.8795 20.5894 19.4179 20.2233 19.8701 19.7637C20.3223 19.304 20.6796 18.7598 20.9215 18.1621C21.1633 17.5643 21.2851 16.9248 21.2799 16.28H21.2999Z" fill="black"/>
</svg>
