<svg width="24" height="24" viewBox="0 0 24 24" fill="none" xmlns="http://www.w3.org/2000/svg">
<path d="M22.8601 10.49C22.8657 10.4435 22.8657 10.3965 22.8601 10.35C22.893 10.2254 22.8928 10.0943 22.8595 9.96975C22.8261 9.84522 22.7608 9.73155 22.6701 9.64001L14.6701 1.64001C14.6069 1.58115 14.5363 1.53073 14.4601 1.49001H14.3801C14.3172 1.47957 14.253 1.47957 14.1901 1.49001H7.70008C6.0235 1.49251 4.41528 2.15485 3.22323 3.33381C2.03118 4.51276 1.3511 6.11356 1.33008 7.79001V16.21C1.33272 17.8986 2.0047 19.5173 3.19873 20.7114C4.39276 21.9054 6.01146 22.5774 7.70008 22.58H16.5201C18.2087 22.5774 19.8274 21.9054 21.0214 20.7114C22.2155 19.5173 22.8874 17.8986 22.8901 16.21L22.8601 10.49ZM14.8601 4.00001L20.3001 9.42001H17.3901C16.7199 9.41738 16.0779 9.14998 15.604 8.67608C15.1301 8.20218 14.8627 7.5602 14.8601 6.89001V4.00001ZM16.5201 21.1H7.70008C6.40929 21.0974 5.17212 20.5834 4.25939 19.6707C3.34666 18.758 2.83272 17.5208 2.83008 16.23V7.79001C2.83272 6.49922 3.34666 5.26205 4.25939 4.34932C5.17212 3.43659 6.40929 2.92265 7.70008 2.92001H13.3601V6.92001C13.3601 7.98088 13.7815 8.99829 14.5317 9.74844C15.2818 10.4986 16.2992 10.92 17.3601 10.92H21.3601V16.21C21.3601 17.4964 20.8511 18.7306 19.9443 19.6431C19.0375 20.5555 17.8065 21.0721 16.5201 21.08V21.1Z" fill="black"/>
</svg>
