<svg width="24" height="24" viewBox="0 0 24 24" fill="none" xmlns="http://www.w3.org/2000/svg">
<path d="M4.00023 21.17C3.88775 21.1696 3.77688 21.1432 3.67627 21.0929C3.57566 21.0426 3.48803 20.9698 3.42023 20.88L1.73023 18.71C1.61003 18.5492 1.55647 18.3482 1.58068 18.1489C1.6049 17.9496 1.70503 17.7673 1.86023 17.64C2.01164 17.5289 2.20005 17.4804 2.38629 17.5046C2.57253 17.5288 2.74228 17.6239 2.86023 17.77L4.00023 19.17L5.70023 16.94C5.8167 16.7917 5.98669 16.695 6.17368 16.6707C6.36066 16.6464 6.54973 16.6964 6.70023 16.81C6.85544 16.9373 6.95557 17.1196 6.97979 17.3189C7.004 17.5182 6.95043 17.7192 6.83023 17.88L4.55023 20.88C4.48244 20.9698 4.39481 21.0426 4.2942 21.0929C4.19359 21.1432 4.08272 21.1696 3.97023 21.17H4.00023ZM22.8002 16.28C22.8243 17.9687 22.1778 19.5981 21.0025 20.8109C19.8271 22.0237 18.2189 22.7211 16.5302 22.75H10.0002C9.79867 22.75 9.60536 22.6699 9.46283 22.5274C9.32031 22.3849 9.24023 22.1916 9.24023 21.99C9.24023 21.7884 9.32031 21.5951 9.46283 21.4526C9.60536 21.3101 9.79867 21.23 10.0002 21.23H16.4402C17.731 21.2063 18.9599 20.6721 19.8576 19.7444C20.7554 18.8166 21.249 17.5709 21.2302 16.28V10.9H17.3402C16.8073 10.9001 16.2797 10.7938 15.7884 10.5871C15.2972 10.3805 14.8521 10.0778 14.4795 9.69679C14.1069 9.31577 13.8141 8.86413 13.6185 8.36839C13.4228 7.87265 13.3282 7.34281 13.3402 6.81V2.81H7.80023C6.47003 2.87356 5.21157 3.43187 4.27175 4.37539C3.33193 5.31891 2.77857 6.57955 2.72023 7.91V12.81C2.72023 13.0063 2.64227 13.1945 2.50349 13.3333C2.36472 13.472 2.17649 13.55 1.98023 13.55C1.78397 13.55 1.59575 13.472 1.45698 13.3333C1.3182 13.1945 1.24023 13.0063 1.24023 12.81V7.81C1.58023 4.05 4.39023 1.25 7.80023 1.25H14.1602H14.3502C14.3502 1.25 14.4002 1.25 14.4202 1.25C14.4994 1.28125 14.571 1.32897 14.6302 1.39L22.5102 9.6C22.5977 9.69562 22.6599 9.81151 22.6914 9.93722C22.7228 10.0629 22.7224 10.1945 22.6902 10.32C22.6959 10.3698 22.6959 10.4202 22.6902 10.47L22.8002 16.28ZM20.2002 9.38L14.8502 3.85V6.85C14.8422 7.52025 15.0994 8.16651 15.5658 8.64792C16.0323 9.12933 16.6701 9.40685 17.3402 9.42L20.2002 9.38Z" fill="black"/>
</svg>
