<svg width="24" height="24" viewBox="0 0 24 24" fill="none" xmlns="http://www.w3.org/2000/svg">
<path d="M18.7101 9.79L19.8201 8.79C20.1315 8.51155 20.3812 8.17114 20.5534 7.79058C20.7256 7.41002 20.8165 6.99769 20.8201 6.58V4.19C20.8201 3.39435 20.504 2.63129 19.9414 2.06868C19.3788 1.50607 18.6157 1.19 17.8201 1.19H5.1001C4.30445 1.19 3.54139 1.50607 2.97878 2.06868C2.41617 2.63129 2.1001 3.39435 2.1001 4.19V6.68C2.11659 7.46434 2.43967 8.21102 3.0001 8.76L6.7601 12.57C7.04672 12.8579 7.27375 13.1996 7.42818 13.5754C7.58261 13.9512 7.66142 14.3537 7.6601 14.76V20C7.65672 20.5116 7.79509 21.0141 8.05986 21.4518C8.32462 21.8896 8.70544 22.2455 9.1601 22.48C9.55933 22.6845 10.0016 22.7907 10.4501 22.79C11.0268 22.7917 11.5896 22.6134 12.0601 22.28L13.4201 21.28C13.9 20.9334 14.2517 20.4376 14.4201 19.87C15.7524 20.4023 17.2402 20.3919 18.565 19.841C19.8898 19.2901 20.9463 18.2425 21.5083 16.9224C22.0703 15.6023 22.0932 14.1146 21.5721 12.7779C21.051 11.4411 20.0273 10.3614 18.7201 9.77L18.7101 9.79ZM12.5501 20.07L11.1901 21.07C10.9983 21.2005 10.7746 21.2764 10.543 21.2896C10.3114 21.3029 10.0805 21.2529 9.87508 21.145C9.66967 21.0372 9.49743 20.8755 9.37678 20.6774C9.25612 20.4792 9.1916 20.252 9.1901 20.02V14.76C9.19352 13.5464 8.71517 12.3811 7.8601 11.52L4.0601 7.71C3.79775 7.44239 3.64751 7.08469 3.6401 6.71V4.19C3.6401 3.80279 3.79392 3.43143 4.06772 3.15763C4.34153 2.88382 4.71288 2.73 5.1001 2.73H17.8401C18.0327 2.72868 18.2236 2.76547 18.4019 2.83825C18.5802 2.91104 18.7423 3.01837 18.8789 3.15407C19.0156 3.28978 19.124 3.45117 19.198 3.62897C19.272 3.80676 19.3101 3.99743 19.3101 4.19V6.6C19.3087 6.80577 19.2644 7.00898 19.18 7.19666C19.0956 7.38434 18.9731 7.55236 18.8201 7.69L17.0001 9.3C16.7837 9.28478 16.5665 9.28478 16.3501 9.3C15.2062 9.30254 14.0917 9.66233 13.1622 10.3291C12.2327 10.9959 11.5348 11.9363 11.1658 13.019C10.7968 14.1018 10.7752 15.2728 11.1041 16.3683C11.4329 17.4639 12.0958 18.4295 13.0001 19.13C13.0044 19.311 12.9659 19.4906 12.8877 19.6539C12.8095 19.8172 12.6938 19.9598 12.5501 20.07ZM16.3601 18.76C15.569 18.76 14.7956 18.5254 14.1378 18.0859C13.48 17.6464 12.9673 17.0216 12.6646 16.2907C12.3618 15.5598 12.2826 14.7556 12.437 13.9796C12.5913 13.2037 12.9723 12.491 13.5317 11.9316C14.0911 11.3722 14.8038 10.9912 15.5797 10.8369C16.3557 10.6825 17.1599 10.7617 17.8908 11.0645C18.6217 11.3672 19.2465 11.8799 19.686 12.5377C20.1255 13.1955 20.3601 13.9689 20.3601 14.76C20.3601 15.8209 19.9387 16.8383 19.1885 17.5884C18.4384 18.3386 17.421 18.76 16.3601 18.76ZM15.9201 16.67C15.7354 16.6722 15.5567 16.6043 15.4201 16.48L14.1601 15.35C14.0865 15.2844 14.0265 15.2049 13.9836 15.1161C13.9408 15.0273 13.9158 14.9309 13.9103 14.8324C13.9047 14.734 13.9186 14.6354 13.9512 14.5423C13.9837 14.4492 14.0343 14.3635 14.1001 14.29C14.234 14.1436 14.4198 14.0554 14.6179 14.0442C14.8159 14.033 15.0105 14.0997 15.1601 14.23L15.9201 14.91L18.0001 13C18.0709 12.9237 18.1569 12.8629 18.2525 12.8217C18.3481 12.7804 18.4512 12.7595 18.5554 12.7602C18.6595 12.761 18.7623 12.7835 18.8573 12.8262C18.9523 12.8689 19.0373 12.9309 19.107 13.0082C19.1767 13.0856 19.2295 13.1766 19.2621 13.2755C19.2947 13.3744 19.3063 13.479 19.2963 13.5827C19.2862 13.6863 19.2547 13.7867 19.2037 13.8775C19.1527 13.9683 19.0834 14.0475 19.0001 14.11L16.4201 16.45C16.2882 16.5853 16.109 16.6641 15.9201 16.67Z" fill="black"/>
</svg>
