<svg width="24" height="24" viewBox="0 0 24 24" fill="none" xmlns="http://www.w3.org/2000/svg">
<path d="M16.4899 22.75H8.70993C7.02223 22.7342 5.4098 22.0492 4.22671 20.8455C3.04363 19.6418 2.38661 18.0177 2.39993 16.33V13.9C2.39992 13.7055 2.4765 13.5187 2.61313 13.3802C2.74975 13.2418 2.93541 13.1626 3.12993 13.16C3.2258 13.1613 3.32047 13.1815 3.40854 13.2194C3.49661 13.2573 3.57635 13.3121 3.64321 13.3809C3.71007 13.4496 3.76274 13.5308 3.79821 13.6199C3.83368 13.7089 3.85126 13.8041 3.84993 13.9V16.33C3.83802 16.9781 3.95457 17.6222 4.19285 18.2251C4.43114 18.8279 4.78644 19.3777 5.23827 19.8425C5.69009 20.3073 6.2295 20.6781 6.82535 20.9334C7.42121 21.1887 8.06172 21.3235 8.70993 21.33H16.4899C17.1377 21.3235 17.7777 21.1887 18.373 20.9332C18.9684 20.6778 19.5071 20.3069 19.9581 19.8419C20.4092 19.3769 20.7635 18.8271 21.0007 18.2243C21.2379 17.6215 21.3532 16.9777 21.3399 16.33V8.8C21.3506 7.50214 20.8459 6.25307 19.9366 5.32692C19.0273 4.40077 17.7878 3.8732 16.4899 3.86H14.7999C14.6198 3.83895 14.4536 3.75246 14.333 3.61696C14.2124 3.48146 14.1458 3.30639 14.1458 3.125C14.1458 2.94361 14.2124 2.76854 14.333 2.63304C14.4536 2.49754 14.6198 2.41105 14.7999 2.39H16.4899C18.175 2.40584 19.7849 3.08978 20.9661 4.29161C22.1473 5.49344 22.8033 7.11493 22.7899 8.8V16.33C22.8033 18.016 22.1476 19.6385 20.9667 20.842C19.7858 22.0454 18.1759 22.7315 16.4899 22.75ZM6.15993 12.31L7.15993 11.97C7.45418 11.8707 7.70944 11.6808 7.88909 11.4275C8.06874 11.1742 8.16355 10.8705 8.15993 10.56V8.34C8.1582 8.30288 8.16445 8.26583 8.17825 8.23133C8.19205 8.19683 8.21308 8.16568 8.23993 8.14L10.5299 6.09C10.7853 5.85906 10.9887 5.57648 11.1266 5.26099C11.2646 4.9455 11.3338 4.6043 11.3299 4.26V3.55C11.3543 2.9654 11.1459 2.39499 10.7504 1.96383C10.3548 1.53267 9.80446 1.27597 9.21993 1.25H3.31993C2.7354 1.27597 2.18503 1.53267 1.78949 1.96383C1.39395 2.39499 1.18553 2.9654 1.20993 3.55V4.26C1.20664 4.60327 1.27523 4.94343 1.41128 5.2586C1.54734 5.57377 1.74786 5.85697 1.99993 6.09L4.29993 8.14C4.32678 8.16568 4.34782 8.19683 4.36162 8.23133C4.37542 8.26583 4.38166 8.30288 4.37993 8.34V10.9C4.38068 11.1363 4.43723 11.369 4.54497 11.5793C4.65271 11.7895 4.8086 11.9714 4.99993 12.11C5.22658 12.2757 5.49922 12.3665 5.77993 12.37C5.90876 12.3676 6.03663 12.3474 6.15993 12.31ZM9.22993 2.72C9.42534 2.74743 9.60276 2.84883 9.72558 3.00328C9.84839 3.15773 9.90723 3.35343 9.88993 3.55V4.26C9.89072 4.39399 9.86456 4.52677 9.81303 4.65046C9.76149 4.77414 9.68563 4.88621 9.58993 4.98L7.28993 7C7.10813 7.16598 6.96339 7.36845 6.86517 7.59419C6.76695 7.81992 6.71746 8.06384 6.71993 8.31V10.53L5.79993 10.84V8.34C5.81055 8.09017 5.76688 7.841 5.67193 7.60967C5.57698 7.37833 5.43301 7.17034 5.24993 7L2.99993 5C2.90424 4.90621 2.82837 4.79414 2.77684 4.67046C2.7253 4.54677 2.69915 4.41399 2.69993 4.28V3.55C2.6801 3.35293 2.73798 3.1559 2.86126 3.00087C2.98453 2.84584 3.16346 2.74507 3.35993 2.72H9.22993ZM17.7299 12.24C17.7299 12.0455 17.6534 11.8587 17.5167 11.7202C17.3801 11.5818 17.1945 11.5026 16.9999 11.5H12.5999C12.4037 11.5 12.2155 11.578 12.0767 11.7167C11.9379 11.8555 11.8599 12.0437 11.8599 12.24C11.8599 12.4363 11.9379 12.6245 12.0767 12.7633C12.2155 12.902 12.4037 12.98 12.5999 12.98H16.9999C17.1945 12.9774 17.3801 12.8982 17.5167 12.7598C17.6534 12.6213 17.7299 12.4345 17.7299 12.24ZM18.0299 16.41C18.03 16.2181 17.9544 16.0339 17.8197 15.8973C17.6849 15.7607 17.5018 15.6826 17.3099 15.68H9.04993C8.86977 15.7011 8.70361 15.7875 8.58302 15.923C8.46243 16.0585 8.39581 16.2336 8.39581 16.415C8.39581 16.5964 8.46243 16.7715 8.58302 16.907C8.70361 17.0425 8.86977 17.1289 9.04993 17.15H17.3099C17.4983 17.1397 17.6753 17.0569 17.8039 16.9189C17.9326 16.781 18.0028 16.5986 17.9999 16.41H18.0299Z" fill="black"/>
</svg>
