<svg width="24" height="24" viewBox="0 0 24 24" fill="none" xmlns="http://www.w3.org/2000/svg">
<path d="M18.3699 1.23H5.62988C4.83423 1.23 4.07117 1.54607 3.50856 2.10868C2.94595 2.67128 2.62988 3.43435 2.62988 4.23V6.68C2.63574 7.45867 2.94413 8.20455 3.48988 8.76L7.24988 12.57C7.82357 13.1501 8.14366 13.9341 8.13988 14.75V20C8.13859 20.5124 8.27892 21.0152 8.54539 21.4528C8.81185 21.8904 9.19409 22.2459 9.64988 22.48C10.1056 22.7142 10.6166 22.8194 11.1278 22.7841C11.6389 22.7489 12.1307 22.5745 12.5499 22.28L13.9099 21.28C14.2589 21.0336 14.5437 20.7069 14.7404 20.3276C14.937 19.9483 15.0397 19.5273 15.0399 19.1V14.9C15.0356 14.4649 15.1223 14.0338 15.2946 13.6343C15.4668 13.2347 15.7207 12.8756 16.0399 12.58L20.2699 8.81C20.5825 8.53041 20.833 8.18839 21.0052 7.80601C21.1775 7.42362 21.2676 7.00938 21.2699 6.59V4.19C21.26 3.41831 20.9531 2.68011 20.4131 2.12885C19.873 1.57758 19.1412 1.25566 18.3699 1.23ZM4.15988 6.68V4.19C4.15988 3.99742 4.19797 3.80675 4.27197 3.62896C4.34596 3.45117 4.4544 3.28977 4.59104 3.15407C4.72767 3.01836 4.8898 2.91103 5.06809 2.83825C5.24638 2.76547 5.43731 2.72868 5.62988 2.73H10.4199L6.18988 9.33L4.58988 7.71C4.45327 7.57557 4.34487 7.41522 4.27103 7.23835C4.19719 7.06148 4.1594 6.87166 4.15988 6.68ZM19.8299 6.59C19.8311 6.7967 19.7891 7.00138 19.7064 7.19083C19.6237 7.38029 19.5023 7.55033 19.3499 7.69L15.1099 11.46C14.6253 11.8925 14.2377 12.4226 13.9723 13.0154C13.7069 13.6083 13.5698 14.2505 13.5699 14.9V19.12C13.5695 19.3059 13.5249 19.489 13.4397 19.6542C13.3545 19.8194 13.2312 19.962 13.0799 20.07L11.7099 21.07C11.5173 21.197 11.2942 21.2701 11.0638 21.2815C10.8335 21.293 10.6042 21.2425 10.4 21.1353C10.1957 21.0281 10.024 20.8681 9.90261 20.6719C9.78124 20.4757 9.71468 20.2506 9.70988 20.02V14.75C9.71116 13.5418 9.23701 12.3815 8.38988 11.52L7.26988 10.43L12.2099 2.73H18.3699C18.5616 2.73 18.7515 2.76776 18.9286 2.84113C19.1057 2.9145 19.2667 3.02205 19.4023 3.15762C19.5378 3.29319 19.6454 3.45414 19.7187 3.63128C19.7921 3.80841 19.8299 3.99827 19.8299 4.19V6.59Z" fill="black"/>
</svg>
