<svg width="24" height="24" viewBox="0 0 24 24" fill="none" xmlns="http://www.w3.org/2000/svg">
<path d="M11.3999 18.59C11.0895 18.5921 10.7836 18.5164 10.5099 18.37C10.2035 18.2003 9.94871 17.9508 9.77264 17.648C9.59658 17.3451 9.50579 17.0003 9.50992 16.65V13.65C9.4922 13.2756 9.33944 12.9204 9.07992 12.65L6.83992 10.33C6.65156 10.1428 6.50237 9.91987 6.40107 9.67435C6.29977 9.42883 6.24839 9.16559 6.24992 8.9V7.45C6.24992 6.91957 6.46064 6.41086 6.83571 6.03579C7.21078 5.66071 7.71949 5.45 8.24992 5.45H15.6699C15.9326 5.45 16.1926 5.50173 16.4353 5.60224C16.6779 5.70275 16.8984 5.85007 17.0841 6.03579C17.2699 6.2215 17.4172 6.44198 17.5177 6.68463C17.6182 6.92728 17.6699 7.18736 17.6699 7.45V8.85C17.6724 9.13734 17.613 9.42184 17.4956 9.68413C17.3783 9.94643 17.2058 10.1804 16.9899 10.37L14.5199 12.57C14.3624 12.7109 14.2364 12.8835 14.1502 13.0766C14.064 13.2696 14.0196 13.4786 14.0199 13.69V16.14C14.0213 16.4398 13.9502 16.7355 13.8126 17.0019C13.6751 17.2683 13.4752 17.4975 13.2299 17.67L12.4399 18.23C12.1353 18.4479 11.7741 18.5729 11.3999 18.59ZM8.28992 6.91C8.14671 6.91 8.00936 6.96689 7.90809 7.06816C7.80682 7.16943 7.74992 7.30678 7.74992 7.45V8.9C7.74823 9.04142 7.80209 9.17786 7.89992 9.28L10.0899 11.5C10.6588 12.0522 10.986 12.8073 10.9999 13.6V16.6C10.9979 16.6813 11.0195 16.7614 11.0621 16.8306C11.1047 16.8998 11.1665 16.9552 11.2399 16.99C11.3087 17.0285 11.3861 17.0488 11.4649 17.0488C11.5437 17.0488 11.6212 17.0285 11.6899 16.99L12.4899 16.42C12.5368 16.3853 12.5748 16.3401 12.6009 16.288C12.6269 16.2358 12.6403 16.1783 12.6399 16.12V13.69C12.6394 13.2672 12.7282 12.8491 12.9005 12.4631C13.0728 12.0771 13.3248 11.7318 13.6399 11.45L16.1099 9.25C16.1662 9.19963 16.2114 9.138 16.2424 9.0691C16.2734 9.0002 16.2896 8.92556 16.2899 8.85V7.45C16.2899 7.30678 16.233 7.16943 16.1318 7.06816C16.0305 6.96689 15.8931 6.91 15.7499 6.91H8.28992ZM16.0499 22.75H7.99992C6.22379 22.7474 4.52115 22.0406 3.26523 20.7847C2.00931 19.5288 1.30257 17.8261 1.29992 16.05V8C1.29466 7.11631 1.46399 6.24028 1.79822 5.42222C2.13244 4.60416 2.62497 3.86017 3.24751 3.23298C3.87006 2.60578 4.61036 2.10774 5.42592 1.76745C6.24148 1.42715 7.11622 1.2513 7.99992 1.25H16.0999C17.8761 1.26585 19.5734 1.98528 20.82 3.25059C22.0666 4.51589 22.7606 6.22383 22.7499 8V16.1C22.7341 17.8675 22.0216 19.5573 20.7671 20.8024C19.5126 22.0476 17.8174 22.7474 16.0499 22.75ZM7.99992 2.75C7.309 2.74467 6.62392 2.87683 5.98455 3.13879C5.34519 3.40074 4.76431 3.78725 4.27574 4.27582C3.78717 4.76439 3.40066 5.34526 3.13871 5.98463C2.87676 6.62399 2.7446 7.30908 2.74992 8V16.1C2.76576 17.4783 3.32714 18.7942 4.31115 19.7594C5.29515 20.7247 6.62157 21.2607 7.99992 21.25H16.0999C17.479 21.25 18.8017 20.7021 19.7769 19.727C20.7521 18.7518 21.2999 17.4291 21.2999 16.05V8C21.2999 6.62087 20.7521 5.29823 19.7769 4.32304C18.8017 3.34786 17.479 2.8 16.0999 2.8L7.99992 2.75Z" fill="black"/>
</svg>
