<svg width="24" height="24" viewBox="0 0 24 24" fill="none" xmlns="http://www.w3.org/2000/svg">
<path d="M11.0002 22.77C10.5516 22.7707 10.1094 22.6645 9.71016 22.46C9.25178 22.2316 8.8654 21.881 8.59365 21.4469C8.32191 21.0128 8.17535 20.5121 8.17016 20V14.75C8.17393 13.9341 7.85385 13.1501 7.28016 12.57L3.52016 8.76C2.97441 8.20456 2.66601 7.45867 2.66016 6.68V4.19C2.66016 3.39435 2.97623 2.63129 3.53884 2.06868C4.10144 1.50607 4.86451 1.19 5.66016 1.19H18.3702C19.1658 1.19 19.9289 1.50607 20.4915 2.06868C21.0541 2.63129 21.3702 3.39435 21.3702 4.19V6.59C21.3679 7.00938 21.2777 7.42363 21.1055 7.80601C20.9333 8.1884 20.6828 8.53042 20.3702 8.81L19.3702 9.73C19.2206 9.86032 19.026 9.92699 18.8279 9.91578C18.6299 9.90457 18.4441 9.81637 18.3102 9.67C18.2444 9.59651 18.1938 9.51076 18.1612 9.41768C18.1286 9.3246 18.1147 9.22602 18.1203 9.12756C18.1259 9.0291 18.1508 8.93271 18.1937 8.8439C18.2366 8.75509 18.2965 8.67561 18.3702 8.61L19.3702 7.69C19.5225 7.55034 19.644 7.3803 19.7267 7.19084C19.8093 7.00138 19.8514 6.79671 19.8502 6.59V4.19C19.8502 3.99827 19.8124 3.80842 19.739 3.63128C19.6656 3.45415 19.5581 3.2932 19.4225 3.15763C19.287 3.02205 19.126 2.91451 18.9489 2.84114C18.7717 2.76777 18.5819 2.73 18.3902 2.73H5.63016C5.43759 2.72868 5.24666 2.76547 5.06837 2.83825C4.89008 2.91104 4.72794 3.01837 4.59131 3.15407C4.45468 3.28978 4.34624 3.45117 4.27224 3.62897C4.19824 3.80676 4.16015 3.99743 4.16016 4.19V6.68C4.16713 7.05676 4.3215 7.41577 4.59016 7.68L8.35016 11.49C9.19728 12.3515 9.67143 13.5118 9.67016 14.72V20C9.67496 20.2306 9.74151 20.4557 9.86288 20.6519C9.98425 20.8481 10.156 21.0081 10.3602 21.1153C10.5645 21.2225 10.7937 21.273 11.0241 21.2616C11.2545 21.2501 11.4776 21.177 11.6702 21.05L13.0402 20.05C13.1983 19.9467 13.39 19.9078 13.5759 19.9412C13.7619 19.9747 13.9279 20.078 14.0402 20.23C14.0977 20.3106 14.1387 20.4018 14.1608 20.4984C14.1829 20.5949 14.1857 20.6949 14.169 20.7925C14.1522 20.8901 14.1163 20.9835 14.0633 21.0671C14.0103 21.1508 13.9413 21.2232 13.8602 21.28L12.5002 22.28C12.0577 22.5843 11.5369 22.7544 11.0002 22.77ZM19.8002 19.4C19.6595 19.5405 19.4689 19.6193 19.2702 19.6193C19.0714 19.6193 18.8808 19.5405 18.7402 19.4L17.8202 18.48V18.42C16.9517 19.0377 15.8828 19.3066 14.8254 19.1733C13.768 19.0401 12.7993 18.5144 12.1112 17.7005C11.4232 16.8866 11.066 15.844 11.1105 14.7791C11.1551 13.7143 11.598 12.7051 12.3516 11.9515C13.1052 11.1979 14.1145 10.7549 15.1793 10.7104C16.2441 10.6659 17.2868 11.023 18.1007 11.7111C18.9146 12.3992 19.4402 13.3679 19.5735 14.4253C19.7067 15.4827 19.4379 16.5515 18.8202 17.42H18.8802L19.8002 18.34C19.9406 18.4806 20.0195 18.6713 20.0195 18.87C20.0195 19.0688 19.9406 19.2594 19.8002 19.4ZM18.0902 15C18.0921 14.4572 17.9329 13.9261 17.6326 13.474C17.3322 13.0219 16.9044 12.6691 16.4033 12.4605C15.9023 12.2519 15.3505 12.1968 14.8181 12.3022C14.2856 12.4076 13.7965 12.6688 13.4127 13.0525C13.0289 13.4363 12.7677 13.9255 12.6623 14.4579C12.5569 14.9904 12.612 15.5421 12.8207 16.0432C13.0293 16.5443 13.382 16.9721 13.8341 17.2724C14.2863 17.5727 14.8174 17.732 15.3602 17.73C16.0834 17.7274 16.7762 17.4389 17.2876 16.9275C17.7991 16.4161 18.0875 15.7232 18.0902 15Z" fill="black"/>
</svg>
