<svg width="24" height="24" viewBox="0 0 24 24" fill="none" xmlns="http://www.w3.org/2000/svg">
<path d="M20.7701 4.19V6.59C20.7678 7.00938 20.6777 7.42363 20.5054 7.80601C20.3332 8.1884 20.0827 8.53042 19.7701 8.81L18.6201 9.81C18.4716 9.94261 18.2765 10.0108 18.0777 9.99953C17.8789 9.98828 17.6927 9.89852 17.5601 9.75C17.4275 9.60148 17.3593 9.40637 17.3706 9.20758C17.3818 9.00879 17.4716 8.82261 17.6201 8.69L18.7601 7.69C18.9143 7.55123 19.0376 7.38159 19.122 7.19209C19.2064 7.00259 19.2501 6.79746 19.2501 6.59V4.19C19.2501 3.80279 19.0963 3.43143 18.8225 3.15763C18.5487 2.88382 18.1773 2.73 17.7901 2.73H5.0601C4.67288 2.73 4.30153 2.88382 4.02772 3.15763C3.75392 3.43143 3.6001 3.80279 3.6001 4.19V6.68C3.60751 7.05469 3.75775 7.41239 4.0201 7.68L7.7801 11.49C8.63365 12.3481 9.11197 13.5097 9.1101 14.72V20C9.1149 20.2306 9.18145 20.4557 9.30282 20.6519C9.4242 20.8481 9.59595 21.0081 9.80018 21.1153C10.0044 21.2225 10.2337 21.273 10.4641 21.2616C10.6944 21.2501 10.9175 21.177 11.1101 21.05L12.4701 20.05C12.5509 19.9929 12.6421 19.9522 12.7386 19.9303C12.835 19.9085 12.9349 19.9058 13.0324 19.9225C13.1299 19.9393 13.2231 19.975 13.3068 20.0278C13.3905 20.0805 13.463 20.1492 13.5201 20.23C13.5772 20.3108 13.6179 20.402 13.6398 20.4985C13.6616 20.5949 13.6643 20.6948 13.6476 20.7923C13.6308 20.8898 13.5951 20.983 13.5423 21.0667C13.4896 21.1504 13.4209 21.2229 13.3401 21.28L11.9701 22.28C11.5526 22.5642 11.0658 22.7298 10.5616 22.7591C10.0574 22.7883 9.55465 22.6802 9.10709 22.4461C8.65953 22.2121 8.28389 21.8609 8.02025 21.4301C7.75661 20.9993 7.61485 20.505 7.6101 20V14.75C7.61012 13.9329 7.28652 13.1491 6.7101 12.57L3.0001 8.76C2.43967 8.21102 2.11659 7.46434 2.1001 6.68V4.19C2.1001 3.39435 2.41617 2.63129 2.97878 2.06868C3.54139 1.50607 4.30445 1.19 5.1001 1.19H17.8101C18.5988 1.20052 19.3516 1.52123 19.9056 2.0827C20.4596 2.64417 20.7702 3.40124 20.7701 4.19ZM19.6301 14.59L18.8601 15.37L16.2701 18C16.0728 18.1988 15.8231 18.3375 15.5501 18.4L14.4901 18.62C14.3903 18.6298 14.2899 18.6298 14.1901 18.62C13.8152 18.6136 13.4571 18.4632 13.1901 18.2C13.0189 18.0325 12.8918 17.8252 12.8203 17.5966C12.7487 17.368 12.7349 17.1252 12.7801 16.89L12.9801 15.83C13.0283 15.5533 13.1611 15.2983 13.3601 15.1L16.7101 11.67C16.8552 11.5233 17.0281 11.4071 17.2187 11.3281C17.4093 11.2491 17.6138 11.2089 17.8201 11.21C18.2356 11.2144 18.6333 11.3792 18.9301 11.67L19.5801 12.31C19.7358 12.4548 19.8609 12.6294 19.9479 12.8234C20.035 13.0174 20.0822 13.2269 20.0869 13.4394C20.0915 13.652 20.0535 13.8634 19.9751 14.061C19.8966 14.2586 19.7793 14.4385 19.6301 14.59ZM17.7601 12.76L17.1801 13.36C17.2425 13.5452 17.355 13.7095 17.505 13.8348C17.655 13.9601 17.8367 14.0415 18.0301 14.07L18.5501 13.54C18.5501 13.54 18.5501 13.46 18.5501 13.42L17.9001 12.78C17.8737 12.7743 17.8465 12.7743 17.8201 12.78L17.7601 12.76ZM16.8901 15.24C16.5682 15.0477 16.2946 14.7843 16.0901 14.47L14.4101 16.19L14.2301 17.19L15.2301 16.93L16.8901 15.24Z" fill="black"/>
</svg>
