<svg width="24" height="25" viewBox="0 0 24 25" fill="none" xmlns="http://www.w3.org/2000/svg">
<path d="M15.9998 1.75003H7.99977C7.11728 1.7474 6.24292 1.91861 5.42661 2.2539C4.61029 2.58918 3.86801 3.08197 3.24214 3.70412C2.61627 4.32627 2.11908 5.06561 1.77894 5.87992C1.4388 6.69422 1.26239 7.56755 1.25977 8.45003V16.53C1.25976 17.4142 1.43424 18.2897 1.7732 19.1063C2.11216 19.9229 2.60894 20.6646 3.23507 21.2889C3.8612 21.9131 4.60437 22.4077 5.42199 22.7443C6.23961 23.0808 7.1156 23.2527 7.99977 23.25H16.1198C17.8977 23.2448 19.6014 22.5361 20.8586 21.2789C22.1159 20.0217 22.8245 18.318 22.8298 16.54V8.46003C22.8285 7.57755 22.6533 6.70396 22.3144 5.88916C21.9755 5.07435 21.4794 4.33428 20.8545 3.7112C20.2295 3.08812 19.488 2.59423 18.6722 2.25773C17.8563 1.92123 16.9822 1.74872 16.0998 1.75003H15.9998ZM21.2098 16.54C21.2098 17.9218 20.6609 19.247 19.6838 20.2241C18.7067 21.2011 17.3815 21.75 15.9998 21.75H7.99977C6.61799 21.75 5.2928 21.2011 4.31574 20.2241C3.33867 19.247 2.78977 17.9218 2.78977 16.54V8.46003C2.79241 7.07906 3.34217 5.75541 4.31866 4.77892C5.29515 3.80243 6.6188 3.25267 7.99977 3.25003H16.1098C17.4907 3.25267 18.8144 3.80243 19.7909 4.77892C20.7674 5.75541 21.3171 7.07906 21.3198 8.46003L21.2098 16.54ZM16.4398 10.54H14.6298V7.91003C14.6219 7.40073 14.414 6.91495 14.0511 6.5576C13.6881 6.20024 13.1991 5.99997 12.6898 6.00003H11.2998C10.7904 5.99997 10.3014 6.20024 9.93848 6.5576C9.57551 6.91495 9.36764 7.40073 9.35977 7.91003V12.22H7.48977C6.97525 12.22 6.4818 12.4244 6.11798 12.7882C5.75416 13.1521 5.54977 13.6455 5.54977 14.16V17.52C5.55236 17.7181 5.63221 17.9074 5.7723 18.0475C5.91239 18.1876 6.10166 18.2674 6.29977 18.27H17.6698C17.8671 18.265 18.0549 18.1843 18.1945 18.0448C18.3341 17.9052 18.4147 17.7173 18.4198 17.52V12.46C18.4198 12.2062 18.3695 11.9549 18.2717 11.7206C18.174 11.4864 18.0308 11.2738 17.8504 11.0953C17.6699 10.9167 17.4559 10.7757 17.2207 10.6804C16.9854 10.5851 16.7336 10.5374 16.4798 10.54H16.4398ZM7.04977 14.16C7.04977 14.0433 7.09612 13.9314 7.17864 13.8489C7.26116 13.7664 7.37307 13.72 7.48977 13.72H9.35977V16.72H7.04977V14.16ZM10.8598 13V7.91003C10.8598 7.85225 10.8711 7.79503 10.8933 7.74165C10.9154 7.68827 10.9478 7.63976 10.9886 7.5989C11.0295 7.55805 11.078 7.52563 11.1314 7.50352C11.1848 7.48141 11.242 7.47003 11.2998 7.47003H12.6898C12.7475 7.47003 12.8048 7.48141 12.8581 7.50352C12.9115 7.52563 12.96 7.55805 13.0009 7.5989C13.0417 7.63976 13.0742 7.68827 13.0963 7.74165C13.1184 7.79503 13.1298 7.85225 13.1298 7.91003V16.77H10.8598V13ZM16.9998 16.77H14.6298V12H16.4798C16.5965 12 16.7084 12.0464 16.7909 12.1289C16.8734 12.2114 16.9198 12.3233 16.9198 12.44L16.9998 16.77Z" fill="black"/>
</svg>
