<svg width="24" height="24" viewBox="0 0 24 24" fill="none" xmlns="http://www.w3.org/2000/svg">
<path d="M12.19 20.71C12.0055 20.7138 11.8253 20.6538 11.68 20.54C11.5885 20.4737 11.5111 20.3898 11.4524 20.2933C11.3937 20.1968 11.3549 20.0895 11.3381 19.9778C11.3214 19.866 11.327 19.7521 11.3548 19.6426C11.3826 19.5331 11.432 19.4302 11.5 19.34C12.2644 18.3107 12.8121 17.137 13.11 15.89C13.1307 15.7748 13.1748 15.6651 13.2395 15.5675C13.3041 15.4699 13.388 15.3866 13.486 15.3226C13.584 15.2586 13.694 15.2153 13.8093 15.1952C13.9246 15.1752 14.0428 15.179 14.1567 15.2062C14.2705 15.2335 14.3775 15.2837 14.4713 15.3538C14.565 15.4239 14.6435 15.5124 14.7018 15.6138C14.7602 15.7153 14.7972 15.8276 14.8106 15.9438C14.8241 16.0601 14.8136 16.1779 14.78 16.29C14.4311 17.7652 13.7846 19.1536 12.88 20.37C12.7982 20.4752 12.6936 20.5605 12.5741 20.6194C12.4546 20.6783 12.3232 20.7092 12.19 20.71ZM9.70998 18.82C10.9617 17.3965 11.6514 15.5655 11.65 13.67V9.35998C11.65 9.13189 11.7406 8.91315 11.9019 8.75187C12.0632 8.59059 12.2819 8.49998 12.51 8.49998C12.7381 8.49998 12.9568 8.59059 13.1181 8.75187C13.2794 8.91315 13.37 9.13189 13.37 9.35998V13.08C13.37 13.3081 13.4606 13.5268 13.6219 13.6881C13.7831 13.8494 14.0019 13.94 14.23 13.94C14.4581 13.94 14.6768 13.8494 14.8381 13.6881C14.9994 13.5268 15.09 13.3081 15.09 13.08V9.35998C15.09 9.02117 15.0232 8.68568 14.8936 8.37266C14.7639 8.05964 14.5739 7.77522 14.3343 7.53565C14.0947 7.29607 13.8103 7.10603 13.4973 6.97637C13.1843 6.84671 12.8488 6.77998 12.51 6.77998C12.1712 6.77998 11.8357 6.84671 11.5227 6.97637C11.2096 7.10603 10.9252 7.29607 10.6856 7.53565C10.4461 7.77522 10.256 8.05964 10.1264 8.37266C9.99671 8.68568 9.92998 9.02117 9.92998 9.35998V13.67C9.9349 15.1435 9.39741 16.5673 8.41998 17.67C8.26896 17.8417 8.19163 18.066 8.20473 18.2943C8.21783 18.5227 8.3203 18.7366 8.48998 18.89C8.64615 19.0314 8.84928 19.1098 9.05998 19.11C9.18265 19.1102 9.30397 19.0845 9.41599 19.0345C9.52802 18.9845 9.6282 18.9114 9.70998 18.82ZM7.35998 16.29C7.59163 16.2821 7.81084 16.1832 7.96999 16.0147C8.12914 15.8462 8.21538 15.6217 8.20998 15.39V9.38998C8.21195 8.87392 8.30679 8.36243 8.48998 7.87998C8.5351 7.77323 8.55818 7.65845 8.55783 7.54256C8.55748 7.42666 8.53371 7.31203 8.48794 7.20555C8.44217 7.09907 8.37536 7.00294 8.2915 6.92294C8.20765 6.84293 8.10849 6.7807 7.99998 6.73998C7.89498 6.69998 7.78308 6.6812 7.67077 6.68472C7.55846 6.68824 7.44796 6.71399 7.34567 6.76049C7.24337 6.80699 7.15131 6.8733 7.07481 6.95561C6.99831 7.03791 6.93889 7.13457 6.89998 7.23998C6.63726 7.91599 6.50165 8.63471 6.49998 9.35998V15.48C6.50124 15.5894 6.52439 15.6974 6.56805 15.7978C6.61172 15.8981 6.67502 15.9887 6.75423 16.0642C6.83345 16.1396 6.92696 16.1985 7.02928 16.2373C7.13159 16.2761 7.24064 16.294 7.34998 16.29H7.35998ZM9.93998 5.89998C10.3682 5.57844 10.8534 5.34092 11.37 5.19998C11.5901 5.13898 11.777 4.99303 11.8895 4.79424C12.002 4.59546 12.031 4.36011 11.97 4.13998C11.909 3.91985 11.763 3.73297 11.5642 3.62045C11.3655 3.50793 11.1301 3.47898 10.91 3.53998C10.1875 3.74745 9.50946 4.08646 8.90998 4.53998C8.76446 4.64823 8.65689 4.7997 8.60264 4.97276C8.54839 5.14582 8.55024 5.3316 8.60793 5.50354C8.66561 5.67548 8.77618 5.82479 8.92382 5.93012C9.07146 6.03544 9.24863 6.0914 9.42998 6.08998C9.61696 6.0882 9.79741 6.02097 9.93998 5.89998ZM17.83 18.17C18.2933 16.7149 18.5294 15.1971 18.53 13.67V9.35998C18.5375 8.10408 18.1506 6.87751 17.424 5.85311C16.6975 4.82871 15.6677 4.05813 14.48 3.64998C14.373 3.61209 14.2595 3.59575 14.1462 3.60192C14.0329 3.60808 13.9219 3.63662 13.8196 3.68589C13.7173 3.73516 13.6258 3.80418 13.5504 3.88899C13.4749 3.97379 13.417 4.07269 13.38 4.17998C13.3067 4.39749 13.3223 4.63515 13.4235 4.84118C13.5246 5.04722 13.7031 5.20494 13.92 5.27998C14.7661 5.57522 15.4991 6.12684 16.0171 6.85809C16.535 7.58934 16.8122 8.46387 16.81 9.35998V13.67C16.8134 15.0275 16.6042 16.3772 16.19 17.67C16.1205 17.8861 16.1394 18.121 16.2424 18.3233C16.3454 18.5257 16.5243 18.679 16.74 18.75C16.8294 18.7645 16.9206 18.7645 17.01 18.75C17.1902 18.7514 17.3663 18.6962 17.5134 18.5921C17.6606 18.4881 17.7713 18.3404 17.83 18.17ZM22.75 20.77V17.42C22.7283 17.2296 22.6374 17.0539 22.4944 16.9263C22.3515 16.7987 22.1666 16.7282 21.975 16.7282C21.7834 16.7282 21.5985 16.7987 21.4555 16.9263C21.3126 17.0539 21.2216 17.2296 21.2 17.42V20.77C21.2 20.884 21.1547 20.9934 21.074 21.074C20.9934 21.1547 20.884 21.2 20.77 21.2H17.77C17.5796 21.2216 17.4039 21.3126 17.2763 21.4555C17.1487 21.5985 17.0782 21.7834 17.0782 21.975C17.0782 22.1666 17.1487 22.3515 17.2763 22.4944C17.4039 22.6374 17.5796 22.7283 17.77 22.75H20.77C21.2935 22.7448 21.7941 22.5345 22.1643 22.1643C22.5345 21.7941 22.7448 21.2935 22.75 20.77ZM6.99998 22C6.99998 21.7958 6.91886 21.5999 6.77445 21.4555C6.63005 21.3111 6.4342 21.23 6.22998 21.23H3.22998C3.11594 21.23 3.00657 21.1847 2.92592 21.104C2.84528 21.0234 2.79998 20.914 2.79998 20.8V17.42C2.77832 17.2296 2.68735 17.0539 2.54441 16.9263C2.40148 16.7987 2.21658 16.7282 2.02498 16.7282C1.83338 16.7282 1.64848 16.7987 1.50555 16.9263C1.36261 17.0539 1.27164 17.2296 1.24998 17.42V20.77C1.24998 21.3004 1.46069 21.8091 1.83577 22.1842C2.21084 22.5593 2.71955 22.77 3.24998 22.77H6.24998C6.45071 22.7648 6.64146 22.6813 6.78157 22.5375C6.92167 22.3937 7.00005 22.2008 6.99998 22ZM22.75 6.57998V3.22998C22.75 2.69955 22.5393 2.19084 22.1642 1.81577C21.7891 1.44069 21.2804 1.22998 20.75 1.22998H17.75C17.5596 1.25164 17.3839 1.34261 17.2563 1.48555C17.1287 1.62848 17.0582 1.81338 17.0582 2.00498C17.0582 2.19658 17.1287 2.38148 17.2563 2.52441C17.3839 2.66735 17.5596 2.75832 17.75 2.77998H20.75C20.864 2.77998 20.9734 2.82528 21.054 2.90592C21.1347 2.98657 21.18 3.09594 21.18 3.20998V6.57998C21.2016 6.77035 21.2926 6.94609 21.4355 7.07369C21.5785 7.20128 21.7634 7.2718 21.955 7.2718C22.1466 7.2718 22.3315 7.20128 22.4744 7.07369C22.6173 6.94609 22.7083 6.77035 22.73 6.57998H22.75ZM2.79998 6.57998V3.22998C2.79998 3.11594 2.84528 3.00657 2.92592 2.92592C3.00657 2.84528 3.11594 2.79998 3.22998 2.79998H6.22998C6.42035 2.77832 6.59609 2.68735 6.72369 2.54441C6.85128 2.40148 6.9218 2.21658 6.9218 2.02498C6.9218 1.83338 6.85128 1.64848 6.72369 1.50555C6.59609 1.36261 6.42035 1.27164 6.22998 1.24998H3.22998C2.69955 1.24998 2.19084 1.46069 1.81577 1.83577C1.44069 2.21084 1.22998 2.71955 1.22998 3.24998V6.57998C1.25164 6.77035 1.34261 6.94609 1.48555 7.07369C1.62848 7.20128 1.81338 7.2718 2.00498 7.2718C2.19658 7.2718 2.38148 7.20128 2.52441 7.07369C2.66735 6.94609 2.75832 6.77035 2.77998 6.57998H2.79998Z" fill="black"/>
</svg>
