<svg width="24" height="24" viewBox="0 0 24 24" fill="none" xmlns="http://www.w3.org/2000/svg">
<path d="M17.47 9.00001L19.87 6.00001C20.0696 5.74977 20.1945 5.44826 20.2303 5.13018C20.2661 4.8121 20.2114 4.49038 20.0724 4.20202C19.9334 3.91367 19.7159 3.6704 19.4448 3.50021C19.1737 3.33003 18.8601 3.23983 18.54 3.24001H6V2.76001C6 2.5611 5.92098 2.37033 5.78033 2.22968C5.63968 2.08903 5.44891 2.01001 5.25 2.01001C5.05109 2.01001 4.86032 2.08903 4.71967 2.22968C4.57902 2.37033 4.5 2.5611 4.5 2.76001V3.25001V14.75V21.24C4.5 21.4389 4.57902 21.6297 4.71967 21.7703C4.86032 21.911 5.05109 21.99 5.25 21.99C5.44891 21.99 5.63968 21.911 5.78033 21.7703C5.92098 21.6297 6 21.4389 6 21.24V14.75H18.54C18.8591 14.7507 19.1719 14.6611 19.4422 14.4914C19.7125 14.3217 19.9292 14.079 20.0673 13.7913C20.2054 13.5036 20.2592 13.1827 20.2226 12.8657C20.1859 12.5487 20.0602 12.2486 19.86 12L17.47 9.00001ZM18.72 13.14C18.7032 13.1733 18.6775 13.2012 18.6457 13.2207C18.6139 13.2401 18.5773 13.2503 18.54 13.25H6V4.75001H18.54C18.5773 4.74975 18.6139 4.75991 18.6457 4.77935C18.6775 4.79878 18.7032 4.82672 18.72 4.86001C18.7406 4.89114 18.7516 4.92766 18.7516 4.96501C18.7516 5.00236 18.7406 5.03888 18.72 5.07001L15.55 9.00001L18.69 12.93C18.7153 12.9581 18.7317 12.993 18.737 13.0304C18.7424 13.0678 18.7364 13.106 18.72 13.14Z" fill="black"/>
</svg>
