<svg width="24" height="24" viewBox="0 0 24 24" fill="none" xmlns="http://www.w3.org/2000/svg">
<path d="M21.4498 18.07L18.2998 12.63L15.7498 8.21V4.58C16.1082 4.40936 16.3979 4.12197 16.5714 3.765C16.7449 3.40803 16.7919 3.00269 16.7047 2.61549C16.6175 2.22828 16.4012 1.88223 16.0914 1.63411C15.7817 1.38599 15.3967 1.25054 14.9998 1.25H8.99984C8.60294 1.25054 8.21801 1.38599 7.90823 1.63411C7.59844 1.88223 7.3822 2.22828 7.29499 2.61549C7.20779 3.00269 7.25479 3.40803 7.4283 3.765C7.6018 4.12197 7.89149 4.40936 8.24984 4.58V8.21L5.69984 12.63L2.54984 18.07C2.27608 18.5442 2.13192 19.082 2.13184 19.6295C2.13175 20.177 2.27574 20.7149 2.54934 21.1891C2.82294 21.6634 3.21652 22.0573 3.69054 22.3312C4.16456 22.6052 4.70233 22.7496 5.24984 22.75H18.7498C19.2973 22.7496 19.8351 22.6052 20.3091 22.3312C20.7832 22.0573 21.1767 21.6634 21.4503 21.1891C21.7239 20.7149 21.8679 20.177 21.8678 19.6295C21.8678 19.082 21.7236 18.5442 21.4498 18.07ZM9.64984 8.78C9.71744 8.66858 9.75211 8.5403 9.74984 8.41V4C9.74725 3.80189 9.6674 3.61263 9.5273 3.47253C9.38721 3.33244 9.19794 3.25259 8.99984 3.25C8.93353 3.25 8.86994 3.22366 8.82306 3.17678C8.77618 3.12989 8.74984 3.0663 8.74984 3C8.74984 2.9337 8.77618 2.87011 8.82306 2.82322C8.86994 2.77634 8.93353 2.75 8.99984 2.75H14.9998C15.0661 2.75 15.1297 2.77634 15.1766 2.82322C15.2235 2.87011 15.2498 2.9337 15.2498 3C15.2498 3.0663 15.2235 3.12989 15.1766 3.17678C15.1297 3.22366 15.0661 3.25 14.9998 3.25C14.8017 3.25259 14.6125 3.33244 14.4724 3.47253C14.3323 3.61263 14.2524 3.80189 14.2498 4V8.41C14.2476 8.5403 14.2822 8.66858 14.3498 8.78L16.3498 12.25H7.64984L9.64984 8.78ZM20.1498 20.44C20.0095 20.6872 19.8058 20.8926 19.5597 21.0349C19.3137 21.1773 19.0341 21.2515 18.7498 21.25H5.24984C4.96572 21.2495 4.68673 21.1742 4.44087 21.0319C4.19501 20.8895 3.99093 20.6849 3.8491 20.4387C3.70726 20.1925 3.63267 19.9134 3.6328 19.6293C3.63293 19.3451 3.70778 19.0661 3.84984 18.82L6.77984 13.75H17.2198L20.1498 18.82C20.292 19.0663 20.3669 19.3456 20.3669 19.63C20.3669 19.9144 20.292 20.1937 20.1498 20.44Z" fill="black"/>
</svg>
