<svg width="24" height="24" viewBox="0 0 24 24" fill="none" xmlns="http://www.w3.org/2000/svg">
<path d="M12 22.75C9.87386 22.75 7.79545 22.1195 6.02762 20.9383C4.2598 19.7571 2.88194 18.0782 2.0683 16.1139C1.25466 14.1495 1.04177 11.9881 1.45656 9.90278C1.87135 7.81749 2.89519 5.90202 4.39861 4.39861C5.90202 2.89519 7.81749 1.87135 9.90278 1.45656C11.9881 1.04177 14.1495 1.25466 16.1139 2.0683C18.0782 2.88194 19.7571 4.2598 20.9383 6.02762C22.1195 7.79545 22.75 9.87386 22.75 12C22.7474 14.8503 21.6139 17.583 19.5985 19.5985C17.583 21.6139 14.8503 22.7474 12 22.75ZM12 2.75C10.1705 2.75 8.38213 3.29251 6.86098 4.30891C5.33983 5.32531 4.15423 6.76997 3.45412 8.46018C2.75401 10.1504 2.57083 12.0103 2.92774 13.8046C3.28465 15.5989 4.16563 17.2471 5.45927 18.5407C6.7529 19.8344 8.40109 20.7154 10.1954 21.0723C11.9897 21.4292 13.8496 21.246 15.5398 20.5459C17.23 19.8458 18.6747 18.6602 19.6911 17.139C20.7075 15.6179 21.25 13.8295 21.25 12C21.2474 9.54756 20.272 7.19633 18.5378 5.46219C16.8037 3.72805 14.4524 2.75265 12 2.75ZM11 18.37C10.8537 18.372 10.7081 18.3483 10.57 18.3C10.3336 18.2141 10.1292 18.0578 9.98439 17.8522C9.83956 17.6466 9.76125 17.4015 9.76 17.15V13.49H8.44C8.21147 13.4828 7.98946 13.4121 7.79891 13.2857C7.60835 13.1593 7.45679 12.9824 7.36124 12.7746C7.26569 12.5669 7.22993 12.3367 7.25797 12.1097C7.28601 11.8828 7.37676 11.6682 7.52 11.49L12.17 6.09C12.3366 5.90111 12.5567 5.76743 12.8012 5.70673C13.0456 5.64604 13.3027 5.66121 13.5383 5.75024C13.7739 5.83927 13.9768 5.99792 14.12 6.2051C14.2632 6.41228 14.34 6.65815 14.34 6.91V10.63H15.59C15.8194 10.6354 16.0427 10.7048 16.2347 10.8305C16.4267 10.9561 16.5797 11.133 16.6764 11.341C16.7732 11.5491 16.8098 11.7801 16.7822 12.0078C16.7545 12.2356 16.6637 12.4511 16.52 12.63L11.88 18C11.7657 18.1177 11.6289 18.2111 11.4777 18.2747C11.3265 18.3382 11.164 18.3707 11 18.37ZM9 12H11.16V16.42L15 12.09H12.79V7.58L9 12Z" fill="black"/>
</svg>
