<svg width="24" height="24" viewBox="0 0 24 24" fill="none" xmlns="http://www.w3.org/2000/svg">
<path d="M22 11.25H20.05C19.8587 9.37214 19.0177 7.62004 17.672 6.29632C16.3264 4.9726 14.5607 4.1604 12.68 4V2C12.68 1.80109 12.601 1.61032 12.4603 1.46967C12.3197 1.32902 12.1289 1.25 11.93 1.25C11.7311 1.25 11.5403 1.32902 11.3997 1.46967C11.259 1.61032 11.18 1.80109 11.18 2V4C9.33261 4.20007 7.61041 5.03 6.30287 6.35029C4.99532 7.67059 4.18214 9.40076 4 11.25H2C1.80109 11.25 1.61032 11.329 1.46967 11.4697C1.32902 11.6103 1.25 11.8011 1.25 12C1.25 12.1989 1.32902 12.3897 1.46967 12.5303C1.61032 12.671 1.80109 12.75 2 12.75H4C4.18214 14.5992 4.99532 16.3294 6.30287 17.6497C7.61041 18.97 9.33261 19.7999 11.18 20V22C11.18 22.1989 11.259 22.3897 11.3997 22.5303C11.5403 22.671 11.7311 22.75 11.93 22.75C12.1289 22.75 12.3197 22.671 12.4603 22.5303C12.601 22.3897 12.68 22.1989 12.68 22V20.05C14.5685 19.8878 16.3402 19.0684 17.6869 17.7346C19.0335 16.4007 19.8698 14.6368 20.05 12.75H22C22.1989 12.75 22.3897 12.671 22.5303 12.5303C22.671 12.3897 22.75 12.1989 22.75 12C22.75 11.8011 22.671 11.6103 22.5303 11.4697C22.3897 11.329 22.1989 11.25 22 11.25ZM12 18.58C10.699 18.578 9.42784 18.1904 8.34708 17.4662C7.26632 16.742 6.4245 15.7136 5.92801 14.5111C5.43152 13.3086 5.30264 11.9859 5.55765 10.7102C5.81267 9.43445 6.44015 8.26294 7.36077 7.34371C8.2814 6.42448 9.45386 5.79879 10.73 5.54571C12.0061 5.29263 13.3286 5.42352 14.5304 5.92184C15.7321 6.42015 16.7592 7.26353 17.4818 8.34539C18.2043 9.42725 18.59 10.699 18.59 12C18.5874 13.746 17.8919 15.4197 16.6563 16.6534C15.4207 17.8871 13.746 18.58 12 18.58ZM11.92 16.65C11.0012 16.646 10.1041 16.37 9.34207 15.8566C8.58002 15.3433 7.98713 14.6157 7.63825 13.7657C7.28936 12.9156 7.20013 11.9813 7.3818 11.0806C7.56347 10.1799 8.00791 9.35326 8.65902 8.70495C9.31012 8.05663 10.1387 7.61575 11.0402 7.43794C11.9416 7.26013 12.8756 7.35338 13.7241 7.70591C14.5726 8.05843 15.2976 8.65444 15.8077 9.41869C16.3178 10.1829 16.59 11.0812 16.59 12C16.59 12.6115 16.4694 13.217 16.2351 13.7818C16.0008 14.3466 15.6574 14.8597 15.2245 15.2916C14.7917 15.7235 14.2779 16.0658 13.7125 16.2989C13.1472 16.532 12.5415 16.6513 11.93 16.65H11.92ZM11.92 8.85C11.2979 8.85395 10.6908 9.04205 10.1754 9.39057C9.66006 9.73909 9.25943 10.2324 9.02408 10.8083C8.78873 11.3843 8.72919 12.017 8.85298 12.6267C8.97678 13.2364 9.27835 13.7958 9.71967 14.2344C10.161 14.6729 10.7223 14.9709 11.3328 15.0909C11.9433 15.2108 12.5756 15.1473 13.15 14.9083C13.7244 14.6693 14.2152 14.2655 14.5605 13.7479C14.9057 13.2304 15.09 12.6222 15.09 12C15.09 11.5855 15.0082 11.1751 14.8493 10.7922C14.6903 10.4094 14.4574 10.0617 14.1639 9.76907C13.8703 9.47643 13.5219 9.24462 13.1385 9.0869C12.7552 8.92919 12.3445 8.84868 11.93 8.85H11.92Z" fill="black"/>
</svg>
