<svg width="24" height="24" viewBox="0 0 24 24" fill="none" xmlns="http://www.w3.org/2000/svg">
<path d="M10.45 16.85L8.05001 14C7.98435 13.9232 7.93446 13.8342 7.9032 13.7381C7.87193 13.6419 7.8599 13.5406 7.8678 13.4399C7.87569 13.3391 7.90335 13.2409 7.9492 13.1509C7.99505 13.0608 8.05819 12.9806 8.13501 12.915C8.29016 12.7824 8.49164 12.7168 8.69511 12.7328C8.89859 12.7487 9.0874 12.8448 9.22001 13L11 15.13L13.76 11.53C13.8208 11.4502 13.8968 11.3832 13.9836 11.333C14.0705 11.2827 14.1664 11.2501 14.2658 11.2371C14.3653 11.2241 14.4664 11.2309 14.5632 11.2571C14.66 11.2834 14.7507 11.3285 14.83 11.39C14.9943 11.5118 15.1041 11.6932 15.1359 11.8952C15.1677 12.0972 15.1189 12.3036 15 12.47L11.67 16.82C11.5997 16.9102 11.5104 16.9838 11.4084 17.0357C11.3064 17.0875 11.1943 17.1163 11.08 17.12C10.9614 17.1259 10.8429 17.1047 10.7338 17.0579C10.6246 17.0111 10.5275 16.94 10.45 16.85ZM22.75 11.35V17.08C22.7513 17.8267 22.6054 18.5664 22.3205 19.2567C22.0357 19.947 21.6175 20.5743 21.0899 21.1028C20.5623 21.6313 19.9357 22.0506 19.246 22.3367C18.5562 22.6227 17.8168 22.77 17.07 22.77H6.93001C6.18326 22.77 5.44384 22.6227 4.75405 22.3367C4.06427 22.0506 3.43767 21.6313 2.9101 21.1028C2.38253 20.5743 1.96436 19.947 1.6795 19.2567C1.39464 18.5664 1.24869 17.8267 1.25001 17.08V6.16998C1.25001 4.86154 1.7691 3.60655 2.69336 2.6804C3.61763 1.75426 4.87157 1.23263 6.18001 1.22998H8.34001C8.78852 1.23201 9.22993 1.34214 9.62682 1.55103C10.0237 1.75992 10.3644 2.06143 10.62 2.42998H15.62C17.3744 2.45834 19.0523 3.15306 20.3133 4.37318C21.5743 5.59331 22.3239 7.24745 22.41 8.99998C22.4253 9.09604 22.4253 9.19392 22.41 9.28998C22.6485 9.95003 22.7638 10.6483 22.75 11.35ZM15.61 3.99998H11.33C11.5423 4.50362 11.8984 4.9335 12.3538 5.23586C12.8091 5.53822 13.3434 5.69966 13.89 5.69998H17.07C18.1303 5.69358 19.1706 5.98835 20.07 6.54998C19.6103 5.77578 18.9578 5.13393 18.1762 4.68702C17.3945 4.24011 16.5104 4.0034 15.61 3.99998ZM21.22 11.39C21.2253 10.8416 21.1219 10.2977 20.9157 9.78956C20.7095 9.28143 20.4046 8.81921 20.0187 8.4296C19.6328 8.03999 19.1736 7.73072 18.6674 7.51966C18.1613 7.30861 17.6184 7.19995 17.07 7.19998H13.89C13.0268 7.19663 12.1845 6.93478 11.4715 6.44818C10.7585 5.96159 10.2077 5.27257 9.89001 4.46998L9.53001 3.55998C9.43731 3.32574 9.27599 3.12497 9.06721 2.984C8.85843 2.84303 8.61192 2.76843 8.36001 2.76998H6.18001C5.27827 2.76998 4.41347 3.12819 3.77585 3.76582C3.13822 4.40344 2.78001 5.26824 2.78001 6.16998V17.08C2.78001 18.1806 3.21724 19.2362 3.99552 20.0145C4.77379 20.7928 5.82936 21.23 6.93001 21.23H17.07C18.1707 21.23 19.2262 20.7928 20.0045 20.0145C20.7828 19.2362 21.22 18.1806 21.22 17.08V11.39Z" fill="black"/>
</svg>
