<svg width="24" height="24" viewBox="0 0 24 24" fill="none" xmlns="http://www.w3.org/2000/svg">
<path d="M22.11 8.74999C22.1148 8.69009 22.1148 8.6299 22.11 8.56999C22.0546 6.92048 21.3718 5.35428 20.2011 4.19097C19.0303 3.02766 17.4598 2.35491 15.81 2.30999H11C10.8735 2.31242 10.7496 2.34682 10.64 2.40999C10.3769 2.04726 10.0309 1.75271 9.63075 1.55092C9.23065 1.34913 8.78809 1.24595 8.34 1.24999H6.18C4.87248 1.24999 3.61852 1.7694 2.69396 2.69396C1.76941 3.61851 1.25 4.87247 1.25 6.17999V17.07C1.25 18.5764 1.84843 20.0212 2.91363 21.0864C3.97884 22.1516 5.42357 22.75 6.93 22.75H17.07C18.5764 22.75 20.0212 22.1516 21.0864 21.0864C22.1516 20.0212 22.75 18.5764 22.75 17.07V11.35C22.7517 10.4441 22.532 9.55158 22.11 8.74999ZM20 6.48999C19.1155 5.95669 18.1029 5.6733 17.07 5.66999H13.89C13.3314 5.67077 12.7856 5.50328 12.3236 5.18935C11.8616 4.87541 11.5049 4.42959 11.3 3.90999V3.83999H15.87C16.7349 3.86173 17.5773 4.12029 18.3055 4.58753C19.0337 5.05478 19.6198 5.7128 20 6.48999ZM21.22 17.07C21.22 18.1706 20.7828 19.2262 20.0045 20.0045C19.2262 20.7828 18.1706 21.22 17.07 21.22H6.93C5.82935 21.22 4.77378 20.7828 3.99551 20.0045C3.21723 19.2262 2.78 18.1706 2.78 17.07V6.17999C2.78 5.27826 3.13821 4.41345 3.77584 3.77583C4.41346 3.13821 5.27826 2.77999 6.18 2.77999H8.34C8.5934 2.77781 8.84138 2.85332 9.05057 2.99635C9.25975 3.13938 9.42009 3.34307 9.51 3.57999L9.87 4.47999C10.1881 5.2815 10.7394 5.96915 11.4524 6.45405C12.1655 6.93895 13.0077 7.19879 13.87 7.19999H17.05C18.1506 7.19999 19.2062 7.63722 19.9845 8.4155C20.7628 9.19378 21.2 10.2493 21.2 11.35L21.22 17.07Z" fill="black"/>
</svg>
