<svg width="24" height="24" viewBox="0 0 24 24" fill="none" xmlns="http://www.w3.org/2000/svg">
<path d="M22.2602 8.86003C22.0502 5.10003 19.2602 2.16003 15.8902 2.16003H10.8902C10.5879 1.84663 10.2261 1.59673 9.82602 1.42501C9.42591 1.25329 8.99554 1.1632 8.56015 1.16003H6.56015C5.85898 1.16133 5.16499 1.30122 4.51807 1.57167C3.87115 1.84211 3.28408 2.23777 2.79061 2.73589C2.29713 3.23401 1.90699 3.82476 1.64263 4.47418C1.37826 5.12361 1.24488 5.81888 1.25015 6.52003V16.72C1.25015 18.3113 1.88229 19.8375 3.00751 20.9627C4.13273 22.0879 5.65885 22.72 7.25015 22.72H16.7302C18.3214 22.72 19.8476 22.0879 20.9728 20.9627C22.098 19.8375 22.7302 18.3113 22.7302 16.72V11.36C22.6568 10.5132 22.4994 9.67571 22.2602 8.86003ZM15.8902 3.59003C16.7917 3.61943 17.6674 3.89866 18.4196 4.39658C19.1718 4.89451 19.7709 5.59157 20.1502 6.41003C19.1523 5.70644 17.9611 5.32916 16.7402 5.33003H13.7402C13.3647 5.32693 12.9987 5.21209 12.6888 5.00015C12.3789 4.78821 12.1392 4.48878 12.0002 4.14003L11.7802 3.59003H15.8902ZM21.3202 16.72C21.3202 17.9366 20.8383 19.1036 19.9799 19.9657C19.1216 20.8278 17.9567 21.3147 16.7402 21.32H7.26015C6.04362 21.3147 4.87873 20.8278 4.02038 19.9657C3.16203 19.1036 2.68014 17.9366 2.68015 16.72V6.52003C2.68015 5.49007 3.08861 4.50215 3.81597 3.77292C4.54332 3.04369 5.53019 2.63268 6.56015 2.63003H8.56015C8.93899 2.62915 9.30935 2.74214 9.62318 2.95433C9.93702 3.16653 10.1798 3.46814 10.3202 3.82003L10.6602 4.67003C10.905 5.28972 11.3306 5.8214 11.8817 6.19593C12.4328 6.57045 13.0838 6.77049 13.7502 6.77003H16.7502C17.9658 6.77268 19.1307 7.25744 19.9893 8.11794C20.8479 8.97845 21.3302 10.1444 21.3302 11.36L21.3202 16.72Z" fill="black"/>
<path d="M15.5201 12.8601C15.4566 12.9358 15.3787 12.9983 15.2909 13.0438C15.2032 13.0894 15.1073 13.1172 15.0088 13.1255C14.9103 13.1339 14.8111 13.1227 14.7169 13.0926C14.6227 13.0625 14.5355 13.014 14.4601 12.9501L12.8601 11.5501V16.6601C12.8601 16.859 12.7811 17.0497 12.6404 17.1904C12.4998 17.331 12.309 17.4101 12.1101 17.4101C11.9112 17.4101 11.7204 17.331 11.5797 17.1904C11.4391 17.0497 11.3601 16.859 11.3601 16.6601V11.4801L9.51008 13.0001C9.35988 13.1123 9.17225 13.1625 8.98607 13.1401C8.79989 13.1178 8.62945 13.0247 8.51008 12.8801C8.38629 12.7214 8.32954 12.5206 8.35197 12.3206C8.3744 12.1206 8.47422 11.9374 8.63008 11.8101L11.6401 9.30006L11.7501 9.24006L11.8401 9.19006C12.0138 9.12301 12.2063 9.12301 12.3801 9.19006L12.4801 9.25006L12.6001 9.32006L15.4401 11.7901C15.59 11.923 15.6822 12.109 15.6971 12.3088C15.7121 12.5086 15.6486 12.7063 15.5201 12.8601Z" fill="black"/>
</svg>
