<svg width="24" height="24" viewBox="0 0 24 24" fill="none" xmlns="http://www.w3.org/2000/svg">
<path d="M21 18.25H19.52V11.67C19.5174 11.0272 19.2602 10.4117 18.8047 9.95815C18.3493 9.5046 17.7327 9.24996 17.09 9.24996H14.94C14.2982 9.24996 13.6826 9.50492 13.2288 9.95876C12.775 10.4126 12.52 11.0281 12.52 11.67V18.25H11V6.66996C10.9974 6.03067 10.743 5.41816 10.2918 4.96517C9.84073 4.51218 9.22928 4.25522 8.59 4.24996H6.44C6.12052 4.24732 5.80368 4.30797 5.50776 4.4284C5.21184 4.54883 4.9427 4.72667 4.71586 4.95165C4.48902 5.17663 4.30897 5.4443 4.18611 5.73922C4.06324 6.03414 3.99999 6.35047 4 6.66996V18.25H3C2.80109 18.25 2.61032 18.329 2.46967 18.4696C2.32902 18.6103 2.25 18.801 2.25 19C2.25 19.1989 2.32902 19.3896 2.46967 19.5303C2.61032 19.6709 2.80109 19.75 3 19.75H21C21.1989 19.75 21.3897 19.6709 21.5303 19.5303C21.671 19.3896 21.75 19.1989 21.75 19C21.75 18.801 21.671 18.6103 21.5303 18.4696C21.3897 18.329 21.1989 18.25 21 18.25ZM5.48 18.25V6.66996C5.48 6.42596 5.57693 6.19196 5.74946 6.01942C5.922 5.84689 6.156 5.74996 6.4 5.74996H8.59C8.83493 5.74995 9.06997 5.84655 9.2441 6.01881C9.41822 6.19106 9.51737 6.42505 9.52 6.66996V18.25H5.48ZM13.98 18.25V11.67C13.98 11.426 14.0769 11.192 14.2495 11.0194C14.422 10.8469 14.656 10.75 14.9 10.75H17.05C17.2949 10.7499 17.53 10.8466 17.7041 11.0188C17.8782 11.1911 17.9774 11.425 17.98 11.67V18.25H13.98Z" fill="black"/>
</svg>
