<svg width="24" height="24" viewBox="0 0 24 24" fill="none" xmlns="http://www.w3.org/2000/svg">
<path d="M20.78 17.75H13.22C13.0211 17.75 12.8303 17.671 12.6897 17.5303C12.549 17.3897 12.47 17.1989 12.47 17C12.47 16.8011 12.549 16.6103 12.6897 16.4697C12.8303 16.329 13.0211 16.25 13.22 16.25H20.78C20.9789 16.25 21.1697 16.329 21.3104 16.4697C21.451 16.6103 21.53 16.8011 21.53 17C21.53 17.1989 21.451 17.3897 21.3104 17.5303C21.1697 17.671 20.9789 17.75 20.78 17.75ZM18.57 21C18.5674 20.8019 18.4876 20.6126 18.3475 20.4725C18.2074 20.3324 18.0181 20.2526 17.82 20.25H13.22C13.0211 20.25 12.8303 20.329 12.6897 20.4697C12.549 20.6103 12.47 20.8011 12.47 21C12.47 21.1989 12.549 21.3897 12.6897 21.5303C12.8303 21.671 13.0211 21.75 13.22 21.75H17.82C18.0181 21.7474 18.2074 21.6676 18.3475 21.5275C18.4876 21.3874 18.5674 21.1981 18.57 21ZM21.57 13.18C21.57 13.18 21.57 13.18 21.57 13.23C21.5795 13.2796 21.5795 13.3304 21.57 13.38C21.5744 13.4232 21.5744 13.4668 21.57 13.51C21.5467 13.549 21.5199 13.5858 21.49 13.62L21.39 13.74L21.28 13.79H21.2C21.1153 13.8288 21.0232 13.8493 20.93 13.85H13.22C13.1268 13.8493 13.0348 13.8288 12.95 13.79H12.87L12.76 13.74L12.66 13.62C12.6301 13.5858 12.6033 13.549 12.58 13.51C12.5757 13.4668 12.5757 13.4232 12.58 13.38C12.5706 13.3304 12.5706 13.2796 12.58 13.23C12.58 13.23 12.58 13.23 12.58 13.18V3.2C12.581 3.18335 12.581 3.16665 12.58 3.15C12.5706 3.10381 12.5706 3.05619 12.58 3.01C12.5756 2.96344 12.5756 2.91656 12.58 2.87C12.6033 2.83102 12.6301 2.7942 12.66 2.76L12.76 2.64H12.84L13 2.5H13.15H13.24H20.8H20.89H21.04L21.18 2.57H21.26L21.36 2.69C21.3899 2.7242 21.4167 2.76102 21.44 2.8C21.4444 2.84656 21.4444 2.89344 21.44 2.94C21.4494 2.98619 21.4494 3.03381 21.44 3.08C21.4391 3.09665 21.4391 3.11335 21.44 3.13L21.57 13.18ZM14 5.43V11L16.09 8.24L14 5.43ZM17 7L19.27 4H14.73L17 7ZM14.73 12.48H19.27L17 9.43L14.73 12.48ZM20 11V5.43L17.94 8.19L20 11ZM9.85002 3.18V21C9.85485 21.0566 9.85485 21.1134 9.85002 21.17V21.29C9.85002 21.29 9.79002 21.37 9.77002 21.41C9.75002 21.45 9.72002 21.49 9.68002 21.52C9.64732 21.5491 9.61019 21.5727 9.57002 21.59C9.53085 21.6256 9.48713 21.6559 9.44002 21.68C9.35724 21.6936 9.2728 21.6936 9.19002 21.68H2.80002C2.71731 21.6944 2.63273 21.6944 2.55002 21.68C2.4998 21.6559 2.45277 21.6257 2.41002 21.59C2.36986 21.5727 2.33272 21.5491 2.30002 21.52C2.2677 21.4841 2.24075 21.4437 2.22002 21.4C2.19012 21.3658 2.16335 21.329 2.14002 21.29C2.13436 21.2469 2.13436 21.2031 2.14002 21.16C2.13432 21.1068 2.13432 21.0532 2.14002 21V3.18C2.13547 3.12676 2.13547 3.07324 2.14002 3.02C2.13548 2.98013 2.13548 2.93987 2.14002 2.9C2.16075 2.85634 2.1877 2.81592 2.22002 2.78L2.30002 2.66L2.41002 2.6C2.45022 2.56096 2.49782 2.53036 2.55002 2.51C2.59318 2.50445 2.63687 2.50445 2.68002 2.51H2.80002H9.11002C9.14989 2.50546 9.19015 2.50546 9.23002 2.51C9.27326 2.50591 9.31678 2.50591 9.36002 2.51C9.40674 2.53072 9.45047 2.55763 9.49002 2.59C9.5281 2.61103 9.56484 2.63441 9.60002 2.66C9.63317 2.69754 9.66327 2.73767 9.69002 2.78C9.71897 2.81843 9.74569 2.85849 9.77002 2.9V3.02C9.80194 3.07054 9.82873 3.12414 9.85002 3.18ZM3.55002 7.57V16.64L5.16002 12.1L3.55002 7.57ZM6.00002 9.86L8.00002 4H3.86002L6.00002 9.86ZM3.86002 20.25H8.00002L6.00002 14.35L3.86002 20.25ZM8.36002 16.64V7.57L6.75002 12.1L8.36002 16.64Z" fill="black"/>
</svg>
