<svg width="24" height="24" viewBox="0 0 24 24" fill="none" xmlns="http://www.w3.org/2000/svg">
<path d="M20.7498 15.32V5.81C20.7498 5.13105 20.4801 4.4799 20 3.99981C19.5199 3.51971 18.8688 3.25 18.1898 3.25H8.67983C8.55457 2.68292 8.2395 2.17558 7.78672 1.8119C7.33394 1.44823 6.77058 1.25 6.18983 1.25H5.80983C5.21919 1.2497 4.64661 1.45364 4.18915 1.82726C3.73169 2.20088 3.4175 2.72119 3.29983 3.3C2.73026 3.42768 2.22142 3.74617 1.85767 4.20268C1.49392 4.65919 1.2971 5.2263 1.29983 5.81V6.19C1.29983 6.77075 1.49806 7.33411 1.86174 7.78688C2.22542 8.23966 2.73275 8.55474 3.29983 8.68V18.19C3.29983 18.869 3.56955 19.5201 4.04964 20.0002C4.52973 20.4803 5.18088 20.75 5.85983 20.75H15.3698C15.4951 21.3171 15.8102 21.8244 16.2629 22.1881C16.7157 22.5518 17.2791 22.75 17.8598 22.75H18.2398C18.8219 22.7389 19.3827 22.5298 19.8299 22.1571C20.2771 21.7844 20.584 21.2705 20.6998 20.7C21.2786 20.5823 21.799 20.2681 22.1726 19.8107C22.5462 19.3532 22.7501 18.7806 22.7498 18.19V17.81C22.7498 17.2292 22.5516 16.6659 22.1879 16.2131C21.8242 15.7603 21.3169 15.4453 20.7498 15.32ZM3.24983 7.09C3.09688 6.99483 2.97071 6.86225 2.88323 6.70478C2.79574 6.54731 2.74983 6.37014 2.74983 6.19V5.81C2.74983 5.62986 2.79574 5.45269 2.88323 5.29522C2.97071 5.13775 3.09688 5.00517 3.24983 4.91V7.09ZM15.2498 19.25H5.80983C5.67026 19.2513 5.53182 19.2248 5.40261 19.172C5.2734 19.1192 5.15602 19.0412 5.05732 18.9425C4.95863 18.8438 4.8806 18.7264 4.8278 18.5972C4.775 18.468 4.7485 18.3296 4.74983 18.19V3.81C4.7485 3.67043 4.775 3.53199 4.8278 3.40278C4.8806 3.27357 4.95863 3.15619 5.05732 3.05749C5.15602 2.95879 5.2734 2.88076 5.40261 2.82797C5.53182 2.77517 5.67026 2.74866 5.80983 2.75H6.18983C6.32941 2.74866 6.46784 2.77517 6.59705 2.82797C6.72626 2.88076 6.84365 2.95879 6.94234 3.05749C7.04104 3.15619 7.11907 3.27357 7.17187 3.40278C7.22466 3.53199 7.25117 3.67043 7.24983 3.81V15.19C7.24983 15.6037 7.41419 16.0005 7.70675 16.2931C7.9993 16.5856 8.3961 16.75 8.80983 16.75H15.2498V19.25ZM15.2498 15.25L8.74983 15.2V8.76L15.2498 8.81V15.25ZM19.2498 20.25C19.2512 20.3896 19.2247 20.528 19.1719 20.6572C19.1191 20.7864 19.041 20.9038 18.9423 21.0025C18.8436 21.1012 18.7263 21.1792 18.5971 21.232C18.4678 21.2848 18.3294 21.3113 18.1898 21.31H17.8098C17.6703 21.3113 17.5318 21.2848 17.4026 21.232C17.2734 21.1792 17.156 21.1012 17.0573 21.0025C16.9586 20.9038 16.8806 20.7864 16.8278 20.6572C16.775 20.528 16.7485 20.3896 16.7498 20.25V8.81C16.7498 8.39626 16.5855 7.99947 16.2929 7.70691C16.0004 7.41436 15.6036 7.25 15.1898 7.25H8.74983V4.75H18.1898C18.3294 4.74866 18.4678 4.77517 18.5971 4.82797C18.7263 4.88076 18.8436 4.95879 18.9423 5.05749C19.041 5.15619 19.1191 5.27357 19.1719 5.40278C19.2247 5.53199 19.2512 5.67043 19.2498 5.81V20.25ZM21.2498 18.25C21.2474 18.4269 21.2003 18.6004 21.1129 18.7542C21.0254 18.9081 20.9006 19.0373 20.7498 19.13V16.93C20.9006 17.0227 21.0254 17.1519 21.1129 17.3058C21.2003 17.4596 21.2474 17.6331 21.2498 17.81V18.25Z" fill="black"/>
</svg>
