<svg width="24" height="24" viewBox="0 0 24 24" fill="none" xmlns="http://www.w3.org/2000/svg">
<path d="M12.5502 22.75H11.4502C11.0056 22.751 10.5751 22.5935 10.236 22.3058C9.89699 22.0181 9.67158 21.619 9.60024 21.18L9.47024 20.37C8.91753 20.2003 8.38187 19.9793 7.87024 19.71L7.21024 20.18C6.85211 20.4447 6.41092 20.5721 5.96684 20.539C5.52276 20.506 5.10527 20.3148 4.79024 20L4.00024 19.21C3.68402 18.8963 3.49091 18.4794 3.45605 18.0353C3.42118 17.5912 3.54686 17.1493 3.81024 16.79L4.28024 16.13C4.01093 15.6184 3.78997 15.0827 3.62024 14.53L2.81024 14.4C2.37132 14.3287 1.97219 14.1033 1.68446 13.7642C1.39673 13.4252 1.23924 12.9947 1.24024 12.55V11.45C1.23961 11.0039 1.39852 10.5722 1.68826 10.233C1.978 9.89371 2.37949 9.66922 2.82024 9.60003L3.63024 9.47003C3.79997 8.91733 4.02093 8.38167 4.29024 7.87003L3.82024 7.21003C3.55559 6.85191 3.4282 6.41071 3.46123 5.96664C3.49426 5.52256 3.68552 5.10507 4.00024 4.79003L4.79024 4.00003C5.10381 3.68415 5.51978 3.49047 5.96336 3.45381C6.40695 3.41715 6.84906 3.53991 7.21024 3.80003L7.87024 4.28003C8.38187 4.01072 8.91753 3.78976 9.47024 3.62003L9.60024 2.81003C9.66965 2.37024 9.89452 1.96993 10.234 1.68184C10.5735 1.39375 11.005 1.23698 11.4502 1.24003H12.5502C12.9969 1.23735 13.4297 1.39552 13.7694 1.68563C14.1091 1.97574 14.333 2.37841 14.4002 2.82003L14.5302 3.63003C15.0829 3.79976 15.6186 4.02072 16.1302 4.29003L16.7902 3.82003C17.1491 3.55736 17.5899 3.4312 18.0334 3.46418C18.4769 3.49717 18.8942 3.68716 19.2102 4.00003L19.9902 4.78003C20.3061 5.09361 20.4998 5.50957 20.5365 5.95316C20.5731 6.39674 20.4504 6.83886 20.1902 7.20003L19.7102 7.86003C19.9795 8.37167 20.2005 8.90732 20.3702 9.46003L21.1802 9.59003C21.62 9.65944 22.0203 9.88431 22.3084 10.2238C22.5965 10.5633 22.7533 10.9948 22.7502 11.44V12.54C22.7512 12.9847 22.5938 13.4152 22.306 13.7542C22.0183 14.0933 21.6192 14.3187 21.1802 14.39L20.3702 14.52C20.2005 15.0727 19.9795 15.6084 19.7102 16.12L20.1802 16.78C20.4476 17.139 20.5766 17.5823 20.5436 18.0286C20.5105 18.475 20.3176 18.8944 20.0002 19.21L19.2202 19.99C18.9065 20.3063 18.4896 20.4994 18.0455 20.5342C17.6014 20.5691 17.1595 20.4434 16.8002 20.18L16.1402 19.71C15.6286 19.9793 15.0929 20.2003 14.5402 20.37L14.4102 21.18C14.3386 21.6207 14.1118 22.0211 13.7706 22.3091C13.4295 22.597 12.9966 22.7534 12.5502 22.75ZM7.82024 18.06C7.9625 18.0596 8.10169 18.1014 8.22024 18.18C8.86737 18.5748 9.5727 18.865 10.3102 19.04C10.4544 19.075 10.5852 19.1514 10.6865 19.2598C10.7878 19.3682 10.8551 19.5038 10.8802 19.65L11.0802 20.94C11.0965 21.0266 11.1422 21.1048 11.2097 21.1613C11.2772 21.2179 11.3622 21.2492 11.4502 21.25H12.5502C12.6383 21.2492 12.7233 21.2179 12.7908 21.1613C12.8583 21.1048 12.904 21.0266 12.9202 20.94L13.1202 19.65C13.1453 19.5038 13.2127 19.3682 13.314 19.2598C13.4153 19.1514 13.5461 19.075 13.6902 19.04C14.4278 18.865 15.1331 18.5748 15.7802 18.18C15.9048 18.0975 16.0508 18.0534 16.2002 18.0534C16.3496 18.0534 16.4957 18.0975 16.6202 18.18L17.6702 18.94C17.7372 18.9971 17.8223 19.0284 17.9102 19.0284C17.9982 19.0284 18.0833 18.9971 18.1502 18.94L18.9302 18.16C18.9873 18.0931 19.0186 18.008 19.0186 17.92C19.0186 17.8321 18.9873 17.747 18.9302 17.68L18.1702 16.63C18.0877 16.5055 18.0436 16.3594 18.0436 16.21C18.0436 16.0606 18.0877 15.9145 18.1702 15.79C18.5555 15.138 18.8356 14.4293 19.0002 13.69C19.0352 13.5459 19.1116 13.4151 19.22 13.3138C19.3284 13.2125 19.464 13.1451 19.6102 13.12L20.9002 12.92C20.9868 12.9038 21.065 12.8581 21.1215 12.7906C21.1781 12.7231 21.2094 12.6381 21.2102 12.55V11.45C21.2114 11.3615 21.1808 11.2754 21.1239 11.2075C21.067 11.1396 20.9876 11.0944 20.9002 11.08L19.6102 10.88C19.464 10.8549 19.3284 10.7876 19.22 10.6863C19.1116 10.585 19.0352 10.4542 19.0002 10.31C18.8252 9.57249 18.535 8.86716 18.1402 8.22003C18.0577 8.09552 18.0136 7.94943 18.0136 7.80003C18.0136 7.65063 18.0577 7.50455 18.1402 7.38003L18.9002 6.38003C18.9573 6.31309 18.9886 6.228 18.9886 6.14003C18.9886 6.05207 18.9573 5.96698 18.9002 5.90003L18.1202 5.12003C18.0533 5.06298 17.9682 5.03164 17.8802 5.03164C17.7923 5.03164 17.7072 5.06298 17.6402 5.12003L16.5902 5.88003C16.4657 5.9626 16.3196 6.00663 16.1702 6.00663C16.0208 6.00663 15.8748 5.9626 15.7502 5.88003C15.1136 5.48117 14.4186 5.18425 13.6902 5.00003C13.5461 4.96509 13.4153 4.8887 13.314 4.78031C13.2127 4.67192 13.1453 4.53625 13.1202 4.39003L12.9202 3.10003C12.904 3.0135 12.8583 2.93528 12.7908 2.87874C12.7233 2.8222 12.6383 2.79084 12.5502 2.79003H11.4502C11.3622 2.79084 11.2772 2.8222 11.2097 2.87874C11.1422 2.93528 11.0965 3.0135 11.0802 3.10003L10.8802 4.39003C10.8551 4.53625 10.7878 4.67192 10.6865 4.78031C10.5852 4.8887 10.4544 4.96509 10.3102 5.00003C9.5727 5.17505 8.86737 5.46528 8.22024 5.86003C8.09573 5.9426 7.94964 5.98663 7.80024 5.98663C7.65084 5.98663 7.50475 5.9426 7.38024 5.86003L6.33024 5.00003C6.26329 4.94298 6.1782 4.91164 6.09024 4.91164C6.00227 4.91164 5.91719 4.94298 5.85024 5.00003L5.07024 5.78003C5.01318 5.84698 4.98184 5.93207 4.98184 6.02003C4.98184 6.108 5.01318 6.19309 5.07024 6.26003L5.83024 7.26003C5.9128 7.38455 5.95684 7.53063 5.95684 7.68003C5.95684 7.82943 5.9128 7.97552 5.83024 8.10003C5.43403 8.7861 5.15361 9.53277 5.00024 10.31C4.96529 10.4542 4.88891 10.585 4.78051 10.6863C4.67212 10.7876 4.53645 10.8549 4.39024 10.88L3.10024 11.08C3.01283 11.0944 2.93348 11.1396 2.87659 11.2075C2.81971 11.2754 2.78907 11.3615 2.79024 11.45V12.55C2.79105 12.6381 2.8224 12.7231 2.87895 12.7906C2.93549 12.8581 3.01371 12.9038 3.10024 12.92L4.39024 13.12C4.53645 13.1451 4.67212 13.2125 4.78051 13.3138C4.88891 13.4151 4.96529 13.5459 5.00024 13.69C5.17526 14.4276 5.46549 15.1329 5.86024 15.78C5.9428 15.9045 5.98684 16.0506 5.98684 16.2C5.98684 16.3494 5.9428 16.4955 5.86024 16.62L5.00024 17.67C4.94318 17.737 4.91184 17.8221 4.91184 17.91C4.91184 17.998 4.94318 18.0831 5.00024 18.15L5.78024 18.93C5.84719 18.9871 5.93227 19.0184 6.02024 19.0184C6.1082 19.0184 6.19329 18.9871 6.26024 18.93L7.26024 18.17C7.42512 18.061 7.62637 18.0215 7.82024 18.06ZM12.0002 16.25C11.1597 16.25 10.338 16.0008 9.63907 15.5338C8.94016 15.0668 8.39542 14.403 8.07375 13.6264C7.75208 12.8499 7.66791 11.9953 7.8319 11.1709C7.99589 10.3465 8.40066 9.5892 8.99503 8.99483C9.58941 8.40046 10.3467 7.99568 11.1711 7.8317C11.9955 7.66771 12.8501 7.75187 13.6266 8.07355C14.4032 8.39522 15.067 8.93995 15.534 9.63886C16.001 10.3378 16.2502 11.1595 16.2502 12C16.2476 13.1264 15.799 14.2059 15.0025 15.0023C14.2061 15.7988 13.1266 16.2474 12.0002 16.25ZM12.0002 9.25003C11.4563 9.25003 10.9247 9.41132 10.4724 9.71349C10.0202 10.0157 9.66771 10.4452 9.45957 10.9477C9.25143 11.4502 9.19697 12.0031 9.30308 12.5365C9.40919 13.07 9.6711 13.56 10.0557 13.9446C10.4403 14.3292 10.9303 14.5911 11.4637 14.6972C11.9972 14.8033 12.5501 14.7488 13.0526 14.5407C13.5551 14.3326 13.9846 13.9801 14.2868 13.5279C14.589 13.0756 14.7502 12.5439 14.7502 12C14.7502 11.2707 14.4605 10.5712 13.9448 10.0555C13.4291 9.53977 12.7296 9.25003 12.0002 9.25003Z" fill="black"/>
</svg>
