<svg width="24" height="24" viewBox="0 0 24 24" fill="none" xmlns="http://www.w3.org/2000/svg">
<path d="M18.1902 3.61009C17.2125 2.73039 16.058 2.07003 14.8041 1.67333C13.5502 1.27663 12.2259 1.15278 10.9202 1.31009C9.22987 1.50909 7.62661 2.16811 6.285 3.21537C4.94339 4.26262 3.91489 5.65796 3.31153 7.24938C2.70817 8.8408 2.55309 10.5673 2.86319 12.2408C3.17328 13.9142 3.93666 15.4705 5.07016 16.7401L9.42016 21.5901C9.74385 21.9547 10.1411 22.2466 10.5859 22.4464C11.0306 22.6463 11.5126 22.7497 12.0002 22.7497C12.4877 22.7497 12.9697 22.6463 13.4145 22.4464C13.8592 22.2466 14.2565 21.9547 14.5802 21.5901L18.9302 16.7401C20.5704 14.8995 21.4137 12.4836 21.275 10.0221C21.1362 7.56062 20.0268 5.25468 18.1902 3.61009ZM12.0002 21.2501C11.7228 21.248 11.4488 21.1883 11.1958 21.0747C10.9427 20.9611 10.716 20.796 10.5302 20.5901L6.19016 15.7401C5.23641 14.677 4.59329 13.3721 4.3311 11.9681C4.06892 10.5641 4.19776 9.1151 4.70355 7.77941C5.20933 6.44372 6.07259 5.27279 7.19896 4.39462C8.32533 3.51645 9.67145 2.96484 11.0902 2.80009C11.4002 2.80009 11.7102 2.80009 12.0202 2.80009C13.9317 2.80371 15.7739 3.51636 17.1902 4.80009C18.7288 6.17793 19.6582 8.10977 19.7744 10.1719C19.8906 12.234 19.1842 14.2581 17.8102 15.8001L13.4702 20.6501C13.2791 20.8452 13.0501 20.999 12.7972 21.1022C12.5444 21.2054 12.2732 21.2557 12.0002 21.2501ZM12.0002 6.59009C11.2069 6.59016 10.4316 6.82607 9.77277 7.26784C9.11393 7.70962 8.60132 8.33731 8.3001 9.07113C7.99887 9.80495 7.92263 10.6118 8.08107 11.389C8.23951 12.1663 8.62547 12.8789 9.18989 13.4363C9.75431 13.9936 10.4717 14.3706 11.2509 14.5192C12.0301 14.6679 12.8359 14.5815 13.5659 14.2711C14.2958 13.9606 14.917 13.4402 15.3505 12.7758C15.7839 12.1115 16.0101 11.3333 16.0002 10.5401C15.987 9.48792 15.5598 8.4833 14.8111 7.74393C14.0623 7.00457 13.0524 6.59001 12.0002 6.59009ZM12.0002 13.0001C11.5132 13.0021 11.0366 12.8595 10.6307 12.5904C10.2249 12.3213 9.90802 11.9378 9.7203 11.4884C9.53257 11.0391 9.48243 10.5442 9.57621 10.0663C9.67 9.58848 9.9035 9.14922 10.2471 8.80418C10.5908 8.45914 11.0291 8.22385 11.5065 8.12812C11.984 8.03239 12.4791 8.08051 12.9292 8.26641C13.3793 8.4523 13.7641 8.7676 14.0349 9.17236C14.3056 9.57712 14.4502 10.0531 14.4502 10.5401C14.4502 11.1908 14.1924 11.815 13.7332 12.2761C13.274 12.7371 12.6509 12.9974 12.0002 13.0001Z" fill="black"/>
</svg>
