<svg width="24" height="24" viewBox="0 0 24 24" fill="none" xmlns="http://www.w3.org/2000/svg">
<path d="M12 22.38C11.6869 22.3795 11.3775 22.3134 11.0916 22.1859C10.8056 22.0584 10.5496 21.8725 10.34 21.64L5.47999 16.2C4.34734 14.9431 3.60337 13.3849 3.33815 11.7139C3.07294 10.0429 3.29787 8.33084 3.9857 6.78506C4.67353 5.23928 5.79475 3.92606 7.21361 3.00443C8.63246 2.0828 10.2881 1.59229 11.98 1.59229C13.6719 1.59229 15.3275 2.0828 16.7464 3.00443C18.1652 3.92606 19.2864 5.23928 19.9743 6.78506C20.6621 8.33084 20.887 10.0429 20.6218 11.7139C20.3566 13.3849 19.6126 14.9431 18.48 16.2L13.62 21.64C13.4149 21.8675 13.1653 22.0506 12.8867 22.1779C12.6081 22.3052 12.3063 22.374 12 22.38ZM12 3.11997C11.7137 3.10035 11.4263 3.10035 11.14 3.11997C9.82773 3.27881 8.58387 3.79339 7.54292 4.60806C6.50198 5.42273 5.70356 6.50648 5.23402 7.74211C4.76448 8.97774 4.64169 10.3182 4.87892 11.6186C5.11615 12.919 5.70438 14.1297 6.57999 15.12L11.45 20.56C11.5171 20.6369 11.6001 20.6983 11.6934 20.7397C11.7867 20.7812 11.8879 20.8018 11.99 20.8C12.092 20.8018 12.1933 20.7812 12.2866 20.7397C12.3798 20.6983 12.4629 20.6369 12.53 20.56L17.4 15.12C18.6435 13.6919 19.2799 11.8346 19.1734 9.94404C19.0669 8.05347 18.226 6.27933 16.83 4.99997C15.5102 3.79379 13.7879 3.12341 12 3.11997ZM15 14.12H12.25V10.37C12.25 10.09 11.75 10.09 11.75 10.37V14.12H8.99999C8.53667 14.1173 8.09307 13.9321 7.76545 13.6045C7.43783 13.2769 7.25261 12.8333 7.24999 12.37V9.61997C7.24843 9.11232 7.36509 8.61128 7.59073 8.15653C7.81638 7.70178 8.1448 7.3058 8.54999 6.99997L10.93 5.20997C11.2397 4.98099 11.6148 4.85742 12 4.85742C12.3852 4.85742 12.7602 4.98099 13.07 5.20997L15.45 6.99997C15.8525 7.30377 16.1793 7.69654 16.4048 8.14758C16.6303 8.59861 16.7484 9.0957 16.75 9.59997V12.35C16.7513 12.5811 16.7071 12.8102 16.6198 13.0243C16.5326 13.2383 16.4041 13.4331 16.2416 13.5974C16.0791 13.7618 15.8858 13.8925 15.6728 13.9822C15.4597 14.0718 15.2311 14.1187 15 14.12ZM13.75 12.62H15C15.0663 12.62 15.1299 12.5936 15.1768 12.5467C15.2236 12.4999 15.25 12.4363 15.25 12.37V9.61997C15.25 9.34829 15.1867 9.08035 15.0652 8.83735C14.9437 8.59435 14.7673 8.38298 14.55 8.21997L12.17 6.42997C12.12 6.39557 12.0607 6.37716 12 6.37716C11.9393 6.37716 11.88 6.39557 11.83 6.42997L9.44999 8.21997C9.23264 8.38298 9.05624 8.59435 8.93474 8.83735C8.81324 9.08035 8.74999 9.34829 8.74999 9.61997V12.37C8.74999 12.4363 8.77632 12.4999 8.82321 12.5467C8.87009 12.5936 8.93368 12.62 8.99999 12.62H10.25V10.37C10.25 9.90584 10.4344 9.46072 10.7625 9.13254C11.0907 8.80435 11.5359 8.61997 12 8.61997C12.4641 8.61997 12.9092 8.80435 13.2374 9.13254C13.5656 9.46072 13.75 9.90584 13.75 10.37V12.62Z" fill="black"/>
</svg>
