<svg width="24" height="24" viewBox="0 0 24 24" fill="none" xmlns="http://www.w3.org/2000/svg">
<path d="M12 12.26C11.381 12.26 10.7758 12.0764 10.2611 11.7325C9.74635 11.3886 9.34517 10.8997 9.10827 10.3278C8.87137 9.75587 8.80938 9.12653 8.93015 8.51937C9.05093 7.91221 9.34903 7.3545 9.78677 6.91676C10.2245 6.47902 10.7822 6.18092 11.3894 6.06015C11.9965 5.93937 12.6259 6.00136 13.1978 6.23826C13.7697 6.47516 14.2586 6.87634 14.6025 7.39107C14.9464 7.9058 15.13 8.51095 15.13 9.13C15.13 9.96013 14.8002 10.7563 14.2133 11.3432C13.6263 11.9302 12.8301 12.26 12 12.26ZM12 7.5C11.6776 7.5 11.3625 7.5956 11.0944 7.77471C10.8264 7.95382 10.6175 8.20839 10.4941 8.50623C10.3707 8.80407 10.3384 9.13181 10.4013 9.448C10.4642 9.76419 10.6195 10.0546 10.8474 10.2826C11.0754 10.5105 11.3658 10.6658 11.682 10.7287C11.9982 10.7916 12.3259 10.7593 12.6238 10.6359C12.9216 10.5126 13.1762 10.3036 13.3553 10.0356C13.5344 9.76753 13.63 9.45239 13.63 9.13C13.6274 8.69851 13.4548 8.28544 13.1497 7.98032C12.8446 7.6752 12.4315 7.50263 12 7.5ZM16.32 14.72C16.4831 14.606 16.5942 14.4318 16.6289 14.2358C16.6636 14.0398 16.6191 13.8381 16.505 13.675C16.391 13.5119 16.2168 13.4008 16.0208 13.3661C15.8249 13.3314 15.6231 13.376 15.46 13.49C14.4211 14.1747 13.2042 14.5397 11.96 14.5397C10.7158 14.5397 9.49889 14.1747 8.46001 13.49C8.30115 13.3891 8.11014 13.3515 7.92489 13.3849C7.73964 13.4182 7.5737 13.52 7.46001 13.67C7.3474 13.8349 7.3042 14.0375 7.33976 14.234C7.37531 14.4304 7.48676 14.605 7.65001 14.72C9.01377 15.5796 10.5881 16.0467 12.2 16.07C13.6784 16.0476 15.1151 15.5768 16.32 14.72ZM8.71001 22.61C8.32573 22.6135 7.95302 22.4787 7.66001 22.23L5.46001 20.36C5.43654 20.3437 5.40862 20.3349 5.38001 20.3349C5.35141 20.3349 5.32349 20.3437 5.30001 20.36L3.91001 21.51C3.67642 21.7108 3.3895 21.8395 3.08415 21.8803C2.77881 21.9212 2.46817 21.8724 2.19001 21.74C1.90863 21.6112 1.67032 21.4041 1.50361 21.1434C1.3369 20.8827 1.24885 20.5795 1.25001 20.27V12.13C1.25001 9.27893 2.3826 6.54462 4.39861 4.52861C6.41463 2.51259 9.14893 1.38 12 1.38C14.8511 1.38 17.5854 2.51259 19.6014 4.52861C21.6174 6.54462 22.75 9.27893 22.75 12.13V20.27C22.7512 20.5795 22.6631 20.8827 22.4964 21.1434C22.3297 21.4041 22.0914 21.6112 21.81 21.74C21.5319 21.8724 21.2212 21.9212 20.9159 21.8803C20.6105 21.8395 20.3236 21.7108 20.09 21.51L18.7 20.35C18.6765 20.3337 18.6486 20.3249 18.62 20.3249C18.5914 20.3249 18.5635 20.3337 18.54 20.35L16.39 22.18C16.0963 22.4321 15.722 22.5706 15.335 22.5706C14.948 22.5706 14.5737 22.4321 14.28 22.18L12.13 20.35C12.108 20.3303 12.0795 20.3194 12.05 20.3194C12.0205 20.3194 11.992 20.3303 11.97 20.35L9.76001 22.23C9.46611 22.4771 9.09399 22.6118 8.71001 22.61ZM5.38001 18.82C5.74814 18.8318 6.1011 18.9694 6.38001 19.21L8.58001 21.08C8.60201 21.0997 8.63049 21.1106 8.66001 21.1106C8.68953 21.1106 8.71801 21.0997 8.74001 21.08L11 19.21C11.293 18.9606 11.6652 18.8237 12.05 18.8237C12.4348 18.8237 12.807 18.9606 13.1 19.21L15.25 21.04C15.272 21.0597 15.3005 21.0706 15.33 21.0706C15.3595 21.0706 15.388 21.0597 15.41 21.04L17.57 19.2C17.8623 18.9533 18.2325 18.8179 18.615 18.8179C18.9975 18.8179 19.3677 18.9533 19.66 19.2L21.05 20.36C21.0681 20.3755 21.0912 20.384 21.115 20.384C21.1388 20.384 21.1619 20.3755 21.18 20.36C21.2019 20.3515 21.2205 20.3363 21.2331 20.3165C21.2457 20.2967 21.2516 20.2734 21.25 20.25V12.13C21.25 9.67675 20.2755 7.32398 18.5407 5.58927C16.806 3.85456 14.4533 2.88 12 2.88C9.54676 2.88 7.19399 3.85456 5.45927 5.58927C3.72456 7.32398 2.75001 9.67675 2.75001 12.13V20.27C2.74843 20.2934 2.75436 20.3167 2.76696 20.3365C2.77955 20.3563 2.79814 20.3715 2.82001 20.38C2.83939 20.3925 2.86196 20.3991 2.88501 20.3991C2.90807 20.3991 2.93063 20.3925 2.95001 20.38L4.34001 19.2C4.63172 18.9559 4.99962 18.8214 5.38001 18.82Z" fill="black"/>
</svg>
