<svg width="24" height="24" viewBox="0 0 24 24" fill="none" xmlns="http://www.w3.org/2000/svg">
<path d="M19.84 5H18.71C18.7901 4.79619 18.8309 4.57901 18.83 4.36C18.8326 4.14037 18.7905 3.92251 18.7062 3.71966C18.622 3.5168 18.4974 3.3332 18.34 3.18L16.91 1.74C16.5969 1.42735 16.1725 1.25174 15.73 1.25174C15.2875 1.25174 14.8631 1.42735 14.55 1.74L12 4.29L9.45 1.74C9.13197 1.43678 8.70942 1.26762 8.27 1.26762C7.83058 1.26762 7.40803 1.43678 7.09 1.74L5.66 3.18C5.5026 3.3332 5.37799 3.5168 5.29375 3.71966C5.20952 3.92251 5.16741 4.14037 5.17 4.36C5.16913 4.57901 5.20985 4.79619 5.29 5H4.16C3.71974 5 3.29751 5.1749 2.9862 5.48621C2.67489 5.79752 2.5 6.21974 2.5 6.66V8.33C2.50062 8.60559 2.56943 8.87674 2.70029 9.11927C2.83115 9.3618 3.02 9.56818 3.25 9.72V19.12C3.25 20.081 3.63107 21.0028 4.30966 21.6833C4.98826 22.3637 5.909 22.7474 6.87 22.75H17.13C18.091 22.7474 19.0117 22.3637 19.6903 21.6833C20.3689 21.0028 20.75 20.081 20.75 19.12V9.72C20.98 9.56818 21.1688 9.3618 21.2997 9.11927C21.4306 8.87674 21.4994 8.60559 21.5 8.33V6.66C21.5 6.21974 21.3251 5.79752 21.0138 5.48621C20.7025 5.1749 20.2803 5 19.84 5ZM15.61 2.8C15.643 2.77049 15.6857 2.75417 15.73 2.75417C15.7743 2.75417 15.817 2.77049 15.85 2.8L17.28 4.24C17.3095 4.273 17.3258 4.31573 17.3258 4.36C17.3258 4.40428 17.3095 4.447 17.28 4.48L16.77 5H13.42L15.61 2.8ZM6.72 4.48C6.69048 4.447 6.67416 4.40428 6.67416 4.36C6.67416 4.31573 6.69048 4.273 6.72 4.24L8.15 2.8C8.18521 2.77548 8.22709 2.76234 8.27 2.76234C8.31291 2.76234 8.35479 2.77548 8.39 2.8L10.58 5H7.23L6.72 4.48ZM4 6.66C4 6.61757 4.01686 6.57687 4.04686 6.54687C4.07687 6.51686 4.11757 6.5 4.16 6.5H19.84C19.8824 6.5 19.9231 6.51686 19.9531 6.54687C19.9831 6.57687 20 6.61757 20 6.66V8.33C20.0001 8.37341 19.9835 8.4152 19.9538 8.44681C19.924 8.47842 19.8833 8.49745 19.84 8.5H4.16C4.11667 8.49745 4.07595 8.47842 4.04621 8.44681C4.01646 8.4152 3.99992 8.37341 4 8.33V6.66ZM9.74 10H14.26V15.09C14.2613 15.1352 14.2497 15.1798 14.2267 15.2187C14.2037 15.2577 14.1702 15.2893 14.13 15.31C14.0933 15.3354 14.0497 15.349 14.005 15.349C13.9603 15.349 13.9167 15.3354 13.88 15.31L13.12 14.8C12.7903 14.5786 12.4021 14.4604 12.005 14.4604C11.6079 14.4604 11.2197 14.5786 10.89 14.8L10.12 15.31C10.0833 15.3354 10.0397 15.349 9.995 15.349C9.95034 15.349 9.90675 15.3354 9.87 15.31C9.82981 15.2893 9.79629 15.2577 9.77329 15.2187C9.75029 15.1798 9.73875 15.1352 9.74 15.09V10ZM17.13 21.25H6.87C6.30682 21.2474 5.76761 21.0218 5.37032 20.6226C4.97303 20.2234 4.74999 19.6832 4.75 19.12V10H8.24V15.09C8.24 15.3207 8.28559 15.549 8.37416 15.762C8.46273 15.975 8.59253 16.1684 8.75609 16.331C8.91966 16.4936 9.11376 16.6223 9.32723 16.7097C9.54071 16.797 9.76935 16.8413 10 16.84C10.3548 16.8452 10.703 16.7442 11 16.55L11.76 16.04C11.8471 15.986 11.9475 15.9573 12.05 15.9573C12.1525 15.9573 12.2529 15.986 12.34 16.04L13.1 16.55C13.3637 16.723 13.6692 16.8216 13.9843 16.8352C14.2994 16.8488 14.6124 16.7771 14.89 16.6275C15.1677 16.4779 15.3997 16.256 15.5617 15.9854C15.7236 15.7148 15.8094 15.4054 15.81 15.09V10H19.3V19.12C19.3 19.4031 19.2437 19.6834 19.1341 19.9445C19.0246 20.2055 18.8641 20.4421 18.6621 20.6405C18.46 20.8388 18.2205 20.9948 17.9574 21.0995C17.6943 21.2042 17.4131 21.2553 17.13 21.25Z" fill="black"/>
</svg>
