<svg width="24" height="24" viewBox="0 0 24 24" fill="none" xmlns="http://www.w3.org/2000/svg">
<path d="M11.9999 1.5601C9.46781 1.56748 7.02466 2.49488 5.12545 4.16961C3.22624 5.84435 2.00042 8.15225 1.67626 10.6636C1.3521 13.1749 1.9517 15.7184 3.3634 17.8205C4.77511 19.9226 6.90268 21.44 9.34995 22.0901C11.3646 22.6304 13.4962 22.5432 15.4599 21.8401C17.7901 21.0288 19.7571 19.4178 21.0116 17.2932C22.2661 15.1686 22.7268 12.6681 22.3119 10.2359C21.8969 7.80376 20.6332 5.59746 18.7452 4.00902C16.8572 2.42059 14.4672 1.55289 11.9999 1.5601ZM14.7899 21.0001C13.2318 21.4869 11.5731 21.5558 9.97995 21.2001V19.2901C9.98036 19.1668 9.93426 19.0479 9.85085 18.957C9.76744 18.8662 9.65285 18.8102 9.52995 18.8001L7.92995 18.6301C7.79752 18.6114 7.66911 18.5708 7.54995 18.5101C7.31519 18.4057 7.12174 18.2263 6.99995 18.0001C6.92995 17.8301 6.85995 17.6901 6.77995 17.5301C6.88995 17.6601 6.99995 17.8101 7.11995 17.9801C7.2733 18.161 7.48596 18.2815 7.71995 18.3201C7.82274 18.335 7.92715 18.335 8.02995 18.3201L9.66995 18.1501C9.76437 18.1416 9.85431 18.1059 9.92886 18.0474C10.0034 17.9888 10.0594 17.9098 10.0899 17.8201C10.2367 17.4339 10.4773 17.0902 10.7899 16.8201C10.8835 16.7368 10.9519 16.6289 10.9872 16.5087C11.0226 16.3885 11.0235 16.2608 10.9899 16.1401C10.9539 16.0148 10.8831 15.9023 10.7858 15.8156C10.6885 15.7288 10.5685 15.6715 10.4399 15.6501C9.87055 15.5665 9.31535 15.405 8.78995 15.1701C8.12145 14.8921 7.55667 14.4119 7.17472 13.7968C6.79277 13.1817 6.61277 12.4626 6.65995 11.7401C6.66763 10.903 6.99705 10.101 7.57995 9.5001C7.6436 9.43564 7.68771 9.35447 7.70717 9.26599C7.72664 9.17751 7.72066 9.08533 7.68995 9.0001C7.47369 8.27051 7.42245 7.50195 7.53995 6.7501C8.26909 6.88209 8.94161 7.23055 9.46995 7.7501C9.51956 7.84332 9.59795 7.91801 9.69346 7.96306C9.78896 8.00811 9.89646 8.0211 9.99995 8.0001C11.5162 7.52009 13.1437 7.52009 14.6599 8.0001C14.7531 8.0311 14.8535 8.03337 14.948 8.00662C15.0425 7.97988 15.1268 7.92534 15.1899 7.8501C15.7134 7.37289 16.3448 7.02975 17.0299 6.8501C17.1818 7.53634 17.1715 8.24853 16.9999 8.9301C16.9815 9.0131 16.9838 9.09935 17.0064 9.18129C17.0291 9.26323 17.0715 9.33836 17.1299 9.4001C17.7485 9.99607 18.1077 10.8115 18.1299 11.6701C18.1299 13.7401 16.7799 15.1301 14.3299 15.5701C14.2014 15.5928 14.0822 15.6521 13.9865 15.7407C13.8907 15.8294 13.8225 15.9437 13.7899 16.0701C13.755 16.1916 13.7563 16.3206 13.7936 16.4414C13.8309 16.5622 13.9026 16.6695 13.9999 16.7501C14.261 16.9759 14.4704 17.2554 14.6136 17.5695C14.7568 17.8836 14.8306 18.2249 14.8299 18.5701L14.7899 21.0001ZM15.7899 20.6201V18.5701C15.7817 17.7869 15.5026 17.0308 14.9999 16.4301C17.5899 15.7801 19.0599 14.0701 19.0599 11.6701C19.0546 10.6517 18.6777 9.67025 17.9999 8.9101C18.1803 8.11352 18.1803 7.28669 17.9999 6.4901C17.9385 6.25114 17.7856 6.0459 17.5742 5.91868C17.3628 5.79146 17.1099 5.75247 16.8699 5.8101C16.0548 5.97744 15.2969 6.35296 14.6699 6.9001C13.145 6.48036 11.5349 6.48036 10.0099 6.9001C9.37101 6.34196 8.59398 5.96553 7.75995 5.8101C7.52404 5.75203 7.27478 5.78857 7.06547 5.91191C6.85617 6.03525 6.70343 6.2356 6.63995 6.4701C6.44617 7.30312 6.45302 8.17025 6.65995 9.0001C6.02979 9.73314 5.67601 10.6636 5.65995 11.6301C5.60921 12.5523 5.84541 13.4676 6.33606 14.2502C6.82671 15.0327 7.54771 15.644 8.39995 16.0001C8.82781 16.19 9.27328 16.3373 9.72995 16.4401C9.55994 16.6595 9.41566 16.8978 9.29995 17.1501L8.09995 17.2701H7.90995C7.74929 17.044 7.57214 16.8301 7.37995 16.6301C6.97725 16.2329 6.51917 15.8961 6.01995 15.6301C5.83931 15.5428 5.63314 15.5238 5.43961 15.5768C5.24608 15.6297 5.07827 15.751 4.96726 15.9181C4.85624 16.0852 4.80952 16.2869 4.83576 16.4858C4.86199 16.6848 4.9594 16.8675 5.10995 17.0001C5.39976 17.2495 5.65233 17.5391 5.85995 17.8601C5.96248 18.018 6.04955 18.1855 6.11995 18.3601C6.33414 18.7944 6.68564 19.1459 7.11995 19.3601C7.34522 19.475 7.58892 19.5495 7.83995 19.5801L8.99995 19.7401V20.9301C6.91264 20.2259 5.13732 18.814 3.98144 16.9387C2.82556 15.0634 2.3619 12.8429 2.67076 10.6618C2.97962 8.4807 4.04156 6.47627 5.67266 4.99566C7.30376 3.51504 9.40131 2.65149 11.6021 2.55454C13.8028 2.45759 15.9682 3.13335 17.7231 4.4648C19.4781 5.79624 20.7122 7.69953 21.2117 9.84504C21.7111 11.9906 21.4445 14.2432 20.458 16.2128C19.4715 18.1825 17.8272 19.7451 15.8099 20.6301L15.7899 20.6201Z" fill="black"/>
</svg>
