<svg width="24" height="24" viewBox="0 0 24 24" fill="none" xmlns="http://www.w3.org/2000/svg">
<path d="M20.6898 17.3L16.4998 7.45003C17.2259 7.23514 17.8508 6.76661 18.2606 6.12974C18.6703 5.49288 18.8377 4.73003 18.7323 3.9801C18.6269 3.23017 18.2557 2.54304 17.6863 2.0438C17.1168 1.54456 16.387 1.26642 15.6298 1.26003H8.37976C7.61927 1.24212 6.87799 1.50001 6.29283 1.98607C5.70768 2.47213 5.31818 3.15353 5.19629 3.9044C5.07439 4.65527 5.22834 5.42489 5.62968 6.0711C6.03103 6.71731 6.65266 7.19645 7.37976 7.42003L3.25976 17.42C3.01414 18.0088 2.91788 18.6492 2.97955 19.2841C3.04122 19.9191 3.25891 20.529 3.61324 21.0595C3.96757 21.59 4.44756 22.0247 5.01048 22.3249C5.57341 22.625 6.20181 22.7814 6.83976 22.78H17.0698C17.5519 22.7724 18.029 22.6811 18.4798 22.51C18.7716 22.39 19.0499 22.2391 19.3098 22.06C19.6998 21.7887 20.0385 21.4501 20.3098 21.06C20.6875 20.5173 20.9206 19.8872 20.987 19.2293C21.0535 18.5714 20.9512 17.9074 20.6898 17.3ZM14.9298 7.59003L16.6398 11.59C15.1432 11.4058 13.6252 11.6594 12.2698 12.32C11.4604 12.8021 10.5488 13.0868 9.60895 13.1511C8.66907 13.2153 7.72726 13.0574 6.85976 12.69L8.99976 7.59003H14.9298ZM6.70976 4.42003C6.70976 4.20119 6.75303 3.98451 6.83707 3.78246C6.92112 3.5804 7.04429 3.39696 7.1995 3.24268C7.3547 3.08841 7.53888 2.96634 7.74144 2.88351C7.94399 2.80068 8.16093 2.75871 8.37976 2.76003H15.6298C16.0491 2.79255 16.4407 2.98207 16.7263 3.29073C17.012 3.5994 17.1706 4.00447 17.1706 4.42503C17.1706 4.84559 17.012 5.25066 16.7263 5.55932C16.4407 5.86799 16.0491 6.05751 15.6298 6.09003H8.37976C7.93685 6.09003 7.51208 5.91408 7.1989 5.6009C6.88571 5.28771 6.70976 4.86294 6.70976 4.42003ZM6.87976 21.24C6.48943 21.2535 6.10193 21.1691 5.75259 20.9944C5.40325 20.8197 5.10319 20.5604 4.87976 20.24C4.77208 20.0729 4.68162 19.8954 4.60976 19.71C4.54179 19.53 4.49807 19.3416 4.47976 19.15C4.45046 18.7551 4.52275 18.3592 4.68976 18L6.27976 14.14C7.35757 14.5991 8.52919 14.7951 9.69773 14.7116C10.8663 14.6281 11.9982 14.2677 12.9998 13.66C14.3663 13.0299 15.9035 12.8716 17.3698 13.21L19.3698 17.88C19.52 18.2418 19.5793 18.6349 19.5427 19.025C19.506 19.415 19.3744 19.7901 19.1594 20.1176C18.9444 20.4451 18.6524 20.7149 18.3091 20.9036C17.9658 21.0923 17.5815 21.1941 17.1898 21.2H6.95976L6.87976 21.24Z" fill="black"/>
</svg>
