<svg width="24" height="24" viewBox="0 0 24 24" fill="none" xmlns="http://www.w3.org/2000/svg">
<path d="M21.75 10.3999L17.23 8.12989L4.39004 1.67989L3.91004 1.43989C3.63398 1.30175 3.32718 1.2365 3.0188 1.25036C2.71042 1.26421 2.4107 1.35671 2.14815 1.51905C1.88559 1.6814 1.66892 1.9082 1.51872 2.17789C1.36853 2.44758 1.28981 2.7512 1.29004 3.05989V20.9399C1.29004 21.4199 1.48074 21.8803 1.82018 22.2198C2.15962 22.5592 2.62 22.7499 3.10004 22.7499C3.38113 22.7503 3.65846 22.6853 3.91004 22.5599L21.75 13.6399C22.0513 13.4898 22.3047 13.2587 22.4818 12.9725C22.6589 12.6863 22.7528 12.3564 22.7528 12.0199C22.7528 11.6833 22.6589 11.3535 22.4818 11.0673C22.3047 10.7811 22.0513 10.55 21.75 10.3999ZM10.75 17.3999L7.84004 18.9099L13.68 13.0699L15.62 14.9999L10.75 17.3999ZM13.67 10.9999L7.83004 5.08989L15.62 8.99989L13.67 10.9999ZM2.93004 21.1999C2.88626 21.1723 2.85037 21.1339 2.82583 21.0883C2.8013 21.0428 2.78897 20.9916 2.79004 20.9399V3.05989C2.78897 3.00816 2.8013 2.95703 2.82583 2.91148C2.85037 2.86592 2.88626 2.82748 2.93004 2.79989C2.98598 2.78706 3.0441 2.78706 3.10004 2.79989H3.24004L3.61004 2.99989L12.61 11.9999L3.61004 20.9999L3.24004 21.1899C3.19345 21.2177 3.14056 21.2332 3.08633 21.235C3.0321 21.2367 2.97832 21.2246 2.93004 21.1999ZM21.08 12.2899L17.08 14.2899L14.74 11.9999L17 9.70989L21 11.7099C21.0533 11.734 21.098 11.7736 21.1284 11.8236C21.1587 11.8736 21.1732 11.9315 21.17 11.9899C21.1866 12.0432 21.1869 12.1002 21.1709 12.1537C21.1549 12.2071 21.1232 12.2546 21.08 12.2899Z" fill="black"/>
</svg>
