<svg width="24" height="24" viewBox="0 0 24 24" fill="none" xmlns="http://www.w3.org/2000/svg">
<path d="M11.9999 22.75C10.4485 22.7493 8.91568 22.4133 7.50638 21.7648C6.09709 21.1163 4.84468 20.1708 3.83501 18.993C2.82534 17.8152 2.08228 16.433 1.65679 14.9412C1.23129 13.4494 1.13341 11.8832 1.36986 10.35C1.64107 8.56528 2.35735 6.87763 3.45261 5.44269C4.54787 4.00776 5.98684 2.87173 7.6368 2.13942C9.28675 1.4071 11.0946 1.10207 12.8935 1.25246C14.6923 1.40286 16.4244 2.00384 17.9299 2.99996C18.1748 3.16331 18.3818 3.37725 18.5371 3.62738C18.6923 3.8775 18.7922 4.15799 18.8299 4.44996C18.8667 4.75546 18.8376 5.06532 18.7445 5.3586C18.6513 5.65188 18.4963 5.92175 18.2899 6.14996L17.3799 7.14996C17.0462 7.51209 16.5954 7.74477 16.1069 7.80697C15.6184 7.86918 15.1236 7.75691 14.7099 7.48996C14.0597 7.09843 13.3326 6.85195 12.5784 6.76738C11.8242 6.68281 11.0606 6.76215 10.3399 6.99996C9.44088 7.29626 8.64028 7.83321 8.025 8.55251C7.40972 9.2718 7.00329 10.1459 6.84986 11.08C6.64351 12.2739 6.85891 13.5024 7.45911 14.5548C8.05931 15.6073 9.00694 16.4183 10.1395 16.8486C11.2721 17.2789 12.5192 17.3019 13.6668 16.9135C14.8145 16.5251 15.7913 15.7496 16.4299 14.72H13.5599C13.0003 14.72 12.4636 14.4977 12.0679 14.102C11.6722 13.7063 11.4499 13.1696 11.4499 12.61V11.31C11.4499 10.7504 11.6722 10.2137 12.0679 9.81796C12.4636 9.42226 13.0003 9.19996 13.5599 9.19996H20.6399C21.1995 9.19996 21.7362 9.42226 22.1319 9.81796C22.5276 10.2137 22.7499 10.7504 22.7499 11.31V11.71C22.7499 16.86 18.5899 21.84 13.6599 22.58C13.1119 22.6805 12.5568 22.7373 11.9999 22.75ZM11.9999 2.74996C11.1901 2.75395 10.384 2.85807 9.59986 3.05996C7.32797 3.6911 5.38243 5.16515 4.16002 7.18146C2.93762 9.19777 2.53044 11.6045 3.02153 13.9107C3.51262 16.2169 4.86499 18.2489 6.80281 19.5923C8.74063 20.9356 11.1179 21.4892 13.4499 21.14C17.6799 20.5 21.2599 16.2 21.2599 11.75V11.35C21.2599 11.1882 21.1956 11.033 21.0812 10.9186C20.9668 10.8042 20.8116 10.74 20.6499 10.74H13.5599C13.3981 10.74 13.2429 10.8042 13.1285 10.9186C13.0141 11.033 12.9499 11.1882 12.9499 11.35V12.65C12.9499 12.8117 13.0141 12.9669 13.1285 13.0813C13.2429 13.1957 13.3981 13.26 13.5599 13.26H17.6299C17.7497 13.2607 17.8676 13.2901 17.9738 13.3458C18.0799 13.4015 18.1711 13.4818 18.2399 13.58C18.308 13.6798 18.3516 13.7943 18.3672 13.9142C18.3829 14.0341 18.3701 14.156 18.3299 14.27C17.8645 15.5799 17.005 16.7136 15.8693 17.5153C14.7336 18.317 13.3775 18.7473 11.9874 18.7472C10.5973 18.747 9.2413 18.3164 8.10578 17.5145C6.97027 16.7126 6.11094 15.5787 5.64588 14.2687C5.18082 12.9586 5.13284 11.5367 5.50854 10.1983C5.88424 8.85992 6.66518 7.6707 7.74406 6.79406C8.82293 5.91742 10.1468 5.39638 11.5338 5.30254C12.9207 5.20869 14.3027 5.54664 15.4899 6.26996C15.6074 6.35168 15.75 6.38945 15.8926 6.37666C16.0352 6.36386 16.1687 6.30131 16.2699 6.19996L17.1799 5.19996C17.2401 5.13048 17.2854 5.04935 17.3129 4.96161C17.3404 4.87387 17.3496 4.7814 17.3399 4.68996C17.3279 4.61224 17.3005 4.5377 17.2592 4.47073C17.218 4.40375 17.1638 4.34569 17.0999 4.29996C15.5875 3.29674 13.8147 2.75794 11.9999 2.74996Z" fill="black"/>
</svg>
