<svg width="24" height="24" viewBox="0 0 24 24" fill="none" xmlns="http://www.w3.org/2000/svg">
<path d="M21.78 22.64H7.59C5.90934 22.6374 4.29827 21.9685 3.10986 20.7801C1.92146 19.5917 1.25264 17.9807 1.25 16.3V2.06C1.25 1.84517 1.33534 1.63915 1.48724 1.48724C1.63915 1.33534 1.84517 1.25 2.06 1.25C2.27483 1.25 2.48085 1.33534 2.63276 1.48724C2.78466 1.63915 2.87 1.84517 2.87 2.06V16.3C2.87791 17.5475 3.37837 18.7414 4.2624 19.6217C5.14643 20.502 6.34244 20.9974 7.59 21H21.78C21.9948 21 22.2009 21.0853 22.3528 21.2372C22.5047 21.3891 22.59 21.5952 22.59 21.81C22.59 22.0248 22.5047 22.2309 22.3528 22.3828C22.2009 22.5347 21.9948 22.62 21.78 22.62V22.64ZM21.9 18.64V11.64C21.8777 11.4394 21.7823 11.2541 21.6319 11.1195C21.4816 10.9848 21.2868 10.9104 21.085 10.9104C20.8832 10.9104 20.6884 10.9848 20.5381 11.1195C20.3877 11.2541 20.2923 11.4394 20.27 11.64V18.64C20.2923 18.8406 20.3877 19.0259 20.5381 19.1605C20.6884 19.2952 20.8832 19.3696 21.085 19.3696C21.2868 19.3696 21.4816 19.2952 21.6319 19.1605C21.7823 19.0259 21.8777 18.8406 21.9 18.64ZM9.64 12.07L14 7.68C14.5502 7.12663 15.2047 6.6879 15.9257 6.38923C16.6466 6.09055 17.4196 5.93786 18.2 5.94C18.7304 5.94 19.2391 6.15071 19.6142 6.52579C19.9893 6.90086 20.2 7.40957 20.2 7.94C20.1961 8.05162 20.2141 8.16293 20.2532 8.26756C20.2923 8.3722 20.3516 8.46811 20.4277 8.54983C20.5815 8.71486 20.7946 8.81204 21.02 8.82C21.1316 8.82394 21.2429 8.80585 21.3476 8.76678C21.4522 8.7277 21.5481 8.6684 21.6298 8.59225C21.7949 8.43847 21.892 8.22543 21.9 8C21.8974 7.02839 21.5095 6.09748 20.8216 5.41138C20.1336 4.72528 19.2016 4.34 18.23 4.34C17.2377 4.33524 16.2545 4.52822 15.3376 4.90767C14.4208 5.28711 13.5887 5.84543 12.89 6.55L8.49 10.94C8.16189 11.2698 7.75102 11.5051 7.30055 11.6212C6.85008 11.7374 6.37665 11.73 5.93 11.6H5.82C5.61313 11.5417 5.39156 11.5679 5.20402 11.6729C5.01648 11.7779 4.87835 11.9531 4.82 12.16C4.76165 12.3669 4.78787 12.5884 4.89289 12.776C4.99791 12.9635 5.17313 13.1017 5.38 13.16H5.49C5.86673 13.271 6.25726 13.3282 6.65 13.33C7.20678 13.3271 7.75752 13.2143 8.27061 12.9981C8.78371 12.7819 9.24907 12.4665 9.64 12.07Z" fill="black"/>
</svg>
