<svg width="24" height="24" viewBox="0 0 24 24" fill="none" xmlns="http://www.w3.org/2000/svg">
<path d="M15.84 2.67C16.5702 2.67654 17.2919 2.82683 17.9639 3.1123C18.636 3.39778 19.2453 3.81283 19.7569 4.33378C20.2686 4.85472 20.6726 5.47134 20.946 6.14844C21.2193 6.82554 21.3566 7.54984 21.35 8.28V15.72C21.3525 16.6507 21.1258 17.5677 20.69 18.39C20.2232 19.273 19.5256 20.0128 18.6715 20.5305C17.8173 21.0483 16.8388 21.3246 15.84 21.33H8.16C7.16123 21.3246 6.18265 21.0483 5.32855 20.5305C4.47444 20.0128 3.77681 19.273 3.31 18.39C2.87421 17.5677 2.64754 16.6507 2.65 15.72V8.28C2.6434 7.54984 2.7807 6.82554 3.05404 6.14844C3.32737 5.47134 3.73141 4.85472 4.24306 4.33378C4.75472 3.81283 5.36398 3.39778 6.03605 3.1123C6.70812 2.82683 7.42984 2.67654 8.16 2.67H15.84ZM15.84 1.25H8.16C6.31913 1.27367 4.56168 2.0216 3.26833 3.3318C1.97498 4.642 1.24985 6.40897 1.25 8.25V15.69C1.25058 16.8575 1.53545 18.0073 2.08 19.04C2.66424 20.1473 3.53873 21.0747 4.60977 21.723C5.68082 22.3713 6.90805 22.7159 8.16 22.72H15.84C17.0919 22.7159 18.3192 22.3713 19.3902 21.723C20.4613 21.0747 21.3358 20.1473 21.92 19.04C22.4645 18.0073 22.7494 16.8575 22.75 15.69V8.28C22.7502 6.43897 22.025 4.672 20.7317 3.3618C19.4383 2.0516 17.6809 1.30367 15.84 1.28V1.25ZM8.74 17C9.07823 16.9878 9.40452 16.8719 9.67463 16.6679C9.94474 16.464 10.1456 16.1819 10.25 15.86L12.16 10.54C12.1773 10.4819 12.213 10.4311 12.2617 10.395C12.3103 10.3589 12.3694 10.3396 12.43 10.34C12.4909 10.337 12.5513 10.3526 12.6031 10.3847C12.6549 10.4169 12.6957 10.4641 12.72 10.52L13.54 12.4C13.821 13.0439 14.2818 13.593 14.8671 13.9815C15.4525 14.37 16.1375 14.5813 16.84 14.59H20C20.1883 14.59 20.3689 14.5152 20.502 14.382C20.6352 14.2489 20.71 14.0683 20.71 13.88C20.71 13.6917 20.6352 13.5111 20.502 13.378C20.3689 13.2448 20.1883 13.17 20 13.17H16.85C16.4231 13.1569 16.0087 13.0232 15.6548 12.7843C15.3008 12.5453 15.0218 12.211 14.85 11.82L14 9.93C13.8676 9.61324 13.6418 9.34433 13.3528 9.15906C13.0637 8.97378 12.7251 8.88094 12.382 8.89288C12.0389 8.90483 11.7075 9.02099 11.4321 9.22592C11.1566 9.43084 10.9501 9.7148 10.84 10.04L8.94 15.36C8.92269 15.4181 8.88702 15.4689 8.83833 15.505C8.78965 15.5411 8.73058 15.5604 8.67 15.56C8.60956 15.5686 8.54799 15.5565 8.49532 15.5256C8.44265 15.4948 8.402 15.4469 8.38 15.39L8.08 14.77C7.78644 14.1532 7.32478 13.6317 6.7481 13.2655C6.17141 12.8994 5.50311 12.7033 4.82 12.7H4.05C3.8617 12.7 3.6811 12.7748 3.54795 12.908C3.4148 13.0411 3.34 13.2217 3.34 13.41C3.34 13.5983 3.4148 13.7789 3.54795 13.912C3.6811 14.0452 3.8617 14.12 4.05 14.12H4.82C5.23901 14.1224 5.64887 14.2428 6.0026 14.4674C6.35633 14.6921 6.63962 15.0118 6.82 15.39L7.12 16.01C7.25128 16.3066 7.46561 16.5588 7.7371 16.7363C8.0086 16.9137 8.32566 17.0088 8.65 17.01L8.74 17Z" fill="black"/>
</svg>
