<svg width="24" height="24" viewBox="0 0 24 24" fill="none" xmlns="http://www.w3.org/2000/svg">
<path d="M15.84 2.67C16.5702 2.67654 17.2919 2.82683 17.9639 3.1123C18.636 3.39778 19.2453 3.81283 19.7569 4.33378C20.2686 4.85472 20.6726 5.47134 20.946 6.14844C21.2193 6.82554 21.3566 7.54984 21.35 8.28V15.72C21.3566 16.4502 21.2193 17.1745 20.946 17.8516C20.6726 18.5287 20.2686 19.1453 19.7569 19.6662C19.2453 20.1872 18.636 20.6022 17.9639 20.8877C17.2919 21.1732 16.5702 21.3235 15.84 21.33H8.16C7.42984 21.3235 6.70812 21.1732 6.03605 20.8877C5.36398 20.6022 4.75472 20.1872 4.24306 19.6662C3.73141 19.1453 3.32737 18.5287 3.05404 17.8516C2.7807 17.1745 2.6434 16.4502 2.65 15.72V8.28C2.6434 7.54984 2.7807 6.82554 3.05404 6.14844C3.32737 5.47134 3.73141 4.85472 4.24306 4.33378C4.75472 3.81283 5.36398 3.39778 6.03605 3.1123C6.70812 2.82683 7.42984 2.67654 8.16 2.67H15.84ZM15 16.6C15.0919 16.5987 15.1827 16.5793 15.2671 16.5429C15.3516 16.5065 15.428 16.4539 15.4921 16.3879C15.5561 16.322 15.6066 16.2441 15.6406 16.1587C15.6745 16.0732 15.6913 15.9819 15.69 15.89V7.55C15.7018 7.45173 15.6926 7.35208 15.6631 7.25761C15.6336 7.16315 15.5843 7.07602 15.5187 7.00197C15.453 6.92793 15.3724 6.86866 15.2821 6.82806C15.1918 6.78747 15.094 6.76648 14.995 6.76648C14.896 6.76648 14.7982 6.78747 14.7079 6.82806C14.6176 6.86866 14.537 6.92793 14.4713 7.00197C14.4057 7.07602 14.3564 7.16315 14.3269 7.25761C14.2974 7.35208 14.2882 7.45173 14.3 7.55V15.89C14.2987 15.9828 14.3158 16.0749 14.3504 16.1609C14.385 16.247 14.4363 16.3254 14.5015 16.3915C14.5666 16.4575 14.6442 16.51 14.7298 16.5458C14.8154 16.5816 14.9072 16.6 15 16.6ZM9.75 16.6C9.84277 16.6 9.93462 16.5816 10.0202 16.5458C10.1058 16.51 10.1834 16.4575 10.2485 16.3915C10.3137 16.3254 10.365 16.247 10.3996 16.1609C10.4342 16.0749 10.4513 15.9828 10.45 15.89V12.5C10.45 12.3143 10.3763 12.1363 10.245 12.005C10.1137 11.8737 9.93565 11.8 9.75 11.8C9.56435 11.8 9.3863 11.8737 9.25502 12.005C9.12375 12.1363 9.05 12.3143 9.05 12.5V15.89C9.04998 16.0766 9.12341 16.2557 9.25441 16.3885C9.3854 16.5214 9.56343 16.5974 9.75 16.6ZM15.84 1.25H8.16C6.31913 1.27367 4.56168 2.0216 3.26833 3.3318C1.97498 4.642 1.24985 6.40897 1.25 8.25V15.69C1.24985 17.531 1.97498 19.298 3.26833 20.6082C4.56168 21.9184 6.31913 22.6663 8.16 22.69H15.84C17.6809 22.6663 19.4383 21.9184 20.7317 20.6082C22.025 19.298 22.7502 17.531 22.75 15.69V8.28C22.7502 6.43897 22.025 4.672 20.7317 3.3618C19.4383 2.0516 17.6809 1.30367 15.84 1.28V1.25Z" fill="black"/>
</svg>
