<svg width="24" height="24" viewBox="0 0 24 24" fill="none" xmlns="http://www.w3.org/2000/svg">
<path d="M11.9999 16.88C12.0926 16.88 12.1845 16.8616 12.2701 16.8258C12.3557 16.79 12.4333 16.7375 12.4984 16.6715C12.5636 16.6054 12.6149 16.527 12.6495 16.441C12.6841 16.3549 12.7012 16.2628 12.6999 16.17V7.83C12.6999 7.64435 12.6261 7.46631 12.4949 7.33503C12.3636 7.20375 12.1855 7.13 11.9999 7.13C11.8142 7.13 11.6362 7.20375 11.5049 7.33503C11.3736 7.46631 11.2999 7.64435 11.2999 7.83V16.17C11.2986 16.2628 11.3157 16.3549 11.3503 16.441C11.3848 16.527 11.4362 16.6054 11.5013 16.6715C11.5665 16.7375 11.6441 16.79 11.7297 16.8258C11.8153 16.8616 11.9071 16.88 11.9999 16.88Z" fill="black"/>
<path d="M17.1801 14.41C17.2733 14.4087 17.3654 14.389 17.451 14.3521C17.5366 14.3152 17.6142 14.2618 17.6792 14.195C17.7442 14.1281 17.7954 14.0491 17.8299 13.9625C17.8643 13.8758 17.8814 13.7832 17.8801 13.69V10.3C17.8801 10.2081 17.8619 10.117 17.8268 10.0321C17.7916 9.94717 17.74 9.87 17.675 9.805C17.61 9.74 17.5329 9.68844 17.4479 9.65326C17.363 9.61808 17.272 9.59998 17.1801 9.59998C17.0881 9.59998 16.9971 9.61808 16.9122 9.65326C16.8272 9.68844 16.7501 9.74 16.6851 9.805C16.6201 9.87 16.5685 9.94717 16.5333 10.0321C16.4982 10.117 16.4801 10.2081 16.4801 10.3V13.69C16.4787 13.7832 16.4958 13.8758 16.5303 13.9625C16.5647 14.0491 16.6159 14.1281 16.6809 14.195C16.7459 14.2618 16.8235 14.3152 16.9091 14.3521C16.9947 14.389 17.0868 14.4087 17.1801 14.41Z" fill="black"/>
<path d="M6.76013 14.41C6.85337 14.4087 6.94544 14.389 7.03109 14.3521C7.11673 14.3152 7.19426 14.2618 7.25927 14.195C7.32427 14.1281 7.37547 14.0491 7.40993 13.9625C7.44439 13.8758 7.46145 13.7832 7.46013 13.69V10.3C7.46013 10.2081 7.44202 10.117 7.40685 10.0321C7.37167 9.94717 7.32011 9.87 7.2551 9.805C7.1901 9.74 7.11294 9.68844 7.02801 9.65326C6.94308 9.61808 6.85206 9.59998 6.76013 9.59998C6.6682 9.59998 6.57718 9.61808 6.49225 9.65326C6.40732 9.68844 6.33016 9.74 6.26516 9.805C6.20015 9.87 6.14859 9.94717 6.11341 10.0321C6.07824 10.117 6.06013 10.2081 6.06013 10.3V13.69C6.05881 13.7832 6.07587 13.8758 6.11033 13.9625C6.14479 14.0491 6.19599 14.1281 6.26099 14.195C6.326 14.2618 6.40353 14.3152 6.48917 14.3521C6.57482 14.389 6.66689 14.4087 6.76013 14.41Z" fill="black"/>
<path d="M16.18 2.75C16.8458 2.75 17.5051 2.88114 18.1202 3.13593C18.7353 3.39072 19.2942 3.76418 19.765 4.23497C20.2358 4.70576 20.6093 5.26467 20.8641 5.8798C21.1189 6.49492 21.25 7.1542 21.25 7.82V16.18C21.25 16.8458 21.1189 17.5051 20.8641 18.1202C20.6093 18.7353 20.2358 19.2942 19.765 19.765C19.2942 20.2358 18.7353 20.6093 18.1202 20.8641C17.5051 21.1189 16.8458 21.25 16.18 21.25H7.82C7.1542 21.25 6.49492 21.1189 5.8798 20.8641C5.26467 20.6093 4.70576 20.2358 4.23497 19.765C3.76418 19.2942 3.39072 18.7353 3.13593 18.1202C2.88114 17.5051 2.75 16.8458 2.75 16.18V7.82C2.75 6.47535 3.28416 5.18578 4.23497 4.23497C5.18578 3.28416 6.47535 2.75 7.82 2.75H16.18ZM16.18 1.25H7.82C6.07753 1.25 4.40642 1.94219 3.17431 3.17431C1.94219 4.40642 1.25 6.07753 1.25 7.82V16.18C1.25 17.9225 1.94219 19.5936 3.17431 20.8257C4.40642 22.0578 6.07753 22.75 7.82 22.75H16.18C17.9225 22.75 19.5936 22.0578 20.8257 20.8257C22.0578 19.5936 22.75 17.9225 22.75 16.18V7.82C22.75 6.07753 22.0578 4.40642 20.8257 3.17431C19.5936 1.94219 17.9225 1.25 16.18 1.25Z" fill="black"/>
</svg>
