<svg width="24" height="24" viewBox="0 0 24 24" fill="none" xmlns="http://www.w3.org/2000/svg">
<path d="M16.81 1.25H7.19C5.61461 1.25 4.10375 1.87582 2.98979 2.98979C1.87582 4.10375 1.25 5.61461 1.25 7.19V16.81C1.25 18.3854 1.87582 19.8962 2.98979 21.0102C4.10375 22.1242 5.61461 22.75 7.19 22.75H16.81C18.3854 22.75 19.8962 22.1242 21.0102 21.0102C22.1242 19.8962 22.75 18.3854 22.75 16.81V7.19C22.75 5.61461 22.1242 4.10375 21.0102 2.98979C19.8962 1.87582 18.3854 1.25 16.81 1.25ZM7.19 21.25C6.01244 21.25 4.88311 20.7822 4.05045 19.9496C3.21778 19.1169 2.75 17.9876 2.75 16.81V7.19C2.75 6.01244 3.21778 4.88311 4.05045 4.05045C4.88311 3.21778 6.01244 2.75 7.19 2.75H11.25V21.25H7.19ZM21.25 16.81C21.25 17.3931 21.1352 17.9704 20.912 18.5091C20.6889 19.0478 20.3618 19.5373 19.9496 19.9496C19.5373 20.3618 19.0478 20.6889 18.5091 20.912C17.9704 21.1352 17.3931 21.25 16.81 21.25H12.75V2.75H16.81C17.3931 2.75 17.9704 2.86484 18.5091 3.08797C19.0478 3.31111 19.5373 3.63815 19.9496 4.05045C20.3618 4.46274 20.6889 4.9522 20.912 5.49089C21.1352 6.02957 21.25 6.60693 21.25 7.19V16.81Z" fill="black"/>
</svg>
