<svg width="24" height="24" viewBox="0 0 24 24" fill="none" xmlns="http://www.w3.org/2000/svg">
<path d="M22.0002 3.63C21.724 3.32111 21.3868 3.07279 21.0099 2.90068C20.633 2.72857 20.2245 2.63641 19.8102 2.63H7.85021C7.55964 2.64844 7.2733 2.70907 7.00021 2.81L6.31021 1.67C6.24033 1.54281 6.13758 1.43673 6.01268 1.36285C5.88778 1.28896 5.74532 1.24999 5.60021 1.25H2.08021C1.87194 1.27269 1.6794 1.37149 1.53951 1.52744C1.39963 1.68339 1.32227 1.88551 1.32227 2.095C1.32227 2.30449 1.39963 2.50661 1.53951 2.66256C1.6794 2.81851 1.87194 2.91731 2.08021 2.94H5.13021L5.58021 3.74C5.16613 4.23459 4.91778 4.84671 4.87021 5.49L4.23021 14.38C4.19772 14.797 4.24912 15.2162 4.38137 15.6129C4.51362 16.0097 4.72404 16.3759 5.00021 16.69C5.27753 17.0001 5.61632 17.2492 5.99506 17.4213C6.3738 17.5935 6.78421 17.685 7.20021 17.69H19.1002C19.8689 17.6911 20.6087 17.3971 21.1669 16.8686C21.7251 16.3402 22.0592 15.6176 22.1002 14.85L22.7402 5.96C22.7789 5.54188 22.7334 5.12024 22.6063 4.72003C22.4792 4.31981 22.2731 3.94916 22.0002 3.63ZM19.8102 4.35C19.9978 4.34709 20.1839 4.3839 20.3562 4.45801C20.5286 4.53212 20.6833 4.64185 20.8102 4.78C20.932 4.9151 21.0257 5.07311 21.0858 5.2448C21.1459 5.41649 21.1712 5.59843 21.1602 5.78L21.0202 7.78H6.36021L6.52021 5.61C6.54051 5.27038 6.68925 4.95119 6.93624 4.7172C7.18323 4.48321 7.50998 4.35193 7.85021 4.35H19.8102ZM19.1202 16H7.22021C7.03197 16.001 6.84563 15.9624 6.67333 15.8865C6.50103 15.8107 6.34663 15.6995 6.22021 15.56C5.9761 15.2859 5.85028 14.9265 5.87021 14.56L6.23021 9.56H20.8302L20.4602 14.79C20.4235 15.1207 20.2669 15.4265 20.02 15.6494C19.773 15.8724 19.4529 15.9971 19.1202 16ZM10.8202 21C10.8143 21.3428 10.7072 21.6762 10.5125 21.9584C10.3177 22.2405 10.044 22.4589 9.72555 22.586C9.40713 22.7131 9.05826 22.7433 8.72273 22.6728C8.3872 22.6023 8.07998 22.4343 7.83963 22.1898C7.59928 21.9453 7.43651 21.6353 7.37177 21.2986C7.30703 20.9619 7.34319 20.6136 7.47572 20.2974C7.60826 19.9812 7.83125 19.7112 8.1167 19.5213C8.40216 19.3314 8.73735 19.2301 9.08021 19.23C9.31087 19.2313 9.539 19.2782 9.75148 19.368C9.96395 19.4578 10.1566 19.5887 10.3183 19.7532C10.48 19.9177 10.6076 20.1125 10.6937 20.3265C10.7799 20.5404 10.8228 20.7693 10.8202 21ZM18.6202 21C18.6123 21.3403 18.5042 21.6708 18.3094 21.95C18.1146 22.2292 17.8417 22.4447 17.525 22.5695C17.2083 22.6943 16.8618 22.7229 16.5288 22.6517C16.1959 22.5805 15.8914 22.4127 15.6535 22.1692C15.4155 21.9258 15.2547 21.6175 15.1911 21.2831C15.1275 20.9486 15.164 20.6028 15.2961 20.289C15.4281 19.9753 15.6498 19.7074 15.9334 19.519C16.2169 19.3306 16.5498 19.2301 16.8902 19.23C17.12 19.2326 17.3471 19.2805 17.5584 19.3708C17.7697 19.4612 17.9612 19.5923 18.1218 19.7567C18.2825 19.921 18.4092 20.1154 18.4947 20.3288C18.5802 20.5421 18.6228 20.7702 18.6202 21Z" fill="black"/>
</svg>
