<svg width="24" height="24" viewBox="0 0 24 24" fill="none" xmlns="http://www.w3.org/2000/svg">
<path d="M12 22.75C9.87386 22.75 7.79545 22.1195 6.02762 20.9383C4.2598 19.7571 2.88194 18.0782 2.0683 16.1139C1.25466 14.1495 1.04177 11.9881 1.45656 9.90278C1.87135 7.81749 2.89519 5.90202 4.39861 4.39861C5.90202 2.89519 7.81749 1.87135 9.90278 1.45656C11.9881 1.04177 14.1495 1.25466 16.1139 2.0683C18.0782 2.88194 19.7571 4.2598 20.9383 6.02762C22.1195 7.79545 22.75 9.87386 22.75 12C22.7474 14.8503 21.6139 17.583 19.5985 19.5985C17.583 21.6139 14.8503 22.7474 12 22.75ZM12 2.75C10.1705 2.75 8.38213 3.29251 6.86098 4.30891C5.33983 5.32531 4.15423 6.76997 3.45412 8.46018C2.75401 10.1504 2.57083 12.0103 2.92774 13.8046C3.28465 15.5989 4.16563 17.2471 5.45927 18.5407C6.7529 19.8344 8.40109 20.7154 10.1954 21.0723C11.9897 21.4292 13.8496 21.246 15.5398 20.5459C17.23 19.8458 18.6747 18.6602 19.6911 17.139C20.7075 15.6179 21.25 13.8295 21.25 12C21.2474 9.54756 20.272 7.19633 18.5378 5.46219C16.8037 3.72805 14.4524 2.75265 12 2.75ZM16.38 16.83C16.5336 16.7193 16.6389 16.5539 16.6742 16.3679C16.7096 16.1818 16.6723 15.9894 16.57 15.83C16.4609 15.6744 16.2953 15.5674 16.1086 15.532C15.9218 15.4965 15.7286 15.5352 15.57 15.64C14.5239 16.3349 13.2959 16.7055 12.04 16.7055C10.7841 16.7055 9.55615 16.3349 8.51 15.64C8.35184 15.5367 8.16016 15.4978 7.97423 15.5313C7.7883 15.5647 7.62222 15.668 7.51 15.82C7.41131 15.9795 7.3751 16.1699 7.40833 16.3545C7.44156 16.5391 7.54188 16.7049 7.69 16.82C9.05981 17.6732 10.6364 18.1365 12.25 18.16C13.73 18.1474 15.1708 17.6834 16.38 16.83Z" fill="black"/>
</svg>
