<svg width="24" height="24" viewBox="0 0 24 24" fill="none" xmlns="http://www.w3.org/2000/svg">
<path d="M12.3598 21.8C11.9667 21.795 11.5788 21.71 11.2198 21.55C8.87978 20.48 1.21978 16.43 1.34978 9.05998C1.3486 7.55064 1.84741 6.08341 2.76829 4.88753C3.68916 3.69166 4.98023 2.8345 6.43978 2.44998C7.41607 2.18925 8.43594 2.13461 9.4345 2.28956C10.4331 2.44451 11.3884 2.80565 12.2398 3.34998C12.2546 3.36405 12.2743 3.37189 12.2948 3.37189C12.3152 3.37189 12.3349 3.36405 12.3498 3.34998C13.2756 2.75405 14.3249 2.37679 15.4182 2.24684C16.5115 2.11689 17.6201 2.23766 18.6598 2.59998C19.9842 3.07197 21.1323 3.93841 21.9493 5.08267C22.7664 6.22692 23.2133 7.59405 23.2298 8.99998C23.0898 17.25 15.6198 20.73 13.3398 21.61C13.0273 21.7319 12.6952 21.7963 12.3598 21.8ZM8.35978 3.70998C7.84384 3.7091 7.32983 3.77293 6.82978 3.89998C5.68119 4.19772 4.66448 4.86953 3.94016 5.80934C3.21583 6.74915 2.82515 7.90344 2.82978 9.08998C2.71978 15.54 9.68978 19.21 11.8298 20.18C11.9872 20.25 12.1575 20.2862 12.3298 20.2862C12.502 20.2862 12.6724 20.25 12.8298 20.18C14.8998 19.4 21.6398 16.27 21.7598 8.95998C21.7361 7.87058 21.3834 6.81382 20.748 5.92858C20.1127 5.04333 19.2243 4.37102 18.1998 3.99998C17.3757 3.71557 16.4981 3.62091 15.6323 3.72307C14.7665 3.82523 13.935 4.12157 13.1998 4.58998C12.9426 4.7582 12.642 4.8478 12.3348 4.8478C12.0275 4.8478 11.7269 4.7582 11.4698 4.58998C10.5352 3.9963 9.4468 3.6903 8.33978 3.70998H8.35978Z" fill="black"/>
</svg>
