<svg width="24" height="24" viewBox="0 0 24 24" fill="none" xmlns="http://www.w3.org/2000/svg">
<path d="M12 22.75C9.87386 22.75 7.79545 22.1195 6.02762 20.9383C4.2598 19.7571 2.88194 18.0782 2.0683 16.1139C1.25466 14.1495 1.04177 11.9881 1.45656 9.90278C1.87135 7.81749 2.89519 5.90202 4.39861 4.39861C5.90202 2.89519 7.81749 1.87135 9.90278 1.45656C11.9881 1.04177 14.1495 1.25466 16.1139 2.0683C18.0782 2.88194 19.7571 4.2598 20.9383 6.02762C22.1195 7.79545 22.75 9.87386 22.75 12C22.7474 14.8503 21.6139 17.583 19.5985 19.5985C17.583 21.6139 14.8503 22.7474 12 22.75ZM12 2.75C10.1705 2.75 8.38213 3.29251 6.86098 4.30891C5.33983 5.32531 4.15423 6.76997 3.45412 8.46018C2.75401 10.1504 2.57083 12.0103 2.92774 13.8046C3.28465 15.5989 4.16563 17.2471 5.45927 18.5407C6.7529 19.8344 8.40109 20.7154 10.1954 21.0723C11.9897 21.4292 13.8496 21.246 15.5398 20.5459C17.23 19.8458 18.6747 18.6602 19.6911 17.139C20.7075 15.6179 21.25 13.8295 21.25 12C21.2474 9.54756 20.272 7.19633 18.5378 5.46219C16.8037 3.72805 14.4524 2.75265 12 2.75ZM12.06 17.44C11.693 17.4418 11.3305 17.3597 11 17.2C9.42 16.44 5.76 14.26 5.82 10.43C5.83165 9.55233 6.13167 8.70284 6.67381 8.01252C7.21595 7.3222 7.9701 6.82937 8.82 6.61C9.84657 6.35738 10.9304 6.49643 11.86 7C11.9016 7.0219 11.948 7.03334 11.995 7.03334C12.042 7.03334 12.0884 7.0219 12.13 7C12.644 6.72853 13.2078 6.56458 13.7872 6.51816C14.3666 6.47174 14.9494 6.54382 15.5 6.73C16.2723 7.00221 16.9425 7.5049 17.42 8.17016C17.8974 8.83542 18.1593 9.6312 18.17 10.45C18.1 14.72 14.51 16.66 12.98 17.3C12.685 17.4045 12.3728 17.4521 12.06 17.44ZM9.9 8C9.65408 8.00271 9.40922 8.0329 9.17 8.09C8.64239 8.22918 8.17571 8.53916 7.84283 8.97153C7.50996 9.40391 7.32963 9.93434 7.33 10.48C7.33 13.48 10.33 15.25 11.66 15.88C11.7765 15.9318 11.9025 15.9586 12.03 15.9586C12.1575 15.9586 12.2835 15.9318 12.4 15.88C13.67 15.35 16.61 13.76 16.67 10.39C16.6495 9.88831 16.4795 9.40419 16.182 8.99974C15.8844 8.59529 15.4728 8.28895 15 8.12C14.644 7.99239 14.2652 7.9407 13.8881 7.96826C13.5109 7.99581 13.1437 8.10201 12.81 8.28C12.5516 8.41831 12.2631 8.49067 11.97 8.49067C11.6769 8.49067 11.3884 8.41831 11.13 8.28C10.7491 8.0875 10.3267 7.99136 9.9 8Z" fill="black"/>
</svg>
