<svg width="24" height="24" viewBox="0 0 24 24" fill="none" xmlns="http://www.w3.org/2000/svg">
<path d="M19.7299 22.74H16.3299C15.5342 22.74 14.7711 22.4239 14.2085 21.8613C13.6459 21.2987 13.3299 20.5357 13.3299 19.74V15.27C13.329 15.0786 13.2859 14.8897 13.2036 14.7169C13.1213 14.544 13.0019 14.3915 12.8538 14.2702C12.7057 14.1488 12.5327 14.0617 12.347 14.015C12.1614 13.9683 11.9677 13.9632 11.7799 14C11.4679 14.0679 11.1898 14.2433 10.9941 14.4956C10.7985 14.7479 10.6979 15.061 10.7099 15.38V19.7C10.7099 20.4957 10.3938 21.2587 9.83118 21.8213C9.26857 22.3839 8.50551 22.7 7.70986 22.7H4.26986C3.47421 22.7 2.71115 22.3839 2.14854 21.8213C1.58593 21.2587 1.26986 20.4957 1.26986 19.7V11.33C1.2615 10.5939 1.41168 9.86457 1.71019 9.19162C2.0087 8.51868 2.44855 7.91787 2.99986 7.43L8.75986 2.43C9.66411 1.66067 10.8126 1.2382 11.9999 1.2382C13.1871 1.2382 14.3356 1.66067 15.2399 2.43L20.9899 7.43C21.548 7.91298 21.9958 8.51028 22.3029 9.18144C22.61 9.85259 22.7692 10.5819 22.7699 11.32V19.7C22.7752 20.1007 22.7003 20.4984 22.5494 20.8697C22.3985 21.241 22.1748 21.5782 21.8915 21.8616C21.6081 22.145 21.2708 22.3687 20.8996 22.5196C20.5283 22.6704 20.1306 22.7454 19.7299 22.74ZM11.9999 12.49C12.7381 12.49 13.4462 12.7826 13.9692 13.3036C14.4921 13.8247 14.7872 14.5318 14.7899 15.27V19.7C14.7899 20.1084 14.9521 20.5001 15.2409 20.7889C15.5297 21.0778 15.9214 21.24 16.3299 21.24H19.7299C19.9329 21.2413 20.1343 21.2025 20.3223 21.1257C20.5103 21.0489 20.6812 20.9356 20.8253 20.7925C20.9693 20.6494 21.0837 20.4792 21.1617 20.2917C21.2397 20.1042 21.2799 19.9031 21.2799 19.7V11.32C21.2769 10.7951 21.1611 10.2769 20.9402 9.8007C20.7194 9.32449 20.3987 8.90135 19.9999 8.56L14.2499 3.56C13.6198 3.02191 12.8184 2.72628 11.9899 2.72628C11.1613 2.72628 10.3599 3.02191 9.72986 3.56L3.99986 8.57C3.60031 8.91011 3.27971 9.33323 3.06037 9.80989C2.84104 10.2866 2.72825 10.8053 2.72986 11.33V19.7C2.72986 19.9031 2.77002 20.1042 2.84804 20.2917C2.92605 20.4792 3.04038 20.6494 3.18445 20.7925C3.32851 20.9356 3.49946 21.0489 3.68746 21.1257C3.87546 21.2025 4.07679 21.2413 4.27986 21.24H7.67986C8.08656 21.2374 8.4757 21.0739 8.76235 20.7854C9.04899 20.4969 9.20987 20.1067 9.20986 19.7V15.38C9.20215 14.706 9.4311 14.0506 9.85685 13.528C10.2826 13.0054 10.8782 12.6487 11.5399 12.52C11.6924 12.4997 11.846 12.4897 11.9999 12.49Z" fill="black"/>
</svg>
