<svg width="24" height="24" viewBox="0 0 24 24" fill="none" xmlns="http://www.w3.org/2000/svg">
<path d="M6.35983 22.57C5.32307 22.5696 4.32256 22.1885 3.54829 21.4991C2.77402 20.8096 2.27992 19.8598 2.15983 18.83L1.27983 11.32C1.19815 10.5958 1.30322 9.86264 1.58504 9.19047C1.86686 8.5183 2.31605 7.92946 2.88983 7.48001L9.58983 2.31001C10.355 1.7251 11.2962 1.41742 12.2591 1.43741C13.222 1.45739 14.1496 1.80385 14.8898 2.42001L21.2398 7.77001C21.8043 8.2431 22.2352 8.85569 22.4896 9.5469C22.7439 10.2381 22.813 10.9839 22.6898 11.71L21.4398 19C21.2744 19.9838 20.7657 20.8771 20.0042 21.5215C19.2426 22.1659 18.2774 22.5197 17.2798 22.52H6.36983L6.35983 22.57ZM12.1698 2.94001C11.5663 2.93552 10.9786 3.1326 10.4998 3.50001L3.80983 8.67001C3.44674 8.96261 3.16433 9.34303 2.98933 9.77526C2.81434 10.2075 2.75256 10.6772 2.80983 11.14L3.68983 18.66C3.76818 19.3238 4.08734 19.9358 4.58683 20.38C5.08631 20.8242 5.7314 21.0697 6.39983 21.07H17.3098C17.9574 21.071 18.5841 20.8409 19.0772 20.4212C19.5703 20.0014 19.8975 19.4195 19.9998 18.78L21.2498 11.46C21.3296 10.9908 21.2858 10.5089 21.1228 10.0618C20.9597 9.61463 20.683 9.21768 20.3198 8.91001L13.9298 3.57001C13.4347 3.16094 12.8121 2.93806 12.1698 2.94001ZM11.9998 16.41C11.3428 16.41 10.7005 16.215 10.1543 15.8498C9.60811 15.4845 9.18259 14.9654 8.9316 14.3582C8.68062 13.751 8.61545 13.0829 8.74437 12.4386C8.87329 11.7943 9.19048 11.2028 9.65579 10.7389C10.1211 10.275 10.7136 9.95956 11.3583 9.83259C12.003 9.70562 12.6708 9.7728 13.2773 10.0256C13.8838 10.2784 14.4016 10.7055 14.7652 11.2528C15.1288 11.8001 15.3218 12.443 15.3198 13.1C15.3172 13.9788 14.9662 14.8207 14.3439 15.4411C13.7216 16.0616 12.8786 16.41 11.9998 16.41ZM11.9998 11.28C11.6399 11.28 11.288 11.3868 10.9887 11.5867C10.6894 11.7867 10.4561 12.071 10.3184 12.4035C10.1806 12.7361 10.1446 13.102 10.2148 13.4551C10.285 13.8081 10.4584 14.1324 10.7129 14.3869C10.9674 14.6415 11.2917 14.8148 11.6448 14.885C11.9978 14.9553 12.3637 14.9192 12.6963 14.7815C13.0289 14.6437 13.3131 14.4104 13.5131 14.1112C13.7131 13.8119 13.8198 13.46 13.8198 13.1C13.8198 12.861 13.7727 12.6243 13.6813 12.4035C13.5898 12.1827 13.4558 11.9821 13.2868 11.8131C13.1178 11.6441 12.9171 11.51 12.6963 11.4186C12.4755 11.3271 12.2388 11.28 11.9998 11.28Z" fill="black"/>
</svg>
