<svg width="24" height="24" viewBox="0 0 24 24" fill="none" xmlns="http://www.w3.org/2000/svg">
<path d="M18.0002 22.74H6.00023C5.37404 22.7466 4.75277 22.6288 4.17245 22.3935C3.59214 22.1581 3.06435 21.8098 2.61968 21.3689C2.17502 20.928 1.82234 20.4031 1.58211 19.8248C1.34187 19.2465 1.21887 18.6262 1.22023 18V12.34C1.23327 11.2908 1.47018 10.2566 1.91512 9.30635C2.36005 8.35612 3.00275 7.51185 3.80023 6.83L8.91023 2.42C9.78311 1.66294 10.8998 1.24615 12.0552 1.24615C13.2107 1.24615 14.3273 1.66294 15.2002 2.42L20.2702 6.9C21.0605 7.59234 21.6934 8.44586 22.1263 9.40316C22.5593 10.3605 22.7822 11.3994 22.7802 12.45V18.07C22.7763 18.6876 22.6496 19.2983 22.4075 19.8666C22.1655 20.4348 21.8129 20.9493 21.3702 21.38C20.9256 21.8172 20.399 22.1624 19.8207 22.3958C19.2425 22.6292 18.6238 22.7461 18.0002 22.74ZM15.0002 21.24H18.0002C18.8562 21.2437 19.6792 20.9095 20.2902 20.31C20.6013 20.0228 20.8504 19.6751 21.0224 19.2882C21.1943 18.9013 21.2855 18.4834 21.2902 18.06V12.44C21.293 11.6044 21.1158 10.7781 20.7706 10.0171C20.4255 9.25616 19.9206 8.57843 19.2902 8.03L14.2102 3.57C13.6095 3.05265 12.843 2.76809 12.0502 2.76809C11.2574 2.76809 10.491 3.05265 9.89023 3.57L4.78023 8C4.15212 8.54817 3.64866 9.22445 3.30369 9.98339C2.95871 10.7423 2.78023 11.5663 2.78023 12.4V18.06C2.79335 18.9053 3.13839 19.7115 3.74084 20.3046C4.34329 20.8977 5.15482 21.2301 6.00023 21.23H15.0002V21.24ZM16.7202 18.4C16.7202 18.2011 16.6412 18.0103 16.5006 17.8697C16.3599 17.729 16.1691 17.65 15.9702 17.65H8.00023C7.80131 17.65 7.61055 17.729 7.4699 17.8697C7.32924 18.0103 7.25023 18.2011 7.25023 18.4C7.25023 18.5989 7.32924 18.7897 7.4699 18.9303C7.61055 19.071 7.80131 19.15 8.00023 19.15H16.0002C16.1897 19.1402 16.3686 19.0598 16.5019 18.9247C16.6351 18.7896 16.713 18.6096 16.7202 18.42V18.4Z" fill="black"/>
</svg>
