<svg width="24" height="24" viewBox="0 0 24 24" fill="none" xmlns="http://www.w3.org/2000/svg">
<path d="M18.0001 22.73C16.9001 22.73 14.4501 22.73 12.0001 22.73H6.00006C5.37494 22.7346 4.75513 22.615 4.17662 22.3781C3.5981 22.1412 3.07241 21.7917 2.63006 21.35C2.17753 20.9179 1.81813 20.3978 1.57394 19.8217C1.32975 19.2456 1.20592 18.6257 1.21006 18V12.34C1.22039 11.2889 1.45604 10.2523 1.90111 9.30007C2.34618 8.34782 2.99032 7.50212 3.79006 6.82001L8.89006 2.41001C9.76639 1.6561 10.8841 1.24149 12.0401 1.24149C13.1961 1.24149 14.3137 1.6561 15.1901 2.41001L20.2601 6.86001C21.049 7.55286 21.6804 8.4067 22.1116 9.36405C22.5428 10.3214 22.764 11.36 22.7601 12.41V18.03C22.7606 18.6483 22.636 19.2604 22.3937 19.8293C22.1514 20.3981 21.7964 20.912 21.3501 21.34C20.9109 21.7812 20.3888 22.1311 19.8139 22.3696C19.239 22.6082 18.6225 22.7307 18.0001 22.73ZM15.0001 21.23H18.0001C18.8589 21.2331 19.6847 20.8992 20.3001 20.3C20.6007 20.0074 20.8396 19.6576 21.0028 19.2712C21.166 18.8847 21.25 18.4695 21.2501 18.05V12.43C21.2508 11.5948 21.0728 10.769 20.7278 10.0084C20.3828 9.24769 19.8789 8.5697 19.2501 8.02001L14.2001 3.57001C13.5986 3.04997 12.8301 2.76378 12.0351 2.76378C11.24 2.76378 10.4715 3.04997 9.87006 3.57001L4.77006 8.00001L4.28006 7.43001L4.77006 8.00001C4.14196 8.54817 3.63849 9.22446 3.29352 9.9834C2.94855 10.7423 2.77006 11.5663 2.77006 12.4V18.06C2.76727 18.4796 2.84807 18.8955 3.00774 19.2836C3.16741 19.6716 3.40277 20.0239 3.70006 20.32C4.32076 20.9073 5.14561 21.2301 6.00006 21.22H15.0001V21.23ZM12.7501 19.1V16.24C12.7501 16.0411 12.671 15.8503 12.5304 15.7097C12.3897 15.569 12.199 15.49 12.0001 15.49C11.8011 15.49 11.6104 15.569 11.4697 15.7097C11.3291 15.8503 11.2501 16.0411 11.2501 16.24V19.1C11.2501 19.2989 11.3291 19.4897 11.4697 19.6303C11.6104 19.771 11.8011 19.85 12.0001 19.85C12.199 19.85 12.3897 19.771 12.5304 19.6303C12.671 19.4897 12.7501 19.2989 12.7501 19.1Z" fill="black"/>
</svg>
