<svg width="24" height="24" viewBox="0 0 24 24" fill="none" xmlns="http://www.w3.org/2000/svg">
<path d="M12.0002 22.75C11.6954 22.7517 11.3921 22.7079 11.1002 22.62L6.35023 21.26C5.72501 21.0822 5.16721 20.7216 4.74847 20.2245C4.32972 19.7273 4.06916 19.1163 4.00023 18.47L2.59023 4.84001C2.54614 4.38768 2.59623 3.93113 2.73737 3.49913C2.8785 3.06713 3.1076 2.66906 3.41023 2.33001C3.7151 1.99009 4.08818 1.71823 4.50515 1.53215C4.92212 1.34606 5.37362 1.24993 5.83023 1.25001H18.1702C18.6254 1.24905 19.0758 1.34374 19.492 1.52792C19.9083 1.7121 20.2812 1.98168 20.5867 2.31918C20.8921 2.65668 21.1233 3.05459 21.2652 3.48712C21.407 3.91965 21.4564 4.37716 21.4102 4.83001L20.0002 18.46C19.9379 19.1082 19.6811 19.7224 19.2635 20.2221C18.8459 20.7218 18.2871 21.0836 17.6602 21.26L12.8802 22.62C12.595 22.7068 12.2984 22.7506 12.0002 22.75ZM5.83023 2.75001C5.58538 2.75177 5.34355 2.80432 5.12005 2.90433C4.89655 3.00434 4.69622 3.14963 4.53175 3.33102C4.36727 3.51242 4.24222 3.72596 4.1645 3.95816C4.08678 4.19036 4.05809 4.43615 4.08023 4.68001L5.50023 18.31C5.53669 18.6572 5.67614 18.9855 5.90067 19.2528C6.12521 19.5201 6.42455 19.7142 6.76023 19.81L11.5102 21.18C11.8367 21.2756 12.1837 21.2756 12.5102 21.18L17.2902 19.81C17.6266 19.7154 17.9266 19.5217 18.1514 19.2542C18.3761 18.9866 18.5151 18.6576 18.5502 18.31L19.9502 4.68001C19.9724 4.43615 19.9437 4.19036 19.866 3.95816C19.7882 3.72596 19.6632 3.51242 19.4987 3.33102C19.3342 3.14963 19.1339 3.00434 18.9104 2.90433C18.6869 2.80432 18.4451 2.75177 18.2002 2.75001H5.83023ZM12.0002 17.93L15.4602 16.81C15.6014 16.7651 15.7261 16.6794 15.8187 16.5638C15.9112 16.4481 15.9674 16.3076 15.9802 16.16L16.3602 11.46C16.3694 11.3586 16.3572 11.2564 16.3245 11.1599C16.2917 11.0635 16.2392 10.9749 16.1702 10.9C16.1037 10.8217 16.0209 10.7589 15.9277 10.7157C15.8345 10.6725 15.733 10.6501 15.6302 10.65L8.90023 10.51L8.60023 7.51001H16.2002C16.3991 7.51001 16.5899 7.43099 16.7306 7.29034C16.8712 7.14968 16.9502 6.95892 16.9502 6.76001C16.9502 6.5611 16.8712 6.37033 16.7306 6.22968C16.5899 6.08903 16.3991 6.01001 16.2002 6.01001H7.80023C7.69594 6.01231 7.59325 6.03605 7.49853 6.07976C7.40382 6.12346 7.31912 6.1862 7.2497 6.26406C7.18029 6.34192 7.12764 6.43323 7.09504 6.53232C7.06245 6.63141 7.05059 6.73614 7.06023 6.84001L7.52023 11.3C7.53735 11.4831 7.62118 11.6536 7.75577 11.779C7.89036 11.9044 8.06633 11.9759 8.25023 11.98L14.8402 12.11L14.5702 15.52L11.8002 16.41L9.24023 15.66L9.00023 14.28C8.98381 14.1828 8.94842 14.0898 8.89606 14.0063C8.84371 13.9228 8.77542 13.8505 8.6951 13.7934C8.61478 13.7363 8.52399 13.6955 8.42793 13.6735C8.33187 13.6515 8.23241 13.6486 8.13523 13.665C8.03805 13.6814 7.94506 13.7168 7.86156 13.7692C7.77806 13.8215 7.70569 13.8898 7.64858 13.9701C7.59147 14.0505 7.55074 14.1412 7.52872 14.2373C7.5067 14.3334 7.50381 14.4328 7.52023 14.53L7.83023 16.39C7.85172 16.5303 7.91311 16.6615 8.00709 16.7679C8.10106 16.8742 8.22364 16.9514 8.36023 16.99L11.5902 17.99C11.6599 17.9997 11.7306 17.9997 11.8002 17.99C11.8698 17.9815 11.9374 17.9612 12.0002 17.93Z" fill="black"/>
</svg>
