<svg width="24" height="24" viewBox="0 0 24 24" fill="none" xmlns="http://www.w3.org/2000/svg">
<path d="M11.25 7.91998C11.2059 7.77541 11.1175 7.64836 10.9973 7.55683C10.877 7.4653 10.731 7.41392 10.58 7.40998C10.4294 7.40122 10.2798 7.43867 10.1511 7.5173C10.0224 7.59594 9.92086 7.71201 9.85997 7.84998L7.49998 13.15L6.26998 15.93C6.22143 16.0212 6.19225 16.1214 6.18426 16.2244C6.17628 16.3274 6.18966 16.431 6.22357 16.5286C6.25747 16.6262 6.31118 16.7157 6.38132 16.7915C6.45145 16.8674 6.5365 16.928 6.63114 16.9694C6.72578 17.0109 6.82795 17.0323 6.93127 17.0324C7.03458 17.0325 7.1368 17.0113 7.23152 16.97C7.32624 16.9287 7.41141 16.8684 7.4817 16.7926C7.55199 16.7169 7.60587 16.6275 7.63998 16.53L8.63998 14.2H11.72L12.47 16.47C12.5202 16.6185 12.6156 16.7476 12.743 16.8391C12.8703 16.9306 13.0232 16.9799 13.18 16.98C13.2593 16.9944 13.3406 16.9944 13.42 16.98C13.5191 16.9489 13.6107 16.8977 13.689 16.8294C13.7673 16.7611 13.8305 16.6773 13.8747 16.5832C13.9189 16.4892 13.9431 16.3871 13.9457 16.2832C13.9483 16.1794 13.9293 16.0761 13.89 15.98L11.25 7.91998ZM9.34998 12.7L10.44 10.23L11.26 12.7H9.34998ZM17.72 8.15998C17.72 8.4252 17.6146 8.67955 17.4271 8.86709C17.2395 9.05462 16.9852 9.15998 16.72 9.15998C16.4548 9.15998 16.2004 9.05462 16.0129 8.86709C15.8253 8.67955 15.72 8.4252 15.72 8.15998C15.72 7.89476 15.8253 7.64041 16.0129 7.45287C16.2004 7.26534 16.4548 7.15998 16.72 7.15998C16.9852 7.15998 17.2395 7.26534 17.4271 7.45287C17.6146 7.64041 17.72 7.89476 17.72 8.15998ZM17.48 10.76V16.23C17.48 16.4289 17.401 16.6197 17.2603 16.7603C17.1197 16.901 16.9289 16.98 16.73 16.98C16.5311 16.98 16.3403 16.901 16.1996 16.7603C16.059 16.6197 15.98 16.4289 15.98 16.23V10.76C15.98 10.5611 16.059 10.3703 16.1996 10.2297C16.3403 10.089 16.5311 10.01 16.73 10.01C16.9289 10.01 17.1197 10.089 17.2603 10.2297C17.401 10.3703 17.48 10.5611 17.48 10.76ZM22.76 7.89998C22.7494 6.12732 22.0378 4.43086 20.7806 3.18113C19.5233 1.9314 17.8227 1.22995 16.05 1.22998H7.90998C7.02373 1.22995 6.14627 1.40547 5.32823 1.74643C4.5102 2.08738 3.76782 2.58701 3.14395 3.21646C2.52008 3.84591 2.02708 4.59271 1.69342 5.41374C1.35976 6.23478 1.19205 7.11377 1.19998 7.99998V16.08C1.20254 16.9671 1.38099 17.8449 1.72499 18.6626C2.06899 19.4803 2.57173 20.2217 3.20411 20.8438C3.83648 21.466 4.58595 21.9565 5.40915 22.2872C6.23235 22.6178 7.11294 22.7819 7.99998 22.77H16.14C17.022 22.7634 17.8941 22.5831 18.7063 22.2392C19.5186 21.8953 20.2551 21.3946 20.8736 20.7658C21.4922 20.137 21.9807 19.3925 22.3113 18.5747C22.6418 17.7569 22.8079 16.882 22.8 16L22.76 7.89998ZM19.76 19.68C19.2808 20.1678 18.7098 20.5559 18.0799 20.8219C17.4501 21.0879 16.7737 21.2266 16.09 21.23L7.99998 21.27C7.31496 21.2861 6.63392 21.1613 5.99916 20.9033C5.36439 20.6453 4.78943 20.2595 4.30998 19.77C3.82188 19.289 3.43367 18.7162 3.16766 18.0847C2.90166 17.4531 2.76311 16.7753 2.75998 16.09L2.69998 7.99998C2.69729 6.62072 3.24059 5.29646 4.21118 4.3165C5.18177 3.33654 6.50075 2.78055 7.87998 2.76998H16.02C16.705 2.75382 17.386 2.87863 18.0208 3.13667C18.6556 3.3947 19.2305 3.78046 19.71 4.26998C20.1981 4.75099 20.5863 5.32373 20.8523 5.95527C21.1183 6.58681 21.2568 7.26471 21.26 7.94998V16.03C21.2713 17.3931 20.7429 18.7052 19.79 19.68H19.76Z" fill="black"/>
</svg>
