<svg width="24" height="24" viewBox="0 0 24 24" fill="none" xmlns="http://www.w3.org/2000/svg">
<path d="M21.92 10L20.51 8.58001C20.4595 8.52554 20.431 8.45428 20.43 8.38001V6.38001C20.4273 5.63118 20.128 4.91392 19.5976 4.38535C19.0671 3.85679 18.3488 3.56 17.6 3.56001H15.6C15.563 3.56054 15.5263 3.55374 15.492 3.54001C15.4577 3.52628 15.4264 3.50588 15.4 3.48001L14 2.06001C13.4596 1.54871 12.7439 1.26379 12 1.26379C11.2561 1.26379 10.5404 1.54871 9.99998 2.06001L8.58998 3.48001C8.56358 3.50588 8.53231 3.52628 8.49798 3.54001C8.46366 3.55374 8.42695 3.56054 8.38998 3.56001H6.38998C5.64288 3.56264 4.92713 3.86059 4.39885 4.38888C3.87057 4.91716 3.57262 5.63291 3.56998 6.38001V8.38001C3.56723 8.45391 3.53896 8.52459 3.48998 8.58001L2.07998 10C1.81633 10.2621 1.6071 10.5737 1.46432 10.9169C1.32155 11.2602 1.24805 11.6283 1.24805 12C1.24805 12.3718 1.32155 12.7398 1.46432 13.0831C1.6071 13.4263 1.81633 13.7379 2.07998 14L3.48998 15.4C3.54073 15.4503 3.5695 15.5186 3.56998 15.59V17.59C3.56998 18.3406 3.86814 19.0604 4.39887 19.5911C4.9296 20.1218 5.64942 20.42 6.39998 20.42H8.39998C8.43725 20.4168 8.47474 20.4224 8.50946 20.4363C8.54419 20.4502 8.57518 20.472 8.59998 20.5L9.99998 21.91C10.2621 22.1737 10.5737 22.3829 10.9169 22.5257C11.2602 22.6684 11.6282 22.7419 12 22.7419C12.3717 22.7419 12.7398 22.6684 13.083 22.5257C13.4263 22.3829 13.7379 22.1737 14 21.91L15.41 20.5C15.4348 20.472 15.4658 20.4502 15.5005 20.4363C15.5352 20.4224 15.5727 20.4168 15.61 20.42H17.61C18.3605 20.42 19.0804 20.1218 19.6111 19.5911C20.1418 19.0604 20.44 18.3406 20.44 17.59V15.59C20.4405 15.5186 20.4692 15.4503 20.52 15.4L21.92 14C22.1836 13.7379 22.3929 13.4263 22.5356 13.0831C22.6784 12.7398 22.7519 12.3718 22.7519 12C22.7519 11.6283 22.6784 11.2602 22.5356 10.9169C22.3929 10.5737 22.1836 10.2621 21.92 10ZM20.86 12.93L19.45 14.35C19.2837 14.5127 19.152 14.7072 19.0626 14.922C18.9733 15.1368 18.9282 15.3674 18.93 15.6V17.6C18.9274 17.9519 18.7864 18.2887 18.5375 18.5376C18.2887 18.7864 17.9519 18.9274 17.6 18.93H15.6C15.3658 18.9274 15.1335 18.9721 14.9169 19.0615C14.7004 19.1508 14.5042 19.283 14.34 19.45L12.93 20.86C12.6757 21.0998 12.3395 21.2334 11.99 21.2334C11.6405 21.2334 11.3042 21.0998 11.05 20.86L9.64998 19.44C9.48543 19.2734 9.28912 19.1416 9.07269 19.0523C8.85626 18.963 8.62411 18.918 8.38998 18.92H6.38998C6.03805 18.9174 5.70128 18.7764 5.45242 18.5276C5.20356 18.2787 5.0626 17.9419 5.05998 17.59V15.59C5.0618 15.3574 5.01668 15.1268 4.92734 14.912C4.83799 14.6972 4.70624 14.5027 4.53998 14.34L3.13998 12.92C3.01692 12.7974 2.91928 12.6517 2.85266 12.4912C2.78604 12.3308 2.75174 12.1587 2.75174 11.985C2.75174 11.8113 2.78604 11.6393 2.85266 11.4788C2.91928 11.3184 3.01692 11.1726 3.13998 11.05L4.54998 9.64001C4.71563 9.47478 4.84688 9.27834 4.93614 9.06207C5.02539 8.8458 5.07089 8.61397 5.06998 8.38001V6.38001C5.07262 6.029 5.21391 5.69328 5.46305 5.44601C5.71219 5.19875 6.04897 5.06 6.39998 5.06001H8.39998C8.87191 5.05855 9.32439 4.87181 9.65998 4.54001L11.07 3.12001C11.3242 2.88021 11.6605 2.74665 12.01 2.74665C12.3595 2.74665 12.6957 2.88021 12.95 3.12001L14.36 4.54001C14.6956 4.87181 15.1481 5.05855 15.62 5.06001H17.62C17.971 5.06 18.3078 5.19875 18.5569 5.44601C18.8061 5.69328 18.9473 6.029 18.95 6.38001V8.38001C18.9514 8.85193 19.1382 9.30441 19.47 9.64001L20.88 11.05C21.0017 11.1739 21.0978 11.3207 21.1627 11.4819C21.2277 11.643 21.2601 11.8154 21.2583 11.9892C21.2564 12.1629 21.2203 12.3345 21.1519 12.4943C21.0836 12.654 20.9844 12.7987 20.86 12.92V12.93Z" fill="black"/>
<path d="M12 13.4C12.2652 13.4 12.5196 13.2946 12.7071 13.1071C12.8946 12.9196 13 12.6652 13 12.4V7.73999C13 7.47477 12.8946 7.22042 12.7071 7.03288C12.5196 6.84535 12.2652 6.73999 12 6.73999C11.7348 6.73999 11.4804 6.84535 11.2929 7.03288C11.1054 7.22042 11 7.47477 11 7.73999V12.4C11 12.6652 11.1054 12.9196 11.2929 13.1071C11.4804 13.2946 11.7348 13.4 12 13.4Z" fill="black"/>
<path d="M12 17.26C12.6904 17.26 13.25 16.7004 13.25 16.01C13.25 15.3197 12.6904 14.76 12 14.76C11.3096 14.76 10.75 15.3197 10.75 16.01C10.75 16.7004 11.3096 17.26 12 17.26Z" fill="black"/>
</svg>
