<svg width="24" height="24" viewBox="0 0 24 24" fill="none" xmlns="http://www.w3.org/2000/svg">
<path d="M12 22.75C9.87386 22.75 7.79545 22.1195 6.02762 20.9383C4.2598 19.7571 2.88194 18.0782 2.0683 16.1139C1.25466 14.1495 1.04177 11.9881 1.45656 9.90278C1.87135 7.81749 2.89519 5.90202 4.39861 4.39861C5.90202 2.89519 7.81749 1.87135 9.90278 1.45656C11.9881 1.04177 14.1495 1.25466 16.1139 2.0683C18.0782 2.88194 19.7571 4.2598 20.9383 6.02762C22.1195 7.79545 22.75 9.87386 22.75 12C22.7474 14.8503 21.6139 17.583 19.5985 19.5985C17.583 21.6139 14.8503 22.7474 12 22.75ZM12 2.75C10.1705 2.75 8.38213 3.29251 6.86098 4.30891C5.33983 5.32531 4.15423 6.76997 3.45412 8.46018C2.75401 10.1504 2.57083 12.0103 2.92774 13.8046C3.28465 15.5989 4.16563 17.2471 5.45927 18.5407C6.7529 19.8344 8.40109 20.7154 10.1954 21.0723C11.9897 21.4292 13.8496 21.246 15.5398 20.5459C17.23 19.8458 18.6747 18.6602 19.6911 17.139C20.7075 15.6179 21.25 13.8295 21.25 12C21.2474 9.54756 20.272 7.19633 18.5378 5.46219C16.8037 3.72805 14.4524 2.75265 12 2.75Z" fill="black"/>
<path d="M12 13.4C12.2652 13.4 12.5196 13.2946 12.7071 13.1071C12.8946 12.9196 13 12.6652 13 12.4V7.73999C13 7.47477 12.8946 7.22042 12.7071 7.03288C12.5196 6.84535 12.2652 6.73999 12 6.73999C11.7348 6.73999 11.4804 6.84535 11.2929 7.03288C11.1054 7.22042 11 7.47477 11 7.73999V12.4C11 12.6652 11.1054 12.9196 11.2929 13.1071C11.4804 13.2946 11.7348 13.4 12 13.4Z" fill="black"/>
<path d="M12 17.26C12.6904 17.26 13.25 16.7004 13.25 16.01C13.25 15.3197 12.6904 14.76 12 14.76C11.3096 14.76 10.75 15.3197 10.75 16.01C10.75 16.7004 11.3096 17.26 12 17.26Z" fill="black"/>
</svg>
