<svg width="24" height="24" viewBox="0 0 24 24" fill="none" xmlns="http://www.w3.org/2000/svg">
<path d="M11.9998 22.76C11.2238 22.7635 10.4609 22.5598 9.78984 22.17L4.28984 19C3.62161 18.6107 3.06693 18.0532 2.68096 17.383C2.295 16.7129 2.0912 15.9533 2.08984 15.18V8.81996C2.0912 8.04659 2.295 7.28706 2.68096 6.61689C3.06693 5.94672 3.62161 5.38926 4.28984 4.99996L9.78984 1.82996C10.4618 1.44202 11.224 1.23779 11.9998 1.23779C12.7757 1.23779 13.5379 1.44202 14.2098 1.82996L19.7098 4.99996C20.3781 5.38926 20.9328 5.94672 21.3187 6.61689C21.7047 7.28706 21.9085 8.04659 21.9098 8.81996V15.18C21.9085 15.9533 21.7047 16.7129 21.3187 17.383C20.9328 18.0532 20.3781 18.6107 19.7098 19L14.2098 22.17C13.5388 22.5598 12.7759 22.7635 11.9998 22.76ZM11.9998 2.75996C11.4888 2.76019 10.9862 2.891 10.5398 3.13996L4.99984 6.29996C4.56653 6.56174 4.20873 6.93167 3.96154 7.37347C3.71434 7.81526 3.58626 8.31373 3.58984 8.81996V15.18C3.58626 15.6862 3.71434 16.1847 3.96154 16.6265C4.20873 17.0682 4.56653 17.4382 4.99984 17.7L10.4998 20.88C10.9463 21.1287 11.4488 21.2592 11.9598 21.2592C12.4709 21.2592 12.9734 21.1287 13.4198 20.88L18.9998 17.7C19.4406 17.4432 19.8064 17.0754 20.0608 16.6333C20.3152 16.1911 20.4493 15.6901 20.4498 15.18V8.81996C20.4493 8.30986 20.3152 7.8088 20.0608 7.36667C19.8064 6.92453 19.4406 6.55676 18.9998 6.29996L13.4998 3.11996C13.0417 2.86431 12.5245 2.73328 11.9998 2.73996V2.75996Z" fill="black"/>
<path d="M12 10.6C12.2652 10.6 12.5196 10.7053 12.7071 10.8929C12.8946 11.0804 13 11.3348 13 11.6V16.26C13 16.5252 12.8946 16.7795 12.7071 16.9671C12.5196 17.1546 12.2652 17.26 12 17.26C11.7348 17.26 11.4804 17.1546 11.2929 16.9671C11.1054 16.7795 11 16.5252 11 16.26V11.6C11 11.3348 11.1054 11.0804 11.2929 10.8929C11.4804 10.7053 11.7348 10.6 12 10.6Z" fill="black"/>
<path d="M12 9.23999C12.6904 9.23999 13.25 8.68035 13.25 7.98999C13.25 7.29963 12.6904 6.73999 12 6.73999C11.3096 6.73999 10.75 7.29963 10.75 7.98999C10.75 8.68035 11.3096 9.23999 12 9.23999Z" fill="black"/>
</svg>
