<svg width="24" height="24" viewBox="0 0 24 24" fill="none" xmlns="http://www.w3.org/2000/svg">
<path d="M12 22.75C9.87386 22.75 7.79545 22.1195 6.02762 20.9383C4.2598 19.7571 2.88194 18.0782 2.0683 16.1139C1.25466 14.1495 1.04177 11.9881 1.45656 9.90278C1.87135 7.81749 2.89519 5.90202 4.39861 4.39861C5.90202 2.89519 7.81749 1.87135 9.90278 1.45656C11.9881 1.04177 14.1495 1.25466 16.1139 2.0683C18.0782 2.88194 19.7571 4.2598 20.9383 6.02762C22.1195 7.79545 22.75 9.87386 22.75 12C22.7474 14.8503 21.6139 17.583 19.5985 19.5985C17.583 21.6139 14.8503 22.7474 12 22.75ZM12 2.75C10.1705 2.75 8.38213 3.29251 6.86098 4.30891C5.33983 5.32531 4.15423 6.76997 3.45412 8.46018C2.75401 10.1504 2.57083 12.0103 2.92774 13.8046C3.28465 15.5989 4.16563 17.2471 5.45927 18.5407C6.7529 19.8344 8.40109 20.7154 10.1954 21.0723C11.9897 21.4292 13.8496 21.246 15.5398 20.5459C17.23 19.8458 18.6747 18.6602 19.6911 17.139C20.7075 15.6179 21.25 13.8295 21.25 12C21.2474 9.54756 20.272 7.19633 18.5378 5.46219C16.8037 3.72805 14.4524 2.75265 12 2.75Z" fill="black"/>
<path d="M12 10.6C12.2652 10.6 12.5196 10.7053 12.7071 10.8929C12.8946 11.0804 13 11.3348 13 11.6V16.26C13 16.5252 12.8946 16.7795 12.7071 16.9671C12.5196 17.1546 12.2652 17.26 12 17.26C11.7348 17.26 11.4804 17.1546 11.2929 16.9671C11.1054 16.7795 11 16.5252 11 16.26V11.6C11 11.3348 11.1054 11.0804 11.2929 10.8929C11.4804 10.7053 11.7348 10.6 12 10.6Z" fill="black"/>
<path d="M12 9.23999C12.6904 9.23999 13.25 8.68035 13.25 7.98999C13.25 7.29963 12.6904 6.73999 12 6.73999C11.3096 6.73999 10.75 7.29963 10.75 7.98999C10.75 8.68035 11.3096 9.23999 12 9.23999Z" fill="black"/>
</svg>
