<svg width="24" height="24" viewBox="0 0 24 24" fill="none" xmlns="http://www.w3.org/2000/svg">
<path d="M11.9998 22.76C11.224 22.762 10.4614 22.5585 9.78984 22.17L4.28984 19C3.62161 18.6107 3.06693 18.0532 2.68096 17.383C2.295 16.7129 2.0912 15.9533 2.08984 15.18V8.81996C2.0912 8.04659 2.295 7.28706 2.68096 6.61689C3.06693 5.94672 3.62161 5.38926 4.28984 4.99996L9.78984 1.82996C10.4618 1.44202 11.224 1.23779 11.9998 1.23779C12.7757 1.23779 13.5379 1.44202 14.2098 1.82996L19.7098 4.99996C20.3781 5.38926 20.9328 5.94672 21.3187 6.61689C21.7047 7.28706 21.9085 8.04659 21.9098 8.81996V15.18C21.9085 15.9533 21.7047 16.7129 21.3187 17.383C20.9328 18.0532 20.3781 18.6107 19.7098 19L14.2098 22.17C13.5388 22.5598 12.7759 22.7635 11.9998 22.76ZM11.9998 2.75996C11.4888 2.76019 10.9862 2.891 10.5398 3.13996L4.99984 6.29996C4.56653 6.56174 4.20873 6.93167 3.96154 7.37347C3.71434 7.81526 3.58626 8.31373 3.58984 8.81996V15.18C3.58626 15.6862 3.71434 16.1847 3.96154 16.6265C4.20873 17.0682 4.56653 17.4382 4.99984 17.7L10.4998 20.88C10.9463 21.1287 11.4488 21.2592 11.9598 21.2592C12.4709 21.2592 12.9734 21.1287 13.4198 20.88L18.9998 17.7C19.4406 17.4432 19.8064 17.0754 20.0608 16.6333C20.3152 16.1911 20.4493 15.6901 20.4498 15.18V8.81996C20.4493 8.30986 20.3152 7.8088 20.0608 7.36667C19.8064 6.92453 19.4406 6.55676 18.9998 6.29996L13.4998 3.11996C13.0417 2.86431 12.5245 2.73328 11.9998 2.73996V2.75996Z" fill="black"/>
<path d="M12 13.4C12.2652 13.4 12.5196 13.2946 12.7071 13.1071C12.8946 12.9196 13 12.6652 13 12.4V7.73999C13 7.47477 12.8946 7.22042 12.7071 7.03288C12.5196 6.84535 12.2652 6.73999 12 6.73999C11.7348 6.73999 11.4804 6.84535 11.2929 7.03288C11.1054 7.22042 11 7.47477 11 7.73999V12.4C11 12.6652 11.1054 12.9196 11.2929 13.1071C11.4804 13.2946 11.7348 13.4 12 13.4Z" fill="black"/>
<path d="M12 17.26C12.6904 17.26 13.25 16.7004 13.25 16.01C13.25 15.3197 12.6904 14.76 12 14.76C11.3096 14.76 10.75 15.3197 10.75 16.01C10.75 16.7004 11.3096 17.26 12 17.26Z" fill="black"/>
</svg>
