<svg width="24" height="24" viewBox="0 0 24 24" fill="none" xmlns="http://www.w3.org/2000/svg">
<path d="M15.7102 22.71H8.22021C6.3637 22.71 4.58322 21.9725 3.27047 20.6597C1.95771 19.347 1.22021 17.5665 1.22021 15.71V8.25C1.22021 6.39348 1.95771 4.61301 3.27047 3.30025C4.58322 1.9875 6.3637 1.25 8.22021 1.25H15.7102C17.5667 1.25 19.3472 1.9875 20.66 3.30025C21.9727 4.61301 22.7102 6.39348 22.7102 8.25V15.71C22.7102 17.5665 21.9727 19.347 20.66 20.6597C19.3472 21.9725 17.5667 22.71 15.7102 22.71ZM8.22021 2.79C6.77202 2.79263 5.38375 3.36841 4.35878 4.3915C3.33381 5.4146 2.7555 6.80181 2.75021 8.25V15.71C2.75019 17.1635 3.32554 18.5579 4.35051 19.5885C5.37548 20.6191 6.76673 21.2021 8.22021 21.21H15.7102C16.4351 21.2126 17.1534 21.0725 17.8242 20.7975C18.4949 20.5225 19.1049 20.1181 19.6193 19.6074C20.1338 19.0967 20.5426 18.4896 20.8224 17.8209C21.1022 17.1522 21.2476 16.4349 21.2502 15.71V8.25C21.245 7.52772 21.0975 6.81355 20.8163 6.14826C20.535 5.48297 20.1255 4.8796 19.6111 4.37259C19.0966 3.86557 18.4874 3.46486 17.818 3.19332C17.1487 2.92178 16.4325 2.78473 15.7102 2.79H8.22021ZM17.8502 5.12C17.6524 5.12 17.4591 5.17865 17.2946 5.28853C17.1302 5.39841 17.002 5.55459 16.9263 5.73732C16.8506 5.92004 16.8308 6.12111 16.8694 6.31509C16.908 6.50907 17.0033 6.68725 17.1431 6.82711C17.283 6.96696 17.4611 7.0622 17.6551 7.10079C17.8491 7.13937 18.0502 7.11957 18.2329 7.04388C18.4156 6.96819 18.5718 6.84002 18.6817 6.67557C18.7916 6.51112 18.8502 6.31778 18.8502 6.12C18.8502 5.85478 18.7449 5.60043 18.5573 5.41289C18.3698 5.22536 18.1154 5.12 17.8502 5.12ZM12.0002 16.32C11.1378 16.3239 10.2936 16.0714 9.57496 15.5945C8.85634 15.1176 8.29571 14.4378 7.96429 13.6416C7.63288 12.8453 7.54564 11.9685 7.71367 11.1226C7.88169 10.2766 8.2974 9.49973 8.90796 8.89058C9.51853 8.28142 10.2964 7.86752 11.1427 7.70145C11.9891 7.53538 12.8657 7.62464 13.6611 7.9579C14.4566 8.29115 15.1351 8.85335 15.6103 9.57308C16.0856 10.2928 16.3362 11.1375 16.3302 12C16.3197 13.1442 15.8599 14.2385 15.0498 15.0466C14.2398 15.8548 13.1445 16.3122 12.0002 16.32ZM12.0002 9.13C11.4366 9.12606 10.8844 9.28935 10.4135 9.59922C9.94268 9.90909 9.57428 10.3516 9.35493 10.8709C9.13558 11.3901 9.07513 11.9627 9.18122 12.5163C9.2873 13.0699 9.55517 13.5796 9.95094 13.981C10.3467 14.3824 10.8526 14.6573 11.4047 14.7712C11.9567 14.885 12.5301 14.8326 13.0524 14.6206C13.5747 14.4085 14.0223 14.0464 14.3388 13.5799C14.6552 13.1135 14.8262 12.5637 14.8302 12C14.8303 11.2457 14.5334 10.5217 14.0038 9.98462C13.4742 9.44752 12.7544 9.14051 12.0002 9.13Z" fill="black"/>
</svg>
