<svg width="24" height="24" viewBox="0 0 24 24" fill="none" xmlns="http://www.w3.org/2000/svg">
<path d="M18.3798 15.1H14.6098V10.47C15.5058 9.87687 16.1868 9.01089 16.5521 8.00036C16.9173 6.98983 16.9473 5.88853 16.6376 4.85962C16.3279 3.83071 15.695 2.92895 14.8326 2.28794C13.9702 1.64693 12.9243 1.30078 11.8498 1.30078C10.7753 1.30078 9.72935 1.64693 8.86699 2.28794C8.00462 2.92895 7.37169 3.83071 7.06198 4.85962C6.75227 5.88853 6.78226 6.98983 7.14751 8.00036C7.51275 9.01089 8.19381 9.87687 9.08979 10.47V15.09H8.31979C8.30247 14.9052 8.21722 14.7333 8.08053 14.6077C7.94383 14.4821 7.76542 14.4117 7.57979 14.41H6.81979C6.63454 14.4096 6.45605 14.4796 6.3205 14.6058C6.18495 14.7321 6.10247 14.9052 6.08979 15.09H5.61979C4.79935 15.0926 4.01342 15.4204 3.43422 16.0015C2.85501 16.5826 2.52978 17.3696 2.52979 18.19V19.59C2.52979 20.4095 2.85534 21.1955 3.43483 21.775C4.01431 22.3544 4.80027 22.68 5.61979 22.68H18.3798C19.1993 22.68 19.9853 22.3544 20.5647 21.775C21.1442 21.1955 21.4698 20.4095 21.4698 19.59V18.2C21.4698 17.3796 21.1446 16.5926 20.5654 16.0115C19.9862 15.4304 19.2002 15.1026 18.3798 15.1ZM9.08979 8.43C8.61082 7.82331 8.35014 7.07298 8.34979 6.3C8.34979 5.37174 8.71853 4.48151 9.37491 3.82513C10.0313 3.16875 10.9215 2.8 11.8498 2.8C12.778 2.8 13.6683 3.16875 14.3247 3.82513C14.981 4.48151 15.3498 5.37174 15.3498 6.3C15.3494 7.07298 15.0888 7.82331 14.6098 8.43C14.286 8.85491 13.8685 9.19933 13.3897 9.43641C12.911 9.67349 12.384 9.79684 11.8498 9.79684C11.3156 9.79684 10.7886 9.67349 10.3098 9.43641C9.8311 9.19933 9.41358 8.85491 9.08979 8.43ZM13.0898 11.12V15.12H10.5898V11.12C11.4126 11.36 12.2869 11.36 13.1098 11.12H13.0898ZM19.9998 19.6C19.9998 20.0217 19.8323 20.4261 19.5341 20.7243C19.2359 21.0225 18.8315 21.19 18.4098 21.19H5.61979C5.40847 21.194 5.19849 21.1558 5.0021 21.0777C4.80572 20.9996 4.62688 20.8831 4.47604 20.735C4.3252 20.587 4.2054 20.4104 4.12362 20.2155C4.04185 20.0206 3.99975 19.8114 3.99979 19.6V18.2C3.99978 17.7774 4.16697 17.3719 4.46487 17.0722C4.76277 16.7724 5.16717 16.6026 5.58979 16.6H18.3798C18.5916 16.5974 18.8018 16.6368 18.9982 16.716C19.1947 16.7952 19.3734 16.9127 19.5241 17.0615C19.6748 17.2103 19.7945 17.3876 19.8761 17.5831C19.9578 17.7785 19.9998 17.9882 19.9998 18.2V19.6ZM10.9998 5.93C10.8186 5.94192 10.638 5.89936 10.4812 5.80778C10.3243 5.71621 10.1985 5.57982 10.1199 5.41614C10.0412 5.25247 10.0133 5.06901 10.0398 4.88936C10.0662 4.70971 10.1458 4.54208 10.2683 4.40804C10.3909 4.274 10.5507 4.17967 10.7272 4.1372C10.9038 4.09473 11.089 4.10606 11.2591 4.16971C11.4291 4.23337 11.5763 4.34646 11.6815 4.49442C11.7868 4.64239 11.8454 4.81846 11.8498 5C11.8524 5.12118 11.8309 5.24166 11.7863 5.35439C11.7418 5.46711 11.6752 5.56981 11.5904 5.65644C11.5057 5.74307 11.4044 5.81189 11.2927 5.85887C11.181 5.90585 11.061 5.93003 10.9398 5.93H10.9998Z" fill="black"/>
</svg>
