<svg width="24" height="24" viewBox="0 0 24 24" fill="none" xmlns="http://www.w3.org/2000/svg">
<path d="M12.0001 22.6801C11.6763 22.6825 11.3581 22.596 11.0801 22.4301L9.00006 21.2401C8.83338 21.1418 8.71118 20.9828 8.659 20.7964C8.60681 20.61 8.62869 20.4107 8.72006 20.2401C8.82013 20.0753 8.9791 19.9547 9.16478 19.9027C9.35046 19.8507 9.54895 19.8712 9.72006 19.9601L11.7801 21.1501C11.8317 21.18 11.8904 21.1957 11.9501 21.1957C12.0097 21.1957 12.0684 21.18 12.1201 21.1501L19.7701 16.7401C19.8231 16.7095 19.8675 16.6659 19.899 16.6134C19.9305 16.561 19.948 16.5013 19.9501 16.4401V7.58011C19.948 7.51893 19.9305 7.45927 19.899 7.40678C19.8675 7.35428 19.8231 7.31069 19.7701 7.28011L12.1701 2.87011C12.1184 2.84027 12.0597 2.82456 12.0001 2.82456C11.9404 2.82456 11.8817 2.84027 11.8301 2.87011L4.18006 7.28011C4.12703 7.31069 4.08266 7.35428 4.05117 7.40678C4.01967 7.45927 4.00208 7.51893 4.00006 7.58011V16.2301C4.00061 16.3482 4.03234 16.464 4.09205 16.5658C4.15175 16.6677 4.23731 16.752 4.34006 16.8101L6.34006 17.9601C6.45869 18.0263 6.59255 18.0603 6.72839 18.0589C6.86423 18.0574 6.99733 18.0205 7.11452 17.9518C7.23172 17.8831 7.32893 17.785 7.39656 17.6672C7.46418 17.5494 7.49986 17.416 7.50006 17.2801L7.43006 8.81011C7.43265 8.612 7.5125 8.42274 7.65259 8.28265C7.79269 8.14255 7.98195 8.0627 8.18006 8.06011C8.27808 8.05879 8.37538 8.07695 8.46632 8.11354C8.55726 8.15014 8.64002 8.20444 8.7098 8.27328C8.77957 8.34213 8.83498 8.42416 8.87279 8.5146C8.9106 8.60504 8.93007 8.70209 8.93006 8.80011L9.00006 17.2801C9.00873 17.6842 8.90837 18.0833 8.70953 18.4352C8.51068 18.7871 8.2207 19.079 7.87006 19.2801C7.52554 19.4863 7.13156 19.5952 6.73006 19.5952C6.32856 19.5952 5.93458 19.4863 5.59006 19.2801L3.59006 18.1401C3.25609 17.9461 2.97936 17.6673 2.78794 17.3318C2.59651 16.9964 2.49719 16.6163 2.50006 16.2301V7.58011C2.50541 7.25885 2.59388 6.94446 2.75687 6.66757C2.91985 6.39067 3.15178 6.16072 3.43006 6.00011L11.0801 1.59011C11.3594 1.42763 11.6769 1.34204 12.0001 1.34204C12.3233 1.34204 12.6407 1.42763 12.9201 1.59011L20.5701 6.00011C20.8512 6.16244 21.085 6.39554 21.2482 6.67624C21.4113 6.95693 21.4982 7.27545 21.5001 7.60011V16.4401C21.4982 16.7648 21.4113 17.0833 21.2482 17.364C21.085 17.6447 20.8512 17.8778 20.5701 18.0401L12.9201 22.4501C12.64 22.609 12.3219 22.6886 12.0001 22.6801ZM17.2801 12.5901C17.1329 12.3074 16.9203 12.064 16.6601 11.8801C16.3507 11.6768 16.014 11.5185 15.6601 11.4101C15.2483 11.2631 14.8274 11.1428 14.4001 11.0501L13.6101 10.8301C13.442 10.7846 13.2807 10.7174 13.1301 10.6301C12.9833 10.5585 12.8562 10.4521 12.7601 10.3201C12.6714 10.1984 12.6257 10.0506 12.6301 9.90011C12.6322 9.76302 12.6691 9.62872 12.7373 9.50979C12.8055 9.39086 12.9028 9.29119 13.0201 9.22011C13.3163 9.02423 13.665 8.92308 14.0201 8.93011C14.373 8.90303 14.725 8.99453 15.0201 9.19011C15.2486 9.39345 15.4325 9.64202 15.5601 9.92011C15.6447 10.0907 15.7524 10.2488 15.8801 10.3901C16.0042 10.4899 16.1611 10.5398 16.3201 10.5301C16.4192 10.5317 16.5174 10.511 16.6074 10.4695C16.6975 10.4279 16.777 10.3666 16.8401 10.2901C16.9753 10.1468 17.0504 9.95714 17.0501 9.76011C17.0826 9.53581 17.0655 9.3071 17.0001 9.09011C16.8713 8.83842 16.6907 8.61688 16.4701 8.44011C16.2003 8.21301 15.8874 8.04292 15.5501 7.94011C15.1274 7.8026 14.6844 7.73834 14.2401 7.75011C13.6723 7.72225 13.1047 7.80722 12.5701 8.00011C12.1394 8.16021 11.7643 8.44153 11.4901 8.81011C11.2458 9.1661 11.1167 9.58843 11.1201 10.0201C11.1055 10.4456 11.2321 10.864 11.4801 11.2101C11.7228 11.5401 12.0465 11.8019 12.4201 11.9701C12.9008 12.1759 13.3996 12.3366 13.9101 12.4501C14.265 12.528 14.6155 12.6248 14.9601 12.7401C15.2047 12.8165 15.4275 12.9502 15.6101 13.1301C15.7769 13.3087 15.8667 13.5458 15.8601 13.7901C15.8621 13.9617 15.82 14.131 15.7376 14.2816C15.6553 14.4323 15.5356 14.5592 15.3901 14.6501C15.0403 14.8974 14.6179 15.0206 14.1901 15.0001C13.891 15.0092 13.5937 14.9511 13.3201 14.8301C13.1163 14.7278 12.9411 14.5767 12.8101 14.3901C12.6745 14.1858 12.5606 13.968 12.4701 13.7401C12.4039 13.5531 12.2981 13.3826 12.1601 13.2401C12.0379 13.1271 11.8765 13.0661 11.7101 13.0701C11.6121 13.0672 11.5145 13.0843 11.4234 13.1204C11.3323 13.1565 11.2495 13.2109 11.1801 13.2801C11.1125 13.3487 11.0592 13.4299 11.0231 13.5191C10.9871 13.6084 10.9691 13.7039 10.9701 13.8001C10.98 14.1864 11.1015 14.5615 11.3201 14.8801C11.5475 15.2429 11.8598 15.5449 12.2301 15.7601C12.8442 16.0879 13.5344 16.2466 14.2301 16.2201C14.8357 16.2486 15.4401 16.1427 16.0001 15.9101C16.4532 15.7209 16.8421 15.405 17.1201 15.0001C17.3742 14.5999 17.5063 14.1342 17.5001 13.6601C17.5153 13.2908 17.4398 12.9234 17.2801 12.5901Z" fill="black"/>
</svg>
