<svg width="24" height="24" viewBox="0 0 24 24" fill="none" xmlns="http://www.w3.org/2000/svg">
<path d="M10.5202 17.3C10.4472 17.3098 10.3732 17.3098 10.3002 17.3L7.19023 16.37C6.99852 16.3121 6.83741 16.1809 6.74192 16.0049C6.64642 15.8289 6.62425 15.6223 6.68023 15.43C6.73592 15.2391 6.86519 15.078 7.0396 14.9824C7.21401 14.8868 7.41927 14.8643 7.61023 14.92L9.76023 15.56V7.73001C9.74796 7.62356 9.75833 7.51573 9.79068 7.41358C9.82302 7.31142 9.87659 7.21726 9.94789 7.13728C10.0192 7.05729 10.1066 6.99328 10.2044 6.94946C10.3021 6.90563 10.4081 6.88297 10.5152 6.88297C10.6224 6.88297 10.7283 6.90563 10.8261 6.94946C10.9239 6.99328 11.0113 7.05729 11.0826 7.13728C11.1539 7.21726 11.2074 7.31142 11.2398 7.41358C11.2721 7.51573 11.2825 7.62356 11.2702 7.73001V16.54C11.2702 16.6579 11.2432 16.7741 11.1912 16.8799C11.1392 16.9857 11.0636 17.0781 10.9702 17.15C10.8408 17.248 10.6826 17.3007 10.5202 17.3ZM13.5802 17.07L16.5802 16.19C16.736 16.1446 16.8729 16.0498 16.9702 15.92C17.0676 15.7902 17.1202 15.6323 17.1202 15.47V12.47C17.1205 12.3628 17.0984 12.2568 17.0554 12.1586C17.0123 12.0605 16.9493 11.9724 16.8702 11.9C16.7888 11.8291 16.6931 11.7764 16.5896 11.7453C16.4862 11.7143 16.3773 11.7056 16.2702 11.72L14.1202 12V8.61001L16.7202 8.20001C16.9171 8.16799 17.0934 8.05988 17.2113 7.89899C17.3292 7.73811 17.3791 7.53735 17.3502 7.34001C17.3159 7.14235 17.2057 6.96592 17.0432 6.84825C16.8807 6.73059 16.6787 6.68099 16.4802 6.71001L13.2502 7.22001C13.0709 7.24658 12.9073 7.33719 12.7897 7.47506C12.672 7.61294 12.6083 7.78876 12.6102 7.97001V12.89C12.61 12.9967 12.6332 13.1021 12.6781 13.1988C12.723 13.2956 12.7886 13.3813 12.8702 13.45C12.9487 13.5225 13.0425 13.5763 13.1447 13.6074C13.2468 13.6386 13.3547 13.6463 13.4602 13.63L15.6502 13.36V14.9L13.1602 15.62C12.9858 15.6913 12.8441 15.8249 12.7626 15.9948C12.6812 16.1647 12.6657 16.3589 12.7193 16.5395C12.7729 16.7202 12.8916 16.8745 13.0526 16.9725C13.2135 17.0705 13.4051 17.1053 13.5902 17.07H13.5802ZM12.0002 22.75C11.6954 22.7517 11.3921 22.7079 11.1002 22.62L6.35023 21.26C5.72501 21.0822 5.16721 20.7216 4.74847 20.2245C4.32972 19.7273 4.06916 19.1163 4.00023 18.47L2.59023 4.84001C2.54614 4.38768 2.59623 3.93113 2.73737 3.49913C2.8785 3.06713 3.1076 2.66906 3.41023 2.33001C3.7151 1.99009 4.08818 1.71823 4.50515 1.53215C4.92212 1.34606 5.37362 1.24993 5.83023 1.25001H18.1702C18.6254 1.24905 19.0758 1.34374 19.492 1.52792C19.9083 1.7121 20.2812 1.98168 20.5867 2.31918C20.8921 2.65668 21.1233 3.05459 21.2652 3.48712C21.407 3.91965 21.4564 4.37716 21.4102 4.83001L20.0002 18.46C19.9379 19.1082 19.6811 19.7224 19.2635 20.2221C18.8459 20.7218 18.2871 21.0836 17.6602 21.26L12.8802 22.62C12.595 22.7068 12.2984 22.7506 12.0002 22.75ZM5.83023 2.75001C5.58538 2.75177 5.34355 2.80432 5.12005 2.90433C4.89655 3.00434 4.69622 3.14963 4.53175 3.33102C4.36727 3.51242 4.24222 3.72596 4.1645 3.95816C4.08678 4.19036 4.05809 4.43615 4.08023 4.68001L5.50023 18.31C5.53669 18.6572 5.67614 18.9855 5.90067 19.2528C6.12521 19.5201 6.42455 19.7142 6.76023 19.81L11.5102 21.18C11.8367 21.2756 12.1837 21.2756 12.5102 21.18L17.2902 19.81C17.6266 19.7154 17.9266 19.5217 18.1514 19.2542C18.3761 18.9866 18.5151 18.6576 18.5502 18.31L19.9502 4.68001C19.9724 4.43615 19.9437 4.19036 19.866 3.95816C19.7882 3.72596 19.6632 3.51242 19.4987 3.33102C19.3342 3.14963 19.1339 3.00434 18.9104 2.90433C18.6869 2.80432 18.4451 2.75177 18.2002 2.75001H5.83023Z" fill="black"/>
</svg>
