<svg width="24" height="24" viewBox="0 0 24 24" fill="none" xmlns="http://www.w3.org/2000/svg">
<path d="M8.75 22.75H3.75C3.08696 22.75 2.45107 22.4866 1.98223 22.0178C1.51339 21.5489 1.25 20.913 1.25 20.25V3.75C1.25 3.08696 1.51339 2.45107 1.98223 1.98223C2.45107 1.51339 3.08696 1.25 3.75 1.25H8.75C9.41304 1.25 10.0489 1.51339 10.5178 1.98223C10.9866 2.45107 11.25 3.08696 11.25 3.75V20.25C11.25 20.913 10.9866 21.5489 10.5178 22.0178C10.0489 22.4866 9.41304 22.75 8.75 22.75ZM3.75 2.75C3.48478 2.75 3.23043 2.85536 3.04289 3.04289C2.85536 3.23043 2.75 3.48478 2.75 3.75V20.25C2.75 20.5152 2.85536 20.7696 3.04289 20.9571C3.23043 21.1446 3.48478 21.25 3.75 21.25H8.75C9.01522 21.25 9.26957 21.1446 9.45711 20.9571C9.64464 20.7696 9.75 20.5152 9.75 20.25V3.75C9.75 3.48478 9.64464 3.23043 9.45711 3.04289C9.26957 2.85536 9.01522 2.75 8.75 2.75H3.75ZM20.25 15.75H15.25C14.587 15.75 13.9511 15.4866 13.4822 15.0178C13.0134 14.5489 12.75 13.913 12.75 13.25V3.75C12.75 3.08696 13.0134 2.45107 13.4822 1.98223C13.9511 1.51339 14.587 1.25 15.25 1.25H20.25C20.913 1.25 21.5489 1.51339 22.0178 1.98223C22.4866 2.45107 22.75 3.08696 22.75 3.75V13.25C22.75 13.913 22.4866 14.5489 22.0178 15.0178C21.5489 15.4866 20.913 15.75 20.25 15.75ZM15.25 2.75C14.9848 2.75 14.7304 2.85536 14.5429 3.04289C14.3554 3.23043 14.25 3.48478 14.25 3.75V13.25C14.25 13.5152 14.3554 13.7696 14.5429 13.9571C14.7304 14.1446 14.9848 14.25 15.25 14.25H20.25C20.5152 14.25 20.7696 14.1446 20.9571 13.9571C21.1446 13.7696 21.25 13.5152 21.25 13.25V3.75C21.25 3.48478 21.1446 3.23043 20.9571 3.04289C20.7696 2.85536 20.5152 2.75 20.25 2.75H15.25Z" fill="black"/>
</svg>
