<svg width="24" height="24" viewBox="0 0 24 24" fill="none" xmlns="http://www.w3.org/2000/svg">
<path d="M16.84 22.75H7.16C5.59338 22.7474 4.09169 22.1238 2.98392 21.0161C1.87615 19.9083 1.25264 18.4066 1.25 16.84V7.16C1.25264 5.59338 1.87615 4.09169 2.98392 2.98392C4.09169 1.87615 5.59338 1.25264 7.16 1.25H16.84C18.4066 1.25264 19.9083 1.87615 21.0161 2.98392C22.1238 4.09169 22.7474 5.59338 22.75 7.16V16.84C22.7474 18.4066 22.1238 19.9083 21.0161 21.0161C19.9083 22.1238 18.4066 22.7474 16.84 22.75ZM7.16 2.75C5.99121 2.75264 4.87104 3.21811 4.04458 4.04458C3.21811 4.87104 2.75264 5.99121 2.75 7.16V16.84C2.75264 18.0088 3.21811 19.129 4.04458 19.9554C4.87104 20.7819 5.99121 21.2474 7.16 21.25H16.84C18.0088 21.2474 19.129 20.7819 19.9554 19.9554C20.7819 19.129 21.2474 18.0088 21.25 16.84V7.16C21.2474 5.99121 20.7819 4.87104 19.9554 4.04458C19.129 3.21811 18.0088 2.75264 16.84 2.75H7.16ZM8.68 18.6H8.38L6.9 18.3C6.603 18.2465 6.32925 18.1041 6.11497 17.8916C5.90069 17.6791 5.75598 17.4065 5.7 17.11L5.42 15.63C5.37243 15.3871 5.38491 15.1362 5.45636 14.8992C5.52782 14.6621 5.65608 14.4462 5.83 14.27L8.42 11.68C8.17911 10.6358 8.2693 9.54252 8.67804 8.55192C9.08678 7.56132 9.7938 6.72255 10.7009 6.15206C11.6081 5.58157 12.6703 5.30766 13.7402 5.36836C14.8101 5.42906 15.8346 5.82136 16.6714 6.49079C17.5082 7.16023 18.1158 8.07358 18.4098 9.10406C18.7039 10.1345 18.6699 11.231 18.3124 12.2412C17.955 13.2515 17.2919 14.1254 16.4151 14.7416C15.5384 15.3578 14.4916 15.6858 13.42 15.68C13.0401 15.6802 12.6613 15.64 12.29 15.56L9.74 18.16C9.60185 18.3007 9.43682 18.4121 9.25471 18.4877C9.07261 18.5633 8.87716 18.6015 8.68 18.6ZM13.46 6.9C12.491 6.9 11.5616 7.28423 10.8755 7.96845C10.1894 8.65267 9.80265 9.58104 9.8 10.55C9.80604 10.9284 9.87359 11.3033 10 11.66C10.0395 11.7905 10.0427 11.9292 10.0092 12.0614C9.9757 12.1935 9.90684 12.3141 9.81 12.41L6.91 15.31L7.2 16.8L8.69 17.1L11.6 14.21C11.6966 14.1111 11.8194 14.0417 11.9539 14.0098C12.0884 13.9779 12.2293 13.9849 12.36 14.03C12.7229 14.1416 13.1003 14.1989 13.48 14.2C14.448 14.2 15.3764 13.8154 16.0609 13.1309C16.7454 12.4464 17.13 11.518 17.13 10.55C17.13 9.58196 16.7454 8.65357 16.0609 7.96906C15.3764 7.28455 14.448 6.9 13.48 6.9H13.46ZM13.46 12.74C13.0269 12.74 12.6034 12.6116 12.2433 12.3709C11.8832 12.1303 11.6025 11.7882 11.4367 11.3881C11.2709 10.9879 11.2276 10.5476 11.3121 10.1228C11.3966 9.69793 11.6052 9.30771 11.9114 9.00144C12.2177 8.69516 12.6079 8.48658 13.0328 8.40208C13.4576 8.31758 13.8979 8.36095 14.2981 8.5267C14.6982 8.69246 15.0403 8.97316 15.2809 9.3333C15.5216 9.69345 15.65 10.1169 15.65 10.55C15.6474 11.13 15.4158 11.6855 15.0057 12.0957C14.5955 12.5058 14.04 12.7374 13.46 12.74ZM13.46 9.86C13.277 9.86 13.1015 9.9327 12.9721 10.0621C12.8427 10.1915 12.77 10.367 12.77 10.55C12.77 10.733 12.8427 10.9085 12.9721 11.0379C13.1015 11.1673 13.277 11.24 13.46 11.24C13.643 11.24 13.8185 11.1673 13.9479 11.0379C14.0773 10.9085 14.15 10.733 14.15 10.55C14.15 10.367 14.0773 10.1915 13.9479 10.0621C13.8185 9.9327 13.643 9.86 13.46 9.86ZM10.94 17C11.0805 16.8594 11.1593 16.6687 11.1593 16.47C11.1593 16.2712 11.0805 16.0806 10.94 15.94L9.85 14.94C9.70938 14.7995 9.51875 14.7207 9.32 14.7207C9.12125 14.7207 8.93063 14.7995 8.79 14.94C8.64955 15.0806 8.57066 15.2712 8.57066 15.47C8.57066 15.6688 8.64955 15.8594 8.79 16L9.87 17C10.0097 17.1346 10.196 17.2099 10.39 17.21C10.4912 17.2145 10.5922 17.1982 10.6868 17.1621C10.7814 17.1259 10.8676 17.0708 10.94 17Z" fill="black"/>
</svg>
