<svg width="24" height="24" viewBox="0 0 24 24" fill="none" xmlns="http://www.w3.org/2000/svg">
<path d="M14.4799 1.34005C12.2954 1.3427 10.201 2.21169 8.65629 3.75641C7.11157 5.30114 6.24258 7.39548 6.23993 9.58005C6.24138 10.2715 6.32872 10.9601 6.49993 11.63L1.87993 16.25C1.64107 16.484 1.46467 16.774 1.36684 17.0937C1.26901 17.4134 1.25288 17.7525 1.31993 18.08L1.80993 20.6C1.88732 20.9993 2.08173 21.3666 2.36842 21.655C2.65512 21.9435 3.02114 22.1402 3.41993 22.22L5.99993 22.71C6.13282 22.7253 6.26703 22.7253 6.39993 22.71C6.66791 22.7116 6.93347 22.6593 7.18084 22.5562C7.42821 22.4532 7.65234 22.3014 7.83993 22.1101L12.4499 17.51C13.1287 17.6895 13.8278 17.7802 14.5299 17.7801C16.7153 17.7801 18.8112 16.9119 20.3565 15.3666C21.9018 13.8213 22.7699 11.7254 22.7699 9.54005C22.7699 7.35466 21.9018 5.25879 20.3565 3.71349C18.8112 2.16819 16.7153 1.30005 14.5299 1.30005L14.4799 1.34005ZM14.4799 16.34C13.7763 16.3371 13.0776 16.2223 12.4099 16C12.2791 15.9562 12.1385 15.9498 12.0042 15.9816C11.8699 16.0134 11.7472 16.0822 11.6499 16.18L9.26993 18.55L7.64993 17C7.50117 16.9035 7.32301 16.8628 7.14708 16.8851C6.97115 16.9075 6.80883 16.9914 6.68894 17.1221C6.56905 17.2528 6.49935 17.4217 6.4922 17.5989C6.48506 17.7761 6.54094 17.9501 6.64993 18.09L8.23993 19.6201L6.72993 21.09C6.66656 21.1529 6.58884 21.1995 6.50347 21.2256C6.41809 21.2517 6.32764 21.2567 6.23993 21.24L3.70993 20.74C3.60279 20.7212 3.50405 20.6698 3.42712 20.5929C3.3502 20.5159 3.29881 20.4172 3.27993 20.31L2.78993 17.8C2.77573 17.7123 2.78187 17.6225 2.80788 17.5376C2.83389 17.4526 2.87907 17.3748 2.93993 17.31L7.86993 12.38C7.96762 12.2826 8.03692 12.1603 8.0704 12.0264C8.10387 11.8925 8.10025 11.752 8.05993 11.62C7.62965 10.2651 7.63881 8.80886 8.08608 7.45946C8.53335 6.11006 9.39584 4.93664 10.5502 4.10697C11.7046 3.27731 13.0917 2.83389 14.5133 2.84011C15.9349 2.84634 17.3181 3.3019 18.4652 4.14165C19.6122 4.9814 20.4644 6.16234 20.8998 7.5156C21.3353 8.86887 21.3317 10.3252 20.8895 11.6763C20.4474 13.0273 19.5894 14.2041 18.4382 15.0381C17.287 15.8722 15.9015 16.3209 14.4799 16.32V16.34ZM14.4799 6.39005C13.8446 6.38807 13.223 6.57465 12.6938 6.92616C12.1646 7.27768 11.7516 7.77832 11.5072 8.36469C11.2627 8.95106 11.1977 9.5968 11.3204 10.2201C11.4431 10.8435 11.7481 11.4164 12.1966 11.8663C12.6451 12.3162 13.2171 12.6229 13.84 12.7476C14.463 12.8723 15.1089 12.8093 15.696 12.5666C16.2832 12.324 16.7851 11.9126 17.1382 11.3845C17.4914 10.8564 17.6799 10.2354 17.6799 9.60005C17.6826 9.17767 17.6018 8.75892 17.4423 8.3678C17.2828 7.97669 17.0476 7.6209 16.7504 7.32084C16.4531 7.02077 16.0995 6.78232 15.7099 6.61917C15.3203 6.45601 14.9023 6.37136 14.4799 6.37005V6.39005ZM14.4799 11.3C14.1409 11.302 13.8089 11.2032 13.5262 11.016C13.2434 10.8289 13.0227 10.5619 12.892 10.2491C12.7614 9.9362 12.7267 9.59156 12.7923 9.25892C12.858 8.92628 13.0211 8.62067 13.2608 8.38093C13.5006 8.14118 13.8062 7.97811 14.1388 7.91245C14.4714 7.84679 14.8161 7.88149 15.129 8.01216C15.4418 8.14282 15.7088 8.36354 15.8959 8.64628C16.083 8.92901 16.1819 9.261 16.1799 9.60005C16.1721 10.0466 15.9899 10.4724 15.6722 10.7864C15.3545 11.1003 14.9266 11.2775 14.4799 11.28V11.3Z" fill="black"/>
</svg>
