<svg width="24" height="24" viewBox="0 0 24 24" fill="none" xmlns="http://www.w3.org/2000/svg">
<path d="M20.8 8.08995H12.8V7.73995C12.7987 7.55788 12.8334 7.37736 12.9022 7.20877C12.9709 7.04019 13.0724 6.88687 13.2006 6.75767C13.3289 6.62846 13.4815 6.52592 13.6496 6.45594C13.8177 6.38597 13.9979 6.34994 14.18 6.34995H14.67C15.4251 6.33683 16.1449 6.02763 16.6742 5.48894C17.2036 4.95025 17.5001 4.22519 17.5 3.46995V2.81995C17.5 2.62103 17.421 2.43027 17.2803 2.28962C17.1397 2.14896 16.9489 2.06995 16.75 2.06995C16.5511 2.06995 16.3603 2.14896 16.2197 2.28962C16.079 2.43027 16 2.62103 16 2.81995V3.46995C16 3.83595 15.8546 4.18695 15.5958 4.44575C15.337 4.70455 14.986 4.84995 14.62 4.84995H14.13C13.3653 4.85259 12.6327 5.15824 12.0929 5.69994C11.5531 6.24163 11.25 6.9752 11.25 7.73995V8.08995H3.25C2.7348 8.08943 2.23927 8.28774 1.86668 8.64356C1.49409 8.99939 1.27318 9.48527 1.25 9.99995V20.7299C1.26305 21.2517 1.47951 21.7476 1.85317 22.1119C2.22684 22.4763 2.72812 22.6801 3.25 22.6799H20.8C21.3132 22.6673 21.8018 22.4578 22.1648 22.0948C22.5278 21.7318 22.7373 21.2431 22.75 20.7299V9.99995C22.7273 9.4938 22.5134 9.01511 22.1515 8.66058C21.7895 8.30605 21.3065 8.10211 20.8 8.08995ZM21.25 20.7299C21.25 20.8493 21.2026 20.9638 21.1182 21.0481C21.0338 21.1325 20.9193 21.1799 20.8 21.1799H3.2C3.08065 21.1799 2.96619 21.1325 2.8818 21.0481C2.79741 20.9638 2.75 20.8493 2.75 20.7299V9.99995C2.75 9.8806 2.79741 9.76614 2.8818 9.68175C2.96619 9.59736 3.08065 9.54995 3.2 9.54995H20.8C20.9193 9.54995 21.0338 9.59736 21.1182 9.68175C21.2026 9.76614 21.25 9.8806 21.25 9.99995V20.7299ZM15.73 15.8399C15.73 15.9843 15.6872 16.1255 15.607 16.2455C15.5268 16.3656 15.4127 16.4591 15.2794 16.5144C15.146 16.5696 14.9992 16.5841 14.8576 16.5559C14.716 16.5278 14.5859 16.4582 14.4838 16.3561C14.3817 16.254 14.3122 16.124 14.284 15.9824C14.2559 15.8408 14.2703 15.694 14.3256 15.5606C14.3808 15.4272 14.4744 15.3132 14.5944 15.233C14.7145 15.1528 14.8556 15.1099 15 15.1099C15.1936 15.1099 15.3793 15.1869 15.5162 15.3238C15.6531 15.4607 15.73 15.6463 15.73 15.8399ZM14 12.1099C14.1444 12.1099 14.2855 12.1528 14.4056 12.233C14.5256 12.3132 14.6192 12.4272 14.6744 12.5606C14.7297 12.694 14.7441 12.8408 14.716 12.9824C14.6878 13.124 14.6183 13.254 14.5162 13.3561C14.4141 13.4582 14.284 13.5278 14.1424 13.5559C14.0008 13.5841 13.854 13.5696 13.7206 13.5144C13.5873 13.4591 13.4732 13.3656 13.393 13.2455C13.3128 13.1255 13.27 12.9843 13.27 12.8399C13.27 12.6463 13.3469 12.4607 13.4838 12.3238C13.6207 12.1869 13.8064 12.1099 14 12.1099ZM12.73 15.8399C12.73 15.9843 12.6872 16.1255 12.607 16.2455C12.5268 16.3656 12.4127 16.4591 12.2794 16.5144C12.146 16.5696 11.9992 16.5841 11.8576 16.5559C11.716 16.5278 11.5859 16.4582 11.4838 16.3561C11.3817 16.254 11.3122 16.124 11.284 15.9824C11.2559 15.8408 11.2703 15.694 11.3256 15.5606C11.3808 15.4272 11.4744 15.3132 11.5944 15.233C11.7145 15.1528 11.8556 15.1099 12 15.1099C12.1936 15.1099 12.3793 15.1869 12.5162 15.3238C12.6531 15.4607 12.73 15.6463 12.73 15.8399ZM11 12.1099C11.1444 12.1099 11.2855 12.1528 11.4056 12.233C11.5256 12.3132 11.6192 12.4272 11.6744 12.5606C11.7297 12.694 11.7441 12.8408 11.716 12.9824C11.6878 13.124 11.6183 13.254 11.5162 13.3561C11.4141 13.4582 11.284 13.5278 11.1424 13.5559C11.0008 13.5841 10.854 13.5696 10.7206 13.5144C10.5873 13.4591 10.4732 13.3656 10.393 13.2455C10.3128 13.1255 10.27 12.9843 10.27 12.8399C10.27 12.7441 10.2889 12.6492 10.3256 12.5606C10.3623 12.472 10.416 12.3915 10.4838 12.3238C10.5516 12.256 10.6321 12.2022 10.7206 12.1655C10.8092 12.1288 10.9041 12.1099 11 12.1099ZM5 12.1099C5.14438 12.1099 5.28552 12.1528 5.40557 12.233C5.52561 12.3132 5.61918 12.4272 5.67443 12.5606C5.72968 12.694 5.74414 12.8408 5.71597 12.9824C5.68781 13.124 5.61828 13.254 5.51619 13.3561C5.4141 13.4582 5.28402 13.5278 5.14242 13.5559C5.00081 13.5841 4.85403 13.5696 4.72064 13.5144C4.58725 13.4591 4.47324 13.3656 4.39303 13.2455C4.31281 13.1255 4.27 12.9843 4.27 12.8399C4.27 12.7441 4.28888 12.6492 4.32557 12.5606C4.36225 12.472 4.41603 12.3915 4.48381 12.3238C4.5516 12.256 4.63207 12.2022 4.72064 12.1655C4.80921 12.1288 4.90413 12.1099 5 12.1099ZM6.12 19.5899H4.88C4.68109 19.5899 4.49032 19.5109 4.34967 19.3703C4.20902 19.2296 4.13 19.0389 4.13 18.8399C4.13 18.641 4.20902 18.4503 4.34967 18.3096C4.49032 18.169 4.68109 18.0899 4.88 18.0899H6.12C6.31891 18.0899 6.50968 18.169 6.65033 18.3096C6.79098 18.4503 6.87 18.641 6.87 18.8399C6.87 19.0389 6.79098 19.2296 6.65033 19.3703C6.50968 19.5109 6.31891 19.5899 6.12 19.5899ZM6.12 16.5899H4.88C4.68109 16.5899 4.49032 16.5109 4.34967 16.3703C4.20902 16.2296 4.13 16.0389 4.13 15.8399C4.13 15.641 4.20902 15.4503 4.34967 15.3096C4.49032 15.169 4.68109 15.0899 4.88 15.0899H6.12C6.31891 15.0899 6.50968 15.169 6.65033 15.3096C6.79098 15.4503 6.87 15.641 6.87 15.8399C6.87 16.0389 6.79098 16.2296 6.65033 16.3703C6.50968 16.5109 6.31891 16.5899 6.12 16.5899ZM7.27 12.8399C7.27 12.6956 7.31281 12.5544 7.39303 12.4344C7.47324 12.3143 7.58725 12.2208 7.72064 12.1655C7.85403 12.1103 8.00081 12.0958 8.14242 12.124C8.28402 12.1521 8.4141 12.2217 8.51619 12.3238C8.61828 12.4259 8.68781 12.5559 8.71597 12.6975C8.74414 12.8391 8.72968 12.9859 8.67443 13.1193C8.61918 13.2527 8.52561 13.3667 8.40557 13.4469C8.28552 13.5271 8.14438 13.5699 8 13.5699C7.80639 13.5699 7.62071 13.493 7.48381 13.3561C7.34691 13.2192 7.27 13.0336 7.27 12.8399ZM9 15.1099C9.14438 15.1099 9.28552 15.1528 9.40557 15.233C9.52561 15.3132 9.61918 15.4272 9.67443 15.5606C9.72968 15.694 9.74414 15.8408 9.71597 15.9824C9.68781 16.124 9.61828 16.254 9.51619 16.3561C9.41409 16.4582 9.28402 16.5278 9.14242 16.5559C9.00081 16.5841 8.85403 16.5696 8.72064 16.5144C8.58725 16.4591 8.47324 16.3656 8.39303 16.2455C8.31281 16.1255 8.27 15.9843 8.27 15.8399C8.27 15.6463 8.34691 15.4607 8.48381 15.3238C8.62071 15.1869 8.80639 15.1099 9 15.1099ZM16 19.5899H9.15C8.95109 19.5899 8.76032 19.5109 8.61967 19.3703C8.47902 19.2296 8.4 19.0389 8.4 18.8399C8.4 18.641 8.47902 18.4503 8.61967 18.3096C8.76032 18.169 8.95109 18.0899 9.15 18.0899H16C16.1989 18.0899 16.3897 18.169 16.5303 18.3096C16.671 18.4503 16.75 18.641 16.75 18.8399C16.75 19.0389 16.671 19.2296 16.5303 19.3703C16.3897 19.5109 16.1989 19.5899 16 19.5899ZM19 19.5899C18.8556 19.5899 18.7145 19.5471 18.5944 19.4669C18.4744 19.3867 18.3808 19.2727 18.3256 19.1393C18.2703 19.0059 18.2559 18.8591 18.284 18.7175C18.3122 18.5759 18.3817 18.4459 18.4838 18.3438C18.5859 18.2417 18.716 18.1721 18.8576 18.144C18.9992 18.1158 19.146 18.1303 19.2794 18.1855C19.4128 18.2408 19.5268 18.3343 19.607 18.4544C19.6872 18.5744 19.73 18.7156 19.73 18.8599C19.7248 19.0501 19.6456 19.2306 19.5092 19.3633C19.3729 19.4959 19.1902 19.57 19 19.5699V19.5899ZM19 16.5899H17.77C17.5711 16.5899 17.3803 16.5109 17.2397 16.3703C17.099 16.2296 17.02 16.0389 17.02 15.8399C17.02 15.641 17.099 15.4503 17.2397 15.3096C17.3803 15.169 17.5711 15.0899 17.77 15.0899H19C19.1989 15.0899 19.3897 15.169 19.5303 15.3096C19.671 15.4503 19.75 15.641 19.75 15.8399C19.75 16.0389 19.671 16.2296 19.5303 16.3703C19.3897 16.5109 19.1989 16.5899 19 16.5899ZM19.12 13.5899H17C16.8011 13.5899 16.6103 13.5109 16.4697 13.3703C16.329 13.2296 16.25 13.0389 16.25 12.8399C16.25 12.641 16.329 12.4503 16.4697 12.3096C16.6103 12.169 16.8011 12.0899 17 12.0899H19.12C19.3189 12.0899 19.5097 12.169 19.6503 12.3096C19.791 12.4503 19.87 12.641 19.87 12.8399C19.87 13.0389 19.791 13.2296 19.6503 13.3703C19.5097 13.5109 19.3189 13.5899 19.12 13.5899Z" fill="black"/>
</svg>
