<svg width="24" height="24" viewBox="0 0 24 24" fill="none" xmlns="http://www.w3.org/2000/svg">
<path d="M21 17.75H3C2.80189 17.7474 2.61263 17.6676 2.47253 17.5275C2.33244 17.3874 2.25259 17.1981 2.25 17V6.15C2.25 5.64609 2.45018 5.16282 2.8065 4.8065C3.16282 4.45018 3.64609 4.25 4.15 4.25H19.85C20.3539 4.25 20.8372 4.45018 21.1935 4.8065C21.5498 5.16282 21.75 5.64609 21.75 6.15V17C21.7474 17.1981 21.6676 17.3874 21.5275 17.5275C21.3874 17.6676 21.1981 17.7474 21 17.75ZM3.75 16.25H20.25V6.15C20.25 6.04391 20.2079 5.94217 20.1328 5.86716C20.0578 5.79214 19.9561 5.75 19.85 5.75H4.15C4.04391 5.75 3.94217 5.79214 3.86716 5.86716C3.79214 5.94217 3.75 6.04391 3.75 6.15V16.25ZM22.75 19.57C22.75 19.3711 22.671 19.1803 22.5303 19.0397C22.3897 18.899 22.1989 18.82 22 18.82H2C1.80109 18.82 1.61032 18.899 1.46967 19.0397C1.32902 19.1803 1.25 19.3711 1.25 19.57C1.25 19.7689 1.32902 19.9597 1.46967 20.1003C1.61032 20.241 1.80109 20.32 2 20.32H22C22.1981 20.3174 22.3874 20.2376 22.5275 20.0975C22.6676 19.9574 22.7474 19.7681 22.75 19.57Z" fill="black"/>
</svg>
