<svg width="24" height="24" viewBox="0 0 24 24" fill="none" xmlns="http://www.w3.org/2000/svg">
<path d="M22.4602 6.4901C22.4217 6.35452 22.368 6.22369 22.3002 6.1001C22.2147 5.96876 22.114 5.84793 22.0002 5.7401C21.8938 5.63056 21.7726 5.53632 21.6402 5.4601L18.7702 3.7501C18.5045 3.59552 18.2026 3.51409 17.8952 3.51409C17.5878 3.51409 17.2859 3.59552 17.0202 3.7501L14.1002 5.4101C13.8369 5.56682 13.6169 5.78681 13.4602 6.05011C13.3086 6.31492 13.2293 6.61495 13.2302 6.9201V10.3501L10.8802 11.6701V4.7801C10.879 4.46313 10.7926 4.15231 10.6302 3.8801C10.6126 3.8486 10.5925 3.81851 10.5702 3.7901C10.5049 3.69388 10.4313 3.60354 10.3502 3.5201C10.2458 3.4124 10.1282 3.31832 10.0002 3.2401L7.00021 1.6101C6.74143 1.46741 6.45073 1.39258 6.15522 1.39258C5.8597 1.39258 5.569 1.46741 5.31021 1.6101L2.38021 3.2501C2.38021 3.2501 2.32021 3.2501 2.29021 3.3101C2.18746 3.37129 2.09041 3.44158 2.00021 3.5201C1.94149 3.58227 1.88798 3.64917 1.84021 3.7201C1.84021 3.7201 1.75021 3.8201 1.71021 3.8801C1.55557 4.14779 1.47288 4.45097 1.47021 4.7601V17.0001C1.47195 17.3081 1.55405 17.6104 1.70838 17.877C1.86272 18.1435 2.08395 18.3652 2.35021 18.5201L9.16021 22.3901C9.4241 22.544 9.72476 22.6235 10.0302 22.6201C10.0968 22.6257 10.1637 22.6257 10.2302 22.6201C10.3135 22.6256 10.397 22.6256 10.4802 22.6201C10.6282 22.5809 10.7697 22.5203 10.9002 22.4401L17.7502 18.4401C18.016 18.2855 18.2363 18.0636 18.389 17.7968C18.5418 17.5299 18.6215 17.2276 18.6202 16.9201V13.5001L21.6202 11.7401C21.8832 11.5848 22.1015 11.3642 22.2539 11.0996C22.4064 10.835 22.4878 10.5355 22.4902 10.2301V6.9401C22.5005 6.78944 22.4904 6.63807 22.4602 6.4901ZM12.1602 15.4901L10.0602 16.7001L7.62021 15.2201L10.4902 13.6301L13.9702 11.6301L16.3902 13.0401L12.1602 15.4901ZM17.1602 11.7801L14.7502 10.3801V7.6701L17.1602 9.09011V11.7801ZM18.6602 11.7801V9.09011L21.0002 7.6801V10.2301C21.0006 10.2726 20.9897 10.3144 20.9686 10.3513C20.9475 10.3882 20.917 10.4189 20.8802 10.4401L18.6602 11.7801ZM18.0002 5.0001L20.2702 6.3301L17.8902 7.80011L15.4702 6.3601L17.7602 5.0001C17.7981 4.98359 17.8389 4.97506 17.8802 4.97506C17.9215 4.97506 17.9624 4.98359 18.0002 5.0001ZM6.86022 13.9201L6.79021 6.8601L9.38021 5.4501V12.5201L6.86022 13.9201ZM6.13021 2.9201C6.16957 2.90994 6.21086 2.90994 6.25021 2.9201L8.56021 4.1901L7.56021 4.7101L6.02022 5.55011L3.74021 4.2001L6.00021 2.9301C6.04036 2.90939 6.08505 2.89907 6.13021 2.9001V2.9201ZM3.13021 17.2101C3.09082 17.1911 3.05766 17.1612 3.03464 17.124C3.01161 17.0868 2.99967 17.0438 3.00021 17.0001V5.4901L5.29021 6.8501L5.38021 15.2001C5.37104 15.2665 5.37104 15.3338 5.38021 15.4001C5.39084 15.4584 5.4076 15.5154 5.43021 15.5701C5.4721 15.6305 5.52264 15.6844 5.58021 15.7301L5.69022 15.8401L9.30021 18.0001V20.7401L3.13021 17.2101ZM17.0002 17.0801L10.8002 20.7001V18.0001L17.1402 14.3801V16.8801C17.1369 16.9229 17.1222 16.9641 17.0975 16.9992C17.0729 17.0344 17.0393 17.0623 17.0002 17.0801Z" fill="black"/>
</svg>
