<svg width="24" height="24" viewBox="0 0 24 24" fill="none" xmlns="http://www.w3.org/2000/svg">
<path d="M14.4101 19C14.2777 18.9994 14.1469 18.9726 14.025 18.9212C13.9031 18.8697 13.7927 18.7945 13.7001 18.7L7.78005 12.75C7.5938 12.5626 7.48926 12.3092 7.48926 12.045C7.48926 11.7808 7.5938 11.5274 7.78005 11.34L13.7001 5.41C13.8884 5.22169 14.1437 5.11591 14.4101 5.11591C14.6764 5.11591 14.9317 5.22169 15.1201 5.41C15.3084 5.5983 15.4141 5.8537 15.4141 6.12C15.4141 6.3863 15.3084 6.64169 15.1201 6.83L9.90005 12L15.1201 17.22C15.2888 17.3536 15.41 17.5382 15.4655 17.7462C15.521 17.9542 15.5079 18.1745 15.4281 18.3745C15.3484 18.5744 15.2062 18.7433 15.0228 18.856C14.8394 18.9687 14.6245 19.0192 14.4101 19Z" fill="black"/>
</svg>
