<svg width="24" height="24" viewBox="0 0 24 24" fill="none" xmlns="http://www.w3.org/2000/svg">
<path d="M16.19 22.75H7.81C6.07018 22.75 4.40162 22.0589 3.17138 20.8286C1.94114 19.5984 1.25 17.9298 1.25 16.19V7.81C1.25 6.07018 1.94114 4.40162 3.17138 3.17138C4.40162 1.94114 6.07018 1.25 7.81 1.25H16.19C17.9298 1.25 19.5984 1.94114 20.8286 3.17138C22.0589 4.40162 22.75 6.07018 22.75 7.81V16.19C22.75 17.9298 22.0589 19.5984 20.8286 20.8286C19.5984 22.0589 17.9298 22.75 16.19 22.75ZM7.81 2.75C6.46882 2.75264 5.18332 3.2866 4.23496 4.23496C3.2866 5.18332 2.75264 6.46882 2.75 7.81V16.19C2.75264 17.5312 3.2866 18.8167 4.23496 19.765C5.18332 20.7134 6.46882 21.2474 7.81 21.25H16.19C17.5312 21.2474 18.8167 20.7134 19.765 19.765C20.7134 18.8167 21.2474 17.5312 21.25 16.19V7.81C21.2474 6.46882 20.7134 5.18332 19.765 4.23496C18.8167 3.2866 17.5312 2.75264 16.19 2.75H7.81ZM13.71 16.29C13.8963 16.1026 14.0008 15.8492 14.0008 15.585C14.0008 15.3208 13.8963 15.0674 13.71 14.88L10.94 12L13.86 9.2C14.0288 9.01235 14.1203 8.76782 14.1163 8.51547C14.1123 8.26313 14.0131 8.02162 13.8384 7.83941C13.6638 7.65719 13.4268 7.54774 13.1748 7.53302C12.9229 7.51829 12.6747 7.59937 12.48 7.76L8.83 11.2C8.73488 11.2906 8.65855 11.3991 8.60536 11.5192C8.55217 11.6393 8.52316 11.7687 8.52 11.9C8.5158 12.1644 8.61647 12.4197 8.8 12.61L12.29 16.26C12.3841 16.3587 12.4974 16.4372 12.623 16.4905C12.7485 16.5438 12.8836 16.5708 13.02 16.57C13.2775 16.569 13.5246 16.4687 13.71 16.29Z" fill="black"/>
</svg>
