<svg width="24" height="24" viewBox="0 0 24 24" fill="none" xmlns="http://www.w3.org/2000/svg">
<path d="M3.6901 21.17H5.7901C6.16532 21.1687 6.53471 21.0772 6.86713 20.9031C7.19954 20.7291 7.48523 20.4776 7.7001 20.17L9.6101 21.7C10.3081 22.1962 11.1437 22.4619 12.0001 22.46H17.0701C17.7124 22.4605 18.3379 22.2547 18.8545 21.8731C19.3712 21.4915 19.7517 20.9541 19.9401 20.34L22.5401 11.86C22.6553 11.4833 22.681 11.0849 22.6151 10.6966C22.5492 10.3082 22.3935 9.94058 22.1604 9.623C21.9273 9.30543 21.6233 9.04667 21.2725 8.86734C20.9218 8.688 20.534 8.59305 20.1401 8.59004H16.0701C16.0051 8.59013 15.9409 8.57582 15.8822 8.54816C15.8234 8.5205 15.7714 8.48016 15.7301 8.43004C15.6878 8.37918 15.657 8.3198 15.6397 8.25595C15.6225 8.1921 15.6192 8.12528 15.6301 8.06004L16.1601 5.06004C16.29 4.38146 16.1769 3.67878 15.8404 3.07534C15.5039 2.47189 14.9657 2.00621 14.3201 1.76004C13.9572 1.61602 13.5705 1.5414 13.1801 1.54004C12.6894 1.54587 12.2076 1.672 11.7769 1.90736C11.3463 2.14273 10.98 2.48015 10.7101 2.89004L7.9201 7.12004C7.73689 6.70763 7.43835 6.357 7.06044 6.11038C6.68252 5.86376 6.24136 5.73168 5.7901 5.73004H3.6901C3.06857 5.73268 2.47341 5.98144 2.03486 6.42186C1.59631 6.86229 1.35009 7.45851 1.3501 8.08004V18.83C1.3501 19.1373 1.41062 19.4416 1.52822 19.7255C1.64582 20.0094 1.81818 20.2674 2.03547 20.4847C2.25276 20.702 2.51072 20.8743 2.79462 20.9919C3.07852 21.1095 3.3828 21.17 3.6901 21.17ZM12.0001 3.71004C12.1891 3.42456 12.4706 3.21287 12.7974 3.11058C13.1241 3.00829 13.4761 3.02165 13.7941 3.1484C14.1122 3.27514 14.3769 3.50755 14.5437 3.80653C14.7105 4.10551 14.7693 4.45282 14.7101 4.79004L14.1901 7.79004C14.1394 8.06965 14.1507 8.35699 14.2233 8.63174C14.2959 8.9065 14.4279 9.16195 14.6101 9.38004C14.7935 9.59452 15.0201 9.76777 15.2752 9.88842C15.5303 10.0091 15.808 10.0744 16.0901 10.08H20.1601C20.3244 10.0707 20.4886 10.1021 20.6379 10.1715C20.7872 10.2408 20.917 10.3459 21.016 10.4775C21.1149 10.609 21.1798 10.763 21.2049 10.9257C21.2301 11.0884 21.2147 11.2547 21.1601 11.41L18.5601 19.89C18.4726 20.2156 18.278 20.5021 18.0077 20.7035C17.7373 20.9049 17.4071 21.0093 17.0701 21H12.0001C11.4707 21.006 10.9529 20.845 10.5201 20.54L8.1501 18.62V16.71V9.52004L12.0001 3.71004ZM2.8501 8.08004C2.84877 7.96889 2.86952 7.85858 2.91115 7.75551C2.95277 7.65244 3.01443 7.55866 3.09256 7.47959C3.1707 7.40053 3.26375 7.33776 3.36632 7.29492C3.46889 7.25209 3.57894 7.23003 3.6901 7.23004H5.7901C6.01379 7.23267 6.22744 7.32338 6.38468 7.48251C6.54193 7.64163 6.63011 7.85633 6.6301 8.08004V18.83C6.6275 19.052 6.53817 19.2642 6.3812 19.4211C6.22423 19.5781 6.01207 19.6674 5.7901 19.67H3.6901C3.46732 19.67 3.25366 19.5815 3.09613 19.424C2.9386 19.2665 2.8501 19.0528 2.8501 18.83V8.08004Z" fill="black"/>
</svg>
