<svg width="24" height="24" viewBox="0 0 24 24" fill="none" xmlns="http://www.w3.org/2000/svg">
<path d="M12 22.7999C11.5961 22.7945 11.1975 22.7075 10.8281 22.5443C10.4586 22.381 10.126 22.1449 9.85 21.85L8.14 20C8.00326 19.8526 7.83775 19.7349 7.65371 19.654C7.46967 19.5732 7.27101 19.531 7.07 19.53H5.92C4.94747 19.5273 4.01552 19.1398 3.32783 18.4521C2.64015 17.7644 2.25264 16.8325 2.25 15.86V4.85995C2.25527 3.88915 2.64394 2.95977 3.33135 2.27424C4.01875 1.58871 4.94919 1.20257 5.92 1.19995H18.08C19.0525 1.20259 19.9845 1.5901 20.6722 2.27778C21.3599 2.96547 21.7474 3.89742 21.75 4.86995V15.87C21.7474 16.8425 21.3599 17.7744 20.6722 18.4621C19.9845 19.1498 19.0525 19.5373 18.08 19.54H17C16.6197 19.558 16.2612 19.7229 16 20L14.19 21.8899C13.906 22.1825 13.5653 22.4141 13.1887 22.5705C12.8122 22.727 12.4077 22.8051 12 22.7999ZM5.92 2.69995C5.34448 2.69995 4.79253 2.92858 4.38558 3.33553C3.97862 3.74248 3.75 4.29443 3.75 4.86995V15.87C3.76048 16.4385 3.99373 16.9802 4.39955 17.3786C4.80537 17.7769 5.35134 18 5.92 18H7.07C7.48091 18.0091 7.88556 18.1026 8.25885 18.2746C8.63214 18.4466 8.96609 18.6935 9.24 19L10.94 20.84C11.0757 20.9852 11.2399 21.101 11.4222 21.1801C11.6045 21.2592 11.8012 21.3 12 21.2999C12.4021 21.2833 12.7851 21.1238 13.08 20.85L14.89 19C15.157 18.7007 15.4813 18.458 15.8437 18.2862C16.2061 18.1145 16.5993 18.0171 17 18H18C18.5755 18 19.1275 17.7713 19.5344 17.3644C19.9414 16.9574 20.17 16.4055 20.17 15.83V4.82995C20.1601 4.27497 19.938 3.74487 19.5492 3.34868C19.1605 2.95249 18.6347 2.72033 18.08 2.69995H5.92ZM12 15.64C11.6524 15.631 11.311 15.5456 11 15.39C9.75 14.8 6.85 13.06 6.9 9.89995C6.90199 9.11758 7.16166 8.35765 7.63886 7.73766C8.11606 7.11766 8.7842 6.67213 9.54 6.46995C10.358 6.25478 11.2247 6.32172 12 6.65995C12.862 6.28864 13.8309 6.24946 14.72 6.54995C15.4215 6.7894 16.0308 7.24185 16.4628 7.84419C16.8949 8.44653 17.1281 9.1687 17.13 9.90995C17.07 13.39 14.21 14.91 12.98 15.45C12.671 15.5836 12.3366 15.6485 12 15.64ZM10.52 7.84995C10.3139 7.84765 10.1085 7.87458 9.91 7.92995C9.46784 8.0453 9.07658 8.30439 8.79779 8.66645C8.519 9.02851 8.36851 9.47299 8.37 9.92995C8.37 12.21 10.63 13.57 11.62 14.04C11.7434 14.0922 11.876 14.1191 12.01 14.1191C12.144 14.1191 12.2766 14.0922 12.4 14.04C13.4 13.64 15.58 12.44 15.63 9.85995C15.609 9.44841 15.4667 9.05226 15.2212 8.72132C14.9757 8.39038 14.6378 8.1394 14.25 7.99995C13.9561 7.90009 13.645 7.86101 13.3356 7.88508C13.0262 7.90914 12.7249 7.99586 12.45 8.13995C12.3104 8.21029 12.1563 8.24692 12 8.24692C11.8437 8.24692 11.6896 8.21029 11.55 8.13995C11.2375 7.95597 10.8826 7.85606 10.52 7.84995Z" fill="black"/>
</svg>
