<svg width="24" height="24" viewBox="0 0 24 24" fill="none" xmlns="http://www.w3.org/2000/svg">
<path d="M12 22.7999C11.5961 22.7945 11.1975 22.7075 10.8281 22.5443C10.4586 22.381 10.126 22.1449 9.85 21.85L8.14 20C8.00326 19.8526 7.83775 19.7349 7.65371 19.654C7.46967 19.5732 7.27101 19.531 7.07 19.53H5.92C4.94747 19.5273 4.01552 19.1398 3.32783 18.4521C2.64015 17.7644 2.25264 16.8325 2.25 15.86V4.85995C2.25527 3.88915 2.64394 2.95977 3.33135 2.27424C4.01875 1.58871 4.94919 1.20257 5.92 1.19995H18.08C19.0525 1.20259 19.9845 1.5901 20.6722 2.27778C21.3599 2.96547 21.7474 3.89742 21.75 4.86995V15.87C21.7474 16.8425 21.3599 17.7744 20.6722 18.4621C19.9845 19.1498 19.0525 19.5373 18.08 19.54H17C16.6197 19.558 16.2612 19.7229 16 20L14.19 21.8899C13.906 22.1825 13.5653 22.4141 13.1887 22.5705C12.8122 22.727 12.4077 22.8051 12 22.7999ZM5.92 2.69995C5.34448 2.69995 4.79253 2.92858 4.38558 3.33553C3.97862 3.74248 3.75 4.29443 3.75 4.86995V15.87C3.76048 16.4385 3.99373 16.9802 4.39955 17.3786C4.80537 17.7769 5.35134 18 5.92 18H7.07C7.48091 18.0091 7.88556 18.1026 8.25885 18.2746C8.63214 18.4466 8.96609 18.6935 9.24 19L10.94 20.84C11.0757 20.9852 11.2399 21.101 11.4222 21.1801C11.6045 21.2592 11.8012 21.3 12 21.2999C12.4017 21.2816 12.7841 21.1223 13.08 20.85L14.89 19C15.157 18.7007 15.4813 18.458 15.8437 18.2862C16.2061 18.1145 16.5993 18.0171 17 18H18C18.5755 18 19.1275 17.7713 19.5344 17.3644C19.9414 16.9574 20.17 16.4055 20.17 15.83V4.82995C20.1601 4.27497 19.938 3.74487 19.5492 3.34868C19.1605 2.95249 18.6347 2.72033 18.08 2.69995H5.92ZM17.12 9.04995C16.9731 8.84823 16.7806 8.68416 16.5581 8.57118C16.3356 8.4582 16.0895 8.39953 15.84 8.39995H14.11L14.33 7.16995C14.4142 6.75175 14.3489 6.31724 14.1454 5.94231C13.9418 5.56738 13.6131 5.27586 13.2165 5.11865C12.8199 4.96145 12.3807 4.94855 11.9756 5.08222C11.5705 5.21588 11.2252 5.48761 11 5.84995L10 7.40995C9.72919 7.15377 9.3727 7.00761 9 6.99995H8C7.7987 6.99993 7.59939 7.0399 7.41366 7.11754C7.22793 7.19517 7.05947 7.30893 6.91806 7.4522C6.77666 7.59547 6.66511 7.7654 6.58991 7.95213C6.51471 8.13886 6.47735 8.33867 6.48 8.53995V13.67C6.48264 14.0713 6.64395 14.4554 6.92872 14.7383C7.21349 15.0212 7.5986 15.18 8 15.18H9C9.34328 15.1791 9.67558 15.0589 9.94 14.84L10.6 15.37C11.0102 15.6563 11.4998 15.8067 12 15.8H14.41C14.8017 15.8019 15.1835 15.6774 15.4988 15.445C15.8141 15.2126 16.0459 14.8847 16.16 14.51L17.4 10.51C17.4767 10.2623 17.4913 9.99958 17.4424 9.74496C17.3936 9.49035 17.2829 9.25166 17.12 9.04995ZM9 13.68H8V8.52995H9V13.66V13.68ZM14.7 14.07C14.6785 14.1376 14.6357 14.1965 14.5781 14.238C14.5205 14.2794 14.451 14.3011 14.38 14.3H12C11.8339 14.304 11.6704 14.2588 11.53 14.17L10.53 13.38V9.37995L12.3 6.69995C12.3169 6.66695 12.3402 6.63764 12.3685 6.61371C12.3968 6.58978 12.4296 6.5717 12.4649 6.56054C12.5003 6.54938 12.5375 6.54534 12.5744 6.54868C12.6113 6.55201 12.6472 6.56264 12.68 6.57995C12.7509 6.60303 12.8106 6.65166 12.8475 6.71635C12.8845 6.78105 12.8961 6.85719 12.88 6.92995L12.6 8.32995C12.5663 8.52022 12.5749 8.71556 12.625 8.90218C12.6751 9.08879 12.7656 9.26213 12.89 9.40995C13.011 9.55801 13.1636 9.67708 13.3367 9.75841C13.5097 9.83975 13.6988 9.88128 13.89 9.87995H15.83L15.92 9.99995L14.7 14.07Z" fill="black"/>
</svg>
