<svg width="24" height="24" viewBox="0 0 24 24" fill="none" xmlns="http://www.w3.org/2000/svg">
<path d="M12 22.75C11.2497 22.7494 10.5303 22.4509 10 21.92L8.59001 20.51C8.56361 20.4841 8.53234 20.4637 8.49802 20.45C8.46369 20.4363 8.42698 20.4295 8.39001 20.43H6.39001C5.64119 20.4274 4.92393 20.128 4.39536 19.5976C3.8668 19.0672 3.57001 18.3488 3.57001 17.6V15.6C3.57054 15.563 3.56375 15.5263 3.55002 15.492C3.53629 15.4577 3.51589 15.4264 3.49001 15.4L2.08001 14C1.5524 13.4681 1.25635 12.7492 1.25635 12C1.25635 11.2508 1.5524 10.5319 2.08001 10L3.49001 8.59001C3.51589 8.56361 3.53629 8.53234 3.55002 8.49802C3.56375 8.46369 3.57054 8.42698 3.57001 8.39001V6.39001C3.57266 5.64119 3.87199 4.92393 4.40243 4.39536C4.93287 3.8668 5.65118 3.57001 6.40001 3.57001H8.40001C8.43698 3.57054 8.47369 3.56375 8.50802 3.55002C8.54234 3.53629 8.57361 3.51589 8.60001 3.49001L10 2.08001C10.5319 1.5524 11.2508 1.25635 12 1.25635C12.7492 1.25635 13.4681 1.5524 14 2.08001L15.41 3.49001C15.4364 3.51589 15.4677 3.53629 15.502 3.55002C15.5363 3.56375 15.573 3.57054 15.61 3.57001H17.61C18.3588 3.57266 19.0761 3.87199 19.6047 4.40243C20.1332 4.93287 20.43 5.65118 20.43 6.40001V8.40001C20.4295 8.43698 20.4363 8.47369 20.45 8.50802C20.4637 8.54234 20.4841 8.57361 20.51 8.60001L21.92 10C22.4476 10.5319 22.7437 11.2508 22.7437 12C22.7437 12.7492 22.4476 13.4681 21.92 14L20.51 15.41C20.4841 15.4364 20.4637 15.4677 20.45 15.502C20.4363 15.5363 20.4295 15.573 20.43 15.61V17.61C20.43 17.9817 20.3568 18.3497 20.2146 18.693C20.0724 19.0364 19.8639 19.3483 19.6011 19.6111C19.3383 19.8739 19.0264 20.0824 18.683 20.2246C18.3397 20.3668 17.9717 20.44 17.6 20.44H15.6C15.563 20.4395 15.5263 20.4463 15.492 20.46C15.4577 20.4737 15.4264 20.4941 15.4 20.52L14 21.92C13.4697 22.4509 12.7504 22.7494 12 22.75ZM6.40001 5.07001C6.04809 5.07263 5.71131 5.2136 5.46245 5.46245C5.2136 5.71131 5.07263 6.04809 5.07001 6.40001V8.40001C5.07261 8.63422 5.02788 8.86654 4.93853 9.08305C4.84918 9.29956 4.71703 9.4958 4.55001 9.66001L3.14001 11.06C2.89087 11.3094 2.75092 11.6475 2.75092 12C2.75092 12.3525 2.89087 12.6906 3.14001 12.94L4.55001 14.35C4.71703 14.5142 4.84918 14.7105 4.93853 14.927C5.02788 15.1435 5.07261 15.3758 5.07001 15.61V17.61C5.07523 17.9602 5.21734 18.2944 5.46592 18.5411C5.71451 18.7879 6.0498 18.9274 6.40001 18.93H8.40001C8.63422 18.9274 8.86654 18.9721 9.08305 19.0615C9.29956 19.1509 9.4958 19.283 9.66001 19.45L11.07 20.86C11.3194 21.1092 11.6575 21.2491 12.01 21.2491C12.3625 21.2491 12.7006 21.1092 12.95 20.86L14.36 19.45C14.5242 19.283 14.7205 19.1509 14.937 19.0615C15.1535 18.9721 15.3858 18.9274 15.62 18.93H17.62C17.9719 18.9274 18.3087 18.7864 18.5576 18.5376C18.8064 18.2887 18.9474 17.9519 18.95 17.6V15.6C18.948 15.3659 18.993 15.1337 19.0823 14.9173C19.1716 14.7009 19.3035 14.5046 19.47 14.34L20.88 12.93C21.1292 12.6806 21.2691 12.3425 21.2691 11.99C21.2691 11.6375 21.1292 11.2994 20.88 11.05L19.45 9.65001C19.2835 9.48546 19.1516 9.28915 19.0623 9.07272C18.973 8.8563 18.928 8.62414 18.93 8.39001V6.39001C18.9248 6.03983 18.7827 5.7056 18.5341 5.45889C18.2855 5.21217 17.9502 5.07259 17.6 5.07001H15.6C15.1281 5.06856 14.6756 4.88182 14.34 4.55001L12.94 3.14001C12.6906 2.89087 12.3525 2.75092 12 2.75092C11.6475 2.75092 11.3094 2.89087 11.06 3.14001L9.65001 4.55001C9.48546 4.71657 9.28915 4.84841 9.07272 4.93773C8.8563 5.02705 8.62414 5.07204 8.39001 5.07001H6.40001ZM17.27 10.64C17.1204 10.4443 16.9285 10.2851 16.7085 10.1742C16.4885 10.0634 16.2463 10.0038 16 10H14.26L14.47 8.78001C14.5425 8.36809 14.4708 7.94379 14.2671 7.57849C14.0635 7.21319 13.7402 6.92919 13.3517 6.77426C12.9632 6.61933 12.5332 6.60294 12.134 6.72783C11.7349 6.85272 11.3909 7.11129 11.16 7.46001L10.13 9.00001C9.85624 8.75225 9.49924 8.61659 9.13001 8.62001H8.13001C7.72954 8.62001 7.34546 8.7791 7.06228 9.06228C6.7791 9.34546 6.62001 9.72954 6.62001 10.13V15.26C6.62001 15.4583 6.65907 15.6547 6.73496 15.8379C6.81084 16.0211 6.92207 16.1875 7.06228 16.3277C7.2025 16.468 7.36896 16.5792 7.55216 16.6551C7.73536 16.731 7.93172 16.77 8.13001 16.77H9.13001C9.4733 16.7691 9.80559 16.6489 10.07 16.43L10.72 16.95C11.1194 17.2363 11.5986 17.3902 12.09 17.39H14.51C14.9017 17.3919 15.2835 17.2674 15.5988 17.035C15.9141 16.8026 16.146 16.4747 16.26 16.1L17.49 12.05C17.5673 11.8143 17.5877 11.5637 17.5495 11.3186C17.5112 11.0735 17.4155 10.8409 17.27 10.64ZM9.14001 15.27H8.14001V10.12H9.14001V10.56C9.12957 10.6229 9.12957 10.6871 9.14001 10.75V14.18V15.25V15.27ZM14.83 15.66C14.8104 15.7269 14.7695 15.7855 14.7136 15.827C14.6576 15.8685 14.5897 15.8906 14.52 15.89H12.1C11.936 15.891 11.7756 15.8422 11.64 15.75L10.64 14.97V10.97L12.4 8.29001C12.4379 8.22451 12.4991 8.17575 12.5715 8.1535C12.6438 8.13124 12.7219 8.13714 12.79 8.17001C12.8609 8.1931 12.9206 8.24172 12.9576 8.30642C12.9945 8.37112 13.0061 8.44726 12.99 8.52001L12.73 9.95001C12.7032 10.135 12.7157 10.3235 12.7666 10.5033C12.8175 10.6831 12.9058 10.8502 13.0256 10.9936C13.1455 11.137 13.2942 11.2535 13.462 11.3356C13.6299 11.4177 13.8132 11.4635 14 11.47H15.6C15.645 11.4698 15.6895 11.4801 15.7298 11.5001C15.7702 11.52 15.8053 11.5491 15.8325 11.585C15.8597 11.6209 15.8781 11.6626 15.8864 11.7069C15.8946 11.7512 15.8924 11.7967 15.88 11.84L14.83 15.66Z" fill="black"/>
</svg>
