<svg width="24" height="24" viewBox="0 0 24 24" fill="none" xmlns="http://www.w3.org/2000/svg">
<path d="M22 8.74C21.9098 7.03129 21.1778 5.41964 19.9503 4.22746C18.7229 3.03528 17.0907 2.35046 15.38 2.31H10.48C10.2203 1.98018 9.88922 1.71346 9.51166 1.52988C9.1341 1.3463 8.71987 1.25061 8.30004 1.25H6.15004C5.50441 1.25131 4.86537 1.37994 4.26951 1.62853C3.67365 1.87712 3.13266 2.24078 2.67753 2.69871C2.22239 3.15663 1.86203 3.69982 1.61708 4.29719C1.37214 4.89456 1.24741 5.53437 1.25004 6.18V17.07C1.24741 17.8141 1.39154 18.5515 1.67418 19.2398C1.95681 19.9282 2.37242 20.5541 2.8972 21.0816C3.42198 21.6092 4.04564 22.0281 4.7325 22.3144C5.41935 22.6007 6.15592 22.7487 6.90004 22.75H17C17.7442 22.7487 18.4807 22.6007 19.1676 22.3144C19.8544 22.0281 20.4781 21.6092 21.0029 21.0816C21.5277 20.5541 21.9433 19.9282 22.2259 19.2398C22.5085 18.5515 22.6527 17.8141 22.65 17.07V11.35C22.6443 10.4407 22.4214 9.54583 22 8.74ZM19.68 6.36C18.8593 5.9074 17.9373 5.67002 17 5.67H13.83C13.2726 5.67152 12.7277 5.50418 12.2672 5.19002C11.8066 4.87586 11.452 4.4296 11.25 3.91V3.84H15.42C16.2877 3.85423 17.1368 4.09406 17.8837 4.5359C18.6307 4.97774 19.2497 5.60638 19.68 6.36ZM21.12 17.07C21.1227 18.1663 20.6904 19.2188 19.9181 19.9968C19.1457 20.7748 18.0963 21.2147 17 21.22H6.90004C6.35637 21.2187 5.81828 21.1103 5.31649 20.901C4.8147 20.6918 4.35905 20.3857 3.97554 20.0004C3.59204 19.615 3.28819 19.1579 3.08135 18.6551C2.87451 18.1523 2.76873 17.6137 2.77004 17.07V6.18C2.76873 5.73482 2.85511 5.29374 3.02426 4.88194C3.19341 4.47014 3.44201 4.09569 3.75587 3.77997C4.06974 3.46426 4.44271 3.21345 4.8535 3.04187C5.2643 2.8703 5.70486 2.78131 6.15004 2.78H8.30004C8.55344 2.77782 8.80142 2.85333 9.01061 2.99636C9.21979 3.13939 9.38013 3.34308 9.47004 3.58L9.83004 4.48C10.1447 5.28389 10.6951 5.97384 11.4089 6.45927C12.1228 6.9447 12.9668 7.20291 13.83 7.2H17C17.5437 7.20131 18.0818 7.3097 18.5836 7.51896C19.0854 7.72823 19.541 8.03428 19.9245 8.41965C20.308 8.80501 20.6119 9.26214 20.8187 9.76493C21.0256 10.2677 21.1314 10.8063 21.13 11.35L21.12 17.07ZM11.8 16.72C11.3298 16.7229 10.8696 16.5835 10.48 16.32C8.80004 15.19 8.00004 14 8.00004 12.91C7.96728 12.2437 8.19896 11.5915 8.64469 11.0952C9.09041 10.5989 9.7141 10.2987 10.38 10.26C10.9367 10.2598 11.4727 10.4707 11.88 10.85C12.2921 10.4717 12.8307 10.2612 13.39 10.26C14.0552 10.2987 14.6779 10.5992 15.122 11.0958C15.5661 11.5924 15.7955 12.2447 15.76 12.91C15.76 13.91 14.91 15.08 13.23 16.28C12.8147 16.5799 12.3121 16.7345 11.8 16.72ZM10.33 11.79C9.87004 11.79 9.48004 12.3 9.48004 12.91C9.48004 13.52 10.17 14.27 11.33 15.05C11.4747 15.1572 11.65 15.215 11.83 15.215C12.0101 15.215 12.1854 15.1572 12.33 15.05C13.72 14.05 14.22 13.27 14.22 12.92C14.22 12.31 13.83 11.8 13.37 11.8C13.227 11.8082 13.0887 11.8541 12.9693 11.9332C12.8498 12.0122 12.7535 12.1216 12.69 12.25C12.6039 12.3917 12.4838 12.5098 12.3407 12.5936C12.1975 12.6774 12.0358 12.7243 11.87 12.73C11.7043 12.7243 11.5425 12.6774 11.3994 12.5936C11.2562 12.5098 11.1362 12.3917 11.05 12.25C10.9839 12.1146 10.8817 12 10.7547 11.9188C10.6277 11.8377 10.4807 11.7931 10.33 11.79Z" fill="black"/>
</svg>
