<svg width="24" height="24" viewBox="0 0 24 24" fill="none" xmlns="http://www.w3.org/2000/svg">
<path d="M12.0002 7C11.7349 7 11.4806 6.89464 11.293 6.70711C11.1055 6.51957 11.0002 6.26522 11.0002 6V3C11.0002 2.73478 11.1055 2.48043 11.293 2.29289C11.4806 2.10536 11.7349 2 12.0002 2C12.2654 2 12.5197 2.10536 12.7073 2.29289C12.8948 2.48043 13.0002 2.73478 13.0002 3V6C13.0002 6.26522 12.8948 6.51957 12.7073 6.70711C12.5197 6.89464 12.2654 7 12.0002 7ZM9.41016 7.56C9.52391 7.49384 9.62349 7.40587 9.70317 7.30115C9.78286 7.19643 9.8411 7.077 9.87455 6.94973C9.90799 6.82246 9.91598 6.68983 9.89807 6.55946C9.88016 6.42909 9.83669 6.30354 9.77016 6.19L8.39016 3.84C8.25179 3.62234 8.03467 3.46655 7.78415 3.40519C7.53363 3.34383 7.2691 3.38163 7.0458 3.51071C6.82249 3.63978 6.6577 3.85015 6.58584 4.09785C6.51398 4.34556 6.5406 4.61146 6.66016 4.84L8.00016 7.21C8.08866 7.35928 8.21449 7.48295 8.36528 7.56886C8.51607 7.65478 8.68661 7.69997 8.86016 7.7C9.05353 7.71111 9.24563 7.66222 9.41016 7.56ZM7.41016 9.34C7.53877 9.1182 7.57727 8.85548 7.51772 8.6061C7.45817 8.35673 7.30511 8.13975 7.09016 8L5.00016 6.73C4.77162 6.61045 4.50572 6.58382 4.25801 6.65568C4.0103 6.72755 3.79994 6.89234 3.67086 7.11564C3.54179 7.33894 3.50398 7.60348 3.56534 7.854C3.62671 8.10451 3.78249 8.32163 4.00016 8.46L6.08016 9.7C6.23256 9.78638 6.40498 9.83121 6.58016 9.83C6.75539 9.83172 6.928 9.78735 7.08069 9.70136C7.23338 9.61536 7.36079 9.49074 7.45016 9.34H7.41016ZM6.59016 12C6.59016 11.7348 6.4848 11.4804 6.29726 11.2929C6.10973 11.1054 5.85537 11 5.59016 11H3.41016C3.14494 11 2.89059 11.1054 2.70305 11.2929C2.51551 11.4804 2.41016 11.7348 2.41016 12C2.41016 12.2652 2.51551 12.5196 2.70305 12.7071C2.89059 12.8946 3.14494 13 3.41016 13H5.59016C5.85537 13 6.10973 12.8946 6.29726 12.7071C6.4848 12.5196 6.59016 12.2652 6.59016 12ZM16.7502 5.51C16.7502 5.70778 16.6915 5.90112 16.5816 6.06557C16.4717 6.23002 16.3156 6.35819 16.1328 6.43388C15.9501 6.50957 15.749 6.52937 15.5551 6.49079C15.3611 6.4522 15.1829 6.35696 15.043 6.21711C14.9032 6.07725 14.808 5.89907 14.7694 5.70509C14.7308 5.51111 14.7506 5.31004 14.8263 5.12732C14.902 4.94459 15.0301 4.78841 15.1946 4.67853C15.359 4.56865 15.5524 4.51 15.7502 4.51C16.0154 4.51 16.2697 4.61536 16.4573 4.80289C16.6448 4.99043 16.7502 5.24478 16.7502 5.51ZM5.21016 17.13L6.85016 16.13C6.96966 16.0675 7.07529 15.9814 7.16068 15.877C7.24607 15.7727 7.30946 15.6521 7.34703 15.5225C7.38461 15.393 7.3956 15.2572 7.37933 15.1233C7.36307 14.9894 7.31989 14.8602 7.2524 14.7435C7.18491 14.6267 7.09449 14.5248 6.98659 14.4439C6.87869 14.363 6.75554 14.3047 6.62454 14.2726C6.49355 14.2405 6.35741 14.2353 6.22433 14.2572C6.09125 14.2791 5.96397 14.3276 5.85016 14.4L4.20016 15.4C3.9721 15.5353 3.80711 15.7556 3.74148 16.0125C3.67585 16.2694 3.71494 16.5419 3.85016 16.77C3.93741 16.9211 4.0627 17.0468 4.21357 17.1345C4.36444 17.2222 4.53564 17.2689 4.71016 17.27C4.88585 17.2655 5.05767 17.2174 5.21016 17.13ZM7.80016 20.18C7.61917 20.1717 7.44491 20.109 7.30016 20C7.07312 19.8664 6.90797 19.6487 6.84056 19.394C6.77315 19.1394 6.80894 18.8684 6.94016 18.64L7.77016 17.22C7.91576 17.0198 8.13046 16.8807 8.3727 16.8297C8.61494 16.7786 8.8675 16.8192 9.08152 16.9437C9.29554 17.0681 9.45579 17.2675 9.53128 17.5032C9.60676 17.739 9.59211 17.9944 9.49016 18.22L8.66016 19.63C8.57942 19.7905 8.45695 19.9262 8.30562 20.023C8.15429 20.1198 7.97969 20.174 7.80016 20.18ZM12.0002 21.18C11.7349 21.18 11.4806 21.0746 11.293 20.8871C11.1055 20.6996 11.0002 20.4452 11.0002 20.18V18.82C11.0002 18.5548 11.1055 18.3004 11.293 18.1129C11.4806 17.9254 11.7349 17.82 12.0002 17.82C12.2654 17.82 12.5197 17.9254 12.7073 18.1129C12.8948 18.3004 13.0002 18.5548 13.0002 18.82V20.18C13.0002 20.4452 12.8948 20.6996 12.7073 20.8871C12.5197 21.0746 12.2654 21.18 12.0002 21.18ZM16.0602 20C15.8856 19.9989 15.7144 19.9522 15.5636 19.8645C15.4127 19.7768 15.2874 19.6511 15.2002 19.5L14.6502 18.56C14.5679 18.4468 14.5102 18.3177 14.481 18.1808C14.4517 18.044 14.4515 17.9026 14.4804 17.7656C14.5092 17.6287 14.5665 17.4994 14.6485 17.386C14.7305 17.2726 14.8353 17.1777 14.9563 17.1073C15.0772 17.037 15.2116 16.9928 15.3507 16.9777C15.4898 16.9626 15.6306 16.9768 15.7638 17.0195C15.8971 17.0621 16.0199 17.1323 16.1243 17.2254C16.2288 17.3185 16.3125 17.4325 16.3702 17.56L16.9202 18.5C17.0554 18.7281 17.0945 19.0006 17.0288 19.2575C16.9632 19.5144 16.7982 19.7347 16.5702 19.87C16.4138 19.9555 16.2384 20.0002 16.0602 20ZM18.8302 17C18.6516 17.003 18.4755 16.9581 18.3202 16.87L17.6202 16.45C17.4927 16.3924 17.3787 16.3086 17.2855 16.2042C17.1924 16.0997 17.1223 15.9769 17.0796 15.8437C17.037 15.7104 17.0227 15.5697 17.0379 15.4306C17.053 15.2915 17.0972 15.1571 17.1675 15.0361C17.2378 14.9152 17.3327 14.8103 17.4461 14.7283C17.5595 14.6463 17.6889 14.5891 17.8258 14.5602C17.9627 14.5314 18.1042 14.5316 18.241 14.5608C18.3778 14.5901 18.507 14.6477 18.6202 14.73L19.3202 15.14C19.4339 15.2062 19.5335 15.2941 19.6132 15.3989C19.6929 15.5036 19.7511 15.623 19.7845 15.7503C19.818 15.8775 19.826 16.0102 19.8081 16.1405C19.7902 16.2709 19.7467 16.3965 19.6802 16.51C19.5925 16.6578 19.4683 16.7806 19.3194 16.8664C19.1705 16.9522 19.002 16.9982 18.8302 17ZM19.7702 13H19.2302C18.9649 13 18.7106 12.8946 18.5231 12.7071C18.3355 12.5196 18.2302 12.2652 18.2302 12C18.2302 11.7348 18.3355 11.4804 18.5231 11.2929C18.7106 11.1054 18.9649 11 19.2302 11H19.7702C20.0354 11 20.2897 11.1054 20.4773 11.2929C20.6648 11.4804 20.7702 11.7348 20.7702 12C20.7702 12.2652 20.6648 12.5196 20.4773 12.7071C20.2897 12.8946 20.0354 13 19.7702 13ZM18.3502 9.27C18.1311 9.26994 17.9181 9.19792 17.7439 9.06503C17.5697 8.93214 17.444 8.74572 17.386 8.53443C17.3281 8.32314 17.3412 8.09868 17.4232 7.89553C17.5053 7.69238 17.6517 7.5218 17.8402 7.41L18.0802 7.27C18.3057 7.16805 18.5611 7.15339 18.7969 7.22888C19.0327 7.30436 19.2321 7.46462 19.3565 7.67864C19.4809 7.89265 19.5216 8.14522 19.4705 8.38746C19.4195 8.6297 19.2804 8.84439 19.0802 8.99L18.8502 9.13C18.6977 9.2174 18.5259 9.26551 18.3502 9.27Z" fill="black"/>
</svg>
