<svg width="24" height="24" viewBox="0 0 24 24" fill="none" xmlns="http://www.w3.org/2000/svg">
<path d="M9 15.36C9 15.5578 8.94135 15.7511 8.83147 15.9156C8.72159 16.08 8.56541 16.2082 8.38268 16.2839C8.19996 16.3596 7.99889 16.3794 7.80491 16.3408C7.61093 16.3022 7.43275 16.207 7.29289 16.0671C7.15304 15.9273 7.0578 15.7491 7.01921 15.5551C6.98063 15.3611 7.00043 15.16 7.07612 14.9773C7.15181 14.7946 7.27998 14.6384 7.44443 14.5285C7.60888 14.4186 7.80222 14.36 8 14.36C8.26522 14.36 8.51957 14.4654 8.70711 14.6529C8.89464 14.8404 9 15.0948 9 15.36ZM12 14.36C11.8022 14.36 11.6089 14.4186 11.4444 14.5285C11.28 14.6384 11.1518 14.7946 11.0761 14.9773C11.0004 15.16 10.9806 15.3611 11.0192 15.5551C11.0578 15.7491 11.153 15.9273 11.2929 16.0671C11.4327 16.207 11.6109 16.3022 11.8049 16.3408C11.9989 16.3794 12.2 16.3596 12.3827 16.2839C12.5654 16.2082 12.7216 16.08 12.8315 15.9156C12.9414 15.7511 13 15.5578 13 15.36C12.9974 15.0965 12.8908 14.8447 12.7036 14.6593C12.5163 14.474 12.2635 14.37 12 14.37V14.36ZM16 14.36C15.8022 14.36 15.6089 14.4186 15.4444 14.5285C15.28 14.6384 15.1518 14.7946 15.0761 14.9773C15.0004 15.16 14.9806 15.3611 15.0192 15.5551C15.0578 15.7491 15.153 15.9273 15.2929 16.0671C15.4327 16.207 15.6109 16.3022 15.8049 16.3408C15.9989 16.3794 16.2 16.3596 16.3827 16.2839C16.5654 16.2082 16.7216 16.08 16.8315 15.9156C16.9414 15.7511 17 15.5578 17 15.36C17 15.0948 16.8946 14.8404 16.7071 14.6529C16.5196 14.4654 16.2652 14.36 16 14.36ZM22.75 13.36V18.1C22.75 19.3359 22.259 20.5212 21.3851 21.3951C20.5112 22.269 19.3259 22.76 18.09 22.76H5.91C4.67409 22.76 3.4888 22.269 2.61488 21.3951C1.74096 20.5212 1.25 19.3359 1.25 18.1V13.36C1.25415 12.1598 1.72124 11.0074 2.55395 10.1431C3.38666 9.27868 4.52077 8.76893 5.72 8.72V7.42C5.72528 5.98242 6.29938 4.60538 7.31685 3.58979C8.33431 2.5742 9.71241 2.00263 11.15 2H12.85C14.2893 2.00264 15.6689 2.57558 16.6867 3.59333C17.7044 4.61108 18.2774 5.99069 18.28 7.43V8.73C19.4775 8.77885 20.6102 9.28721 21.4426 10.1494C22.2751 11.0117 22.7433 12.1615 22.75 13.36ZM7.22 7.42V8.7H16.78V7.42C16.78 6.3777 16.3659 5.37809 15.6289 4.64107C14.8919 3.90405 13.8923 3.49 12.85 3.49H11.15C10.1077 3.49 9.10809 3.90405 8.37107 4.64107C7.63405 5.37809 7.22 6.3777 7.22 7.42ZM21.22 13.36C21.2174 12.5227 20.8836 11.7205 20.2915 11.1285C19.6995 10.5364 18.8973 10.2026 18.06 10.2H5.91C5.07273 10.2026 4.2705 10.5364 3.67846 11.1285C3.08641 11.7205 2.75264 12.5227 2.75 13.36V18.1C2.75264 18.9373 3.08641 19.7395 3.67846 20.3315C4.2705 20.9236 5.07273 21.2574 5.91 21.26H18.09C18.9273 21.2574 19.7295 20.9236 20.3215 20.3315C20.9136 19.7395 21.2474 18.9373 21.25 18.1L21.22 13.36Z" fill="black"/>
</svg>
