<svg width="24" height="24" viewBox="0 0 24 24" fill="none" xmlns="http://www.w3.org/2000/svg">
<path d="M12 1.25C9.87386 1.25 7.79545 1.88048 6.02762 3.0617C4.2598 4.24293 2.88194 5.92185 2.0683 7.88615C1.25466 9.85046 1.04177 12.0119 1.45656 14.0972C1.87135 16.1825 2.89519 18.098 4.39861 19.6014C5.90202 21.1048 7.81749 22.1287 9.90278 22.5434C11.9881 22.9582 14.1495 22.7453 16.1139 21.9317C18.0782 21.1181 19.7571 19.7402 20.9383 17.9724C22.1195 16.2046 22.75 14.1261 22.75 12C22.7474 9.14974 21.6139 6.41697 19.5985 4.40153C17.583 2.38608 14.8503 1.25265 12 1.25ZM12 21.25C10.1705 21.25 8.38213 20.7075 6.86098 19.6911C5.33983 18.6747 4.15423 17.23 3.45412 15.5398C2.75401 13.8496 2.57083 11.9897 2.92774 10.1954C3.28465 8.40109 4.16563 6.7529 5.45927 5.45926C6.7529 4.16563 8.40109 3.28465 10.1954 2.92774C11.9897 2.57082 13.8496 2.754 15.5398 3.45411C17.23 4.15423 18.6747 5.33982 19.6911 6.86098C20.7075 8.38213 21.25 10.1705 21.25 12C21.2474 14.4524 20.272 16.8037 18.5378 18.5378C16.8037 20.272 14.4524 21.2474 12 21.25ZM15.68 9.75V9.38C15.68 8.52335 15.3397 7.70179 14.734 7.09605C14.1282 6.4903 13.3067 6.15 12.45 6.15H11.55C10.6934 6.15 9.87179 6.4903 9.26605 7.09605C8.66031 7.70179 8.32 8.52335 8.32 9.38V9.75C7.66932 9.86523 7.08007 10.2061 6.65577 10.7127C6.23147 11.2193 5.99929 11.8592 6 12.52V15C6 15.7479 6.29711 16.4652 6.82596 16.994C7.08782 17.2559 7.3987 17.4636 7.74084 17.6053C8.08298 17.7471 8.44968 17.82 8.82 17.82H15.26C15.994 17.7992 16.6909 17.4929 17.2025 16.9663C17.7142 16.4397 18.0003 15.7343 18 15V12.52C18.0007 11.8592 17.7685 11.2193 17.3442 10.7127C16.9199 10.2061 16.3307 9.86523 15.68 9.75ZM11.55 7.65H12.45C12.908 7.65263 13.3465 7.83574 13.6704 8.15961C13.9943 8.48348 14.1774 8.92199 14.18 9.38V9.7H9.82V9.38C9.82263 8.92199 10.0057 8.48348 10.3296 8.15961C10.6535 7.83574 11.092 7.65263 11.55 7.65ZM16.55 15.03C16.55 15.3801 16.4109 15.7158 16.1634 15.9634C15.9158 16.2109 15.5801 16.35 15.23 16.35H8.78C8.60411 16.35 8.42997 16.3149 8.26784 16.2467C8.1057 16.1785 7.95883 16.0786 7.83586 15.9528C7.71288 15.8271 7.61628 15.678 7.55174 15.5144C7.4872 15.3507 7.45601 15.1759 7.46 15V12.52C7.46 12.1699 7.59908 11.8342 7.84662 11.5866C8.09417 11.3391 8.42992 11.2 8.78 11.2H15.22C15.5701 11.2 15.9058 11.3391 16.1534 11.5866C16.4009 11.8342 16.54 12.1699 16.54 12.52L16.55 15.03ZM12 12C11.6396 11.998 11.2868 12.1031 10.9862 12.3019C10.6855 12.5006 10.4507 12.7842 10.3114 13.1166C10.1721 13.4489 10.1347 13.8152 10.2038 14.1689C10.2729 14.5226 10.4454 14.8478 10.6995 15.1034C10.9537 15.3589 11.2779 15.5332 11.6312 15.6043C11.9846 15.6753 12.351 15.6398 12.6842 15.5024C13.0173 15.3649 13.3021 15.1317 13.5026 14.8322C13.703 14.5327 13.81 14.1804 13.81 13.82C13.81 13.339 13.6196 12.8776 13.2805 12.5366C12.9413 12.1956 12.481 12.0026 12 12ZM12 14.13C11.9359 14.132 11.8727 14.1146 11.8186 14.0803C11.7644 14.0459 11.7219 13.996 11.6964 13.9371C11.671 13.8783 11.6638 13.8131 11.6758 13.7501C11.6879 13.6871 11.7185 13.6292 11.7639 13.5839C11.8092 13.5385 11.8672 13.5079 11.9301 13.4958C11.9931 13.4838 12.0583 13.491 12.1172 13.5164C12.176 13.5419 12.2259 13.5844 12.2603 13.6386C12.2946 13.6927 12.312 13.7559 12.31 13.82C12.3002 13.8951 12.2633 13.964 12.2062 14.0138C12.1491 14.0635 12.0757 14.0906 12 14.09V14.13Z" fill="black"/>
</svg>
