<svg width="24" height="24" viewBox="0 0 24 24" fill="none" xmlns="http://www.w3.org/2000/svg">
<path d="M19.5401 11.79H18.0901L13.5001 7.41999C13.8285 7.15395 14.0791 6.80427 14.2254 6.40779C14.3718 6.0113 14.4085 5.58269 14.3318 5.16708C14.255 4.75148 14.0675 4.36427 13.7892 4.04624C13.5108 3.72821 13.1519 3.49114 12.7501 3.35999V2.35999C12.7501 2.16107 12.6711 1.97031 12.5304 1.82966C12.3898 1.689 12.199 1.60999 12.0001 1.60999C11.8012 1.60999 11.6104 1.689 11.4698 1.82966C11.3291 1.97031 11.2501 2.16107 11.2501 2.35999V3.99999C11.2501 4.1989 11.3291 4.38966 11.4698 4.53032C11.6104 4.67097 11.8012 4.74999 12.0001 4.74999C12.1951 4.75337 12.3834 4.8222 12.5346 4.94544C12.6858 5.06867 12.7912 5.23915 12.8339 5.42949C12.8766 5.61984 12.8541 5.819 12.77 5.99501C12.6858 6.17101 12.545 6.31364 12.3701 6.39999C12.2591 6.33591 12.1332 6.30218 12.0051 6.30218C11.877 6.30218 11.7511 6.33591 11.6401 6.39999C11.4891 6.33273 11.3607 6.22339 11.2703 6.08505C11.1798 5.94672 11.1312 5.78526 11.1301 5.61999C11.1301 5.42107 11.0511 5.23031 10.9104 5.08965C10.7698 4.949 10.579 4.86999 10.3801 4.86999C10.1812 4.86999 9.99042 4.949 9.84977 5.08965C9.70912 5.23031 9.6301 5.42107 9.6301 5.61999C9.6316 5.96879 9.71041 6.31292 9.86084 6.62762C10.0113 6.94233 10.2296 7.21977 10.5001 7.43999L5.9101 11.79H4.4601C3.96852 11.79 3.49693 11.9846 3.1484 12.3312C2.79987 12.6779 2.60274 13.1484 2.6001 13.64V20.49C2.60272 20.9825 2.79953 21.4541 3.14778 21.8023C3.49603 22.1506 3.96761 22.3474 4.4601 22.35H19.5401C20.0326 22.3474 20.5042 22.1506 20.8524 21.8023C21.2007 21.4541 21.3975 20.9825 21.4001 20.49V13.64C21.3975 13.1484 21.2003 12.6779 20.8518 12.3312C20.5033 11.9846 20.0317 11.79 19.5401 11.79ZM12.0001 8.05999L15.9201 11.79H8.0801L12.0001 8.05999ZM19.9001 20.49C19.9001 20.5855 19.8622 20.677 19.7947 20.7445C19.7271 20.8121 19.6356 20.85 19.5401 20.85H4.4601C4.36462 20.85 4.27305 20.8121 4.20554 20.7445C4.13803 20.677 4.1001 20.5855 4.1001 20.49V13.64C4.1027 13.5463 4.14178 13.4572 4.20901 13.3919C4.27624 13.3265 4.36633 13.2899 4.4601 13.29H19.5401C19.6339 13.2899 19.724 13.3265 19.7912 13.3919C19.8584 13.4572 19.8975 13.5463 19.9001 13.64V20.49ZM7.0901 14.62V19.28C7.0901 19.4789 7.01108 19.6697 6.87043 19.8103C6.72978 19.951 6.53901 20.03 6.3401 20.03C6.14119 20.03 5.95042 19.951 5.80977 19.8103C5.66912 19.6697 5.5901 19.4789 5.5901 19.28V14.62C5.5901 14.4211 5.66912 14.2303 5.80977 14.0897C5.95042 13.949 6.14119 13.87 6.3401 13.87C6.53901 13.87 6.72978 13.949 6.87043 14.0897C7.01108 14.2303 7.0901 14.4211 7.0901 14.62ZM10.8601 14.62V19.28C10.8601 19.4789 10.7811 19.6697 10.6404 19.8103C10.4998 19.951 10.309 20.03 10.1101 20.03C9.91119 20.03 9.72042 19.951 9.57977 19.8103C9.43912 19.6697 9.3601 19.4789 9.3601 19.28V14.62C9.3601 14.4211 9.43912 14.2303 9.57977 14.0897C9.72042 13.949 9.91119 13.87 10.1101 13.87C10.309 13.87 10.4998 13.949 10.6404 14.0897C10.7811 14.2303 10.8601 14.4211 10.8601 14.62ZM14.6401 14.62V19.28C14.6401 19.4789 14.5611 19.6697 14.4204 19.8103C14.2798 19.951 14.089 20.03 13.8901 20.03C13.6912 20.03 13.5004 19.951 13.3598 19.8103C13.2191 19.6697 13.1401 19.4789 13.1401 19.28V14.62C13.1401 14.4211 13.2191 14.2303 13.3598 14.0897C13.5004 13.949 13.6912 13.87 13.8901 13.87C14.089 13.87 14.2798 13.949 14.4204 14.0897C14.5611 14.2303 14.6401 14.4211 14.6401 14.62ZM18.4101 14.62V19.28C18.4101 19.4789 18.3311 19.6697 18.1904 19.8103C18.0498 19.951 17.859 20.03 17.6601 20.03C17.4612 20.03 17.2704 19.951 17.1298 19.8103C16.9891 19.6697 16.9101 19.4789 16.9101 19.28V14.62C16.9101 14.4211 16.9891 14.2303 17.1298 14.0897C17.2704 13.949 17.4612 13.87 17.6601 13.87C17.859 13.87 18.0498 13.949 18.1904 14.0897C18.3311 14.2303 18.4101 14.4211 18.4101 14.62Z" fill="black"/>
</svg>
