<svg width="24" height="24" viewBox="0 0 24 24" fill="none" xmlns="http://www.w3.org/2000/svg">
<path d="M8.39 13.54H3.32C2.771 13.54 2.24449 13.7581 1.85629 14.1463C1.46809 14.5345 1.25 15.061 1.25 15.61V20.68C1.25 21.229 1.46809 21.7555 1.85629 22.1437C2.24449 22.5319 2.771 22.75 3.32 22.75H8.39C8.66184 22.75 8.93101 22.6965 9.18215 22.5925C9.4333 22.4884 9.66149 22.336 9.85371 22.1437C10.0459 21.9515 10.1984 21.7233 10.3024 21.4722C10.4065 21.221 10.46 20.9519 10.46 20.68V15.61C10.4613 15.3378 10.4087 15.068 10.3051 14.8163C10.2016 14.5646 10.0491 14.3358 9.85666 14.1434C9.66418 13.9509 9.43546 13.7985 9.18372 13.6949C8.93198 13.5913 8.66221 13.5387 8.39 13.54ZM9 20.68C9 20.8312 8.93995 20.9762 8.83305 21.0831C8.72615 21.19 8.58117 21.25 8.43 21.25H3.32C3.16963 21.2475 3.02614 21.1866 2.91979 21.0802C2.81345 20.9739 2.75257 20.8304 2.75 20.68V15.61C2.7445 15.5319 2.75517 15.4534 2.78135 15.3796C2.80752 15.3058 2.84863 15.2381 2.90212 15.1809C2.95561 15.1236 3.02032 15.078 3.09222 15.0469C3.16412 15.0158 3.24166 14.9998 3.32 15H4.32V15.54C4.32 15.8052 4.42536 16.0596 4.61289 16.2471C4.80043 16.4347 5.05478 16.54 5.32 16.54H6.32C6.58522 16.54 6.83957 16.4347 7.02711 16.2471C7.21464 16.0596 7.32 15.8052 7.32 15.54V15H8.32C8.39523 14.9987 8.46995 15.0125 8.53972 15.0407C8.60949 15.0688 8.67287 15.1108 8.72607 15.164C8.77927 15.2172 8.82121 15.2805 8.84937 15.3503C8.87754 15.4201 8.89136 15.4948 8.89 15.57L9 20.68ZM20.72 13.54H15.61C15.3378 13.5387 15.068 13.5913 14.8163 13.6949C14.5645 13.7985 14.3358 13.9509 14.1433 14.1434C13.9509 14.3358 13.7984 14.5646 13.6949 14.8163C13.5913 15.068 13.5387 15.3378 13.54 15.61V20.68C13.54 21.229 13.7581 21.7555 14.1463 22.1437C14.5345 22.5319 15.061 22.75 15.61 22.75H20.68C21.229 22.75 21.7555 22.5319 22.1437 22.1437C22.5319 21.7555 22.75 21.229 22.75 20.68V15.61C22.75 15.061 22.5319 14.5345 22.1437 14.1463C21.7555 13.7581 21.229 13.54 20.68 13.54H20.72ZM21.29 20.68C21.2874 20.8304 21.2266 20.9739 21.1202 21.0802C21.0139 21.1866 20.8704 21.2475 20.72 21.25H15.61C15.4588 21.25 15.3138 21.19 15.2069 21.0831C15.1001 20.9762 15.04 20.8312 15.04 20.68V15.61C15.0386 15.5348 15.0525 15.4601 15.0806 15.3903C15.1088 15.3205 15.1507 15.2572 15.2039 15.204C15.2571 15.1508 15.3205 15.1088 15.3903 15.0807C15.46 15.0525 15.5348 15.0387 15.61 15.04H16.61V15.58C16.61 15.8452 16.7154 16.0996 16.9029 16.2871C17.0904 16.4747 17.3448 16.58 17.61 16.58H18.61C18.8752 16.58 19.1296 16.4747 19.3171 16.2871C19.5046 16.0996 19.61 15.8452 19.61 15.58V15H20.61C20.7612 15 20.9062 15.0601 21.0131 15.167C21.1199 15.2739 21.18 15.4188 21.18 15.57L21.29 20.68ZM8.39 1.25002H3.39C3.10944 1.24871 2.83139 1.30283 2.57181 1.40928C2.31223 1.51573 2.07624 1.67242 1.87739 1.87034C1.67854 2.06826 1.52076 2.30351 1.41309 2.56259C1.30542 2.82167 1.25 3.09946 1.25 3.38002V8.38002C1.25 8.92902 1.46809 9.45553 1.85629 9.84373C2.24449 10.2319 2.771 10.45 3.32 10.45H8.39C8.66221 10.4513 8.93198 10.3987 9.18372 10.2952C9.43546 10.1916 9.66418 10.0392 9.85666 9.84669C10.0491 9.65421 10.2016 9.42548 10.3051 9.17374C10.4087 8.922 10.4613 8.65223 10.46 8.38002V3.32002C10.46 3.04819 10.4065 2.77901 10.3024 2.52787C10.1984 2.27672 10.0459 2.04853 9.85371 1.85631C9.66149 1.6641 9.4333 1.51162 9.18215 1.40759C8.93101 1.30357 8.66184 1.25002 8.39 1.25002ZM9 8.39002C9.00772 8.47205 8.99724 8.55478 8.96932 8.63229C8.94139 8.70981 8.8967 8.78021 8.83844 8.83847C8.78018 8.89673 8.70978 8.94141 8.63227 8.96934C8.55475 8.99726 8.47203 9.00774 8.39 9.00002H3.32C3.16883 9.00002 3.02384 8.93997 2.91695 8.83307C2.81005 8.72618 2.75 8.5812 2.75 8.43002V3.43002C2.75 3.26294 2.81637 3.10269 2.93452 2.98455C3.05267 2.8664 3.21291 2.80002 3.38 2.80002H4.32V3.30002C4.32 3.56524 4.42536 3.81959 4.61289 4.00713C4.80043 4.19467 5.05478 4.30002 5.32 4.30002H6.32C6.58522 4.30002 6.83957 4.19467 7.02711 4.00713C7.21464 3.81959 7.32 3.56524 7.32 3.30002V2.75002H8.32C8.40349 2.73359 8.4896 2.73605 8.57202 2.75724C8.65443 2.77842 8.73106 2.81779 8.79627 2.87246C8.86148 2.92712 8.91363 2.99569 8.94888 3.07314C8.98414 3.15059 9.0016 3.23494 9 3.32002V8.39002ZM20.68 1.25002H15.61C15.061 1.25002 14.5345 1.46811 14.1463 1.85631C13.7581 2.24451 13.54 2.77103 13.54 3.32002V8.39002C13.5387 8.66223 13.5913 8.932 13.6949 9.18374C13.7984 9.43548 13.9509 9.66421 14.1433 9.85669C14.3358 10.0492 14.5645 10.2016 14.8163 10.3052C15.068 10.4087 15.3378 10.4613 15.61 10.46H20.68C20.9518 10.46 21.221 10.4065 21.4722 10.3025C21.7233 10.1984 21.9515 10.046 22.1437 9.85373C22.3359 9.66152 22.4884 9.43332 22.5924 9.18218C22.6965 8.93103 22.75 8.66186 22.75 8.39002V3.32002C22.75 2.77103 22.5319 2.24451 22.1437 1.85631C21.7555 1.46811 21.229 1.25002 20.68 1.25002ZM21.25 8.39002C21.25 8.5412 21.1899 8.68618 21.0831 8.79307C20.9762 8.89997 20.8312 8.96002 20.68 8.96002H15.61C15.5315 8.96708 15.4524 8.95749 15.3779 8.93189C15.3034 8.90628 15.2351 8.86524 15.1775 8.81144C15.12 8.75764 15.0744 8.6923 15.0438 8.61968C15.0132 8.54706 14.9983 8.4688 15 8.39002V3.32002C15 3.16885 15.0601 3.02387 15.1669 2.91697C15.2738 2.81008 15.4188 2.75002 15.57 2.75002H16.57V3.30002C16.57 3.56524 16.6754 3.81959 16.8629 4.00713C17.0504 4.19467 17.3048 4.30002 17.57 4.30002H18.57C18.8352 4.30002 19.0896 4.19467 19.2771 4.00713C19.4646 3.81959 19.57 3.56524 19.57 3.30002V2.75002H20.57C20.7204 2.75259 20.8639 2.81347 20.9702 2.91982C21.0766 3.02616 21.1374 3.16965 21.14 3.32002L21.25 8.39002Z" fill="black"/>
</svg>
