<svg width="24" height="24" viewBox="0 0 24 24" fill="none" xmlns="http://www.w3.org/2000/svg">
<path d="M21.17 10.4001C21.2556 9.88073 21.3057 9.35618 21.32 8.83005C21.307 7.57333 20.9062 6.35128 20.1723 5.33101C19.4385 4.31074 18.4073 3.54205 17.22 3.13005C16.2898 2.81198 15.3 2.70706 14.3237 2.82303C13.3475 2.939 12.4098 3.2729 11.58 3.80005C10.8151 3.31562 9.95842 2.99449 9.06358 2.85682C8.16874 2.71915 7.25511 2.76792 6.38 3.00005C5.07786 3.33508 3.92411 4.09365 3.10039 5.15635C2.27666 6.21904 1.82975 7.5255 1.83 8.87005C1.71 15.7601 9.39 19.3701 10.93 20.0201C11.1454 20.1104 11.3764 20.158 11.61 20.1601C11.7938 20.1611 11.9765 20.1307 12.15 20.0701C12.37 19.9901 12.69 19.8801 13.07 19.7101C13.8455 20.2621 14.6767 20.7313 15.55 21.1101C15.7245 21.1819 15.9113 21.2193 16.1 21.2201C16.2463 21.2213 16.3917 21.1976 16.53 21.1501C17.53 20.8001 22.59 18.8101 22.67 13.5801C22.6626 12.9734 22.5249 12.3755 22.2661 11.8268C22.0072 11.2781 21.6334 10.7915 21.17 10.4001ZM11.66 18.6501C11.66 18.6501 11.6 18.6501 11.52 18.6501C10.13 18.0601 3.23 14.8301 3.33 8.90005C3.32456 7.88228 3.65902 6.89181 4.28037 6.08569C4.90172 5.27956 5.77438 4.70393 6.76 4.45005C7.50386 4.24758 8.28446 4.21985 9.0408 4.36904C9.79714 4.51823 10.5087 4.84029 11.12 5.31005C11.252 5.40674 11.4114 5.45887 11.575 5.45887C11.7386 5.45887 11.898 5.40674 12.03 5.31005C12.6956 4.80498 13.4757 4.47222 14.3009 4.34137C15.1261 4.21052 15.9708 4.28564 16.76 4.56005C17.6387 4.87496 18.4013 5.44863 18.9476 6.2055C19.4938 6.96236 19.798 7.86693 19.82 8.80006C19.82 9.07006 19.82 9.34005 19.77 9.61005C19.1607 9.41006 18.516 9.34141 17.8782 9.40864C17.2405 9.47586 16.6242 9.67742 16.07 10.0001C15.5542 9.69855 14.9839 9.50182 14.3919 9.42117C13.7998 9.34052 13.1977 9.37752 12.62 9.53005C11.7169 9.76265 10.9166 10.2885 10.3446 11.0252C9.7727 11.7618 9.46155 12.6675 9.46 13.6001C9.47065 14.5473 9.67997 15.4818 10.0744 16.3431C10.4689 17.2043 11.0397 17.9732 11.75 18.6001L11.66 18.6501ZM16.13 19.7301C15.26 19.3601 10.9 17.3201 10.96 13.6301C10.9625 13.0281 11.1639 12.4439 11.5328 11.9682C11.9018 11.4926 12.4176 11.1522 13 11.0001C13.2623 10.9379 13.5305 10.9044 13.8 10.9001C14.4558 10.8976 15.0934 11.116 15.61 11.5201C15.7436 11.6176 15.9046 11.6701 16.07 11.6701C16.2354 11.6701 16.3965 11.6176 16.53 11.5201C16.9267 11.2149 17.3935 11.0139 17.8878 10.9353C18.3821 10.8567 18.8882 10.903 19.36 11.0701C19.878 11.2597 20.3272 11.6001 20.6499 12.0475C20.9725 12.4949 21.1537 13.0287 21.17 13.5801C21.1 17.7801 16.89 19.4401 16.13 19.7301Z" fill="black"/>
</svg>
