<svg width="24" height="25" viewBox="0 0 24 25" fill="none" xmlns="http://www.w3.org/2000/svg">
<path d="M16.77 16.19L16.44 17.28C16.3866 17.456 16.2781 17.6102 16.1305 17.72C15.9829 17.8298 15.804 17.8894 15.62 17.89H9.80002C9.66878 17.8861 9.54018 17.8521 9.42408 17.7908C9.30798 17.7295 9.20746 17.6424 9.13023 17.5362C9.053 17.43 9.00112 17.3075 8.97855 17.1782C8.95598 17.0489 8.96332 16.9161 9.00002 16.79L9.87002 13.71L8.12002 14.06H7.97002C7.77873 14.0682 7.59154 14.003 7.44681 13.8776C7.30208 13.7523 7.21077 13.5763 7.19159 13.3858C7.17241 13.1953 7.22682 13.0047 7.34366 12.853C7.4605 12.7013 7.63093 12.6001 7.82002 12.57L10.33 12.07L11.57 7.71999C11.6204 7.53862 11.7288 7.37877 11.8787 7.26497C12.0287 7.15117 12.2118 7.0897 12.4 7.08999H13.72C13.8529 7.09025 13.9839 7.12093 14.1031 7.17969C14.2222 7.23844 14.3263 7.3237 14.4074 7.42893C14.4885 7.53415 14.5444 7.65656 14.5709 7.78675C14.5973 7.91693 14.5936 8.05145 14.56 8.17999L13.67 11.4L15.43 11.04C15.6246 11.0044 15.8255 11.0462 15.9898 11.1564C16.1541 11.2665 16.269 11.4365 16.31 11.63C16.3303 11.7266 16.3311 11.8263 16.3123 11.9232C16.2935 12.0202 16.2555 12.1123 16.2005 12.1943C16.1455 12.2763 16.0747 12.3465 15.9922 12.4007C15.9096 12.4549 15.8171 12.4921 15.72 12.51L13.22 13.02L12.81 14.5C12.7934 14.5645 12.7916 14.632 12.8048 14.6973C12.818 14.7626 12.8459 14.8241 12.8863 14.8771C12.9268 14.93 12.9787 14.9731 13.0383 15.0031C13.0978 15.033 13.1634 15.0491 13.23 15.05H16C16.1333 15.0566 16.2633 15.0942 16.3795 15.1597C16.4958 15.2253 16.5952 15.317 16.6699 15.4276C16.7446 15.5382 16.7926 15.6646 16.8099 15.797C16.8273 15.9293 16.8136 16.0639 16.77 16.19ZM22.77 12.5C22.77 10.3747 22.14 8.29708 20.9597 6.52969C19.7794 4.7623 18.1016 3.38444 16.1385 2.57021C14.1753 1.75598 12.0149 1.54193 9.93015 1.9551C7.8454 2.36828 5.9299 3.39013 4.42569 4.89155C2.92149 6.39296 1.89607 8.30656 1.47903 10.3905C1.06198 12.4745 1.27201 14.6353 2.08259 16.6C2.89317 18.5646 4.26791 20.2449 6.0331 21.4286C7.7983 22.6122 9.87473 23.246 12 23.25C14.8503 23.2473 17.5831 22.1139 19.5985 20.0985C21.6139 18.083 22.7474 15.3503 22.75 12.5H22.77ZM21.27 12.5C21.27 14.3286 20.728 16.1162 19.7125 17.6369C18.697 19.1576 17.2535 20.3432 15.5644 21.0439C13.8754 21.7446 12.0166 21.929 10.2228 21.5737C8.429 21.2184 6.78078 20.3394 5.48635 19.0478C4.19193 17.7561 3.30937 16.1098 2.95021 14.3168C2.59104 12.5238 2.77137 10.6646 3.46841 8.974C4.16546 7.28344 5.34794 5.83741 6.86646 4.81861C8.38498 3.7998 10.1714 3.25394 12 3.24999C14.4525 3.25263 16.8037 4.22803 18.5378 5.96217C20.272 7.69631 21.2474 10.0475 21.25 12.5H21.27Z" fill="black"/>
</svg>
