<svg width="24" height="24" viewBox="0 0 24 24" fill="none" xmlns="http://www.w3.org/2000/svg">
<path d="M20.4602 22.75C19.8953 22.7429 19.3533 22.5254 18.9402 22.14L16.0602 19.41C14.3982 20.3937 12.4827 20.8643 10.5541 20.7629C8.62548 20.6615 6.76984 19.9925 5.2202 18.84C4.18956 18.0762 3.31994 17.1164 2.66127 16.0156C2.00261 14.9149 1.56788 13.6948 1.38204 12.4255C1.19621 11.1563 1.26293 9.86282 1.57837 8.61942C1.89382 7.37601 2.45177 6.20717 3.2202 5.18C4.72999 3.13623 6.97593 1.7603 9.48248 1.34354C11.989 0.926783 14.5594 1.50192 16.6493 2.94718C18.7392 4.39243 20.1845 6.59433 20.6793 9.08665C21.1741 11.579 20.6795 14.166 19.3002 16.3L22.0502 18.87C22.4685 19.2915 22.7032 19.8612 22.7032 20.455C22.7032 21.0488 22.4685 21.6185 22.0502 22.04C21.8482 22.2613 21.6027 22.4385 21.3292 22.5606C21.0556 22.6828 20.7598 22.7473 20.4602 22.75ZM16.2302 17.51L20.0002 21C20.1374 21.1322 20.3197 21.2073 20.5102 21.21C20.6944 21.2053 20.8698 21.1301 21.0002 21C21.1232 20.8625 21.1912 20.6845 21.1912 20.5C21.1912 20.3155 21.1232 20.1375 21.0002 20L17.3102 16.54L17.7102 16C19.0257 14.2376 19.5872 12.0249 19.2712 9.84853C18.9552 7.67217 17.7876 5.71048 16.0252 4.395C14.2628 3.07953 12.0501 2.51803 9.87372 2.83403C7.69736 3.15003 5.73567 4.31764 4.4202 6.08C3.76943 6.94898 3.2968 7.93798 3.02946 8.99019C2.76212 10.0424 2.70534 11.1371 2.86238 12.2113C3.01943 13.2855 3.3872 14.3181 3.94457 15.2497C4.50193 16.1814 5.23791 16.9937 6.1102 17.64C7.49365 18.6699 9.16387 19.2427 10.8882 19.2785C12.6126 19.3144 14.3051 18.8115 15.7302 17.84L16.2302 17.51ZM11.0002 18.08C10.0612 18.08 9.13149 17.8951 8.26401 17.5357C7.39653 17.1764 6.60832 16.6498 5.94439 15.9858C5.28045 15.3219 4.75378 14.5337 4.39446 13.6662C4.03514 12.7987 3.8502 11.869 3.8502 10.93C3.8502 9.99105 4.03514 9.06129 4.39446 8.19382C4.75378 7.32634 5.28045 6.53813 5.94439 5.87419C6.60832 5.21025 7.39653 4.68358 8.26401 4.32426C9.13149 3.96494 10.0612 3.78 11.0002 3.78C11.9392 3.78 12.8689 3.96494 13.7364 4.32426C14.6039 4.68358 15.3921 5.21025 16.056 5.87419C16.72 6.53813 17.2466 7.32634 17.6059 8.19382C17.9653 9.06129 18.1502 9.99105 18.1502 10.93C18.1502 11.869 17.9653 12.7987 17.6059 13.6662C17.2466 14.5337 16.72 15.3219 16.056 15.9858C15.3921 16.6498 14.6039 17.1764 13.7364 17.5357C12.8689 17.8951 11.9392 18.08 11.0002 18.08ZM11.0002 5.28C9.50173 5.28 8.06463 5.87527 7.00505 6.93485C5.94547 7.99443 5.3502 9.43153 5.3502 10.93C5.3502 12.4285 5.94547 13.8656 7.00505 14.9252C8.06463 15.9847 9.50173 16.58 11.0002 16.58C12.4987 16.58 13.9358 15.9847 14.9954 14.9252C16.0549 13.8656 16.6502 12.4285 16.6502 10.93C16.6502 9.43153 16.0549 7.99443 14.9954 6.93485C13.9358 5.87527 12.4987 5.28 11.0002 5.28Z" fill="black"/>
</svg>
