<svg width="24" height="24" viewBox="0 0 24 24" fill="none" xmlns="http://www.w3.org/2000/svg">
<path d="M16.0501 1.25012H8.00012C7.11221 1.24481 6.23208 1.41578 5.41074 1.75312C4.58939 2.09046 3.84317 2.58746 3.21531 3.21531C2.58746 3.84317 2.09046 4.58939 1.75312 5.41074C1.41578 6.23208 1.24481 7.11221 1.25012 8.00012V16.1001C1.26597 17.8763 1.9854 19.5736 3.25071 20.8202C4.51601 22.0668 6.22395 22.7608 8.00012 22.7501H16.1001C17.8763 22.7475 19.5789 22.0407 20.8348 20.7848C22.0907 19.5289 22.7975 17.8263 22.8001 16.0501V8.00012C22.8054 7.11221 22.6345 6.23208 22.2971 5.41074C21.9598 4.58939 21.4628 3.84317 20.8349 3.21531C20.2071 2.58746 19.4608 2.09046 18.6395 1.75312C17.8182 1.41578 16.938 1.24481 16.0501 1.25012ZM2.75012 16.0501V8.00012C2.74344 7.30882 2.87467 6.62313 3.13615 5.98316C3.39762 5.34318 3.78408 4.76177 4.27292 4.27292C4.76177 3.78408 5.34318 3.39762 5.98316 3.13615C6.62313 2.87467 7.30882 2.74344 8.00012 2.75012H16.1001C17.1196 2.75286 18.1159 3.05467 18.9656 3.61814C19.8153 4.18162 20.4809 4.982 20.8801 5.92012L6.39012 21.0001C5.33542 20.6701 4.41361 20.012 3.75891 19.1216C3.1042 18.2313 2.75079 17.1553 2.75012 16.0501ZM8.21012 21.2501L14.2101 14.9701L19.2101 20.1001C18.2995 20.8397 17.1632 21.2455 15.9901 21.2501H8.21012ZM21.2101 16.0501C21.2185 17.1239 20.8897 18.1731 20.2701 19.0501L15.2701 13.9301L21.2201 7.72012C21.225 7.81005 21.225 7.90019 21.2201 7.99012L21.2101 16.0501ZM7.69012 13.3701C7.86986 13.5683 8.08902 13.7267 8.33356 13.8351C8.57809 13.9436 8.8426 13.9998 9.11012 14.0001C9.37625 14.0003 9.63942 13.9443 9.8824 13.8357C10.1254 13.7271 10.3427 13.5685 10.5201 13.3701L12.3601 11.3101C12.9247 10.682 13.2952 9.90385 13.4267 9.06965C13.5583 8.23545 13.4454 7.38099 13.1016 6.60963C12.7577 5.83828 12.1978 5.18307 11.4894 4.72326C10.7811 4.26345 9.95463 4.01875 9.11012 4.01875C8.26561 4.01875 7.43918 4.26345 6.73082 4.72326C6.02245 5.18307 5.46249 5.83828 5.11867 6.60963C4.77485 7.38099 4.66191 8.23545 4.79349 9.06965C4.92508 9.90385 5.29556 10.682 5.86012 11.3101L7.69012 13.3701ZM6.27012 8.00012C6.35784 7.37204 6.65042 6.79047 7.10246 6.34567C7.55449 5.90086 8.1407 5.6177 8.77012 5.54012H9.11012C9.81242 5.53747 10.4903 5.7979 11.0101 6.27012C11.5694 6.77104 11.9076 7.47306 11.9507 8.22265C11.9938 8.97224 11.7383 9.70839 11.2401 10.2701L9.40012 12.3701C9.36323 12.4105 9.31846 12.4428 9.26859 12.4652C9.21871 12.4875 9.16478 12.4994 9.11012 12.5001C9.05387 12.5002 8.99821 12.4887 8.9466 12.4663C8.89499 12.444 8.84853 12.4112 8.81012 12.3701L7.00012 10.3101C6.71263 10.0047 6.4977 9.63842 6.37131 9.23849C6.24493 8.83855 6.21034 8.41527 6.27012 8.00012ZM7.75012 8.38012C7.75406 8.11202 7.83716 7.85108 7.98898 7.63007C8.1408 7.40907 8.35455 7.23787 8.60338 7.13799C8.85221 7.03812 9.12501 7.01402 9.38749 7.06874C9.64997 7.12345 9.89043 7.25453 10.0786 7.4455C10.2668 7.63647 10.3944 7.87881 10.4453 8.14207C10.4961 8.40532 10.4681 8.67774 10.3646 8.92508C10.2611 9.17243 10.0868 9.38366 9.86358 9.53223C9.64038 9.68081 9.37824 9.76009 9.11012 9.76012C8.932 9.76144 8.75537 9.7275 8.59043 9.66024C8.42548 9.59299 8.27547 9.49376 8.14905 9.36827C8.02263 9.24278 7.9223 9.09351 7.85383 8.92906C7.78536 8.76462 7.75012 8.58825 7.75012 8.41012V8.38012Z" fill="black"/>
</svg>
