<svg width="24" height="24" viewBox="0 0 24 24" fill="none" xmlns="http://www.w3.org/2000/svg">
<path d="M11.9998 22.72C9.87957 22.72 7.80697 22.0913 6.04408 20.9134C4.28118 19.7355 2.90717 18.0612 2.0958 16.1024C1.28443 14.1436 1.07214 11.9881 1.48577 9.90867C1.89941 7.82919 2.92039 5.91907 4.41961 4.41985C5.91882 2.92063 7.82895 1.89965 9.90842 1.48602C11.9879 1.07238 14.1433 1.28467 16.1022 2.09605C18.061 2.90742 19.7352 4.28143 20.9131 6.04432C22.0911 7.80722 22.7198 9.87982 22.7198 12C22.7171 14.8423 21.5869 17.5675 19.5771 19.5773C17.5672 21.5871 14.8421 22.7174 11.9998 22.72ZM11.9998 2.78003C10.1762 2.78003 8.39365 3.32078 6.87743 4.33388C5.36121 5.34699 4.17946 6.78696 3.48162 8.47169C2.78378 10.1564 2.60119 12.0103 2.95695 13.7988C3.31271 15.5873 4.19083 17.2301 5.48027 18.5196C6.76971 19.809 8.41255 20.6871 10.2011 21.0429C11.9896 21.3986 13.8434 21.216 15.5281 20.5182C17.2129 19.8204 18.6528 18.6386 19.6659 17.1224C20.679 15.6062 21.2198 13.8236 21.2198 12C21.2145 9.55636 20.2414 7.21429 18.5135 5.48635C16.7855 3.7584 14.4435 2.78532 11.9998 2.78003ZM10.3198 19.07C10.0044 19.0693 9.69215 19.0082 9.39979 18.89C8.03415 18.3284 6.86622 17.3735 6.04431 16.1468C5.2224 14.92 4.78359 13.4767 4.78359 12C4.78359 10.5234 5.2224 9.08006 6.04431 7.85331C6.86622 6.62655 8.03415 5.67171 9.39979 5.11003C9.7608 4.95992 10.1533 4.90145 10.5424 4.93983C10.9315 4.97822 11.3051 5.11227 11.6298 5.33003C11.9586 5.54998 12.2282 5.84749 12.4148 6.19628C12.6014 6.54508 12.6993 6.93445 12.6998 7.33003V16.65C12.6993 17.0456 12.6014 17.435 12.4148 17.7838C12.2282 18.1326 11.9586 18.4301 11.6298 18.65C11.2412 18.9103 10.7872 19.0558 10.3198 19.07ZM10.3198 6.43003C10.2072 6.43131 10.0956 6.4516 9.98979 6.49003C8.91926 6.95677 8.00821 7.72578 7.36837 8.70275C6.72853 9.67972 6.38771 10.8222 6.38771 11.99C6.38771 13.1579 6.72853 14.3003 7.36837 15.2773C8.00821 16.2543 8.91926 17.0233 9.98979 17.49C10.1234 17.5491 10.2699 17.5728 10.4153 17.5588C10.5607 17.5448 10.7 17.4936 10.8198 17.41C10.9464 17.3279 11.0502 17.2152 11.1219 17.0824C11.1935 16.9496 11.2306 16.8009 11.2298 16.65V7.34003C11.2306 7.18914 11.1935 7.04045 11.1219 6.90765C11.0502 6.77485 10.9464 6.66219 10.8198 6.58003C10.6721 6.48061 10.4978 6.42831 10.3198 6.43003Z" fill="black"/>
</svg>
