<svg width="24" height="24" viewBox="0 0 24 24" fill="none" xmlns="http://www.w3.org/2000/svg">
<path d="M20.5801 3.41996C19.9096 2.75318 19.0521 2.30615 18.1215 2.13826C17.1909 1.97036 16.2313 2.08954 15.3701 2.47996C15.076 2.32223 14.7456 2.24473 14.412 2.25526C14.0785 2.2658 13.7536 2.36399 13.4701 2.53996C12.5601 3.10996 11.6601 3.73996 10.8101 4.39996C10.589 4.56721 10.3301 4.6775 10.0563 4.7211C9.7825 4.7647 9.50219 4.74027 9.24007 4.64996C8.6008 4.41583 7.90792 4.36937 7.24312 4.51605C6.57832 4.66273 5.96932 4.99644 5.48793 5.47783C5.00654 5.95922 4.67283 6.56822 4.52615 7.23302C4.37947 7.89782 4.42594 8.5907 4.66007 9.22996C4.74898 9.49288 4.77177 9.77366 4.72643 10.0475C4.68108 10.3213 4.56899 10.5797 4.40007 10.8C3.74007 11.66 3.11007 12.56 2.54007 13.47C2.36601 13.7542 2.26894 14.0789 2.25842 14.412C2.2479 14.7452 2.32429 15.0753 2.48007 15.37C2.15027 16.0832 2.00577 16.8681 2.05994 17.6519C2.11411 18.4358 2.36519 19.1934 2.78995 19.8545C3.2147 20.5155 3.79939 21.0587 4.48988 21.4337C5.18036 21.8088 5.95431 22.0035 6.74007 22C7.39776 21.9923 8.04598 21.8422 8.64007 21.56C8.91298 21.7095 9.21888 21.7885 9.53007 21.79C9.88453 21.7927 10.2321 21.6919 10.5301 21.5C14.9509 18.7138 18.6841 14.9635 21.4501 10.53C21.6276 10.2473 21.7275 9.92289 21.7398 9.58935C21.7521 9.2558 21.6763 8.9249 21.5201 8.62996C21.9105 7.76872 22.0297 6.80909 21.8618 5.87851C21.6939 4.94793 21.2468 4.09046 20.5801 3.41996ZM19.5201 4.47996C19.8889 4.85035 20.1605 5.30621 20.3105 5.80695C20.4606 6.30768 20.4845 6.83776 20.3801 7.34996L16.6501 3.61996C16.8503 3.5737 17.0546 3.54691 17.2601 3.53996C17.6804 3.53848 18.0967 3.62085 18.4848 3.78226C18.8728 3.94366 19.2248 4.18086 19.5201 4.47996ZM4.52007 19.48C4.1512 19.1096 3.87965 18.6537 3.7296 18.153C3.57956 17.6522 3.55567 17.1222 3.66007 16.61L7.39007 20.34C6.8751 20.4564 6.3392 20.4424 5.83101 20.2992C5.32283 20.156 4.85846 19.8882 4.48007 19.52L4.52007 19.48ZM20.1901 9.72996C17.5355 13.9598 13.9599 17.5354 9.73007 20.19C9.64991 20.2362 9.557 20.2553 9.46513 20.2445C9.37325 20.2336 9.28731 20.1935 9.22007 20.13L3.88007 14.78C3.8119 14.7157 3.76779 14.6301 3.75505 14.5373C3.74231 14.4445 3.76173 14.3502 3.81007 14.27C4.36007 13.4 4.95007 12.54 5.59007 11.71C5.91321 11.2893 6.12634 10.7946 6.21015 10.2708C6.29396 9.74695 6.24581 9.21049 6.07007 8.70996C5.95587 8.39893 5.91838 8.06493 5.96078 7.73632C6.00319 7.40771 6.12423 7.09417 6.31365 6.82231C6.50307 6.55046 6.75526 6.3283 7.04885 6.1747C7.34243 6.02109 7.66873 5.94057 8.00007 5.93996C8.23844 5.94088 8.475 5.98143 8.70007 6.05996C9.2006 6.23571 9.73705 6.28385 10.2609 6.20004C10.7847 6.11623 11.2794 5.90311 11.7001 5.57996C12.5201 4.95996 13.3801 4.35996 14.2501 3.80996C14.3307 3.75962 14.4261 3.73815 14.5206 3.74905C14.615 3.75994 14.703 3.80257 14.7701 3.86996L20.1001 9.20996C20.1707 9.27431 20.2179 9.36037 20.2342 9.45453C20.2505 9.5487 20.235 9.64561 20.1901 9.72996ZM15.8001 7.92996L7.80007 15.81C7.66292 15.9334 7.48459 16.0012 7.30007 16C7.15189 15.9971 7.00777 15.951 6.88546 15.8673C6.76315 15.7836 6.66797 15.666 6.61165 15.5289C6.55533 15.3918 6.54032 15.2413 6.56846 15.0958C6.59661 14.9503 6.66669 14.8162 6.77007 14.71L14.7701 6.82996C14.9159 6.69337 15.1101 6.62033 15.3098 6.62689C15.5095 6.63346 15.6985 6.71909 15.8351 6.86496C15.9717 7.01083 16.0447 7.20498 16.0381 7.40471C16.0316 7.60444 15.9459 7.79337 15.8001 7.92996ZM18.3401 9.35996C18.4212 9.4168 18.4902 9.48914 18.5432 9.57282C18.5962 9.65649 18.6321 9.74983 18.6489 9.84745C18.6656 9.94507 18.6629 10.045 18.6407 10.1416C18.6186 10.2381 18.5776 10.3293 18.5201 10.41C16.2535 13.5103 13.5054 16.228 10.3801 18.46C10.2537 18.5566 10.0992 18.6092 9.94007 18.61C9.82137 18.6088 9.70456 18.5802 9.59874 18.5264C9.49292 18.4727 9.40097 18.3952 9.33007 18.3C9.22695 18.1434 9.18619 17.954 9.2158 17.7689C9.24541 17.5838 9.34326 17.4165 9.49007 17.3C12.4883 15.1629 15.1222 12.5561 17.2901 9.57996C17.3438 9.49568 17.4138 9.42297 17.496 9.36613C17.5782 9.30929 17.6709 9.26945 17.7688 9.24895C17.8666 9.22845 17.9675 9.22772 18.0656 9.24678C18.1637 9.26584 18.257 9.30432 18.3401 9.35996ZM6.88007 10.09C6.98245 9.27699 7.35252 8.52122 7.93192 7.94182C8.51132 7.36242 9.26709 6.99235 10.0801 6.88996C10.2708 6.8616 10.4651 6.90777 10.6226 7.01888C10.7802 7.12998 10.8889 7.2975 10.9262 7.48664C10.9635 7.67579 10.9266 7.87204 10.823 8.03466C10.7194 8.19728 10.5572 8.31377 10.3701 8.35996C9.85617 8.4088 9.37535 8.63521 9.01033 9.00023C8.64531 9.36525 8.41891 9.84606 8.37007 10.36C8.34158 10.5357 8.25149 10.6956 8.11591 10.811C7.98034 10.9265 7.80812 10.9899 7.63007 10.99H7.50007C7.39753 10.9774 7.29882 10.9433 7.21047 10.8897C7.12211 10.8362 7.04612 10.7646 6.98752 10.6795C6.92892 10.5944 6.88904 10.4979 6.87051 10.3963C6.85199 10.2946 6.85525 10.1902 6.88007 10.09Z" fill="black"/>
</svg>
