<svg width="24" height="24" viewBox="0 0 24 24" fill="none" xmlns="http://www.w3.org/2000/svg">
<path d="M2.66992 10.25C2.47101 10.25 2.28024 10.171 2.13959 10.0304C1.99894 9.88972 1.91992 9.69896 1.91992 9.50004V7.50004C1.92521 6.02003 2.51616 4.60229 3.56363 3.55669C4.61111 2.5111 6.0299 1.92268 7.50992 1.92004H9.42992C9.62883 1.92004 9.8196 1.99906 9.96025 2.13971C10.1009 2.28037 10.1799 2.47113 10.1799 2.67004C10.1799 2.86896 10.1009 3.05972 9.96025 3.20037C9.8196 3.34103 9.62883 3.42004 9.42992 3.42004H7.50992C6.42519 3.42004 5.38488 3.85095 4.61786 4.61798C3.85083 5.385 3.41992 6.42531 3.41992 7.51004V9.51004C3.41477 9.7064 3.33379 9.89314 3.19397 10.0311C3.05414 10.1691 2.86633 10.2475 2.66992 10.25ZM10.3199 21.33C10.3199 21.1311 10.2409 20.9404 10.1003 20.7997C9.9596 20.6591 9.76883 20.58 9.56992 20.58H7.50992C6.42519 20.58 5.38488 20.1491 4.61786 19.3821C3.85083 18.6151 3.41992 17.5748 3.41992 16.49V14.49C3.41992 14.2911 3.3409 14.1004 3.20025 13.9597C3.0596 13.8191 2.86883 13.74 2.66992 13.74C2.47101 13.74 2.28024 13.8191 2.13959 13.9597C1.99894 14.1004 1.91992 14.2911 1.91992 14.49V16.49C1.92257 17.9718 2.51236 19.3921 3.56011 20.4398C4.60787 21.4876 6.02817 22.0774 7.50992 22.08H9.56992C9.66879 22.0814 9.76692 22.0629 9.85852 22.0257C9.95012 21.9885 10.0333 21.9333 10.1032 21.8634C10.1732 21.7935 10.2284 21.7102 10.2656 21.6186C10.3028 21.527 10.3213 21.4289 10.3199 21.33ZM22.0799 16.49V14.35C22.0799 14.1511 22.0009 13.9604 21.8603 13.8197C21.7196 13.6791 21.5288 13.6 21.3299 13.6C21.131 13.6 20.9402 13.6791 20.7996 13.8197C20.6589 13.9604 20.5799 14.1511 20.5799 14.35V16.49C20.5799 17.5748 20.149 18.6151 19.382 19.3821C18.615 20.1491 17.5747 20.58 16.4899 20.58H14.5699C14.371 20.58 14.1802 20.6591 14.0396 20.7997C13.8989 20.9404 13.8199 21.1311 13.8199 21.33C13.8199 21.529 13.8989 21.7197 14.0396 21.8604C14.1802 22.001 14.371 22.08 14.5699 22.08H16.4899C17.9717 22.0774 19.392 21.4876 20.4397 20.4398C21.4875 19.3921 22.0773 17.9718 22.0799 16.49ZM22.0799 9.34004V7.51004C22.0773 6.0283 21.4875 4.60799 20.4397 3.56024C19.392 2.51248 17.9717 1.92269 16.4899 1.92004H14.4299C14.231 1.92004 14.0402 1.99906 13.8996 2.13971C13.7589 2.28037 13.6799 2.47113 13.6799 2.67004C13.6799 2.86896 13.7589 3.05972 13.8996 3.20037C14.0402 3.34103 14.231 3.42004 14.4299 3.42004H16.4899C17.5747 3.42004 18.615 3.85095 19.382 4.61798C20.149 5.385 20.5799 6.42531 20.5799 7.51004V9.34004C20.5799 9.53896 20.6589 9.72972 20.7996 9.87037C20.9402 10.011 21.131 10.09 21.3299 10.09C21.5288 10.09 21.7196 10.011 21.8603 9.87037C22.0009 9.72972 22.0799 9.53896 22.0799 9.34004Z" fill="black"/>
</svg>
