<svg width="24" height="24" viewBox="0 0 24 24" fill="none" xmlns="http://www.w3.org/2000/svg">
<path d="M10.5601 13.08C10.3571 13.0801 10.1566 13.0358 9.97266 12.9502C9.78868 12.8645 9.62568 12.7396 9.49511 12.5843C9.36454 12.429 9.26957 12.2469 9.21687 12.0509C9.16417 11.855 9.15502 11.6498 9.19006 11.45L9.39006 10.28L8.53006 9.44996C8.34441 9.26825 8.2134 9.03816 8.15188 8.78577C8.09036 8.53338 8.1008 8.26881 8.18201 8.02206C8.26322 7.7753 8.41195 7.55624 8.61134 7.38972C8.81072 7.22321 9.05278 7.11589 9.31006 7.07996L10.4801 6.90996L11.0001 5.83996C11.1125 5.60437 11.2898 5.4058 11.5113 5.26761C11.7327 5.12943 11.989 5.05738 12.2501 5.05996C12.5094 5.05929 12.7636 5.13223 12.9831 5.2703C13.2026 5.40838 13.3784 5.60592 13.4901 5.83996L14.0001 6.89996L15.1801 7.07996C15.4395 7.10789 15.6855 7.20931 15.8892 7.37229C16.0929 7.53527 16.2459 7.75303 16.3301 7.99996C16.4168 8.24825 16.4319 8.51595 16.3735 8.7724C16.3151 9.02884 16.1857 9.26366 16.0001 9.44996L15.1501 10.28L15.3501 11.45C15.3945 11.7064 15.3654 11.9701 15.2663 12.2108C15.1673 12.4514 15.0021 12.6591 14.7901 12.81C14.5806 12.9613 14.3333 13.0516 14.0756 13.071C13.8179 13.0904 13.5599 13.0382 13.3301 12.92L12.2801 12.36L11.2201 12.92C11.016 13.0251 10.7897 13.08 10.5601 13.08ZM9.74006 8.52996L10.4801 9.24996C10.6392 9.40666 10.7586 9.59917 10.8282 9.8114C10.8977 10.0236 10.9155 10.2494 10.8801 10.47L10.7001 11.47L11.6101 10.99C11.8093 10.8865 12.0305 10.8325 12.2551 10.8325C12.4796 10.8325 12.7008 10.8865 12.9001 10.99L13.8101 11.46L13.6401 10.46C13.6003 10.2442 13.6122 10.022 13.6748 9.81173C13.7373 9.60142 13.8488 9.40892 14.0001 9.24996L14.7401 8.52996L13.7401 8.37996C13.5248 8.3422 13.3218 8.25352 13.1478 8.12131C12.9739 7.9891 12.8341 7.8172 12.7401 7.61996L12.2801 6.69996L11.8301 7.61996C11.7361 7.8172 11.5962 7.9891 11.4223 8.12131C11.2483 8.25352 11.0453 8.3422 10.8301 8.37996L9.74006 8.52996ZM22.3501 16.35L19.0001 12.81C19.6346 11.7038 19.9786 10.455 20.0001 9.17996C20.0373 8.1461 19.8659 7.11532 19.496 6.14919C19.126 5.18306 18.5652 4.30137 17.847 3.55678C17.1288 2.8122 16.2679 2.21997 15.3157 1.81548C14.3635 1.41099 13.3396 1.20251 12.3051 1.20251C11.2705 1.20251 10.2466 1.41099 9.29442 1.81548C8.34224 2.21997 7.48134 2.8122 6.76311 3.55678C6.04489 4.30137 5.48407 5.18306 5.11415 6.14919C4.74423 7.11532 4.57278 8.1461 4.61006 9.17996C4.61092 10.334 4.87422 11.4727 5.38006 12.51L1.65006 16.44C1.42882 16.6726 1.27671 16.9623 1.21074 17.2765C1.14477 17.5908 1.16755 17.9172 1.27652 18.2192C1.3855 18.5212 1.57637 18.7869 1.82778 18.9866C2.07919 19.1863 2.38122 19.3121 2.70006 19.35L4.11006 19.51C4.15836 19.5185 4.20308 19.5411 4.23864 19.5749C4.2742 19.6087 4.29904 19.6522 4.31006 19.7L4.57006 21.09C4.62268 21.4067 4.76443 21.7019 4.97872 21.9409C5.19301 22.18 5.47097 22.3531 5.78006 22.44C5.9385 22.4909 6.10365 22.5179 6.27006 22.52C6.50427 22.5226 6.73659 22.4778 6.9531 22.3885C7.16961 22.2991 7.36585 22.167 7.53006 22L12.0001 17.17L16.4301 21.88C16.5902 22.0543 16.785 22.1933 17.002 22.288C17.219 22.3827 17.4533 22.4311 17.6901 22.43C17.8556 22.4263 18.0201 22.4028 18.1801 22.36C18.4962 22.2756 18.7817 22.1029 19.0031 21.862C19.2245 21.6211 19.3726 21.3221 19.4301 21L19.6901 19.6C19.6988 19.5521 19.7231 19.5084 19.7593 19.4758C19.7955 19.4432 19.8415 19.4236 19.8901 19.42L21.3001 19.25C21.6189 19.2121 21.9209 19.0863 22.1723 18.8866C22.4238 18.6869 22.6146 18.4212 22.7236 18.1192C22.8326 17.8172 22.8554 17.4908 22.7894 17.1765C22.7234 16.8623 22.5713 16.5726 22.3501 16.34V16.35ZM12.2601 2.99996C13.3738 3.00036 14.4668 3.30124 15.4238 3.87088C16.3809 4.44053 17.1665 5.25783 17.6979 6.23663C18.2292 7.21544 18.4867 8.31947 18.4431 9.43236C18.3995 10.5452 18.0564 11.6257 17.4501 12.56C17.3148 12.7713 17.1679 12.9749 17.0101 13.17C16.8601 13.34 16.7001 13.51 16.5401 13.66C16.4915 13.7118 16.4379 13.7587 16.3801 13.8C16.2572 13.9182 16.127 14.0284 15.9901 14.13L15.8201 14.25C15.4296 14.5302 15.0065 14.7619 14.5601 14.94H14.4901C14.2802 15.0294 14.0626 15.0997 13.8401 15.15H13.7601C13.2605 15.2795 12.7461 15.3434 12.2301 15.34H12.0001C11.2173 15.312 10.4469 15.1356 9.73006 14.82H9.67006L9.11006 14.53L9.00006 14.42C8.85006 14.33 8.71006 14.23 8.56006 14.12L8.38006 14C8.19729 13.8505 8.02365 13.6902 7.86006 13.52H7.81006C7.65006 13.36 7.51006 13.19 7.37006 13.02L7.29006 12.9C7.15533 12.7246 7.03175 12.5409 6.92006 12.35C6.35803 11.4094 6.05615 10.3364 6.04535 9.24078C6.03455 8.14517 6.31522 7.06638 6.8586 6.11496C7.40198 5.16353 8.18854 4.37367 9.13768 3.8263C10.0868 3.27894 11.1644 2.99375 12.2601 2.99996ZM6.44006 21C6.40358 21.021 6.36219 21.0321 6.32006 21.0321C6.27793 21.0321 6.23654 21.021 6.20006 21C6.15205 20.9948 6.10689 20.9746 6.07099 20.9423C6.03509 20.9099 6.01028 20.8672 6.00006 20.82L5.74006 19.43C5.68214 19.0683 5.51026 18.7345 5.24945 18.4773C4.98864 18.2201 4.65253 18.0529 4.29006 18L2.88006 17.84C2.83719 17.8322 2.79711 17.8133 2.76378 17.7852C2.73046 17.7572 2.70504 17.7209 2.69006 17.68C2.67221 17.6398 2.66743 17.595 2.6764 17.5519C2.68538 17.5088 2.70764 17.4697 2.74006 17.44L6.14006 13.82L6.20006 13.88C6.43169 14.182 6.68575 14.4661 6.96006 14.73L7.14006 14.89C7.41327 15.1415 7.7077 15.369 8.02006 15.57L8.17006 15.67C8.4917 15.8738 8.82568 16.0575 9.17006 16.22C9.56402 16.3801 9.96825 16.5138 10.3801 16.62L6.44006 21ZM21.3101 17.68C21.2945 17.7196 21.2687 17.7543 21.2354 17.7807C21.202 17.807 21.1622 17.824 21.1201 17.83L19.7201 18C19.3517 18.0381 19.0058 18.1954 18.735 18.4481C18.4643 18.7008 18.2835 19.0351 18.2201 19.4L18.0001 20.74C17.9926 20.7818 17.9737 20.8208 17.9455 20.8526C17.9173 20.8843 17.8808 20.9077 17.8401 20.92C17.7975 20.9315 17.7526 20.931 17.7102 20.9187C17.6679 20.9063 17.6298 20.8826 17.6001 20.85L13.7301 16.74H13.7801C14.1535 16.6625 14.5211 16.5589 14.8801 16.43L15.1101 16.34C15.4546 16.2082 15.7888 16.0511 16.1101 15.87L16.3401 15.73C16.6542 15.5372 16.9549 15.3234 17.2401 15.09L17.3701 14.97C17.6733 14.7001 17.9573 14.4094 18.2201 14.1L21.3101 17.39C21.3324 17.4241 21.3443 17.4641 21.3443 17.505C21.3443 17.5458 21.3324 17.5858 21.3101 17.62V17.68Z" fill="black"/>
</svg>
