<svg width="24" height="24" viewBox="0 0 24 24" fill="none" xmlns="http://www.w3.org/2000/svg">
<path d="M16.0499 22.75H7.99992C6.22379 22.7474 4.52115 22.0406 3.26523 20.7847C2.00931 19.5288 1.30257 17.8261 1.29992 16.05V8C1.29466 7.11631 1.46399 6.24028 1.79822 5.42222C2.13244 4.60416 2.62497 3.86017 3.24751 3.23298C3.87006 2.60578 4.61036 2.10774 5.42592 1.76745C6.24148 1.42715 7.11622 1.2513 7.99992 1.25H16.0999C17.8761 1.26585 19.5734 1.98528 20.82 3.25059C22.0666 4.51589 22.7606 6.22383 22.7499 8V16.1C22.7341 17.8675 22.0216 19.5573 20.7671 20.8024C19.5126 22.0476 17.8174 22.7474 16.0499 22.75ZM7.99992 2.75C7.30863 2.74332 6.62294 2.87455 5.98296 3.13603C5.34298 3.3975 4.76157 3.78396 4.27273 4.2728C3.78388 4.76165 3.39742 5.34306 3.13595 5.98304C2.87448 6.62301 2.74324 7.3087 2.74992 8V16.1C2.75646 16.7829 2.89744 17.4578 3.16482 18.0862C3.4322 18.7146 3.82074 19.2842 4.30825 19.7624C4.79577 20.2406 5.37271 20.6181 6.00613 20.8734C6.63955 21.1286 7.31704 21.2566 7.99992 21.25H16.0999C17.4782 21.2474 18.7993 20.6987 19.774 19.724C20.7486 18.7494 21.2973 17.4283 21.2999 16.05V8C21.2973 6.62169 20.7486 5.30058 19.774 4.32596C18.7993 3.35135 17.4782 2.80264 16.0999 2.8L7.99992 2.75ZM18.6699 7.92C18.6699 7.72109 18.5909 7.53032 18.4503 7.38967C18.3096 7.24902 18.1188 7.17 17.9199 7.17H6.07992C5.88101 7.17 5.69025 7.24902 5.54959 7.38967C5.40894 7.53032 5.32992 7.72109 5.32992 7.92C5.32992 8.11891 5.40894 8.30968 5.54959 8.45033C5.69025 8.59098 5.88101 8.67 6.07992 8.67H17.9199C18.118 8.66741 18.3073 8.58756 18.4474 8.44747C18.5875 8.30737 18.6673 8.11811 18.6699 7.92ZM18.6699 11.92C18.6699 11.7211 18.5909 11.5303 18.4503 11.3897C18.3096 11.249 18.1188 11.17 17.9199 11.17H6.07992C5.88101 11.17 5.69025 11.249 5.54959 11.3897C5.40894 11.5303 5.32992 11.7211 5.32992 11.92C5.32992 12.1189 5.40894 12.3097 5.54959 12.4503C5.69025 12.591 5.88101 12.67 6.07992 12.67H17.9199C18.118 12.6674 18.3073 12.5876 18.4474 12.4475C18.5875 12.3074 18.6673 12.1181 18.6699 11.92ZM18.6699 15.97C18.6699 15.7711 18.5909 15.5803 18.4503 15.4397C18.3096 15.299 18.1188 15.22 17.9199 15.22H6.07992C5.88101 15.22 5.69025 15.299 5.54959 15.4397C5.40894 15.5803 5.32992 15.7711 5.32992 15.97C5.32992 16.1689 5.40894 16.3597 5.54959 16.5003C5.69025 16.641 5.88101 16.72 6.07992 16.72H17.9199C18.113 16.7177 18.298 16.642 18.4373 16.5083C18.5766 16.3746 18.6598 16.1928 18.6699 16V15.97Z" fill="black"/>
</svg>
