<svg width="24" height="24" viewBox="0 0 24 24" fill="none" xmlns="http://www.w3.org/2000/svg">
<path d="M12 22.76C11.7013 22.7571 11.407 22.6874 11.1388 22.5558C10.8706 22.4243 10.6352 22.2344 10.45 22L8.71 19.92C8.66707 19.8652 8.6125 19.8206 8.55024 19.7895C8.48799 19.7584 8.41959 19.7415 8.35 19.74H6.62C5.19752 19.74 3.83315 19.1756 2.82637 18.1707C1.81958 17.1658 1.25265 15.8025 1.25 14.38V6.61C1.25265 5.18752 1.81958 3.82421 2.82637 2.8193C3.83315 1.81439 5.19752 1.25 6.62 1.25H17.38C18.8025 1.25 20.1668 1.81439 21.1736 2.8193C22.1804 3.82421 22.7474 5.18752 22.75 6.61V14.38C22.7474 15.8025 22.1804 17.1658 21.1736 18.1707C20.1668 19.1756 18.8025 19.74 17.38 19.74H15.5C15.4276 19.7396 15.3561 19.7566 15.2917 19.7897C15.2273 19.8228 15.1718 19.8709 15.13 19.93L13.53 22C13.3479 22.2336 13.1162 22.4239 12.8516 22.5571C12.587 22.6902 12.2961 22.763 12 22.77V22.76ZM6.65 2.76C6.14094 2.75605 5.63611 2.85257 5.16442 3.04403C4.69272 3.2355 4.26344 3.51814 3.90116 3.87578C3.53887 4.23342 3.25071 4.65902 3.05318 5.1282C2.85564 5.59739 2.75262 6.10094 2.75 6.61V14.38C2.75265 15.4047 3.16155 16.3864 3.88703 17.11C4.61251 17.8336 5.59534 18.24 6.62 18.24H8.35C8.64362 18.2473 8.93203 18.3192 9.19474 18.4505C9.45744 18.5819 9.68799 18.7695 9.87 19L11.61 21.12C11.6567 21.1722 11.7136 21.2143 11.7773 21.2435C11.841 21.2728 11.91 21.2886 11.98 21.29C12.0501 21.286 12.1186 21.2669 12.1807 21.2342C12.2428 21.2014 12.2971 21.1556 12.34 21.1L13.94 19C14.1252 18.7625 14.3618 18.5698 14.6319 18.4365C14.902 18.3032 15.1988 18.2326 15.5 18.23H17.38C18.4047 18.23 19.3875 17.8236 20.113 17.1C20.8385 16.3764 21.2474 15.3947 21.25 14.37V6.61C21.2474 5.58535 20.8385 4.60356 20.113 3.87996C19.3875 3.15635 18.4047 2.75 17.38 2.75L6.65 2.76ZM8.55 13.22C8.69045 13.0794 8.76934 12.8888 8.76934 12.69C8.76934 12.4912 8.69045 12.3006 8.55 12.16L7.08 10.73L8.53 9.34C8.62424 9.28183 8.70443 9.20352 8.76481 9.11067C8.82519 9.01783 8.86426 8.91277 8.87921 8.80304C8.89416 8.69331 8.88463 8.58162 8.85129 8.47601C8.81795 8.3704 8.76164 8.27349 8.6864 8.19222C8.61116 8.11096 8.51885 8.04737 8.41611 8.00602C8.31337 7.96467 8.20275 7.94658 8.0922 7.95306C7.98164 7.95954 7.87389 7.99043 7.77668 8.0435C7.67948 8.09657 7.59523 8.1705 7.53 8.26L5.53 10.18C5.45778 10.2503 5.40025 10.3342 5.36077 10.4269C5.32128 10.5196 5.30063 10.6192 5.3 10.72C5.29971 10.9219 5.37871 11.1158 5.52 11.26L7.52 13.26C7.58665 13.3308 7.66731 13.3869 7.75683 13.4248C7.84636 13.4626 7.9428 13.4814 8.04 13.48C8.23739 13.4631 8.42039 13.3698 8.55 13.22ZM16.55 13.22L18.55 11.22C18.6913 11.0758 18.7703 10.8819 18.77 10.68C18.7694 10.5792 18.7487 10.4796 18.7092 10.3869C18.6697 10.2942 18.6122 10.2103 18.54 10.14L16.54 8.22C16.4748 8.1305 16.3905 8.05657 16.2933 8.0035C16.1961 7.95043 16.0884 7.91954 15.9778 7.91306C15.8672 7.90658 15.7566 7.92467 15.6539 7.96602C15.5511 8.00737 15.4588 8.07096 15.3836 8.15222C15.3084 8.23348 15.252 8.3304 15.2187 8.43601C15.1854 8.54162 15.1758 8.65331 15.1908 8.76304C15.2057 8.87277 15.2448 8.97783 15.3052 9.07067C15.3656 9.16352 15.4458 9.24183 15.54 9.3L16.99 10.69L15.53 12.12C15.4108 12.2177 15.3245 12.3499 15.2831 12.4984C15.2416 12.6469 15.247 12.8045 15.2983 12.9499C15.3497 13.0953 15.4446 13.2213 15.5702 13.3108C15.6957 13.4003 15.8458 13.4489 16 13.45C16.0955 13.4501 16.19 13.4306 16.2778 13.3927C16.3655 13.3549 16.4445 13.2995 16.51 13.23L16.55 13.22ZM11.84 13.22L13.71 8.73C13.7557 8.63821 13.7821 8.53803 13.7875 8.43564C13.793 8.33326 13.7774 8.23084 13.7417 8.13472C13.706 8.0386 13.651 7.95082 13.58 7.8768C13.5091 7.80278 13.4237 7.7441 13.3292 7.70437C13.2347 7.66465 13.133 7.64472 13.0305 7.64583C12.9279 7.64694 12.8267 7.66906 12.7331 7.71082C12.6395 7.75259 12.5554 7.81311 12.486 7.88864C12.4167 7.96418 12.3636 8.05313 12.33 8.15L10.46 12.64C10.419 12.7317 10.3968 12.8307 10.3948 12.9312C10.3928 13.0316 10.411 13.1314 10.4483 13.2247C10.4856 13.3179 10.5413 13.4028 10.612 13.4741C10.6827 13.5455 10.7671 13.6019 10.86 13.64C10.9515 13.6799 11.0502 13.7003 11.15 13.7C11.2914 13.6901 11.4272 13.6408 11.5421 13.5577C11.6569 13.4747 11.7463 13.3612 11.8 13.23L11.84 13.22Z" fill="black"/>
</svg>
