<svg width="24" height="24" viewBox="0 0 24 24" fill="none" xmlns="http://www.w3.org/2000/svg">
<path d="M16.82 22.75H3C2.53748 22.7448 2.09538 22.5588 1.76831 22.2317C1.44124 21.9046 1.2552 21.4625 1.25 21V7.18C1.25264 5.60808 1.87826 4.1013 2.98978 2.98978C4.1013 1.87826 5.60808 1.25264 7.18 1.25H16.82C18.3919 1.25264 19.8987 1.87826 21.0102 2.98978C22.1217 4.1013 22.7474 5.60808 22.75 7.18V16.82C22.7474 18.3919 22.1217 19.8987 21.0102 21.0102C19.8987 22.1217 18.3919 22.7474 16.82 22.75ZM7.18 2.75C6.0059 2.75264 4.88065 3.22022 4.05043 4.05043C3.22022 4.88065 2.75264 6.0059 2.75 7.18V21C2.75 21.0716 2.77845 21.1403 2.82908 21.1909C2.87972 21.2416 2.94839 21.27 3.02 21.27H16.82C17.9941 21.2674 19.1194 20.7998 19.9496 19.9696C20.7798 19.1394 21.2474 18.0141 21.25 16.84V7.18C21.2474 6.0059 20.7798 4.88065 19.9496 4.05043C19.1194 3.22022 17.9941 2.75264 16.82 2.75H7.18ZM17.51 9.5C17.5074 9.30189 17.4276 9.11263 17.2875 8.97253C17.1474 8.83244 16.9581 8.75259 16.76 8.75H7.24C7.04109 8.75 6.85032 8.82902 6.70967 8.96967C6.56902 9.11032 6.49 9.30109 6.49 9.5C6.49 9.69891 6.56902 9.88968 6.70967 10.0303C6.85032 10.171 7.04109 10.25 7.24 10.25H16.76C16.9581 10.2474 17.1474 10.1676 17.2875 10.0275C17.4276 9.88737 17.5074 9.69811 17.51 9.5ZM14.34 14.5C14.3374 14.3019 14.2576 14.1126 14.1175 13.9725C13.9774 13.8324 13.7881 13.7526 13.59 13.75H7.24C7.04109 13.75 6.85032 13.829 6.70967 13.9697C6.56902 14.1103 6.49 14.3011 6.49 14.5C6.49 14.6989 6.56902 14.8897 6.70967 15.0303C6.85032 15.171 7.04109 15.25 7.24 15.25H13.59C13.7881 15.2474 13.9774 15.1676 14.1175 15.0275C14.2576 14.8874 14.3374 14.6981 14.34 14.5Z" fill="#050505"/>
</svg>
