<svg width="24" height="24" viewBox="0 0 24 24" fill="none" xmlns="http://www.w3.org/2000/svg">
<path d="M7.99979 22.48C7.72806 22.4823 7.46003 22.417 7.21978 22.29C6.93744 22.1489 6.69995 21.932 6.53393 21.6635C6.36791 21.3951 6.27991 21.0857 6.27979 20.77V18.85C4.93202 18.7833 3.66145 18.2012 2.73082 17.224C1.80019 16.2469 1.2807 14.9494 1.27979 13.6V6.78002C1.28238 5.39096 1.83328 4.0591 2.81268 3.07409C3.79208 2.08907 5.12077 1.53056 6.50979 1.52002H17.5098C18.904 1.52266 20.2404 2.07769 21.2262 3.06356C22.2121 4.04943 22.7671 5.38579 22.7698 6.78002V13.6C22.7671 14.9942 22.2121 16.3306 21.2262 17.3165C20.2404 18.3023 18.904 18.8574 17.5098 18.86H13.5998C13.5577 18.8455 13.5119 18.8455 13.4698 18.86L8.99979 22.16C8.70706 22.3665 8.35801 22.4782 7.99979 22.48ZM6.50979 3.00002C6.01433 3.00001 5.52375 3.09793 5.06626 3.28813C4.60877 3.47834 4.19338 3.75709 3.84397 4.10836C3.49456 4.45963 3.21801 4.87649 3.03024 5.33499C2.84246 5.79348 2.74715 6.28457 2.74979 6.78002V13.6C2.75242 14.5964 3.14941 15.5513 3.85398 16.2558C4.55854 16.9604 5.51338 17.3574 6.50979 17.36C6.67262 17.36 6.83387 17.3921 6.98431 17.4544C7.13476 17.5167 7.27145 17.6081 7.3866 17.7232C7.50174 17.8384 7.59308 17.975 7.6554 18.1255C7.71771 18.2759 7.74979 18.4372 7.74979 18.6V20.77C7.74845 20.8101 7.75918 20.8496 7.78058 20.8835C7.80197 20.9173 7.83305 20.944 7.86979 20.96C7.90129 20.9843 7.93998 20.9975 7.97978 20.9975C8.01959 20.9975 8.05828 20.9843 8.08979 20.96L12.5898 17.7C12.8819 17.4923 13.2314 17.3805 13.5898 17.38H17.4798C18.4762 17.3774 19.431 16.9804 20.1356 16.2758C20.8402 15.5713 21.2371 14.6164 21.2398 13.62V6.78002C21.2424 6.28541 21.1474 5.79514 20.9603 5.3373C20.7731 4.87945 20.4975 4.46304 20.1491 4.1119C19.8008 3.76076 19.3866 3.4818 18.9302 3.29101C18.4739 3.10021 17.9844 3.00133 17.4898 3.00002H6.50979ZM11.9998 6.12002C11.3898 6.12002 10.8048 6.36234 10.3734 6.79367C9.94211 7.22501 9.69979 7.81002 9.69979 8.42002C9.69979 8.61893 9.7788 8.8097 9.91946 8.95035C10.0601 9.091 10.2509 9.17002 10.4498 9.17002C10.6487 9.17002 10.8395 9.091 10.9801 8.95035C11.1208 8.8097 11.1998 8.61893 11.1998 8.42002C11.1998 8.20785 11.2841 8.00436 11.4341 7.85433C11.5841 7.70431 11.7876 7.62002 11.9998 7.62002C12.212 7.62002 12.4154 7.70431 12.5655 7.85433C12.7155 8.00436 12.7998 8.20785 12.7998 8.42002C12.7996 8.55869 12.7624 8.6948 12.6921 8.81432C12.6218 8.93384 12.5209 9.03246 12.3998 9.10002C12.0384 9.3306 11.7426 9.65059 11.5411 10.029C11.3397 10.4074 11.2393 10.8314 11.2498 11.26V11.54C11.2498 11.7389 11.3288 11.9297 11.4695 12.0703C11.6101 12.211 11.8009 12.29 11.9998 12.29C12.1987 12.29 12.3895 12.211 12.5301 12.0703C12.6708 11.9297 12.7498 11.7389 12.7498 11.54V11.26C12.7412 11.0939 12.7742 10.9282 12.8458 10.7781C12.9174 10.6279 13.0253 10.4979 13.1598 10.4C13.5932 10.1439 13.9305 9.75261 14.1202 9.28626C14.3098 8.81991 14.3411 8.30423 14.2094 7.81834C14.0777 7.33245 13.7903 6.90318 13.3911 6.5964C12.992 6.28962 12.5032 6.12227 11.9998 6.12002ZM11.9998 13C11.8514 13 11.7064 13.044 11.5831 13.1264C11.4598 13.2088 11.3636 13.326 11.3069 13.463C11.2501 13.6001 11.2353 13.7509 11.2642 13.8963C11.2931 14.0418 11.3646 14.1755 11.4695 14.2803C11.5743 14.3852 11.708 14.4567 11.8535 14.4856C11.999 14.5145 12.1498 14.4997 12.2868 14.4429C12.4238 14.3862 12.541 14.29 12.6234 14.1667C12.7058 14.0434 12.7498 13.8984 12.7498 13.75C12.7472 13.5519 12.6673 13.3626 12.5273 13.2226C12.3872 13.0825 12.1979 13.0026 11.9998 13Z" fill="black"/>
</svg>
