<svg width="24" height="24" viewBox="0 0 24 24" fill="none" xmlns="http://www.w3.org/2000/svg">
<path d="M16.82 1.25H7.18C5.60808 1.25264 4.1013 1.87826 2.98978 2.98978C1.87826 4.1013 1.25264 5.60808 1.25 7.18V21C1.2552 21.4625 1.44124 21.9046 1.76831 22.2317C2.09538 22.5588 2.53748 22.7448 3 22.75H16.8C18.3719 22.7474 19.8787 22.1217 20.9902 21.0102C22.1017 19.8987 22.7274 18.3919 22.73 16.82V7.18C22.7274 5.61153 22.1045 4.10776 20.9973 2.99681C19.8901 1.88586 18.3885 1.25792 16.82 1.25ZM21.25 16.82C21.2474 17.9941 20.7798 19.1194 19.9496 19.9496C19.1194 20.7798 17.9941 21.2474 16.82 21.25H3C2.93523 21.2454 2.87431 21.2175 2.82839 21.1716C2.78247 21.1257 2.75464 21.0648 2.75 21V7.18C2.75264 6.0059 3.22022 4.88065 4.05043 4.05043C4.88065 3.22022 6.0059 2.75264 7.18 2.75H16.82C17.9941 2.75264 19.1194 3.22022 19.9496 4.05043C20.7798 4.88065 21.2474 6.0059 21.25 7.18V16.82ZM16.75 7.06L15.07 5.76C14.7945 5.54624 14.4787 5.39009 14.1416 5.30086C13.8045 5.21162 13.4528 5.19112 13.1076 5.24057C12.7624 5.29002 12.4307 5.40841 12.1322 5.5887C11.8337 5.76898 11.5745 6.00748 11.37 6.29L6.74 12.55C6.43076 12.9718 6.25645 13.4773 6.24 14V16.52C6.2361 16.8665 6.31371 17.209 6.46657 17.5199C6.61944 17.8309 6.84327 18.1015 7.12 18.31C7.48908 18.5877 7.93811 18.7386 8.4 18.74C8.60133 18.75 8.80311 18.7332 9 18.69L11.35 18C11.865 17.8453 12.3147 17.5256 12.63 17.09L17.26 10.83C17.6872 10.2606 17.8731 9.5459 17.7777 8.84047C17.6823 8.13503 17.3131 7.49547 16.75 7.06ZM13.33 6.73H13.48C13.7255 6.73144 13.964 6.81211 14.16 6.96L15.83 8.25C16.0765 8.44523 16.2372 8.72872 16.2783 9.04043C16.3194 9.35215 16.2375 9.66761 16.05 9.92L15.53 10.63C14.7119 10.6888 13.9006 10.4453 13.25 9.94586C12.5994 9.44637 12.1546 8.72554 12 7.92L12.55 7.18C12.6409 7.05421 12.7574 6.94908 12.8918 6.87153C13.0263 6.79397 13.1756 6.74574 13.33 6.73ZM11.43 16.17C11.3043 16.3451 11.1254 16.4748 10.92 16.54L8.55 17.25C8.45579 17.2819 8.35506 17.2894 8.25715 17.2719C8.15925 17.2545 8.06735 17.2125 7.99 17.15C7.90109 17.0844 7.82925 16.9983 7.78053 16.8991C7.7318 16.7999 7.70761 16.6905 7.71 16.58V14.06C7.73689 13.8274 7.83867 13.6098 8 13.44L11 9.37C11.3148 10.0742 11.8009 10.6884 12.414 11.1565C13.0272 11.6247 13.7477 11.9318 14.51 12.05L11.43 16.17Z" fill="#050505"/>
</svg>
