<svg width="24" height="24" viewBox="0 0 24 24" fill="none" xmlns="http://www.w3.org/2000/svg">
<path d="M19.3599 7.99997C18.689 7.99997 18.0331 7.80089 17.4754 7.42795C16.9177 7.05501 16.4833 6.52497 16.227 5.90495C15.9707 5.28492 15.9041 4.6028 16.0358 3.94493C16.1674 3.28706 16.4912 2.68304 16.9663 2.20934C17.4414 1.73564 18.0464 1.41357 18.7047 1.2839C19.3629 1.15422 20.0448 1.22278 20.6641 1.4809C21.2834 1.73902 21.8121 2.17508 22.1834 2.73387C22.5547 3.29267 22.7518 3.94907 22.7499 4.61997C22.7472 5.51732 22.3889 6.37702 21.7534 7.0106C21.118 7.64419 20.2572 7.99998 19.3599 7.99997ZM19.3599 2.72997C18.9861 2.72997 18.6206 2.84082 18.3098 3.04849C17.999 3.25617 17.7568 3.55135 17.6137 3.8967C17.4707 4.24205 17.4333 4.62207 17.5062 4.98869C17.5791 5.35532 17.7591 5.69208 18.0234 5.9564C18.2878 6.22073 18.6245 6.40073 18.9911 6.47366C19.3578 6.54658 19.7378 6.50915 20.0831 6.3661C20.4285 6.22305 20.7237 5.98081 20.9313 5.67C21.139 5.35919 21.2499 4.99378 21.2499 4.61997C21.2538 4.36926 21.2079 4.12026 21.1147 3.88748C21.0215 3.65471 20.8829 3.4428 20.707 3.2641C20.5311 3.08541 20.3214 2.94351 20.0901 2.84666C19.8588 2.7498 19.6106 2.69994 19.3599 2.69997V2.72997ZM13.5599 21.64L14.6299 20.12C14.6836 20.0456 14.7543 19.9851 14.836 19.9434C14.9177 19.9017 15.0081 19.88 15.0999 19.88H16.6199C18.0539 19.8694 19.4252 19.291 20.4336 18.2713C21.442 17.2517 22.0052 15.874 21.9999 14.44V9.27997C21.9999 9.08106 21.9208 8.89029 21.7802 8.74964C21.6395 8.60899 21.4488 8.52997 21.2499 8.52997C21.051 8.52997 20.8602 8.60899 20.7195 8.74964C20.5789 8.89029 20.4999 9.08106 20.4999 9.27997V14.44C20.4972 15.4762 20.0844 16.4691 19.3517 17.2018C18.619 17.9345 17.626 18.3473 16.5899 18.35H15.0999C14.7672 18.3445 14.4384 18.4221 14.1433 18.5758C13.8482 18.7294 13.5961 18.9543 13.4099 19.23L12.3399 20.75C12.2631 20.8477 12.1652 20.9267 12.0535 20.9811C11.9417 21.0354 11.8191 21.0636 11.6949 21.0636C11.5706 21.0636 11.448 21.0354 11.3363 20.9811C11.2245 20.9267 11.1266 20.8477 11.0499 20.75L9.99986 19.23C9.80984 18.9581 9.55696 18.736 9.26272 18.5828C8.96848 18.4296 8.6416 18.3497 8.30986 18.35H6.76986C5.73368 18.3473 4.74069 17.9345 4.00799 17.2018C3.2753 16.4691 2.8625 15.4762 2.85986 14.44V7.32997C2.85986 6.29298 3.27181 5.29845 4.00508 4.56518C4.73834 3.83192 5.73287 3.41997 6.76986 3.41997H14.6899C14.8888 3.41997 15.0795 3.34095 15.2202 3.2003C15.3608 3.05965 15.4399 2.86888 15.4399 2.66997C15.4399 2.47106 15.3608 2.28029 15.2202 2.13964C15.0795 1.99899 14.8888 1.91997 14.6899 1.91997H6.76986C5.33585 1.92262 3.96133 2.49345 2.94734 3.50744C1.93334 4.52144 1.36251 5.89596 1.35986 7.32997V14.44C1.36251 15.874 1.93334 17.2485 2.94734 18.2625C3.96133 19.2765 5.33585 19.8473 6.76986 19.85H8.28986C8.3816 19.85 8.47204 19.8717 8.55374 19.9134C8.63544 19.9551 8.70609 20.0156 8.75986 20.09L9.82986 21.61C10.0403 21.9091 10.3195 22.1533 10.6441 22.3219C10.9687 22.4904 11.3291 22.5784 11.6949 22.5784C12.0606 22.5784 12.421 22.4904 12.7456 22.3219C13.0702 22.1533 13.3495 21.9091 13.5599 21.61V21.64ZM7.85986 10.34C7.66208 10.34 7.46874 10.3986 7.30429 10.5085C7.13984 10.6184 7.01167 10.7746 6.93598 10.9573C6.8603 11.14 6.84049 11.3411 6.87908 11.5351C6.91766 11.729 7.0129 11.9072 7.15276 12.0471C7.29261 12.1869 7.47079 12.2822 7.66477 12.3208C7.85875 12.3593 8.05982 12.3395 8.24255 12.2639C8.42527 12.1882 8.58145 12.06 8.69133 11.8955C8.80121 11.7311 8.85986 11.5378 8.85986 11.34C8.85986 11.0748 8.75451 10.8204 8.56697 10.6329C8.37943 10.4453 8.12508 10.34 7.85986 10.34ZM11.6899 10.34C11.4921 10.34 11.2987 10.3986 11.1343 10.5085C10.9698 10.6184 10.8417 10.7746 10.766 10.9573C10.6903 11.14 10.6705 11.3411 10.7091 11.5351C10.7477 11.729 10.8429 11.9072 10.9828 12.0471C11.1226 12.1869 11.3008 12.2822 11.4948 12.3208C11.6888 12.3593 11.8898 12.3395 12.0725 12.2639C12.2553 12.1882 12.4115 12.06 12.5213 11.8955C12.6312 11.7311 12.6899 11.5378 12.6899 11.34C12.6899 11.2087 12.664 11.0786 12.6137 10.9573C12.5635 10.836 12.4898 10.7257 12.397 10.6329C12.3041 10.54 12.1939 10.4663 12.0725 10.4161C11.9512 10.3658 11.8212 10.34 11.6899 10.34ZM11.6899 10.34C11.4921 10.34 11.2987 10.3986 11.1343 10.5085C10.9698 10.6184 10.8417 10.7746 10.766 10.9573C10.6903 11.14 10.6705 11.3411 10.7091 11.5351C10.7477 11.729 10.8429 11.9072 10.9828 12.0471C11.1226 12.1869 11.3008 12.2822 11.4948 12.3208C11.6888 12.3593 11.8898 12.3395 12.0725 12.2639C12.2553 12.1882 12.4115 12.06 12.5213 11.8955C12.6312 11.7311 12.6899 11.5378 12.6899 11.34C12.6899 11.2087 12.664 11.0786 12.6137 10.9573C12.5635 10.836 12.4898 10.7257 12.397 10.6329C12.3041 10.54 12.1939 10.4663 12.0725 10.4161C11.9512 10.3658 11.8212 10.34 11.6899 10.34ZM15.5299 10.34C15.3321 10.34 15.1387 10.3986 14.9743 10.5085C14.8098 10.6184 14.6817 10.7746 14.606 10.9573C14.5303 11.14 14.5105 11.3411 14.5491 11.5351C14.5877 11.729 14.6829 11.9072 14.8228 12.0471C14.9626 12.1869 15.1408 12.2822 15.3348 12.3208C15.5288 12.3593 15.7298 12.3395 15.9125 12.2639C16.0953 12.1882 16.2515 12.06 16.3613 11.8955C16.4712 11.7311 16.5299 11.5378 16.5299 11.34C16.5299 11.2087 16.504 11.0786 16.4537 10.9573C16.4035 10.836 16.3298 10.7257 16.237 10.6329C16.1441 10.54 16.0339 10.4663 15.9125 10.4161C15.7912 10.3658 15.6612 10.34 15.5299 10.34Z" fill="#050505"/>
</svg>
