<svg width="24" height="24" viewBox="0 0 24 24" fill="none" xmlns="http://www.w3.org/2000/svg">
<path d="M12 23C11.6235 22.9978 11.253 22.9059 10.9192 22.732C10.5853 22.5581 10.2976 22.3072 10.08 22L9 20.41C8.94265 20.3276 8.86644 20.2601 8.77773 20.2132C8.68902 20.1662 8.59037 20.1411 8.49 20.14H6.86C5.37214 20.14 3.94521 19.549 2.89313 18.4969C1.84105 17.4448 1.25 16.0179 1.25 14.53V7.12001C1.25 5.63214 1.84105 4.20522 2.89313 3.15314C3.94521 2.10106 5.37214 1.51001 6.86 1.51001H17.14C17.8767 1.51001 18.6062 1.65512 19.2869 1.93705C19.9675 2.21897 20.5859 2.6322 21.1069 3.15314C21.6278 3.67408 22.041 4.29252 22.323 4.97316C22.6049 5.65379 22.75 6.38329 22.75 7.12001V14.53C22.75 15.2667 22.6049 15.9962 22.323 16.6769C22.041 17.3575 21.6278 17.9759 21.1069 18.4969C20.5859 19.0178 19.9675 19.431 19.2869 19.713C18.6062 19.9949 17.8767 20.14 17.14 20.14H15.55C15.4496 20.1411 15.351 20.1662 15.2623 20.2132C15.1736 20.2601 15.0974 20.3276 15.04 20.41L13.92 22C13.7024 22.3072 13.4147 22.5581 13.0808 22.732C12.747 22.9059 12.3765 22.9978 12 23ZM6.86 3.00001C6.31942 3.00001 5.78416 3.10665 5.28486 3.31382C4.78556 3.52099 4.33203 3.82463 3.95025 4.20733C3.56847 4.59004 3.26594 5.04431 3.05998 5.54411C2.85402 6.04391 2.74868 6.57944 2.75 7.12001V14.53C2.75 15.62 3.18302 16.6654 3.95379 17.4362C4.72457 18.207 5.76996 18.64 6.86 18.64H8.45C8.79176 18.641 9.12827 18.7242 9.43112 18.8825C9.73396 19.0409 9.99425 19.2699 10.19 19.55L11.3 21.13C11.3821 21.2378 11.488 21.3252 11.6094 21.3853C11.7308 21.4454 11.8645 21.4767 12 21.4767C12.1355 21.4767 12.2692 21.4454 12.3906 21.3853C12.512 21.3252 12.6179 21.2378 12.7 21.13L13.81 19.55C14.0057 19.2699 14.266 19.0409 14.5689 18.8825C14.8717 18.7242 15.2082 18.641 15.55 18.64H17.14C18.23 18.64 19.2754 18.207 20.0462 17.4362C20.817 16.6654 21.25 15.62 21.25 14.53V7.12001C21.2513 6.57944 21.146 6.04391 20.94 5.54411C20.7341 5.04431 20.4315 4.59004 20.0497 4.20733C19.668 3.82463 19.2144 3.52099 18.7151 3.31382C18.2158 3.10665 17.6806 3.00001 17.14 3.00001H6.86ZM17.51 8.88001C17.5074 8.6819 17.4276 8.49264 17.2875 8.35254C17.1474 8.21245 16.9581 8.1326 16.76 8.13001H7.24C7.04109 8.13001 6.85032 8.20903 6.70967 8.34968C6.56902 8.49033 6.49 8.6811 6.49 8.88001C6.49 9.07892 6.56902 9.26969 6.70967 9.41034C6.85032 9.55099 7.04109 9.63001 7.24 9.63001H16.76C16.9581 9.62742 17.1474 9.54757 17.2875 9.40748C17.4276 9.26738 17.5074 9.07812 17.51 8.88001ZM15.92 13.88C15.92 13.6811 15.841 13.4903 15.7003 13.3497C15.5597 13.209 15.3689 13.13 15.17 13.13H8.83C8.63109 13.13 8.44032 13.209 8.29967 13.3497C8.15902 13.4903 8.08 13.6811 8.08 13.88C8.08 14.0789 8.15902 14.2697 8.29967 14.4103C8.44032 14.551 8.63109 14.63 8.83 14.63H15.17C15.3689 14.63 15.5597 14.551 15.7003 14.4103C15.841 14.2697 15.92 14.0789 15.92 13.88Z" fill="#050505"/>
</svg>
