<svg width="24" height="24" viewBox="0 0 24 24" fill="none" xmlns="http://www.w3.org/2000/svg">
<path d="M16.82 22.75H3C2.53748 22.7448 2.09538 22.5588 1.76831 22.2317C1.44124 21.9046 1.2552 21.4625 1.25 21V7.18C1.25264 5.60808 1.87826 4.1013 2.98978 2.98978C4.1013 1.87826 5.60808 1.25264 7.18 1.25H16.82C18.3919 1.25264 19.8987 1.87826 21.0102 2.98978C22.1217 4.1013 22.7474 5.60808 22.75 7.18V16.82C22.7474 18.3919 22.1217 19.8987 21.0102 21.0102C19.8987 22.1217 18.3919 22.7474 16.82 22.75ZM7.18 2.75C6.0059 2.75264 4.88065 3.22022 4.05043 4.05043C3.22022 4.88065 2.75264 6.0059 2.75 7.18V21C2.75 21.0716 2.77845 21.1403 2.82908 21.1909C2.87972 21.2416 2.94839 21.27 3.02 21.27H16.82C17.9941 21.2674 19.1194 20.7998 19.9496 19.9696C20.7798 19.1394 21.2474 18.0141 21.25 16.84V7.18C21.2474 6.0059 20.7798 4.88065 19.9496 4.05043C19.1194 3.22022 17.9941 2.75264 16.82 2.75H7.18ZM16.18 12C16.1774 11.8019 16.0976 11.6126 15.9575 11.4725C15.8174 11.3324 15.6281 11.2526 15.43 11.25H8.56C8.36109 11.25 8.17032 11.329 8.02967 11.4697C7.88902 11.6103 7.81 11.8011 7.81 12C7.81 12.1989 7.88902 12.3897 8.02967 12.5303C8.17032 12.671 8.36109 12.75 8.56 12.75H15.44C15.6381 12.7474 15.8274 12.6676 15.9675 12.5275C16.1076 12.3874 16.1874 12.1981 16.19 12H16.18Z" fill="#050505"/>
</svg>
