<svg width="24" height="24" viewBox="0 0 24 24" fill="none" xmlns="http://www.w3.org/2000/svg">
<path d="M16.82 1.25H7.18C5.60808 1.25264 4.1013 1.87826 2.98978 2.98978C1.87826 4.1013 1.25264 5.60808 1.25 7.18V21C1.2552 21.4625 1.44124 21.9046 1.76831 22.2317C2.09538 22.5588 2.53748 22.7448 3 22.75H16.8C18.3719 22.7474 19.8787 22.1217 20.9902 21.0102C22.1017 19.8987 22.7274 18.3919 22.73 16.82V7.18C22.7274 5.61153 22.1045 4.10776 20.9973 2.99681C19.8901 1.88586 18.3885 1.25792 16.82 1.25ZM21.25 16.82C21.2474 17.9941 20.7798 19.1194 19.9496 19.9496C19.1194 20.7798 17.9941 21.2474 16.82 21.25H3C2.93523 21.2454 2.87431 21.2175 2.82839 21.1716C2.78247 21.1257 2.75464 21.0648 2.75 21V7.18C2.75264 6.0059 3.22022 4.88065 4.05043 4.05043C4.88065 3.22022 6.0059 2.75264 7.18 2.75H16.82C17.9941 2.75264 19.1194 3.22022 19.9496 4.05043C20.7798 4.88065 21.2474 6.0059 21.25 7.18V16.82ZM16.19 12C16.1874 12.1981 16.1076 12.3874 15.9675 12.5275C15.8274 12.6676 15.6381 12.7474 15.44 12.75H12.75V15.44C12.75 15.6389 12.671 15.8297 12.5303 15.9703C12.3897 16.111 12.1989 16.19 12 16.19C11.8011 16.19 11.6103 16.111 11.4697 15.9703C11.329 15.8297 11.25 15.6389 11.25 15.44V12.75H8.56C8.36109 12.75 8.17032 12.671 8.02967 12.5303C7.88902 12.3897 7.81 12.1989 7.81 12C7.81 11.8011 7.88902 11.6103 8.02967 11.4697C8.17032 11.329 8.36109 11.25 8.56 11.25H11.25V8.56C11.25 8.36109 11.329 8.17032 11.4697 8.02967C11.6103 7.88902 11.8011 7.81 12 7.81C12.1989 7.81 12.3897 7.88902 12.5303 8.02967C12.671 8.17032 12.75 8.36109 12.75 8.56V11.25H15.44C15.6381 11.2526 15.8274 11.3324 15.9675 11.4725C16.1076 11.6126 16.1874 11.8019 16.19 12Z" fill="#050505"/>
</svg>
