<svg width="24" height="24" viewBox="0 0 24 24" fill="none" xmlns="http://www.w3.org/2000/svg">
<path d="M17.3398 16.48V9.87998C17.3372 9.04536 17.0044 8.24568 16.4143 7.65551C15.8241 7.06534 15.0244 6.73262 14.1898 6.72998H5.1898V5.87998C5.18978 4.6519 5.67557 3.47368 6.54113 2.6025C7.4067 1.73131 8.58175 1.2379 9.8098 1.22998H18.0498C19.2831 1.22998 20.4658 1.71989 21.3379 2.59193C22.2099 3.46398 22.6998 4.64672 22.6998 5.87998V11.88C22.6972 13.1029 22.213 14.2756 21.3521 15.144C20.4911 16.0125 19.3226 16.5068 18.0998 16.52L17.3398 16.48ZM14.1898 5.22998C15.4231 5.22998 16.6058 5.71989 17.4779 6.59193C18.3499 7.46398 18.8398 8.64672 18.8398 9.87998V14.88C19.5073 14.7071 20.0996 14.3201 20.5259 13.7781C20.9523 13.2362 21.189 12.5694 21.1998 11.88V5.87998C21.1972 5.04536 20.8644 4.24568 20.2743 3.65551C19.6841 3.06534 18.8844 2.73262 18.0498 2.72998H9.8098C9.08574 2.72909 8.38362 2.97847 7.82233 3.43588C7.26104 3.8933 6.87508 4.53064 6.7298 5.23998L14.1898 5.22998ZM10.0698 22.77C9.7431 22.7716 9.42097 22.6931 9.13159 22.5415C8.84221 22.3898 8.59439 22.1696 8.4098 21.9L7.50981 20.63C7.47863 20.582 7.4355 20.5429 7.38466 20.5166C7.33381 20.4903 7.277 20.4777 7.2198 20.48H5.9998C5.38496 20.4866 4.77492 20.3712 4.20497 20.1405C3.63502 19.9098 3.11649 19.5683 2.67939 19.1358C2.24229 18.7034 1.89529 18.1885 1.65849 17.6211C1.42168 17.0536 1.29977 16.4449 1.2998 15.83V9.87998C1.29977 9.2651 1.42168 8.65632 1.65849 8.08888C1.89529 7.52143 2.24229 7.00658 2.67939 6.57413C3.11649 6.14168 3.63502 5.80021 4.20497 5.56949C4.77492 5.33876 5.38496 5.22337 5.9998 5.22998H14.2398C15.4731 5.22998 16.6558 5.71989 17.5279 6.59193C18.3999 7.46398 18.8898 8.64672 18.8898 9.87998V15.83C18.8898 17.0632 18.3999 18.246 17.5279 19.118C16.6558 19.9901 15.4731 20.48 14.2398 20.48H12.9198C12.8628 20.4786 12.8063 20.4917 12.7556 20.5179C12.7049 20.5441 12.6617 20.5827 12.6298 20.63L11.7298 21.9C11.5452 22.1696 11.2974 22.3898 11.008 22.5415C10.7186 22.6931 10.3965 22.7716 10.0698 22.77ZM5.9998 6.72998C5.58231 6.72469 5.16791 6.80219 4.78055 6.958C4.39319 7.11381 4.04054 7.34484 3.743 7.63775C3.44545 7.93065 3.20889 8.27961 3.047 8.66447C2.88511 9.04933 2.80109 9.46246 2.7998 9.87998V15.83C2.79709 16.2496 2.87823 16.6655 3.03845 17.0533C3.19868 17.4411 3.43478 17.7929 3.73287 18.0882C4.03096 18.3835 4.38504 18.6163 4.77433 18.7729C5.16362 18.9294 5.58026 19.0066 5.9998 19H7.2198C7.51824 18.9985 7.81254 19.0697 8.07735 19.2073C8.34215 19.3449 8.56951 19.5449 8.7398 19.79L9.6298 21C9.6794 21.0707 9.74524 21.1285 9.8218 21.1685C9.89837 21.2086 9.98341 21.2296 10.0698 21.23C10.1562 21.2296 10.2412 21.2086 10.3178 21.1685C10.3944 21.1285 10.4602 21.0707 10.5098 21L11.3998 19.73C11.5766 19.496 11.8069 19.3076 12.0713 19.1806C12.3357 19.0536 12.6266 18.9917 12.9198 19H14.1898C15.0252 19 15.8265 18.6681 16.4172 18.0774C17.0079 17.4866 17.3398 16.6854 17.3398 15.85V9.87998C17.3372 9.04536 17.0044 8.24568 16.4143 7.65551C15.8241 7.06534 15.0244 6.73262 14.1898 6.72998H5.9998ZM6.5798 12C6.39389 12 6.21215 12.0551 6.05757 12.1584C5.90299 12.2617 5.7825 12.4085 5.71136 12.5803C5.64021 12.752 5.6216 12.941 5.65787 13.1234C5.69414 13.3057 5.78366 13.4732 5.91512 13.6047C6.04659 13.7361 6.21408 13.8256 6.39642 13.8619C6.57876 13.8982 6.76777 13.8796 6.93953 13.8084C7.11129 13.7373 7.2581 13.6168 7.36139 13.4622C7.46467 13.3076 7.5198 13.1259 7.5198 12.94C7.5172 12.6915 7.41733 12.4539 7.24161 12.2782C7.06589 12.1025 6.8283 12.0026 6.5798 12ZM10.0798 12C9.89572 11.9964 9.71465 12.047 9.55906 12.1455C9.40348 12.244 9.28024 12.3859 9.20464 12.5538C9.12903 12.7217 9.1044 12.9081 9.13379 13.0899C9.16318 13.2716 9.2453 13.4407 9.36996 13.5762C9.49462 13.7117 9.65633 13.8076 9.83501 13.8521C10.0137 13.8965 10.2015 13.8874 10.3751 13.826C10.5487 13.7647 10.7004 13.6537 10.8115 13.5068C10.9225 13.36 10.988 13.1837 10.9998 13C11.0065 12.8736 10.9879 12.7471 10.9451 12.628C10.9022 12.5089 10.836 12.3995 10.7503 12.3063C10.6646 12.2132 10.5611 12.1381 10.446 12.0855C10.3308 12.0329 10.2063 12.0038 10.0798 12ZM13.5698 12C13.3839 12 13.2022 12.0551 13.0476 12.1584C12.893 12.2617 12.7725 12.4085 12.7014 12.5803C12.6302 12.752 12.6116 12.941 12.6479 13.1234C12.6841 13.3057 12.7737 13.4732 12.9051 13.6047C13.0366 13.7361 13.2041 13.8256 13.3864 13.8619C13.5688 13.8982 13.7578 13.8796 13.9295 13.8084C14.1013 13.7373 14.2481 13.6168 14.3514 13.4622C14.4547 13.3076 14.5098 13.1259 14.5098 12.94C14.5072 12.6915 14.4073 12.4539 14.2316 12.2782C14.0559 12.1025 13.8183 12.0026 13.5698 12Z" fill="#050505"/>
</svg>
