<svg width="24" height="24" viewBox="0 0 24 24" fill="none" xmlns="http://www.w3.org/2000/svg">
<path d="M20.8299 22.05H20.5899L13.6899 21.19C13.2181 21.1287 12.7853 20.8962 12.4737 20.5367C12.1621 20.1772 11.9935 19.7157 11.9999 19.24V14.63C11.9997 14.1098 12.2021 13.61 12.5643 13.2366C12.9265 12.8632 13.4199 12.6456 13.9399 12.63H20.8399C21.3703 12.63 21.879 12.8407 22.2541 13.2158C22.6292 13.5908 22.8399 14.0995 22.8399 14.63V20.1C22.8402 20.3763 22.7815 20.6495 22.6677 20.9013C22.5538 21.1531 22.3875 21.3777 22.1799 21.56C21.8113 21.8936 21.3267 22.0696 20.8299 22.05ZM13.9299 14.18C13.8123 14.1826 13.7004 14.2311 13.6181 14.3153C13.5359 14.3994 13.4899 14.5123 13.4899 14.63V19.24C13.4892 19.3485 13.5286 19.4535 13.6006 19.5347C13.6726 19.6159 13.7721 19.6676 13.8799 19.68L20.7799 20.55C20.8427 20.5566 20.9061 20.5503 20.9663 20.5314C21.0265 20.5125 21.0822 20.4813 21.1299 20.44C21.1787 20.3981 21.2176 20.3459 21.2435 20.287C21.2695 20.2282 21.2819 20.1643 21.2799 20.1V14.63C21.2799 14.5106 21.2325 14.3962 21.1481 14.3118C21.0637 14.2274 20.9492 14.18 20.8299 14.18H13.9299ZM8.66989 20.64H8.42989L2.91989 19.95C2.44628 19.891 2.01104 19.6595 1.69741 19.2997C1.38378 18.9399 1.21376 18.4772 1.21989 18V14.63C1.21989 14.0995 1.4306 13.5908 1.80567 13.2158C2.18075 12.8407 2.68945 12.63 3.21989 12.63H8.71989C9.24161 12.643 9.73756 12.8595 10.1019 13.2331C10.4662 13.6068 10.67 14.1081 10.6699 14.63V18.7C10.669 18.9771 10.6087 19.2507 10.4931 19.5026C10.3775 19.7544 10.2094 19.9786 9.99989 20.16C9.62979 20.4766 9.15688 20.6473 8.66989 20.64ZM3.16989 14.18C3.05054 14.18 2.93608 14.2274 2.85169 14.3118C2.7673 14.3962 2.71989 14.5106 2.71989 14.63V18C2.72132 18.1079 2.7615 18.2117 2.83309 18.2925C2.90468 18.3732 3.00292 18.4256 3.10989 18.44L8.61989 19.13C8.68893 19.1384 8.759 19.1312 8.82482 19.1086C8.89064 19.0861 8.9505 19.049 8.99989 19C9.04594 18.958 9.08298 18.9071 9.10876 18.8504C9.13455 18.7936 9.14854 18.7323 9.14989 18.67V14.63C9.14989 14.5106 9.10248 14.3962 9.01808 14.3118C8.93369 14.2274 8.81923 14.18 8.69989 14.18H3.16989ZM20.8299 11.32H13.9299C13.4099 11.3044 12.9165 11.0868 12.5543 10.7134C12.1921 10.34 11.9897 9.84017 11.9899 9.31997V4.75997C11.9887 4.28617 12.1609 3.82831 12.4741 3.47277C12.7873 3.11723 13.2197 2.88859 13.6899 2.82997L20.5899 1.99997C20.8612 1.96628 21.1366 1.99002 21.3981 2.06964C21.6597 2.14927 21.9016 2.28301 22.1081 2.46218C22.3146 2.64135 22.4811 2.86194 22.5969 3.10964C22.7126 3.35734 22.775 3.62661 22.7799 3.89997V9.36997C22.7672 9.88315 22.5577 10.3718 22.1947 10.7348C21.8317 11.0978 21.3431 11.3073 20.8299 11.32ZM13.8799 4.31997C13.7721 4.3323 13.6726 4.38405 13.6006 4.46527C13.5286 4.54649 13.4892 4.65144 13.4899 4.75997V9.36997C13.4899 9.48761 13.5359 9.60058 13.6181 9.68469C13.7004 9.7688 13.8123 9.81736 13.9299 9.81997H20.8299C20.9492 9.81997 21.0637 9.77256 21.1481 9.68817C21.2325 9.60378 21.2799 9.48932 21.2799 9.36997V3.89997C21.2819 3.83569 21.2695 3.77177 21.2435 3.71293C21.2176 3.65409 21.1787 3.60182 21.1299 3.55997C21.0822 3.51861 21.0265 3.48749 20.9663 3.46857C20.9061 3.44965 20.8427 3.44331 20.7799 3.44997L13.8799 4.31997ZM8.66989 11.32H3.16989C2.64817 11.3069 2.15221 11.0905 1.78789 10.7168C1.42356 10.3431 1.21972 9.84185 1.21989 9.31997V5.99997C1.21869 5.52617 1.39092 5.06831 1.70409 4.71277C2.01727 4.35723 2.44972 4.12859 2.91989 4.06997L8.42989 3.37997C8.70286 3.34611 8.97991 3.37038 9.24284 3.45119C9.50576 3.532 9.74862 3.66753 9.95545 3.84886C10.1623 4.03019 10.3284 4.25323 10.4429 4.50333C10.5574 4.75342 10.6177 5.02492 10.6199 5.29997V9.36997C10.6072 9.88315 10.3977 10.3718 10.0347 10.7348C9.67173 11.0978 9.18307 11.3073 8.66989 11.32ZM8.66989 4.84997H8.61989L3.10989 5.53997C2.99947 5.55477 2.89847 5.61 2.82643 5.69498C2.75439 5.77995 2.71642 5.88862 2.71989 5.99997V9.36997C2.71989 9.48932 2.7673 9.60378 2.85169 9.68817C2.93608 9.77256 3.05054 9.81997 3.16989 9.81997H8.66989C8.78923 9.81997 8.90369 9.77256 8.98808 9.68817C9.07248 9.60378 9.11989 9.48932 9.11989 9.36997V5.29997C9.11748 5.18875 9.07485 5.08217 8.99989 4.99997C8.96111 4.95269 8.91225 4.91468 8.85688 4.88872C8.80151 4.86277 8.74103 4.84953 8.67989 4.84997H8.66989Z" fill="black"/>
</svg>
