<svg width="24" height="24" viewBox="0 0 24 24" fill="none" xmlns="http://www.w3.org/2000/svg">
<path d="M17.66 8.44999L16.66 7.44999C16.1206 6.91614 15.7906 6.20648 15.73 5.44999C16.1411 5.18922 16.4565 4.80214 16.629 4.34686C16.8014 3.89158 16.8215 3.39266 16.6863 2.92498C16.551 2.45731 16.2678 2.04611 15.879 1.75311C15.4902 1.4601 15.0168 1.30111 14.53 1.29999H9.53C9.05853 1.30887 8.60177 1.46565 8.22424 1.74819C7.8467 2.03073 7.56748 2.42474 7.42601 2.87457C7.28454 3.3244 7.28797 3.80731 7.43583 4.25508C7.58368 4.70285 7.86848 5.09285 8.25 5.36999C8.21403 6.15393 7.88581 6.89598 7.33 7.44999L6.33 8.44999C5.64901 9.12512 5.26105 10.0411 5.25 11V19.09C5.25264 20.0519 5.63593 20.9737 6.31612 21.6539C6.9963 22.3341 7.91808 22.7173 8.88 22.72H15.12C16.0819 22.7173 17.0037 22.3341 17.6839 21.6539C18.3641 20.9737 18.7474 20.0519 18.75 19.09V11.05C18.7481 10.5662 18.6509 10.0876 18.4639 9.64147C18.2768 9.19533 18.0037 8.79045 17.66 8.44999ZM9.5 2.74999H14.5C14.6989 2.74999 14.8897 2.82901 15.0303 2.96966C15.171 3.11031 15.25 3.30108 15.25 3.49999C15.25 3.6989 15.171 3.88967 15.0303 4.03032C14.8897 4.17097 14.6989 4.24999 14.5 4.24999H9.5C9.30109 4.24999 9.11032 4.17097 8.96967 4.03032C8.82902 3.88967 8.75 3.6989 8.75 3.49999C8.75 3.30108 8.82902 3.11031 8.96967 2.96966C9.11032 2.82901 9.30109 2.74999 9.5 2.74999ZM7.38 9.51999L8.38 8.51999C9.12181 7.7722 9.5903 6.79647 9.71 5.74999H14.24C14.3615 6.80301 14.8375 7.78339 15.59 8.52999L16.59 9.52999C16.7927 9.72994 16.9536 9.96815 17.0635 10.2308C17.1733 10.4934 17.2299 10.7753 17.23 11.06V15.8C15.01 15.98 13.45 15.66 12.89 14.89C11.59 13 8.76 12.88 6.75 13V11C6.7606 10.4437 6.98642 9.91323 7.38 9.51999ZM17.25 19.12C17.2474 19.6841 17.0221 20.2243 16.6232 20.6232C16.2243 21.0221 15.6841 21.2474 15.12 21.25H8.88C8.3159 21.2474 7.77565 21.0221 7.37677 20.6232C6.97788 20.2243 6.75263 19.6841 6.75 19.12V14.55C8.15 14.43 10.75 14.42 11.69 15.76C12.63 17.1 14.45 17.53 17.25 17.31V19.12Z" fill="black"/>
</svg>
