<svg width="24" height="24" viewBox="0 0 24 24" fill="none" xmlns="http://www.w3.org/2000/svg">
<path d="M15.92 2.65C16.6331 2.65 17.3392 2.79045 17.998 3.06333C18.6568 3.33622 19.2554 3.73619 19.7596 4.24041C20.2638 4.74463 20.6638 5.34323 20.9367 6.00203C21.2095 6.66083 21.35 7.36692 21.35 8.08V15.92C21.35 16.6331 21.2095 17.3392 20.9367 17.998C20.6638 18.6568 20.2638 19.2554 19.7596 19.7596C19.2554 20.2638 18.6568 20.6638 17.998 20.9367C17.3392 21.2095 16.6331 21.35 15.92 21.35H8.08C6.63987 21.35 5.25873 20.7779 4.24041 19.7596C3.22209 18.7413 2.65 17.3601 2.65 15.92V8.08C2.65 6.63987 3.22209 5.25873 4.24041 4.24041C5.25873 3.22209 6.63987 2.65 8.08 2.65H15.92ZM7.33 12.93H16.67C16.9167 12.93 17.1532 12.832 17.3276 12.6576C17.502 12.4832 17.6 12.2467 17.6 12C17.6 11.7533 17.502 11.5168 17.3276 11.3424C17.1532 11.168 16.9167 11.07 16.67 11.07H7.33C7.08335 11.07 6.8468 11.168 6.67239 11.3424C6.49798 11.5168 6.4 11.7533 6.4 12C6.4 12.2467 6.49798 12.4832 6.67239 12.6576C6.8468 12.832 7.08335 12.93 7.33 12.93ZM15.92 1.25H8.08C6.26857 1.25 4.53133 1.96959 3.25046 3.25046C1.96959 4.53133 1.25 6.26857 1.25 8.08V15.92C1.25 17.7314 1.96959 19.4687 3.25046 20.7495C4.53133 22.0304 6.26857 22.75 8.08 22.75H15.92C17.7314 22.75 19.4687 22.0304 20.7495 20.7495C22.0304 19.4687 22.75 17.7314 22.75 15.92V8.08C22.75 6.26857 22.0304 4.53133 20.7495 3.25046C19.4687 1.96959 17.7314 1.25 15.92 1.25Z" fill="black"/>
</svg>
