<svg width="24" height="24" viewBox="0 0 24 24" fill="none" xmlns="http://www.w3.org/2000/svg">
<path d="M21.37 9.11V5.83C21.3754 4.62405 20.9028 3.46509 20.0557 2.60675C19.2086 1.7484 18.056 1.26057 16.85 1.25H5.78004C4.57239 1.25793 3.4172 1.74461 2.56795 2.60324C1.71869 3.46187 1.24472 4.62233 1.25004 5.83V12.83C1.24472 14.0377 1.71869 15.1981 2.56795 16.0568C3.4172 16.9154 4.57239 17.4021 5.78004 17.41H11.31H11.38V19.32H7.28004C7.08113 19.32 6.89037 19.399 6.74971 19.5397C6.60906 19.6803 6.53004 19.8711 6.53004 20.07C6.53004 20.2689 6.60906 20.4597 6.74971 20.6003C6.89037 20.741 7.08113 20.82 7.28004 20.82H11.35C11.3932 20.8257 11.4369 20.8257 11.48 20.82C11.6333 21.3909 11.9697 21.8958 12.4375 22.2571C12.9054 22.6184 13.4789 22.8161 14.07 22.82H20.07C20.4333 22.8177 20.7923 22.7421 21.1256 22.5978C21.4589 22.4534 21.7597 22.2433 22.0099 21.98C22.2601 21.7168 22.4546 21.4057 22.5818 21.0655C22.709 20.7252 22.7662 20.3629 22.75 20V11.47C22.7498 10.9896 22.6219 10.5179 22.3794 10.1032C22.137 9.68854 21.7886 9.34576 21.37 9.11ZM11.37 11.47V15.89H5.78004C4.97545 15.8742 4.20945 15.5422 3.64795 14.9657C3.08644 14.3892 2.77463 13.6147 2.78004 12.81V5.81C2.77463 5.00527 3.08644 4.2308 3.64795 3.65432C4.20945 3.07784 4.97545 2.74576 5.78004 2.73H16.85C17.2508 2.72986 17.6476 2.81002 18.0169 2.96577C18.3862 3.12151 18.7205 3.34967 19.0002 3.63677C19.2798 3.92388 19.4991 4.26411 19.6451 4.63737C19.791 5.01063 19.8607 5.40935 19.85 5.81V8.75H14.05C13.3365 8.76053 12.656 9.05206 12.1561 9.5613C11.6562 10.0705 11.3773 10.7564 11.38 11.47H11.37ZM21.25 20C21.2527 20.3166 21.1302 20.6213 20.9092 20.848C20.6882 21.0746 20.3866 21.2047 20.07 21.21H14.07C13.9125 21.2087 13.7567 21.1764 13.6116 21.1148C13.4665 21.0533 13.3349 20.9638 13.2244 20.8515C13.1139 20.7391 13.0266 20.6061 12.9676 20.46C12.9085 20.3139 12.8787 20.1576 12.88 20V11.47C12.8774 11.1508 13.0009 10.8435 13.2238 10.615C13.4467 10.3864 13.7509 10.2553 14.07 10.25H20.07C20.2276 10.2526 20.3832 10.2862 20.5278 10.349C20.6724 10.4117 20.8032 10.5023 20.9128 10.6156C21.0223 10.7289 21.1085 10.8626 21.1664 11.0092C21.2243 11.1558 21.2527 11.3124 21.25 11.47V20Z" fill="black"/>
<path d="M17.2103 20.39C17.7239 20.39 18.1403 19.9737 18.1403 19.46C18.1403 18.9464 17.7239 18.53 17.2103 18.53C16.6966 18.53 16.2803 18.9464 16.2803 19.46C16.2803 19.9737 16.6966 20.39 17.2103 20.39Z" fill="black"/>
</svg>
