<svg width="24" height="24" viewBox="0 0 24 24" fill="none" xmlns="http://www.w3.org/2000/svg">
<path d="M12.7599 21.7501C12.0882 21.7507 11.4182 21.6837 10.7599 21.5501C9.38036 21.2759 8.07526 20.7103 6.93189 19.8911C5.78852 19.072 4.83323 18.0181 4.1299 16.8001C3.39195 15.5503 2.93487 14.155 2.79039 12.7108C2.64592 11.2667 2.81752 9.80846 3.29328 8.43732C3.76904 7.06618 4.53756 5.81503 5.54546 4.77076C6.55336 3.72648 7.77648 2.91411 9.1299 2.39006C9.50927 2.24794 9.92164 2.21858 10.3173 2.30552C10.713 2.39246 11.0751 2.592 11.3599 2.88006C11.6324 3.15174 11.8207 3.49625 11.9023 3.87228C11.9839 4.24831 11.9553 4.63989 11.8199 5.00006C11.3694 6.09148 11.2109 7.28139 11.36 8.45267C11.509 9.62395 11.9605 10.7362 12.6699 11.6801C13.3923 12.6509 14.3577 13.4144 15.4689 13.8936C16.5801 14.3729 17.798 14.551 18.9999 14.4101C19.3879 14.3608 19.7816 14.4299 20.1296 14.6084C20.4776 14.7868 20.7635 15.0663 20.9499 15.4101C21.1558 15.7594 21.2551 16.1614 21.2356 16.5665C21.2161 16.9716 21.0785 17.3621 20.8399 17.6901C20.2588 18.4929 19.5572 19.2013 18.7599 19.7901C17.024 21.074 14.9191 21.7616 12.7599 21.7501ZM9.9099 3.75006C9.84063 3.73578 9.76917 3.73578 9.6999 3.75006C8.54672 4.19238 7.50378 4.8807 6.64368 5.76711C5.78358 6.65351 5.12699 7.71671 4.71961 8.8827C4.31223 10.0487 4.16384 11.2894 4.28478 12.5186C4.40572 13.7478 4.79309 14.9358 5.4199 16.0001C6.02598 17.0331 6.84305 17.9267 7.81781 18.6227C8.79256 19.3186 9.9031 19.8013 11.077 20.039C12.2508 20.2768 13.4616 20.2645 14.6304 20.0027C15.7991 19.741 16.8996 19.2358 17.8599 18.5201C18.5321 18.0146 19.1282 17.4151 19.6299 16.7401C19.694 16.6456 19.7282 16.5342 19.7282 16.4201C19.7282 16.306 19.694 16.1945 19.6299 16.1001C19.5871 16.0148 19.5189 15.945 19.4347 15.9002C19.3505 15.8554 19.2545 15.8379 19.1599 15.8501C17.7221 16.0222 16.2642 15.8169 14.9297 15.2545C13.5953 14.6921 12.4303 13.792 11.5494 12.6426C10.6684 11.4933 10.102 10.1344 9.90567 8.69965C9.70939 7.26491 9.89006 5.80378 10.4299 4.46006C10.4657 4.37068 10.4743 4.27275 10.4547 4.1785C10.4352 4.08424 10.3883 3.99783 10.3199 3.93006C10.2669 3.87439 10.2034 3.8298 10.133 3.7989C10.0626 3.768 9.98676 3.7514 9.9099 3.75006Z" fill="black"/>
</svg>
