<svg width="24" height="24" viewBox="0 0 24 24" fill="none" xmlns="http://www.w3.org/2000/svg">
<path d="M17 22.75H7.00001C6.24454 22.7513 5.49624 22.6035 4.79802 22.315C4.0998 22.0265 3.46541 21.603 2.93121 21.0688C2.39701 20.5346 1.97352 19.9002 1.68502 19.202C1.39652 18.5038 1.24869 17.7555 1.25001 17V7.00001C1.24869 6.24454 1.39652 5.49624 1.68502 4.79802C1.97352 4.0998 2.39701 3.46541 2.93121 2.93121C3.46541 2.39701 4.0998 1.97352 4.79802 1.68502C5.49624 1.39652 6.24454 1.24869 7.00001 1.25001H17C17.7555 1.24869 18.5038 1.39652 19.202 1.68502C19.9002 1.97352 20.5346 2.39701 21.0688 2.93121C21.603 3.46541 22.0265 4.0998 22.315 4.79802C22.6035 5.49624 22.7513 6.24454 22.75 7.00001V17C22.7513 17.7555 22.6035 18.5038 22.315 19.202C22.0265 19.9002 21.603 20.5346 21.0688 21.0688C20.5346 21.603 19.9002 22.0265 19.202 22.315C18.5038 22.6035 17.7555 22.7513 17 22.75ZM7.00001 2.75001C6.44152 2.74869 5.88827 2.85772 5.37205 3.07083C4.85582 3.28395 4.38678 3.59695 3.99186 3.99186C3.59695 4.38678 3.28395 4.85582 3.07083 5.37205C2.85772 5.88827 2.74869 6.44152 2.75001 7.00001V17C2.74869 17.5585 2.85772 18.1117 3.07083 18.628C3.28395 19.1442 3.59695 19.6132 3.99186 20.0082C4.38678 20.4031 4.85582 20.7161 5.37205 20.9292C5.88827 21.1423 6.44152 21.2513 7.00001 21.25H17C17.5585 21.2513 18.1117 21.1423 18.628 20.9292C19.1442 20.7161 19.6132 20.4031 20.0082 20.0082C20.4031 19.6132 20.7161 19.1442 20.9292 18.628C21.1423 18.1117 21.2513 17.5585 21.25 17V7.00001C21.2513 6.44152 21.1423 5.88827 20.9292 5.37205C20.7161 4.85582 20.4031 4.38678 20.0082 3.99186C19.6132 3.59695 19.1442 3.28395 18.628 3.07083C18.1117 2.85772 17.5585 2.74869 17 2.75001H7.00001ZM12 7.69001C11.7409 7.69001 11.4876 7.76684 11.2722 7.91078C11.0568 8.05473 10.8889 8.25932 10.7897 8.49869C10.6906 8.73806 10.6646 9.00146 10.7152 9.25558C10.7657 9.50969 10.8905 9.74311 11.0737 9.92632C11.2569 10.1095 11.4903 10.2343 11.7444 10.2848C11.9986 10.3354 12.262 10.3094 12.5013 10.2103C12.7407 10.1111 12.9453 9.94323 13.0892 9.72781C13.2332 9.51238 13.31 9.2591 13.31 9.00001C13.31 8.65258 13.172 8.31937 12.9263 8.0737C12.6806 7.82803 12.3474 7.69001 12 7.69001ZM8.31001 13.69C8.05092 13.69 7.79764 13.7668 7.58221 13.9108C7.36678 14.0547 7.19888 14.2593 7.09973 14.4987C7.00058 14.7381 6.97463 15.0015 7.02518 15.2556C7.07573 15.5097 7.20049 15.7431 7.3837 15.9263C7.56691 16.1095 7.80033 16.2343 8.05444 16.2848C8.30856 16.3354 8.57195 16.3094 8.81132 16.2103C9.0507 16.1111 9.25529 15.9432 9.39923 15.7278C9.54318 15.5124 9.62001 15.2591 9.62001 15C9.62001 14.6526 9.48199 14.3194 9.23632 14.0737C8.99065 13.828 8.65744 13.69 8.31001 13.69ZM15.69 13.69C15.4309 13.69 15.1776 13.7668 14.9622 13.9108C14.7468 14.0547 14.5789 14.2593 14.4797 14.4987C14.3806 14.7381 14.3546 15.0015 14.4052 15.2556C14.4557 15.5097 14.5805 15.7431 14.7637 15.9263C14.9469 16.1095 15.1803 16.2343 15.4344 16.2848C15.6886 16.3354 15.952 16.3094 16.1913 16.2103C16.4307 16.1111 16.6353 15.9432 16.7792 15.7278C16.9232 15.5124 17 15.2591 17 15C17 14.6526 16.862 14.3194 16.6163 14.0737C16.3706 13.828 16.0374 13.69 15.69 13.69Z" fill="black"/>
</svg>
