<svg width="24" height="24" viewBox="0 0 24 24" fill="none" xmlns="http://www.w3.org/2000/svg">
<path d="M12.75 11.72C12.75 11.9189 12.671 12.1096 12.5303 12.2503C12.3897 12.3909 12.1989 12.47 12 12.47C11.8011 12.47 11.6103 12.3909 11.4697 12.2503C11.329 12.1096 11.25 11.9189 11.25 11.72V8.79997C11.25 8.60105 11.329 8.41029 11.4697 8.26964C11.6103 8.12898 11.8011 8.04997 12 8.04997C12.1989 8.04997 12.3897 8.12898 12.5303 8.26964C12.671 8.41029 12.75 8.60105 12.75 8.79997V11.72ZM12.75 4.26997V2.83997C12.75 2.64105 12.671 2.45029 12.5303 2.30964C12.3897 2.16898 12.1989 2.08997 12 2.08997C11.8011 2.08997 11.6103 2.16898 11.4697 2.30964C11.329 2.45029 11.25 2.64105 11.25 2.83997V4.26997C9.62023 4.38867 8.09574 5.11967 6.98275 6.31613C5.86977 7.51259 5.25073 9.08588 5.25 10.72V16.2C5.25265 17.9142 5.93548 19.5573 7.14855 20.7685C8.36162 21.9797 10.0058 22.66 11.72 22.66H12.28C13.9942 22.66 15.6384 21.9797 16.8514 20.7685C18.0645 19.5573 18.7474 17.9142 18.75 16.2V10.72C18.7493 9.08588 18.1302 7.51259 17.0172 6.31613C15.9043 5.11967 14.3798 4.38867 12.75 4.26997ZM17.25 16.2C17.25 17.526 16.7232 18.7978 15.7855 19.7355C14.8479 20.6732 13.5761 21.2 12.25 21.2H11.69C10.3639 21.2 9.09215 20.6732 8.15447 19.7355C7.21678 18.7978 6.69 17.526 6.69 16.2V10.72C6.69 9.39388 7.21678 8.12211 8.15447 7.18443C9.09215 6.24675 10.3639 5.71997 11.69 5.71997H12.25C13.5761 5.71997 14.8479 6.24675 15.7855 7.18443C16.7232 8.12211 17.25 9.39388 17.25 10.72V16.2Z" fill="black"/>
</svg>
