<svg width="24" height="24" viewBox="0 0 24 24" fill="none" xmlns="http://www.w3.org/2000/svg">
<path d="M16.3498 22.81H16.2998C15.8168 22.8096 15.3471 22.6523 14.9612 22.362C14.5753 22.0717 14.294 21.6639 14.1598 21.2L12.3398 15.2C12.2146 14.7909 12.2035 14.3553 12.3076 13.9403C12.4118 13.5253 12.6273 13.1466 12.9309 12.8451C13.2345 12.5436 13.6146 12.3307 14.0303 12.2293C14.446 12.128 14.8815 12.142 15.2898 12.27L21.1398 14.12C21.5939 14.2657 21.9911 14.5496 22.2761 14.9319C22.5611 15.3143 22.7196 15.7761 22.7296 16.2529C22.7395 16.7297 22.6003 17.1977 22.3314 17.5916C22.0625 17.9854 21.6774 18.2855 21.2298 18.45L19.5598 19.05C19.457 19.0886 19.3637 19.1487 19.2861 19.2263C19.2085 19.304 19.1484 19.3973 19.1098 19.5L18.5098 21.25C18.3615 21.7053 18.0723 22.1018 17.6841 22.3822C17.2959 22.6625 16.8286 22.8124 16.3498 22.81ZM14.5798 13.68C14.4477 13.6824 14.3179 13.7153 14.2006 13.7759C14.0832 13.8366 13.9814 13.9235 13.9031 14.0299C13.8247 14.1363 13.7719 14.2593 13.7488 14.3894C13.7257 14.5195 13.7329 14.6531 13.7698 14.78L15.5898 20.78C15.6369 20.9403 15.7342 21.0812 15.8674 21.182C16.0006 21.2828 16.1627 21.3382 16.3298 21.34C16.4972 21.3478 16.6624 21.3001 16.7999 21.2042C16.9373 21.1084 17.0392 20.9698 17.0898 20.81L17.6898 19.06C17.8006 18.745 17.9802 18.4587 18.2154 18.2217C18.4506 17.9848 18.7356 17.8031 19.0498 17.69L20.7198 17.09C20.8768 17.0363 21.0122 16.9333 21.1059 16.7963C21.1996 16.6594 21.2466 16.4958 21.2398 16.33C21.2397 16.1651 21.186 16.0048 21.0868 15.8731C20.9876 15.7414 20.8482 15.6456 20.6898 15.6L14.8398 13.75C14.758 13.7112 14.6699 13.6875 14.5798 13.68ZM12.2598 20.94C12.2598 20.7411 12.1808 20.5503 12.0401 20.4097C11.8994 20.269 11.7087 20.19 11.5098 20.19C9.77918 20.19 8.08746 19.6768 6.64853 18.7154C5.2096 17.7539 4.08809 16.3873 3.42582 14.7885C2.76356 13.1896 2.59028 11.4303 2.9279 9.73297C3.26552 8.03563 4.09888 6.47653 5.32259 5.25282C6.5463 4.02911 8.1054 3.19576 9.80273 2.85814C11.5001 2.52052 13.2594 2.69379 14.8583 3.35606C16.4571 4.01833 17.8237 5.13984 18.7851 6.57877C19.7466 8.0177 20.2598 9.70942 20.2598 11.44C20.2598 11.6389 20.3388 11.8297 20.4794 11.9703C20.6201 12.111 20.8109 12.19 21.0098 12.19C21.2087 12.19 21.3995 12.111 21.5401 11.9703C21.6808 11.8297 21.7598 11.6389 21.7598 11.44C21.7598 9.41275 21.1586 7.43102 20.0323 5.74541C18.9061 4.05981 17.3052 2.74604 15.4323 1.97024C13.5593 1.19444 11.4984 0.991459 9.51009 1.38696C7.52179 1.78246 5.69541 2.75867 4.26193 4.19216C2.82844 5.62565 1.85222 7.45203 1.45672 9.44033C1.06122 11.4286 1.26421 13.4896 2.04001 15.3625C2.8158 17.2355 4.12957 18.8363 5.81518 19.9626C7.50078 21.0889 9.48251 21.69 11.5098 21.69C11.6086 21.6914 11.7068 21.6729 11.7984 21.6357C11.89 21.5984 11.9732 21.5432 12.0431 21.4733C12.113 21.4034 12.1682 21.3202 12.2054 21.2286C12.2426 21.137 12.2611 21.0389 12.2598 20.94Z" fill="black"/>
</svg>
