<svg width="24" height="24" viewBox="0 0 24 24" fill="none" xmlns="http://www.w3.org/2000/svg">
<path d="M11.72 20.78H6.81996C5.3983 20.7747 4.03651 20.2069 3.03217 19.2007C2.02783 18.1945 1.46259 16.8317 1.45996 15.41V6.73C1.4626 5.30925 2.02817 3.94744 3.03279 2.94282C4.03741 1.9382 5.39921 1.37264 6.81996 1.37H15.51C16.9315 1.37 18.2949 1.93471 19.3001 2.9399C20.3052 3.9451 20.87 5.30843 20.87 6.73V12C20.87 12.1989 20.7909 12.3897 20.6503 12.5303C20.5096 12.671 20.3189 12.75 20.12 12.75C19.921 12.75 19.7303 12.671 19.5896 12.5303C19.449 12.3897 19.37 12.1989 19.37 12V6.73C19.37 5.70626 18.9633 4.72445 18.2394 4.00056C17.5155 3.27667 16.5337 2.86999 15.51 2.86999H6.81996C5.80317 2.88053 4.83161 3.29186 4.11635 4.01461C3.40109 4.73736 2.99991 5.71315 2.99996 6.73V15.41C2.99996 16.4347 3.40632 17.4175 4.12992 18.143C4.85352 18.8684 5.83531 19.2773 6.85996 19.28H11.76C11.9589 19.28 12.1496 19.359 12.2903 19.4997C12.4309 19.6403 12.51 19.8311 12.51 20.03C12.51 20.2289 12.4309 20.4197 12.2903 20.5603C12.1496 20.701 11.9589 20.78 11.76 20.78H11.72ZM18.72 21.27L19.29 19.62C19.3246 19.5288 19.3781 19.4461 19.4471 19.3771C19.516 19.3082 19.5988 19.2546 19.69 19.22L21.26 18.66C21.6939 18.5048 22.0681 18.2174 22.3299 17.8381C22.5916 17.4588 22.7277 17.007 22.7188 16.5462C22.71 16.0855 22.5567 15.6392 22.2806 15.2702C22.0045 14.9013 21.6195 14.6284 21.18 14.49L15.67 12.75C15.2766 12.6273 14.8573 12.614 14.4569 12.7115C14.0566 12.809 13.6903 13.0136 13.3974 13.3034C13.1045 13.5932 12.896 13.9573 12.7943 14.3566C12.6926 14.7559 12.7014 15.1754 12.82 15.57L14.54 21.19C14.6693 21.6373 14.9397 22.0309 15.311 22.312C15.6822 22.5931 16.1343 22.7468 16.6 22.75H16.65C17.1157 22.765 17.5738 22.629 17.9559 22.3622C18.3379 22.0955 18.6235 21.7124 18.77 21.27H18.72ZM15.22 14.18L20.73 15.92C20.87 15.966 20.9919 16.0551 21.0784 16.1745C21.1648 16.2939 21.2114 16.4376 21.2114 16.585C21.2114 16.7324 21.1648 16.8761 21.0784 16.9955C20.9919 17.1149 20.87 17.204 20.73 17.25L19.16 17.81C18.8586 17.9192 18.5854 18.0944 18.3605 18.3228C18.1356 18.5512 17.9645 18.827 17.86 19.13L17.29 20.78C17.2439 20.92 17.1549 21.042 17.0354 21.1284C16.916 21.2149 16.7724 21.2614 16.625 21.2614C16.4775 21.2614 16.3339 21.2149 16.2145 21.1284C16.0951 21.042 16.006 20.92 15.96 20.78L14.24 15.15C14.2042 15.0359 14.1955 14.915 14.2146 14.797C14.2337 14.6789 14.28 14.567 14.3499 14.4699C14.4197 14.3729 14.5113 14.2935 14.6171 14.2379C14.723 14.1824 14.8404 14.1523 14.96 14.15C15.0642 14.1437 15.1688 14.1539 15.27 14.18H15.22Z" fill="black"/>
</svg>
