<svg width="24" height="24" viewBox="0 0 24 24" fill="none" xmlns="http://www.w3.org/2000/svg">
<path d="M12 22.75C9.87386 22.75 7.79545 22.1195 6.02762 20.9383C4.2598 19.7571 2.88194 18.0782 2.0683 16.1139C1.25466 14.1495 1.04177 11.9881 1.45656 9.90278C1.87135 7.81749 2.89519 5.90202 4.39861 4.39861C5.90202 2.89519 7.81749 1.87135 9.90278 1.45656C11.9881 1.04177 14.1495 1.25466 16.1139 2.0683C18.0782 2.88194 19.7571 4.2598 20.9383 6.02762C22.1195 7.79545 22.75 9.87386 22.75 12C22.7474 14.8503 21.6139 17.583 19.5985 19.5985C17.583 21.6139 14.8503 22.7474 12 22.75ZM12 2.75C10.1705 2.75 8.38213 3.29251 6.86098 4.30891C5.33983 5.32531 4.15423 6.76997 3.45412 8.46018C2.75401 10.1504 2.57083 12.0103 2.92774 13.8046C3.28465 15.5989 4.16563 17.2471 5.45927 18.5407C6.7529 19.8344 8.40109 20.7154 10.1954 21.0723C11.9897 21.4292 13.8496 21.246 15.5398 20.5459C17.23 19.8458 18.6747 18.6602 19.6911 17.139C20.7075 15.6179 21.25 13.8295 21.25 12C21.2474 9.54756 20.272 7.19633 18.5378 5.46219C16.8037 3.72805 14.4524 2.75265 12 2.75ZM11.31 18.06H11.26C10.7516 18.0649 10.2555 17.9034 9.84749 17.6001C9.43945 17.2967 9.14182 16.8683 9 16.38L7.12 10.09C7.00023 9.66813 6.99636 9.22177 7.10882 8.79788C7.22128 8.374 7.4459 7.98825 7.75906 7.68124C8.07221 7.37422 8.46233 7.15728 8.88836 7.05324C9.31439 6.94919 9.76058 6.9619 10.18 7.09L16.35 9C16.8244 9.14802 17.2397 9.44265 17.5362 9.84153C17.8327 10.2404 17.9951 10.723 18 11.22C18.0143 11.7163 17.8697 12.2042 17.5873 12.6125C17.3049 13.0208 16.8994 13.3283 16.43 13.49L14.68 14.12C14.5636 14.1618 14.4582 14.2294 14.3716 14.3177C14.285 14.406 14.2195 14.5128 14.18 14.63L13.54 16.47C13.3851 16.9374 13.0856 17.3433 12.6847 17.6292C12.2838 17.915 11.8023 18.0659 11.31 18.06ZM9.44 8.44C9.29321 8.44115 9.14873 8.47666 9.01813 8.54368C8.88753 8.61071 8.77444 8.70739 8.68792 8.82598C8.60141 8.94458 8.54387 9.08179 8.51992 9.22662C8.49597 9.37145 8.50627 9.51987 8.55 9.66L10.47 15.94C10.5202 16.1187 10.6276 16.2761 10.7757 16.388C10.9237 16.5 11.1044 16.5604 11.29 16.56C11.4746 16.5707 11.6575 16.5195 11.8097 16.4144C11.9619 16.3093 12.0746 16.1564 12.13 15.98L12.76 14.14C12.8748 13.8123 13.0608 13.5141 13.3046 13.2668C13.5484 13.0195 13.8439 12.8294 14.17 12.71L15.93 12.08C16.1028 12.0232 16.2522 11.9113 16.3552 11.7613C16.4582 11.6113 16.5091 11.4317 16.5 11.25C16.5027 11.0653 16.4443 10.8848 16.3341 10.7366C16.2238 10.5883 16.0677 10.4806 15.89 10.43L9.73 8.49C9.6366 8.45805 9.53871 8.44117 9.44 8.44Z" fill="black"/>
</svg>
