<svg width="24" height="24" viewBox="0 0 24 24" fill="none" xmlns="http://www.w3.org/2000/svg">
<path d="M21.3698 4.49002L18.4998 2.76002C18.061 2.49947 17.5601 2.36197 17.0498 2.36197C16.5395 2.36197 16.0386 2.49947 15.5998 2.76002L11.9998 4.80002L8.41979 2.73002C7.98099 2.46947 7.4801 2.33197 6.96979 2.33197C6.45947 2.33197 5.95858 2.46947 5.51979 2.73002L2.64979 4.49002C2.23219 4.74602 1.88707 5.10464 1.64726 5.53174C1.40746 5.95884 1.28095 6.44021 1.27979 6.93002V16.64C1.27938 17.1338 1.40727 17.6193 1.65095 18.0488C1.89462 18.4782 2.2457 18.8371 2.66979 19.09L5.45979 20.75C5.9009 21.0139 6.40576 21.1522 6.91979 21.15C7.41802 21.1483 7.90729 21.0174 8.33979 20.77L11.9998 18.65L15.6698 20.77C16.1059 21.0174 16.5984 21.1482 17.0998 21.15C17.6137 21.1512 18.1183 21.013 18.5598 20.75L21.3498 19.09C21.7732 18.8363 22.1237 18.4773 22.3673 18.048C22.6109 17.6187 22.7392 17.1336 22.7398 16.64V6.93002C22.7377 6.4404 22.6108 5.95939 22.371 5.53245C22.1313 5.10551 21.7867 4.74674 21.3698 4.49002ZM7.58979 19.49C7.38338 19.6104 7.14872 19.6738 6.90979 19.6738C6.67085 19.6738 6.4362 19.6104 6.22979 19.49L3.43979 17.8C3.23801 17.6812 3.0709 17.5116 2.9551 17.308C2.8393 17.1045 2.77885 16.8742 2.77979 16.64V6.93002C2.78053 6.69871 2.8407 6.47147 2.95452 6.27009C3.06834 6.06872 3.23199 5.89997 3.42979 5.78002L6.29979 4.05002C6.50288 3.92012 6.73705 3.84698 6.97797 3.83818C7.21889 3.82939 7.45777 3.88527 7.66979 4.00002L10.5098 5.64002L16.1598 8.90002C16.1843 8.91419 16.2047 8.93461 16.2187 8.95921C16.2328 8.98381 16.24 9.0117 16.2398 9.04002V13.21C16.2419 13.24 16.2355 13.27 16.2214 13.2965C16.2072 13.3231 16.1859 13.3451 16.1598 13.36C16.1348 13.3772 16.1051 13.3864 16.0748 13.3864C16.0444 13.3864 16.0148 13.3772 15.9898 13.36L8.83979 8.81002C8.58873 8.64803 8.2986 8.5568 8.00001 8.54596C7.70142 8.53512 7.40544 8.60507 7.14329 8.74843C6.88114 8.89179 6.66255 9.10325 6.51057 9.3605C6.35859 9.61774 6.27886 9.91124 6.27979 10.21V14.39C6.28139 14.6826 6.35983 14.9696 6.50725 15.2223C6.65467 15.4751 6.8659 15.6846 7.11979 15.83L10.5098 17.83L7.58979 19.49ZM21.2498 16.66C21.2507 16.8942 21.1903 17.1245 21.0745 17.328C20.9587 17.5316 20.7916 17.7012 20.5898 17.82L17.7998 19.46C17.5915 19.5803 17.3553 19.6436 17.1148 19.6436C16.8743 19.6436 16.6381 19.5803 16.4298 19.46L7.86979 14.53C7.84264 14.5182 7.8196 14.4986 7.80359 14.4737C7.78757 14.4487 7.77929 14.4196 7.77979 14.39V10.21C7.77929 10.1804 7.78757 10.1513 7.80359 10.1264C7.8196 10.1015 7.84264 10.0819 7.86979 10.07C7.89551 10.06 7.92406 10.06 7.94979 10.07C7.97917 10.0614 8.0104 10.0614 8.03979 10.07L15.1798 14.65C15.4322 14.809 15.7226 14.8975 16.0208 14.9062C16.319 14.915 16.6142 14.8437 16.8755 14.6997C17.1368 14.5558 17.3548 14.3445 17.5068 14.0878C17.6588 13.8311 17.7392 13.5384 17.7398 13.24V9.07002C17.7402 8.77823 17.6637 8.49147 17.518 8.23867C17.3723 7.98586 17.1625 7.77592 16.9098 7.63002L13.5098 5.63002L16.3498 4.00002C16.5589 3.87691 16.7971 3.81199 17.0398 3.81199C17.2824 3.81199 17.5207 3.87691 17.7298 4.00002L20.5998 5.78002C20.7976 5.89997 20.9612 6.06872 21.0751 6.27009C21.1889 6.47147 21.249 6.69871 21.2498 6.93002V16.66Z" fill="black"/>
</svg>
