<svg width="24" height="24" viewBox="0 0 24 24" fill="none" xmlns="http://www.w3.org/2000/svg">
<path d="M18.23 12C18.23 10.7678 17.8646 9.56334 17.1801 8.53882C16.4955 7.5143 15.5225 6.71578 14.3841 6.24425C13.2458 5.77272 11.9931 5.64934 10.7846 5.88973C9.57611 6.13011 8.46603 6.72346 7.59474 7.59474C6.72346 8.46603 6.13011 9.57611 5.88973 10.7846C5.64934 11.9931 5.77272 13.2458 6.24425 14.3841C6.71578 15.5225 7.5143 16.4955 8.53882 17.1801C9.56334 17.8646 10.7678 18.23 12 18.23C12.638 18.2321 13.2723 18.1342 13.88 17.94C15.1421 17.5405 16.2442 16.7494 17.0263 15.6813C17.8085 14.6133 18.2301 13.3238 18.23 12ZM16.73 12C16.7283 12.9589 16.4346 13.8945 15.8879 14.6823C15.3413 15.4702 14.5676 16.0728 13.67 16.41C12.9896 15.8927 12.4404 15.2226 12.0667 14.4539C11.6931 13.6851 11.5055 12.8392 11.5192 11.9846C11.5328 11.13 11.7472 10.2905 12.1452 9.53407C12.5431 8.77762 13.1134 8.12537 13.81 7.63002C14.6736 7.98911 15.4116 8.59564 15.9312 9.37325C16.4508 10.1509 16.7287 11.0648 16.73 12ZM7.27002 12C7.26995 10.7568 7.76036 9.56378 8.63475 8.68003C9.50914 7.79628 10.6969 7.29319 11.94 7.28002C10.743 8.54922 10.0631 10.2197 10.0335 11.964C10.0039 13.7084 10.6268 15.4009 11.78 16.71C10.5675 16.6536 9.42312 16.1331 8.58363 15.2564C7.74415 14.3797 7.27384 13.2138 7.27002 12ZM11.27 4.00002V2.77002C11.27 2.67153 11.2894 2.574 11.3271 2.48301C11.3648 2.39201 11.42 2.30933 11.4897 2.23969C11.5593 2.17005 11.642 2.1148 11.733 2.07711C11.824 2.03942 11.9215 2.02002 12.02 2.02002C12.1185 2.02002 12.216 2.03942 12.307 2.07711C12.398 2.1148 12.4807 2.17005 12.5504 2.23969C12.62 2.30933 12.6752 2.39201 12.7129 2.48301C12.7506 2.574 12.77 2.67153 12.77 2.77002V4.00002C12.77 4.19893 12.691 4.3897 12.5504 4.53035C12.4097 4.671 12.2189 4.75002 12.02 4.75002C11.8211 4.75002 11.6303 4.671 11.4897 4.53035C11.349 4.3897 11.27 4.19893 11.27 4.00002ZM12.77 20.1V21.28C12.77 21.3785 12.7506 21.476 12.7129 21.567C12.6752 21.658 12.62 21.7407 12.5504 21.8103C12.4807 21.88 12.398 21.9352 12.307 21.9729C12.216 22.0106 12.1185 22.03 12.02 22.03C11.9215 22.03 11.824 22.0106 11.733 21.9729C11.642 21.9352 11.5593 21.88 11.4897 21.8103C11.42 21.7407 11.3648 21.658 11.3271 21.567C11.2894 21.476 11.27 21.3785 11.27 21.28V20.05C11.27 19.9515 11.2894 19.854 11.3271 19.763C11.3648 19.672 11.42 19.5893 11.4897 19.5197C11.5593 19.45 11.642 19.3948 11.733 19.3571C11.824 19.3194 11.9215 19.3 12.02 19.3C12.1185 19.3 12.216 19.3194 12.307 19.3571C12.398 19.3948 12.4807 19.45 12.5504 19.5197C12.62 19.5893 12.6752 19.672 12.7129 19.763C12.7506 19.854 12.77 19.9515 12.77 20.05V20.1ZM4.94002 6.00002C4.85009 5.93592 4.7752 5.85298 4.72058 5.75699C4.66597 5.661 4.63292 5.55426 4.62376 5.4442C4.61459 5.33414 4.62953 5.22341 4.66752 5.11971C4.70551 5.01601 4.76564 4.92183 4.84374 4.84374C4.92183 4.76564 5.01601 4.70551 5.11971 4.66752C5.22341 4.62953 5.33414 4.61459 5.4442 4.62376C5.55426 4.63292 5.661 4.66597 5.75699 4.72058C5.85298 4.7752 5.93592 4.85009 6.00002 4.94002L6.83002 5.78002C6.97047 5.92065 7.04936 6.11127 7.04936 6.31002C7.04936 6.50877 6.97047 6.69939 6.83002 6.84002C6.68939 6.98047 6.49877 7.05936 6.30002 7.05936C6.10127 7.05936 5.91065 6.98047 5.77002 6.84002L4.94002 6.00002ZM19.06 18C19.1654 18.1055 19.2369 18.24 19.2655 18.3863C19.2941 18.5327 19.2784 18.6842 19.2204 18.8216C19.1625 18.959 19.0649 19.076 18.9401 19.1576C18.8154 19.2393 18.6691 19.2819 18.52 19.28C18.4215 19.2805 18.3238 19.2613 18.2328 19.2235C18.1418 19.1857 18.0593 19.1301 17.99 19.06L17.16 18.23C17.0863 18.1614 17.0272 18.0786 16.9862 17.9866C16.9452 17.8946 16.9232 17.7952 16.9214 17.6945C16.9197 17.5938 16.9382 17.4938 16.9759 17.4004C17.0136 17.307 17.0698 17.2222 17.141 17.151C17.2122 17.0798 17.297 17.0236 17.3904 16.9859C17.4838 16.9482 17.5838 16.9297 17.6845 16.9314C17.7852 16.9332 17.8846 16.9552 17.9766 16.9962C18.0686 17.0372 18.1514 17.0963 18.22 17.17L19.06 18ZM4.70002 12C4.70002 12.1989 4.621 12.3897 4.48035 12.5303C4.3397 12.671 4.14893 12.75 3.95002 12.75H2.77002C2.57111 12.75 2.38034 12.671 2.23969 12.5303C2.09904 12.3897 2.02002 12.1989 2.02002 12C2.02002 11.8011 2.09904 11.6103 2.23969 11.4697C2.38034 11.329 2.57111 11.25 2.77002 11.25H4.00002C4.19014 11.2627 4.3683 11.3473 4.49831 11.4866C4.62833 11.6259 4.70044 11.8095 4.70002 12ZM22 12C21.9974 12.1981 21.9176 12.3874 21.7775 12.5275C21.6374 12.6676 21.4481 12.7474 21.25 12.75H20.05C19.8511 12.75 19.6603 12.671 19.5197 12.5303C19.379 12.3897 19.3 12.1989 19.3 12C19.3 11.8011 19.379 11.6103 19.5197 11.4697C19.6603 11.329 19.8511 11.25 20.05 11.25H21.23C21.3298 11.2487 21.4289 11.267 21.5216 11.304C21.6143 11.341 21.6989 11.3959 21.7704 11.4655C21.8419 11.5352 21.899 11.6182 21.9384 11.7099C21.9778 11.8016 21.9987 11.9002 22 12ZM6.84002 17.16C6.98047 17.3006 7.05936 17.4913 7.05936 17.69C7.05936 17.8888 6.98047 18.0794 6.84002 18.22L6.00002 19.05C5.9342 19.1318 5.85193 19.1989 5.75854 19.2469C5.66515 19.295 5.56272 19.3228 5.45787 19.3287C5.35303 19.3347 5.24811 19.3185 5.14991 19.2813C5.05171 19.2441 4.96242 19.1867 4.88781 19.1128C4.81321 19.0389 4.75495 18.9501 4.71682 18.8523C4.67868 18.7544 4.66152 18.6497 4.66645 18.5448C4.67137 18.4399 4.69826 18.3372 4.74539 18.2434C4.79251 18.1495 4.85882 18.0666 4.94002 18L5.78002 17.17C5.91932 17.0282 6.1092 16.9475 6.30795 16.9457C6.5067 16.9438 6.69807 17.0209 6.84002 17.16ZM19.05 4.94002C19.1911 5.08235 19.2702 5.27463 19.2702 5.47502C19.2702 5.67541 19.1911 5.86769 19.05 6.01002L18.21 6.84002C18.0694 6.98047 17.8788 7.05936 17.68 7.05936C17.4813 7.05936 17.2906 6.98047 17.15 6.84002C17.0096 6.69939 16.9307 6.50877 16.9307 6.31002C16.9307 6.11127 17.0096 5.92065 17.15 5.78002L18 4.94002C18.1402 4.8026 18.3287 4.72563 18.525 4.72563C18.7213 4.72563 18.9098 4.8026 19.05 4.94002Z" fill="black"/>
</svg>
