<svg width="24" height="24" viewBox="0 0 24 24" fill="none" xmlns="http://www.w3.org/2000/svg">
<path d="M18.4498 2.73L14.5298 1.83C13.3579 1.56468 12.1317 1.68403 11.033 2.17036C9.9342 2.6567 9.02139 3.48413 8.42985 4.53L5.21984 5.46C4.52247 5.65913 3.87127 5.99396 3.30359 6.4453C2.73591 6.89664 2.26291 7.45562 1.91173 8.09016C1.56055 8.72471 1.33809 9.42234 1.25711 10.143C1.17613 10.8637 1.23823 11.5934 1.43984 12.29L3.16984 18.29C3.50257 19.4398 4.19875 20.4509 5.15418 21.172C6.1096 21.8931 7.27287 22.2853 8.46985 22.29C8.98604 22.2953 9.50062 22.2314 9.99984 22.1L14.1298 20.91C14.6226 20.7581 15.0907 20.5358 15.5198 20.25H15.7098C16.9698 20.2477 18.1918 19.8182 19.1762 19.0318C20.1607 18.2454 20.8493 17.1484 21.1298 15.92L22.6298 9.39001C22.956 7.95273 22.6992 6.4448 21.9157 5.19649C21.1322 3.94818 19.8859 3.06126 18.4498 2.73ZM9.58984 20.66C9.08037 20.8124 8.54562 20.8617 8.01686 20.805C7.48811 20.7483 6.97598 20.5867 6.51041 20.3297C6.04485 20.0727 5.6352 19.7255 5.30543 19.3083C4.97566 18.8911 4.73239 18.4123 4.58984 17.9L2.85984 11.9C2.71157 11.3928 2.66528 10.8612 2.72364 10.336C2.782 9.81076 2.94385 9.30231 3.19984 8.84C3.45487 8.3708 3.80128 7.95741 4.21862 7.62422C4.63597 7.29103 5.11581 7.04478 5.62985 6.9L7.79985 6.27L6.35985 12.54C6.03082 13.9814 6.28726 15.4944 7.07285 16.7469C7.85845 17.9993 9.10898 18.8888 10.5498 19.22L12.7998 19.73L9.58984 20.66ZM21.1798 9.06001L19.6798 15.59C19.4726 16.4935 18.9632 17.2992 18.2358 17.8738C17.5085 18.4484 16.6068 18.7575 15.6798 18.75H15.3598C15.1646 18.747 14.9702 18.7236 14.7798 18.68L10.8498 17.78C9.79868 17.5393 8.88603 16.8912 8.3123 15.9781C7.73857 15.065 7.55066 13.9615 7.78984 12.91L9.28984 6.38C9.34479 6.1718 9.41498 5.96791 9.49984 5.77C9.52889 5.68828 9.56227 5.60817 9.59984 5.53C9.99086 4.6975 10.6568 4.02518 11.4856 3.62628C12.3144 3.22738 13.2553 3.12628 14.1498 3.34L18.0798 4.24C19.1277 4.47234 20.0414 5.10918 20.622 6.01191C21.2026 6.91464 21.4031 8.01016 21.1798 9.06001Z" fill="black"/>
</svg>
