<svg width="24" height="24" viewBox="0 0 24 24" fill="none" xmlns="http://www.w3.org/2000/svg">
<path d="M16.1102 22.75H7.89023C6.14322 22.7633 4.4622 22.0834 3.21564 20.8594C1.96909 19.6353 1.25871 17.9669 1.24023 16.22V8.55997C1.24547 7.69239 1.4217 6.83436 1.75886 6.03496C2.09601 5.23556 2.58747 4.51048 3.20511 3.90119C3.82276 3.2919 4.55447 2.81037 5.35839 2.48414C6.16231 2.15791 7.02267 1.99338 7.89023 1.99997H11.4302C11.5287 1.99997 11.6263 2.01937 11.7172 2.05706C11.8082 2.09475 11.8909 2.15 11.9606 2.21964C12.0302 2.28928 12.0855 2.37196 12.1231 2.46296C12.1608 2.55395 12.1802 2.65148 12.1802 2.74997C12.1802 2.84846 12.1608 2.94599 12.1231 3.03698C12.0855 3.12798 12.0302 3.21066 11.9606 3.2803C11.8909 3.34994 11.8082 3.40519 11.7172 3.44288C11.6263 3.48057 11.5287 3.49997 11.4302 3.49997H7.89023C6.55055 3.49187 5.26168 4.01226 4.30319 4.94828C3.34471 5.8843 2.7939 7.16047 2.77023 8.49997V16.16C2.7939 17.4995 3.34471 18.7756 4.30319 19.7117C5.26168 20.6477 6.55055 21.1681 7.89023 21.16H16.1102C17.4499 21.1681 18.7388 20.6477 19.6973 19.7117C20.6558 18.7756 21.2066 17.4995 21.2302 16.16V11.14C21.2517 10.9522 21.3416 10.7788 21.4827 10.653C21.6237 10.5271 21.8062 10.4576 21.9952 10.4576C22.1843 10.4576 22.3667 10.5271 22.5078 10.653C22.6489 10.7788 22.7387 10.9522 22.7602 11.14V16.22C22.7418 17.9669 22.0314 19.6353 20.7848 20.8594C19.5383 22.0834 17.8572 22.7633 16.1102 22.75ZM17.6802 2.74997C17.5347 2.74719 17.3907 2.77933 17.2602 2.84371C17.1297 2.90809 17.0166 3.00283 16.9302 3.11997L16.3402 3.87997C16.539 4.68816 17.0217 5.39798 17.7002 5.87997C18.328 6.35535 19.0928 6.61493 19.8802 6.61997H20.0002L20.5902 5.85997C20.6639 5.76424 20.7177 5.65481 20.7486 5.53807C20.7795 5.42132 20.7869 5.29959 20.7702 5.17997C20.7556 5.06032 20.716 4.94507 20.654 4.8417C20.592 4.73834 20.5089 4.64917 20.4102 4.57997L18.2402 2.93997C18.0799 2.81606 17.8828 2.74919 17.6802 2.74997ZM17.6802 1.24997C18.2134 1.24996 18.7324 1.42179 19.1602 1.73997L21.3502 3.35997C21.6078 3.54841 21.825 3.78651 21.989 4.06023C22.153 4.33396 22.2606 4.63776 22.3053 4.95372C22.3501 5.26968 22.3311 5.5914 22.2495 5.8999C22.1679 6.20841 22.0253 6.49744 21.8302 6.74997L21.1702 7.60997C21.0732 7.7382 20.9516 7.84581 20.8125 7.92651C20.6735 8.00721 20.5197 8.05938 20.3602 8.07997H19.8802C18.7637 8.08517 17.6745 7.73493 16.7702 7.07997C15.7365 6.33584 15.0221 5.22855 14.7702 3.97997C14.7465 3.82152 14.7555 3.65987 14.7968 3.50506C14.8381 3.35024 14.9107 3.20556 15.0102 3.07997L15.6702 2.21997C15.9031 1.90948 16.2051 1.65747 16.5522 1.4839C16.8993 1.31033 17.2821 1.21997 17.6702 1.21997L17.6802 1.24997ZM13.1202 8.04997L10.8802 11C10.7821 11.1224 10.726 11.2732 10.7202 11.43V14.59C10.7154 14.6288 10.7202 14.6683 10.7341 14.7049C10.7481 14.7415 10.7708 14.7742 10.8002 14.8C10.8614 14.8614 10.9436 14.8972 11.0302 14.9H11.1202L14.1802 14C14.3312 13.9502 14.4636 13.8561 14.5602 13.73L16.8002 10.83C16.0886 10.5434 15.4164 10.167 14.8002 9.70997C14.1812 9.24896 13.6263 8.70753 13.1502 8.09997M13.2002 5.93997C13.3137 5.9373 13.4257 5.9669 13.523 6.02531C13.6204 6.08372 13.6992 6.16856 13.7502 6.26997C14.2521 7.14891 14.9335 7.91217 15.7502 8.50997C16.5629 9.11694 17.4978 9.54004 18.4902 9.74997C18.5977 9.76655 18.6988 9.81156 18.783 9.88034C18.8673 9.94912 18.9316 10.0392 18.9693 10.1412C19.007 10.2432 19.0168 10.3534 18.9977 10.4604C18.9785 10.5675 18.931 10.6674 18.8602 10.75L15.8602 14.67C15.5666 15.0536 15.1558 15.331 14.6902 15.46L11.6002 16.36C11.4315 16.4109 11.2565 16.4378 11.0802 16.44C10.8383 16.444 10.5981 16.3995 10.3737 16.3091C10.1493 16.2187 9.94529 16.0842 9.77375 15.9136C9.60221 15.743 9.46662 15.5397 9.37498 15.3158C9.28335 15.0919 9.23753 14.8519 9.24023 14.61V11.45C9.24812 10.9704 9.41324 10.5066 9.71023 10.13L12.7102 6.20997C12.7707 6.13556 12.8469 6.07546 12.9334 6.03397C13.0198 5.99247 13.1144 5.97062 13.2102 5.96997L13.2002 5.93997Z" fill="black"/>
</svg>
