<svg width="24" height="24" viewBox="0 0 24 24" fill="none" xmlns="http://www.w3.org/2000/svg">
<path d="M18.2099 10.27C18.1647 10.4295 18.0693 10.5701 17.9378 10.671C17.8062 10.7719 17.6457 10.8276 17.4799 10.83H17.2899L12.5899 9.62998C12.407 9.56433 12.2557 9.43196 12.1664 9.25943C12.077 9.08689 12.0562 8.88695 12.108 8.69969C12.1599 8.51243 12.2807 8.35171 12.4461 8.24976C12.6115 8.14781 12.8093 8.11216 12.9999 8.14998L17.6999 9.35998C17.8864 9.41582 18.0439 9.54198 18.1391 9.71179C18.2342 9.8816 18.2596 10.0818 18.2099 10.27Z" fill="black"/>
<path d="M15.2997 13.68C15.2531 13.8386 15.1573 13.9784 15.0261 14.0791C14.8949 14.1797 14.7351 14.2361 14.5697 14.24H14.3797L11.5997 13.51C11.505 13.4866 11.4159 13.4447 11.3374 13.3868C11.259 13.3288 11.1927 13.2559 11.1426 13.1723C11.0924 13.0886 11.0592 12.9959 11.045 12.8994C11.0308 12.8029 11.0358 12.7045 11.0597 12.61C11.1092 12.4179 11.2327 12.2533 11.4033 12.1521C11.5738 12.0509 11.7775 12.0214 11.9697 12.07L14.7597 12.8C14.9453 12.8496 15.1048 12.9685 15.2053 13.1323C15.3057 13.296 15.3395 13.492 15.2997 13.68Z" fill="black"/>
<path d="M22.1898 5.46997C21.8286 4.81139 21.3403 4.231 20.7533 3.7624C20.1662 3.29379 19.4921 2.94628 18.7698 2.73997L15.3198 1.73997C14.184 1.40294 12.9709 1.43216 11.8526 1.82346C10.7343 2.21477 9.76767 2.9483 9.0898 3.91997C8.93143 3.94472 8.77453 3.9781 8.6198 4.01997L5.1798 5.01997C3.72793 5.4572 2.50854 6.45206 1.78878 7.78662C1.06902 9.12117 0.90757 10.6866 1.3398 12.14L3.1998 18.4C3.41411 19.1205 3.76835 19.7918 4.24226 20.3753C4.71618 20.9589 5.30048 21.4433 5.96175 21.8008C6.62301 22.1584 7.34828 22.3821 8.09607 22.4592C8.84386 22.5363 9.5995 22.4652 10.3198 22.25L13.7598 21.25C14.4859 21.0517 15.1656 20.7119 15.7598 20.25C16.9398 20.1794 18.0691 19.7456 18.9929 19.008C19.9167 18.2704 20.5898 17.2651 20.9198 16.13L22.7198 9.87997C22.9346 9.1473 22.9983 8.37865 22.9072 7.6206C22.8161 6.86256 22.572 6.1309 22.1898 5.46997ZM9.8898 20.81C8.82099 21.1309 7.66855 21.0155 6.68465 20.4889C5.70076 19.9623 4.96551 19.0673 4.6398 18L2.7798 11.74C2.6199 11.2094 2.5663 10.6526 2.62207 10.1013C2.67785 9.55002 2.8419 9.01517 3.10481 8.52742C3.36773 8.03967 3.72435 7.60862 4.15421 7.25899C4.58407 6.90936 5.07872 6.64803 5.6098 6.48997L8.2198 5.70997L6.4298 11.9C6.21721 12.6222 6.14956 13.3794 6.23073 14.1279C6.3119 14.8764 6.5403 15.6014 6.90277 16.2613C7.26524 16.9212 7.75463 17.5029 8.34278 17.9729C8.93093 18.4429 9.60622 18.792 10.3298 19L13.2198 19.84L9.8898 20.81ZM21.2298 9.40997L19.4198 15.66C19.2709 16.192 19.0174 16.6889 18.6739 17.1217C18.3305 17.5544 17.9041 17.9142 17.4198 18.18C16.4395 18.7199 15.2853 18.8493 14.2098 18.54L10.7598 17.54C10.2272 17.3859 9.73011 17.1283 9.29705 16.782C8.864 16.4357 8.50344 16.0075 8.23597 15.5218C7.96851 15.0361 7.79939 14.5024 7.73827 13.9513C7.67716 13.4002 7.72525 12.8425 7.8798 12.31L9.6798 6.05997C9.94117 5.19973 10.4698 4.44515 11.1891 3.90571C11.9084 3.36627 12.7808 3.07003 13.6798 3.05997C14.0792 3.06105 14.4764 3.11828 14.8598 3.22997L18.3098 4.22997C18.8424 4.38407 19.3395 4.64162 19.7725 4.98791C20.2056 5.3342 20.5662 5.76243 20.8336 6.24814C21.1011 6.73385 21.2702 7.26751 21.3313 7.81861C21.3924 8.36972 21.3443 8.92746 21.1898 9.45997L21.2298 9.40997Z" fill="black"/>
</svg>
