<svg width="24" height="24" viewBox="0 0 24 24" fill="none" xmlns="http://www.w3.org/2000/svg">
<path d="M16.4601 9.68994H7.46012C7.25855 9.68994 7.06524 9.60987 6.92272 9.46734C6.78019 9.32482 6.70012 9.13151 6.70012 8.92994C6.70012 8.72838 6.78019 8.53507 6.92272 8.39254C7.06524 8.25001 7.25855 8.16994 7.46012 8.16994H16.4601C16.6617 8.16994 16.855 8.25001 16.9975 8.39254C17.14 8.53507 17.2201 8.72838 17.2201 8.92994C17.2201 9.13151 17.14 9.32482 16.9975 9.46734C16.855 9.60987 16.6617 9.68994 16.4601 9.68994ZM11.0001 12.9199H7.52012C7.31855 12.9199 7.12524 13 6.98272 13.1425C6.84019 13.2851 6.76012 13.4784 6.76012 13.6799C6.76012 13.8815 6.84019 14.0748 6.98272 14.2173C7.12524 14.3599 7.31855 14.4399 7.52012 14.4399H11.0001C11.2017 14.4399 11.395 14.3599 11.5375 14.2173C11.68 14.0748 11.7601 13.8815 11.7601 13.6799C11.7601 13.4784 11.68 13.2851 11.5375 13.1425C11.395 13 11.2017 12.9199 11.0001 12.9199ZM21.7301 13.8099L13.8501 22.0799C13.784 22.1541 13.702 22.2125 13.6103 22.2506C13.5185 22.2887 13.4193 22.3055 13.3201 22.2999H8.32012C6.67659 22.2973 5.10113 21.6432 3.93898 20.4811C2.77682 19.3189 2.12276 17.7435 2.12012 16.0999V8.72994C2.12492 7.21522 2.68053 5.75397 3.68331 4.61871C4.68609 3.48345 6.06758 2.7517 7.57012 2.55994V2.43994C7.57012 2.24103 7.64914 2.05026 7.78979 1.90961C7.93044 1.76896 8.1212 1.68994 8.32012 1.68994C8.51903 1.68994 8.7098 1.76896 8.85045 1.90961C8.9911 2.05026 9.07012 2.24103 9.07012 2.43994V2.52994H14.8701V2.43994C14.8701 2.24103 14.9491 2.05026 15.0898 1.90961C15.2304 1.76896 15.4212 1.68994 15.6201 1.68994C15.819 1.68994 16.0098 1.76896 16.1504 1.90961C16.2911 2.05026 16.3701 2.24103 16.3701 2.43994V2.55994C17.8915 2.72308 19.2985 3.44388 20.3197 4.58327C21.3409 5.72266 21.9039 7.19989 21.9001 8.72994V13.2899C21.9037 13.4827 21.832 13.6693 21.7001 13.8099H21.7301ZM12.5001 17.6999C12.4597 16.3754 12.9468 15.0889 13.8543 14.1233C14.7618 13.1576 16.0156 12.5917 17.3401 12.5499H20.4001V8.72994C20.4088 7.60317 20.0079 6.51159 19.2722 5.65814C18.5365 4.80468 17.5159 4.24742 16.4001 4.08994V4.26994C16.4001 4.46885 16.3211 4.65962 16.1804 4.80027C16.0398 4.94092 15.849 5.01994 15.6501 5.01994C15.4512 5.01994 15.2604 4.94092 15.1198 4.80027C14.9791 4.65962 14.9001 4.46885 14.9001 4.26994V3.99994H9.07012V4.23994C9.07012 4.43885 8.9911 4.62962 8.85045 4.77027C8.7098 4.91092 8.51903 4.98994 8.32012 4.98994C8.1212 4.98994 7.93044 4.91092 7.78979 4.77027C7.64914 4.62962 7.57012 4.43885 7.57012 4.23994V4.08994C6.46046 4.2612 5.4482 4.82242 4.71508 5.67284C3.98196 6.52325 3.57601 7.60716 3.57012 8.72994V16.1299C3.57276 17.3756 4.06878 18.5696 4.94963 19.4504C5.83048 20.3313 7.02441 20.8273 8.27012 20.8299H12.5301L12.5001 17.6999ZM17.4001 13.9999C16.478 14.0235 15.6026 14.4113 14.9655 15.0784C14.3284 15.7455 13.9813 16.6377 14.0001 17.5599V19.6999L19.4001 13.9999H17.4001Z" fill="black"/>
</svg>
