<svg width="24" height="24" viewBox="0 0 24 24" fill="none" xmlns="http://www.w3.org/2000/svg">
<path d="M17.3598 10.1201C17.3611 10.222 17.3422 10.3232 17.3041 10.4178C17.266 10.5124 17.2095 10.5984 17.1379 10.671C17.0662 10.7436 16.9809 10.8012 16.8868 10.8405C16.7927 10.8798 16.6918 10.9001 16.5898 10.9001H7.44982C7.24296 10.9001 7.04456 10.8179 6.89828 10.6716C6.752 10.5253 6.66982 10.3269 6.66982 10.1201C6.66982 9.91318 6.752 9.71479 6.89828 9.56851C7.04456 9.42223 7.24296 9.34005 7.44982 9.34005H16.5898C16.6918 9.34005 16.7927 9.36029 16.8868 9.39961C16.9809 9.43893 17.0662 9.49654 17.1379 9.56911C17.2095 9.64167 17.266 9.72774 17.3041 9.82232C17.3422 9.91689 17.3611 10.0181 17.3598 10.1201ZM13.3598 14.2101H7.49982C7.29296 14.2101 7.09456 14.2922 6.94828 14.4385C6.802 14.5848 6.71982 14.7832 6.71982 14.9901C6.71982 15.1969 6.802 15.3953 6.94828 15.5416C7.09456 15.6879 7.29296 15.7701 7.49982 15.7701H13.3798C13.5867 15.7701 13.7851 15.6879 13.9314 15.5416C14.0776 15.3953 14.1598 15.1969 14.1598 14.9901C14.1598 14.7832 14.0776 14.5848 13.9314 14.4385C13.7851 14.2922 13.5867 14.2101 13.3798 14.2101H13.3598ZM21.9098 8.72005V16.1201C21.9072 17.7636 21.2531 19.339 20.091 20.5012C18.9288 21.6633 17.3534 22.3174 15.7098 22.3201H8.26982C6.6263 22.3174 5.05084 21.6633 3.88868 20.5012C2.72653 19.339 2.07247 17.7636 2.06982 16.1201V8.72005C2.07268 7.19188 2.638 5.71824 3.65795 4.58025C4.6779 3.44226 6.08108 2.71958 7.59982 2.55005V2.43005C7.59982 2.23114 7.67884 2.04038 7.81949 1.89972C7.96015 1.75907 8.15091 1.68005 8.34982 1.68005C8.54874 1.68005 8.7395 1.75907 8.88015 1.89972C9.02081 2.04038 9.09982 2.23114 9.09982 2.43005V2.51005H14.8998V2.43005C14.8998 2.23114 14.9788 2.04038 15.1195 1.89972C15.2601 1.75907 15.4509 1.68005 15.6498 1.68005C15.8487 1.68005 16.0395 1.75907 16.1802 1.89972C16.3208 2.04038 16.3998 2.23114 16.3998 2.43005V2.55005C17.9212 2.71319 19.3282 3.43399 20.3494 4.57338C21.3706 5.71277 21.9336 7.19 21.9298 8.72005H21.9098ZM20.4098 8.72005C20.4185 7.59328 20.0177 6.5017 19.2819 5.64825C18.5462 4.7948 17.5256 4.23753 16.4098 4.08005V4.26005C16.4098 4.45897 16.3308 4.64973 16.1902 4.79038C16.0495 4.93104 15.8587 5.01005 15.6598 5.01005C15.4609 5.01005 15.2701 4.93104 15.1295 4.79038C14.9888 4.64973 14.9098 4.45897 14.9098 4.26005V4.00005H9.09982V4.25005C9.09982 4.44897 9.02081 4.63973 8.88015 4.78038C8.7395 4.92104 8.54874 5.00005 8.34982 5.00005C8.15091 5.00005 7.96015 4.92104 7.81949 4.78038C7.67884 4.63973 7.59982 4.44897 7.59982 4.25005V4.08005C6.48931 4.24938 5.47588 4.81005 4.7424 5.66089C4.00891 6.51173 3.60368 7.59671 3.59982 8.72005V16.1201C3.60247 17.3658 4.09849 18.5597 4.97934 19.4405C5.86019 20.3214 7.05412 20.8174 8.29982 20.8201H15.7598C17.0055 20.8174 18.1995 20.3214 19.0803 19.4405C19.9612 18.5597 20.4572 17.3658 20.4598 16.1201L20.4098 8.72005Z" fill="black"/>
</svg>
