<svg width="24" height="24" viewBox="0 0 24 24" fill="none" xmlns="http://www.w3.org/2000/svg">
<path d="M19 3.5C19.2967 3.5 19.5867 3.58797 19.8334 3.7528C20.08 3.91762 20.2723 4.15189 20.3858 4.42597C20.4994 4.70006 20.5291 5.00166 20.4712 5.29264C20.4133 5.58361 20.2704 5.85088 20.0607 6.06066C19.8509 6.27044 19.5836 6.4133 19.2926 6.47118C19.0017 6.52906 18.7001 6.49935 18.426 6.38582C18.1519 6.27229 17.9176 6.08003 17.7528 5.83336C17.588 5.58668 17.5 5.29667 17.5 5C17.5 4.60218 17.658 4.22064 17.9393 3.93934C18.2206 3.65804 18.6022 3.5 19 3.5ZM19 2C18.4067 2 17.8266 2.17595 17.3333 2.50559C16.8399 2.83524 16.4554 3.30377 16.2284 3.85195C16.0013 4.40013 15.9419 5.00333 16.0576 5.58527C16.1734 6.16721 16.4591 6.70176 16.8787 7.12132C17.2982 7.54088 17.8328 7.8266 18.4147 7.94236C18.9967 8.05811 19.5999 7.9987 20.1481 7.77164C20.6962 7.54458 21.1648 7.16006 21.4944 6.66671C21.8241 6.17336 22 5.59334 22 5C22 4.20435 21.6839 3.44129 21.1213 2.87868C20.5587 2.31607 19.7957 2 19 2Z" fill="black"/>
<path d="M16 22.75H7C5.47905 22.7369 4.02408 22.127 2.94857 21.0514C1.87305 19.9759 1.26306 18.521 1.25 17V8C1.26306 6.47905 1.87305 5.02408 2.94857 3.94857C4.02408 2.87305 5.47905 2.26306 7 2.25H13.62C13.8189 2.25 14.0097 2.32902 14.1503 2.46967C14.291 2.61032 14.37 2.80109 14.37 3C14.37 3.19891 14.291 3.38968 14.1503 3.53033C14.0097 3.67098 13.8189 3.75 13.62 3.75H7C5.87686 3.76299 4.80339 4.21492 4.00915 5.00915C3.21492 5.80339 2.76299 6.87686 2.75 8V17C2.76299 18.1231 3.21492 19.1966 4.00915 19.9908C4.80339 20.7851 5.87686 21.237 7 21.25H16C17.1231 21.237 18.1966 20.7851 18.9908 19.9908C19.7851 19.1966 20.237 18.1231 20.25 17V10.27C20.25 10.0711 20.329 9.88032 20.4697 9.73967C20.6103 9.59902 20.8011 9.52 21 9.52C21.1989 9.52 21.3897 9.59902 21.5303 9.73967C21.671 9.88032 21.75 10.0711 21.75 10.27V17C21.7369 18.521 21.127 19.9759 20.0514 21.0514C18.9759 22.127 17.521 22.7369 16 22.75Z" fill="black"/>
</svg>
