<svg width="24" height="24" viewBox="0 0 24 24" fill="none" xmlns="http://www.w3.org/2000/svg">
<path d="M19 3.5C19.2967 3.5 19.5867 3.58797 19.8334 3.7528C20.08 3.91762 20.2723 4.15189 20.3858 4.42597C20.4994 4.70006 20.5291 5.00166 20.4712 5.29264C20.4133 5.58361 20.2704 5.85088 20.0607 6.06066C19.8509 6.27044 19.5836 6.4133 19.2926 6.47118C19.0017 6.52906 18.7001 6.49935 18.426 6.38582C18.1519 6.27229 17.9176 6.08003 17.7528 5.83336C17.588 5.58668 17.5 5.29667 17.5 5C17.5 4.60218 17.658 4.22064 17.9393 3.93934C18.2206 3.65804 18.6022 3.5 19 3.5ZM19 2C18.4067 2 17.8266 2.17595 17.3333 2.50559C16.8399 2.83524 16.4554 3.30377 16.2284 3.85195C16.0013 4.40013 15.9419 5.00333 16.0576 5.58527C16.1734 6.16721 16.4591 6.70176 16.8787 7.12132C17.2982 7.54088 17.8328 7.8266 18.4147 7.94236C18.9967 8.05811 19.5999 7.9987 20.1481 7.77164C20.6962 7.54458 21.1648 7.16006 21.4944 6.66671C21.8241 6.17336 22 5.59334 22 5C22 4.20435 21.6839 3.44129 21.1213 2.87868C20.5587 2.31607 19.7957 2 19 2Z" fill="black"/>
<path d="M12 22.75C9.14892 22.75 6.41462 21.6174 4.3986 19.6014C2.38259 17.5854 1.25 14.8511 1.25 12C1.25 9.14891 2.38259 6.41461 4.3986 4.39859C6.41462 2.38258 9.14892 1.24999 12 1.24999C12.6714 1.24603 13.3414 1.30968 14 1.43999C14.097 1.45681 14.1896 1.4928 14.2725 1.54586C14.3554 1.59891 14.4268 1.66797 14.4827 1.74898C14.5386 1.83 14.5777 1.92134 14.5979 2.01767C14.618 2.114 14.6187 2.21338 14.6 2.30999C14.5612 2.50537 14.4473 2.67772 14.2827 2.78993C14.1181 2.90214 13.916 2.94526 13.72 2.90999C13.1533 2.80031 12.5772 2.74672 12 2.74999C10.1705 2.74999 8.38213 3.29249 6.86098 4.3089C5.33982 5.3253 4.15423 6.76995 3.45411 8.46017C2.754 10.1504 2.57082 12.0103 2.92774 13.8046C3.28465 15.5989 4.16563 17.2471 5.45926 18.5407C6.7529 19.8344 8.40109 20.7153 10.1954 21.0723C11.9897 21.4292 13.8496 21.246 15.5398 20.5459C17.23 19.8458 18.6747 18.6602 19.6911 17.139C20.7075 15.6179 21.25 13.8295 21.25 12C21.2485 11.467 21.2017 10.9351 21.11 10.41C21.0826 10.3098 21.0764 10.205 21.0916 10.1023C21.1069 9.99957 21.1433 9.90112 21.1986 9.8132C21.2538 9.72528 21.3268 9.6498 21.4128 9.59153C21.4987 9.53327 21.5959 9.4935 21.698 9.47474C21.8002 9.45598 21.9051 9.45863 22.0062 9.48254C22.1072 9.50645 22.2022 9.55109 22.2851 9.61363C22.3681 9.67617 22.4371 9.75525 22.4878 9.84585C22.5386 9.93646 22.57 10.0366 22.58 10.14C22.6915 10.7537 22.7484 11.3762 22.75 12C22.7474 14.8503 21.6139 17.583 19.5985 19.5985C17.583 21.6139 14.8503 22.7473 12 22.75Z" fill="black"/>
</svg>
