<svg width="24" height="24" viewBox="0 0 24 24" fill="none" xmlns="http://www.w3.org/2000/svg">
<path d="M12 11.33C11.8011 11.33 11.6103 11.2509 11.4697 11.1103C11.329 10.9696 11.25 10.7789 11.25 10.58V7.44995C11.25 7.25104 11.329 7.06027 11.4697 6.91962C11.6103 6.77897 11.8011 6.69995 12 6.69995C12.1989 6.69995 12.3897 6.77897 12.5303 6.91962C12.671 7.06027 12.75 7.25104 12.75 7.44995V10.58C12.75 10.7789 12.671 10.9696 12.5303 11.1103C12.3897 11.2509 12.1989 11.33 12 11.33Z" fill="black"/>
<path d="M17.9999 18.73H5.99988C5.23952 18.7273 4.51106 18.4241 3.9734 17.8865C3.43574 17.3488 3.13252 16.6203 3.12988 15.86C3.13189 15.2452 3.32787 14.6468 3.68988 14.15L4.35988 13.24C5.30495 11.9692 5.80728 10.4236 5.78988 8.83998C5.76711 7.593 6.12155 6.36823 6.80676 5.32614C7.49197 4.28406 8.47599 3.47325 9.62988 2.99998C10.6122 2.58967 11.6811 2.4297 12.7406 2.53442C13.8 2.63914 14.8169 3.00528 15.6999 3.59998C16.554 4.17882 17.2531 4.95829 17.7361 5.87008C18.219 6.78188 18.471 7.79819 18.4699 8.82998V8.99998C18.4453 10.4783 18.8708 11.9291 19.6899 13.16L20.3599 14.16C20.6753 14.63 20.8425 15.1839 20.8399 15.75C20.8519 16.1328 20.7876 16.5142 20.6509 16.872C20.5141 17.2299 20.3076 17.5569 20.0434 17.8342C19.7791 18.1115 19.4624 18.3335 19.1116 18.4872C18.7608 18.641 18.3829 18.7235 17.9999 18.73ZM12.1499 3.99998C11.4654 4.00132 10.7872 4.13018 10.1499 4.37998C9.29442 4.74357 8.56757 5.35521 8.06312 6.13594C7.55867 6.91667 7.29979 7.83067 7.31988 8.75998C7.34886 10.6899 6.7447 12.5761 5.59988 14.13L4.92988 15.05C4.75263 15.2826 4.65766 15.5675 4.65988 15.86C4.6598 16.2182 4.80001 16.5622 5.05048 16.8183C5.30095 17.0743 5.64176 17.2221 5.99988 17.23H17.9999C18.3632 17.23 18.7117 17.0856 18.9686 16.8287C19.2255 16.5718 19.3699 16.2233 19.3699 15.86C19.3776 15.5697 19.2975 15.2839 19.1399 15.04L18.4699 14.04C17.4756 12.55 16.9625 10.7908 16.9999 8.99998V8.82998C17.0026 8.19326 16.8788 7.56234 16.6357 6.97383C16.3927 6.38531 16.0352 5.85091 15.5841 5.40161C15.1329 4.95231 14.597 4.59705 14.0075 4.35645C13.418 4.11584 12.7866 3.99468 12.1499 3.99998Z" fill="black"/>
<path d="M11.9999 21.48C11.3522 21.4775 10.7269 21.2432 10.2371 20.8195C9.7473 20.3957 9.42547 19.8106 9.32988 19.17C9.32494 19.1335 9.32494 19.0965 9.32988 19.06V18.06C9.32988 17.8611 9.4089 17.6703 9.54955 17.5297C9.6902 17.389 9.88097 17.31 10.0799 17.31C10.2788 17.31 10.4696 17.389 10.6102 17.5297C10.7509 17.6703 10.8299 17.8611 10.8299 18.06V19C10.8809 19.2757 11.0268 19.5249 11.2424 19.7043C11.4579 19.8836 11.7295 19.9818 12.0099 19.9818C12.2903 19.9818 12.5618 19.8836 12.7774 19.7043C12.993 19.5249 13.1389 19.2757 13.1899 19V18.09C13.1899 17.8911 13.2689 17.7003 13.4095 17.5597C13.5502 17.419 13.741 17.34 13.9399 17.34C14.1388 17.34 14.3296 17.419 14.4702 17.5597C14.6109 17.7003 14.6899 17.8911 14.6899 18.09V19.09C14.6948 19.1265 14.6948 19.1635 14.6899 19.2C14.5932 19.8411 14.2673 20.4255 13.7727 20.8447C13.2781 21.264 12.6482 21.4897 11.9999 21.48Z" fill="black"/>
</svg>
