<svg width="24" height="24" viewBox="0 0 24 24" fill="none" xmlns="http://www.w3.org/2000/svg">
<path d="M20.6598 14.2C19.8341 12.9578 19.4115 11.4911 19.4498 10V9.85001C19.4475 8.27753 18.8608 6.76205 17.8038 5.59784C16.7467 4.43363 15.2948 3.70378 13.7298 3.55V2.38001C13.7298 2.18109 13.6508 1.99033 13.5102 1.84967C13.3695 1.70902 13.1788 1.63 12.9798 1.63C12.7809 1.63 12.5902 1.70902 12.4495 1.84967C12.3089 1.99033 12.2298 2.18109 12.2298 2.38001V3.59C11.6709 3.65488 11.1229 3.79272 10.5998 4C9.45261 4.47839 8.4763 5.2916 7.79839 6.33344C7.12048 7.37528 6.77248 8.59733 6.79985 9.84C6.81212 11.4228 6.31031 12.9668 5.36984 14.24L4.69984 15.16C4.38227 15.5857 4.18953 16.0915 4.14322 16.6206C4.09691 17.1497 4.19885 17.6813 4.43763 18.1558C4.6764 18.6302 5.04258 19.0288 5.49513 19.3068C5.94767 19.5849 6.46871 19.7314 6.99985 19.73H10.2798V20.06C10.3684 20.7065 10.6882 21.2991 11.18 21.7281C11.6718 22.1571 12.3023 22.3934 12.9548 22.3934C13.6074 22.3934 14.2379 22.1571 14.7297 21.7281C15.2215 21.2991 15.5412 20.7065 15.6298 20.06V19.73H18.9998C19.5217 19.7227 20.0319 19.5753 20.4772 19.3031C20.9224 19.0309 21.2863 18.644 21.5306 18.1829C21.775 17.7218 21.8909 17.2034 21.8661 16.6822C21.8413 16.1609 21.6768 15.6559 21.3898 15.22L20.6598 14.2ZM14.1598 19.89C14.1035 20.1627 13.9549 20.4076 13.7391 20.5834C13.5232 20.7593 13.2533 20.8553 12.9748 20.8553C12.6964 20.8553 12.4265 20.7593 12.2106 20.5834C11.9948 20.4076 11.8462 20.1627 11.7898 19.89V19.73H14.1598V19.89ZM18.9998 18.23H6.99985C6.7471 18.2291 6.49954 18.1583 6.28454 18.0254C6.06954 17.8926 5.89548 17.7028 5.78162 17.4772C5.66777 17.2515 5.61855 16.9988 5.63941 16.7469C5.66028 16.495 5.75041 16.2538 5.89985 16.05L6.57984 15.13C7.71995 13.5775 8.3237 11.696 8.29985 9.77001C8.28677 8.84209 8.55103 7.9314 9.05879 7.15462C9.56654 6.37785 10.2947 5.77036 11.1498 5.41C11.786 5.1565 12.465 5.0275 13.1498 5.03C13.7849 5.02472 14.4146 5.14524 15.0028 5.3846C15.591 5.62396 16.126 5.97742 16.5769 6.4246C17.0278 6.87178 17.3857 7.40381 17.6299 7.99001C17.8741 8.57621 17.9999 9.20497 17.9998 9.84V10C17.9733 11.7755 18.4821 13.5178 19.4598 15L20.1398 16C20.2972 16.2403 20.3775 16.5229 20.3698 16.81C20.3766 16.9941 20.3461 17.1776 20.2803 17.3496C20.2144 17.5217 20.1146 17.6787 19.9867 17.8112C19.8588 17.9438 19.7055 18.0492 19.5359 18.1212C19.3664 18.1931 19.184 18.2301 18.9998 18.23Z" fill="black"/>
</svg>
