<svg width="24" height="24" viewBox="0 0 24 24" fill="none" xmlns="http://www.w3.org/2000/svg">
<path d="M19 3.5C19.2967 3.5 19.5867 3.58797 19.8334 3.7528C20.08 3.91762 20.2723 4.15189 20.3858 4.42597C20.4994 4.70006 20.5291 5.00166 20.4712 5.29264C20.4133 5.58361 20.2704 5.85088 20.0607 6.06066C19.8509 6.27044 19.5836 6.4133 19.2926 6.47118C19.0017 6.52906 18.7001 6.49935 18.426 6.38582C18.1519 6.27229 17.9176 6.08003 17.7528 5.83336C17.588 5.58668 17.5 5.29667 17.5 5C17.5 4.60218 17.658 4.22064 17.9393 3.93934C18.2206 3.65804 18.6022 3.5 19 3.5ZM19 2C18.4067 2 17.8266 2.17595 17.3333 2.50559C16.8399 2.83524 16.4554 3.30377 16.2284 3.85195C16.0013 4.40013 15.9419 5.00333 16.0576 5.58527C16.1734 6.16721 16.4591 6.70176 16.8787 7.12132C17.2982 7.54088 17.8328 7.8266 18.4147 7.94236C18.9967 8.05811 19.5999 7.9987 20.1481 7.77164C20.6962 7.54458 21.1648 7.16006 21.4944 6.66671C21.8241 6.17336 22 5.59334 22 5C22 4.20435 21.6839 3.44129 21.1213 2.87868C20.5587 2.31607 19.7957 2 19 2Z" fill="black"/>
<path d="M16 22.75H7C5.47905 22.7369 4.02408 22.127 2.94857 21.0514C1.87305 19.9759 1.26306 18.521 1.25 17V8C1.26306 6.47905 1.87305 5.02408 2.94857 3.94857C4.02408 2.87305 5.47905 2.26306 7 2.25H13C13.1989 2.25 13.3897 2.32902 13.5303 2.46967C13.671 2.61032 13.75 2.80109 13.75 3C13.75 3.19891 13.671 3.38968 13.5303 3.53033C13.3897 3.67098 13.1989 3.75 13 3.75H7C5.87686 3.76299 4.80339 4.21492 4.00915 5.00915C3.21492 5.80339 2.76299 6.87686 2.75 8V17C2.76299 18.1231 3.21492 19.1966 4.00915 19.9908C4.80339 20.7851 5.87686 21.237 7 21.25H16C17.1231 21.237 18.1966 20.7851 18.9908 19.9908C19.7851 19.1966 20.237 18.1231 20.25 17V11.34C20.25 11.1411 20.329 10.9503 20.4697 10.8097C20.6103 10.669 20.8011 10.59 21 10.59C21.1989 10.59 21.3897 10.669 21.5303 10.8097C21.671 10.9503 21.75 11.1411 21.75 11.34V17C21.7369 18.521 21.127 19.9759 20.0514 21.0514C18.9759 22.127 17.521 22.7369 16 22.75Z" fill="black"/>
<path d="M8.67981 18.94C8.21542 18.9439 7.76005 18.8118 7.36981 18.56C6.63878 18.1722 6.02336 17.5979 5.58604 16.8954C5.14872 16.1929 4.90507 15.3872 4.87981 14.56C4.86961 13.9863 5.04803 13.4251 5.38766 12.9627C5.72729 12.5002 6.20936 12.162 6.75981 12C7.38352 11.8219 8.05153 11.8862 8.62981 12.18C9.02892 11.9733 9.47527 11.8749 9.9243 11.8946C10.3733 11.9143 10.8093 12.0514 11.1888 12.2923C11.5683 12.5331 11.878 12.8693 12.087 13.2672C12.296 13.6651 12.3969 14.1109 12.3798 14.56C12.3645 15.3808 12.1327 16.183 11.7077 16.8855C11.2828 17.5879 10.6798 18.1655 9.95981 18.56C9.5759 18.8013 9.13319 18.9328 8.67981 18.94ZM7.46981 13.39C7.31739 13.3878 7.16624 13.4179 7.02628 13.4783C6.88632 13.5387 6.76073 13.628 6.65778 13.7404C6.55482 13.8528 6.47682 13.9858 6.42891 14.1305C6.381 14.2752 6.36427 14.4284 6.37981 14.58C6.42014 15.1475 6.60604 15.695 6.91958 16.1697C7.23312 16.6443 7.66371 17.0302 8.16981 17.29C8.32183 17.3778 8.49427 17.424 8.66981 17.424C8.84535 17.424 9.01779 17.3778 9.16981 17.29C9.67083 17.0184 10.0911 16.6191 10.3879 16.1326C10.6847 15.6462 10.8475 15.0898 10.8598 14.52C10.8746 14.2913 10.8155 14.0639 10.6913 13.8712C10.5671 13.6786 10.3843 13.531 10.1698 13.45C9.99045 13.3789 9.79509 13.3581 9.60477 13.3898C9.41445 13.4215 9.2364 13.5046 9.08981 13.63L8.60981 14.03L8.12981 13.63C7.94269 13.4787 7.7104 13.3943 7.46981 13.39Z" fill="black"/>
</svg>
