<svg width="24" height="24" viewBox="0 0 24 24" fill="none" xmlns="http://www.w3.org/2000/svg">
<path d="M19.7097 14.2C18.8851 12.9568 18.4595 11.4915 18.4897 10V9.85001C18.4873 8.27753 17.9006 6.76205 16.8436 5.59784C15.7866 4.43363 14.3346 3.70378 12.7697 3.55V2.38001C12.7697 2.28151 12.7503 2.18399 12.7126 2.09299C12.6749 2.002 12.6197 1.91932 12.55 1.84967C12.4804 1.78003 12.3977 1.72479 12.3067 1.6871C12.2157 1.6494 12.1182 1.63 12.0197 1.63C11.9212 1.63 11.8237 1.6494 11.7327 1.6871C11.6417 1.72479 11.559 1.78003 11.4894 1.84967C11.4197 1.91932 11.3645 2.002 11.3268 2.09299C11.2891 2.18399 11.2697 2.28151 11.2697 2.38001V3.59C10.714 3.65494 10.1693 3.79279 9.64969 4C8.49976 4.47568 7.52055 5.28795 6.8406 6.33018C6.16065 7.37242 5.81175 8.5959 5.83969 9.84C5.85708 11.4236 5.35476 12.9692 4.40969 14.24L3.73969 15.16C3.37906 15.6538 3.18312 16.2486 3.17969 16.86C3.17969 17.6212 3.48206 18.3512 4.02029 18.8894C4.55852 19.4276 5.28852 19.73 6.04969 19.73H9.33969V20.06C9.42829 20.7065 9.74805 21.2991 10.2398 21.7281C10.7316 22.1571 11.3621 22.3934 12.0147 22.3934C12.6673 22.3934 13.2978 22.1571 13.7895 21.7281C14.2813 21.2991 14.6011 20.7065 14.6897 20.06V19.73H17.9997C18.521 19.7213 19.0305 19.5731 19.4752 19.3009C19.9199 19.0287 20.2836 18.6424 20.5285 18.1822C20.7735 17.7219 20.8907 17.2044 20.8681 16.6835C20.8454 16.1626 20.6837 15.6573 20.3997 15.22L19.7097 14.2ZM13.1997 19.89C13.1564 20.1708 13.0132 20.4266 12.7964 20.6103C12.5796 20.794 12.3038 20.8933 12.0197 20.89C11.7367 20.8892 11.463 20.7885 11.2471 20.6055C11.0312 20.4225 10.8869 20.1691 10.8397 19.89V19.73H13.1997V19.89ZM17.9997 18.23H6.04969C5.68634 18.23 5.33788 18.0857 5.08095 17.8287C4.82403 17.5718 4.67969 17.2234 4.67969 16.86C4.69165 16.5616 4.80446 16.276 4.99969 16.05L5.66969 15.13C6.79663 13.5736 7.38316 11.6911 7.33969 9.77001C7.32607 8.84066 7.59127 7.92857 8.10105 7.15141C8.61084 6.37425 9.34183 5.76769 10.1997 5.41C10.8355 5.15529 11.5147 5.02624 12.1997 5.03C13.4736 5.03265 14.6945 5.54059 15.5944 6.44235C16.4943 7.34411 16.9997 8.56604 16.9997 9.84V10C16.9723 11.777 17.4849 13.5205 18.4697 15L19.1397 16C19.2971 16.2403 19.3773 16.5229 19.3697 16.81C19.3764 16.9941 19.3459 17.1776 19.2801 17.3496C19.2143 17.5217 19.1144 17.6787 18.9865 17.8112C18.8586 17.9438 18.7053 18.0492 18.5358 18.1212C18.3662 18.1931 18.1839 18.2301 17.9997 18.23Z" fill="black"/>
<path d="M3.48982 10.62C3.58778 10.6065 3.68211 10.5738 3.76738 10.5237C3.85264 10.4736 3.92716 10.4071 3.98665 10.3281C4.04613 10.2491 4.0894 10.1592 4.11397 10.0634C4.13854 9.96758 4.14393 9.86788 4.12982 9.77C3.97886 8.86376 4.07259 7.93365 4.40133 7.07575C4.73008 6.21786 5.28191 5.46329 5.99982 4.89C6.14983 4.77631 6.25161 4.61037 6.28496 4.42512C6.3183 4.23988 6.28077 4.04886 6.17982 3.89C6.06761 3.73802 5.90152 3.63471 5.71559 3.60125C5.52967 3.56778 5.33798 3.60669 5.17982 3.71C4.23438 4.43658 3.501 5.40333 3.05604 6.50958C2.61108 7.61583 2.4708 8.82113 2.64982 10C2.67415 10.1785 2.76273 10.3419 2.89896 10.4597C3.03519 10.5776 3.20972 10.6417 3.38982 10.64L3.48982 10.62Z" fill="black"/>
<path d="M18.8598 3.66002C18.7805 3.5915 18.6878 3.54034 18.5876 3.50982C18.4874 3.47931 18.3819 3.47012 18.278 3.48286C18.174 3.49559 18.0739 3.52996 17.984 3.58375C17.8941 3.63754 17.8165 3.70956 17.7561 3.79518C17.6958 3.88079 17.654 3.97809 17.6336 4.08082C17.6131 4.18355 17.6144 4.28943 17.6374 4.39163C17.6603 4.49383 17.7044 4.59009 17.7668 4.67421C17.8293 4.75832 17.9086 4.82844 17.9998 4.88002C18.7152 5.45759 19.2651 6.21422 19.5936 7.07308C19.922 7.93194 20.0173 8.86242 19.8698 9.77002C19.8556 9.8679 19.861 9.9676 19.8856 10.0634C19.9102 10.1592 19.9534 10.2492 20.0129 10.3282C20.0724 10.4072 20.1469 10.4736 20.2322 10.5237C20.3175 10.5738 20.4118 10.6065 20.5098 10.62H20.6098C20.7899 10.6217 20.9644 10.5576 21.1006 10.4398C21.2368 10.3219 21.3254 10.1585 21.3498 9.98002C21.5389 8.80013 21.4076 7.59108 20.9696 6.4793C20.5315 5.36752 19.8029 4.39383 18.8598 3.66002Z" fill="black"/>
</svg>
