<svg width="24" height="24" viewBox="0 0 24 24" fill="none" xmlns="http://www.w3.org/2000/svg">
<path d="M13.5 4.25C13.5 4.54667 13.412 4.83668 13.2472 5.08336C13.0824 5.33003 12.8481 5.52229 12.574 5.63582C12.2999 5.74935 11.9983 5.77906 11.7074 5.72118C11.4164 5.6633 11.1491 5.52044 10.9393 5.31066C10.7296 5.10088 10.5867 4.83361 10.5288 4.54264C10.4709 4.25166 10.5007 3.95006 10.6142 3.67597C10.7277 3.40189 10.92 3.16762 11.1666 3.0028C11.4133 2.83797 11.7033 2.75 12 2.75C12.3978 2.75 12.7794 2.90804 13.0607 3.18934C13.342 3.47064 13.5 3.85218 13.5 4.25ZM12 7.25C11.7033 7.25 11.4133 7.33797 11.1666 7.5028C10.92 7.66762 10.7277 7.90189 10.6142 8.17597C10.5007 8.45006 10.4709 8.75166 10.5288 9.04264C10.5867 9.33361 10.7296 9.60088 10.9393 9.81066C11.1491 10.0204 11.4164 10.1633 11.7074 10.2212C11.9983 10.2791 12.2999 10.2494 12.574 10.1358C12.8481 10.0223 13.0824 9.83003 13.2472 9.58335C13.412 9.33668 13.5 9.04667 13.5 8.75C13.4974 8.35391 13.3382 7.97494 13.0571 7.6958C12.7761 7.41665 12.3961 7.25999 12 7.26V7.25ZM7.75 5C7.45333 5 7.16332 5.08797 6.91665 5.2528C6.66997 5.41762 6.47771 5.65189 6.36418 5.92597C6.25065 6.20006 6.22094 6.50166 6.27882 6.79264C6.3367 7.08361 6.47956 7.35088 6.68934 7.56066C6.89912 7.77044 7.16639 7.9133 7.45737 7.97118C7.74834 8.02906 8.04994 7.99935 8.32403 7.88582C8.59811 7.77229 8.83238 7.58003 8.99721 7.33336C9.16203 7.08668 9.25 6.79667 9.25 6.5C9.25 6.10218 9.09197 5.72064 8.81066 5.43934C8.52936 5.15804 8.14783 5 7.75 5ZM16.25 5C15.9533 5 15.6633 5.08797 15.4166 5.2528C15.17 5.41762 14.9777 5.65189 14.8642 5.92597C14.7507 6.20006 14.7209 6.50166 14.7788 6.79264C14.8367 7.08361 14.9796 7.35088 15.1893 7.56066C15.3991 7.77044 15.6664 7.9133 15.9574 7.97118C16.2483 8.02906 16.5499 7.99935 16.824 7.88582C17.0981 7.77229 17.3324 7.58003 17.4972 7.33336C17.662 7.08668 17.75 6.79667 17.75 6.5C17.75 6.10218 17.592 5.72064 17.3107 5.43934C17.0294 5.15804 16.6478 5 16.25 5ZM16.25 9.25C15.9533 9.25 15.6633 9.33797 15.4166 9.5028C15.17 9.66762 14.9777 9.90189 14.8642 10.176C14.7507 10.4501 14.7209 10.7517 14.7788 11.0426C14.8367 11.3336 14.9796 11.6009 15.1893 11.8107C15.3991 12.0204 15.6664 12.1633 15.9574 12.2212C16.2483 12.2791 16.5499 12.2494 16.824 12.1358C17.0981 12.0223 17.3324 11.83 17.4972 11.5834C17.662 11.3367 17.75 11.0467 17.75 10.75C17.7474 10.3539 17.5882 9.97494 17.3071 9.6958C17.0261 9.41665 16.6461 9.25999 16.25 9.26V9.25ZM20.5 7.25C20.2033 7.25 19.9133 7.33797 19.6666 7.5028C19.42 7.66762 19.2277 7.90189 19.1142 8.17597C19.0007 8.45006 18.9709 8.75166 19.0288 9.04264C19.0867 9.33361 19.2296 9.60088 19.4393 9.81066C19.6491 10.0204 19.9164 10.1633 20.2074 10.2212C20.4983 10.2791 20.7999 10.2494 21.074 10.1358C21.3481 10.0223 21.5824 9.83003 21.7472 9.58335C21.912 9.33668 22 9.04667 22 8.75C22 8.35218 21.842 7.97064 21.5607 7.68934C21.2794 7.40804 20.8978 7.25 20.5 7.25ZM12 11.25C11.7033 11.25 11.4133 11.338 11.1666 11.5028C10.92 11.6676 10.7277 11.9019 10.6142 12.176C10.5007 12.4501 10.4709 12.7517 10.5288 13.0426C10.5867 13.3336 10.7296 13.6009 10.9393 13.8107C11.1491 14.0204 11.4164 14.1633 11.7074 14.2212C11.9983 14.2791 12.2999 14.2494 12.574 14.1358C12.8481 14.0223 13.0824 13.83 13.2472 13.5834C13.412 13.3367 13.5 13.0467 13.5 12.75C13.5 12.3522 13.342 11.9706 13.0607 11.6893C12.7794 11.408 12.3978 11.25 12 11.25ZM7.75 9.25C7.45333 9.25 7.16332 9.33797 6.91665 9.5028C6.66997 9.66762 6.47771 9.90189 6.36418 10.176C6.25065 10.4501 6.22094 10.7517 6.27882 11.0426C6.3367 11.3336 6.47956 11.6009 6.68934 11.8107C6.89912 12.0204 7.16639 12.1633 7.45737 12.2212C7.74834 12.2791 8.04994 12.2494 8.32403 12.1358C8.59811 12.0223 8.83238 11.83 8.99721 11.5834C9.16203 11.3367 9.25 11.0467 9.25 10.75C9.24736 10.3539 9.08816 9.97494 8.80714 9.6958C8.52612 9.41665 8.1461 9.25999 7.75 9.26V9.25ZM3.5 7.25C3.20333 7.25 2.91332 7.33797 2.66665 7.5028C2.41997 7.66762 2.22771 7.90189 2.11418 8.17597C2.00065 8.45006 1.97094 8.75166 2.02882 9.04264C2.0867 9.33361 2.22956 9.60088 2.43934 9.81066C2.64912 10.0204 2.91639 10.1633 3.20737 10.2212C3.49834 10.2791 3.79994 10.2494 4.07403 10.1358C4.34811 10.0223 4.58238 9.83003 4.7472 9.58335C4.91203 9.33668 5 9.04667 5 8.75C5 8.35218 4.84197 7.97064 4.56066 7.68934C4.27936 7.40804 3.89783 7.25 3.5 7.25ZM3.5 11.75C3.30222 11.75 3.10888 11.8086 2.94443 11.9185C2.77998 12.0284 2.65181 12.1846 2.57612 12.3673C2.50043 12.55 2.48063 12.7511 2.51922 12.9451C2.5578 13.1391 2.65304 13.3173 2.79289 13.4571C2.93275 13.597 3.11093 13.6922 3.30491 13.7308C3.49889 13.7694 3.69996 13.7496 3.88268 13.6739C4.06541 13.5982 4.22159 13.47 4.33147 13.3056C4.44135 13.1411 4.5 12.9478 4.5 12.75C4.5 12.4848 4.39464 12.2304 4.20711 12.0429C4.01957 11.8554 3.76522 11.75 3.5 11.75ZM7.75 13.75C7.55222 13.75 7.35888 13.8086 7.19443 13.9185C7.02998 14.0284 6.90181 14.1846 6.82612 14.3673C6.75043 14.55 6.73063 14.7511 6.76922 14.9451C6.8078 15.1391 6.90304 15.3173 7.04289 15.4571C7.18275 15.597 7.36093 15.6922 7.55491 15.7308C7.74889 15.7694 7.94996 15.7496 8.13268 15.6739C8.31541 15.5982 8.47159 15.47 8.58147 15.3056C8.69135 15.1411 8.75 14.9478 8.75 14.75C8.74737 14.4865 8.64085 14.2347 8.45359 14.0493C8.26634 13.864 8.01349 13.76 7.75 13.76V13.75ZM7.75 13.75C7.55222 13.75 7.35888 13.8086 7.19443 13.9185C7.02998 14.0284 6.90181 14.1846 6.82612 14.3673C6.75043 14.55 6.73063 14.7511 6.76922 14.9451C6.8078 15.1391 6.90304 15.3173 7.04289 15.4571C7.18275 15.597 7.36093 15.6922 7.55491 15.7308C7.74889 15.7694 7.94996 15.7496 8.13268 15.6739C8.31541 15.5982 8.47159 15.47 8.58147 15.3056C8.69135 15.1411 8.75 14.9478 8.75 14.75C8.74737 14.4865 8.64085 14.2347 8.45359 14.0493C8.26634 13.864 8.01349 13.76 7.75 13.76V13.75ZM12 15.75C11.8022 15.75 11.6089 15.8086 11.4444 15.9185C11.28 16.0284 11.1518 16.1846 11.0761 16.3673C11.0004 16.55 10.9806 16.7511 11.0192 16.9451C11.0578 17.1391 11.153 17.3173 11.2929 17.4571C11.4327 17.597 11.6109 17.6922 11.8049 17.7308C11.9989 17.7694 12.2 17.7496 12.3827 17.6739C12.5654 17.5982 12.7216 17.47 12.8315 17.3056C12.9414 17.1411 13 16.9478 13 16.75C13 16.4848 12.8946 16.2304 12.7071 16.0429C12.5196 15.8554 12.2652 15.75 12 15.75ZM12 15.75C11.8022 15.75 11.6089 15.8086 11.4444 15.9185C11.28 16.0284 11.1518 16.1846 11.0761 16.3673C11.0004 16.55 10.9806 16.7511 11.0192 16.9451C11.0578 17.1391 11.153 17.3173 11.2929 17.4571C11.4327 17.597 11.6109 17.6922 11.8049 17.7308C11.9989 17.7694 12.2 17.7496 12.3827 17.6739C12.5654 17.5982 12.7216 17.47 12.8315 17.3056C12.9414 17.1411 13 16.9478 13 16.75C13 16.4848 12.8946 16.2304 12.7071 16.0429C12.5196 15.8554 12.2652 15.75 12 15.75ZM16.25 13.75C16.0522 13.75 15.8589 13.8086 15.6944 13.9185C15.53 14.0284 15.4018 14.1846 15.3261 14.3673C15.2504 14.55 15.2306 14.7511 15.2692 14.9451C15.3078 15.1391 15.403 15.3173 15.5429 15.4571C15.6827 15.597 15.8609 15.6922 16.0549 15.7308C16.2489 15.7694 16.45 15.7496 16.6327 15.6739C16.8154 15.5982 16.9716 15.47 17.0815 15.3056C17.1914 15.1411 17.25 14.9478 17.25 14.75C17.2474 14.4865 17.1408 14.2347 16.9536 14.0493C16.7663 13.864 16.5135 13.76 16.25 13.76V13.75ZM16.25 13.75C16.0522 13.75 15.8589 13.8086 15.6944 13.9185C15.53 14.0284 15.4018 14.1846 15.3261 14.3673C15.2504 14.55 15.2306 14.7511 15.2692 14.9451C15.3078 15.1391 15.403 15.3173 15.5429 15.4571C15.6827 15.597 15.8609 15.6922 16.0549 15.7308C16.2489 15.7694 16.45 15.7496 16.6327 15.6739C16.8154 15.5982 16.9716 15.47 17.0815 15.3056C17.1914 15.1411 17.25 14.9478 17.25 14.75C17.2474 14.4865 17.1408 14.2347 16.9536 14.0493C16.7663 13.864 16.5135 13.76 16.25 13.76V13.75ZM20.5 11.75C20.3022 11.75 20.1089 11.8086 19.9444 11.9185C19.78 12.0284 19.6518 12.1846 19.5761 12.3673C19.5004 12.55 19.4806 12.7511 19.5192 12.9451C19.5578 13.1391 19.653 13.3173 19.7929 13.4571C19.9327 13.597 20.1109 13.6922 20.3049 13.7308C20.4989 13.7694 20.7 13.7496 20.8827 13.6739C21.0654 13.5982 21.2216 13.47 21.3315 13.3056C21.4414 13.1411 21.5 12.9478 21.5 12.75C21.5 12.4848 21.3946 12.2304 21.2071 12.0429C21.0196 11.8554 20.7652 11.75 20.5 11.75ZM20.5 11.75C20.3022 11.75 20.1089 11.8086 19.9444 11.9185C19.78 12.0284 19.6518 12.1846 19.5761 12.3673C19.5004 12.55 19.4806 12.7511 19.5192 12.9451C19.5578 13.1391 19.653 13.3173 19.7929 13.4571C19.9327 13.597 20.1109 13.6922 20.3049 13.7308C20.4989 13.7694 20.7 13.7496 20.8827 13.6739C21.0654 13.5982 21.2216 13.47 21.3315 13.3056C21.4414 13.1411 21.5 12.9478 21.5 12.75C21.5 12.4848 21.3946 12.2304 21.2071 12.0429C21.0196 11.8554 20.7652 11.75 20.5 11.75ZM3.5 11.75C3.30222 11.75 3.10888 11.8086 2.94443 11.9185C2.77998 12.0284 2.65181 12.1846 2.57612 12.3673C2.50043 12.55 2.48063 12.7511 2.51922 12.9451C2.5578 13.1391 2.65304 13.3173 2.79289 13.4571C2.93275 13.597 3.11093 13.6922 3.30491 13.7308C3.49889 13.7694 3.69996 13.7496 3.88268 13.6739C4.06541 13.5982 4.22159 13.47 4.33147 13.3056C4.44135 13.1411 4.5 12.9478 4.5 12.75C4.5 12.4848 4.39464 12.2304 4.20711 12.0429C4.01957 11.8554 3.76522 11.75 3.5 11.75ZM20.5 15C20.3517 15 20.2067 15.044 20.0833 15.1264C19.96 15.2088 19.8639 15.3259 19.8071 15.463C19.7503 15.6 19.7355 15.7508 19.7644 15.8963C19.7934 16.0418 19.8648 16.1754 19.9697 16.2803C20.0746 16.3852 20.2082 16.4566 20.3537 16.4856C20.4992 16.5145 20.65 16.4997 20.787 16.4429C20.9241 16.3861 21.0412 16.29 21.1236 16.1667C21.206 16.0433 21.25 15.8983 21.25 15.75C21.2474 15.5519 21.1676 15.3626 21.0275 15.2225C20.8874 15.0824 20.6981 15.0026 20.5 15ZM16.25 17.26C16.1012 17.26 15.9558 17.3043 15.8323 17.3871C15.7088 17.47 15.6126 17.5877 15.5562 17.7253C15.4997 17.863 15.4855 18.0143 15.5152 18.16C15.545 18.3058 15.6174 18.4394 15.7233 18.5439C15.8292 18.6484 15.9638 18.719 16.1099 18.7468C16.256 18.7746 16.4072 18.7583 16.544 18.7C16.6809 18.6417 16.7973 18.544 16.8785 18.4194C16.9597 18.2947 17.002 18.1487 17 18C16.9974 17.8028 16.9172 17.6146 16.7768 17.4761C16.6365 17.3376 16.4472 17.26 16.25 17.26ZM12 19.5C11.8517 19.5 11.7067 19.544 11.5833 19.6264C11.46 19.7088 11.3639 19.8259 11.3071 19.963C11.2503 20.1 11.2355 20.2508 11.2644 20.3963C11.2934 20.5418 11.3648 20.6754 11.4697 20.7803C11.5746 20.8852 11.7082 20.9566 11.8537 20.9856C11.9992 21.0145 12.15 20.9997 12.287 20.9429C12.4241 20.8861 12.5412 20.79 12.6236 20.6667C12.706 20.5433 12.75 20.3983 12.75 20.25C12.7474 20.0519 12.6676 19.8626 12.5275 19.7225C12.3874 19.5824 12.1981 19.5026 12 19.5ZM7.75 17.25C7.60166 17.25 7.45666 17.294 7.33332 17.3764C7.20999 17.4588 7.11386 17.5759 7.05709 17.713C7.00033 17.85 6.98547 18.0008 7.01441 18.1463C7.04335 18.2918 7.11478 18.4254 7.21967 18.5303C7.32456 18.6352 7.4582 18.7066 7.60368 18.7356C7.74917 18.7645 7.89997 18.7497 8.03701 18.6929C8.17406 18.6361 8.29119 18.54 8.3736 18.4167C8.45601 18.2933 8.5 18.1483 8.5 18C8.49741 17.8019 8.41756 17.6126 8.27747 17.4725C8.13737 17.3324 7.94811 17.2526 7.75 17.25ZM3.5 15C3.35166 15 3.20666 15.044 3.08332 15.1264C2.95999 15.2088 2.86386 15.3259 2.80709 15.463C2.75033 15.6 2.73547 15.7508 2.76441 15.8963C2.79335 16.0418 2.86478 16.1754 2.96967 16.2803C3.07456 16.3852 3.2082 16.4566 3.35368 16.4856C3.49917 16.5145 3.64997 16.4997 3.78701 16.4429C3.92406 16.3861 4.04119 16.29 4.1236 16.1667C4.20601 16.0433 4.25 15.8983 4.25 15.75C4.24741 15.5519 4.16756 15.3626 4.02747 15.2225C3.88737 15.0824 3.69811 15.0026 3.5 15Z" fill="black"/>
</svg>
