<svg width="24" height="25" viewBox="0 0 24 25" fill="none" xmlns="http://www.w3.org/2000/svg">
<path d="M19.48 6.41H16C15.9697 5.76857 15.6965 5.16268 15.236 4.71516C14.7755 4.26764 14.162 4.01197 13.52 4H11.15C10.5037 4.00183 9.88274 4.25194 9.41559 4.69862C8.94844 5.1453 8.67078 5.7544 8.64 6.4H4.52C3.65182 6.40265 2.82011 6.74939 2.20715 7.36422C1.59419 7.97905 1.25 8.81182 1.25 9.68V14.16C1.25097 14.5636 1.34112 14.9621 1.51399 15.3269C1.68686 15.6916 1.93819 16.0137 2.25 16.27V19.16C2.25 19.8893 2.53973 20.5888 3.05546 21.1045C3.57118 21.6203 4.27065 21.91 5 21.91H19C19.7293 21.91 20.4288 21.6203 20.9445 21.1045C21.4603 20.5888 21.75 19.8893 21.75 19.16V16.27C22.0618 16.0137 22.3131 15.6916 22.486 15.3269C22.6589 14.9621 22.749 14.5636 22.75 14.16V9.68C22.7474 8.81355 22.402 7.98335 21.7893 7.37067C21.1767 6.758 20.3464 6.41264 19.48 6.41ZM11.15 5.51H13.52C13.7688 5.50875 14.0091 5.60027 14.194 5.76669C14.3789 5.93311 14.4951 6.16248 14.52 6.41H10.15C10.1749 6.16248 10.2911 5.93311 10.476 5.76669C10.6609 5.60027 10.9012 5.50875 11.15 5.51ZM2.75 9.68C2.75 9.21057 2.93648 8.76036 3.26842 8.42842C3.60036 8.09648 4.05057 7.91 4.52 7.91H19.52C19.9894 7.91 20.4396 8.09648 20.7716 8.42842C21.1035 8.76036 21.29 9.21057 21.29 9.68V14.16C21.2914 14.39 21.2273 14.6156 21.1051 14.8104C20.9828 15.0052 20.8077 15.1612 20.6 15.26L20.44 15.33C20.3131 15.3823 20.1773 15.4095 20.04 15.41H4C3.86274 15.4095 3.7269 15.3823 3.6 15.33L3.44 15.26C3.23234 15.1612 3.05715 15.0052 2.93495 14.8104C2.81274 14.6156 2.74859 14.39 2.75 14.16V9.68ZM20.25 16.9V19.16C20.25 19.4915 20.1183 19.8095 19.8839 20.0439C19.6495 20.2783 19.3315 20.41 19 20.41H5C4.66848 20.41 4.35054 20.2783 4.11612 20.0439C3.8817 19.8095 3.75 19.4915 3.75 19.16V16.9H20.25ZM10.17 14.19C10.17 13.9911 10.249 13.8003 10.3897 13.6597C10.5303 13.519 10.7211 13.44 10.92 13.44H13.75C13.9489 13.44 14.1397 13.519 14.2803 13.6597C14.421 13.8003 14.5 13.9911 14.5 14.19C14.5 14.3889 14.421 14.5797 14.2803 14.7203C14.1397 14.861 13.9489 14.94 13.75 14.94H10.92C10.7219 14.9374 10.5326 14.8576 10.3925 14.7175C10.2524 14.5774 10.1726 14.3881 10.17 14.19Z" fill="black"/>
</svg>
