<svg width="24" height="24" viewBox="0 0 24 24" fill="none" xmlns="http://www.w3.org/2000/svg">
<path d="M22.1398 17.23L20.9098 10.43C20.7367 9.49828 20.286 8.64064 19.6167 7.96964C18.9475 7.29864 18.0911 6.84561 17.1598 6.67001V4.67001C17.1572 3.7647 16.7957 2.89738 16.1546 2.25817C15.5135 1.61895 14.6451 1.26001 13.7398 1.26001H9.99983C9.10319 1.27048 8.24653 1.63269 7.61434 2.26862C6.98215 2.90455 6.62501 3.76333 6.61983 4.66001V6.66001C5.7002 6.86168 4.86277 7.33604 4.21696 8.02111C3.57114 8.70617 3.14696 9.57009 2.99983 10.5L1.83983 17.3C1.7293 17.973 1.76689 18.6621 1.94999 19.3191C2.13309 19.9761 2.4573 20.5853 2.9 21.1042C3.3427 21.623 3.89324 22.0391 4.51324 22.3234C5.13324 22.6076 5.80778 22.7532 6.48983 22.75H17.4898C18.1795 22.7527 18.8614 22.6037 19.487 22.3133C20.1126 22.023 20.6667 21.5985 21.1098 21.07C21.5547 20.5459 21.8778 19.9296 22.0559 19.2656C22.234 18.6016 22.2627 17.9064 22.1398 17.23ZM9.99983 2.74001H13.6998C14.209 2.74001 14.6974 2.94229 15.0575 3.30236C15.4175 3.66243 15.6198 4.15079 15.6198 4.66001V6.58001H8.11983V4.66001C8.11972 4.15765 8.3165 3.67526 8.66797 3.31631C9.01943 2.95737 9.49758 2.75048 9.99983 2.74001ZM17.4998 21.26H6.49983C6.03455 21.2618 5.57447 21.1622 5.15165 20.968C4.72883 20.7738 4.35345 20.4897 4.05167 20.1355C3.74989 19.7814 3.52897 19.3657 3.4043 18.9174C3.27963 18.4692 3.25422 17.9991 3.32983 17.54L4.45983 10.75C4.5546 10.1736 4.80631 9.63444 5.18733 9.19167C5.56836 8.7489 6.06399 8.41964 6.61983 8.24001V8.33001C6.61983 8.52892 6.69885 8.71969 6.8395 8.86034C6.98015 9.00099 7.17092 9.08001 7.36983 9.08001C7.56874 9.08001 7.75951 9.00099 7.90016 8.86034C8.04081 8.71969 8.11983 8.52892 8.11983 8.33001V8.07001H15.6598V8.33001C15.6598 8.52892 15.7388 8.71969 15.8795 8.86034C16.0202 9.00099 16.2109 9.08001 16.4098 9.08001C16.6087 9.08001 16.7995 9.00099 16.9402 8.86034C17.0808 8.71969 17.1598 8.52892 17.1598 8.33001V8.21001C17.7334 8.37077 18.2504 8.68942 18.6517 9.12965C19.0531 9.56989 19.3227 10.114 19.4298 10.7L20.5298 16.75H10.9998C10.8009 16.75 10.6102 16.829 10.4695 16.9697C10.3288 17.1103 10.2498 17.3011 10.2498 17.5C10.2498 17.6989 10.3288 17.8897 10.4695 18.0303C10.6102 18.171 10.8009 18.25 10.9998 18.25H20.7498C20.7077 18.9348 20.4445 19.5875 19.9998 20.11C19.6944 20.475 19.3117 20.7676 18.8793 20.9665C18.4469 21.1654 17.9757 21.2656 17.4998 21.26Z" fill="black"/>
</svg>
