<svg width="24" height="24" viewBox="0 0 24 24" fill="none" xmlns="http://www.w3.org/2000/svg">
<path d="M12 22.75C9.87386 22.75 7.79545 22.1195 6.02762 20.9383C4.2598 19.7571 2.88194 18.0782 2.0683 16.1139C1.25466 14.1495 1.04177 11.9881 1.45656 9.90278C1.87135 7.81749 2.89519 5.90202 4.39861 4.39861C5.90202 2.89519 7.81749 1.87135 9.90278 1.45656C11.9881 1.04177 14.1495 1.25466 16.1139 2.0683C18.0782 2.88194 19.7571 4.2598 20.9383 6.02762C22.1195 7.79545 22.75 9.87386 22.75 12C22.7474 14.8503 21.6139 17.583 19.5985 19.5985C17.583 21.6139 14.8503 22.7474 12 22.75ZM12 2.75C10.1705 2.75 8.38213 3.29251 6.86098 4.30891C5.33983 5.32531 4.15423 6.76997 3.45412 8.46018C2.75401 10.1504 2.57083 12.0103 2.92774 13.8046C3.28465 15.5989 4.16563 17.2471 5.45927 18.5407C6.7529 19.8344 8.40109 20.7154 10.1954 21.0723C11.9897 21.4292 13.8496 21.246 15.5398 20.5459C17.23 19.8458 18.6747 18.6602 19.6911 17.139C20.7075 15.6179 21.25 13.8295 21.25 12C21.2474 9.54756 20.272 7.19633 18.5378 5.46219C16.8037 3.72805 14.4524 2.75265 12 2.75ZM17 7.06C17.1618 7.06 17.3169 7.12427 17.4313 7.23867C17.5457 7.35307 17.61 7.50822 17.61 7.67C17.61 7.83179 17.5457 7.98694 17.4313 8.10134C17.3169 8.21574 17.1618 8.28 17 8.28C16.8382 8.28 16.6831 8.21574 16.5687 8.10134C16.4543 7.98694 16.39 7.83179 16.39 7.67C16.39 7.50822 16.4543 7.35307 16.5687 7.23867C16.6831 7.12427 16.8382 7.06 17 7.06ZM12 6.64C12.1207 6.64 12.2386 6.67578 12.3389 6.74281C12.4392 6.80984 12.5174 6.9051 12.5636 7.01657C12.6097 7.12803 12.6218 7.25068 12.5983 7.36901C12.5747 7.48734 12.5167 7.59603 12.4313 7.68134C12.346 7.76665 12.2373 7.82475 12.119 7.84828C12.0007 7.87182 11.878 7.85974 11.7666 7.81357C11.6551 7.7674 11.5598 7.68922 11.4928 7.5889C11.4258 7.48859 11.39 7.37065 11.39 7.25C11.39 7.08822 11.4543 6.93307 11.5687 6.81867C11.6831 6.70427 11.8382 6.64 12 6.64ZM7.47 8.64001C7.59304 8.63802 7.71387 8.67269 7.81714 8.7396C7.92041 8.80651 8.00143 8.90263 8.04989 9.01573C8.09835 9.12883 8.11207 9.25379 8.08929 9.37471C8.0665 9.49563 8.00826 9.60704 7.92196 9.69475C7.83566 9.78246 7.72522 9.84251 7.60469 9.86726C7.48415 9.892 7.35898 9.88032 7.24511 9.8337C7.13123 9.78709 7.03381 9.70764 6.96523 9.60547C6.89665 9.50331 6.86002 9.38305 6.86 9.26C6.86512 9.10078 6.93134 8.94963 7.04492 8.83791C7.15849 8.7262 7.31071 8.66249 7.47 8.66V8.64001ZM4.83 14C4.66822 14 4.51307 13.9357 4.39867 13.8213C4.28427 13.7069 4.22 13.5518 4.22 13.39C4.22 13.3099 4.23578 13.2306 4.26644 13.1566C4.29709 13.0826 4.34203 13.0153 4.39867 12.9587C4.45531 12.902 4.52256 12.8571 4.59657 12.8264C4.67058 12.7958 4.7499 12.78 4.83 12.78C4.91011 12.78 4.98943 12.7958 5.06344 12.8264C5.13745 12.8571 5.2047 12.902 5.26134 12.9587C5.31798 13.0153 5.36292 13.0826 5.39357 13.1566C5.42423 13.2306 5.44 13.3099 5.44 13.39C5.44 13.5518 5.37574 13.7069 5.26134 13.8213C5.14694 13.9357 4.99179 14 4.83 14ZM12.61 17.09C12.4894 17.09 12.3714 17.0542 12.2711 16.9872C12.1708 16.9202 12.0926 16.8249 12.0464 16.7134C12.0003 16.602 11.9882 16.4793 12.0117 16.361C12.0353 16.2427 12.0934 16.134 12.1787 16.0487C12.264 15.9634 12.3727 15.9053 12.491 15.8817C12.6093 15.8582 12.732 15.8703 12.8434 15.9164C12.9549 15.9626 13.0502 16.0408 13.1172 16.1411C13.1842 16.2414 13.22 16.3594 13.22 16.48C13.22 16.6418 13.1557 16.7969 13.0413 16.9113C12.9269 17.0257 12.7718 17.09 12.61 17.09ZM15.33 14C15.1682 14 15.0131 13.9357 14.8987 13.8213C14.7843 13.7069 14.72 13.5518 14.72 13.39C14.7226 13.229 14.7877 13.0754 14.9015 12.9615C15.0154 12.8477 15.169 12.7826 15.33 12.78C15.4918 12.78 15.6469 12.8443 15.7613 12.9587C15.8757 13.0731 15.94 13.2282 15.94 13.39C15.94 13.5518 15.8757 13.7069 15.7613 13.8213C15.6469 13.9357 15.4918 14 15.33 14ZM9.86 17.5H6.35C6.16371 17.4961 5.98087 17.449 5.81597 17.3622C5.65108 17.2754 5.50866 17.1514 5.4 17C5.29571 16.8581 5.22451 16.6946 5.19163 16.5215C5.15876 16.3485 5.16503 16.1703 5.21 16C6.63 11 9.93 8 13.73 8.08C15.4395 8.13779 17.0817 8.7602 18.4 9.85001C18.6082 10.0163 18.7534 10.2487 18.8116 10.5087C18.8698 10.7687 18.8375 11.0408 18.72 11.28C18.6009 11.5216 18.404 11.7161 18.1609 11.8322C17.9178 11.9483 17.6428 11.9792 17.38 11.92C16.6587 11.683 15.8946 11.605 15.1402 11.6913C14.3859 11.7776 13.6592 12.0262 13.01 12.42C12.4251 12.9182 11.9465 13.5292 11.6029 14.2164C11.2593 14.9037 11.0576 15.6531 11.01 16.42C10.9854 16.7102 10.8543 16.9811 10.642 17.1804C10.4297 17.3798 10.1512 17.4936 9.86 17.5ZM6.77 16H9.58C9.66479 15.0696 9.93498 14.1655 10.3746 13.3411C10.8143 12.5168 11.4146 11.7888 12.14 11.2C13.3301 10.3832 14.7769 10.0278 16.21 10.2C15.4291 9.79905 14.5676 9.58023 13.69 9.56001C10.7 9.53001 8.05 12 6.77 16ZM19.77 12.95C19.6466 12.952 19.5253 12.9171 19.4218 12.8497C19.3184 12.7823 19.2374 12.6856 19.1892 12.5719C19.141 12.4582 19.1279 12.3328 19.1515 12.2116C19.1751 12.0904 19.2344 11.979 19.3217 11.8917C19.409 11.8044 19.5204 11.7451 19.6416 11.7215C19.7628 11.6979 19.8882 11.711 20.0019 11.7592C20.1156 11.8074 20.2123 11.8884 20.2797 11.9918C20.3471 12.0953 20.382 12.2166 20.38 12.34C20.3869 12.4234 20.3765 12.5073 20.3496 12.5865C20.3226 12.6657 20.2797 12.7385 20.2234 12.8004C20.1672 12.8623 20.0987 12.912 20.0225 12.9463C19.9462 12.9806 19.8637 12.9989 19.78 13L19.77 12.95Z" fill="black"/>
</svg>
