<svg width="24" height="24" viewBox="0 0 24 24" fill="none" xmlns="http://www.w3.org/2000/svg">
<path d="M20.3402 8.80995L14.8002 3.26995C14.2228 2.69411 13.4407 2.37073 12.6252 2.37073C11.8097 2.37073 11.0276 2.69411 10.4502 3.26995L2.9002 10.82C2.32436 11.3973 2.00098 12.1795 2.00098 12.995C2.00098 13.8104 2.32436 14.5926 2.9002 15.17L8.4402 20.71C9.01758 21.2858 9.79975 21.6092 10.6152 21.6092C11.4307 21.6092 12.2128 21.2858 12.7902 20.71L20.3402 13.16C20.916 12.5826 21.2394 11.8004 21.2394 10.985C21.2394 10.1695 20.916 9.38733 20.3402 8.80995ZM11.5102 4.32995C11.6546 4.18234 11.8274 4.06549 12.0182 3.98643C12.2089 3.90738 12.4137 3.86775 12.6202 3.86995C12.828 3.86868 13.0341 3.90868 13.2263 3.98764C13.4186 4.06661 13.5933 4.18296 13.7402 4.32995L19.2702 9.86995C19.4629 10.0639 19.6009 10.3054 19.6702 10.57C14.5895 9.90704 9.43024 10.185 4.4502 11.39L11.5102 4.32995ZM11.7302 19.64C11.5849 19.7884 11.4115 19.9064 11.22 19.9869C11.0285 20.0674 10.8229 20.1089 10.6152 20.1089C10.4075 20.1089 10.2019 20.0674 10.0104 19.9869C9.81893 19.9064 9.64547 19.7884 9.5002 19.64L4.0002 14.11C3.77694 13.8826 3.62713 13.5935 3.5702 13.28C6.9002 11.88 14.2502 11.32 19.3302 12C19.3159 12.0276 19.2954 12.0516 19.2702 12.07L11.7302 19.64ZM20.5902 16.27C20.495 16.143 20.3711 16.0405 20.2285 15.971C20.0859 15.9014 19.9288 15.8668 19.7702 15.87C19.6097 15.8703 19.4515 15.9075 19.3076 15.9785C19.1637 16.0496 19.038 16.1527 18.9402 16.28C18.1506 17.1879 17.6555 18.3143 17.5202 19.51C17.5202 20.104 17.7562 20.6738 18.1763 21.0939C18.5964 21.514 19.1661 21.75 19.7602 21.75C20.3543 21.75 20.924 21.514 21.3441 21.0939C21.7642 20.6738 22.0002 20.104 22.0002 19.51C21.8826 18.3086 21.3892 17.1748 20.5902 16.27ZM19.7602 20.13C19.5803 20.1439 19.402 20.0868 19.2637 19.9709C19.1254 19.855 19.038 19.6895 19.0202 19.51C19.1055 18.8478 19.3643 18.22 19.7702 17.69C20.1768 18.2176 20.4295 18.8476 20.5002 19.51C20.4824 19.6895 20.395 19.855 20.2567 19.9709C20.1184 20.0868 19.9401 20.1439 19.7602 20.13Z" fill="black"/>
</svg>
