<svg width="24" height="24" viewBox="0 0 24 24" fill="none" xmlns="http://www.w3.org/2000/svg">
<path d="M18.5998 10.17C18.5132 10.125 18.4186 10.0976 18.3213 10.0894C18.2241 10.0811 18.1262 10.0922 18.0332 10.1219C17.9403 10.1517 17.8541 10.1995 17.7798 10.2627C17.7054 10.3258 17.6442 10.4031 17.5998 10.49L13.6998 18C13.1981 19.0016 12.3431 19.7819 11.2998 20.19C10.8303 20.3641 10.3293 20.4371 9.82955 20.4044C9.32983 20.3717 8.84265 20.2339 8.39982 20C7.95745 19.7655 7.57054 19.4389 7.26519 19.0421C6.95985 18.6453 6.74318 18.1877 6.62982 17.7C6.3588 16.6239 6.49039 15.4858 6.99982 14.5L9.61982 9.49999L11.7898 5.32999C12.1344 4.63642 12.7268 4.09752 13.4498 3.81999C13.7692 3.68795 14.1133 3.62672 14.4586 3.64053C14.8039 3.65435 15.1421 3.74287 15.4498 3.89999C15.749 4.06253 16.0106 4.28639 16.2174 4.55693C16.4242 4.82747 16.5715 5.1386 16.6498 5.46999C16.8368 6.2223 16.7369 7.01725 16.3698 7.69999L14.1798 11.92L12.6298 14.92C12.449 15.2794 12.1432 15.5603 11.7698 15.71C11.6135 15.7839 11.4427 15.8222 11.2698 15.8222C11.0969 15.8222 10.9261 15.7839 10.7698 15.71C10.456 15.5122 10.2328 15.1986 10.1486 14.8374C10.0643 14.4761 10.1259 14.0962 10.3198 13.78L13.1298 8.36999C13.2104 8.19486 13.2205 7.99542 13.158 7.81305C13.0954 7.63069 12.9651 7.47942 12.7939 7.39063C12.6228 7.30185 12.424 7.28238 12.2389 7.33626C12.0538 7.39014 11.8966 7.51323 11.7998 7.67999L8.99982 13C8.80586 13.3335 8.68014 13.7022 8.62999 14.0847C8.57983 14.4672 8.60624 14.8559 8.70767 15.2281C8.8091 15.6003 8.98353 15.9487 9.22081 16.2529C9.45809 16.557 9.75349 16.811 10.0898 17C10.4585 17.1985 10.8711 17.3017 11.2898 17.3C11.6322 17.3011 11.9717 17.2366 12.2898 17.11C13.0382 16.8276 13.6501 16.2694 13.9998 15.55L15.8798 11.92L17.7298 8.34999C18.2686 7.33813 18.4146 6.16292 18.1398 5.04999C18.0105 4.51645 17.7685 4.01674 17.4302 3.58439C17.0919 3.15204 16.665 2.79705 16.1782 2.54323C15.6914 2.28941 15.1559 2.14264 14.6077 2.11276C14.0596 2.08288 13.5113 2.17059 12.9998 2.36999C11.9119 2.77435 11.0135 3.56933 10.4798 4.59999L9.31982 6.82999L5.69982 13.83C4.99966 15.1458 4.8143 16.675 5.17982 18.12C5.34654 18.8103 5.6584 19.4572 6.09464 20.0176C6.53088 20.578 7.08149 21.039 7.70982 21.37C8.41912 21.7291 9.20488 21.9109 9.99982 21.9C10.639 21.8953 11.2722 21.7768 11.8698 21.55C13.228 20.9964 14.3399 19.9698 14.9998 18.66L18.8798 11.18C18.9743 11.0084 18.9978 10.8067 18.9455 10.618C18.8932 10.4292 18.7691 10.2684 18.5998 10.17Z" fill="black"/>
</svg>
