<svg width="24" height="24" viewBox="0 0 24 24" fill="none" xmlns="http://www.w3.org/2000/svg">
<path d="M17.9302 8.99994C18.3475 8.75837 18.694 8.41131 18.9349 7.99358C19.1757 7.57585 19.3025 7.10214 19.3025 6.61994C19.3025 6.13775 19.1757 5.66403 18.9349 5.2463C18.694 4.82857 18.3475 4.48151 17.9302 4.23994L13.3602 1.61994C12.9418 1.37955 12.4677 1.25305 11.9852 1.25305C11.5027 1.25305 11.0286 1.37955 10.6102 1.61994L6.07022 4.26994C5.66037 4.5143 5.32115 4.8611 5.08591 5.27625C4.85068 5.69141 4.72751 6.16062 4.72852 6.63779C4.72953 7.11495 4.85468 7.58365 5.09167 7.9978C5.32866 8.41195 5.66934 8.75732 6.08021 8.99994L10.6402 11.6199C11.0527 11.8628 11.5215 11.9938 12.0002 11.9999C12.485 12.0018 12.9614 11.874 13.3802 11.6299L17.9302 8.99994ZM11.3702 2.91994C11.5624 2.81199 11.7798 2.75679 12.0002 2.75994C12.2205 2.75818 12.4375 2.81329 12.6302 2.91994L17.1802 5.53994C17.3691 5.64999 17.5257 5.80762 17.6346 5.99713C17.7435 6.18663 17.8008 6.40138 17.8008 6.61994C17.8008 6.83851 17.7435 7.05325 17.6346 7.24276C17.5257 7.43226 17.3691 7.5899 17.1802 7.69994L16.3302 8.18994L9.33021 4.10994L11.3702 2.91994ZM11.3702 10.3499L6.83021 7.72994C6.63825 7.62268 6.47855 7.46591 6.36775 7.27596C6.25695 7.08602 6.1991 6.86984 6.20021 6.64994C6.19839 6.42975 6.25477 6.21298 6.36364 6.02157C6.47252 5.83016 6.63002 5.67092 6.82022 5.55994L7.90022 4.93994L14.9002 8.99994L12.6402 10.3099C12.4522 10.4267 12.2368 10.4918 12.0156 10.4988C11.7944 10.5059 11.5753 10.4545 11.3802 10.3499H11.3702ZM10.1402 12.3499L5.60021 9.71994C5.18166 9.4806 4.7077 9.35509 4.22555 9.3559C3.74339 9.3567 3.26986 9.4838 2.8521 9.72454C2.43435 9.96528 2.08695 10.3113 1.8445 10.728C1.60205 11.1448 1.473 11.6178 1.47021 12.0999V17.3599C1.47201 17.8427 1.60038 18.3165 1.84254 18.7341C2.08469 19.1518 2.43214 19.4986 2.85021 19.7399L7.40022 22.3699C7.81804 22.6089 8.29109 22.7344 8.7724 22.734C9.25372 22.7337 9.72658 22.6074 10.144 22.3679C10.5615 22.1283 10.9091 21.7838 11.1522 21.3684C11.3954 20.953 11.5257 20.4812 11.5302 19.9999V14.7299C11.5284 14.2472 11.4 13.7734 11.1579 13.3557C10.9157 12.9381 10.5683 12.5913 10.1502 12.3499H10.1402ZM10.0002 19.9999C10.0003 20.2196 9.942 20.4354 9.8313 20.6252C9.72061 20.8149 9.56148 20.9719 9.37021 21.0799C9.18123 21.1927 8.96527 21.2522 8.74521 21.2522C8.52516 21.2522 8.3092 21.1927 8.12021 21.0799L3.60021 18.4399C3.41453 18.3281 3.26141 18.1695 3.15613 17.98C3.05085 17.7905 2.99709 17.5767 3.00021 17.3599V12.0999C3.00283 11.7692 3.13536 11.4528 3.36922 11.2189C3.60308 10.9851 3.9195 10.8526 4.25021 10.8499C4.47131 10.8517 4.68825 10.9102 4.88021 11.0199L9.40021 13.6499C9.58522 13.7626 9.73779 13.9213 9.84297 14.1106C9.94815 14.3 10.0023 14.5134 10.0002 14.7299V19.9999ZM21.1502 9.71994C20.7318 9.47955 20.2577 9.35305 19.7752 9.35305C19.2927 9.35305 18.8186 9.47955 18.4002 9.71994L13.8502 12.3499C13.4321 12.5913 13.0847 12.9381 12.8425 13.3557C12.6004 13.7734 12.472 14.2472 12.4702 14.7299V19.9999C12.47 20.4833 12.5971 20.9581 12.8389 21.3767C13.0806 21.7952 13.4284 22.1426 13.8471 22.3839C14.2659 22.6253 14.7409 22.752 15.2242 22.7513C15.7075 22.7506 16.1821 22.6225 16.6002 22.3799L21.1502 19.7499C21.5683 19.5086 21.9157 19.1618 22.1579 18.7441C22.4 18.3265 22.5284 17.8527 22.5302 17.3699V12.0999C22.5315 11.6166 22.4044 11.1416 22.1619 10.7234C21.9195 10.3052 21.5703 9.95897 21.1502 9.71994ZM21.0002 17.3599C21.0003 17.5796 20.942 17.7954 20.8313 17.9852C20.7206 18.1749 20.5615 18.3319 20.3702 18.4399L15.8202 21.0699C15.6312 21.1827 15.4153 21.2422 15.1952 21.2422C14.9752 21.2422 14.7592 21.1827 14.5702 21.0699C14.3916 20.9553 14.2453 20.7967 14.1455 20.6094C14.0457 20.422 13.9957 20.2122 14.0002 19.9999V14.7299C14.0012 14.5105 14.0599 14.2951 14.1705 14.1055C14.2811 13.9159 14.4396 13.7588 14.6302 13.6499L16.3102 12.6499V13.4999C16.3102 13.6909 16.3861 13.874 16.5211 14.0091C16.6561 14.1441 16.8393 14.2199 17.0302 14.2199C17.2221 14.2173 17.4052 14.1392 17.54 14.0026C17.6747 13.866 17.7502 13.6818 17.7502 13.4899V11.8199L19.1502 10.9999C19.3422 10.8902 19.5591 10.8317 19.7802 10.8299C20.1091 10.8404 20.4209 10.9791 20.6489 11.2164C20.8769 11.4537 21.003 11.7709 21.0002 12.0999V17.3599Z" fill="black"/>
</svg>
