<svg width="24" height="24" viewBox="0 0 24 24" fill="none" xmlns="http://www.w3.org/2000/svg">
<path d="M12.1702 15.5201C12.1797 14.8453 12.035 14.1773 11.7471 13.567C11.4591 12.9567 11.0356 12.4202 10.5087 11.9986C9.98184 11.5769 9.36561 11.2812 8.70704 11.134C8.04848 10.9868 7.36499 10.992 6.70873 11.1491C6.05248 11.3063 5.4408 11.6114 4.9204 12.041C4.4 12.4706 3.98461 13.0134 3.70596 13.628C3.4273 14.2426 3.29273 14.9127 3.31253 15.5872C3.33233 16.2618 3.50596 16.9229 3.82018 17.5201L2.28018 18.8101C2.16413 18.9093 2.08113 19.0416 2.04227 19.1892C2.00341 19.3369 2.01055 19.4929 2.06273 19.6364C2.11491 19.7799 2.20965 19.904 2.33428 19.9923C2.45891 20.0805 2.6075 20.1285 2.76018 20.1301C2.93054 20.1451 3.1007 20.099 3.24018 20.0001L4.71018 18.7701C5.33579 19.3691 6.12398 19.7707 6.97639 19.9247C7.82879 20.0786 8.70767 19.9782 9.50333 19.6358C10.299 19.2934 10.9762 18.7243 11.4505 17.9995C11.9247 17.2747 12.1751 16.4262 12.1702 15.5601V15.5201ZM7.75018 18.4501C7.17026 18.452 6.60279 18.2819 6.11964 17.9611C5.63649 17.6404 5.25939 17.1835 5.03609 16.6483C4.81279 16.1131 4.75334 15.5236 4.86526 14.9546C4.97719 14.3856 5.25545 13.8626 5.66482 13.4518C6.07418 13.041 6.59624 12.761 7.16488 12.6471C7.73351 12.5332 8.32315 12.5907 8.85912 12.8121C9.39509 13.0336 9.85328 13.4092 10.1757 13.8912C10.4981 14.3733 10.6702 14.9401 10.6702 15.5201C10.6702 16.2954 10.3629 17.0392 9.81554 17.5884C9.26822 18.1375 8.52553 18.4474 7.75018 18.4501ZM18.2102 3.00005H8.57018C7.97025 2.99475 7.37524 3.10867 6.81969 3.3352C6.26415 3.56174 5.75913 3.89637 5.33397 4.31967C4.90881 4.74297 4.57197 5.24651 4.343 5.80105C4.11404 6.3556 3.99751 6.95011 4.00018 7.55006V10.3901C4.00018 10.589 4.0792 10.7797 4.21985 10.9204C4.3605 11.061 4.55127 11.1401 4.75018 11.1401C4.94909 11.1401 5.13986 11.061 5.28051 10.9204C5.42116 10.7797 5.50018 10.589 5.50018 10.3901V7.55006C5.50018 6.75441 5.81625 5.99134 6.37886 5.42873C6.94147 4.86613 7.70453 4.55006 8.50018 4.55006H9.50018V8.39006C9.49737 8.73783 9.56462 9.08261 9.69794 9.40383C9.83126 9.72505 10.0279 10.0161 10.2761 10.2597C10.5244 10.5033 10.8191 10.6944 11.1428 10.8216C11.4665 10.9488 11.8125 11.0095 12.1602 11.0001H14.6202C15.308 11.0001 15.9678 10.7275 16.4551 10.2421C16.9424 9.75664 17.2175 9.09788 17.2202 8.41005V4.52005H18.2202C19.0158 4.52005 19.7789 4.83613 20.3415 5.39873C20.9041 5.96134 21.2202 6.72441 21.2202 7.52005V16.4201C21.2202 17.2157 20.9041 17.9788 20.3415 18.5414C19.7789 19.104 19.0158 19.4201 18.2202 19.4201H11.1002C10.9013 19.4201 10.7105 19.4991 10.5698 19.6397C10.4292 19.7804 10.3502 19.9711 10.3502 20.1701C10.3502 20.369 10.4292 20.5597 10.5698 20.7004C10.7105 20.841 10.9013 20.9201 11.1002 20.9201H18.2102C18.8051 20.9201 19.3941 20.8029 19.9437 20.5752C20.4933 20.3476 20.9927 20.0139 21.4134 19.5932C21.834 19.1726 22.1677 18.6732 22.3954 18.1236C22.623 17.574 22.7402 16.9849 22.7402 16.3901V7.55006C22.7428 6.95349 22.6276 6.36227 22.4011 5.81036C22.1746 5.25844 21.8414 4.75669 21.4205 4.33392C20.9996 3.91115 20.4993 3.57569 19.9484 3.34678C19.3975 3.11788 18.8068 3.00005 18.2102 3.00005ZM15.7202 8.39006C15.7202 8.53404 15.6917 8.6766 15.6363 8.8095C15.5809 8.9424 15.4997 9.06301 15.3974 9.16436C15.2951 9.26571 15.1738 9.34579 15.0404 9.39997C14.907 9.45416 14.7642 9.48138 14.6202 9.48005H12.1602C11.8711 9.48005 11.5938 9.36522 11.3894 9.1608C11.185 8.95639 11.0702 8.67914 11.0702 8.39006V4.52005H15.7202V8.39006Z" fill="black"/>
</svg>
