<svg width="24" height="24" viewBox="0 0 24 24" fill="none" xmlns="http://www.w3.org/2000/svg">
<path d="M11.4701 4.54006H6.00005C5.13526 4.55316 4.31018 4.90524 3.70236 5.52054C3.09454 6.13584 2.75258 6.96517 2.75005 7.83006V16.1701C2.75258 17.0349 3.09454 17.8643 3.70236 18.4796C4.31018 19.0949 5.13526 19.447 6.00005 19.4601H11.2401C11.439 19.4601 11.6297 19.5391 11.7704 19.6797C11.911 19.8204 11.9901 20.0111 11.9901 20.2101C11.9901 20.409 11.911 20.5997 11.7704 20.7404C11.6297 20.881 11.439 20.9601 11.2401 20.9601H6.00005C4.73048 20.9574 3.51366 20.4519 2.61593 19.5542C1.7182 18.6565 1.2127 17.4396 1.21005 16.1701V7.83006C1.2061 7.19803 1.32701 6.57145 1.56584 5.98628C1.80467 5.4011 2.15671 4.86885 2.60177 4.42008C3.04682 3.97131 3.57612 3.61485 4.15929 3.37116C4.74246 3.12748 5.36802 3.00136 6.00005 3.00006H11.4301C11.629 3.00006 11.8197 3.07908 11.9604 3.21973C12.101 3.36038 12.1801 3.55115 12.1801 3.75006C12.1801 3.94897 12.101 4.13974 11.9604 4.28039C11.8197 4.42104 11.629 4.50006 11.4301 4.50006L11.4701 4.54006ZM22.7501 7.83006V16.1701C22.7581 17.4397 22.2627 18.6607 21.3725 19.566C20.4822 20.4712 19.2696 20.9869 18.0001 21.0001H15.5701V21.2301C15.5701 21.429 15.491 21.6197 15.3504 21.7604C15.2097 21.901 15.019 21.9801 14.8201 21.9801C14.6211 21.9801 14.4304 21.901 14.2897 21.7604C14.1491 21.6197 14.0701 21.429 14.0701 21.2301V2.81006C14.0701 2.61115 14.1491 2.42038 14.2897 2.27973C14.4304 2.13908 14.6211 2.06006 14.8201 2.06006C15.019 2.06006 15.2097 2.13908 15.3504 2.27973C15.491 2.42038 15.5701 2.61115 15.5701 2.81006V3.00006H18.0001C19.2696 3.01326 20.4822 3.52891 21.3725 4.43415C22.2627 5.33938 22.7581 6.56045 22.7501 7.83006ZM21.2501 7.83006C21.2475 6.96517 20.9056 6.13584 20.2978 5.52054C19.6899 4.90524 18.8648 4.55316 18.0001 4.54006H15.5701V19.4601H18.0001C18.8718 19.4574 19.7071 19.11 20.3235 18.4935C20.9399 17.8771 21.2874 17.0418 21.2901 16.1701L21.2501 7.83006ZM4.31005 12.0001C4.31005 12.1978 4.3687 12.3912 4.47859 12.5556C4.58847 12.7201 4.74465 12.8483 4.92737 12.9239C5.1101 12.9996 5.31116 13.0194 5.50515 12.9808C5.69913 12.9423 5.87731 12.847 6.01716 12.7072C6.15701 12.5673 6.25225 12.3891 6.29084 12.1951C6.32943 12.0012 6.30962 11.8001 6.23393 11.6174C6.15825 11.4346 6.03007 11.2785 5.86562 11.1686C5.70118 11.0587 5.50784 11.0001 5.31005 11.0001C5.04484 11.0001 4.79048 11.1054 4.60295 11.293C4.41541 11.4805 4.31005 11.7348 4.31005 12.0001ZM7.90005 12.0001C7.90005 12.1978 7.9587 12.3912 8.06858 12.5556C8.17847 12.7201 8.33465 12.8483 8.51737 12.9239C8.7001 12.9996 8.90116 13.0194 9.09514 12.9808C9.28913 12.9423 9.46731 12.847 9.60716 12.7072C9.74701 12.5673 9.84225 12.3891 9.88084 12.1951C9.91943 12.0012 9.89962 11.8001 9.82393 11.6174C9.74825 11.4346 9.62007 11.2785 9.45562 11.1686C9.29118 11.0587 9.09784 11.0001 8.90005 11.0001C8.63484 11.0001 8.38048 11.1054 8.19295 11.293C8.00541 11.4805 7.90005 11.7348 7.90005 12.0001Z" fill="black"/>
</svg>
