<svg width="24" height="24" viewBox="0 0 24 24" fill="none" xmlns="http://www.w3.org/2000/svg">
<path d="M11.18 22.75H7.99996C7.77302 22.745 7.54987 22.6908 7.3459 22.5912C7.14192 22.4916 6.96196 22.349 6.81843 22.1731C6.6749 21.9973 6.57121 21.7924 6.5145 21.5726C6.45779 21.3528 6.44942 21.1233 6.48996 20.9V20.75H5.05996C4.82024 20.7503 4.58333 20.6984 4.36572 20.5979C4.14811 20.4974 3.95501 20.3506 3.79987 20.1679C3.64473 19.9851 3.53127 19.7708 3.46739 19.5397C3.4035 19.3087 3.39073 19.0665 3.42996 18.83L5.80996 4.37001C5.95037 3.49832 6.39705 2.70527 7.06974 2.1334C7.74244 1.56152 8.59703 1.24829 9.47996 1.25001H14.1C15.5923 1.25265 17.0228 1.84666 18.078 2.90192C19.1333 3.95717 19.7273 5.38765 19.73 6.88001V7.10001C20.3422 7.53268 20.8428 8.10468 21.1906 8.76885C21.5383 9.43302 21.7232 10.1703 21.73 10.92C21.7003 11.7291 21.5114 12.5245 21.1742 13.2605C20.8369 13.9966 20.3578 14.659 19.7643 15.2097C19.1708 15.7605 18.4746 16.1888 17.7154 16.4703C16.9562 16.7518 16.149 16.8808 15.34 16.85H14.16C14.0225 16.8499 13.8893 16.8978 13.7834 16.9855C13.6776 17.0731 13.6056 17.195 13.58 17.33L12.86 21.33C12.7917 21.7265 12.5859 22.0863 12.2786 22.346C11.9713 22.6057 11.5823 22.7488 11.18 22.75ZM8.08996 20.47L7.95996 21.17L8.02996 21.25H11.18C11.2282 21.2506 11.275 21.2336 11.3117 21.2024C11.3485 21.1712 11.3727 21.1277 11.38 21.08L12.11 17.08C12.1968 16.5998 12.4497 16.1653 12.8244 15.8527C13.1992 15.5401 13.6719 15.3693 14.16 15.37H15.34C16.5671 15.4356 17.7702 15.0127 18.6865 14.1939C19.6028 13.375 20.1577 12.2267 20.23 11C20.2339 10.2237 19.9528 9.47287 19.44 8.89001C19.0257 10.3019 18.166 11.5419 16.9891 12.425C15.8122 13.3081 14.3813 13.787 12.91 13.79H9.90996C9.86531 13.7869 9.8211 13.8006 9.78597 13.8283C9.75084 13.856 9.72731 13.8959 9.71996 13.94L8.82996 19.34C8.79211 19.5695 8.70673 19.7886 8.5793 19.9832C8.45187 20.1778 8.2852 20.3436 8.08996 20.47ZM9.47996 2.75001C8.95314 2.74813 8.44298 2.9345 8.04143 3.27554C7.63989 3.61657 7.37339 4.08983 7.28996 4.61001L4.90996 19.07C4.90316 19.0922 4.90201 19.1158 4.9066 19.1386C4.9112 19.1614 4.9214 19.1827 4.93629 19.2006C4.95117 19.2184 4.97028 19.2323 4.99187 19.2409C5.01346 19.2496 5.03686 19.2527 5.05996 19.25H7.14996C7.19819 19.2506 7.24499 19.2336 7.28175 19.2024C7.3185 19.1712 7.34272 19.1277 7.34996 19.08L8.23996 13.68C8.30241 13.2835 8.50558 12.9228 8.81226 12.6639C9.11894 12.4049 9.50862 12.2651 9.90996 12.27H12.91C14.3115 12.2675 15.6556 11.713 16.6513 10.7266C17.647 9.7403 18.2142 8.40146 18.23 7.00001C18.2366 6.45251 18.1348 5.90911 17.9304 5.40113C17.7261 4.89316 17.4232 4.43064 17.0393 4.04023C16.6554 3.64982 16.198 3.33924 15.6936 3.12638C15.1891 2.91353 14.6475 2.80261 14.1 2.80001L9.47996 2.75001Z" fill="black"/>
</svg>
