<svg width="24" height="24" viewBox="0 0 24 24" fill="none" xmlns="http://www.w3.org/2000/svg">
<path d="M21.9299 4.93998L19.0599 2.06998C18.5307 1.56035 17.8246 1.27563 17.0899 1.27563C16.3552 1.27563 15.6491 1.56035 15.1199 2.06998L12.9999 4.21998L3.59988 13.58C3.52786 13.6575 3.4733 13.7496 3.43988 13.85L1.37988 20.05C1.31447 20.2298 1.27736 20.4187 1.26988 20.61C1.26988 20.61 1.26988 20.61 1.26988 20.67C1.25948 21.02 1.34599 21.3661 1.51988 21.67C1.51988 21.67 1.57988 21.74 1.59988 21.78C1.67188 21.9038 1.75924 22.0181 1.85988 22.12C2.04629 22.3102 2.2688 22.4612 2.51436 22.5642C2.75992 22.6673 3.02358 22.7202 3.28988 22.72C3.51105 22.7184 3.73053 22.6813 3.93988 22.61L10.1399 20.55C10.2408 20.5128 10.3327 20.4549 10.4099 20.38L19.7799 11L21.9299 8.83998C22.195 8.57964 22.4045 8.26808 22.5454 7.92426C22.6864 7.58044 22.756 7.21153 22.7499 6.83998C22.7323 6.1245 22.4384 5.4436 21.9299 4.93998ZM9.88988 18.8L7.53988 16.46L5.18988 14.11L13.4899 5.81998L18.1899 10.51L9.88988 18.8ZM3.44988 21.22H3.25988C3.1668 21.2134 3.07712 21.1823 2.99988 21.13C2.90538 21.0369 2.84842 20.9123 2.83988 20.78C2.83099 20.717 2.83099 20.653 2.83988 20.59L2.99988 19.81L4.18988 21L3.44988 21.22ZM5.77988 20.45L3.54988 18.22L4.45988 15.5L6.45988 17.5L8.45988 19.5L5.77988 20.45ZM20.8699 7.81998L19.2499 9.44998L14.5499 4.74998L16.1799 3.12998C16.4216 2.88938 16.7488 2.75431 17.0899 2.75431C17.431 2.75431 17.7581 2.88938 17.9999 3.12998L20.8699 5.99998C21.1105 6.24172 21.2456 6.56891 21.2456 6.90998C21.2456 7.25105 21.1105 7.57824 20.8699 7.81998Z" fill="black"/>
</svg>
