<svg width="24" height="24" viewBox="0 0 24 24" fill="none" xmlns="http://www.w3.org/2000/svg">
<path d="M12.1801 15.49C11.4384 15.49 10.7134 15.2701 10.0967 14.858C9.48004 14.446 8.9994 13.8603 8.71557 13.1751C8.43174 12.4899 8.35748 11.7359 8.50217 11.0084C8.64687 10.281 9.00402 9.61281 9.52847 9.08836C10.0529 8.56392 10.7211 8.20676 11.4485 8.06207C12.176 7.91737 12.93 7.99164 13.6152 8.27546C14.3004 8.55929 14.8861 9.03994 15.2981 9.65662C15.7102 10.2733 15.9301 10.9983 15.9301 11.74C15.9301 12.2325 15.8331 12.7201 15.6447 13.1751C15.4562 13.63 15.18 14.0434 14.8318 14.3917C14.4835 14.7399 14.0702 15.0161 13.6152 15.2046C13.1602 15.393 12.6726 15.49 12.1801 15.49ZM12.1801 9.36001C11.7094 9.36001 11.2492 9.4996 10.8579 9.76112C10.4665 10.0226 10.1614 10.3943 9.98128 10.8292C9.80115 11.2641 9.75402 11.7427 9.84585 12.2043C9.93768 12.666 10.1644 13.0901 10.4972 13.4229C10.8301 13.7558 11.2541 13.9824 11.7158 14.0743C12.1775 14.1661 12.656 14.119 13.0909 13.9388C13.5258 13.7587 13.8975 13.4537 14.159 13.0623C14.4205 12.6709 14.5601 12.2107 14.5601 11.74C14.5601 11.1088 14.3094 10.5034 13.863 10.0571C13.4167 9.61076 12.8113 9.36001 12.1801 9.36001ZM12.1801 22.79C9.57012 22.79 7.52012 21.38 7.52012 19.58C7.52012 17.78 9.57012 16.37 12.1801 16.37C14.7901 16.37 16.8401 17.78 16.8401 19.58C16.8401 21.38 14.7901 22.79 12.1801 22.79ZM12.1801 17.79C10.2701 17.79 8.94012 18.73 8.94012 19.58C8.94012 20.43 10.2701 21.37 12.1801 21.37C14.0901 21.37 15.4201 20.42 15.4201 19.58C15.4201 18.74 14.0901 17.79 12.1801 17.79ZM17.1801 7.99001C16.5109 7.98409 15.8585 7.78025 15.305 7.40417C14.7515 7.02809 14.3216 6.4966 14.0696 5.87666C13.8176 5.25672 13.7548 4.57607 13.889 3.92046C14.0231 3.26485 14.3483 2.66362 14.8236 2.19252C15.2989 1.72141 15.903 1.40151 16.5597 1.27312C17.2165 1.14473 17.8966 1.21359 18.5142 1.47103C19.1319 1.72847 19.6596 2.16297 20.0308 2.71978C20.402 3.2766 20.6001 3.93082 20.6001 4.60001C20.6014 5.04603 20.5147 5.48793 20.3449 5.90038C20.1752 6.31283 19.9257 6.68772 19.6108 7.00357C19.2958 7.31942 18.9217 7.57002 18.5097 7.74101C18.0978 7.912 17.6561 8.00001 17.2101 8.00001L17.1801 7.99001ZM17.1801 2.63001C16.7846 2.63001 16.3979 2.74731 16.069 2.96707C15.7401 3.18684 15.4837 3.49919 15.3324 3.86465C15.181 4.2301 15.1414 4.63223 15.2185 5.02019C15.2957 5.40816 15.4862 5.76452 15.7659 6.04423C16.0456 6.32393 16.402 6.51441 16.7899 6.59158C17.1779 6.66875 17.58 6.62915 17.9455 6.47777C18.3109 6.3264 18.6233 6.07005 18.8431 5.74115C19.0628 5.41225 19.1801 5.02558 19.1801 4.63001C19.1802 4.10474 18.9736 3.60052 18.605 3.2263C18.2364 2.85208 17.7353 2.63789 17.2101 2.63001H17.1801ZM7.12012 8.00001C6.45007 8.00001 5.79504 7.80144 5.23778 7.42938C4.68051 7.05732 4.24601 6.52847 3.98913 5.90961C3.73226 5.29075 3.66455 4.60965 3.79454 3.95233C3.92454 3.295 4.24641 2.69095 4.71951 2.21645C5.19261 1.74196 5.79572 1.41831 6.45265 1.28637C7.10959 1.15444 7.79089 1.22015 8.4105 1.4752C9.03011 1.73025 9.56025 2.1632 9.93394 2.71936C10.3076 3.27553 10.5081 3.92996 10.5101 4.60001C10.5114 5.04603 10.4247 5.48793 10.2549 5.90038C10.0852 6.31283 9.83567 6.68772 9.52075 7.00357C9.20583 7.31942 8.83168 7.57002 8.41973 7.74101C8.00778 7.912 7.56614 8.00001 7.12012 8.00001ZM7.12012 2.64001C6.72455 2.64001 6.33788 2.75731 6.00898 2.97707C5.68008 3.19684 5.42373 3.50919 5.27236 3.87465C5.12098 4.2401 5.08138 4.64223 5.15855 5.03019C5.23572 5.41816 5.4262 5.77452 5.7059 6.05423C5.98561 6.33393 6.34197 6.52441 6.72994 6.60158C7.1179 6.67875 7.52003 6.63915 7.88548 6.48777C8.25094 6.3364 8.56329 6.08005 8.78306 5.75115C9.00282 5.42226 9.12012 5.03558 9.12012 4.64001C9.12143 4.37653 9.07068 4.11538 8.97076 3.87157C8.87084 3.62777 8.72373 3.40611 8.53788 3.21933C8.35203 3.03255 8.13111 2.88434 7.8878 2.7832C7.6445 2.68207 7.3836 2.63001 7.12012 2.63001V2.64001ZM22.1201 11.94C22.1201 10.09 19.8901 8.64001 17.0501 8.64001C16.9491 8.62805 16.8467 8.63761 16.7497 8.66808C16.6527 8.69855 16.5632 8.74923 16.4872 8.81678C16.4112 8.88433 16.3503 8.96722 16.3086 9.05999C16.267 9.15276 16.2454 9.25331 16.2454 9.35501C16.2454 9.45671 16.267 9.55726 16.3086 9.65003C16.3503 9.7428 16.4112 9.8257 16.4872 9.89325C16.5632 9.9608 16.6527 10.0115 16.7497 10.0419C16.8467 10.0724 16.9491 10.082 17.0501 10.07C19.1901 10.07 20.6901 11.07 20.6901 11.94C20.6901 12.81 19.1901 13.82 17.0501 13.82C16.8618 13.82 16.6812 13.8948 16.5481 14.028C16.4149 14.1611 16.3401 14.3417 16.3401 14.53C16.3401 14.7183 16.4149 14.8989 16.5481 15.0321C16.6812 15.1652 16.8618 15.24 17.0501 15.24C19.9001 15.23 22.1301 13.79 22.1301 11.93L22.1201 11.94ZM7.66012 14.37C7.66013 14.2759 7.64144 14.1828 7.60513 14.096C7.56883 14.0092 7.51563 13.9305 7.44864 13.8644C7.38165 13.7983 7.30219 13.7462 7.21489 13.7112C7.1276 13.6761 7.03419 13.6587 6.94012 13.66C4.80012 13.66 3.30012 12.66 3.30012 11.78C3.30012 10.9 4.80012 9.91001 6.94012 9.91001C7.04111 9.92198 7.1435 9.91241 7.24053 9.88194C7.33755 9.85147 7.42703 9.8008 7.50306 9.73325C7.57908 9.6657 7.63993 9.5828 7.68161 9.49003C7.72328 9.39726 7.74482 9.29671 7.74482 9.19501C7.74482 9.09331 7.72328 8.99276 7.68161 8.89999C7.63993 8.80722 7.57908 8.72433 7.50306 8.65678C7.42703 8.58923 7.33755 8.53855 7.24053 8.50808C7.1435 8.47761 7.04111 8.46805 6.94012 8.48001C4.10012 8.48001 1.87012 9.93001 1.87012 11.78C1.87012 13.63 4.10012 15.08 6.94012 15.08C7.03419 15.0813 7.1276 15.064 7.21489 15.0289C7.30219 14.9938 7.38165 14.9417 7.44864 14.8756C7.51563 14.8096 7.56883 14.7308 7.60513 14.644C7.64144 14.5572 7.66013 14.4641 7.66012 14.37Z" fill="black"/>
</svg>
