<svg width="24" height="24" viewBox="0 0 24 24" fill="none" xmlns="http://www.w3.org/2000/svg">
<path d="M9.00023 15.75C8.90144 15.7522 8.80327 15.7338 8.71201 15.696C8.62075 15.6581 8.5384 15.6016 8.47023 15.53C8.32978 15.3894 8.25089 15.1988 8.25089 15C8.25089 14.8013 8.32978 14.6106 8.47023 14.47L14.4702 8.47002C14.6109 8.32957 14.8015 8.25068 15.0002 8.25068C15.199 8.25068 15.3896 8.32957 15.5302 8.47002C15.6707 8.61065 15.7496 8.80127 15.7496 9.00002C15.7496 9.19877 15.6707 9.38939 15.5302 9.53002L9.53022 15.53C9.46098 15.6001 9.37843 15.6557 9.28742 15.6935C9.19641 15.7313 9.09877 15.7505 9.00023 15.75ZM9.00023 8.00002C8.80244 8.00002 8.6091 8.05867 8.44465 8.16855C8.28021 8.27843 8.15203 8.43461 8.07635 8.61734C8.00066 8.80006 7.98085 9.00113 8.01944 9.19511C8.05803 9.38909 8.15327 9.56727 8.29312 9.70713C8.43297 9.84698 8.61115 9.94222 8.80514 9.98081C8.99912 10.0194 9.20018 9.99959 9.38291 9.9239C9.56563 9.84821 9.72181 9.72004 9.83169 9.55559C9.94158 9.39114 10.0002 9.1978 10.0002 9.00002C10.0002 8.7348 9.89487 8.48045 9.70733 8.29291C9.5198 8.10538 9.26544 8.00002 9.00023 8.00002ZM15.0002 14C14.8024 14 14.6091 14.0587 14.4447 14.1686C14.2802 14.2784 14.152 14.4346 14.0763 14.6173C14.0007 14.8001 13.9809 15.0011 14.0194 15.1951C14.058 15.3891 14.1533 15.5673 14.2931 15.7071C14.433 15.847 14.6112 15.9422 14.8051 15.9808C14.9991 16.0194 15.2002 15.9996 15.3829 15.9239C15.5656 15.8482 15.7218 15.72 15.8317 15.5556C15.9416 15.3911 16.0002 15.1978 16.0002 15C16.0002 14.7348 15.8949 14.4804 15.7073 14.2929C15.5198 14.1054 15.2654 14 15.0002 14ZM8.00023 22.77C7.11821 22.7766 6.24356 22.6092 5.42629 22.2775C4.60902 21.9457 3.86518 21.4561 3.23732 20.8366C2.60946 20.2171 2.1099 19.4799 1.76722 18.6671C1.42454 17.8544 1.24546 16.982 1.24023 16.1L1.20023 8.00002C1.1949 6.22386 1.89401 4.51805 3.14431 3.25651C4.39461 1.99496 6.09409 1.2806 7.87023 1.27002H16.0102C17.783 1.25933 19.4879 1.9506 20.7526 3.19285C22.0174 4.4351 22.7391 6.12737 22.7602 7.90002V15.98C22.7682 17.7588 22.0706 19.4683 20.8203 20.7336C19.57 21.9989 17.869 22.7168 16.0902 22.73L8.00023 22.77ZM16.0002 2.73002H7.86023C6.47752 2.74585 5.15758 3.30967 4.19016 4.29771C3.22274 5.28576 2.68689 6.61729 2.70023 8.00002V16.08C2.70411 16.7698 2.84466 17.4519 3.11374 18.087C3.38283 18.7221 3.77513 19.2976 4.26795 19.7802C4.76078 20.2628 5.34436 20.643 5.98498 20.8987C6.6256 21.1544 7.31054 21.2806 8.00023 21.27H16.1402C17.5229 21.2542 18.8429 20.6904 19.8103 19.7023C20.7777 18.7143 21.3136 17.3828 21.3002 16V7.92002C21.298 7.23609 21.1598 6.55944 20.8937 5.9294C20.6276 5.29936 20.2389 4.7285 19.7502 4.25002C19.2619 3.75423 18.6773 3.36361 18.0324 3.1022C17.3875 2.8408 16.6959 2.71414 16.0002 2.73002Z" fill="black"/>
</svg>
