<svg width="24" height="24" viewBox="0 0 24 24" fill="none" xmlns="http://www.w3.org/2000/svg">
<path d="M15.6998 22.75H8.29979C7.36703 22.7474 6.47324 22.3757 5.81368 21.7161C5.15413 21.0565 4.78242 20.1628 4.77979 19.23V4.77C4.78242 3.83725 5.15413 2.94346 5.81368 2.2839C6.47324 1.62434 7.36703 1.25264 8.29979 1.25H15.6998C16.6325 1.25264 17.5263 1.62434 18.1859 2.2839C18.8454 2.94346 19.2171 3.83725 19.2198 4.77V19.23C19.2171 20.1628 18.8454 21.0565 18.1859 21.7161C17.5263 22.3757 16.6325 22.7474 15.6998 22.75ZM8.29979 2.75C7.76935 2.75 7.26064 2.96071 6.88557 3.33579C6.5105 3.71086 6.29979 4.21957 6.29979 4.75V19.23C6.29979 19.7604 6.5105 20.2691 6.88557 20.6442C7.26064 21.0193 7.76935 21.23 8.29979 21.23H15.6998C16.2302 21.23 16.7389 21.0193 17.114 20.6442C17.4891 20.2691 17.6998 19.7604 17.6998 19.23V4.77C17.6998 4.23957 17.4891 3.73086 17.114 3.35579C16.7389 2.98071 16.2302 2.77 15.6998 2.77L8.29979 2.75ZM8.99978 4.41C8.77785 4.41001 8.56091 4.47596 8.37652 4.59947C8.19213 4.72299 8.04859 4.8985 7.96412 5.10374C7.87965 5.30897 7.85806 5.53468 7.90209 5.75221C7.94613 5.96973 8.05379 6.16927 8.21143 6.3255C8.36907 6.48173 8.56956 6.58761 8.78748 6.62968C9.00539 6.67176 9.23089 6.64815 9.43537 6.56185C9.63984 6.47554 9.81406 6.33043 9.93591 6.14494C10.0578 5.95945 10.1218 5.74193 10.1198 5.52C10.1171 5.22469 9.99798 4.94238 9.78823 4.7345C9.57847 4.52661 9.2951 4.40999 8.99978 4.41Z" fill="black"/>
</svg>
