<svg width="24" height="24" viewBox="0 0 24 24" fill="none" xmlns="http://www.w3.org/2000/svg">
<path d="M22.76 7.89998C22.7494 6.12732 22.0378 4.43086 20.7806 3.18113C19.5233 1.9314 17.8227 1.22995 16.05 1.22998H7.90998C7.02373 1.22995 6.14627 1.40547 5.32823 1.74643C4.5102 2.08738 3.76782 2.58701 3.14395 3.21646C2.52008 3.84591 2.02708 4.59271 1.69342 5.41374C1.35976 6.23478 1.19205 7.11377 1.19998 7.99998V16.08C1.20254 16.9671 1.38099 17.8449 1.72499 18.6626C2.06899 19.4803 2.57173 20.2217 3.20411 20.8438C3.83648 21.466 4.58595 21.9565 5.40915 22.2872C6.23235 22.6178 7.11294 22.7819 7.99998 22.77H16.14C17.022 22.7634 17.8941 22.5831 18.7063 22.2392C19.5186 21.8953 20.2551 21.3946 20.8736 20.7658C21.4922 20.137 21.9807 19.3925 22.3113 18.5747C22.6418 17.7569 22.8079 16.882 22.8 16L22.76 7.89998ZM19.76 19.68C19.2808 20.1678 18.7098 20.5559 18.0799 20.8219C17.4501 21.0879 16.7737 21.2266 16.09 21.23L7.99998 21.27C6.62338 21.27 5.30272 20.7252 4.32652 19.7546C3.35031 18.784 2.7979 17.4666 2.78998 16.09L2.69998 7.99998C2.69729 6.62072 3.24059 5.29646 4.21118 4.3165C5.18177 3.33654 6.50075 2.78055 7.87998 2.76998H16.02C16.7044 2.75793 17.3843 2.88463 18.0185 3.14243C18.6526 3.40022 19.228 3.78378 19.71 4.26998C20.1981 4.75099 20.5863 5.32373 20.8523 5.95527C21.1183 6.58681 21.2568 7.26471 21.26 7.94998V16.03C21.2713 17.3931 20.7429 18.7052 19.79 19.68H19.76ZM14.76 12.26C14.7586 12.3239 14.7701 12.3873 14.7936 12.4467C14.8171 12.5061 14.8523 12.5602 14.897 12.6059C14.9417 12.6515 14.995 12.6878 15.0539 12.7125C15.1128 12.7373 15.1761 12.75 15.24 12.75C15.7704 12.75 16.2791 12.9607 16.6542 13.3358C17.0293 13.7108 17.24 14.2195 17.24 14.75C17.24 15.2804 17.0293 15.7891 16.6542 16.1642C16.2791 16.5393 15.7704 16.75 15.24 16.75H14.08C13.8811 16.75 13.6903 16.671 13.5496 16.5303C13.409 16.3897 13.33 16.1989 13.33 16C13.33 15.8011 13.409 15.6103 13.5496 15.4697C13.6903 15.329 13.8811 15.25 14.08 15.25H15.31C15.4426 15.25 15.5698 15.1973 15.6635 15.1035C15.7573 15.0098 15.81 14.8826 15.81 14.75C15.81 14.6174 15.7573 14.4902 15.6635 14.3964C15.5698 14.3027 15.4426 14.25 15.31 14.25C14.7795 14.25 14.2708 14.0393 13.8958 13.6642C13.5207 13.2891 13.31 12.7804 13.31 12.25C13.31 11.7195 13.5207 11.2108 13.8958 10.8358C14.2708 10.4607 14.7795 10.25 15.31 10.25H16.55C16.7489 10.25 16.9397 10.329 17.0803 10.4697C17.221 10.6103 17.3 10.8011 17.3 11C17.3 11.1989 17.221 11.3897 17.0803 11.5303C16.9397 11.671 16.7489 11.75 16.55 11.75H15.31C15.2443 11.7499 15.1794 11.7632 15.1191 11.7892C15.0588 11.8151 15.0045 11.8532 14.9595 11.901C14.9145 11.9488 14.8798 12.0053 14.8575 12.0671C14.8352 12.1288 14.8259 12.1945 14.83 12.26H14.76ZM9.38998 7.25998H7.38998C7.20875 7.28188 7.04174 7.36912 6.92024 7.50535C6.79874 7.64158 6.73109 7.81744 6.72998 7.99998V16C6.72998 16.1989 6.80899 16.3897 6.94965 16.5303C7.0903 16.671 7.28106 16.75 7.47998 16.75C7.67889 16.75 7.86965 16.671 8.01031 16.5303C8.15096 16.3897 8.22997 16.1989 8.22997 16V12.71H9.45998C10.1814 12.71 10.8732 12.4234 11.3833 11.9133C11.8934 11.4032 12.18 10.7114 12.18 9.98998C12.18 9.26859 11.8934 8.57675 11.3833 8.06665C10.8732 7.55655 10.1814 7.26998 9.45998 7.26998L9.38998 7.25998ZM9.38998 11.2H8.22997V8.76998H9.45998C9.78354 8.76998 10.0939 8.89852 10.3226 9.12731C10.5514 9.3561 10.68 9.66642 10.68 9.98998C10.68 10.3135 10.5514 10.6239 10.3226 10.8527C10.0939 11.0814 9.78354 11.21 9.45998 11.21L9.38998 11.2Z" fill="black"/>
</svg>
