<svg width="24" height="24" viewBox="0 0 24 24" fill="none" xmlns="http://www.w3.org/2000/svg">
<path d="M16.1101 1.25H7.89007C6.11651 1.2711 4.42321 1.99252 3.17937 3.25696C1.93553 4.52141 1.24203 6.22633 1.25007 8V16C1.24982 16.8563 1.41272 17.7047 1.73007 18.5C1.8411 18.7869 1.97486 19.0644 2.13007 19.33L2.23007 19.51C2.36007 19.72 2.49007 19.91 2.63007 20.1L2.80007 20.32C2.95007 20.5 3.11007 20.67 3.27007 20.83L3.56007 21.1L3.94007 21.4C4.08007 21.51 4.23007 21.61 4.38007 21.71C4.53007 21.81 4.69007 21.9 4.84007 21.98L5.16007 22.14C5.37007 22.23 5.58007 22.32 5.80007 22.39L6.01007 22.46C6.25297 22.532 6.50012 22.5887 6.75007 22.63H6.99007C7.28484 22.6732 7.58217 22.6966 7.88007 22.7H16.1001C17.8667 22.6816 19.555 21.9682 20.7996 20.7143C22.0442 19.4604 22.7449 17.7667 22.7501 16V8C22.7581 6.22633 22.0646 4.52141 20.8208 3.25696C19.5769 1.99252 17.8836 1.2711 16.1101 1.25ZM21.2501 16C21.2567 16.6816 21.1289 17.3578 20.8742 17.99C20.6195 18.6222 20.2427 19.198 19.7654 19.6846C19.2881 20.1712 18.7196 20.559 18.0924 20.8259C17.4652 21.0927 16.7916 21.2335 16.1101 21.24H7.89007C7.59149 21.2336 7.29389 21.2035 7.00007 21.15H6.79007C6.18712 21.0112 5.61446 20.7638 5.10007 20.42L5.00007 20.3C4.76098 20.1293 4.53684 19.9387 4.33007 19.73C4.08663 19.5059 3.8625 19.2617 3.66007 19L3.56007 18.83C3.49007 18.72 3.43007 18.59 3.37007 18.47L6.37007 16.04C6.81211 15.6773 7.37036 15.4867 7.94191 15.5032C8.51345 15.5198 9.05974 15.7424 9.48007 16.13C9.77259 16.3979 10.1153 16.6051 10.4885 16.7397C10.8616 16.8742 11.2577 16.9335 11.6539 16.9139C12.0501 16.8944 12.4384 16.7965 12.7965 16.6259C13.1546 16.4553 13.4753 16.2154 13.7401 15.92L15.7401 13.74C15.958 13.4975 16.2233 13.3021 16.5195 13.1659C16.8158 13.0298 17.1368 12.9556 17.4628 12.9482C17.7888 12.9407 18.1128 12.9999 18.415 13.1224C18.7172 13.2448 18.9912 13.4278 19.2201 13.66L21.2801 15.75L21.2501 16ZM21.2501 13.57L20.2501 12.57C19.8789 12.193 19.4347 11.8957 18.9446 11.6962C18.4546 11.4968 17.929 11.3994 17.4001 11.41C16.8711 11.4207 16.3502 11.5408 15.87 11.7628C15.3898 11.9849 14.9608 12.3039 14.6101 12.7L12.6101 14.87C12.477 15.0198 12.3155 15.1417 12.1349 15.2285C11.9543 15.3152 11.7582 15.3652 11.5581 15.3754C11.358 15.3857 11.1579 15.356 10.9693 15.2881C10.7808 15.2202 10.6077 15.1155 10.4601 14.98C9.78013 14.3655 8.90372 14.013 7.98765 13.9855C7.07158 13.958 6.17562 14.2574 5.46007 14.83L2.84007 16.92C2.77991 16.617 2.74977 16.3089 2.75007 16V8C2.74207 6.62696 3.27849 5.3067 4.24187 4.32832C5.20525 3.34995 6.51707 2.7932 7.89007 2.78H16.1101C17.4831 2.7932 18.7949 3.34995 19.7583 4.32832C20.7216 5.3067 21.2581 6.62696 21.2501 8V13.57ZM7.79007 5.32C7.23426 5.31007 6.68807 5.46581 6.22109 5.76739C5.7541 6.06896 5.38745 6.50271 5.16783 7.01339C4.94822 7.52407 4.88559 8.08856 4.98791 8.63496C5.09024 9.18136 5.35289 9.68493 5.74241 10.0815C6.13194 10.4781 6.6307 10.7498 7.17516 10.862C7.71963 10.9741 8.28516 10.9217 8.79971 10.7113C9.31427 10.5009 9.75455 10.1421 10.0645 9.68067C10.3744 9.21919 10.54 8.6759 10.5401 8.12C10.544 7.7554 10.476 7.3936 10.3398 7.05537C10.2036 6.71713 10.002 6.40911 9.74648 6.14897C9.49099 5.88883 9.18665 5.68169 8.85092 5.53944C8.51519 5.39718 8.15468 5.32261 7.79007 5.32ZM7.79007 9.4C7.53439 9.414 7.28039 9.351 7.06089 9.21913C6.8414 9.08727 6.6665 8.8926 6.5588 8.66029C6.4511 8.42798 6.41555 8.1687 6.45675 7.91598C6.49794 7.66325 6.61399 7.42869 6.7899 7.24261C6.9658 7.05653 7.19347 6.92749 7.44348 6.87216C7.69349 6.81682 7.95436 6.83775 8.19235 6.93223C8.43034 7.02671 8.63453 7.1904 8.77852 7.40214C8.92251 7.61388 8.99969 7.86394 9.00007 8.12C9.00302 8.44841 8.87864 8.76519 8.65303 9.00385C8.42742 9.24251 8.11812 9.3845 7.79007 9.4Z" fill="black"/>
</svg>
