<svg width="24" height="24" viewBox="0 0 24 24" fill="none" xmlns="http://www.w3.org/2000/svg">
<path d="M11.9999 1.32995C9.22566 1.31714 6.55742 2.39449 4.56986 4.32995H4.51986C2.74183 6.04954 1.61648 8.33346 1.33628 10.7911C1.05608 13.2487 1.63844 15.7273 2.98376 17.803C4.32908 19.8787 6.35378 21.4225 8.71155 22.1704C11.0693 22.9183 13.6137 22.8237 15.9095 21.903C18.2052 20.9822 20.1098 19.2924 21.2974 17.1226C22.485 14.9528 22.8818 12.4378 22.42 10.0077C21.9582 7.57769 20.6665 5.38357 18.7657 3.80066C16.865 2.21774 14.4734 1.34438 11.9999 1.32995ZM11.9999 21.1699C10.2411 21.1733 8.51854 20.6702 7.03801 19.7208C5.55748 18.7714 4.38156 17.4159 3.65076 15.8161C2.91995 14.2164 2.66515 12.44 2.9168 10.6993C3.16845 8.95866 3.9159 7.32723 5.06986 5.99995L16.2499 17.4199C16.321 17.4904 16.4053 17.546 16.4979 17.5838C16.5906 17.6215 16.6898 17.6406 16.7899 17.6399C16.9869 17.6403 17.1766 17.5652 17.3199 17.4299C17.4603 17.2893 17.5392 17.0987 17.5392 16.8999C17.5392 16.7012 17.4603 16.5106 17.3199 16.3699L6.12986 4.99995C7.25816 4.0452 8.60053 3.37734 10.0426 3.05325C11.4847 2.72917 12.9837 2.75847 14.412 3.13866C15.8403 3.51885 17.1556 4.23866 18.2457 5.23676C19.3358 6.23487 20.1685 7.4817 20.6729 8.87103C21.1772 10.2604 21.3383 11.751 21.1423 13.216C20.9463 14.681 20.3991 16.0769 19.5473 17.2848C18.6955 18.4927 17.5644 19.4768 16.2502 20.1533C14.9361 20.8298 13.4779 21.1786 11.9999 21.1699Z" fill="black"/>
</svg>
