<svg width="24" height="24" viewBox="0 0 24 24" fill="none" xmlns="http://www.w3.org/2000/svg">
<path d="M22.1898 7.60001L16.3998 1.81001C16.0614 1.48781 15.6121 1.30811 15.1448 1.30811C14.6776 1.30811 14.2282 1.48781 13.8898 1.81001L13.1698 2.53001C12.8382 2.86352 12.6521 3.31471 12.6521 3.78501C12.6521 4.25531 12.8382 4.7065 13.1698 5.04001L13.3598 5.23001L11.0898 7.51001C10.0556 7.10938 8.93987 6.96471 7.83769 7.08834C6.73551 7.21196 5.67955 7.60021 4.7598 8.22001C4.44478 8.43476 4.18106 8.7164 3.98745 9.04484C3.79385 9.37327 3.67514 9.7404 3.6398 10.12C3.60058 10.4945 3.64579 10.8731 3.77212 11.2279C3.89845 11.5826 4.10268 11.9046 4.3698 12.17L6.1298 13.92L3.1298 16.92C2.53193 17.5152 2.08011 18.2409 1.8098 19.04L1.4198 20.23C1.32663 20.5085 1.30074 20.8052 1.34426 21.0957C1.38778 21.3861 1.49947 21.6622 1.67019 21.9012C1.8409 22.1402 2.06579 22.3353 2.32644 22.4707C2.5871 22.6061 2.8761 22.6778 3.1698 22.68C3.37403 22.681 3.57693 22.6471 3.7698 22.58L4.9598 22.19C5.7454 21.9243 6.46015 21.4832 7.0498 20.9L10.0498 17.9L11.7998 19.66C12.2827 20.1346 12.9327 20.4004 13.6098 20.4H13.8498C14.2294 20.3647 14.5965 20.246 14.925 20.0524C15.2534 19.8588 15.5351 19.595 15.7498 19.28C16.3696 18.3603 16.7579 17.3043 16.8815 16.2021C17.0051 15.0999 16.8604 13.9842 16.4598 12.95L18.7398 10.68L18.9298 10.87C19.2633 11.2016 19.7145 11.3877 20.1848 11.3877C20.6551 11.3877 21.1063 11.2016 21.4398 10.87L22.1598 10.15C22.3264 9.98545 22.4582 9.78915 22.5475 9.57272C22.6368 9.35629 22.6818 9.12414 22.6798 8.89001C22.691 8.65287 22.6533 8.41597 22.569 8.19404C22.4847 7.97211 22.3556 7.76991 22.1898 7.60001ZM5.9998 19.84C5.56781 20.2727 5.04036 20.5981 4.4598 20.79L3.2698 21.19C3.20725 21.2093 3.14064 21.2111 3.07712 21.1953C3.0136 21.1796 2.95558 21.1468 2.9093 21.1005C2.86303 21.0542 2.83024 20.9962 2.81447 20.9327C2.7987 20.8692 2.80054 20.8026 2.8198 20.74L3.2198 19.55C3.42617 18.9646 3.76895 18.4367 4.2198 18.01L7.2198 15.01L8.9998 16.81L5.9998 19.84ZM21.1298 9.05001L20.4098 9.77001C20.3846 9.79633 20.3543 9.81727 20.3208 9.83158C20.2873 9.84589 20.2512 9.85326 20.2148 9.85326C20.1784 9.85326 20.1423 9.84589 20.1088 9.83158C20.0753 9.81727 20.045 9.79633 20.0198 9.77001L19.2998 9.05001C19.2309 8.97925 19.1484 8.92302 19.0574 8.88462C18.9664 8.84622 18.8686 8.82644 18.7698 8.82644C18.671 8.82644 18.5732 8.84622 18.4822 8.88462C18.3912 8.92302 18.3087 8.97925 18.2398 9.05001L15.0798 12.21C14.9677 12.3173 14.8927 12.4576 14.8657 12.6105C14.8387 12.7633 14.8612 12.9208 14.9298 13.06C15.3327 13.9077 15.5086 14.8455 15.4402 15.7815C15.3719 16.7176 15.0616 17.6199 14.5398 18.4C14.4503 18.5334 14.3319 18.6449 14.1934 18.7262C14.0549 18.8076 13.8999 18.8567 13.7398 18.87C13.5861 18.8884 13.4303 18.8709 13.2845 18.8189C13.1387 18.7668 13.0071 18.6816 12.8998 18.57L10.6098 16.28L7.7198 13.39L5.4298 11.1C5.3182 10.9928 5.23302 10.8611 5.18096 10.7153C5.1289 10.5695 5.11139 10.4137 5.1298 10.26C5.14308 10.0999 5.19222 9.94491 5.27358 9.80642C5.35494 9.66792 5.46644 9.54953 5.5998 9.46001C6.4865 8.86392 7.53137 8.54698 8.5998 8.55001C9.40532 8.54935 10.201 8.72693 10.9298 9.07001C11.069 9.13862 11.2265 9.16107 11.3793 9.13409C11.5322 9.10712 11.6725 9.03213 11.7798 8.92001L14.9998 5.76001C15.0706 5.69106 15.1268 5.60865 15.1652 5.51762C15.2036 5.4266 15.2234 5.3288 15.2234 5.23001C15.2234 5.13122 15.2036 5.03342 15.1652 4.9424C15.1268 4.85137 15.0706 4.76896 14.9998 4.70001L14.2298 4.00001C14.2035 3.97481 14.1825 3.94454 14.1682 3.91102C14.1539 3.87751 14.1466 3.84145 14.1466 3.80501C14.1466 3.76857 14.1539 3.73251 14.1682 3.699C14.1825 3.66548 14.2035 3.63521 14.2298 3.61001L14.9998 2.87001C15.0205 2.83695 15.0492 2.80969 15.0833 2.79079C15.1175 2.77189 15.1558 2.76197 15.1948 2.76197C15.2338 2.76197 15.2722 2.77189 15.3063 2.79079C15.3404 2.80969 15.3691 2.83695 15.3898 2.87001L21.1798 8.66001C21.2306 8.71027 21.2593 8.77859 21.2598 8.85001C21.2536 8.89066 21.2387 8.92951 21.2163 8.964C21.1939 8.99848 21.1644 9.0278 21.1298 9.05001Z" fill="black"/>
</svg>
