<svg width="24" height="24" viewBox="0 0 24 24" fill="none" xmlns="http://www.w3.org/2000/svg">
<path d="M12 2.65C13.8493 2.65 15.657 3.19837 17.1946 4.22576C18.7322 5.25315 19.9306 6.71342 20.6383 8.42191C21.346 10.1304 21.5311 12.0104 21.1703 13.8241C20.8096 15.6378 19.9191 17.3038 18.6115 18.6114C17.3038 19.9191 15.6378 20.8096 13.8241 21.1703C12.0104 21.5311 10.1304 21.346 8.42192 20.6383C6.71343 19.9306 5.25315 18.7322 4.22576 17.1946C3.19837 15.657 2.65 13.8493 2.65 12C2.65 9.52023 3.63509 7.14202 5.38856 5.38855C7.14202 3.63509 9.52023 2.65 12 2.65ZM7.33 12.93H11.07V16.67C11.07 16.9167 11.168 17.1532 11.3424 17.3276C11.5168 17.502 11.7534 17.6 12 17.6C12.2467 17.6 12.4832 17.502 12.6576 17.3276C12.832 17.1532 12.93 16.9167 12.93 16.67V12.93H16.67C16.9167 12.93 17.1532 12.832 17.3276 12.6576C17.502 12.4832 17.6 12.2467 17.6 12C17.6 11.7533 17.502 11.5168 17.3276 11.3424C17.1532 11.168 16.9167 11.07 16.67 11.07H12.93V7.33C12.93 7.08335 12.832 6.8468 12.6576 6.67239C12.4832 6.49798 12.2467 6.4 12 6.4C11.7534 6.4 11.5168 6.49798 11.3424 6.67239C11.168 6.8468 11.07 7.08335 11.07 7.33V11.07H7.33C7.08335 11.07 6.8468 11.168 6.6724 11.3424C6.49799 11.5168 6.4 11.7533 6.4 12C6.4 12.2467 6.49799 12.4832 6.6724 12.6576C6.8468 12.832 7.08335 12.93 7.33 12.93ZM12 1.25C9.87386 1.25 7.79545 1.88048 6.02762 3.0617C4.2598 4.24293 2.88194 5.92185 2.0683 7.88615C1.25466 9.85046 1.04177 12.0119 1.45656 14.0972C1.87135 16.1825 2.89519 18.098 4.39861 19.6014C5.90202 21.1048 7.81749 22.1287 9.90278 22.5434C11.9881 22.9582 14.1495 22.7453 16.1139 21.9317C18.0782 21.1181 19.7571 19.7402 20.9383 17.9724C22.1195 16.2046 22.75 14.1261 22.75 12C22.7474 9.14974 21.6139 6.41697 19.5985 4.40153C17.583 2.38608 14.8503 1.25265 12 1.25Z" fill="black"/>
</svg>
