<svg width="24" height="24" viewBox="0 0 24 24" fill="none" xmlns="http://www.w3.org/2000/svg">
<path d="M22.1702 5.9L21.0002 4.13C20.8176 3.85998 20.5719 3.63865 20.2843 3.48528C19.9968 3.33191 19.6761 3.25114 19.3502 3.25H14.7502C14.7502 2.71957 14.5394 2.21086 14.1644 1.83579C13.7893 1.46071 13.2806 1.25 12.7502 1.25H11.2902C10.7597 1.25 10.251 1.46071 9.87595 1.83579C9.50087 2.21086 9.29016 2.71957 9.29016 3.25V9.25H4.66016C4.33255 9.24951 4.00984 9.3295 3.72039 9.48294C3.43094 9.63638 3.18362 9.85858 3.00016 10.13L1.83016 11.9C1.6151 12.2266 1.50049 12.609 1.50049 13C1.50049 13.391 1.6151 13.7734 1.83016 14.1L3.00016 15.87C3.18267 16.14 3.4284 16.3613 3.71598 16.5147C4.00355 16.6681 4.32425 16.7489 4.65016 16.75H9.25016V20.75C9.25016 21.2804 9.46087 21.7891 9.83595 22.1642C10.211 22.5393 10.7197 22.75 11.2502 22.75H12.6702C13.2006 22.75 13.7093 22.5393 14.0844 22.1642C14.4594 21.7891 14.6702 21.2804 14.6702 20.75V10.75H19.2602C19.6012 10.764 19.9401 10.6904 20.2447 10.5364C20.5492 10.3824 20.8093 10.153 21.0002 9.87L22.1702 8.1C22.3852 7.77344 22.4998 7.39101 22.4998 7C22.4998 6.60899 22.3852 6.22656 22.1702 5.9ZM4.66016 15.25C4.58029 15.2503 4.50164 15.2303 4.43165 15.1918C4.36167 15.1533 4.30264 15.0976 4.26016 15.03L3.08016 13.27C3.02599 13.1904 2.99702 13.0963 2.99702 13C2.99702 12.9037 3.02599 12.8096 3.08016 12.73L4.26016 11C4.30264 10.9324 4.36167 10.8767 4.43165 10.8382C4.50164 10.7997 4.58029 10.7797 4.66016 10.78H9.25016V15.28L4.66016 15.25ZM13.2502 20.71C13.2502 20.8532 13.1933 20.9906 13.092 21.0918C12.9907 21.1931 12.8534 21.25 12.7102 21.25H11.2902C11.1469 21.25 11.0096 21.1931 10.9083 21.0918C10.8071 20.9906 10.7502 20.8532 10.7502 20.71V3.29C10.7502 3.14678 10.8071 3.00943 10.9083 2.90816C11.0096 2.80689 11.1469 2.75 11.2902 2.75H12.7102C12.8534 2.75 12.9907 2.80689 13.092 2.90816C13.1933 3.00943 13.2502 3.14678 13.2502 3.29V20.71ZM20.9202 7.27L19.7402 9C19.6977 9.06764 19.6387 9.12333 19.5687 9.16183C19.4987 9.20032 19.42 9.22034 19.3402 9.22H14.7502V4.75H19.3402C19.42 4.74966 19.4987 4.76968 19.5687 4.80817C19.6387 4.84667 19.6977 4.90236 19.7402 4.97L20.9202 6.73C20.9743 6.80962 21.0033 6.9037 21.0033 7C21.0033 7.0963 20.9743 7.19038 20.9202 7.27Z" fill="black"/>
</svg>
