<svg width="24" height="25" viewBox="0 0 24 25" fill="none" xmlns="http://www.w3.org/2000/svg">
<path d="M12.12 22.51C11.431 22.5157 10.7477 22.3853 10.1093 22.1262C9.47094 21.867 8.89004 21.4843 8.4 21L3.84 16.4C3.28978 15.853 2.85767 15.1989 2.57042 14.4782C2.28317 13.7575 2.14688 12.9855 2.17 12.21L2.31 7.12999C2.34001 5.95908 2.81652 4.84393 3.64196 4.01292C4.4674 3.1819 5.57931 2.69789 6.75 2.65999L11.75 2.48999C12.5356 2.4573 13.3194 2.58895 14.0512 2.87651C14.783 3.16408 15.4468 3.60122 16 4.15999L20.6 8.76999C21.5838 9.75608 22.1362 11.0921 22.1362 12.485C22.1362 13.8779 21.5838 15.2139 20.6 16.2L15.83 21C15.3415 21.4836 14.7623 21.8659 14.1256 22.125C13.4889 22.3841 12.8074 22.515 12.12 22.51ZM12 3.99999H11.86L6.86 4.16999C6.07073 4.19024 5.31938 4.51281 4.7611 5.07109C4.20282 5.62937 3.88024 6.38073 3.86 7.16999L3.72 12.26C3.69513 12.8268 3.78704 13.3927 3.99003 13.9226C4.19302 14.4524 4.50275 14.9349 4.9 15.34L9.46 19.91C10.1747 20.594 11.1258 20.9757 12.115 20.9757C13.1042 20.9757 14.0553 20.594 14.77 19.91L19.54 15.14C20.2404 14.4339 20.6335 13.4796 20.6335 12.485C20.6335 11.4904 20.2404 10.5361 19.54 9.82999L14.93 5.21999C14.1517 4.44393 13.0991 4.00564 12 3.99999ZM9.73 13.47C9.14515 13.4717 8.56894 13.3289 8.05258 13.0543C7.53622 12.7796 7.09571 12.3817 6.77021 11.8958C6.44471 11.4099 6.2443 10.8511 6.1868 10.2691C6.12929 9.68704 6.21647 9.09983 6.44059 8.55963C6.66471 8.01942 7.01882 7.54296 7.47145 7.17258C7.92408 6.80221 8.46121 6.5494 9.03508 6.43663C9.60896 6.32386 10.2018 6.35462 10.7609 6.52617C11.3201 6.69773 11.8281 7.00477 12.24 7.41999C12.7379 7.91512 13.0772 8.54711 13.215 9.23561C13.3527 9.92411 13.2826 10.638 13.0135 11.2866C12.7444 11.9351 12.2886 12.489 11.7039 12.8778C11.1192 13.2666 10.4321 13.4727 9.73 13.47ZM9.73 7.87999C9.32256 7.87005 8.92141 7.98178 8.57778 8.20091C8.23415 8.42004 7.96363 8.73662 7.80077 9.11023C7.63792 9.48383 7.59012 9.8975 7.66348 10.2984C7.73685 10.6993 7.92804 11.0692 8.21265 11.3609C8.49725 11.6527 8.86235 11.8529 9.26131 11.9362C9.66028 12.0194 10.075 11.9818 10.4525 11.8283C10.83 11.6747 11.1532 11.4121 11.3807 11.0739C11.6083 10.7358 11.7299 10.3375 11.73 9.92999C11.7329 9.66034 11.6813 9.39287 11.5781 9.14369C11.475 8.89451 11.3226 8.66875 11.13 8.47999C10.7577 8.10761 10.2564 7.89277 9.73 7.87999ZM13.13 17.28L17.08 13.28C17.1508 13.211 17.207 13.1286 17.2454 13.0376C17.2838 12.9466 17.3036 12.8488 17.3036 12.75C17.3036 12.6512 17.2838 12.5534 17.2454 12.4624C17.207 12.3714 17.1508 12.2889 17.08 12.22C16.9394 12.0795 16.7487 12.0007 16.55 12.0007C16.3512 12.0007 16.1606 12.0795 16.02 12.22L12.02 16.22C11.8795 16.3606 11.8007 16.5512 11.8007 16.75C11.8007 16.9487 11.8795 17.1394 12.02 17.28C12.1623 17.4211 12.3546 17.5002 12.555 17.5002C12.7554 17.5002 12.9477 17.4211 13.09 17.28H13.13Z" fill="black"/>
</svg>
