<svg width="24" height="24" viewBox="0 0 24 24" fill="none" xmlns="http://www.w3.org/2000/svg">
<path d="M10 11.75H7C6.80109 11.75 6.61032 11.671 6.46967 11.5303C6.32902 11.3897 6.25 11.1989 6.25 11C6.25 10.8011 6.32902 10.6103 6.46967 10.4697C6.61032 10.329 6.80109 10.25 7 10.25H10C10.1989 10.25 10.3897 10.329 10.5303 10.4697C10.671 10.6103 10.75 10.8011 10.75 11C10.75 11.1989 10.671 11.3897 10.5303 11.5303C10.3897 11.671 10.1989 11.75 10 11.75ZM21.75 9.8V15.2C21.75 16.1415 21.376 17.0445 20.7102 17.7102C20.0445 18.376 19.1415 18.75 18.2 18.75H16.75V18.92C16.7474 19.935 16.343 20.9076 15.6253 21.6253C14.9076 22.343 13.935 22.7474 12.92 22.75H11.08C10.065 22.7474 9.09239 22.343 8.3747 21.6253C7.657 20.9076 7.25264 19.935 7.25 18.92V18.75H5.8C4.85848 18.75 3.95552 18.376 3.28977 17.7102C2.62402 17.0445 2.25 16.1415 2.25 15.2V9.8C2.25 8.85848 2.62402 7.95553 3.28977 7.28977C3.95552 6.62402 4.85848 6.25 5.8 6.25H6.25V5.25C6.25 4.18913 6.67143 3.17172 7.42157 2.42157C8.17172 1.67143 9.18913 1.25 10.25 1.25H13.75C14.8109 1.25 15.8283 1.67143 16.5784 2.42157C17.3286 3.17172 17.75 4.18913 17.75 5.25V6.25H18.2C19.1415 6.25 20.0445 6.62402 20.7102 7.28977C21.376 7.95553 21.75 8.85848 21.75 9.8ZM7.75 6.25H16.25V5.25C16.25 4.58696 15.9866 3.95107 15.5178 3.48223C15.0489 3.01339 14.413 2.75 13.75 2.75H10.25C9.58696 2.75 8.95107 3.01339 8.48223 3.48223C8.01339 3.95107 7.75 4.58696 7.75 5.25V6.25ZM15.25 15.75H8.75V18.92C8.75263 19.5371 8.99896 20.1283 9.43535 20.5647C9.87174 21.001 10.4629 21.2474 11.08 21.25H12.92C13.5371 21.2474 14.1283 21.001 14.5647 20.5647C15.001 20.1283 15.2474 19.5371 15.25 18.92V15.75ZM20.25 9.8C20.25 9.25631 20.034 8.73488 19.6496 8.35043C19.2651 7.96598 18.7437 7.75 18.2 7.75H5.8C5.26502 7.76305 4.75635 7.98478 4.38265 8.36783C4.00895 8.75087 3.79984 9.26486 3.8 9.8V15.2C3.79984 15.7351 4.00895 16.2491 4.38265 16.6322C4.75635 17.0152 5.26502 17.2369 5.8 17.25H7.25V15.75H7C6.80109 15.75 6.61032 15.671 6.46967 15.5303C6.32902 15.3897 6.25 15.1989 6.25 15C6.25 14.8011 6.32902 14.6103 6.46967 14.4697C6.61032 14.329 6.80109 14.25 7 14.25H17C17.1989 14.25 17.3897 14.329 17.5303 14.4697C17.671 14.6103 17.75 14.8011 17.75 15C17.75 15.1989 17.671 15.3897 17.5303 15.5303C17.3897 15.671 17.1989 15.75 17 15.75H16.75V17.25H18.2C18.4692 17.25 18.7358 17.197 18.9845 17.094C19.2332 16.9909 19.4592 16.8399 19.6496 16.6496C19.8399 16.4592 19.9909 16.2332 20.094 15.9845C20.197 15.7358 20.25 15.4692 20.25 15.2V9.8Z" fill="black"/>
</svg>
