<svg width="24" height="24" viewBox="0 0 24 24" fill="none" xmlns="http://www.w3.org/2000/svg">
<path d="M9.17969 1.16998C8.19078 1.16998 7.22408 1.46323 6.40184 2.01263C5.57959 2.56204 4.93873 3.34294 4.56029 4.25657C4.18185 5.1702 4.08284 6.17553 4.27576 7.14543C4.46869 8.11534 4.94489 9.00625 5.64416 9.70552C6.34342 10.4048 7.23433 10.881 8.20424 11.0739C9.17414 11.2668 10.1795 11.1678 11.0931 10.7894C12.0067 10.4109 12.7876 9.77008 13.337 8.94783C13.8864 8.12559 14.1797 7.15889 14.1797 6.16998C14.1797 5.51337 14.0504 4.86319 13.7991 4.25657C13.5478 3.64994 13.1795 3.09874 12.7152 2.63445C12.2509 2.17016 11.6997 1.80186 11.0931 1.55059C10.4865 1.29931 9.8363 1.16998 9.17969 1.16998ZM9.17969 9.72998C8.46854 9.72603 7.7745 9.51154 7.18512 9.11357C6.59574 8.71561 6.13743 8.15199 5.86802 7.49384C5.59861 6.83569 5.53016 6.11249 5.67132 5.41548C5.81248 4.71847 6.15691 4.07888 6.66117 3.57741C7.16542 3.07594 7.80691 2.73506 8.50469 2.59776C9.20247 2.46047 9.92528 2.53292 10.5819 2.80597C11.2386 3.07903 11.7996 3.54045 12.1943 4.13202C12.589 4.7236 12.7997 5.41882 12.7997 6.12998C12.7944 7.0866 12.4107 8.00223 11.7324 8.67679C11.0541 9.35135 10.1363 9.73 9.17969 9.72998Z" fill="black"/>
<path d="M9.1799 11.93C4.8199 11.93 1.3999 14.32 1.3999 17.38C1.3999 20.44 4.8199 22.83 9.1799 22.83C13.5399 22.83 16.9999 20.44 16.9999 17.38C16.9999 14.32 13.5399 11.93 9.1799 11.93ZM9.1799 21.33C5.7699 21.33 2.8999 19.52 2.8999 17.38C2.8999 15.24 5.7699 13.43 9.1799 13.43C12.5899 13.43 15.4499 15.24 15.4499 17.38C15.4499 19.52 12.5799 21.33 9.1799 21.33Z" fill="black"/>
<path d="M16.6297 11.38C17.7117 11.3561 18.74 10.9034 19.4883 10.1213C20.2366 9.33932 20.6435 8.29207 20.6197 7.20999C20.5958 6.1279 20.143 5.09962 19.361 4.35135C18.579 3.60308 17.5317 3.19612 16.4497 3.21999C16.2508 3.21999 16.06 3.29901 15.9193 3.43966C15.7787 3.58031 15.6997 3.77108 15.6997 3.96999C15.6997 4.1689 15.7787 4.35967 15.9193 4.50032C16.06 4.64097 16.2508 4.71999 16.4497 4.71999C16.7885 4.71211 17.1255 4.77104 17.4416 4.89342C17.7576 5.0158 18.0464 5.19922 18.2916 5.43323C18.5367 5.66723 18.7334 5.94723 18.8703 6.25723C19.0072 6.56724 19.0818 6.90118 19.0897 7.23999C19.0975 7.5788 19.0386 7.91584 18.9162 8.23188C18.7939 8.54791 18.6104 8.83675 18.3764 9.0819C18.1424 9.32704 17.8624 9.5237 17.5524 9.66064C17.2424 9.79757 16.9085 9.87211 16.5697 9.87999C16.4299 9.89028 16.2895 9.89028 16.1497 9.87999C15.9528 9.85678 15.7547 9.91036 15.5963 10.0296C15.438 10.1488 15.3318 10.3244 15.2997 10.52C15.2856 10.6179 15.2909 10.7176 15.3155 10.8134C15.3401 10.9091 15.3834 10.9991 15.4428 11.0781C15.5023 11.1571 15.5768 11.2236 15.6621 11.2737C15.7474 11.3238 15.8417 11.3565 15.9397 11.37C16.1293 11.3856 16.32 11.3856 16.5097 11.37L16.6297 11.38Z" fill="black"/>
<path d="M18 20.73C20.7 20.3 22.58 18.63 22.58 16.65C22.58 14.31 20 12.48 16.71 12.48C16.511 12.48 16.3203 12.559 16.1796 12.6997C16.039 12.8403 15.96 13.0311 15.96 13.23C15.96 13.4289 16.039 13.6197 16.1796 13.7603C16.3203 13.901 16.511 13.98 16.71 13.98C19.08 13.98 21.08 15.2 21.08 16.65C21.08 17.85 19.69 18.94 17.76 19.24C17.565 19.2743 17.391 19.3834 17.2752 19.544C17.1594 19.7046 17.1109 19.9041 17.14 20.1C17.1684 20.2757 17.2585 20.4356 17.3941 20.5511C17.5297 20.6665 17.7019 20.7299 17.88 20.73H18Z" fill="black"/>
</svg>
