<svg width="24" height="24" viewBox="0 0 24 24" fill="none" xmlns="http://www.w3.org/2000/svg">
<path d="M14.1101 16.26H14.0001C13.8475 16.2443 13.7034 16.1823 13.5871 16.0821C13.4709 15.982 13.3882 15.8486 13.3501 15.7L11.8801 10.15L10.5401 14.15C10.4963 14.2826 10.4164 14.4003 10.3093 14.49C10.2022 14.5796 10.0722 14.6375 9.93401 14.6573C9.79577 14.677 9.65477 14.6578 9.52688 14.6017C9.39898 14.5457 9.28928 14.455 9.21011 14.34L7.63011 12L6.33011 12.7C6.2197 12.7601 6.09581 12.7911 5.97011 12.79H3.00011C2.8012 12.79 2.61043 12.711 2.46978 12.5703C2.32913 12.4297 2.25011 12.2389 2.25011 12.04C2.25011 11.8411 2.32913 11.6503 2.46978 11.5097C2.61043 11.369 2.8012 11.29 3.00011 11.29H5.78011L7.51011 10.36C7.67599 10.265 7.87187 10.237 8.05772 10.2816C8.24358 10.3262 8.40539 10.4401 8.51011 10.6L9.67011 12.28L11.2901 7.3C11.3376 7.14976 11.4324 7.0189 11.5603 6.92697C11.6883 6.83505 11.8426 6.787 12.0001 6.79C12.162 6.7939 12.3181 6.85079 12.4446 6.95194C12.571 7.0531 12.6608 7.19293 12.7001 7.35L14.2901 13.35L15.0801 11.69C15.1392 11.5619 15.2337 11.4534 15.3524 11.3772C15.4711 11.301 15.6091 11.2604 15.7501 11.26H21.0001C21.199 11.26 21.3898 11.339 21.5304 11.4797C21.6711 11.6203 21.7501 11.8111 21.7501 12.01C21.7501 12.2089 21.6711 12.3997 21.5304 12.5403C21.3898 12.681 21.199 12.76 21.0001 12.76H16.2501L14.7901 15.84C14.727 15.9663 14.6299 16.0724 14.5098 16.1466C14.3897 16.2208 14.2513 16.2601 14.1101 16.26ZM22.7201 9.07C22.7969 7.7947 22.5007 6.52463 21.8677 5.41483C21.2348 4.30504 20.2924 3.40351 19.1557 2.8203C18.0189 2.23709 16.737 1.99742 15.4663 2.13055C14.1957 2.26368 12.9913 2.76385 12.0001 3.57C11.0077 2.76847 9.80392 2.27221 8.53494 2.14147C7.26597 2.01072 5.98632 2.2511 4.8513 2.83344C3.71627 3.41577 2.77467 4.31503 2.14075 5.42207C1.50683 6.52912 1.20786 7.79635 1.28011 9.07C1.28523 9.16854 1.30973 9.2651 1.35223 9.35415C1.39473 9.4432 1.45438 9.52299 1.52777 9.58894C1.60116 9.6549 1.68684 9.70573 1.7799 9.73851C1.87297 9.7713 1.97159 9.7854 2.07011 9.78C2.26639 9.76714 2.45004 9.67868 2.58245 9.53322C2.71486 9.38776 2.78571 9.19662 2.78011 9C2.7302 8.28246 2.83569 7.56259 3.08938 6.88953C3.34307 6.21648 3.73899 5.60608 4.25011 5.1C5.20815 4.14372 6.50648 3.60663 7.86011 3.60663C9.21374 3.60663 10.5121 4.14372 11.4701 5.1C11.5391 5.17076 11.6215 5.22699 11.7125 5.26539C11.8035 5.30379 11.9013 5.32357 12.0001 5.32357C12.0989 5.32357 12.1967 5.30379 12.2877 5.26539C12.3787 5.22699 12.4612 5.17076 12.5301 5.1C13.4882 4.14372 14.7865 3.60663 16.1401 3.60663C17.4937 3.60663 18.7921 4.14372 19.7501 5.1C20.2612 5.60608 20.6572 6.21648 20.9108 6.88953C21.1645 7.56259 21.27 8.28246 21.2201 9C21.2119 9.19832 21.2815 9.39199 21.4142 9.53962C21.5469 9.68725 21.732 9.77711 21.9301 9.79C22.0294 9.79538 22.1288 9.78095 22.2225 9.74754C22.3162 9.71413 22.4023 9.66242 22.4759 9.59542C22.5494 9.52841 22.6088 9.44745 22.6508 9.35725C22.6927 9.26704 22.7163 9.1694 22.7201 9.07ZM12.0001 21.48C12.4605 21.4894 12.906 21.3169 13.2401 21L18.1601 16C18.2309 15.9311 18.2871 15.8486 18.3255 15.7576C18.3639 15.6666 18.3837 15.5688 18.3837 15.47C18.3837 15.3712 18.3639 15.2734 18.3255 15.1824C18.2871 15.0914 18.2309 15.0089 18.1601 14.94C18.0195 14.7996 17.8289 14.7207 17.6301 14.7207C17.4314 14.7207 17.2407 14.7996 17.1001 14.94L12.1801 19.87C12.1598 19.8989 12.1329 19.9225 12.1015 19.9387C12.0702 19.955 12.0354 19.9635 12.0001 19.9635C11.9648 19.9635 11.93 19.955 11.8987 19.9387C11.8674 19.9225 11.8404 19.8989 11.8201 19.87L6.90011 15C6.75949 14.8596 6.56886 14.7807 6.37011 14.7807C6.17136 14.7807 5.98074 14.8596 5.84011 15C5.76935 15.0689 5.71312 15.1514 5.67472 15.2424C5.63632 15.3334 5.61654 15.4312 5.61654 15.53C5.61654 15.6288 5.63632 15.7266 5.67472 15.8176C5.71312 15.9086 5.76935 15.9911 5.84011 16.06L10.7601 21C10.9209 21.166 11.1137 21.2976 11.3269 21.387C11.54 21.4764 11.769 21.5216 12.0001 21.52V21.48Z" fill="black"/>
</svg>
