<svg width="24" height="24" viewBox="0 0 24 24" fill="none" xmlns="http://www.w3.org/2000/svg">
<path d="M21.1002 8.00001C20.6749 7.48636 20.1439 7.07041 19.5434 6.7805C18.9428 6.49059 18.2869 6.33352 17.6202 6.32001C17.4558 4.94499 16.7931 3.67794 15.7574 2.75867C14.7217 1.83941 13.385 1.33173 12.0002 1.33173C10.6154 1.33173 9.2786 1.83941 8.24292 2.75867C7.20724 3.67794 6.54451 4.94499 6.38016 6.32001C5.72205 6.33212 5.07385 6.48262 4.47773 6.76173C3.88161 7.04084 3.35092 7.4423 2.92016 7.94001C2.47075 8.47246 2.1416 9.09567 1.95521 9.76703C1.76882 10.4384 1.72957 11.1421 1.84016 11.83L3.00016 18.76C3.16976 19.8722 3.73187 20.887 4.58479 21.6207C5.43772 22.3544 6.52509 22.7585 7.65016 22.76H16.3002C17.4122 22.7549 18.4868 22.3581 19.3353 21.6394C20.1839 20.9207 20.7521 19.926 20.9402 18.83L22.1702 11.9C22.2884 11.2113 22.2538 10.5049 22.0689 9.831C21.884 9.15708 21.5533 8.53201 21.1002 8.00001ZM12.0002 2.79001C12.9847 2.79733 13.9352 3.15111 14.6849 3.78929C15.4347 4.42747 15.9357 5.30928 16.1002 6.28001H7.90016C8.06462 5.30928 8.56567 4.42747 9.31539 3.78929C10.0651 3.15111 11.0156 2.79733 12.0002 2.79001ZM20.6702 11.64L19.4302 18.57C19.3033 19.3182 18.9171 19.9978 18.3393 20.4896C17.7615 20.9815 17.029 21.2542 16.2702 21.26H7.62016C6.85176 21.2567 6.10988 20.9786 5.52853 20.4761C4.94719 19.9737 4.5647 19.2798 4.45016 18.52L3.32016 11.59C3.24511 11.1164 3.27232 10.6321 3.39996 10.1699C3.5276 9.70762 3.75271 9.27804 4.06016 8.91001C4.35944 8.55719 4.73166 8.27346 5.15117 8.07838C5.57069 7.8833 6.02751 7.7815 6.49016 7.78001H17.4902C17.9681 7.77073 18.4419 7.8693 18.8765 8.0684C19.311 8.2675 19.6951 8.56201 20.0002 8.93001C20.3025 9.30566 20.5191 9.74282 20.6348 10.2109C20.7506 10.679 20.7626 11.1668 20.6702 11.64ZM8.07016 10.91C8.07016 11.1078 8.01151 11.3011 7.90163 11.4656C7.79175 11.63 7.63557 11.7582 7.45285 11.8339C7.27012 11.9096 7.06905 11.9294 6.87507 11.8908C6.68109 11.8522 6.50291 11.757 6.36306 11.6171C6.2232 11.4773 6.12796 11.2991 6.08938 11.1051C6.05079 10.9111 6.0706 10.7101 6.14628 10.5273C6.22197 10.3446 6.35014 10.1884 6.51459 10.0785C6.67904 9.96866 6.87238 9.91001 7.07016 9.91001C7.33538 9.91001 7.58973 10.0154 7.77727 10.2029C7.96481 10.3904 8.07016 10.6448 8.07016 10.91ZM17.9102 10.91C17.9102 11.1078 17.8515 11.3011 17.7416 11.4656C17.6318 11.63 17.4756 11.7582 17.2928 11.8339C17.1101 11.9096 16.9091 11.9294 16.7151 11.8908C16.5211 11.8522 16.3429 11.757 16.2031 11.6171C16.0632 11.4773 15.968 11.2991 15.9294 11.1051C15.8908 10.9111 15.9106 10.7101 15.9863 10.5273C16.062 10.3446 16.1901 10.1884 16.3546 10.0785C16.519 9.96866 16.7124 9.91001 16.9102 9.91001C17.1754 9.91001 17.4297 10.0154 17.6173 10.2029C17.8048 10.3904 17.9102 10.6448 17.9102 10.91Z" fill="black"/>
</svg>
