<svg width="24" height="24" viewBox="0 0 24 24" fill="none" xmlns="http://www.w3.org/2000/svg">
<path d="M19.85 6.81H17.19V4.15C17.19 3.38087 16.8845 2.64325 16.3406 2.09939C15.7968 1.55553 15.0591 1.25 14.29 1.25H9.71C8.94087 1.25 8.20325 1.55553 7.65939 2.09939C7.11553 2.64325 6.81 3.38087 6.81 4.15V6.81H4.15C3.38087 6.81 2.64325 7.11553 2.09939 7.65939C1.55553 8.20325 1.25 8.94087 1.25 9.71V14.29C1.25 15.0591 1.55553 15.7968 2.09939 16.3406C2.64325 16.8845 3.38087 17.19 4.15 17.19H6.81V19.85C6.81 20.6191 7.11553 21.3568 7.65939 21.9006C8.20325 22.4445 8.94087 22.75 9.71 22.75H14.29C15.0591 22.75 15.7968 22.4445 16.3406 21.9006C16.8845 21.3568 17.19 20.6191 17.19 19.85V17.19H19.85C20.6191 17.19 21.3568 16.8845 21.9006 16.3406C22.4445 15.7968 22.75 15.0591 22.75 14.29V9.71C22.75 8.94087 22.4445 8.20325 21.9006 7.65939C21.3568 7.11553 20.6191 6.81 19.85 6.81ZM4.15 15.69C3.7787 15.69 3.4226 15.5425 3.16005 15.2799C2.8975 15.0174 2.75 14.6613 2.75 14.29V9.71C2.75 9.3387 2.8975 8.9826 3.16005 8.72005C3.4226 8.4575 3.7787 8.31 4.15 8.31H7.56C7.75811 8.30741 7.94737 8.22756 8.08747 8.08747C8.22756 7.94737 8.30741 7.75811 8.31 7.56V4.15C8.31 3.7787 8.4575 3.4226 8.72005 3.16005C8.9826 2.8975 9.3387 2.75 9.71 2.75H14.29C14.6613 2.75 15.0174 2.8975 15.2799 3.16005C15.5425 3.4226 15.69 3.7787 15.69 4.15V9.7C15.6913 9.90392 15.6521 10.1061 15.5747 10.2947C15.4973 10.4834 15.3832 10.6548 15.239 10.799C15.0948 10.9432 14.9234 11.0573 14.7347 11.1347C14.5461 11.2121 14.3439 11.2513 14.14 11.25H10C9.14681 11.2526 8.32933 11.5927 7.72603 12.196C7.12273 12.7993 6.78264 13.6168 6.78 14.47V15.69H4.15ZM21.25 14.29C21.25 14.6613 21.1025 15.0174 20.8399 15.2799C20.5774 15.5425 20.2213 15.69 19.85 15.69H16.44C16.2419 15.6926 16.0526 15.7724 15.9125 15.9125C15.7724 16.0526 15.6926 16.2419 15.69 16.44V19.85C15.69 20.0339 15.6538 20.2159 15.5834 20.3858C15.5131 20.5556 15.41 20.7099 15.2799 20.8399C15.1499 20.97 14.9956 21.0731 14.8258 21.1434C14.6559 21.2138 14.4739 21.25 14.29 21.25H9.71C9.3387 21.25 8.9826 21.1025 8.72005 20.8399C8.4575 20.5774 8.31 20.2213 8.31 19.85V14.47C8.30993 14.019 8.48702 13.586 8.80312 13.2643C9.11923 12.9425 9.54905 12.7579 10 12.75H14.11C14.5127 12.7526 14.9119 12.6758 15.2848 12.5238C15.6578 12.3718 15.997 12.1477 16.2831 11.8644C16.5693 11.581 16.7967 11.244 16.9523 10.8726C17.1079 10.5012 17.1887 10.1027 17.19 9.7V8.31H19.85C20.2213 8.31 20.5774 8.4575 20.8399 8.72005C21.1025 8.9826 21.25 9.3387 21.25 9.71V14.29ZM9.25 4.68C9.24999 4.58197 9.26946 4.48492 9.30727 4.39449C9.34508 4.30405 9.40049 4.22202 9.47026 4.15317C9.54004 4.08433 9.6228 4.03003 9.71374 3.99343C9.80468 3.95684 9.90198 3.93868 10 3.94C10.1972 3.93998 10.3865 4.01763 10.5268 4.15612C10.6672 4.29462 10.7474 4.48283 10.75 4.68C10.7474 4.87811 10.6676 5.06737 10.5275 5.20747C10.3874 5.34756 10.1981 5.42741 10 5.43C9.89901 5.43404 9.79825 5.41763 9.70377 5.38176C9.60928 5.34588 9.52302 5.29128 9.45017 5.22123C9.37732 5.15117 9.31937 5.06712 9.27982 4.97411C9.24027 4.88111 9.21992 4.78107 9.22 4.68H9.25ZM14.82 19.27C14.8213 19.3746 14.8019 19.4784 14.7628 19.5754C14.7237 19.6724 14.6657 19.7607 14.5922 19.8351C14.5187 19.9095 14.4312 19.9686 14.3346 20.0089C14.2381 20.0492 14.1346 20.07 14.03 20.07C13.8178 20.07 13.6143 19.9857 13.4643 19.8357C13.3143 19.6857 13.23 19.4822 13.23 19.27C13.23 19.1654 13.2508 19.0619 13.2911 18.9654C13.3314 18.8688 13.3905 18.7813 13.4649 18.7078C13.5393 18.6343 13.6276 18.5763 13.7246 18.5372C13.8216 18.4981 13.9254 18.4787 14.03 18.48C14.2343 18.4878 14.4276 18.5744 14.5693 18.7217C14.711 18.8691 14.7901 19.0656 14.79 19.27H14.82Z" fill="black"/>
</svg>
