<svg width="24" height="24" viewBox="0 0 24 24" fill="none" xmlns="http://www.w3.org/2000/svg">
<path d="M12 22.75C9.87386 22.75 7.79545 22.1195 6.02762 20.9383C4.2598 19.7571 2.88194 18.0782 2.0683 16.1139C1.25466 14.1495 1.04177 11.9881 1.45656 9.90278C1.87135 7.81749 2.89519 5.90202 4.39861 4.39861C5.90202 2.89519 7.81749 1.87135 9.90278 1.45656C11.9881 1.04177 14.1495 1.25466 16.1139 2.0683C18.0782 2.88194 19.7571 4.2598 20.9383 6.02762C22.1195 7.79545 22.75 9.87386 22.75 12C22.7474 14.8503 21.6139 17.583 19.5985 19.5985C17.583 21.6139 14.8503 22.7474 12 22.75ZM12 2.75C10.1705 2.75 8.38213 3.29251 6.86098 4.30891C5.33983 5.32531 4.15423 6.76997 3.45412 8.46018C2.75401 10.1504 2.57083 12.0103 2.92774 13.8046C3.28465 15.5989 4.16563 17.2471 5.45927 18.5407C6.7529 19.8344 8.40109 20.7154 10.1954 21.0723C11.9897 21.4292 13.8496 21.246 15.5398 20.5459C17.23 19.8458 18.6747 18.6602 19.6911 17.139C20.7075 15.6179 21.25 13.8295 21.25 12C21.2474 9.54756 20.272 7.19633 18.5378 5.46219C16.8037 3.72805 14.4524 2.75265 12 2.75Z" fill="black"/>
<path d="M12.0001 15C11.8012 15 11.6104 14.921 11.4698 14.7804C11.3291 14.6397 11.2501 14.4489 11.2501 14.25V13.43C11.2408 12.9288 11.3728 12.435 11.631 12.0053C11.8892 11.5755 12.2632 11.2272 12.7101 11C12.9721 10.8733 13.1954 10.6787 13.3567 10.4364C13.5181 10.1942 13.6116 9.91318 13.6276 9.62257C13.6437 9.33197 13.5816 9.04237 13.4479 8.78387C13.3141 8.52536 13.1136 8.30737 12.8672 8.15255C12.6207 7.99773 12.3373 7.91172 12.0464 7.90345C11.7555 7.89519 11.4676 7.96497 11.2128 8.10555C10.9579 8.24614 10.7454 8.45239 10.5972 8.70289C10.449 8.95338 10.3706 9.23899 10.3701 9.53004C10.3701 9.72895 10.2911 9.91972 10.1504 10.0604C10.0098 10.201 9.81903 10.28 9.62012 10.28C9.4212 10.28 9.23044 10.201 9.08979 10.0604C8.94914 9.91972 8.87012 9.72895 8.87012 9.53004C8.87179 9.07208 8.97361 8.62004 9.16845 8.20559C9.36328 7.79115 9.64641 7.42434 9.99799 7.13088C10.3496 6.83742 10.7611 6.62442 11.2037 6.50681C11.6463 6.3892 12.1092 6.36982 12.5601 6.45004C13.1896 6.56846 13.768 6.87597 14.2183 7.33157C14.6685 7.78716 14.9692 8.36919 15.0801 9.00004C15.2063 9.67424 15.106 10.3712 14.7949 10.9825C14.4839 11.5939 13.9794 12.0852 13.3601 12.38C13.1706 12.4833 13.0133 12.6369 12.9056 12.824C12.7979 13.0111 12.7441 13.2243 12.7501 13.44V14.26C12.7475 14.4572 12.6673 14.6454 12.5269 14.7839C12.3866 14.9224 12.1973 15.0001 12.0001 15Z" fill="black"/>
<path d="M12 17.5901C12.4142 17.5901 12.75 17.2543 12.75 16.8401C12.75 16.4259 12.4142 16.0901 12 16.0901C11.5858 16.0901 11.25 16.4259 11.25 16.8401C11.25 17.2543 11.5858 17.5901 12 17.5901Z" fill="black"/>
</svg>
