<svg width="24" height="24" viewBox="0 0 24 24" fill="none" xmlns="http://www.w3.org/2000/svg">
<path d="M16.1001 22.75H7.90007C6.12476 22.7315 4.42891 22.0113 3.18291 20.7465C1.93692 19.4818 1.24205 17.7754 1.25007 16V8C1.24205 6.22462 1.93692 4.5182 3.18291 3.25347C4.42891 1.98874 6.12476 1.26848 7.90007 1.25H16.1001C17.8754 1.26848 19.5712 1.98874 20.8172 3.25347C22.0632 4.5182 22.7581 6.22462 22.7501 8V16C22.7581 17.7754 22.0632 19.4818 20.8172 20.7465C19.5712 22.0113 17.8754 22.7315 16.1001 22.75ZM7.90007 2.81C6.53494 2.82581 5.23124 3.3799 4.27246 4.35179C3.31368 5.32368 2.77734 6.63478 2.78007 8V16C2.77734 17.3652 3.31368 18.6763 4.27246 19.6482C5.23124 20.6201 6.53494 21.1742 7.90007 21.19H16.1001C17.4652 21.1742 18.7689 20.6201 19.7277 19.6482C20.6865 18.6763 21.2228 17.3652 21.2201 16V8C21.2228 6.63478 20.6865 5.32368 19.7277 4.35179C18.7689 3.3799 17.4652 2.82581 16.1001 2.81H7.90007ZM7.15007 10.81C7.26 10.7941 7.36517 10.7545 7.45838 10.6941C7.55159 10.6337 7.63063 10.5538 7.69007 10.46L9.38007 7.73C9.48943 7.5544 9.52556 7.34292 9.48068 7.14097C9.43581 6.93903 9.31351 6.76275 9.14007 6.65C9.05523 6.59569 8.96032 6.55902 8.861 6.54219C8.76167 6.52536 8.65998 6.52872 8.56199 6.55205C8.46399 6.57538 8.3717 6.61822 8.29062 6.678C8.20954 6.73778 8.14133 6.81328 8.09007 6.9L6.87007 8.9L6.18007 8.29C6.1055 8.22174 6.01791 8.16926 5.92255 8.13572C5.82718 8.10217 5.72603 8.08825 5.62515 8.09479C5.52427 8.10132 5.42575 8.12819 5.33552 8.17376C5.24529 8.21934 5.1652 8.28269 5.10007 8.36C4.96849 8.51736 4.90238 8.71926 4.91541 8.92398C4.92843 9.12869 5.0196 9.32058 5.17007 9.46L6.54007 10.67C6.67913 10.7903 6.85622 10.8576 7.04007 10.86L7.15007 10.81ZM18.7201 9.26C18.7207 9.06312 18.6468 8.8733 18.5132 8.72863C18.3797 8.58396 18.1964 8.49514 18.0001 8.48H12.0001C11.8282 8.51968 11.6749 8.61643 11.5651 8.75445C11.4553 8.89248 11.3956 9.06364 11.3956 9.24C11.3956 9.41636 11.4553 9.58752 11.5651 9.72555C11.6749 9.86357 11.8282 9.96032 12.0001 10H18.0001C18.1896 9.9856 18.3674 9.90245 18.5 9.76618C18.6326 9.62991 18.7109 9.4499 18.7201 9.26ZM7.12007 16.26C7.23 16.2441 7.33517 16.2045 7.42838 16.1441C7.52159 16.0837 7.60063 16.0038 7.66007 15.91L9.35007 13.2C9.45892 13.026 9.49476 12.816 9.44983 12.6157C9.40491 12.4154 9.28283 12.2409 9.11007 12.13C8.94419 12.035 8.74831 12.007 8.56246 12.0516C8.3766 12.0962 8.21479 12.2101 8.11007 12.37L6.89007 14.37L6.20007 13.76C6.12486 13.6923 6.03674 13.6406 5.941 13.6078C5.84526 13.5751 5.7439 13.5621 5.643 13.5696C5.5421 13.577 5.44376 13.6049 5.35389 13.6513C5.26402 13.6978 5.18449 13.762 5.12007 13.84C4.98849 13.9974 4.92238 14.1993 4.93541 14.404C4.94843 14.6087 5.0396 14.8006 5.19007 14.94L6.56007 16.14C6.69669 16.2643 6.87537 16.3322 7.06007 16.33L7.12007 16.26ZM18.7401 14.71C18.7255 14.5214 18.6419 14.3448 18.5055 14.2139C18.369 14.0829 18.1891 14.0068 18.0001 14H12.0001C11.7932 14 11.5948 14.0822 11.4485 14.2285C11.3022 14.3747 11.2201 14.5731 11.2201 14.78C11.2201 14.9869 11.3022 15.1853 11.4485 15.3315C11.5948 15.4778 11.7932 15.56 12.0001 15.56H18.0001C18.103 15.5562 18.2041 15.5318 18.2974 15.4883C18.3907 15.4447 18.4744 15.3829 18.5434 15.3064C18.6124 15.2299 18.6653 15.1404 18.6991 15.0431C18.7329 14.9458 18.7468 14.8428 18.7401 14.74V14.71Z" fill="black"/>
</svg>
