<svg width="24" height="24" viewBox="0 0 24 24" fill="none" xmlns="http://www.w3.org/2000/svg">
<path d="M12 22.75C11.2497 22.7494 10.5303 22.4508 10 21.92L8.59001 20.51C8.56361 20.4841 8.53234 20.4637 8.49802 20.45C8.46369 20.4362 8.42698 20.4294 8.39001 20.43H6.39001C5.64119 20.4273 4.92393 20.128 4.39536 19.5976C3.8668 19.0671 3.57001 18.3488 3.57001 17.6V15.6C3.57054 15.563 3.56375 15.5263 3.55002 15.492C3.53629 15.4576 3.51589 15.4264 3.49001 15.4L2.08001 14C1.5524 13.468 1.25635 12.7492 1.25635 12C1.25635 11.2508 1.5524 10.5319 2.08001 9.99997L3.49001 8.58997C3.51589 8.56357 3.53629 8.5323 3.55002 8.49797C3.56375 8.46365 3.57054 8.42694 3.57001 8.38997V6.38997C3.57266 5.64115 3.87199 4.92389 4.40243 4.39532C4.93287 3.86676 5.65118 3.56997 6.40001 3.56997H8.40001C8.43698 3.5705 8.47369 3.56371 8.50802 3.54998C8.54234 3.53624 8.57361 3.51585 8.60001 3.48997L10 2.07997C10.5307 1.54993 11.25 1.2522 12 1.2522C12.75 1.2522 13.4694 1.54993 14 2.07997L15.41 3.48997C15.4364 3.51585 15.4677 3.53624 15.502 3.54998C15.5363 3.56371 15.573 3.5705 15.61 3.56997H17.61C18.3588 3.57262 19.0761 3.87195 19.6047 4.40239C20.1332 4.93283 20.43 5.65114 20.43 6.39997V8.39997C20.4295 8.43694 20.4363 8.47365 20.45 8.50797C20.4637 8.5423 20.4841 8.57357 20.51 8.59997L21.92 9.99997C22.4476 10.5319 22.7437 11.2508 22.7437 12C22.7437 12.7492 22.4476 13.468 21.92 14L20.51 15.41C20.4841 15.4364 20.4637 15.4676 20.45 15.502C20.4363 15.5363 20.4295 15.573 20.43 15.61V17.61C20.43 17.9816 20.3568 18.3496 20.2146 18.693C20.0724 19.0363 19.8639 19.3483 19.6011 19.6111C19.3383 19.8739 19.0264 20.0823 18.683 20.2246C18.3397 20.3668 17.9717 20.44 17.6 20.44H15.6C15.563 20.4394 15.5263 20.4462 15.492 20.46C15.4577 20.4737 15.4264 20.4941 15.4 20.52L14 21.92C13.4697 22.4508 12.7504 22.7494 12 22.75ZM6.40001 5.06997C6.04809 5.07259 5.71131 5.21356 5.46245 5.46241C5.2136 5.71127 5.07263 6.04804 5.07001 6.39997V8.39997C5.07261 8.63418 5.02788 8.8665 4.93853 9.08301C4.84918 9.29952 4.71703 9.49576 4.55001 9.65997L3.14001 11.06C2.89087 11.3094 2.75092 11.6475 2.75092 12C2.75092 12.3525 2.89087 12.6906 3.14001 12.94L4.55001 14.35C4.71703 14.5142 4.84918 14.7104 4.93853 14.9269C5.02788 15.1434 5.07261 15.3758 5.07001 15.61V17.61C5.07523 17.9602 5.21734 18.2944 5.46592 18.5411C5.71451 18.7878 6.0498 18.9274 6.40001 18.93H8.40001C8.63422 18.9274 8.86654 18.9721 9.08305 19.0615C9.29956 19.1508 9.4958 19.283 9.66001 19.45L11.07 20.86C11.3194 21.1091 11.6575 21.2491 12.01 21.2491C12.3625 21.2491 12.7006 21.1091 12.95 20.86L14.36 19.45C14.5242 19.283 14.7205 19.1508 14.937 19.0615C15.1535 18.9721 15.3858 18.9274 15.62 18.93H17.62C17.9719 18.9274 18.3087 18.7864 18.5576 18.5375C18.8064 18.2887 18.9474 17.9519 18.95 17.6V15.6C18.948 15.3658 18.993 15.1337 19.0823 14.9173C19.1716 14.7008 19.3035 14.5045 19.47 14.34L20.88 12.93C21.1292 12.6806 21.2691 12.3425 21.2691 11.99C21.2691 11.6375 21.1292 11.2994 20.88 11.05L19.45 9.64997C19.2835 9.48542 19.1516 9.28911 19.0623 9.07268C18.973 8.85625 18.928 8.6241 18.93 8.38997V6.38997C18.9248 6.03979 18.7827 5.70556 18.5341 5.45885C18.2855 5.21213 17.9502 5.07255 17.6 5.06997H15.6C15.1281 5.06852 14.6756 4.88178 14.34 4.54997L12.94 3.13997C12.6906 2.89083 12.3525 2.75088 12 2.75088C11.6475 2.75088 11.3094 2.89083 11.06 3.13997L9.65001 4.54997C9.48546 4.71653 9.28915 4.84837 9.07272 4.93769C8.8563 5.02701 8.62414 5.07199 8.39001 5.06997H6.40001ZM13.06 14.66V13.83C13.0536 13.6155 13.1073 13.4035 13.2151 13.2179C13.3229 13.0323 13.4805 12.8806 13.67 12.78C14.1752 12.5362 14.6056 12.1612 14.9162 11.6941C15.2267 11.227 15.4061 10.6851 15.4355 10.1249C15.4649 9.56481 15.3432 9.00707 15.0832 8.51007C14.8232 8.01306 14.4344 7.59506 13.9575 7.29979C13.4806 7.00452 12.9331 6.84282 12.3723 6.83162C11.8115 6.82042 11.258 6.96012 10.7697 7.2361C10.2814 7.51209 9.8762 7.91423 9.59654 8.40045C9.31689 8.88667 9.17303 9.43911 9.18001 9.99997C9.18001 10.1989 9.25903 10.3897 9.39968 10.5303C9.54034 10.671 9.7311 10.75 9.93001 10.75C10.1289 10.75 10.3197 10.671 10.4603 10.5303C10.601 10.3897 10.68 10.1989 10.68 9.99997C10.6789 9.76179 10.7302 9.52629 10.8305 9.31023C10.9307 9.09417 11.0774 8.90288 11.26 8.74997C11.4324 8.58095 11.6403 8.45235 11.8685 8.37347C12.0967 8.29458 12.3396 8.26738 12.5796 8.29384C12.8196 8.32029 13.0507 8.39973 13.2563 8.52642C13.4618 8.65312 13.6367 8.82389 13.7681 9.02641C13.8996 9.22893 13.9845 9.45813 14.0166 9.69745C14.0486 9.93676 14.0272 10.1802 13.9537 10.4102C13.8802 10.6402 13.7565 10.851 13.5915 11.0274C13.4266 11.2037 13.2246 11.3412 13 11.43C12.5562 11.653 12.184 11.9962 11.9258 12.4206C11.6677 12.8449 11.534 13.3333 11.54 13.83V14.66C11.54 14.8589 11.619 15.0497 11.7597 15.1903C11.9003 15.331 12.0911 15.41 12.29 15.41C12.4889 15.41 12.6797 15.331 12.8203 15.1903C12.961 15.0497 13.04 14.8589 13.04 14.66H13.06ZM12.31 16.51C12.1608 16.508 12.0145 16.5506 11.8896 16.6322C11.7648 16.7138 11.6671 16.8309 11.6091 16.9683C11.5511 17.1058 11.5354 17.2574 11.564 17.4038C11.5926 17.5502 11.6643 17.6847 11.7697 17.7902C11.8752 17.8957 12.0098 17.9674 12.1562 17.996C12.3026 18.0246 12.4542 18.0089 12.5917 17.9509C12.7291 17.8929 12.8461 17.7952 12.9278 17.6704C13.0094 17.5455 13.052 17.3991 13.05 17.25C13.05 17.0537 12.972 16.8655 12.8333 16.7267C12.6945 16.5879 12.5063 16.51 12.31 16.51Z" fill="black"/>
</svg>
