<svg width="24" height="24" viewBox="0 0 24 24" fill="none" xmlns="http://www.w3.org/2000/svg">
<path d="M19.77 16.39H16V12.29C16.0014 11.9347 15.9321 11.5826 15.7961 11.2543C15.6601 10.9261 15.4603 10.6281 15.2081 10.3778C14.9559 10.1274 14.6565 9.92977 14.3272 9.79625C13.9979 9.66272 13.6453 9.59601 13.29 9.59999H10.71C10.3547 9.59601 10.0022 9.66272 9.67291 9.79625C9.34363 9.92977 9.04419 10.1274 8.79201 10.3778C8.53982 10.6281 8.33994 10.9261 8.20398 11.2543C8.06801 11.5826 7.99869 11.9347 8.00004 12.29V13.48H4.23004C3.51661 13.48 2.83239 13.7634 2.32792 14.2679C1.82345 14.7723 1.54004 15.4566 1.54004 16.17V22.75H22.46V19.08C22.46 18.7267 22.3905 18.3769 22.2553 18.0506C22.1201 17.7242 21.9219 17.4277 21.6722 17.1779C21.4224 16.9281 21.1258 16.7299 20.7995 16.5948C20.4731 16.4596 20.1233 16.39 19.77 16.39ZM8.00004 21.25H3.00004V16.17C3.0026 16.012 3.03662 15.8561 3.10009 15.7113C3.16356 15.5666 3.25522 15.436 3.36972 15.3271C3.48422 15.2182 3.61926 15.1332 3.76697 15.077C3.91469 15.0208 4.0721 14.9947 4.23004 15H8.00004V21.25ZM14.47 21.25H9.47004V12.25C9.47004 11.9344 9.59541 11.6317 9.81858 11.4085C10.0417 11.1854 10.3444 11.06 10.66 11.06H13.24C13.5556 11.06 13.8583 11.1854 14.0815 11.4085C14.3047 11.6317 14.43 11.9344 14.43 12.25V21.25H14.47ZM20.95 21.25H16V17.89H19.79C19.948 17.8873 20.1049 17.9162 20.2516 17.9748C20.3983 18.0334 20.5318 18.1206 20.6445 18.2314C20.7571 18.3421 20.8465 18.4742 20.9076 18.6199C20.9686 18.7656 21.0001 18.922 21 19.08L20.95 21.25ZM13.53 9.14999C13.3054 9.14476 13.0842 9.09372 12.88 8.99999L12 8.56999L11 8.99999C10.7545 9.10955 10.4841 9.15156 10.2169 9.12167C9.94971 9.09178 9.69532 8.99109 9.48004 8.82999C9.26566 8.66778 9.09748 8.45228 8.99222 8.20491C8.88696 7.95755 8.84828 7.68693 8.88004 7.41999L9.01004 6.41999L8.32004 5.62999C8.12923 5.43024 7.99813 5.18107 7.94158 4.91068C7.88503 4.64029 7.90528 4.35947 8.00004 4.09999C8.08674 3.84683 8.23873 3.62104 8.44066 3.44545C8.64259 3.26986 8.88729 3.15069 9.15004 3.09999L10.15 2.89999L10.71 1.99999C10.8401 1.7726 11.0279 1.58354 11.2544 1.45187C11.4809 1.32019 11.7381 1.25056 12 1.24999C12.2715 1.24299 12.54 1.30886 12.7774 1.44076C13.0148 1.57266 13.2125 1.76576 13.35 1.99999L13.85 2.89999L14.85 3.13999C15.1202 3.19485 15.3702 3.32264 15.573 3.5095C15.7757 3.69635 15.9234 3.93515 16 4.19999C16.079 4.45635 16.0891 4.72896 16.0294 4.99048C15.9697 5.252 15.8424 5.49323 15.66 5.68999L14.96 6.43999L15.05 7.43999C15.0758 7.70758 15.0301 7.97721 14.9177 8.2214C14.8053 8.46559 14.6301 8.67559 14.41 8.82999C14.1598 9.03038 13.8505 9.14283 13.53 9.14999ZM11.94 7.06999C12.1608 7.07113 12.3789 7.11883 12.58 7.20999L13.51 7.64999L13.42 6.64999C13.4015 6.43633 13.4274 6.22114 13.4963 6.01802C13.5651 5.81491 13.6754 5.6283 13.82 5.46999L14.52 4.71999L13.52 4.44999C13.3099 4.40598 13.1117 4.31707 12.9391 4.18934C12.7665 4.06162 12.6236 3.8981 12.52 3.70999L12.02 2.80999L11.45 3.69999C11.3414 3.88199 11.1967 4.03979 11.0247 4.16363C10.8527 4.28747 10.6571 4.37472 10.45 4.41999L9.45004 4.60999L10.11 5.41999C10.254 5.57987 10.3616 5.76903 10.4254 5.97445C10.4893 6.17987 10.5079 6.39668 10.48 6.60999L10.36 7.60999L11.36 7.22999C11.5396 7.13554 11.7374 7.08097 11.94 7.06999Z" fill="black"/>
</svg>
