<svg width="24" height="24" viewBox="0 0 24 24" fill="none" xmlns="http://www.w3.org/2000/svg">
<path d="M22.75 12.0001C22.75 10.3401 21.35 8.88012 19.12 7.89012C19.38 5.46012 18.81 3.52012 17.38 2.69012C15.95 1.86012 14 2.34012 12 3.77012C10 2.34012 8.06 1.86012 6.63 2.69012C5.2 3.52012 4.63 5.46012 4.88 7.89012C2.65 8.89012 1.25 10.3401 1.25 12.0001C1.25 13.6601 2.64 15.1201 4.87 16.1101C4.87 16.2001 4.87 16.3001 4.87 16.4001C4.67 18.7801 5.31 20.5301 6.67 21.3101C7.16281 21.5923 7.72219 21.7373 8.29 21.7301C9.57343 21.6509 10.8034 21.1875 11.82 20.4001L12.04 20.2401L12.26 20.4001C13.2766 21.1875 14.5066 21.6509 15.79 21.7301C16.3608 21.7362 16.9232 21.5913 17.42 21.3101C18.77 20.5301 19.42 18.7801 19.21 16.4001C19.21 16.3001 19.21 16.2001 19.21 16.1101C21.36 15.1201 22.75 13.6601 22.75 12.0001ZM15.75 3.78012C16.05 3.77481 16.3462 3.84715 16.61 3.99012C17.38 4.44012 17.76 5.67012 17.61 7.35012C16.7583 7.07968 15.8852 6.8823 15 6.76012C14.4414 6.04818 13.8297 5.3796 13.17 4.76012C13.9251 4.19143 14.8274 3.85131 15.77 3.78012H15.75ZM17.15 14.0001C17.2743 14.3944 17.3778 14.795 17.46 15.2001C17.0693 15.3305 16.6721 15.4406 16.27 15.5301C16.42 15.2901 16.58 15.0401 16.73 14.7801C16.88 14.5201 17 14.2101 17.15 14.0001ZM15.43 14.0001C15.0595 14.6399 14.6521 15.2576 14.21 15.8501C13.4768 15.942 12.7389 15.9921 12 16.0001C11.2615 15.9988 10.5236 15.9554 9.79 15.8701C9.3495 15.2695 8.94222 14.6453 8.57 14.0001C8.20042 13.3522 7.86659 12.6845 7.57 12.0001C7.86657 11.3157 8.20041 10.648 8.57 10.0001C8.94686 9.36527 9.35745 8.75106 9.8 8.16012C10.5302 8.07003 11.2645 8.01663 12 8.00012C12.7349 8.00335 13.4691 8.0434 14.2 8.12012C14.6438 8.72404 15.0544 9.35163 15.43 10.0001C15.7996 10.648 16.1334 11.3157 16.43 12.0001C16.1334 12.6845 15.7996 13.3522 15.43 14.0001ZM12 18.3101C11.7 18.0401 11.4 17.7501 11.11 17.4401H12H12.89C12.6 17.7501 12.3 18.0001 12 18.3101ZM7.27 14.7301C7.42 14.9901 7.58 15.2401 7.73 15.4801C7.32793 15.3906 6.93074 15.2805 6.54 15.1501C6.62391 14.7618 6.72737 14.378 6.85 14.0001C6.95 14.2268 7.09 14.4701 7.27 14.7301ZM6.85 10.0501C6.73 9.63012 6.62 9.23012 6.54 8.85012C6.93012 8.71776 7.32743 8.60759 7.73 8.52012C7.58 8.76012 7.42 9.01012 7.27 9.27012C7.12 9.53012 7 9.79012 6.85 10.0501ZM12 5.71012C12.29 5.97012 12.58 6.25012 12.87 6.56012H12H11.13C11.42 6.25012 11.71 6.00012 12 5.71012ZM16.73 9.27012C16.58 9.01012 16.42 8.76012 16.27 8.52012C16.6726 8.60759 17.0699 8.71776 17.46 8.85012C17.38 9.23012 17.27 9.63012 17.15 10.0501C17 9.79012 16.88 9.53012 16.73 9.27012ZM7.38 4.00012C7.63961 3.85577 7.93303 3.78328 8.23 3.79012C9.16422 3.87274 10.0556 4.21959 10.8 4.79012C10.1518 5.40111 9.55018 6.05961 9 6.76012C8.10469 6.88061 7.22143 7.07801 6.36 7.35012C6.22 5.67012 6.6 4.44012 7.38 4.00012ZM2.75 12.0001C2.75 11.1001 3.63 10.1601 5.13 9.42012C5.33347 10.2996 5.60427 11.1622 5.94 12.0001C5.60318 12.8411 5.33236 13.7071 5.13 14.5901C3.63 13.8401 2.75 12.8901 2.75 12.0001ZM7.38 20.0001C6.58 19.5401 6.21 18.3201 6.32 16.6401C7.19429 16.9173 8.09099 17.118 9 17.2401C9.55579 17.9544 10.1677 18.6232 10.83 19.2401C9.41 20.1801 8.16 20.4601 7.38 20.0001ZM16.63 20.0001C15.84 20.4601 14.63 20.1701 13.2 19.2401C13.8623 18.6232 14.4742 17.9544 15.03 17.2401C15.9286 17.1196 16.8152 16.9222 17.68 16.6501C17.79 18.3301 17.42 19.5501 16.63 20.0001ZM18.87 14.5701C18.6666 13.6939 18.3958 12.8346 18.06 12.0001C18.3952 11.1654 18.666 10.3062 18.87 9.43012C20.37 10.1701 21.25 11.1101 21.25 12.0101C21.25 12.9101 20.37 13.8401 18.87 14.5801V14.5701ZM13.81 12.0001C13.81 12.3581 13.7038 12.708 13.505 13.0057C13.3061 13.3034 13.0234 13.5353 12.6927 13.6723C12.3619 13.8093 11.998 13.8452 11.6469 13.7753C11.2958 13.7055 10.9733 13.5331 10.7201 13.28C10.467 13.0269 10.2946 12.7043 10.2248 12.3532C10.1549 12.0021 10.1908 11.6382 10.3278 11.3075C10.4648 10.9767 10.6968 10.694 10.9944 10.4952C11.2921 10.2963 11.642 10.1901 12 10.1901C12.48 10.1901 12.9404 10.3808 13.2799 10.7203C13.6193 11.0597 13.81 11.5201 13.81 12.0001Z" fill="black"/>
</svg>
