<svg width="24" height="24" viewBox="0 0 24 24" fill="none" xmlns="http://www.w3.org/2000/svg">
<path d="M16.6901 22.7501H7.31006C5.71327 22.7342 4.18725 22.0888 3.06373 20.9541C1.9402 19.8193 1.30998 18.2869 1.31006 16.6901V7.31006C1.32325 5.71418 1.96648 4.18815 3.09964 3.06435C4.23281 1.94055 5.76412 1.31 7.36006 1.31006H16.7401C18.3359 1.32325 19.862 1.96648 20.9858 3.09964C22.1096 4.23281 22.7401 5.76412 22.7401 7.36006V16.7401C22.7269 18.3369 22.084 19.8639 20.9511 20.9893C19.8182 22.1147 18.2869 22.7475 16.6901 22.7501ZM7.31006 2.75006C6.7117 2.75006 6.11922 2.86808 5.56654 3.09736C5.01385 3.32664 4.51182 3.66269 4.08918 4.08626C3.66654 4.50982 3.3316 5.01259 3.10353 5.56578C2.87546 6.11896 2.75874 6.7117 2.76006 7.31006V16.6901C2.76006 17.8977 3.23911 19.0561 4.09211 19.9109C4.94512 20.7658 6.10241 21.2474 7.31006 21.2501H16.6901C17.8977 21.2474 19.055 20.7658 19.908 19.9109C20.761 19.0561 21.2401 17.8977 21.2401 16.6901V7.31006C21.2401 6.10332 20.7607 4.94601 19.9074 4.09272C19.0541 3.23943 17.8968 2.76006 16.6901 2.76006L7.31006 2.75006ZM12.0001 18.5901C11.5942 18.5895 11.1956 18.4819 10.8445 18.2783C10.4934 18.0746 10.2021 17.7821 10.0001 17.4301L9.52006 16.5901L9.16006 17.1901C8.98512 17.4835 8.71868 17.7115 8.40166 17.8388C8.08464 17.9662 7.73456 17.986 7.40521 17.8951C7.07586 17.8043 6.78544 17.6078 6.57856 17.3359C6.37168 17.064 6.25978 16.7317 6.26006 16.3901V8.13006C6.26006 7.40337 6.54874 6.70644 7.06259 6.19259C7.57644 5.67874 8.27337 5.39006 9.00006 5.39006H15.0001C15.7277 5.39005 16.4256 5.67841 16.9411 6.19198C17.4565 6.70554 17.7474 7.40245 17.7501 8.13006V16.3901C17.7497 16.7331 17.6362 17.0665 17.4272 17.3386C17.2182 17.6107 16.9253 17.8063 16.5939 17.8951C16.2626 17.984 15.9111 17.9611 15.5941 17.83C15.277 17.6989 15.012 17.467 14.8401 17.1701L14.5001 16.5901L14.0201 17.4301C13.8147 17.7837 13.52 18.077 13.1654 18.2806C12.8108 18.4842 12.4089 18.5909 12.0001 18.5901ZM9.50006 15.0001C9.75056 15 9.99655 15.0667 10.2127 15.1932C10.4289 15.3198 10.6075 15.5016 10.7301 15.7201L11.2701 16.6601C11.3434 16.7845 11.4479 16.8876 11.5733 16.9592C11.6987 17.0309 11.8406 17.0685 11.9851 17.0685C12.1295 17.0685 12.2714 17.0309 12.3968 16.9592C12.5222 16.8876 12.6267 16.7845 12.7001 16.6601L13.2301 15.7301C13.3538 15.5075 13.5351 15.3223 13.7551 15.1938C13.975 15.0654 14.2254 14.9985 14.4801 15.0001C14.7298 14.998 14.9755 15.0627 15.1918 15.1875C15.408 15.3124 15.587 15.4928 15.7101 15.7101L16.1101 16.3901H16.2301V8.13006C16.2275 7.80371 16.0974 7.49131 15.8676 7.2596C15.6377 7.0279 15.3264 6.89527 15.0001 6.89006H9.00006C8.83591 6.88874 8.6731 6.91977 8.52094 6.98137C8.36878 7.04297 8.23024 7.13395 8.11323 7.24909C7.99623 7.36424 7.90306 7.5013 7.83903 7.65246C7.775 7.80362 7.74137 7.9659 7.74006 8.13006V16.3901H7.85006L8.27006 15.6901C8.39646 15.4772 8.57668 15.3014 8.79259 15.1802C9.00851 15.0591 9.25251 14.997 9.50006 15.0001Z" fill="black"/>
</svg>
