<svg width="24" height="24" viewBox="0 0 24 24" fill="none" xmlns="http://www.w3.org/2000/svg">
<path d="M21.1098 6.31C21.0159 6.15546 20.8876 6.02458 20.735 5.92748C20.5825 5.83038 20.4096 5.76966 20.2298 5.75C20.05 5.72961 19.8679 5.74758 19.6955 5.80274C19.5231 5.8579 19.3644 5.94899 19.2298 6.07L16.2998 8.8C16.1165 8.97297 15.9898 9.1973 15.9363 9.44357C15.8827 9.68984 15.9049 9.94654 15.9998 10.18C16.2062 10.6779 16.3149 11.211 16.3198 11.75C16.3162 12.418 16.1552 13.0758 15.8498 13.67C15.7262 13.8918 15.6743 14.1463 15.7012 14.3988C15.728 14.6512 15.8324 14.8892 15.9998 15.08L18.9998 18.19C19.1149 18.3168 19.2554 18.418 19.4122 18.4869C19.569 18.5558 19.7386 18.5909 19.9098 18.59H19.9998C20.1804 18.5757 20.3557 18.5217 20.513 18.4318C20.6703 18.3419 20.8058 18.2183 20.9098 18.07C22.0921 16.3486 22.7448 14.3188 22.7874 12.2309C22.8301 10.143 22.2608 8.08827 21.1498 6.32L21.1098 6.31ZM19.8298 17.07L17.1598 14.21C17.4997 13.5206 17.6921 12.7679 17.7248 12C17.7576 11.2321 17.6298 10.4658 17.3498 9.75L19.9998 7.25C20.8634 8.68493 21.3261 10.3253 21.3398 12C21.3414 13.801 20.8165 15.5633 19.8298 17.07ZM8.93981 7.5C9.11745 7.6861 9.34819 7.81285 9.60053 7.86296C9.85288 7.91307 10.1145 7.8841 10.3498 7.78C10.9467 7.52396 11.5946 7.40882 12.2432 7.44351C12.8917 7.47819 13.5236 7.66176 14.0898 7.98C14.2791 8.08625 14.4928 8.1414 14.7098 8.14C15.0217 8.14141 15.3223 8.02332 15.5498 7.81L18.3698 5.17C18.505 5.04274 18.6101 4.88696 18.6776 4.71399C18.7451 4.54101 18.7732 4.35518 18.7598 4.17C18.7485 3.99087 18.6979 3.81645 18.6115 3.65915C18.525 3.50185 18.405 3.36556 18.2598 3.26C16.5696 2.04992 14.5649 1.35581 12.4883 1.26175C10.4118 1.16768 8.35246 1.67768 6.55981 2.73C6.39904 2.82335 6.26153 2.95194 6.15761 3.10609C6.05369 3.26025 5.98606 3.43595 5.95981 3.62C5.94264 3.80044 5.9631 3.98248 6.01991 4.15461C6.07671 4.32674 6.16862 4.48521 6.28981 4.62L8.93981 7.5ZM11.9998 2.66C13.8735 2.65581 15.7043 3.22074 17.2498 4.28L14.6798 6.69C13.8564 6.2441 12.9362 6.00717 11.9998 6C11.2759 6.00205 10.5593 6.1447 9.88981 6.42L7.45981 3.84C8.84812 3.06686 10.4107 2.66071 11.9998 2.66ZM15.2798 15.9C15.0986 15.706 14.8594 15.5758 14.598 15.5289C14.3367 15.4821 14.0672 15.521 13.8298 15.64C13.2608 15.9213 12.6346 16.0676 11.9998 16.0676C11.3651 16.0676 10.7388 15.9213 10.1698 15.64C9.9454 15.5275 9.69193 15.4864 9.44346 15.5221C9.19499 15.5579 8.96341 15.6688 8.77981 15.84L5.59981 18.84C5.46404 18.9668 5.35851 19.1225 5.291 19.2956C5.2235 19.4687 5.19575 19.6547 5.20981 19.84C5.21893 20.021 5.2686 20.1976 5.35514 20.3569C5.44168 20.5161 5.56289 20.6539 5.70981 20.76C7.49678 22.0408 9.63433 22.7412 11.8328 22.7662C14.0312 22.7913 16.1841 22.1398 17.9998 20.9C18.1473 20.8012 18.2712 20.6711 18.3628 20.519C18.4544 20.367 18.5114 20.1966 18.5298 20.02C18.5516 19.8393 18.5333 19.656 18.4762 19.4832C18.4192 19.3104 18.3248 19.1523 18.1998 19.02L15.2798 15.9ZM11.9998 21.34C10.1142 21.3419 8.27258 20.7699 6.71981 19.7L9.64981 17C10.3845 17.341 11.1848 17.5177 11.9948 17.5177C12.8048 17.5177 13.6051 17.341 14.3398 17L16.9998 19.85C15.5092 20.8131 13.7744 21.33 11.9998 21.34ZM7.83981 15C8.03412 14.8191 8.16523 14.5805 8.21383 14.3195C8.26244 14.0585 8.22597 13.7887 8.10981 13.55C7.8353 12.9824 7.69177 12.3605 7.68981 11.73C7.68702 10.9953 7.87296 10.2722 8.22981 9.63C8.36372 9.4018 8.42047 9.1365 8.39165 8.87349C8.36283 8.61048 8.24996 8.36378 8.06981 8.17L5.39981 5.34C5.27533 5.20063 5.12027 5.092 4.94677 5.0226C4.77327 4.9532 4.58606 4.92493 4.39981 4.94C4.2234 4.949 4.05096 4.99559 3.89402 5.07665C3.73708 5.15771 3.59927 5.27136 3.48981 5.41C2.02127 7.29116 1.23186 9.61356 1.24981 12C1.24941 14.0011 1.8107 15.9621 2.86981 17.66C2.96377 17.8145 3.09199 17.9454 3.24458 18.0425C3.39716 18.1396 3.57002 18.2003 3.74981 18.22H3.90981C4.22803 18.2235 4.5356 18.1055 4.76981 17.89L7.83981 15ZM6.26981 11.75C6.26943 12.5512 6.44346 13.3428 6.77981 14.07L3.99981 16.72C3.06285 15.1491 2.61049 13.3365 2.69944 11.5095C2.78838 9.68254 3.41468 7.92248 4.49981 6.45L6.99981 9.06C6.53365 9.88081 6.28254 10.8061 6.26981 11.75Z" fill="black"/>
</svg>
