<svg width="24" height="24" viewBox="0 0 24 24" fill="none" xmlns="http://www.w3.org/2000/svg">
<path d="M18.73 8.64999C18.5894 8.50954 18.3988 8.43065 18.2 8.43065C18.0012 8.43065 17.8106 8.50954 17.67 8.64999C17.5295 8.79061 17.4507 8.98124 17.4507 9.17999C17.4507 9.37874 17.5295 9.56936 17.67 9.70999L19.36 11.37H4.55L6.28 9.74999C6.37664 9.69288 6.45923 9.6148 6.52168 9.52151C6.58413 9.42822 6.62483 9.32211 6.6408 9.21099C6.65677 9.09987 6.64759 8.98659 6.61394 8.87949C6.58029 8.7724 6.52303 8.67422 6.44638 8.59221C6.36973 8.51019 6.27564 8.44643 6.17107 8.40562C6.06649 8.36481 5.95408 8.348 5.84214 8.35642C5.7302 8.36485 5.62158 8.3983 5.52428 8.4543C5.42699 8.5103 5.34351 8.58742 5.28 8.67999L2.28 11.62C2.20686 11.6896 2.14873 11.7733 2.10917 11.8662C2.06962 11.9591 2.04948 12.0591 2.05 12.16H2C2.00054 12.2771 2.03005 12.3922 2.08588 12.4952C2.14171 12.5981 2.22214 12.6857 2.32 12.75L5.23 15.6C5.29665 15.6708 5.37731 15.7269 5.46683 15.7647C5.55636 15.8026 5.6528 15.8214 5.75 15.82C5.90032 15.8219 6.04775 15.7786 6.17317 15.6957C6.29858 15.6128 6.39618 15.4941 6.45331 15.3551C6.51045 15.216 6.52447 15.063 6.49356 14.9159C6.46266 14.7687 6.38825 14.6343 6.28 14.53L4.61 12.93H19.36L17.68 14.58C17.6058 14.648 17.5461 14.7302 17.5043 14.8218C17.4626 14.9134 17.4397 15.0124 17.4371 15.113C17.4344 15.2136 17.452 15.3137 17.4889 15.4074C17.5257 15.501 17.581 15.5863 17.6515 15.6581C17.722 15.73 17.8062 15.7869 17.8991 15.8255C17.9921 15.8641 18.0918 15.8836 18.1925 15.8828C18.2931 15.8821 18.3926 15.8611 18.4849 15.8211C18.5773 15.7811 18.6606 15.7229 18.73 15.65L21.73 12.71C21.8029 12.6423 21.8609 12.5603 21.9005 12.4691C21.9401 12.3779 21.9603 12.2794 21.96 12.18C21.9605 12.0791 21.9404 11.9791 21.9008 11.8862C21.8613 11.7933 21.8031 11.7096 21.73 11.64L18.73 8.64999Z" fill="black"/>
</svg>
