<svg width="24" height="24" viewBox="0 0 24 24" fill="none" xmlns="http://www.w3.org/2000/svg">
<path d="M10.2702 19C10.1379 18.9995 10.007 18.9727 9.88517 18.9212C9.76329 18.8697 9.65285 18.7945 9.56023 18.7C9.37398 18.5127 9.26944 18.2592 9.26944 17.995C9.26944 17.7308 9.37398 17.4774 9.56023 17.29L14.7802 12L9.56023 6.83001C9.46699 6.73546 9.39329 6.62347 9.34333 6.50044C9.29337 6.3774 9.26814 6.24573 9.26907 6.11294C9.27 5.98015 9.29707 5.84885 9.34874 5.72653C9.40042 5.6042 9.47568 5.49325 9.57023 5.40001C9.66478 5.30677 9.77677 5.23307 9.89981 5.18311C10.0228 5.13316 10.1545 5.10792 10.2873 5.10885C10.4201 5.10978 10.5514 5.13685 10.6737 5.18853C10.796 5.2402 10.907 5.31546 11.0002 5.41001L16.9202 11.34C17.1065 11.5274 17.211 11.7808 17.211 12.045C17.211 12.3092 17.1065 12.5627 16.9202 12.75L11.0002 18.67C10.9079 18.7724 10.7953 18.8545 10.6697 18.9113C10.5441 18.9681 10.4081 18.9983 10.2702 19Z" fill="black"/>
</svg>
