<svg width="24" height="24" viewBox="0 0 24 24" fill="none" xmlns="http://www.w3.org/2000/svg">
<path d="M16.19 22.73H7.81C6.07099 22.7274 4.40397 22.0354 3.1743 20.8057C1.94464 19.576 1.25264 17.909 1.25 16.17V7.78001C1.25265 6.04192 1.94496 4.37593 3.17491 3.14785C4.40486 1.91978 6.07191 1.23001 7.81 1.23001H16.19C17.9281 1.23001 19.5951 1.91978 20.8251 3.14785C22.055 4.37593 22.7474 6.04192 22.75 7.78001V16.17C22.7474 17.909 22.0554 19.576 20.8257 20.8057C19.596 22.0354 17.929 22.7274 16.19 22.73ZM7.81 2.73001C6.46974 2.73001 5.18422 3.26174 4.23557 4.20851C3.28692 5.15529 2.75265 6.43975 2.75 7.78001V16.17C2.75264 17.5112 3.2866 18.7967 4.23496 19.7451C5.18332 20.6934 6.46882 21.2274 7.81 21.23H16.19C17.5312 21.2274 18.8167 20.6934 19.765 19.7451C20.7134 18.7967 21.2474 17.5112 21.25 16.17V7.78001C21.2474 6.43975 20.7131 5.15529 19.7644 4.20851C18.8158 3.26174 17.5303 2.73001 16.19 2.73001H7.81ZM11.63 16.23L15.12 12.59C15.2137 12.497 15.2881 12.3864 15.3389 12.2646C15.3897 12.1427 15.4158 12.012 15.4158 11.88C15.4158 11.748 15.3897 11.6173 15.3389 11.4954C15.2881 11.3736 15.2137 11.263 15.12 11.17L11.45 7.68001C11.2577 7.49569 11.0001 7.39529 10.7338 7.40092C10.4675 7.40655 10.2143 7.51773 10.03 7.71001C9.84567 7.90229 9.74528 8.15992 9.75091 8.42622C9.75653 8.69253 9.86772 8.94569 10.06 9.13001L13 11.93L10.2 14.85C10.0652 14.9915 9.97471 15.1693 9.93985 15.3616C9.90498 15.5539 9.92722 15.7522 10.0038 15.932C10.0804 16.1118 10.208 16.2652 10.3708 16.3732C10.5337 16.4813 10.7246 16.5393 10.92 16.54C11.053 16.5382 11.1843 16.5098 11.3062 16.4566C11.4282 16.4033 11.5382 16.3263 11.63 16.23Z" fill="black"/>
</svg>
