<svg width="24" height="24" viewBox="0 0 24 24" fill="none" xmlns="http://www.w3.org/2000/svg">
<path d="M16.0801 4.83999C15.5238 4.85314 14.9837 5.03062 14.528 5.35008C14.0723 5.66955 13.7213 6.11672 13.5192 6.63527C13.3171 7.15383 13.273 7.72058 13.3924 8.26417C13.5118 8.80775 13.7894 9.30385 14.1901 9.68999C14.7349 10.1786 15.4483 10.4362 16.1796 10.4085C16.9109 10.3808 17.6027 10.07 18.109 9.54161C18.6153 9.01325 18.8964 8.30876 18.8929 7.57699C18.8893 6.84521 18.6015 6.14346 18.0901 5.61999C17.547 5.10864 16.8261 4.82888 16.0801 4.83999ZM17.0801 8.56999C16.9652 8.71172 16.8221 8.82808 16.6599 8.9117C16.4976 8.99533 16.3198 9.04441 16.1377 9.05584C15.9556 9.06728 15.773 9.04082 15.6016 8.97814C15.4302 8.91545 15.2737 8.81791 15.1419 8.69167C15.0101 8.56543 14.9059 8.41323 14.8359 8.24468C14.7659 8.07614 14.7317 7.89491 14.7353 7.71244C14.7389 7.52998 14.7802 7.35024 14.8568 7.18458C14.9334 7.01893 15.0435 6.87095 15.1801 6.74999C15.2982 6.62344 15.4404 6.52193 15.5985 6.45149C15.7565 6.38105 15.9271 6.34313 16.1001 6.33999C16.4402 6.33956 16.7669 6.47239 17.0101 6.70999C17.1353 6.8285 17.2353 6.97108 17.304 7.12917C17.3728 7.28726 17.4089 7.45761 17.4101 7.62999C17.4299 7.97303 17.3151 8.31025 17.0901 8.56999H17.0801ZM22.0001 1.99999C21.7189 1.72217 21.3748 1.51622 20.9971 1.39959C20.6194 1.28296 20.2191 1.25909 19.8301 1.32999L16.2401 1.95999C14.3243 2.46344 12.5754 3.46382 11.1701 4.85999C10.3607 5.74122 9.63427 6.69526 9.00015 7.70999C5.11015 7.35999 1.51015 13 1.36015 13.29C1.29386 13.3984 1.25879 13.5229 1.25879 13.65C1.25879 13.777 1.29386 13.9016 1.36015 14.01C1.42628 14.1205 1.5201 14.2118 1.63234 14.275C1.74459 14.3381 1.87137 14.3709 2.00015 14.37H5.59015C5.57131 14.6627 5.61708 14.956 5.72423 15.229C5.83137 15.5021 5.99726 15.7482 6.21015 15.95L8.28015 17.89C8.53983 18.1419 8.86298 18.3187 9.21518 18.4014C9.56738 18.4842 9.93544 18.4699 10.2801 18.36L10.6501 22.13C10.6644 22.256 10.7117 22.3759 10.7872 22.4778C10.8627 22.5796 10.9638 22.6597 11.0801 22.71C11.1722 22.7481 11.2706 22.7684 11.3701 22.77C11.5277 22.7694 11.6813 22.7206 11.8101 22.63C12.0501 22.45 17.4501 18.38 16.7201 14.63C17.5899 14.0367 18.4184 13.3852 19.2001 12.68C20.6667 11.2426 21.6638 9.39488 22.0601 7.37999L22.7001 4.10999C22.7658 3.72785 22.7362 3.33542 22.6142 2.9674C22.4921 2.59939 22.2812 2.26713 22.0001 1.99999ZM6.00015 13H3.35015C4.46015 11.49 6.27015 9.56999 8.00015 9.16999L7.25015 10.64C6.80015 11.5 6.39015 12.29 6.08015 12.93L6.00015 13ZM12.0001 20.62L11.7401 17.94L15.3701 15.7C15.1101 17.45 13.3401 19.4 12.0001 20.62ZM21.3101 3.81999L20.6701 7.11999C20.3219 8.82981 19.4766 10.3987 18.2401 11.63C15.7076 13.7289 12.9429 15.5307 10.0001 17C9.88567 17.0575 9.75638 17.0787 9.62953 17.0608C9.50268 17.043 9.38429 16.9869 9.29015 16.9L7.22015 14.9C7.12875 14.8132 7.06701 14.6998 7.04368 14.576C7.02034 14.4521 7.0366 14.3241 7.09015 14.21L7.16015 14.06C7.17465 14.0408 7.18801 14.0208 7.20015 14L8.59015 11.28C9.58768 9.32722 10.8201 7.5037 12.2601 5.84999C13.4586 4.66289 14.9431 3.80522 16.5701 3.35999L20.1301 2.72999C20.2862 2.70289 20.4464 2.71323 20.5977 2.76017C20.7489 2.80712 20.8869 2.88931 21.0001 2.99999C21.1106 3.10316 21.1939 3.23194 21.2427 3.37496C21.2916 3.51798 21.3044 3.67083 21.2801 3.81999H21.3101Z" fill="black"/>
</svg>
