<svg width="24" height="24" viewBox="0 0 24 24" fill="none" xmlns="http://www.w3.org/2000/svg">
<path d="M6.39979 7.4901C6.10269 7.49009 5.81229 7.40186 5.5654 7.23659C5.31852 7.07132 5.12627 6.83646 5.01304 6.56179C4.89981 6.28712 4.87069 5.98501 4.92938 5.69376C4.98808 5.40252 5.13193 5.13527 5.34271 4.9259C5.55349 4.71652 5.8217 4.57445 6.11333 4.51771C6.40496 4.46097 6.70687 4.4921 6.98078 4.60717C7.25468 4.72223 7.48825 4.91605 7.65187 5.16403C7.81548 5.41202 7.90177 5.70301 7.89979 6.0001C7.89715 6.39619 7.73795 6.77515 7.45693 7.0543C7.17591 7.33344 6.79589 7.49011 6.39979 7.4901ZM22.1798 18.8001C22.0475 19.0959 21.8329 19.3475 21.5616 19.5248C21.2904 19.7021 20.9739 19.7977 20.6498 19.8001H16.1098V22.0001C16.1098 22.199 16.0308 22.3898 15.8901 22.5304C15.7495 22.6711 15.5587 22.7501 15.3598 22.7501H8.35979C7.12457 22.7715 5.93119 22.3027 5.04092 21.4461C4.15066 20.5896 3.63606 19.4152 3.60979 18.1801C3.63606 16.945 4.15066 15.7706 5.04092 14.9141C5.93119 14.0575 7.12457 13.5887 8.35979 13.6101H9.85979C10.0501 13.6156 10.235 13.5465 10.3751 13.4176C10.5152 13.2887 10.5994 13.1102 10.6098 12.9201C10.5994 12.7309 10.5149 12.5533 10.3745 12.426C10.2341 12.2987 10.0491 12.2319 9.85979 12.2401H6.35979C6.11932 12.2376 5.88204 12.1847 5.66329 12.0848C5.44454 11.9849 5.24917 11.8402 5.08979 11.6601L2.85979 9.1601C2.24986 8.4762 1.85078 7.63047 1.71065 6.72488C1.57052 5.81928 1.69534 4.89249 2.07005 4.05623C2.44476 3.21998 3.05336 2.50996 3.82249 2.01178C4.59161 1.5136 5.48842 1.24854 6.40479 1.24854C7.32116 1.24854 8.21797 1.5136 8.98709 2.01178C9.75621 2.50996 10.3648 3.21998 10.7395 4.05623C11.1142 4.89249 11.2391 5.81928 11.0989 6.72488C10.9588 7.63047 10.5597 8.4762 9.94979 9.1601L8.52979 10.7501H9.85979C10.1592 10.7298 10.4595 10.7713 10.7422 10.8719C11.0248 10.9726 11.2838 11.1302 11.503 11.3351C11.7223 11.54 11.897 11.7877 12.0165 12.063C12.136 12.3382 12.1977 12.635 12.1977 12.9351C12.1977 13.2352 12.136 13.532 12.0165 13.8072C11.897 14.0825 11.7223 14.3302 11.503 14.5351C11.2838 14.74 11.0248 14.8976 10.7422 14.9983C10.4595 15.0989 10.1592 15.1404 9.85979 15.1201H8.35979C7.94477 15.1081 7.53145 15.178 7.14347 15.3258C6.75548 15.4737 6.40043 15.6965 6.09861 15.9816C5.79678 16.2667 5.5541 16.6085 5.38443 16.9875C5.21477 17.3664 5.12144 17.7751 5.10979 18.1901C5.13594 19.0274 5.49246 19.8203 6.10144 20.3956C6.71042 20.9708 7.52235 21.2816 8.35979 21.2601H14.6098V13.2601C14.6098 13.0612 14.6888 12.8704 14.8295 12.7298C14.9701 12.5891 15.1609 12.5101 15.3598 12.5101C15.5587 12.5101 15.7495 12.5891 15.8901 12.7298C16.0308 12.8704 16.1098 13.0612 16.1098 13.2601H20.6498C20.9697 13.2552 21.2844 13.3412 21.5574 13.5081C21.8303 13.675 22.0503 13.916 22.1917 14.203C22.3331 14.49 22.3901 14.8112 22.3562 15.1293C22.3222 15.4475 22.1986 15.7494 21.9998 16.0001L21.5998 16.5001L21.9998 17.0001C22.1973 17.2522 22.319 17.5553 22.3509 17.874C22.3828 18.1927 22.3234 18.5138 22.1798 18.8001ZM6.17979 10.6601C6.30979 10.8101 6.41979 10.8101 6.54979 10.6601L8.78979 8.1601C9.20731 7.69463 9.4817 7.1186 9.58004 6.50109C9.67838 5.88358 9.59649 5.25081 9.34421 4.67867C9.09192 4.10654 8.67994 3.61933 8.15768 3.27548C7.63542 2.93163 7.02505 2.74574 6.39979 2.7401C6.14048 2.73983 5.88204 2.77004 5.62979 2.8301C5.04263 2.97039 4.50655 3.27243 4.08234 3.70194C3.65813 4.13145 3.36278 4.67125 3.22979 5.2601C3.11983 5.76994 3.13229 6.29858 3.26613 6.80267C3.39998 7.30677 3.6514 7.77196 3.99979 8.1601L6.17979 10.6601ZM19.6098 16.5101L20.7598 15.0701C20.7784 15.0401 20.7882 15.0054 20.7882 14.9701C20.7882 14.9348 20.7784 14.9001 20.7598 14.8701C20.743 14.8368 20.7173 14.8089 20.6855 14.7894C20.6537 14.77 20.6171 14.7598 20.5798 14.7601H16.1098V18.2601H20.6498C20.6871 18.2604 20.7237 18.2502 20.7555 18.2308C20.7873 18.2113 20.813 18.1834 20.8298 18.1501C20.8484 18.1201 20.8582 18.0854 20.8582 18.0501C20.8582 18.0148 20.8484 17.9801 20.8298 17.9501L19.6098 16.5101Z" fill="black"/>
</svg>
