<svg width="24" height="24" viewBox="0 0 24 24" fill="none" xmlns="http://www.w3.org/2000/svg">
<path d="M6.00001 15.42C5.80223 15.42 5.60889 15.4786 5.44444 15.5885C5.27999 15.6984 5.15182 15.8545 5.07613 16.0373C5.00044 16.22 4.98064 16.4211 5.01922 16.615C5.05781 16.809 5.15305 16.9872 5.2929 17.1271C5.43275 17.2669 5.61094 17.3622 5.80492 17.4007C5.9989 17.4393 6.19997 17.4195 6.38269 17.3438C6.56542 17.2681 6.7216 17.14 6.83148 16.9755C6.94136 16.8111 7.00001 16.6177 7.00001 16.42C7.00001 16.1547 6.89465 15.9004 6.70711 15.7128C6.51958 15.5253 6.26522 15.42 6.00001 15.42ZM10 15.42C9.80223 15.42 9.60889 15.4786 9.44444 15.5885C9.27999 15.6984 9.15182 15.8545 9.07613 16.0373C9.00044 16.22 8.98064 16.4211 9.01922 16.615C9.05781 16.809 9.15305 16.9872 9.2929 17.1271C9.43275 17.2669 9.61094 17.3622 9.80492 17.4007C9.9989 17.4393 10.2 17.4195 10.3827 17.3438C10.5654 17.2681 10.7216 17.14 10.8315 16.9755C10.9414 16.8111 11 16.6177 11 16.42C11 16.1547 10.8947 15.9004 10.7071 15.7128C10.5196 15.5253 10.2652 15.42 10 15.42ZM14 15.42C13.8022 15.42 13.6089 15.4786 13.4444 15.5885C13.28 15.6984 13.1518 15.8545 13.0761 16.0373C13.0004 16.22 12.9806 16.4211 13.0192 16.615C13.0578 16.809 13.153 16.9872 13.2929 17.1271C13.4328 17.2669 13.6109 17.3622 13.8049 17.4007C13.9989 17.4393 14.2 17.4195 14.3827 17.3438C14.5654 17.2681 14.7216 17.14 14.8315 16.9755C14.9414 16.8111 15 16.6177 15 16.42C15 16.1547 14.8947 15.9004 14.7071 15.7128C14.5196 15.5253 14.2652 15.42 14 15.42ZM20 11.67H17.85V3.32996C17.85 3.13104 17.771 2.94028 17.6303 2.79963C17.4897 2.65897 17.2989 2.57996 17.1 2.57996C16.9011 2.57996 16.7103 2.65897 16.5697 2.79963C16.429 2.94028 16.35 3.13104 16.35 3.32996V11.67H4.00001C3.27066 11.67 2.57119 11.9597 2.05546 12.4754C1.53974 12.9911 1.25001 13.6906 1.25001 14.42V18.42C1.24853 19.0435 1.45978 19.6489 1.84886 20.1362C2.23795 20.6234 2.78159 20.9634 3.39001 21.1C3.52171 21.4101 3.74013 21.6756 4.01906 21.8646C4.29798 22.0536 4.62554 22.1581 4.96239 22.1655C5.29925 22.1729 5.63107 22.0829 5.91802 21.9063C6.20497 21.7297 6.43483 21.474 6.58001 21.17H17.42C17.5652 21.474 17.795 21.7297 18.082 21.9063C18.3689 22.0829 18.7008 22.1729 19.0376 22.1655C19.3745 22.1581 19.702 22.0536 19.981 21.8646C20.2599 21.6756 20.4783 21.4101 20.61 21.1C21.2176 20.9617 21.7602 20.6213 22.149 20.1344C22.5377 19.6475 22.7497 19.043 22.75 18.42V14.42C22.75 13.6906 22.4603 12.9911 21.9446 12.4754C21.4288 11.9597 20.7294 11.67 20 11.67ZM21.25 18.42C21.25 18.7515 21.1183 19.0694 20.8839 19.3038C20.6495 19.5383 20.3315 19.67 20 19.67C19.8019 19.6725 19.6126 19.7524 19.4725 19.8925C19.3324 20.0326 19.2526 20.2218 19.25 20.42C19.25 20.7 18.75 20.7 18.75 20.42C18.7474 20.2218 18.6676 20.0326 18.5275 19.8925C18.3874 19.7524 18.1981 19.6725 18 19.67H6.00001C5.8019 19.6725 5.61264 19.7524 5.47254 19.8925C5.33245 20.0326 5.2526 20.2218 5.25001 20.42C5.25001 20.7 4.75001 20.7 4.75001 20.42C4.74742 20.2218 4.66757 20.0326 4.52747 19.8925C4.38738 19.7524 4.19811 19.6725 4.00001 19.67C3.66849 19.67 3.35054 19.5383 3.11612 19.3038C2.8817 19.0694 2.75001 18.7515 2.75001 18.42V14.42C2.75001 14.0884 2.8817 13.7705 3.11612 13.5361C3.35054 13.3017 3.66849 13.17 4.00001 13.17H20C20.3315 13.17 20.6495 13.3017 20.8839 13.5361C21.1183 13.7705 21.25 14.0884 21.25 14.42V18.42Z" fill="black"/>
</svg>
