<svg width="24" height="24" viewBox="0 0 24 24" fill="none" xmlns="http://www.w3.org/2000/svg">
<path d="M5.91001 20.63C4.96157 20.6313 4.04587 20.2833 3.33761 19.6525C2.62935 19.0217 2.17812 18.1522 2.07001 17.21L1.28001 10.46C1.21194 9.80499 1.31214 9.14345 1.57112 8.53798C1.83011 7.93252 2.23931 7.40315 2.76001 6.99999L8.76001 2.35999C9.46248 1.82571 10.3251 1.54481 11.2074 1.56296C12.0898 1.58112 12.9401 1.89727 13.62 2.45999L19.32 7.25999C19.8398 7.6908 20.2337 8.25394 20.46 8.88999C20.5015 8.98401 20.523 9.08565 20.5231 9.18844C20.5232 9.29122 20.5018 9.39289 20.4604 9.48697C20.419 9.58105 20.3585 9.66547 20.2827 9.73486C20.2068 9.80425 20.1174 9.85708 20.02 9.88999C19.9258 9.92998 19.8244 9.95026 19.7221 9.94959C19.6197 9.94892 19.5186 9.92731 19.4249 9.88609C19.3312 9.84487 19.247 9.78492 19.1774 9.70992C19.1077 9.63492 19.0542 9.54646 19.02 9.44999C18.8708 9.06247 18.6267 8.71862 18.31 8.44999L12.66 3.55999C12.242 3.20888 11.7164 3.01144 11.1706 3.00053C10.6248 2.98961 10.0917 3.16587 9.66001 3.49999L3.66001 8.12999C3.33814 8.38331 3.08646 8.71479 2.92893 9.09287C2.77139 9.47096 2.71324 9.88307 2.76001 10.29L3.56001 17C3.6262 17.5772 3.90213 18.11 4.33537 18.4972C4.76862 18.8844 5.32899 19.0989 5.91001 19.1H11.38C11.5789 19.1 11.7697 19.179 11.9103 19.3197C12.051 19.4603 12.13 19.6511 12.13 19.85C12.13 20.0489 12.051 20.2397 11.9103 20.3803C11.7697 20.521 11.5789 20.6 11.38 20.6H5.91001V20.63ZM20.39 21.58L21.56 20.64C21.9191 20.348 22.21 19.981 22.4121 19.5647C22.6142 19.1483 22.7227 18.6928 22.73 18.23V14.95C22.7348 14.4948 22.6056 14.0482 22.3584 13.6659C22.1113 13.2836 21.7571 12.9825 21.34 12.8L18.87 11.71C18.5694 11.5763 18.244 11.5072 17.915 11.5072C17.586 11.5072 17.2606 11.5763 16.96 11.71L14.39 12.89C13.9934 13.0824 13.6586 13.382 13.4235 13.7549C13.1884 14.1279 13.0625 14.5592 13.06 15V18.27C13.0483 18.7498 13.1489 19.2258 13.3538 19.6598C13.5586 20.0939 13.8621 20.474 14.24 20.77L15.24 21.59C15.972 22.1676 16.8776 22.4812 17.81 22.48C18.7478 22.4846 19.6586 22.1669 20.39 21.58ZM18.29 13.09L20.75 14.17C20.9007 14.2338 21.0288 14.3412 21.1179 14.4785C21.207 14.6157 21.253 14.7764 21.25 14.94V18.21C21.2464 18.4528 21.1889 18.6918 21.0817 18.9097C20.9745 19.1276 20.8202 19.319 20.63 19.47L19.47 20.47C19.005 20.8391 18.4287 21.04 17.835 21.04C17.2413 21.04 16.6651 20.8391 16.2 20.47L15.2 19.66C15.0024 19.5022 14.8438 19.3011 14.7363 19.0722C14.6288 18.8433 14.5753 18.5928 14.58 18.34V15.07C14.58 14.9135 14.6253 14.7603 14.7105 14.6289C14.7956 14.4976 14.9171 14.3938 15.06 14.33L17.63 13.14C17.7374 13.0938 17.8531 13.0699 17.97 13.0699C18.0869 13.0699 18.2026 13.0938 18.31 13.14L18.29 13.09Z" fill="black"/>
</svg>
