<svg width="24" height="24" viewBox="0 0 24 24" fill="none" xmlns="http://www.w3.org/2000/svg">
<path d="M13.8002 10.67L14.2502 10.29C14.3263 10.2243 14.3888 10.1443 14.4341 10.0545C14.4793 9.9647 14.5064 9.86686 14.5138 9.76657C14.5213 9.66628 14.5089 9.56552 14.4774 9.47002C14.4458 9.37452 14.3958 9.28617 14.3302 9.21C14.2645 9.13384 14.1845 9.07135 14.0947 9.02611C14.0049 8.98087 13.907 8.95376 13.8067 8.94633C13.7064 8.9389 13.6057 8.9513 13.5102 8.98281C13.4147 9.01433 13.3263 9.06434 13.2502 9.13L12.7002 9.61L7.24016 4.13C7.10972 3.99909 6.95343 3.89679 6.78125 3.82964C6.60908 3.7625 6.4248 3.73197 6.24016 3.74C6.05743 3.74915 5.87884 3.79767 5.7166 3.88224C5.55436 3.96681 5.4123 4.08544 5.30016 4.23C2.89016 7.3 3.70016 12.23 7.16016 15.91C6.80515 16.4905 6.53888 17.1208 6.37016 17.78C5.5793 17.896 4.83585 18.2282 4.22179 18.74C3.60772 19.2517 3.14691 19.923 2.89016 20.68C2.8113 20.9182 2.78922 21.1716 2.82568 21.4199C2.86214 21.6682 2.95614 21.9045 3.10016 22.11C3.24554 22.3077 3.43526 22.4686 3.65408 22.5798C3.8729 22.6909 4.11473 22.7492 4.36016 22.75H9.71016C9.96092 22.7557 10.2093 22.7004 10.434 22.5889C10.6587 22.4774 10.853 22.3131 11.0002 22.11C11.1442 21.9045 11.2382 21.6682 11.2746 21.4199C11.3111 21.1716 11.289 20.9182 11.2102 20.68C10.963 19.95 10.5247 19.2996 9.94075 18.7966C9.35683 18.2936 8.64872 17.9563 7.89016 17.82C7.97574 17.5375 8.08617 17.2631 8.22016 17C10.1208 18.668 12.5426 19.6226 15.0702 19.7C16.6075 19.7276 18.1089 19.2342 19.3302 18.3C19.4738 18.187 19.5917 18.0447 19.6762 17.8827C19.7607 17.7206 19.8097 17.5425 19.8202 17.36C19.8309 17.1667 19.8008 16.9733 19.7319 16.7924C19.663 16.6116 19.5568 16.4472 19.4202 16.31L13.8002 10.67ZM9.80016 21.16L10.5102 20.92L9.75016 21.25H4.32016L4.27016 21.16C4.47468 20.5962 4.84788 20.109 5.339 19.7647C5.83013 19.4204 6.41537 19.2357 7.01516 19.2357C7.61495 19.2357 8.20019 19.4204 8.69132 19.7647C9.18245 20.109 9.55564 20.5962 9.76016 21.16H9.80016ZM8.47016 15.16C5.47016 12.16 4.55016 7.9 6.35016 5.36L18.2302 17.21C15.7002 19 11.4502 18.13 8.43016 15.12L8.47016 15.16ZM13.2702 6.2C13.2698 6.10018 13.2902 6.00138 13.3301 5.90987C13.37 5.81836 13.4284 5.73615 13.5018 5.66844C13.5751 5.60073 13.6618 5.54902 13.7562 5.51658C13.8506 5.48414 13.9507 5.47168 14.0502 5.48C15.2004 5.54703 16.2889 6.02217 17.1202 6.82C17.4409 7.18168 17.6844 7.60506 17.8357 8.06418C17.987 8.5233 18.043 9.00849 18.0002 9.49C17.9949 9.68452 17.9133 9.86914 17.7729 10.0039C17.6325 10.1387 17.4447 10.2127 17.2502 10.21C17.0521 10.1996 16.8659 10.1123 16.7314 9.96653C16.5969 9.8208 16.5247 9.62826 16.5302 9.43C16.6202 7.16 14.2602 7 14.0002 7C13.899 6.99753 13.7994 6.97462 13.7073 6.93265C13.6153 6.89067 13.5327 6.83051 13.4645 6.75577C13.3963 6.68103 13.3439 6.59326 13.3105 6.49775C13.2771 6.40224 13.2634 6.30096 13.2702 6.2ZM21.5402 9.45C21.5429 9.64722 21.4678 9.83757 21.3311 9.97982C21.1945 10.1221 21.0073 10.2048 20.8102 10.21C20.7084 10.2182 20.6061 10.2055 20.5094 10.1728C20.4127 10.14 20.3237 10.0879 20.2479 10.0196C20.172 9.95121 20.1109 9.86811 20.0683 9.77533C20.0258 9.68255 20.0026 9.58206 20.0002 9.48C19.8902 4.01 14.1702 3.48 13.9202 3.48C13.8216 3.47243 13.7254 3.44544 13.6373 3.40056C13.5492 3.35569 13.4708 3.29384 13.4066 3.21855C13.3425 3.14327 13.2939 3.05605 13.2636 2.9619C13.2333 2.86776 13.222 2.76856 13.2302 2.67C13.2504 2.47466 13.3445 2.29443 13.4932 2.16617C13.6419 2.03791 13.834 1.97131 14.0302 1.98C16.6102 2.19 21.4302 4 21.5402 9.45Z" fill="black"/>
</svg>
