<svg width="24" height="25" viewBox="0 0 24 25" fill="none" xmlns="http://www.w3.org/2000/svg">
<path d="M18.14 3.25H5.86C5.3531 3.25 4.85116 3.34984 4.38284 3.54382C3.91453 3.73781 3.489 4.02213 3.13057 4.38057C2.40668 5.10446 2 6.08626 2 7.11V17.39C2 18.4137 2.40668 19.3955 3.13057 20.1194C3.85446 20.8433 4.83626 21.25 5.86 21.25H6.15C6.15 21.5152 6.25536 21.7696 6.44289 21.9571C6.63043 22.1446 6.88478 22.25 7.15 22.25C7.41522 22.25 7.66957 22.1446 7.85711 21.9571C8.04464 21.7696 8.15 21.5152 8.15 21.25H15.77C15.77 21.5152 15.8754 21.7696 16.0629 21.9571C16.2504 22.1446 16.5048 22.25 16.77 22.25C17.0352 22.25 17.2896 22.1446 17.4771 21.9571C17.6646 21.7696 17.77 21.5152 17.77 21.25H18.14C19.1637 21.25 20.1455 20.8433 20.8694 20.1194C21.5933 19.3955 22 18.4137 22 17.39V7.11C22 6.08626 21.5933 5.10446 20.8694 4.38057C20.1455 3.65668 19.1637 3.25 18.14 3.25ZM20.5 17.39C20.5 18.0159 20.2514 18.6162 19.8088 19.0588C19.3662 19.5014 18.7659 19.75 18.14 19.75H5.86C5.55008 19.75 5.2432 19.689 4.95687 19.5704C4.67054 19.4518 4.41037 19.2779 4.19123 19.0588C3.74864 18.6162 3.5 18.0159 3.5 17.39V7.11C3.5 6.48409 3.74864 5.88381 4.19123 5.44123C4.63381 4.99864 5.23409 4.75 5.86 4.75H18.14C18.7659 4.75 19.3662 4.99864 19.8088 5.44123C20.2514 5.88381 20.5 6.48409 20.5 7.11V17.39ZM18.5 12.25C18.4989 12.4597 18.4538 12.6668 18.3677 12.858C18.2816 13.0492 18.1563 13.2202 18 13.36V14.25C18 14.5152 17.8946 14.7696 17.7071 14.9571C17.5196 15.1446 17.2652 15.25 17 15.25C16.7348 15.25 16.4804 15.1446 16.2929 14.9571C16.1054 14.7696 16 14.5152 16 14.25V13.36C15.8133 13.193 15.6713 12.9818 15.5872 12.7458C15.503 12.5098 15.4793 12.2565 15.5182 12.009C15.5571 11.7615 15.6574 11.5277 15.8099 11.3289C15.9625 11.1301 16.1623 10.9727 16.3913 10.871C16.6203 10.7694 16.8711 10.7267 17.1209 10.7469C17.3706 10.767 17.6113 10.8495 17.821 10.9866C18.0307 11.1237 18.2027 11.3112 18.3213 11.5319C18.4399 11.7526 18.5013 11.9995 18.5 12.25Z" fill="black"/>
</svg>
