<svg width="24" height="24" viewBox="0 0 24 24" fill="none" xmlns="http://www.w3.org/2000/svg">
<path d="M18.4702 1.24994H11.5902C10.5156 1.24413 9.47735 1.63804 8.6771 2.35513C7.87685 3.07221 7.37181 4.06123 7.26016 5.12994H5.53016C4.38347 5.11927 3.27938 5.56391 2.46012 6.36629C1.64086 7.16868 1.17335 8.26328 1.16016 9.40994V20.5799C1.16127 20.9588 1.26155 21.3308 1.45103 21.6588C1.6405 21.9869 1.91256 22.2596 2.24016 22.4499C2.57981 22.6437 2.96411 22.7456 3.35516 22.7456C3.7462 22.7456 4.1305 22.6437 4.47016 22.4499L8.61016 20.1199C8.71927 20.0558 8.84356 20.0219 8.97016 20.0219C9.09675 20.0219 9.22104 20.0558 9.33016 20.1199L13.4702 22.4499C13.8066 22.6376 14.1849 22.7373 14.5702 22.7399C14.9689 22.7376 15.3594 22.627 15.7002 22.4199C16.029 22.2336 16.3024 21.9631 16.4922 21.6363C16.682 21.3094 16.7814 20.9379 16.7802 20.5599V16.9999L19.5302 18.5399C19.8688 18.7367 20.2535 18.8403 20.6452 18.8403C21.0368 18.8403 21.4215 18.7367 21.7602 18.5399C22.0905 18.3528 22.3648 18.0807 22.5547 17.752C22.7446 17.4232 22.8431 17.0496 22.8402 16.6699V5.52994C22.827 4.38328 22.3595 3.28868 21.5402 2.48629C20.7209 1.68391 19.6168 1.23927 18.4702 1.24994ZM15.2802 15.7499V20.5799C15.2789 20.6965 15.2467 20.8107 15.187 20.9108C15.1273 21.0109 15.0421 21.0934 14.9402 21.1499C14.8299 21.216 14.7037 21.2509 14.5752 21.2509C14.4466 21.2509 14.3204 21.216 14.2102 21.1499L10.0702 18.8199C9.73534 18.6334 9.35842 18.5355 8.97516 18.5355C8.59189 18.5355 8.21497 18.6334 7.88016 18.8199L3.73016 21.1599C3.61918 21.224 3.4933 21.2577 3.36516 21.2577C3.23701 21.2577 3.11113 21.224 3.00016 21.1599C2.89819 21.1034 2.81302 21.0209 2.7533 20.9208C2.69357 20.8207 2.66144 20.7065 2.66016 20.5899V9.40994C2.67331 8.6611 2.98277 7.94801 3.52073 7.42692C4.05869 6.90583 4.78128 6.61924 5.53016 6.62994H12.4102C13.159 6.61924 13.8816 6.90583 14.4196 7.42692C14.9575 7.94801 15.267 8.6611 15.2802 9.40994V15.7499ZM21.3402 16.6899C21.3386 16.8078 21.3065 16.9232 21.2468 17.0249C21.1872 17.1266 21.1022 17.211 21.0002 17.2699C20.8899 17.336 20.7637 17.3709 20.6352 17.3709C20.5066 17.3709 20.3804 17.336 20.2702 17.2699L16.7802 15.3199V9.40994C16.767 8.26328 16.2995 7.16868 15.4802 6.36629C14.6609 5.56391 13.5568 5.11927 12.4102 5.12994H8.75016C8.86023 4.45895 9.20739 3.84972 9.72855 3.41298C10.2497 2.97624 10.9103 2.74097 11.5902 2.74994H18.4702C19.219 2.73924 19.9416 3.02583 20.4796 3.54692C21.0175 4.06801 21.327 4.7811 21.3402 5.52994V16.6899Z" fill="black"/>
</svg>
