<svg width="24" height="24" viewBox="0 0 24 24" fill="none" xmlns="http://www.w3.org/2000/svg">
<path d="M9.29018 11.5001H6.71018C6.12405 11.5001 5.56193 11.2672 5.14747 10.8528C4.73301 10.4383 4.50018 9.87618 4.50018 9.29005V6.71005C4.50018 6.12393 4.73301 5.5618 5.14747 5.14735C5.56193 4.73289 6.12405 4.50005 6.71018 4.50005H9.29018C9.8763 4.50005 10.4384 4.73289 10.8529 5.14735C11.2673 5.5618 11.5002 6.12393 11.5002 6.71005V9.29005C11.5002 9.87618 11.2673 10.4383 10.8529 10.8528C10.4384 11.2672 9.8763 11.5001 9.29018 11.5001ZM6.71018 6.00005C6.52187 6.00005 6.34128 6.07486 6.20813 6.20801C6.07498 6.34116 6.00018 6.52175 6.00018 6.71005V9.29005C6.00018 9.47836 6.07498 9.65895 6.20813 9.7921C6.34128 9.92525 6.52187 10.0001 6.71018 10.0001H9.29018C9.47848 10.0001 9.65907 9.92525 9.79222 9.7921C9.92537 9.65895 10.0002 9.47836 10.0002 9.29005V6.71005C10.0002 6.52175 9.92537 6.34116 9.79222 6.20801C9.65907 6.07486 9.47848 6.00005 9.29018 6.00005H6.71018ZM17.2902 11.5001H14.7102C14.124 11.5001 13.5619 11.2672 13.1475 10.8528C12.733 10.4383 12.5002 9.87618 12.5002 9.29005V6.71005C12.5002 6.12393 12.733 5.5618 13.1475 5.14735C13.5619 4.73289 14.124 4.50005 14.7102 4.50005H17.2902C17.5804 4.50005 17.8678 4.55722 18.1359 4.66828C18.404 4.77934 18.6477 4.94213 18.8529 5.14735C19.0581 5.35257 19.2209 5.59619 19.3319 5.86432C19.443 6.13245 19.5002 6.41983 19.5002 6.71005V9.29005C19.5002 9.58027 19.443 9.86765 19.3319 10.1358C19.2209 10.4039 19.0581 10.6475 18.8529 10.8528C18.6477 11.058 18.404 11.2208 18.1359 11.3318C17.8678 11.4429 17.5804 11.5001 17.2902 11.5001ZM14.7102 6.00005C14.5219 6.00005 14.3413 6.07486 14.2081 6.20801C14.075 6.34116 14.0002 6.52175 14.0002 6.71005V9.29005C14.0002 9.47836 14.075 9.65895 14.2081 9.7921C14.3413 9.92525 14.5219 10.0001 14.7102 10.0001H17.2902C17.4785 10.0001 17.6591 9.92525 17.7922 9.7921C17.9254 9.65895 18.0002 9.47836 18.0002 9.29005V6.71005C18.0002 6.52175 17.9254 6.34116 17.7922 6.20801C17.6591 6.07486 17.4785 6.00005 17.2902 6.00005H14.7102ZM9.29018 19.5001H6.71018C6.41995 19.5001 6.13258 19.4429 5.86445 19.3318C5.59632 19.2208 5.35269 19.058 5.14747 18.8528C4.94225 18.6475 4.77947 18.4039 4.6684 18.1358C4.55734 17.8677 4.50018 17.5803 4.50018 17.2901V14.7101C4.50018 14.1239 4.73301 13.5618 5.14747 13.1473C5.56193 12.7329 6.12405 12.5001 6.71018 12.5001H9.29018C9.8763 12.5001 10.4384 12.7329 10.8529 13.1473C11.2673 13.5618 11.5002 14.1239 11.5002 14.7101V17.2901C11.5002 17.5803 11.443 17.8677 11.3319 18.1358C11.2209 18.4039 11.0581 18.6475 10.8529 18.8528C10.6477 19.058 10.404 19.2208 10.1359 19.3318C9.86778 19.4429 9.5804 19.5001 9.29018 19.5001ZM6.71018 14.0001C6.52187 14.0001 6.34128 14.0749 6.20813 14.208C6.07498 14.3412 6.00018 14.5217 6.00018 14.7101V17.2901C6.00018 17.4784 6.07498 17.6589 6.20813 17.7921C6.34128 17.9252 6.52187 18.0001 6.71018 18.0001H9.29018C9.47848 18.0001 9.65907 17.9252 9.79222 17.7921C9.92537 17.6589 10.0002 17.4784 10.0002 17.2901V14.7101C10.0002 14.5217 9.92537 14.3412 9.79222 14.208C9.65907 14.0749 9.47848 14.0001 9.29018 14.0001H6.71018ZM17.2902 19.5001H14.7102C14.42 19.5001 14.1326 19.4429 13.8644 19.3318C13.5963 19.2208 13.3527 19.058 13.1475 18.8528C12.9423 18.6475 12.7795 18.4039 12.6684 18.1358C12.5573 17.8677 12.5002 17.5803 12.5002 17.2901V14.7101C12.5002 14.1239 12.733 13.5618 13.1475 13.1473C13.5619 12.7329 14.124 12.5001 14.7102 12.5001H17.2902C17.5804 12.5001 17.8678 12.5572 18.1359 12.6683C18.404 12.7793 18.6477 12.9421 18.8529 13.1473C19.0581 13.3526 19.2209 13.5962 19.3319 13.8643C19.443 14.1325 19.5002 14.4198 19.5002 14.7101V17.2901C19.5002 17.5803 19.443 17.8677 19.3319 18.1358C19.2209 18.4039 19.0581 18.6475 18.8529 18.8528C18.6477 19.058 18.404 19.2208 18.1359 19.3318C17.8678 19.4429 17.5804 19.5001 17.2902 19.5001ZM14.7102 14.0001C14.5219 14.0001 14.3413 14.0749 14.2081 14.208C14.075 14.3412 14.0002 14.5217 14.0002 14.7101V17.2901C14.0002 17.4784 14.075 17.6589 14.2081 17.7921C14.3413 17.9252 14.5219 18.0001 14.7102 18.0001H17.2902C17.4785 18.0001 17.6591 17.9252 17.7922 17.7921C17.9254 17.6589 18.0002 17.4784 18.0002 17.2901V14.7101C18.0002 14.5217 17.9254 14.3412 17.7922 14.208C17.6591 14.0749 17.4785 14.0001 17.2902 14.0001H14.7102ZM2.71018 9.00005V6.25005C2.71014 5.30841 3.08215 4.40488 3.74518 3.73623C4.40821 3.06758 5.30856 2.68797 6.25018 2.68005H8.56018C8.75909 2.68005 8.94985 2.60104 9.09051 2.46038C9.23116 2.31973 9.31018 2.12897 9.31018 1.93005C9.31018 1.73114 9.23116 1.54038 9.09051 1.39972C8.94985 1.25907 8.75909 1.18005 8.56018 1.18005H6.25018C4.90553 1.18005 3.61595 1.71421 2.66514 2.66502C1.71434 3.61583 1.18018 4.90541 1.18018 6.25005V9.00005C1.18018 9.19897 1.25919 9.38973 1.39985 9.53038C1.5405 9.67104 1.73126 9.75005 1.93018 9.75005C2.12909 9.75005 2.31985 9.67104 2.46051 9.53038C2.60116 9.38973 2.68018 9.19897 2.68018 9.00005H2.71018ZM22.8202 9.00005V6.25005C22.8202 4.90714 22.2874 3.61908 21.3387 2.66855C20.3901 1.71803 19.1031 1.1827 17.7602 1.18005H14.5702C14.3713 1.18005 14.1805 1.25907 14.0398 1.39972C13.8992 1.54038 13.8202 1.73114 13.8202 1.93005C13.8202 2.12897 13.8992 2.31973 14.0398 2.46038C14.1805 2.60104 14.3713 2.68005 14.5702 2.68005H17.7602C18.7053 2.6827 19.6107 3.05999 20.2781 3.72921C20.9454 4.39843 21.3202 5.30496 21.3202 6.25005V9.00005C21.3202 9.19897 21.3992 9.38973 21.5398 9.53038C21.6805 9.67104 21.8713 9.75005 22.0702 9.75005C22.2691 9.75005 22.4599 9.67104 22.6005 9.53038C22.7412 9.38973 22.8202 9.19897 22.8202 9.00005ZM9.31018 22.0701C9.30759 21.8719 9.22774 21.6827 9.08764 21.5426C8.94755 21.4025 8.75828 21.3226 8.56018 21.3201H6.25018C5.30335 21.3201 4.39531 20.9439 3.7258 20.2744C3.0563 19.6049 2.68018 18.6969 2.68018 17.7501V15.0001C2.68018 14.8011 2.60116 14.6104 2.46051 14.4697C2.31985 14.3291 2.12909 14.2501 1.93018 14.2501C1.73126 14.2501 1.5405 14.3291 1.39985 14.4697C1.25919 14.6104 1.18018 14.8011 1.18018 15.0001V17.7501C1.18018 19.0947 1.71434 20.3843 2.66514 21.3351C3.61595 22.2859 4.90553 22.8201 6.25018 22.8201H8.56018C8.75828 22.8175 8.94755 22.7376 9.08764 22.5975C9.22774 22.4574 9.30759 22.2682 9.31018 22.0701ZM22.8202 17.7501V15.0001C22.8202 14.8011 22.7412 14.6104 22.6005 14.4697C22.4599 14.3291 22.2691 14.2501 22.0702 14.2501C21.8713 14.2501 21.6805 14.3291 21.5398 14.4697C21.3992 14.6104 21.3202 14.8011 21.3202 15.0001V17.7501C21.3202 18.6951 20.9454 19.6017 20.2781 20.2709C19.6107 20.9401 18.7053 21.3174 17.7602 21.3201H14.5702C14.3713 21.3201 14.1805 21.3991 14.0398 21.5397C13.8992 21.6804 13.8202 21.8711 13.8202 22.0701C13.8202 22.269 13.8992 22.4597 14.0398 22.6004C14.1805 22.741 14.3713 22.8201 14.5702 22.8201H17.7602C19.1031 22.8174 20.3901 22.2821 21.3387 21.3316C22.2874 20.381 22.8202 19.093 22.8202 17.7501Z" fill="black"/>
</svg>
