<svg width="24" height="24" viewBox="0 0 24 24" fill="none" xmlns="http://www.w3.org/2000/svg">
<path d="M4.61998 20.48C4.0994 20.4819 3.58993 20.3294 3.15612 20.0416C2.7223 19.7538 2.38365 19.3438 2.18306 18.8634C1.98247 18.383 1.92896 17.8538 2.0293 17.343C2.12965 16.8322 2.37934 16.3626 2.74675 15.9938C3.11416 15.625 3.58276 15.3735 4.09321 15.2712C4.60365 15.169 5.13296 15.2204 5.61412 15.4192C6.09527 15.618 6.50661 15.9551 6.79604 16.3878C7.08548 16.8205 7.23998 17.3294 7.23998 17.85C7.23999 18.5457 6.96427 19.2132 6.47321 19.7061C5.98215 20.1991 5.31577 20.4773 4.61998 20.48ZM4.61998 16.73C4.39565 16.728 4.17581 16.7928 3.98845 16.9162C3.8011 17.0396 3.65472 17.216 3.56796 17.4229C3.48119 17.6298 3.45797 17.8578 3.50126 18.0779C3.54454 18.298 3.65236 18.5003 3.81099 18.6589C3.96963 18.8176 4.17189 18.9254 4.39202 18.9687C4.61214 19.012 4.84017 18.9887 5.04705 18.902C5.25394 18.8152 5.43031 18.6688 5.55371 18.4815C5.67712 18.2941 5.74196 18.0743 5.73998 17.85C5.73998 17.5529 5.62198 17.268 5.41194 17.058C5.2019 16.848 4.91702 16.73 4.61998 16.73Z" fill="black"/>
<path d="M19.3797 20.48C18.8592 20.4819 18.3497 20.3294 17.9159 20.0416C17.4821 19.7538 17.1434 19.3438 16.9428 18.8634C16.7422 18.383 16.6887 17.8538 16.7891 17.343C16.8894 16.8322 17.1391 16.3626 17.5065 15.9938C17.8739 15.625 18.3425 15.3735 18.853 15.2712C19.3634 15.169 19.8927 15.2204 20.3739 15.4192C20.855 15.618 21.2664 15.9551 21.5558 16.3878C21.8452 16.8205 21.9997 17.3294 21.9997 17.85C22.0011 18.1949 21.9343 18.5366 21.8032 18.8557C21.6721 19.1747 21.4793 19.4647 21.2359 19.709C20.9925 19.9534 20.7032 20.1473 20.3847 20.2796C20.0662 20.4119 19.7247 20.48 19.3797 20.48ZM19.3797 16.73C19.1554 16.728 18.9356 16.7928 18.7482 16.9162C18.5609 17.0396 18.4145 17.216 18.3277 17.4229C18.241 17.6298 18.2177 17.8578 18.261 18.0779C18.3043 18.298 18.4121 18.5003 18.5708 18.6589C18.7294 18.8176 18.9317 18.9254 19.1518 18.9687C19.3719 19.012 19.5999 18.9887 19.8068 18.902C20.0137 18.8152 20.1901 18.6688 20.3135 18.4815C20.4369 18.2941 20.5017 18.0743 20.4997 17.85C20.4997 17.5529 20.3817 17.268 20.1717 17.058C19.9617 16.848 19.6768 16.73 19.3797 16.73Z" fill="black"/>
<path d="M15.0801 18.6001H5.08008C4.88117 18.6001 4.6904 18.521 4.54975 18.3804C4.4091 18.2397 4.33008 18.049 4.33008 17.8501C4.33008 17.6511 4.4091 17.4604 4.54975 17.3197C4.6904 17.1791 4.88117 17.1001 5.08008 17.1001H14.6501L17.3801 11.7201C17.4236 11.6323 17.4841 11.5541 17.5581 11.4899C17.6321 11.4257 17.7181 11.3768 17.8111 11.3461C17.9042 11.3154 18.0023 11.3035 18.1 11.311C18.1977 11.3186 18.2929 11.3454 18.3801 11.3901C18.5536 11.4819 18.6848 11.6372 18.7463 11.8236C18.8079 12.01 18.7949 12.213 18.7101 12.3901L15.7701 18.1801C15.7062 18.3078 15.6075 18.415 15.4855 18.4893C15.3635 18.5636 15.2229 18.602 15.0801 18.6001Z" fill="black"/>
<path d="M19.2201 18.08C19.0499 18.0776 18.8855 18.0181 18.7531 17.9112C18.6207 17.8042 18.5281 17.6559 18.4901 17.49L15.7101 5H13.8101C13.6111 5 13.4204 4.92098 13.2797 4.78033C13.1391 4.63968 13.0601 4.44891 13.0601 4.25C13.0601 4.05109 13.1391 3.86032 13.2797 3.71967C13.4204 3.57902 13.6111 3.5 13.8101 3.5H16.3201C16.4893 3.50011 16.6536 3.55748 16.7861 3.66278C16.9187 3.76809 17.0117 3.91513 17.0501 4.08L20.0001 17.16C20.045 17.3536 20.0113 17.5571 19.9063 17.7259C19.8013 17.8946 19.6336 18.0148 19.4401 18.06L19.2201 18.08Z" fill="black"/>
<path d="M8.77017 18.6H8.71017C8.61073 18.5949 8.51331 18.5701 8.42357 18.527C8.33383 18.4839 8.25358 18.4233 8.18749 18.3488C8.1214 18.2744 8.0708 18.1875 8.03864 18.0933C8.00648 17.999 7.9934 17.8994 8.00017 17.8C8.043 17.4049 8.0069 17.0052 7.89397 16.6242C7.78104 16.2432 7.59353 15.8884 7.34233 15.5804C7.09113 15.2725 6.78124 15.0175 6.43066 14.8303C6.08009 14.6431 5.69582 14.5275 5.30017 14.49C5.10188 14.4674 4.92046 14.3676 4.7951 14.2123C4.66974 14.057 4.6105 13.8586 4.63017 13.66C4.6413 13.5612 4.67196 13.4657 4.72035 13.3788C4.76875 13.292 4.83392 13.2157 4.91208 13.1543C4.99024 13.0929 5.07983 13.0476 5.17564 13.0211C5.27145 12.9946 5.37156 12.9875 5.47017 13C6.06347 13.0458 6.64143 13.2109 7.16937 13.4855C7.69732 13.7601 8.16439 14.1384 8.54258 14.5978C8.92078 15.0573 9.2023 15.5883 9.37029 16.1592C9.53827 16.7301 9.58925 17.329 9.52017 17.92C9.50268 18.1066 9.41601 18.2798 9.27721 18.4057C9.13841 18.5315 8.95753 18.6008 8.77017 18.6Z" fill="black"/>
</svg>
