<svg width="24" height="24" viewBox="0 0 24 24" fill="none" xmlns="http://www.w3.org/2000/svg">
<path d="M19.1701 13.93C18.495 13.9237 17.8375 14.1454 17.304 14.5592C16.7705 14.9729 16.3921 15.5545 16.2301 16.21H15.8701H3.87013H3.77013C3.69012 16.1978 3.61427 16.1663 3.5491 16.1183C3.48392 16.0703 3.43137 16.0072 3.39597 15.9344C3.36056 15.8616 3.34335 15.7814 3.34582 15.7004C3.34828 15.6195 3.37035 15.5405 3.41013 15.47L4.20013 14.06C4.24197 13.9792 4.30506 13.9114 4.38259 13.8638C4.46012 13.8162 4.54917 13.7907 4.64013 13.79H10.5001L10.3001 14.47C10.2518 14.6261 10.2401 14.7912 10.2661 14.9525C10.2922 15.1139 10.3551 15.267 10.4501 15.4C10.5474 15.53 10.6723 15.6369 10.8158 15.713C10.9593 15.7891 11.1179 15.8325 11.2801 15.84L12.8801 15.91C13.275 15.9275 13.6663 15.8276 14.0044 15.6229C14.3426 15.4183 14.6125 15.118 14.7801 14.76L15.7801 12.69C15.9881 12.2532 16.0308 11.7558 15.9001 11.29L15.0001 8.41996V8.12996L15.1101 6.26996C15.1163 6.15868 15.1587 6.05247 15.231 5.96759C15.3032 5.88271 15.4013 5.82383 15.5101 5.79996L16.6301 5.55996V6.66996H16.4301C16.2982 6.66658 16.1677 6.69809 16.0518 6.7613C15.9359 6.82451 15.8387 6.91718 15.7701 7.02996C15.7062 7.14461 15.6726 7.2737 15.6726 7.40496C15.6726 7.53623 15.7062 7.66532 15.7701 7.77996L18.4301 12.52C18.5292 12.6893 18.6907 12.813 18.8799 12.8647C19.0692 12.9163 19.2712 12.8918 19.4425 12.7963C19.6139 12.7008 19.741 12.542 19.7966 12.3539C19.8523 12.1657 19.832 11.9633 19.7401 11.79L17.5901 8.11996C17.7129 8.05878 17.8163 7.96465 17.8887 7.8481C17.9611 7.73155 17.9997 7.59717 18.0001 7.45996L18.0601 5.13996C18.0645 4.96722 18.03 4.79571 17.959 4.63817C17.888 4.48062 17.7824 4.3411 17.6501 4.22996C17.5143 4.11399 17.3524 4.03252 17.1783 3.99248C17.0042 3.95244 16.823 3.955 16.6501 3.99996L15.0701 4.32996C14.7731 4.39694 14.4953 4.53084 14.2579 4.72147C14.0205 4.9121 13.8297 5.15442 13.7001 5.42996H12.0101C11.9121 5.42996 11.8151 5.44942 11.7246 5.48724C11.6342 5.52505 11.5522 5.58045 11.4833 5.65023C11.4145 5.72001 11.3602 5.80277 11.3236 5.89371C11.287 5.98465 11.2688 6.08195 11.2701 6.17996C11.2701 6.37888 11.3491 6.56964 11.4898 6.71029C11.6305 6.85095 11.8212 6.92996 12.0201 6.92996H13.4501L13.3801 8.09997V8.21996L13.4301 8.63997C13.4253 8.67982 13.4253 8.72011 13.4301 8.75996L14.2701 11.76C14.3098 11.8733 14.3098 11.9967 14.2701 12.11L13.2701 14.18C13.2262 14.2691 13.1576 14.3438 13.0726 14.3952C12.9875 14.4466 12.8895 14.4726 12.7901 14.47H11.7901L12.0001 13.77C12.0199 13.6474 12.0199 13.5225 12.0001 13.4H12.1201C12.319 13.4 12.5098 13.3209 12.6505 13.1803C12.7911 13.0396 12.8701 12.8489 12.8701 12.65C12.8701 12.4511 12.7911 12.2603 12.6505 12.1196C12.5098 11.979 12.319 11.9 12.1201 11.9H2.68013C2.48122 11.9 2.29045 11.979 2.1498 12.1196C2.00915 12.2603 1.93013 12.4511 1.93013 12.65C1.93013 12.8489 2.00915 13.0396 2.1498 13.1803C2.29045 13.3209 2.48122 13.4 2.68013 13.4H2.83013L2.00013 14.75C1.86899 14.9892 1.78818 15.2527 1.76267 15.5243C1.73716 15.7959 1.76749 16.0699 1.85179 16.3294C1.93609 16.5888 2.07258 16.8283 2.25287 17.0331C2.43316 17.2378 2.65343 17.4035 2.90013 17.52C2.97373 18.2408 3.30577 18.9107 3.83489 19.4058C4.36401 19.9009 5.05444 20.1878 5.77862 20.2134C6.5028 20.239 7.21177 20.0016 7.77453 19.5451C8.33729 19.0886 8.71581 18.4438 8.84013 17.73H15.8401H16.1801C16.3248 18.2661 16.6155 18.7515 17.0198 19.1322C17.424 19.5129 17.926 19.7739 18.4699 19.8862C19.0137 19.9985 19.578 19.9576 20.1 19.7682C20.622 19.5787 21.0811 19.2481 21.4263 18.8131C21.7715 18.3782 21.9893 17.8559 22.0552 17.3046C22.1212 16.7532 22.0328 16.1944 21.8 15.6902C21.5672 15.1861 21.199 14.7565 20.7364 14.4492C20.2739 14.142 19.7351 13.9692 19.1801 13.95L19.1701 13.93ZM5.93013 18.53C5.65237 18.5317 5.37931 18.4582 5.13989 18.3174C4.90047 18.1765 4.7036 17.9736 4.57013 17.73H7.28013C7.14831 17.9728 6.95319 18.1754 6.7155 18.3162C6.47781 18.4571 6.20642 18.5309 5.93013 18.53ZM19.1701 18.53C18.8627 18.5299 18.5623 18.4385 18.307 18.2673C18.0516 18.0961 17.853 17.8528 17.7363 17.5684C17.6196 17.284 17.5901 16.9713 17.6515 16.6701C17.713 16.3689 17.8626 16.0928 18.0814 15.8769C18.3002 15.6609 18.5782 15.5149 18.8802 15.4573C19.1822 15.3998 19.4944 15.4334 19.7773 15.5538C20.0601 15.6742 20.3008 15.8759 20.4687 16.1335C20.6366 16.391 20.7241 16.6926 20.7201 17C20.7123 17.4068 20.5459 17.7944 20.2563 18.0802C19.9668 18.366 19.577 18.5274 19.1701 18.53ZM9.43013 10.76H4.50013C4.30122 10.76 4.11045 10.6809 3.9698 10.5403C3.82915 10.3996 3.75013 10.2089 3.75013 10.01C3.75013 9.81105 3.82915 9.62029 3.9698 9.47963C4.11045 9.33898 4.30122 9.25996 4.50013 9.25996H9.43013C9.62904 9.25996 9.81981 9.33898 9.96046 9.47963C10.1011 9.62029 10.1801 9.81105 10.1801 10.01C10.1801 10.2089 10.1011 10.3996 9.96046 10.5403C9.81981 10.6809 9.62904 10.76 9.43013 10.76ZM9.43013 8.18996H4.50013C4.30122 8.18996 4.11045 8.11095 3.9698 7.97029C3.82915 7.82964 3.75013 7.63888 3.75013 7.43996C3.75013 7.24105 3.82915 7.05029 3.9698 6.90963C4.11045 6.76898 4.30122 6.68996 4.50013 6.68996H9.43013C9.62904 6.68996 9.81981 6.76898 9.96046 6.90963C10.1011 7.05029 10.1801 7.24105 10.1801 7.43996C10.1801 7.63888 10.1011 7.82964 9.96046 7.97029C9.81981 8.11095 9.62904 8.18996 9.43013 8.18996Z" fill="black"/>
</svg>
