<svg width="24" height="24" viewBox="0 0 24 24" fill="none" xmlns="http://www.w3.org/2000/svg">
<path d="M21.3899 17.39L15.9999 6.00002C15.9689 5.93176 15.9421 5.86162 15.9199 5.79002H20.1699C20.4063 5.79008 20.6393 5.73389 20.8497 5.62608C21.0601 5.51827 21.2418 5.36195 21.3799 5.17002C21.5161 4.97616 21.6052 4.75313 21.6399 4.51873C21.6746 4.28433 21.6541 4.04506 21.5799 3.82002C21.3294 3.06944 20.8486 2.41699 20.2058 1.95556C19.5631 1.49413 18.7911 1.24723 17.9999 1.25002H5.99986C5.36769 1.25214 4.74625 1.41361 4.19301 1.71952C3.63977 2.02543 3.17259 2.46589 2.83467 3.00018C2.49675 3.53447 2.29901 4.14534 2.25971 4.7763C2.22042 5.40726 2.34085 6.03794 2.60986 6.61002L7.99987 18C8.03088 18.0683 8.0576 18.1384 8.07986 18.21H4.22986C3.92924 18.2109 3.63397 18.2897 3.37284 18.4386C3.11171 18.5876 2.89363 18.8017 2.73986 19.06C2.59231 19.3136 2.51457 19.6017 2.51457 19.895C2.51457 20.1884 2.59231 20.4765 2.73986 20.73C3.05618 21.3319 3.53057 21.8361 4.11201 22.1885C4.69346 22.5409 5.35997 22.7281 6.03986 22.73H17.9999C18.632 22.7279 19.2535 22.5664 19.8067 22.2605C20.36 21.9546 20.8271 21.5142 21.1651 20.9799C21.503 20.4456 21.7007 19.8347 21.74 19.2038C21.7793 18.5728 21.6589 17.9421 21.3899 17.37V17.39ZM17.9999 2.75002C18.4673 2.75052 18.9233 2.89469 19.3061 3.16299C19.6889 3.4313 19.9799 3.81078 20.1399 4.25002H9.99987C9.91751 4.25119 9.83662 4.2281 9.76728 4.18365C9.69794 4.1392 9.6432 4.07535 9.60986 4.00002C9.49094 3.54721 9.28363 3.12239 8.99987 2.75002H17.9999ZM3.99986 20.06C3.98095 20.032 3.97084 19.9989 3.97084 19.965C3.97084 19.9312 3.98095 19.8981 3.99986 19.87C4.02025 19.8347 4.04931 19.8051 4.08431 19.7841C4.1193 19.7631 4.15908 19.7514 4.19986 19.75H8.10986C8.10986 19.75 8.10986 19.8 8.10986 19.82L7.99987 20C7.96253 20.0799 7.91906 20.1568 7.86986 20.23C7.85029 20.2721 7.82686 20.3123 7.79987 20.35L7.59986 20.6C7.59986 20.6 7.59986 20.6 7.59986 20.65C7.50659 20.7411 7.40628 20.8247 7.29987 20.9H7.20987L6.92986 21L6.80986 21.05C6.72021 21.0904 6.62628 21.1206 6.52987 21.14H6.40986C6.27339 21.1504 6.13634 21.1504 5.99986 21.14C5.60029 21.1559 5.2038 21.064 4.85194 20.874C4.50007 20.684 4.20577 20.4028 3.99986 20.06ZM17.9999 21.25H8.99987L9.05987 21.16L9.17987 21C9.25982 20.8722 9.33002 20.7384 9.38987 20.6C9.42918 20.5296 9.46263 20.456 9.48986 20.38C9.48986 20.24 9.58987 20.09 9.62987 19.94C9.66987 19.79 9.62987 19.8 9.62987 19.73C9.67346 19.4992 9.69688 19.2649 9.69986 19.03C9.70087 18.4733 9.57789 17.9233 9.33987 17.42L3.99986 6.00002C3.84554 5.68981 3.76998 5.34636 3.77986 5.00002C3.77856 4.45479 3.97529 3.92763 4.33347 3.51655C4.69165 3.10547 5.18692 2.83843 5.7272 2.76509C6.26749 2.69175 6.81602 2.81709 7.27083 3.11781C7.72563 3.41853 8.05577 3.87417 8.19986 4.40002C8.317 4.78742 8.55477 5.12729 8.87855 5.37012C9.20232 5.61294 9.59517 5.74604 9.99987 5.75002H14.3099C14.3698 6.04651 14.4637 6.33509 14.5899 6.61002L19.9999 18C20.1542 18.3102 20.2297 18.6537 20.2199 19C20.2199 19.5916 19.987 20.1594 19.5715 20.5805C19.156 21.0016 18.5914 21.2421 17.9999 21.25Z" fill="black"/>
</svg>
