<svg width="24" height="24" viewBox="0 0 24 24" fill="none" xmlns="http://www.w3.org/2000/svg">
<path d="M17.6198 22.75H6.37979C5.55761 22.75 4.76912 22.4234 4.18775 21.842C3.60639 21.2607 3.27979 20.4722 3.27979 19.65V4.35C3.27979 3.52783 3.60639 2.73933 4.18775 2.15797C4.76912 1.57661 5.55761 1.25 6.37979 1.25H13.2698C13.5413 1.25043 13.8101 1.30454 14.0607 1.40923C14.3113 1.51392 14.5386 1.66711 14.7298 1.86L20.1298 7.33C20.5081 7.71379 20.72 8.23111 20.7198 8.77V19.65C20.7198 20.4722 20.3932 21.2607 19.8118 21.842C19.2305 22.4234 18.442 22.75 17.6198 22.75ZM6.37979 2.75C5.95544 2.75 5.54847 2.91857 5.24841 3.21863C4.94836 3.51869 4.77979 3.92565 4.77979 4.35V19.65C4.77979 20.0743 4.94836 20.4813 5.24841 20.7814C5.54847 21.0814 5.95544 21.25 6.37979 21.25H17.6198C18.0441 21.25 18.4511 21.0814 18.7512 20.7814C19.0512 20.4813 19.2198 20.0743 19.2198 19.65V8.77C19.2163 8.62473 19.1593 8.48586 19.0598 8.38L13.6598 2.91C13.6085 2.85899 13.5476 2.81861 13.4807 2.79115C13.4138 2.7637 13.3421 2.74971 13.2698 2.75H6.37979Z" fill="black"/>
<path d="M19.9398 9.25003H16.6198C15.5978 9.25003 14.6175 8.84473 13.8939 8.123C13.1703 7.40127 12.7624 6.42203 12.7598 5.40003V2.00003C12.7592 1.89668 12.7802 1.79434 12.8215 1.69961C12.8629 1.60488 12.9236 1.51986 12.9998 1.45003C13.0842 1.378 13.1839 1.32615 13.2913 1.29843C13.3987 1.2707 13.5111 1.26783 13.6198 1.29003C14.0304 1.36279 14.408 1.56208 14.6998 1.86003L20.0998 7.33003C20.37 7.60614 20.5571 7.95266 20.6398 8.33003C20.6639 8.4388 20.6631 8.5516 20.6375 8.66003C20.6119 8.76846 20.5622 8.86971 20.492 8.95623C20.4218 9.04275 20.333 9.11231 20.2322 9.15972C20.1314 9.20713 20.0212 9.23116 19.9098 9.23003L19.9398 9.25003ZM14.2598 3.52003V5.40003C14.2624 6.02421 14.5122 6.62192 14.9545 7.06234C15.3968 7.50277 15.9956 7.75004 16.6198 7.75003H18.4398L14.2598 3.52003Z" fill="black"/>
<path d="M16.2497 17.24L14.1697 15.24C14.6399 14.5873 14.895 13.8043 14.8997 13C14.9095 12.1086 14.6212 11.2394 14.0806 10.5306C13.5401 9.82172 12.7783 9.31374 11.9161 9.08728C11.0539 8.86082 10.1407 8.92886 9.3216 9.28061C8.50248 9.63235 7.82433 10.2476 7.39482 11.0288C6.96531 11.8099 6.80904 12.7122 6.95083 13.5923C7.09262 14.4724 7.52433 15.2799 8.17744 15.8866C8.83055 16.4934 9.66762 16.8645 10.5558 16.9412C11.4439 17.0179 12.3322 16.7957 13.0797 16.31L15.2197 18.31C15.3593 18.4446 15.5457 18.5198 15.7397 18.52C15.8416 18.5211 15.9426 18.5002 16.0358 18.4588C16.129 18.4174 16.2122 18.3564 16.2797 18.28C16.4101 18.1364 16.4799 17.9478 16.4743 17.7539C16.4687 17.56 16.3882 17.3758 16.2497 17.24ZM8.51967 13C8.51973 12.5191 8.66188 12.049 8.92827 11.6486C9.19465 11.2483 9.57339 10.9356 10.0169 10.7498C10.4604 10.564 10.949 10.5134 11.4212 10.6043C11.8934 10.6953 12.3281 10.9237 12.6709 11.261C13.0137 11.5982 13.2492 12.0292 13.3478 12.4999C13.4464 12.9705 13.4038 13.4598 13.2252 13.9063C13.0467 14.3528 12.7401 14.7366 12.3442 15.0094C11.9482 15.2823 11.4805 15.4321 10.9997 15.44C10.6763 15.4439 10.3553 15.3838 10.0552 15.2631C9.75513 15.1424 9.48193 14.9634 9.25138 14.7366C9.02082 14.5097 8.83746 14.2395 8.71187 13.9414C8.58629 13.6434 8.52096 13.3234 8.51967 13Z" fill="black"/>
</svg>
