<svg width="24" height="24" viewBox="0 0 24 24" fill="none" xmlns="http://www.w3.org/2000/svg">
<path d="M11.9998 22.7501C11.0407 22.7508 10.1111 22.4186 9.36979 21.8101L4.77979 18.0601C4.30306 17.6722 3.91914 17.1827 3.65613 16.6273C3.39312 16.0718 3.2577 15.4646 3.25979 14.8501V7.50006C3.26021 6.70599 3.48844 5.92871 3.91739 5.26047C4.34634 4.59223 4.95801 4.06108 5.67979 3.73006L10.2698 1.63006C10.8117 1.37786 11.4021 1.24719 11.9998 1.24719C12.5975 1.24719 13.1879 1.37786 13.7298 1.63006L18.3198 3.73006C19.0416 4.06108 19.6532 4.59223 20.0822 5.26047C20.5111 5.92871 20.7394 6.70599 20.7398 7.50006V14.8501C20.7419 15.4646 20.6065 16.0718 20.3435 16.6273C20.0804 17.1827 19.6965 17.6722 19.2198 18.0601L14.6298 21.8101C13.8885 22.4186 12.9589 22.7508 11.9998 22.7501ZM11.9998 2.75006C11.6194 2.75285 11.2441 2.83814 10.8998 3.00006L6.30979 5.09006C5.84836 5.30194 5.45721 5.64146 5.18255 6.06851C4.90789 6.49556 4.76119 6.99231 4.75979 7.50006V14.8501C4.76859 15.2366 4.86282 15.6163 5.03571 15.9621C5.2086 16.3079 5.45587 16.6111 5.75979 16.8501L10.3498 20.6001C10.8235 20.9884 11.4172 21.2006 12.0298 21.2006C12.6424 21.2006 13.236 20.9884 13.7098 20.6001L18.2998 16.8501C18.6037 16.6111 18.851 16.3079 19.0239 15.9621C19.1968 15.6163 19.291 15.2366 19.2998 14.8501V7.50006C19.2984 6.99231 19.1517 6.49556 18.877 6.06851C18.6024 5.64146 18.2112 5.30194 17.7498 5.09006L13.0998 3.00006C12.7555 2.83814 12.3802 2.75285 11.9998 2.75006ZM11.9998 18.0801C9.47979 18.0801 7.50979 16.6501 7.50979 14.8201C7.56799 14.1055 7.85391 13.4284 8.32552 12.8884C8.79713 12.3484 9.42954 11.9739 10.1298 11.8201C9.69689 11.5224 9.34313 11.1237 9.09917 10.6584C8.85521 10.1931 8.72842 9.6754 8.72979 9.15006C8.72979 8.2828 9.07431 7.45106 9.68755 6.83782C10.3008 6.22457 11.1325 5.88006 11.9998 5.88006C12.867 5.88006 13.6988 6.22457 14.312 6.83782C14.9253 7.45106 15.2698 8.2828 15.2698 9.15006C15.2712 9.6754 15.1444 10.1931 14.9004 10.6584C14.6564 11.1237 14.3027 11.5224 13.8698 11.8201C14.57 11.9739 15.2025 12.3484 15.6741 12.8884C16.1457 13.4284 16.4316 14.1055 16.4898 14.8201C16.4898 16.6501 14.5198 18.0801 11.9998 18.0801ZM11.9998 13.0801C10.4098 13.0801 8.99979 13.9001 8.99979 14.8301C8.99979 15.7601 10.3998 16.5901 11.9998 16.5901C13.5998 16.5901 14.9998 15.7701 14.9998 14.8301C14.9998 13.8901 13.5898 13.0701 11.9998 13.0701V13.0801ZM11.9998 7.43006C11.6521 7.43203 11.3128 7.53693 11.0247 7.73152C10.7366 7.92611 10.5126 8.20167 10.3809 8.52343C10.2492 8.8452 10.2158 9.19876 10.2848 9.5395C10.3539 9.88025 10.5223 10.1929 10.7688 10.4381C11.0153 10.6832 11.329 10.8498 11.6701 10.9169C12.0112 10.984 12.3646 10.9486 12.6856 10.8151C13.0066 10.6816 13.2809 10.456 13.4739 10.1668C13.6668 9.8776 13.7698 9.53772 13.7698 9.19006C13.7711 8.95725 13.7262 8.72649 13.6378 8.51114C13.5493 8.29579 13.419 8.10014 13.2543 7.93552C13.0897 7.7709 12.8941 7.64057 12.6787 7.55209C12.4634 7.46361 12.2326 7.41873 11.9998 7.42006V7.43006Z" fill="black"/>
</svg>
