<svg width="24" height="24" viewBox="0 0 24 24" fill="none" xmlns="http://www.w3.org/2000/svg">
<path d="M8.74977 22.15C8.29365 22.1463 7.84609 22.0258 7.44977 21.8L5.81977 20.85C5.52317 20.6803 5.26339 20.4532 5.05562 20.1819C4.84786 19.9106 4.69628 19.6006 4.60977 19.27C4.51827 18.9361 4.49414 18.5872 4.53878 18.2439C4.58342 17.9005 4.69593 17.5695 4.86977 17.27L5.30977 16.52C5.09394 16.2002 4.90015 15.8661 4.72977 15.52H3.82977C3.48833 15.5187 3.15049 15.4501 2.83555 15.3183C2.5206 15.1864 2.23472 14.9938 1.99421 14.7514C1.75371 14.5091 1.56329 14.2217 1.43385 13.9057C1.3044 13.5898 1.23845 13.2514 1.23977 12.91V11C1.24266 10.6663 1.31127 10.3365 1.44168 10.0294C1.57208 9.72225 1.76172 9.44382 1.99977 9.21C2.23982 8.96988 2.52524 8.7799 2.83941 8.65114C3.15359 8.52238 3.49024 8.45741 3.82977 8.46H4.70977C4.88141 8.11252 5.07862 7.77827 5.29977 7.46L4.85977 6.67C4.69015 6.37259 4.58142 6.04439 4.53993 5.70454C4.49843 5.36468 4.525 5.01997 4.61807 4.69048C4.71115 4.361 4.86887 4.05333 5.08205 3.78542C5.29523 3.51751 5.55961 3.29471 5.85977 3.13L7.49977 2.19C7.79783 2.02307 8.12587 1.91652 8.46514 1.87644C8.8044 1.83636 9.14824 1.86353 9.477 1.9564C9.80576 2.04927 10.113 2.20601 10.3811 2.41768C10.6493 2.62935 10.8731 2.89179 11.0398 3.19L11.4698 3.94C11.8228 3.92 12.1767 3.92 12.5298 3.94L12.9998 3.15C13.1708 2.85444 13.3983 2.59546 13.6694 2.38785C13.9405 2.18023 14.2499 2.02805 14.5798 1.94C14.9134 1.84565 15.2627 1.82005 15.6064 1.86475C15.9502 1.90944 16.2814 2.0235 16.5798 2.2L18.2098 3.14C18.8062 3.48505 19.2413 4.05276 19.4194 4.7184C19.5975 5.38404 19.5042 6.09317 19.1598 6.69L18.7298 7.45C18.9549 7.7676 19.1555 8.1019 19.3298 8.45H20.2298C20.9185 8.45791 21.5762 8.73775 22.0595 9.22853C22.5428 9.7193 22.8124 10.3812 22.8098 11.07V13C22.8019 13.6853 22.5248 14.34 22.0383 14.8227C21.5519 15.3054 20.8951 15.5774 20.2098 15.58H19.3198C19.1559 15.9043 18.9722 16.2182 18.7698 16.52L19.2198 17.31C19.3867 17.6081 19.4932 17.9361 19.5333 18.2754C19.5734 18.6146 19.5462 18.9585 19.4534 19.2872C19.3605 19.616 19.2037 19.9232 18.9921 20.1914C18.7804 20.4595 18.518 20.6833 18.2198 20.85L16.5798 21.79C16.282 21.9583 15.9539 22.0659 15.6143 22.1067C15.2748 22.1475 14.9305 22.1206 14.6014 22.0276C14.2723 21.9346 13.9648 21.7774 13.6968 21.565C13.4288 21.3526 13.2055 21.0892 13.0398 20.79L12.5998 20.04C12.227 20.0699 11.8525 20.0699 11.4798 20.04L11.0198 20.82C10.7939 21.2235 10.4644 21.5595 10.0654 21.7933C9.66639 22.0271 9.21223 22.1502 8.74977 22.15ZM3.84977 10C3.55961 9.99936 3.28032 10.1104 3.06977 10.31C2.96775 10.4126 2.88698 10.5343 2.83207 10.6681C2.77716 10.802 2.74919 10.9453 2.74977 11.09V12.97C2.76733 13.246 2.88823 13.5053 3.08837 13.6962C3.28852 13.887 3.55323 13.9955 3.82977 14H5.20977C5.35786 13.9976 5.50318 14.0403 5.62643 14.1225C5.74967 14.2047 5.845 14.3224 5.89977 14.46C6.13287 15.0096 6.43532 15.5271 6.79977 16C6.8891 16.1196 6.94223 16.2623 6.95287 16.4112C6.96351 16.5601 6.93119 16.7089 6.85977 16.84L6.16977 18.01C6.02946 18.2664 5.99021 18.5661 6.05977 18.85C6.13554 19.1289 6.31899 19.3663 6.56977 19.51L8.19977 20.46C8.32492 20.5345 8.46397 20.5828 8.60842 20.6017C8.75286 20.6206 8.89964 20.6098 9.03977 20.57C9.32 20.4917 9.5597 20.3093 9.70977 20.06L10.3998 18.86C10.4758 18.7326 10.5871 18.6299 10.7202 18.5643C10.8532 18.4987 11.0024 18.4729 11.1498 18.49C11.7276 18.56 12.3119 18.56 12.8898 18.49C13.0366 18.4665 13.187 18.4884 13.3211 18.5527C13.4551 18.617 13.5663 18.7208 13.6398 18.85L14.3198 20.03C14.4644 20.2832 14.7036 20.4686 14.9849 20.5455C15.2662 20.6224 15.5665 20.5844 15.8198 20.44L17.4498 19.5C17.5765 19.4308 17.6879 19.3366 17.7773 19.2232C17.8666 19.1097 17.9321 18.9794 17.9698 18.84C18.0393 18.5561 18.0001 18.2564 17.8598 18L17.1698 16.8C17.0893 16.6765 17.0465 16.5324 17.0465 16.385C17.0465 16.2376 17.0893 16.0935 17.1698 15.97C17.5216 15.5157 17.8139 15.0184 18.0398 14.49C18.089 14.3479 18.1828 14.2255 18.307 14.1409C18.4313 14.0562 18.5795 14.0138 18.7298 14.02H20.0898C20.3771 14.0314 20.6578 13.9318 20.8737 13.742C21.0897 13.5521 21.2243 13.2864 21.2498 13V11.1C21.2503 10.9553 21.2224 10.812 21.1675 10.6781C21.1125 10.5443 21.0318 10.4226 20.9298 10.32C20.8302 10.216 20.7107 10.1332 20.5784 10.0765C20.4461 10.0198 20.3037 9.99038 20.1598 9.99H18.7898C18.6414 9.98755 18.4971 9.94174 18.3745 9.85823C18.2518 9.77471 18.1564 9.65714 18.0998 9.52C17.8664 8.97457 17.5603 8.46326 17.1898 8C17.0996 7.88047 17.0468 7.73699 17.0379 7.58755C17.029 7.43811 17.0644 7.28937 17.1398 7.16L17.8198 5.98C17.9642 5.72669 18.0021 5.4264 17.9253 5.14513C17.8484 4.86386 17.663 4.62462 17.4098 4.48L15.7798 3.5C15.5439 3.3635 15.2642 3.32405 14.9998 3.39C14.7186 3.46638 14.4783 3.64932 14.3298 3.9L13.6398 5.1C13.5656 5.22917 13.4547 5.33334 13.3211 5.39924C13.1876 5.46513 13.0374 5.48977 12.8898 5.47C12.3286 5.40004 11.7609 5.40004 11.1998 5.47C11.0536 5.48904 10.9051 5.464 10.7732 5.39808C10.6414 5.33215 10.5322 5.22836 10.4598 5.1L9.73977 3.91C9.59328 3.6588 9.35406 3.47511 9.07356 3.39844C8.79305 3.32177 8.49366 3.35824 8.23977 3.5L6.59977 4.42C6.34686 4.56483 6.16105 4.80331 6.08247 5.08396C6.00389 5.3646 6.03884 5.6649 6.17977 5.92L6.85977 7.13C6.94318 7.26268 6.98232 7.41842 6.97154 7.57478C6.96075 7.73113 6.90061 7.88002 6.79977 8C6.43823 8.4604 6.13587 8.96433 5.89977 9.5C5.84384 9.63681 5.74823 9.75375 5.62525 9.83573C5.50228 9.91772 5.35756 9.961 5.20977 9.96H3.84977V10ZM11.9998 16C11.2086 16 10.4353 15.7654 9.77748 15.3259C9.11969 14.8864 8.607 14.2616 8.30425 13.5307C8.0015 12.7998 7.92228 11.9956 8.07662 11.2196C8.23096 10.4437 8.61193 9.73098 9.17134 9.17157C9.73075 8.61216 10.4435 8.2312 11.2194 8.07686C11.9953 7.92252 12.7996 8.00173 13.5305 8.30448C14.2614 8.60723 14.8861 9.11992 15.3256 9.77772C15.7652 10.4355 15.9998 11.2089 15.9998 12C15.9998 13.0609 15.5783 14.0783 14.8282 14.8284C14.078 15.5786 13.0606 16 11.9998 16ZM11.9998 9.5C11.5053 9.5 11.022 9.64662 10.6108 9.92132C10.1997 10.196 9.87929 10.5865 9.69007 11.0433C9.50085 11.5001 9.45134 12.0028 9.5478 12.4877C9.64427 12.9727 9.88237 13.4181 10.232 13.7678C10.5816 14.1174 11.0271 14.3555 11.512 14.452C11.997 14.5484 12.4997 14.4989 12.9565 14.3097C13.4133 14.1205 13.8037 13.8 14.0784 13.3889C14.3531 12.9778 14.4998 12.4945 14.4998 12C14.4998 11.337 14.2364 10.7011 13.7675 10.2322C13.2987 9.76339 12.6628 9.5 11.9998 9.5Z" fill="black"/>
</svg>
