<svg width="24" height="24" viewBox="0 0 24 24" fill="none" xmlns="http://www.w3.org/2000/svg">
<path d="M10.1298 2.26001C9.02195 2.26463 7.95166 2.66211 7.10935 3.38174C6.26704 4.10137 5.70733 5.09647 5.5298 6.19001H2.77979C2.68128 6.18599 2.58295 6.20143 2.49041 6.23546C2.39788 6.26948 2.31296 6.32141 2.24051 6.38828C2.16806 6.45516 2.10951 6.53566 2.06821 6.62518C2.0269 6.7147 2.00366 6.81149 1.9998 6.91001C1.99978 7.10985 2.07847 7.30166 2.21885 7.44391C2.35922 7.58615 2.54997 7.66738 2.7498 7.67001H5.44979H5.5298C5.67114 8.54879 6.0612 9.36871 6.65384 10.0328C7.24648 10.6969 8.01691 11.1773 8.87402 11.4174C9.73112 11.6574 10.639 11.6469 11.4904 11.3872C12.3417 11.1275 13.1009 10.6294 13.6781 9.95186C14.2552 9.2743 14.6263 8.44561 14.7474 7.5638C14.8684 6.682 14.7344 5.78397 14.3612 4.97593C13.9879 4.16789 13.3911 3.48364 12.6412 3.00412C11.8914 2.52459 11.0199 2.26984 10.1298 2.27001V2.26001ZM10.1298 10.09C9.5024 10.09 8.88912 9.90383 8.3676 9.55507C7.84608 9.2063 7.43979 8.71062 7.20015 8.1308C6.96052 7.55097 6.89833 6.91308 7.02146 6.29789C7.14459 5.68269 7.44749 5.11787 7.89183 4.67494C8.33616 4.23201 8.90193 3.93089 9.51751 3.80971C10.1331 3.68852 10.7708 3.75273 11.3498 3.99419C11.9289 4.23566 12.4233 4.64352 12.7704 5.16614C13.1175 5.68875 13.3018 6.30262 13.2998 6.93001C13.2971 7.76901 12.962 8.57275 12.3678 9.16508C11.7736 9.75741 10.9688 10.09 10.1298 10.09ZM16.6398 7.68001C16.4409 7.68001 16.2501 7.60099 16.1095 7.46034C15.9688 7.31969 15.8898 7.12892 15.8898 6.93001C15.8871 6.83163 15.9043 6.73371 15.9404 6.64216C15.9765 6.5506 16.0308 6.46728 16.0999 6.39723C16.169 6.32717 16.2516 6.27181 16.3426 6.23448C16.4337 6.19715 16.5314 6.17862 16.6298 6.18001H21.2198C21.417 6.17999 21.6063 6.25764 21.7466 6.39613C21.887 6.53463 21.9672 6.72284 21.9698 6.92001C21.9698 7.11985 21.8911 7.31166 21.7507 7.45391C21.6104 7.59615 21.4196 7.67738 21.2198 7.68001H16.6398ZM21.2198 16.31H18.5498H18.4798C18.2949 15.1472 17.6785 14.0969 16.7535 13.3684C15.8285 12.6399 14.663 12.2868 13.4892 12.3796C12.3155 12.4723 11.2198 13.004 10.4207 13.8688C9.62166 14.7335 9.17787 15.8676 9.17787 17.045C9.17787 18.2224 9.62166 19.3565 10.4207 20.2213C11.2198 21.086 12.3155 21.6177 13.4892 21.7105C14.663 21.8032 15.8285 21.4501 16.7535 20.7216C17.6785 19.9932 18.2949 18.9428 18.4798 17.78H18.5598H21.2298C21.4287 17.78 21.6195 17.701 21.7601 17.5603C21.9008 17.4197 21.9798 17.2289 21.9798 17.03C21.9695 16.8355 21.885 16.6523 21.7435 16.5183C21.6021 16.3843 21.4146 16.3097 21.2198 16.31ZM13.8698 20.25C13.2412 20.2579 12.6244 20.0788 12.0979 19.7353C11.5713 19.3919 11.1588 18.8996 10.9127 18.3211C10.6667 17.7426 10.5981 17.104 10.7159 16.4865C10.8337 15.8689 11.1324 15.3004 11.5741 14.853C12.0158 14.4057 12.5805 14.0998 13.1965 13.9742C13.8125 13.8486 14.4519 13.909 15.0335 14.1477C15.6151 14.3864 16.1125 14.7926 16.4626 15.3148C16.8128 15.8369 16.9997 16.4514 16.9998 17.08C16.9973 17.9131 16.668 18.7119 16.0826 19.3047C15.4973 19.8975 14.7028 20.2369 13.8698 20.25ZM7.3598 17.83H2.77979C2.6771 17.8342 2.57465 17.8172 2.4788 17.7801C2.38296 17.743 2.29576 17.6866 2.22261 17.6144C2.14947 17.5422 2.09195 17.4557 2.05362 17.3603C2.01529 17.265 1.99697 17.1627 1.9998 17.06C2.00238 16.8619 2.08223 16.6726 2.22233 16.5325C2.36242 16.3924 2.55169 16.3126 2.7498 16.31H7.32979C7.4282 16.3086 7.52588 16.3272 7.61694 16.3645C7.70801 16.4018 7.79059 16.4572 7.85971 16.5272C7.92884 16.5973 7.98308 16.6806 8.01918 16.7722C8.05529 16.8637 8.0725 16.9616 8.06979 17.06C8.07529 17.2556 8.00412 17.4456 7.87147 17.5895C7.73882 17.7333 7.5552 17.8197 7.3598 17.83Z" fill="black"/>
</svg>
