<svg width="24" height="24" viewBox="0 0 24 24" fill="none" xmlns="http://www.w3.org/2000/svg">
<path d="M12 22.26C11.1542 22.2637 10.3225 22.0428 9.58996 21.62L4.87996 18.9C4.14588 18.4762 3.53598 17.867 3.11128 17.1335C2.68659 16.3999 2.46199 15.5676 2.45996 14.72V9.28001C2.46199 8.43237 2.68659 7.60013 3.11128 6.86657C3.53598 6.133 4.14588 5.52383 4.87996 5.10001L9.58996 2.38001C10.3227 1.95697 11.1539 1.73425 12 1.73425C12.846 1.73425 13.6772 1.95697 14.41 2.38001L19.12 5.10001C19.854 5.52383 20.4639 6.133 20.8886 6.86657C21.3133 7.60013 21.5379 8.43237 21.54 9.28001V14.72C21.5379 15.5676 21.3133 16.3999 20.8886 17.1335C20.4639 17.867 19.854 18.4762 19.12 18.9L14.41 21.62C13.6769 22.0415 12.8456 22.2622 12 22.26ZM12 3.26001C11.4172 3.25519 10.8438 3.40716 10.34 3.70001L5.62996 6.40001C5.13082 6.69635 4.7178 7.11801 4.43188 7.6232C4.14596 8.12838 3.99707 8.69953 3.99996 9.28001V14.72C3.99707 15.3005 4.14596 15.8716 4.43188 16.3768C4.7178 16.882 5.13082 17.3037 5.62996 17.6L10.34 20.32C10.845 20.6104 11.4174 20.7633 12 20.7633C12.5825 20.7633 13.1549 20.6104 13.66 20.32L18.37 17.6C18.8691 17.3037 19.2821 16.882 19.568 16.3768C19.854 15.8716 20.0029 15.3005 20 14.72V9.28001C20.0029 8.69953 19.854 8.12838 19.568 7.6232C19.2821 7.11801 18.8691 6.69635 18.37 6.40001L13.66 3.68001C13.1561 3.38716 12.5827 3.23519 12 3.24001V3.26001Z" fill="black"/>
<path d="M11.9999 16.08C11.193 16.08 10.4041 15.8407 9.7332 15.3924C9.06224 14.9441 8.5393 14.3069 8.2305 13.5613C7.92169 12.8158 7.84089 11.9955 7.99832 11.204C8.15575 10.4126 8.54433 9.68559 9.11493 9.11499C9.68553 8.54439 10.4125 8.15581 11.204 7.99838C11.9954 7.84095 12.8157 7.92175 13.5613 8.23056C14.3068 8.53936 14.944 9.06231 15.3923 9.73326C15.8406 10.4042 16.0799 11.193 16.0799 12C16.0799 13.0821 15.6501 14.1198 14.8849 14.885C14.1198 15.6501 13.082 16.08 11.9999 16.08ZM11.9999 9.41998C11.4896 9.41998 10.9908 9.5713 10.5666 9.85479C10.1423 10.1383 9.81159 10.5412 9.61631 11.0127C9.42104 11.4841 9.36995 12.0028 9.4695 12.5033C9.56905 13.0038 9.81477 13.4635 10.1756 13.8243C10.5364 14.1851 10.9961 14.4309 11.4966 14.5304C11.9971 14.63 12.5158 14.5789 12.9872 14.3836C13.4587 14.1883 13.8616 13.8576 14.1451 13.4334C14.4286 13.0091 14.5799 12.5103 14.5799 12C14.5773 11.3165 14.3046 10.6618 13.8213 10.1786C13.3381 9.69529 12.6834 9.42262 11.9999 9.41998Z" fill="black"/>
</svg>
