<svg width="24" height="24" viewBox="0 0 24 24" fill="none" xmlns="http://www.w3.org/2000/svg">
<path d="M16.87 22.75H7.13C5.57134 22.7474 4.07727 22.127 2.97513 21.0249C1.87299 19.9227 1.25264 18.4287 1.25 16.87V7.13001C1.25265 5.57227 1.87332 4.07924 2.97574 2.97868C4.07817 1.87813 5.57226 1.26001 7.13 1.26001H16.87C18.4268 1.26001 19.9199 1.87845 21.0207 2.97929C22.1216 4.08013 22.74 5.57319 22.74 7.13001V16.87C22.74 18.4278 22.1219 19.9218 21.0213 21.0243C19.9208 22.1267 18.4277 22.7474 16.87 22.75ZM7.13 2.75001C5.96835 2.75001 4.85428 3.21147 4.03287 4.03288C3.21146 4.85429 2.75 5.96836 2.75 7.13001V16.87C2.75264 18.0308 3.21495 19.1434 4.03579 19.9642C4.85663 20.7851 5.96916 21.2474 7.13 21.25H16.87C18.0299 21.2474 19.1414 20.7847 19.9607 19.9636C20.7799 19.1425 21.24 18.0299 21.24 16.87V7.13001C21.24 5.97101 20.7796 4.85949 19.9601 4.03995C19.1405 3.22042 18.029 2.76001 16.87 2.76001L7.13 2.75001ZM8.42 9.15001C8.61811 9.14742 8.80737 9.06757 8.94747 8.92748C9.08756 8.78738 9.16741 8.59812 9.17 8.40001V5.50001C9.17 5.3011 9.09098 5.11033 8.95033 4.96968C8.80968 4.82903 8.61891 4.75001 8.42 4.75001C8.22109 4.75001 8.03032 4.82903 7.88967 4.96968C7.74902 5.11033 7.67 5.3011 7.67 5.50001V8.40001C7.67259 8.59812 7.75244 8.78738 7.89253 8.92748C8.03263 9.06757 8.22189 9.14742 8.42 9.15001ZM8.42 10.4C7.56861 10.4087 6.74994 10.7292 6.11897 11.3009C5.48799 11.8726 5.08849 12.6558 4.99609 13.5022C4.90369 14.3486 5.12479 15.1995 5.61756 15.8938C6.11032 16.5882 6.84054 17.0778 7.67 17.27V18.51C7.66999 18.608 7.68946 18.7051 7.72727 18.7955C7.76508 18.886 7.82049 18.968 7.89026 19.0368C7.96004 19.1057 8.0428 19.16 8.13374 19.1966C8.22468 19.2332 8.32198 19.2513 8.42 19.25C8.61811 19.2474 8.80737 19.1676 8.94747 19.0275C9.08756 18.8874 9.16741 18.6981 9.17 18.5V17.27C9.99946 17.0778 10.7297 16.5882 11.2224 15.8938C11.7152 15.1995 11.9363 14.3486 11.8439 13.5022C11.7515 12.6558 11.352 11.8726 10.721 11.3009C10.0901 10.7292 9.27139 10.4087 8.42 10.4ZM8.42 15.86C8.02444 15.86 7.63776 15.7427 7.30886 15.5229C6.97996 15.3032 6.72362 14.9908 6.57224 14.6254C6.42087 14.2599 6.38126 13.8578 6.45843 13.4698C6.5356 13.0819 6.72608 12.7255 7.00579 12.4458C7.28549 12.1661 7.64186 11.9756 8.02982 11.8984C8.41778 11.8213 8.81991 11.8609 9.18537 12.0123C9.55082 12.1636 9.86318 12.42 10.0829 12.7489C10.3027 13.0778 10.42 13.4644 10.42 13.86C10.42 14.3904 10.2093 14.8992 9.83421 15.2742C9.45914 15.6493 8.95043 15.86 8.42 15.86ZM15.58 14.86C15.3819 14.8626 15.1926 14.9424 15.0525 15.0825C14.9124 15.2226 14.8326 15.4119 14.83 15.61V18.51C14.83 18.7089 14.909 18.8997 15.0497 19.0403C15.1903 19.181 15.3811 19.26 15.58 19.26C15.7789 19.26 15.9697 19.181 16.1103 19.0403C16.251 18.8997 16.33 18.7089 16.33 18.51V15.6C16.3274 15.4019 16.2476 15.2126 16.1075 15.0725C15.9674 14.9324 15.7781 14.8526 15.58 14.85V14.86ZM16.33 6.74001V5.50001C16.3274 5.3019 16.2476 5.11264 16.1075 4.97254C15.9674 4.83245 15.7781 4.7526 15.58 4.75001C15.482 4.74869 15.3847 4.76685 15.2937 4.80344C15.2028 4.84004 15.12 4.89434 15.0503 4.96318C14.9805 5.03203 14.9251 5.11406 14.8873 5.2045C14.8495 5.29493 14.83 5.39198 14.83 5.49001V6.73001C13.9925 6.91485 13.2528 7.40243 12.7527 8.0992C12.2527 8.79598 12.0275 9.65287 12.1205 10.5055C12.2135 11.358 12.618 12.1463 13.2565 12.7189C13.8949 13.2915 14.7224 13.6082 15.58 13.6082C16.4376 13.6082 17.2651 13.2915 17.9035 12.7189C18.542 12.1463 18.9465 11.358 19.0395 10.5055C19.1325 9.65287 18.9073 8.79598 18.4073 8.0992C17.9072 7.40243 17.1675 6.91485 16.33 6.73001V6.74001ZM15.58 12.11C15.1844 12.11 14.7978 11.9927 14.4689 11.7729C14.14 11.5532 13.8836 11.2408 13.7322 10.8754C13.5809 10.5099 13.5413 10.1078 13.6184 9.71983C13.6956 9.33187 13.8861 8.9755 14.1658 8.6958C14.4455 8.41609 14.8019 8.22561 15.1898 8.14844C15.5778 8.07127 15.9799 8.11088 16.3454 8.26225C16.7108 8.41363 17.0232 8.66997 17.2429 8.99887C17.4627 9.32777 17.58 9.71445 17.58 10.11C17.5774 10.6387 17.3655 11.1449 16.9907 11.5178C16.6159 11.8907 16.1087 12.1 15.58 12.1V12.11Z" fill="black"/>
</svg>
