<svg width="24" height="24" viewBox="0 0 24 24" fill="none" xmlns="http://www.w3.org/2000/svg">
<path d="M12.0502 22C10.7319 22.0027 9.4286 21.7195 8.23023 21.17C8.05143 21.0833 7.91309 20.9308 7.84414 20.7444C7.77518 20.558 7.78094 20.3522 7.86023 20.17C7.945 19.9894 8.09737 19.8494 8.28445 19.7802C8.47154 19.711 8.67834 19.7181 8.86023 19.8C9.83511 20.2436 10.8918 20.479 11.9628 20.491C13.0339 20.5031 14.0956 20.2916 15.0802 19.87C15.2624 19.8011 15.464 19.8047 15.6436 19.8802C15.8231 19.9556 15.9669 20.0971 16.0451 20.2754C16.1234 20.4537 16.1302 20.6553 16.0641 20.8385C15.9981 21.0217 15.8643 21.1726 15.6902 21.26C14.5408 21.7546 13.3016 22.0065 12.0502 22ZM20.4602 12.75C20.5589 12.74 20.6547 12.7106 20.7419 12.6634C20.8292 12.6161 20.9062 12.5521 20.9685 12.4749C21.0308 12.3977 21.0772 12.3089 21.105 12.2136C21.1327 12.1184 21.1413 12.0186 21.1302 11.92C20.9988 10.6696 20.6113 9.45961 19.992 8.36542C19.3726 7.27124 18.5347 6.31628 17.5302 5.56C17.3689 5.45979 17.176 5.42358 16.9893 5.45851C16.8027 5.49344 16.6359 5.59698 16.5217 5.74874C16.4076 5.9005 16.3544 6.08949 16.3726 6.2785C16.3909 6.46751 16.4792 6.64285 16.6202 6.77C17.4561 7.40135 18.1536 8.19743 18.6696 9.10904C19.1856 10.0206 19.5091 11.0284 19.6202 12.07C19.6399 12.2557 19.7272 12.4276 19.8655 12.5531C20.0039 12.6785 20.1835 12.7486 20.3702 12.75H20.4602ZM4.46023 12.07C4.57515 11.0038 4.91324 9.97373 5.45251 9.0468C5.99178 8.11988 6.72015 7.31686 7.59023 6.69C7.68337 6.63713 7.76429 6.56518 7.82767 6.47885C7.89106 6.39252 7.93549 6.29377 7.95804 6.18907C7.98059 6.08437 7.98075 5.97608 7.95853 5.87132C7.9363 5.76655 7.89218 5.66766 7.82906 5.58114C7.76594 5.49461 7.68525 5.42241 7.59227 5.36925C7.49929 5.3161 7.39612 5.2832 7.28954 5.2727C7.18295 5.26221 7.07535 5.27436 6.97379 5.30836C6.87223 5.34236 6.77901 5.39745 6.70023 5.47C5.66756 6.22514 4.80472 7.18843 4.16741 8.2977C3.5301 9.40696 3.13248 10.6375 3.00023 11.91C2.98914 12.0086 2.99773 12.1084 3.02549 12.2036C3.05325 12.2989 3.09963 12.3877 3.16194 12.4649C3.22426 12.5421 3.30127 12.6061 3.38852 12.6534C3.47577 12.7006 3.57152 12.73 3.67023 12.74H3.75023C3.93017 12.7318 4.10134 12.6599 4.23322 12.5372C4.36509 12.4145 4.44908 12.2489 4.47023 12.07H4.46023ZM15.6402 4.91C15.6422 4.18485 15.4287 3.47545 15.0269 2.87183C14.625 2.2682 14.0529 1.79755 13.3831 1.5196C12.7134 1.24164 11.9761 1.16891 11.265 1.31063C10.5538 1.45235 9.90074 1.80213 9.38868 2.31559C8.87662 2.82906 8.52863 3.48306 8.38887 4.19462C8.2491 4.90618 8.32385 5.64322 8.60365 6.31222C8.88344 6.98122 9.35565 7.55203 9.96038 7.95223C10.5651 8.35242 11.2751 8.56396 12.0002 8.56C12.9657 8.55473 13.89 8.16816 14.5718 7.48451C15.2536 6.80086 15.6376 5.8755 15.6402 4.91ZM14.1402 4.91C14.1402 5.33805 14.013 5.75645 13.7748 6.11208C13.5365 6.46771 13.198 6.74454 12.8021 6.90742C12.4063 7.0703 11.971 7.11189 11.5514 7.02691C11.1319 6.94194 10.7471 6.73422 10.4458 6.43014C10.1445 6.12605 9.94039 5.73931 9.85932 5.319C9.77825 4.89869 9.82389 4.46377 9.99044 4.06945C10.157 3.67513 10.437 3.33918 10.7948 3.10426C11.1526 2.86934 11.5722 2.74603 12.0002 2.75C12.5696 2.75527 13.1139 2.98517 13.5147 3.38968C13.9154 3.79418 14.1403 4.34058 14.1402 4.91ZM8.65023 16.91C8.66015 16.1836 8.4537 15.4708 8.05717 14.8621C7.66064 14.2535 7.09196 13.7766 6.42353 13.4922C5.7551 13.2078 5.01716 13.1287 4.30365 13.265C3.59014 13.4014 2.93333 13.747 2.41686 14.2578C1.90038 14.7686 1.54759 15.4216 1.40339 16.1335C1.2592 16.8455 1.33014 17.5843 1.60716 18.2558C1.88419 18.9273 2.35477 19.5012 2.95901 19.9044C3.56325 20.3076 4.27381 20.5219 5.00023 20.52C5.96919 20.5174 6.89755 20.1306 7.58178 19.4445C8.266 18.7584 8.65023 17.829 8.65023 16.86V16.91ZM7.15023 16.91C7.14037 17.3354 7.00511 17.7483 6.76142 18.0971C6.51773 18.4459 6.17645 18.7149 5.78042 18.8705C5.3844 19.026 4.95125 19.0611 4.53534 18.9714C4.11943 18.8817 3.73927 18.6711 3.44258 18.3662C3.14589 18.0612 2.94588 17.6754 2.86764 17.2572C2.7894 16.8389 2.83642 16.4069 3.0028 16.0153C3.16918 15.6237 3.4475 15.29 3.80285 15.056C4.15821 14.822 4.57475 14.6981 5.00023 14.7C5.57136 14.7026 6.1182 14.9314 6.52112 15.3362C6.92404 15.741 7.15023 16.2889 7.15023 16.86V16.91ZM22.6602 16.91C22.6701 16.1841 22.4639 15.4716 22.0679 14.8632C21.6718 14.2547 21.1037 13.7779 20.4358 13.4932C19.768 13.2085 19.0306 13.1288 18.3173 13.2643C17.6041 13.3999 16.9473 13.7444 16.4304 14.2542C15.9135 14.7641 15.56 15.4161 15.4146 16.1274C15.2693 16.8387 15.3388 17.5771 15.6143 18.2488C15.8898 18.9205 16.3588 19.4951 16.9617 19.8995C17.5647 20.304 18.2742 20.5199 19.0002 20.52C19.9709 20.52 20.9019 20.1344 21.5882 19.448C22.2746 18.7616 22.6602 17.8307 22.6602 16.86V16.91ZM21.1602 16.91C21.1504 17.3349 21.0154 17.7475 20.7721 18.0961C20.5289 18.4447 20.1882 18.7137 19.7928 18.8696C19.3973 19.0254 18.9647 19.0611 18.549 18.9722C18.1334 18.8833 17.7532 18.6738 17.4561 18.3698C17.159 18.0658 16.9582 17.6809 16.8788 17.2633C16.7994 16.8458 16.845 16.4141 17.0099 16.0223C17.1747 15.6305 17.4515 15.296 17.8056 15.0608C18.1596 14.8256 18.5752 14.7001 19.0002 14.7C19.5731 14.7 20.1225 14.9276 20.5276 15.3326C20.9327 15.7377 21.1602 16.2871 21.1602 16.86V16.91Z" fill="black"/>
</svg>
