<svg width="24" height="24" viewBox="0 0 24 24" fill="none" xmlns="http://www.w3.org/2000/svg">
<path d="M18.3198 3.72993L13.7298 1.62993C13.1879 1.37774 12.5975 1.24707 11.9998 1.24707C11.4021 1.24707 10.8117 1.37774 10.2698 1.62993L5.67979 3.72993C4.95801 4.06096 4.34634 4.5921 3.91739 5.26035C3.48844 5.92859 3.26021 6.70587 3.25979 7.49993V14.8499C3.2577 15.4645 3.39312 16.0717 3.65613 16.6271C3.91914 17.1826 4.30306 17.6721 4.77979 18.0599L9.36979 21.8099C10.1116 22.4176 11.0409 22.7497 11.9998 22.7497C12.9587 22.7497 13.888 22.4176 14.6298 21.8099L19.2198 18.0599C19.6965 17.6721 20.0804 17.1826 20.3435 16.6271C20.6065 16.0717 20.7419 15.4645 20.7398 14.8499V7.49993C20.7394 6.70587 20.5111 5.92859 20.0822 5.26035C19.6532 4.5921 19.0416 4.06096 18.3198 3.72993ZM19.2398 14.8499C19.231 15.2364 19.1368 15.6162 18.9639 15.962C18.791 16.3078 18.5437 16.611 18.2398 16.8499L13.6498 20.5999C13.1752 20.9865 12.5819 21.1976 11.9698 21.1976C11.3577 21.1976 10.7643 20.9865 10.2898 20.5999L5.72979 16.8999C5.42587 16.661 5.1786 16.3578 5.00571 16.012C4.83282 15.6662 4.73859 15.2864 4.72979 14.8999V7.49993C4.73381 6.98889 4.88496 6.48983 5.16516 6.06244C5.44536 5.63504 5.84275 5.29741 6.30979 5.08993L10.8998 2.99993C11.2449 2.84174 11.6201 2.75985 11.9998 2.75985C12.3795 2.75985 12.7547 2.84174 13.0998 2.99993L17.6898 5.09993C18.1497 5.3111 18.5398 5.64907 18.8144 6.07418C19.0889 6.49928 19.2365 6.99389 19.2398 7.49993V14.8499ZM14.5198 10.5799L13.0698 11.9999L14.5198 13.4199C14.6602 13.5606 14.7391 13.7512 14.7391 13.9499C14.7391 14.1487 14.6602 14.3393 14.5198 14.4799C14.4487 14.5503 14.3644 14.606 14.2717 14.6438C14.1791 14.6815 14.0798 14.7006 13.9798 14.6999C13.8835 14.7009 13.7881 14.6829 13.6988 14.6469C13.6096 14.6108 13.5283 14.5575 13.4598 14.4899L11.9998 13.0499L10.5398 14.4899C10.3965 14.6252 10.2068 14.7003 10.0098 14.6999C9.90973 14.7006 9.81052 14.6815 9.71785 14.6438C9.62518 14.606 9.54088 14.5503 9.46979 14.4799C9.32934 14.3393 9.25045 14.1487 9.25045 13.9499C9.25045 13.7512 9.32934 13.5606 9.46979 13.4199L10.9298 11.9999L9.47979 10.5799C9.33934 10.4393 9.26045 10.2487 9.26045 10.0499C9.26045 9.85118 9.33934 9.66056 9.47979 9.51993C9.62335 9.38124 9.81517 9.30372 10.0148 9.30372C10.2144 9.30372 10.4062 9.38124 10.5498 9.51993L11.9998 10.9999L13.4698 9.55993C13.5333 9.46737 13.6168 9.39024 13.7141 9.33424C13.8114 9.27824 13.92 9.24479 14.0319 9.23637C14.1439 9.22795 14.2563 9.24476 14.3609 9.28556C14.4654 9.32637 14.5595 9.39013 14.6362 9.47215C14.7128 9.55417 14.7701 9.65234 14.8037 9.75944C14.8374 9.86654 14.8466 9.97982 14.8306 10.0909C14.8146 10.2021 14.7739 10.3082 14.7115 10.4015C14.649 10.4947 14.5664 10.5728 14.4698 10.6299L14.5198 10.5799Z" fill="black"/>
</svg>
