<svg width="24" height="24" viewBox="0 0 24 24" fill="none" xmlns="http://www.w3.org/2000/svg">
<path d="M11.9998 22.7499C11.0407 22.7507 10.1111 22.4184 9.36979 21.8099L4.77979 18.0599C4.30306 17.6721 3.91914 17.1826 3.65613 16.6271C3.39312 16.0717 3.2577 15.4645 3.25979 14.8499V7.49993C3.26021 6.70587 3.48844 5.92859 3.91739 5.26035C4.34634 4.5921 4.95801 4.06096 5.67979 3.72993L10.2698 1.62993C10.8117 1.37774 11.4021 1.24707 11.9998 1.24707C12.5975 1.24707 13.1879 1.37774 13.7298 1.62993L18.3198 3.72993C19.0416 4.06096 19.6532 4.5921 20.0822 5.26035C20.5111 5.92859 20.7394 6.70587 20.7398 7.49993V14.8499C20.7419 15.4645 20.6065 16.0717 20.3435 16.6271C20.0804 17.1826 19.6965 17.6721 19.2198 18.0599L14.6298 21.8099C13.8885 22.4184 12.9589 22.7507 11.9998 22.7499ZM11.9998 2.74993C11.6194 2.75273 11.2441 2.83802 10.8998 2.99993L6.30979 5.08993C5.84836 5.30181 5.45721 5.64133 5.18255 6.06839C4.90789 6.49544 4.76119 6.99218 4.75979 7.49993V14.8499C4.76859 15.2364 4.86282 15.6162 5.03571 15.962C5.2086 16.3078 5.45587 16.611 5.75979 16.8499L10.3498 20.5999C10.8243 20.9865 11.4177 21.1976 12.0298 21.1976C12.6419 21.1976 13.2352 20.9865 13.7098 20.5999L18.2998 16.8499C18.6037 16.611 18.851 16.3078 19.0239 15.962C19.1968 15.6162 19.291 15.2364 19.2998 14.8499V7.49993C19.2984 6.99218 19.1517 6.49544 18.877 6.06839C18.6024 5.64133 18.2112 5.30181 17.7498 5.08993L13.0998 2.99993C12.7555 2.83802 12.3802 2.75273 11.9998 2.74993ZM11.1998 14.5699L15.3798 10.4999C15.5202 10.3593 15.5991 10.1687 15.5991 9.96993C15.5991 9.77118 15.5202 9.58056 15.3798 9.43993C15.2392 9.29948 15.0485 9.22059 14.8498 9.22059C14.651 9.22059 14.4604 9.29948 14.3198 9.43993L10.6898 12.9999L9.68979 11.9999C9.63162 11.9057 9.5533 11.8255 9.46046 11.7651C9.36762 11.7047 9.26256 11.6657 9.15283 11.6507C9.0431 11.6358 8.93141 11.6453 8.8258 11.6786C8.72019 11.712 8.62327 11.7683 8.54201 11.8435C8.46075 11.9188 8.39716 12.0111 8.35581 12.1138C8.31446 12.2166 8.29637 12.3272 8.30285 12.4377C8.30933 12.5483 8.34022 12.656 8.39329 12.7533C8.44636 12.8505 8.52029 12.9347 8.60979 12.9999L10.1398 14.5699C10.2101 14.6422 10.294 14.6997 10.3867 14.7392C10.4794 14.7787 10.579 14.7993 10.6798 14.7999C10.7773 14.7978 10.8735 14.7763 10.9628 14.7369C11.052 14.6974 11.1326 14.6407 11.1998 14.5699Z" fill="black"/>
</svg>
