<svg width="24" height="24" viewBox="0 0 24 24" fill="none" xmlns="http://www.w3.org/2000/svg">
<path d="M20.7299 14.8499C20.7278 15.4652 20.5906 16.0726 20.328 16.629C20.0653 17.1854 19.6836 17.6773 19.2099 18.0699L14.6199 21.8099C13.8773 22.4115 12.9506 22.7398 11.9949 22.7398C11.0392 22.7398 10.1125 22.4115 9.36987 21.8099L7.80987 20.5399C7.65703 20.4067 7.5629 20.2186 7.54792 20.0164C7.53294 19.8142 7.59832 19.6142 7.72987 19.4599C7.79509 19.3831 7.87493 19.32 7.96476 19.2743C8.0546 19.2286 8.15262 19.2013 8.25312 19.1938C8.35362 19.1864 8.4546 19.199 8.55018 19.231C8.64577 19.2629 8.73404 19.3136 8.80987 19.3799L10.3699 20.6499C10.8436 21.034 11.435 21.2435 12.0449 21.2435C12.6547 21.2435 13.2461 21.034 13.7199 20.6499L18.3099 16.8999C18.6133 16.6605 18.8602 16.3572 19.033 16.0115C19.2058 15.6658 19.3004 15.2863 19.3099 14.8999V8.37993C19.3099 8.18102 19.3889 7.99025 19.5295 7.8496C19.6702 7.70895 19.861 7.62993 20.0599 7.62993C20.2588 7.62993 20.4495 7.70895 20.5902 7.8496C20.7308 7.99025 20.8099 8.18102 20.8099 8.37993L20.7299 14.8499ZM21.2499 3.99993L3.79987 21.3899C3.65769 21.5224 3.46964 21.5945 3.27534 21.5911C3.08104 21.5877 2.89566 21.509 2.75824 21.3716C2.62083 21.2341 2.54212 21.0488 2.53869 20.8545C2.53526 20.6602 2.60739 20.4721 2.73987 20.3299L4.99987 18.1699L4.87987 18.0699C4.39245 17.6855 3.99748 17.1967 3.72403 16.6394C3.45059 16.0822 3.30564 15.4707 3.29987 14.8499V7.51993C3.29846 6.72928 3.52133 5.95444 3.94261 5.28536C4.36388 4.61628 4.96627 4.08041 5.67987 3.73993L10.2699 1.64993C10.81 1.39793 11.3988 1.26733 11.9949 1.26733C12.5909 1.26733 13.1797 1.39793 13.7199 1.64993L18.3099 3.73993C18.5489 3.85498 18.7766 3.99225 18.9899 4.14993L20.1899 2.99993C20.246 2.90117 20.3239 2.81645 20.4176 2.75217C20.5113 2.6879 20.6183 2.64575 20.7307 2.62891C20.8431 2.61207 20.9578 2.62098 21.0662 2.65496C21.1746 2.68895 21.2739 2.74712 21.3565 2.82508C21.4392 2.90305 21.503 2.99877 21.5432 3.10502C21.5835 3.21128 21.5991 3.32528 21.5888 3.43843C21.5785 3.55158 21.5427 3.66092 21.484 3.75819C21.4252 3.85546 21.3452 3.93812 21.2499 3.99993ZM5.99987 17.0999L17.8899 5.23993C17.8276 5.18514 17.7567 5.1412 17.6799 5.10993L13.0999 2.99993C12.753 2.84153 12.3762 2.75956 11.9949 2.75956C11.6136 2.75956 11.2367 2.84153 10.8899 2.99993L6.30987 5.10993C5.84768 5.32081 5.45585 5.66009 5.18104 6.08737C4.90624 6.51465 4.76004 7.01191 4.75987 7.51993V14.8499C4.77337 15.2355 4.86967 15.6137 5.04221 15.9588C5.21475 16.3038 5.45951 16.6078 5.75987 16.8499L5.99987 17.0999Z" fill="black"/>
</svg>
