<svg width="24" height="24" viewBox="0 0 24 24" fill="none" xmlns="http://www.w3.org/2000/svg">
<path d="M11.6899 22.75C10.7305 22.7525 9.80036 22.42 9.05988 21.81L4.46988 18.06C4.0023 17.6673 3.62784 17.1756 3.37361 16.6205C3.11938 16.0653 2.99172 15.4606 2.99988 14.85V7.50004C2.99587 6.71139 3.21667 5.93792 3.6364 5.27024C4.05614 4.60255 4.65744 4.06829 5.36988 3.73004L9.99988 1.63004C10.54 1.37803 11.1288 1.24744 11.7249 1.24744C12.3209 1.24744 12.9097 1.37803 13.4499 1.63004L17.9999 3.73004C18.7235 4.0596 19.3373 4.59012 19.7681 5.25847C20.1989 5.92683 20.4286 6.70487 20.4299 7.50004V14.85C20.4298 15.4642 20.2935 16.0708 20.0306 16.6259C19.7678 17.181 19.385 17.6708 18.9099 18.06L14.3099 21.81C13.5733 22.4201 12.6463 22.7527 11.6899 22.75ZM11.6899 2.75004C11.3064 2.75388 10.928 2.83909 10.5799 3.00004L5.99988 5.09004C5.53769 5.30091 5.14586 5.64019 4.87106 6.06747C4.59625 6.49475 4.45005 6.99201 4.44988 7.50004V14.85C4.45868 15.2365 4.55291 15.6163 4.7258 15.9621C4.89869 16.3079 5.14596 16.6111 5.44988 16.85L9.99988 20.65C10.4729 21.0358 11.0645 21.2465 11.6749 21.2465C12.2852 21.2465 12.8769 21.0358 13.3499 20.65L17.9999 16.9C18.3038 16.6611 18.5511 16.3579 18.724 16.0121C18.8968 15.6663 18.9911 15.2865 18.9999 14.9V7.50004C18.9985 6.99228 18.8518 6.49554 18.5771 6.06849C18.3025 5.64144 17.9113 5.30192 17.4499 5.09004L12.7899 3.00004C12.4453 2.83902 12.0702 2.75377 11.6899 2.75004Z" fill="black"/>
</svg>
