<svg width="24" height="24" viewBox="0 0 24 24" fill="none" xmlns="http://www.w3.org/2000/svg">
<path d="M10.7502 22.7599H10.7002C9.83351 22.7142 9.00518 22.3878 8.34024 21.8299L3.74024 18.0799C3.26328 17.6901 2.87933 17.1987 2.61638 16.6417C2.35342 16.0846 2.21809 15.4759 2.22024 14.8599V7.50993C2.21998 6.71443 2.44781 5.93553 2.87673 5.26557C3.30565 4.5956 3.91767 4.06267 4.64024 3.72993L9.24024 1.62993C9.78211 1.37774 10.3726 1.24707 10.9702 1.24707C11.5679 1.24707 12.1584 1.37774 12.7002 1.62993L17.2902 3.72993C18.0147 4.06121 18.6288 4.59352 19.0595 5.2636C19.4903 5.93367 19.7196 6.71334 19.7202 7.50993V10.1299C19.7202 10.3288 19.6412 10.5196 19.5006 10.6603C19.3599 10.8009 19.1692 10.8799 18.9702 10.8799C18.7713 10.8799 18.5806 10.8009 18.4399 10.6603C18.2993 10.5196 18.2202 10.3288 18.2202 10.1299V7.50993C18.2195 7.00075 18.0732 6.50238 17.7986 6.07361C17.524 5.64483 17.1325 5.30352 16.6702 5.08993L12.0702 2.99993C11.7234 2.84154 11.3465 2.75956 10.9652 2.75956C10.5839 2.75956 10.2071 2.84154 9.86024 2.99993L5.27024 5.08993C4.80802 5.30352 4.41651 5.64483 4.14188 6.07361C3.86725 6.50238 3.72095 7.00075 3.72024 7.50993V14.8599C3.72228 15.2562 3.81318 15.647 3.98625 16.0035C4.15931 16.36 4.41013 16.6732 4.72024 16.9199L9.32024 20.6699C9.74936 21.0214 10.2769 21.231 10.8302 21.2699C11.0129 21.2964 11.1794 21.3894 11.2978 21.531C11.4162 21.6726 11.4783 21.8528 11.4721 22.0373C11.4659 22.2218 11.3919 22.3975 11.2643 22.5308C11.1366 22.6642 10.9643 22.7457 10.7802 22.7599H10.7502ZM20.3402 16.3099C20.3383 15.3096 20.0398 14.3323 19.4826 13.5015C18.9254 12.6707 18.1345 12.0237 17.2097 11.6422C16.2849 11.2608 15.2679 11.162 14.287 11.3584C13.3061 11.5548 12.4054 12.0375 11.6988 12.7455C10.9921 13.4536 10.5112 14.3552 10.3167 15.3364C10.1223 16.3177 10.2231 17.3346 10.6064 18.2586C10.9896 19.1826 11.6382 19.9723 12.4701 20.5279C13.302 21.0834 14.2799 21.3799 15.2802 21.3799C16.6232 21.3773 17.9102 20.842 18.8588 19.8914C19.8075 18.9409 20.3402 17.6529 20.3402 16.3099ZM18.8402 16.3099C18.8402 17.014 18.6315 17.7023 18.2403 18.2878C17.8491 18.8732 17.2931 19.3295 16.6426 19.5989C15.9921 19.8684 15.2763 19.9389 14.5857 19.8015C13.8951 19.6642 13.2608 19.3251 12.7629 18.8272C12.2651 18.3294 11.926 17.695 11.7886 17.0045C11.6513 16.3139 11.7218 15.5981 11.9912 14.9476C12.2607 14.2971 12.717 13.7411 13.3024 13.3499C13.8878 12.9587 14.5761 12.7499 15.2802 12.7499C16.2244 12.7499 17.1299 13.125 17.7975 13.7926C18.4652 14.4603 18.8402 15.3658 18.8402 16.3099ZM20.0702 20.1399C19.8725 20.1399 19.6791 20.1986 19.5147 20.3085C19.3502 20.4183 19.222 20.5745 19.1464 20.7573C19.0707 20.94 19.0509 21.141 19.0895 21.335C19.128 21.529 19.2233 21.7072 19.3631 21.847C19.503 21.9869 19.6812 22.0821 19.8752 22.1207C20.0691 22.1593 20.2702 22.1395 20.4529 22.0638C20.6356 21.9881 20.7918 21.86 20.9017 21.6955C21.0116 21.5311 21.0702 21.3377 21.0702 21.1399C21.0702 20.8747 20.9649 20.6204 20.7773 20.4328C20.5898 20.2453 20.3355 20.1399 20.0702 20.1399Z" fill="black"/>
</svg>
