<svg width="24" height="24" viewBox="0 0 24 24" fill="none" xmlns="http://www.w3.org/2000/svg">
<path d="M20.5001 11.52L19.7501 11.22V7.79C19.7475 6.85194 19.3737 5.95306 18.7104 5.28976C18.0471 4.62645 17.1482 4.25264 16.2101 4.25H15.2101V3.15C15.2101 2.64609 15.0099 2.16282 14.6536 1.8065C14.2973 1.45018 13.814 1.25 13.3101 1.25H10.6101C10.1062 1.25 9.62294 1.45018 9.26662 1.8065C8.9103 2.16282 8.71013 2.64609 8.71013 3.15V4.25H7.71013C6.78602 4.27343 5.9075 4.6564 5.26136 5.31748C4.61522 5.97856 4.25243 6.8656 4.25013 7.79V11.22L3.50013 11.52C2.93076 11.7471 2.44304 12.1405 2.10055 12.6489C1.75806 13.1572 1.5767 13.757 1.58013 14.37C1.58143 15.4735 1.80041 16.5659 2.22451 17.5846C2.64861 18.6033 3.2695 19.5284 4.05164 20.3068C4.83377 21.0852 5.76177 21.7017 6.78251 22.1209C7.80324 22.5402 8.89665 22.7539 10.0001 22.75H14.0001C16.2218 22.7474 18.3518 21.8636 19.9228 20.2926C21.4937 18.7216 22.3775 16.5917 22.3801 14.37C22.3868 13.7616 22.2113 13.1652 21.8763 12.6573C21.5413 12.1494 21.062 11.7534 20.5001 11.52ZM10.2501 3.15C10.2501 3.04391 10.2923 2.94217 10.3673 2.86716C10.4423 2.79214 10.544 2.75 10.6501 2.75H13.3501C13.4562 2.75 13.558 2.79214 13.633 2.86716C13.708 2.94217 13.7501 3.04391 13.7501 3.15V4.25H10.2501V3.15ZM5.75013 7.79C5.75013 7.25957 5.96084 6.75086 6.33591 6.37579C6.71099 6.00071 7.21969 5.79 7.75013 5.79H16.1701C16.7006 5.79 17.2093 6.00071 17.5843 6.37579C17.9594 6.75086 18.1701 7.25957 18.1701 7.79V10.62L13.3701 8.68C12.4388 8.3103 11.4014 8.3103 10.4701 8.68L5.67013 10.62L5.75013 7.79ZM14.0001 21.25H10.0001C8.17625 21.2474 6.42783 20.5217 5.13815 19.232C3.84848 17.9423 3.12277 16.1939 3.12013 14.37C3.11932 14.054 3.2145 13.7452 3.39307 13.4845C3.57164 13.2238 3.82518 13.0234 4.12013 12.91L11.1701 10.07C11.7417 9.84286 12.3785 9.84286 12.9501 10.07L20.0001 12.91C20.2951 13.0234 20.5486 13.2238 20.7272 13.4845C20.9058 13.7452 21.0009 14.054 21.0001 14.37C20.9989 15.2833 20.8161 16.1872 20.4624 17.0293C20.1087 17.8713 19.5912 18.6346 18.9398 19.2748C18.2884 19.915 17.5163 20.4193 16.6683 20.7584C15.8203 21.0975 14.9133 21.2646 14.0001 21.25Z" fill="black"/>
</svg>
