<svg width="24" height="24" viewBox="0 0 24 24" fill="none" xmlns="http://www.w3.org/2000/svg">
<path d="M22.27 10.33C22.27 10.23 22.33 10.14 22.35 10.04C22.3975 9.87645 22.4309 9.70918 22.45 9.53998V9.30998C22.475 9.05726 22.475 8.80269 22.45 8.54998L22.07 5.54998C21.9687 4.66891 21.6222 3.83394 21.07 3.13998C20.6152 2.56464 20.0364 2.09944 19.3767 1.7791C18.7169 1.45877 17.9934 1.29157 17.26 1.28998H7.00001C5.80204 1.29407 4.64707 1.73689 3.75342 2.53472C2.85977 3.33256 2.28936 4.43013 2.15001 5.61998L1.80001 8.77998C1.775 9.02267 1.775 9.26729 1.80001 9.50998V9.72998C1.81793 9.88626 1.85143 10.0404 1.90001 10.19C1.92071 10.2882 1.94743 10.385 1.98001 10.48C1.98001 10.59 2.07001 10.69 2.12001 10.8C2.17001 10.91 2.20001 11.01 2.26001 11.11V17.25C2.26265 18.7079 2.84297 20.1053 3.87384 21.1361C4.90472 22.167 6.30213 22.7473 7.76001 22.75H16.45C17.1723 22.75 17.8875 22.6077 18.5548 22.3313C19.2221 22.0549 19.8284 21.6498 20.3391 21.1391C20.8498 20.6283 21.2549 20.022 21.5313 19.3547C21.8078 18.6874 21.95 17.9722 21.95 17.25V11C22.0035 10.9047 22.047 10.8042 22.08 10.7C22.1523 10.5815 22.2158 10.4578 22.27 10.33ZM17.27 2.71998C17.7794 2.7212 18.282 2.83685 18.7407 3.0584C19.1994 3.27996 19.6024 3.60174 19.92 3.99998C20.308 4.48326 20.5538 5.06495 20.63 5.67998L21.01 8.67998C21.0251 8.84296 21.0251 9.00699 21.01 9.16998V9.34998C21.0148 9.43992 21.0148 9.53004 21.01 9.61998C21.01 9.69998 20.96 9.78998 20.92 9.87998C20.9078 9.92489 20.891 9.96844 20.87 10.01C20.8231 10.1216 20.7662 10.2287 20.7 10.33C20.62 10.44 20.55 10.55 20.47 10.65C20.2318 10.9191 19.9394 11.1349 19.612 11.2831C19.2845 11.4313 18.9294 11.5086 18.57 11.51C17.9368 11.5285 17.3199 11.3069 16.8433 10.8896C16.3666 10.4723 16.0654 9.89013 16 9.25998L15.69 5.68998L15.44 2.68998L17.27 2.71998ZM14 2.71998V2.99998L14.51 8.99998C14.5393 9.32594 14.5001 9.65443 14.3951 9.9644C14.2901 10.2744 14.1214 10.559 13.9 10.8C13.6745 11.0319 13.4047 11.2163 13.1067 11.3422C12.8087 11.4681 12.4885 11.5329 12.165 11.5329C11.8415 11.5329 11.5213 11.4681 11.2233 11.3422C10.9253 11.2163 10.6555 11.0319 10.43 10.8C10.2076 10.5646 10.036 10.286 9.92592 9.98154C9.81582 9.67704 9.76956 9.35313 9.79001 9.02998L10 4.86998L10.14 2.71998H14ZM3.61001 5.77998C3.69872 4.94184 4.0938 4.16598 4.71943 3.60125C5.34507 3.03652 6.1572 2.72269 7.00001 2.71998H8.70001L8.28001 9.34998C8.24193 9.95046 7.97688 10.514 7.53862 10.9262C7.10036 11.3385 6.5217 11.5686 5.92001 11.57H5.61001C5.27765 11.5691 4.94921 11.4983 4.64599 11.3622C4.34278 11.2261 4.07158 11.0277 3.85001 10.78C3.77451 10.6933 3.70753 10.5995 3.65001 10.5C3.58378 10.3987 3.52688 10.2916 3.48001 10.18C3.47625 10.1501 3.47625 10.1199 3.48001 10.09C3.44111 10.0032 3.41096 9.91275 3.39001 9.81998C3.38432 9.74675 3.38432 9.6732 3.39001 9.59998C3.38519 9.53674 3.38519 9.47322 3.39001 9.40998C3.37504 9.26035 3.37504 9.1096 3.39001 8.95998L3.61001 5.77998ZM10.21 21.28V19.28C10.21 18.7495 10.4207 18.2408 10.7958 17.8658C11.1709 17.4907 11.6796 17.28 12.21 17.28C12.7404 17.28 13.2492 17.4907 13.6242 17.8658C13.9993 18.2408 14.21 18.7495 14.21 19.28V21.28H10.21ZM16.48 21.28H15.68V19.28C15.68 18.3597 15.3144 17.4771 14.6637 16.8263C14.0129 16.1756 13.1303 15.81 12.21 15.81C11.2897 15.81 10.4071 16.1756 9.75635 16.8263C9.1056 17.4771 8.74001 18.3597 8.74001 19.28V21.28H7.74001C6.67914 21.28 5.66173 20.8586 4.91158 20.1084C4.16144 19.3583 3.74001 18.3408 3.74001 17.28V12.53C4.30418 12.8511 4.94088 13.0232 5.59001 13.03H5.90001C6.50636 13.027 7.10337 12.8804 7.64219 12.6023C8.18101 12.3242 8.64631 11.9225 9.00001 11.43C9.08798 11.5688 9.18839 11.6993 9.30001 11.82C9.65935 12.2058 10.0943 12.5135 10.5777 12.7239C11.0612 12.9342 11.5828 13.0428 12.11 13.0428C12.6372 13.0428 13.1588 12.9342 13.6423 12.7239C14.1257 12.5135 14.5607 12.2058 14.92 11.82C15.032 11.6901 15.1356 11.5531 15.23 11.41C15.8075 12.2191 16.6694 12.78 17.6431 12.9803C18.6167 13.1806 19.6301 13.0054 20.48 12.49V17.28C20.48 17.8053 20.3765 18.3254 20.1755 18.8107C19.9745 19.296 19.6799 19.737 19.3084 20.1084C18.937 20.4798 18.496 20.7745 18.0107 20.9755C17.5254 21.1765 17.0053 21.28 16.48 21.28Z" fill="black"/>
</svg>
