<svg width="24" height="24" viewBox="0 0 24 24" fill="none" xmlns="http://www.w3.org/2000/svg">
<path d="M16.54 22.75H7.46C6.07903 22.7474 4.75539 22.1976 3.77889 21.2211C2.8024 20.2446 2.25264 18.921 2.25 17.54V6.46C2.25264 5.07903 2.8024 3.75539 3.77889 2.77889C4.75539 1.8024 6.07903 1.25264 7.46 1.25H13.17C13.9034 1.25277 14.6279 1.41004 15.2965 1.71157C15.965 2.0131 16.5625 2.45211 17.05 3L20.42 6.75C21.2779 7.70593 21.7517 8.94555 21.75 10.23V17.56C21.7421 18.9375 21.19 20.256 20.2141 21.2282C19.2382 22.2004 17.9175 22.7474 16.54 22.75ZM7.46 2.75C6.47605 2.75 5.53239 3.14087 4.83663 3.83663C4.14087 4.53239 3.75 5.47605 3.75 6.46V17.54C3.75 18.524 4.14087 19.4676 4.83663 20.1634C5.53239 20.8591 6.47605 21.25 7.46 21.25H16.54C17.524 21.25 18.4676 20.8591 19.1634 20.1634C19.8591 19.4676 20.25 18.524 20.25 17.54V10.21C20.2502 9.29443 19.9118 8.41112 19.3 7.73L15.93 4C15.5816 3.6133 15.1559 3.30402 14.6805 3.09214C14.2051 2.88027 13.6905 2.77052 13.17 2.77L7.46 2.75ZM13.92 8.75H10.08C9.06503 8.75264 8.09239 9.157 7.3747 9.8747C6.657 10.5924 6.25264 11.565 6.25 12.58V15.42C6.25264 16.435 6.657 17.4076 7.3747 18.1253C8.09239 18.843 9.06503 19.2474 10.08 19.25H13.92C14.935 19.2474 15.9076 18.843 16.6253 18.1253C17.343 17.4076 17.7474 16.435 17.75 15.42V12.58C17.7474 11.565 17.343 10.5924 16.6253 9.8747C15.9076 9.157 14.935 8.75264 13.92 8.75ZM16.25 12.58V13.17H12.75V10.25H13.92C14.538 10.25 15.1306 10.4955 15.5676 10.9324C16.0045 11.3694 16.25 11.962 16.25 12.58ZM10.08 10.25H11.25V13.17H7.75V12.58C7.75 11.962 7.99548 11.3694 8.43244 10.9324C8.8694 10.4955 9.46205 10.25 10.08 10.25ZM7.75 15.42V14.67H11.25V17.75H10.08C9.46205 17.75 8.8694 17.5045 8.43244 17.0676C7.99548 16.6306 7.75 16.038 7.75 15.42ZM13.92 17.75H12.75V14.67H16.25V15.42C16.25 16.038 16.0045 16.6306 15.5676 17.0676C15.1306 17.5045 14.538 17.75 13.92 17.75Z" fill="black"/>
</svg>
