<svg width="24" height="24" viewBox="0 0 24 24" fill="none" xmlns="http://www.w3.org/2000/svg">
<path d="M12.5298 22.76H5.35984C4.22737 22.76 3.14128 22.3101 2.3405 21.5093C1.53972 20.7086 1.08984 19.6225 1.08984 18.49V9.74C1.08984 8.60752 1.53972 7.52143 2.3405 6.72065C3.14128 5.91987 4.22737 5.47 5.35984 5.47H9.86984C10.4691 5.46932 11.0618 5.59447 11.6096 5.83736C12.1573 6.08025 12.648 6.43546 13.0498 6.88L15.7098 9.88C16.4025 10.6571 16.7898 11.659 16.7998 12.7V18.49C16.7998 19.6225 16.35 20.7086 15.5492 21.5093C14.7484 22.3101 13.6623 22.76 12.5298 22.76ZM5.35984 7C4.63036 6.99995 3.93031 7.28767 3.41169 7.80068C2.89307 8.31368 2.59774 9.01056 2.58984 9.74V18.49C2.58984 19.2246 2.88168 19.9292 3.40116 20.4487C3.92063 20.9682 4.62519 21.26 5.35984 21.26H12.5298C13.2645 21.26 13.9691 20.9682 14.4885 20.4487C15.008 19.9292 15.2998 19.2246 15.2998 18.49V12.7C15.3023 12.0163 15.049 11.3565 14.5898 10.85L11.9398 7.85C11.6718 7.57361 11.3496 7.35547 10.9934 7.20922C10.6373 7.06297 10.2548 6.99174 9.86984 7H5.35984ZM22.9098 14.29V8.47C22.9071 7.41869 22.5194 6.40481 21.8198 5.62L19.1598 2.62C18.7572 2.18389 18.2685 1.83607 17.7246 1.59853C17.1807 1.361 16.5934 1.23891 15.9998 1.24H11.4698C10.6891 1.23875 9.92301 1.45157 9.2548 1.85532C8.58659 2.25907 8.04186 2.83829 7.67984 3.53C7.60702 3.7027 7.6015 3.89641 7.66438 4.07298C7.72725 4.24955 7.85396 4.39618 8.01954 4.48399C8.18513 4.5718 8.37759 4.59443 8.55903 4.54742C8.74047 4.50041 8.89773 4.38717 8.99984 4.23C9.23331 3.77952 9.58644 3.40211 10.0204 3.13925C10.4544 2.87639 10.9525 2.73824 11.4598 2.74H15.9998C16.3784 2.74851 16.7512 2.83454 17.0952 2.99278C17.4392 3.15102 17.7471 3.3781 17.9998 3.66L20.6598 6.66C21.1174 7.16752 21.3703 7.8267 21.3698 8.51V14.3C21.3518 15.0156 21.0575 15.6964 20.5486 16.1997C20.0396 16.7031 19.3556 16.9899 18.6398 17C18.4409 17 18.2502 17.079 18.1095 17.2197C17.9689 17.3603 17.8898 17.5511 17.8898 17.75C17.8898 17.9489 17.9689 18.1397 18.1095 18.2803C18.2502 18.421 18.4409 18.5 18.6398 18.5C19.7671 18.5 20.8487 18.0543 21.6486 17.26C22.4486 16.4657 22.9019 15.3873 22.9098 14.26V14.29Z" fill="black"/>
</svg>
