<svg width="24" height="24" viewBox="0 0 24 24" fill="none" xmlns="http://www.w3.org/2000/svg">
<path d="M11.6998 22.75H7.2998C5.70474 22.7342 4.18023 22.0902 3.05699 20.9575C1.93374 19.8249 1.30236 18.2951 1.2998 16.7V12.3C1.30236 10.7049 1.93374 9.17506 3.05699 8.04245C4.18023 6.90985 5.70474 6.26579 7.2998 6.25H11.6998C13.3036 6.25264 14.8409 6.8909 15.9749 8.02492C17.1089 9.15895 17.7472 10.6963 17.7498 12.3V16.7C17.7472 18.3037 17.1089 19.8411 15.9749 20.9751C14.8409 22.1091 13.3036 22.7474 11.6998 22.75ZM7.2998 7.75C6.09307 7.75 4.93576 8.22937 4.08247 9.08266C3.22918 9.93596 2.7498 11.0933 2.7498 12.3V16.7C2.7498 17.9067 3.22918 19.064 4.08247 19.9173C4.93576 20.7706 6.09307 21.25 7.2998 21.25H11.6998C12.2973 21.25 12.889 21.1323 13.441 20.9037C13.993 20.675 14.4946 20.3398 14.9171 19.9173C15.3396 19.4948 15.6748 18.9932 15.9035 18.4412C16.1321 17.8892 16.2498 17.2975 16.2498 16.7V12.3C16.2498 11.0933 15.7704 9.93596 14.9171 9.08266C14.0638 8.22937 12.9065 7.75 11.6998 7.75H7.2998ZM19.7298 13.59C20.5933 13.3342 21.3515 12.807 21.8918 12.0865C22.4322 11.366 22.726 10.4906 22.7298 9.59V5.42C22.7298 4.31405 22.2905 3.25339 21.5084 2.47136C20.7264 1.68934 19.6658 1.25 18.5598 1.25H14.4198C13.5028 1.25785 12.6139 1.56777 11.8908 2.13179C11.1677 2.69581 10.6507 3.48248 10.4198 4.37C10.3949 4.46586 10.389 4.56571 10.4027 4.66382C10.4163 4.76194 10.4491 4.85641 10.4993 4.94184C10.5494 5.02727 10.6159 5.10198 10.6949 5.16172C10.7739 5.22146 10.8639 5.26505 10.9598 5.29C11.1534 5.34039 11.3591 5.31181 11.5316 5.21054C11.7042 5.10927 11.8294 4.94361 11.8798 4.75C12.0265 4.17735 12.3597 3.66986 12.8269 3.30769C13.2941 2.94552 13.8687 2.74929 14.4598 2.75H18.6198C19.3271 2.75263 20.0047 3.03478 20.5049 3.53494C21.005 4.03509 21.2872 4.71268 21.2898 5.42V9.58C21.2853 10.1599 21.0942 10.723 20.7448 11.1858C20.3954 11.6487 19.9063 11.9868 19.3498 12.15C19.1765 12.2006 19.0272 12.3119 18.9294 12.4637C18.8316 12.6154 18.7918 12.7973 18.8173 12.9761C18.8429 13.1548 18.932 13.3183 19.0684 13.4366C19.2048 13.5549 19.3793 13.62 19.5598 13.62L19.7298 13.59Z" fill="black"/>
</svg>
