<svg width="24" height="24" viewBox="0 0 24 24" fill="none" xmlns="http://www.w3.org/2000/svg">
<path d="M9.48023 22.5601C8.77476 22.5601 8.09818 22.2799 7.59933 21.781C7.10048 21.2822 6.82023 20.6056 6.82023 19.9001V15.3701C6.82023 14.6646 7.10048 13.988 7.59933 13.4892C8.09818 12.9903 8.77476 12.7101 9.48023 12.7101C10.1857 12.7101 10.8623 12.9903 11.3611 13.4892C11.86 13.988 12.1402 14.6646 12.1402 15.3701V19.9001C12.1402 20.6056 11.86 21.2822 11.3611 21.781C10.8623 22.2799 10.1857 22.5601 9.48023 22.5601ZM9.48023 14.2101C9.17258 14.2101 8.87753 14.3323 8.65999 14.5499C8.44245 14.7674 8.32023 15.0624 8.32023 15.3701V19.9001C8.32023 20.2078 8.44245 20.5028 8.65999 20.7203C8.87753 20.9379 9.17258 21.0601 9.48023 21.0601C9.78789 21.0601 10.0829 20.9379 10.3005 20.7203C10.518 20.5028 10.6402 20.2078 10.6402 19.9001V15.3701C10.6402 15.0624 10.518 14.7674 10.3005 14.5499C10.0829 14.3323 9.78789 14.2101 9.48023 14.2101ZM14.5902 11.3801C13.8856 11.3775 13.2105 11.0964 12.7122 10.5981C12.214 10.0998 11.9329 9.42476 11.9302 8.7201V4.1901C11.9302 3.48462 12.2105 2.80804 12.7093 2.3092C13.2082 1.81035 13.8848 1.5301 14.5902 1.5301C15.2957 1.5301 15.9723 1.81035 16.4711 2.3092C16.97 2.80804 17.2502 3.48462 17.2502 4.1901V8.7201C17.2476 9.42476 16.9665 10.0998 16.4682 10.5981C15.97 11.0964 15.2949 11.3775 14.5902 11.3801ZM14.5902 3.0301C14.2826 3.0301 13.9875 3.15231 13.77 3.36986C13.5524 3.5874 13.4302 3.88245 13.4302 4.1901V8.7201C13.4302 9.02775 13.5524 9.3228 13.77 9.54034C13.9875 9.75789 14.2826 9.8801 14.5902 9.8801C14.8979 9.8801 15.1929 9.75789 15.4105 9.54034C15.628 9.3228 15.7502 9.02775 15.7502 8.7201V4.1901C15.7542 4.03526 15.7272 3.88119 15.6707 3.73697C15.6142 3.59275 15.5294 3.46131 15.4213 3.35039C15.3132 3.23948 15.1839 3.15134 15.0412 3.09118C14.8985 3.03102 14.7451 3.00005 14.5902 3.0001V3.0301ZM20.1002 17.4701H15.5802C14.8748 17.4701 14.1982 17.1899 13.6993 16.691C13.2005 16.1922 12.9202 15.5156 12.9202 14.8101C12.9202 14.1046 13.2005 13.428 13.6993 12.9292C14.1982 12.4303 14.8748 12.1501 15.5802 12.1501H20.1002C20.8057 12.1501 21.4823 12.4303 21.9811 12.9292C22.48 13.428 22.7602 14.1046 22.7602 14.8101C22.7602 15.5156 22.48 16.1922 21.9811 16.691C21.4823 17.1899 20.8057 17.4701 20.1002 17.4701ZM15.5802 13.6501C15.2726 13.6501 14.9775 13.7723 14.76 13.9899C14.5424 14.2074 14.4202 14.5024 14.4202 14.8101C14.4202 15.1178 14.5424 15.4128 14.76 15.6303C14.9775 15.8479 15.2726 15.9701 15.5802 15.9701H20.1002C20.4079 15.9701 20.7029 15.8479 20.9205 15.6303C21.138 15.4128 21.2602 15.1178 21.2602 14.8101C21.2602 14.5024 21.138 14.2074 20.9205 13.9899C20.7029 13.7723 20.4079 13.6501 20.1002 13.6501H15.5802ZM8.42023 11.8901H3.90023C3.19476 11.8901 2.51818 11.6099 2.01933 11.111C1.52048 10.6122 1.24023 9.93558 1.24023 9.2301C1.24023 8.52462 1.52048 7.84804 2.01933 7.3492C2.51818 6.85035 3.19476 6.5701 3.90023 6.5701H8.42023C9.12571 6.5701 9.80229 6.85035 10.3011 7.3492C10.8 7.84804 11.0802 8.52462 11.0802 9.2301C11.0802 9.93558 10.8 10.6122 10.3011 11.111C9.80229 11.6099 9.12571 11.8901 8.42023 11.8901ZM3.90023 8.0701C3.7479 8.0701 3.59706 8.1001 3.45632 8.1584C3.31558 8.21669 3.18771 8.30214 3.07999 8.40986C2.97227 8.51757 2.88683 8.64545 2.82853 8.78619C2.77024 8.92692 2.74023 9.07777 2.74023 9.2301C2.74023 9.38243 2.77024 9.53328 2.82853 9.67401C2.88683 9.81475 2.97227 9.94263 3.07999 10.0503C3.18771 10.1581 3.31558 10.2435 3.45632 10.3018C3.59706 10.3601 3.7479 10.3901 3.90023 10.3901H8.42023C8.72789 10.3901 9.02294 10.2679 9.24048 10.0503C9.45802 9.8328 9.58023 9.53775 9.58023 9.2301C9.58023 8.92245 9.45802 8.6274 9.24048 8.40986C9.02294 8.19231 8.72789 8.0701 8.42023 8.0701H3.90023ZM10.2702 5.8801H9.00023C8.4097 5.88887 7.837 5.67776 7.39345 5.2878C6.94989 4.89784 6.66717 4.35689 6.60023 3.7701C6.57433 3.44467 6.618 3.11745 6.72834 2.81021C6.83869 2.50296 7.01317 2.22272 7.2402 1.98813C7.46722 1.75353 7.74159 1.56996 8.04506 1.4496C8.34852 1.32925 8.67413 1.27488 9.00023 1.2901C9.58703 1.35704 10.128 1.63976 10.5179 2.08331C10.9079 2.52686 11.119 3.09957 11.1102 3.6901V5.0001C11.113 5.22746 11.0266 5.44686 10.8696 5.61133C10.7126 5.7758 10.4975 5.87228 10.2702 5.8801ZM8.84023 2.7801C8.62861 2.77513 8.42365 2.85424 8.27024 3.0001C8.17923 3.08115 8.10769 3.1817 8.06094 3.29424C8.01419 3.40678 7.99344 3.52842 8.00023 3.6501C8.03956 3.87778 8.16588 4.08125 8.3525 4.21748C8.53912 4.35371 8.7714 4.41203 9.00023 4.3801H9.69023V3.6901C9.69817 3.47712 9.62855 3.2685 9.49429 3.10298C9.36003 2.93745 9.17027 2.82628 8.96023 2.7901H8.84023V2.7801ZM3.84023 17.2901C3.52191 17.2913 3.20683 17.2262 2.91511 17.0988C2.62338 16.9714 2.36141 16.7846 2.14593 16.5503C1.93045 16.316 1.76618 16.0393 1.66361 15.738C1.56104 15.4366 1.52243 15.1172 1.55023 14.8001C1.61785 14.2045 1.90772 13.6564 2.36192 13.2652C2.81612 12.874 3.4012 12.6686 4.00023 12.6901H5.27023C5.50097 12.6901 5.72226 12.7818 5.88542 12.9449C6.04857 13.1081 6.14023 13.3294 6.14023 13.5601V14.8801C6.15058 15.4759 5.9361 16.0538 5.53951 16.4985C5.14292 16.9433 4.59334 17.2224 4.00023 17.2801L3.84023 17.2901ZM3.00023 14.9201C2.98946 15.037 3.00457 15.1549 3.04448 15.2654C3.0844 15.3758 3.14814 15.4761 3.23118 15.5592C3.31422 15.6422 3.41452 15.7059 3.52497 15.7459C3.63541 15.7858 3.75329 15.8009 3.87023 15.7901C4.08109 15.7517 4.27102 15.6386 4.40513 15.4714C4.53923 15.3042 4.60851 15.0943 4.60023 14.8801V14.1901H4.00023C3.78608 14.1818 3.57612 14.2511 3.40895 14.3852C3.24177 14.5193 3.1286 14.7092 3.09023 14.9201H3.00023ZM15.1902 22.7201C14.8192 22.7196 14.4531 22.634 14.1202 22.4701C13.7495 22.2841 13.438 21.9984 13.2207 21.6451C13.0034 21.2918 12.889 20.8849 12.8902 20.4701V19.0001C12.8902 18.7694 12.9819 18.5481 13.1451 18.3849C13.3082 18.2218 13.5295 18.1301 13.7602 18.1301H15.0802C15.6708 18.1213 16.2435 18.3324 16.687 18.7224C17.1306 19.1124 17.4133 19.6533 17.4802 20.2401C17.5124 20.6457 17.4368 21.0525 17.2612 21.4195C17.0856 21.7865 16.8162 22.1006 16.4802 22.3301C16.1092 22.5764 15.6755 22.7117 15.2302 22.7201H15.1902ZM14.7702 21.1201C14.901 21.2006 15.0516 21.2432 15.2052 21.2432C15.3588 21.2432 15.5094 21.2006 15.6402 21.1201C15.7575 21.0398 15.8515 20.9301 15.913 20.802C15.9744 20.6738 16.0011 20.5318 15.9902 20.3901C15.9519 20.1792 15.8387 19.9893 15.6715 19.8552C15.5043 19.7211 15.2944 19.6518 15.0802 19.6601H14.3902V20.4901C14.386 20.6259 14.4192 20.7603 14.4862 20.8784C14.5532 20.9966 14.6515 21.0941 14.7702 21.1601V21.1201ZM20.1002 11.3601H18.8302C18.716 11.3601 18.6029 11.3376 18.4973 11.2939C18.3917 11.2502 18.2958 11.1861 18.2151 11.1053C18.1343 11.0245 18.0702 10.9286 18.0265 10.823C17.9827 10.7175 17.9602 10.6044 17.9602 10.4901V9.1701C17.9492 8.57895 18.1595 8.00503 18.5499 7.56099C18.9403 7.11695 19.4825 6.83486 20.0702 6.7701C20.4024 6.7446 20.7362 6.79127 21.0486 6.90688C21.3611 7.0225 21.6448 7.20433 21.8804 7.43991C22.116 7.67549 22.2978 7.95924 22.4135 8.27169C22.5291 8.58415 22.5757 8.91792 22.5502 9.2501C22.4831 9.83864 22.199 10.381 21.7533 10.7712C21.3076 11.1614 20.7325 11.3714 20.1402 11.3601H20.1002ZM19.4202 9.8601H20.1002C20.3149 9.87053 20.5259 9.80204 20.6936 9.66756C20.8612 9.53309 20.9739 9.34191 21.0102 9.1301C21.0219 9.01454 21.0073 8.89784 20.9674 8.78874C20.9276 8.67964 20.8636 8.58097 20.7802 8.5001C20.6975 8.41875 20.5988 8.35543 20.4904 8.31412C20.3819 8.27282 20.2661 8.25442 20.1502 8.2601C19.9403 8.30039 19.7516 8.41407 19.6178 8.58081C19.4841 8.74754 19.414 8.95644 19.4202 9.1701V9.8601Z" fill="black"/>
</svg>
