<svg width="24" height="24" viewBox="0 0 24 24" fill="none" xmlns="http://www.w3.org/2000/svg">
<path d="M2 20C1.80109 20 1.61032 19.921 1.46967 19.7803C1.32902 19.6397 1.25 19.4489 1.25 19.25V4.72C1.25 4.52109 1.32902 4.33032 1.46967 4.18967C1.61032 4.04902 1.80109 3.97 2 3.97C2.19891 3.97 2.38968 4.04902 2.53033 4.18967C2.67098 4.33032 2.75 4.52109 2.75 4.72V19.28C2.74225 19.4737 2.65982 19.6568 2.52 19.791C2.38018 19.9253 2.19382 20.0002 2 20ZM22.75 19.25V4.72C22.75 4.52109 22.671 4.33032 22.5303 4.18967C22.3897 4.04902 22.1989 3.97 22 3.97C21.8011 3.97 21.6103 4.04902 21.4697 4.18967C21.329 4.33032 21.25 4.52109 21.25 4.72V19.28C21.25 19.4789 21.329 19.6697 21.4697 19.8103C21.6103 19.951 21.8011 20.03 22 20.03C22.1989 20.03 22.3897 19.951 22.5303 19.8103C22.671 19.6697 22.75 19.4789 22.75 19.28V19.25ZM19.91 6.35V17.67C19.9078 18.9463 19.4177 20.1734 18.54 21.1C18.4997 21.1557 18.4563 21.2092 18.41 21.26L18.26 21.39C17.3203 22.2585 16.0895 22.7437 14.81 22.75H9.19C7.91046 22.7437 6.67966 22.2585 5.74 21.39L5.59 21.26C5.54369 21.2092 5.50029 21.1557 5.46 21.1C4.58231 20.1734 4.09216 18.9463 4.09 17.67V6.35C4.09264 4.99821 4.63081 3.70254 5.58667 2.74667C6.54254 1.79081 7.83821 1.25264 9.19 1.25H14.81C16.1618 1.25264 17.4575 1.79081 18.4133 2.74667C19.3692 3.70254 19.9074 4.99821 19.91 6.35ZM14.79 21.25C15.7034 21.2368 16.5783 20.8797 17.24 20.25L17.35 20.16L17.44 20.05C18.0716 19.3935 18.4293 18.5209 18.44 17.61V16.44H5.59V17.65C5.60074 18.5609 5.95835 19.4335 6.59 20.09L6.68 20.2L6.79 20.29C7.45175 20.9197 8.3266 21.2768 9.24 21.29L14.79 21.25ZM18.41 14.94V6.35C18.41 5.39522 18.0307 4.47955 17.3556 3.80442C16.6805 3.12928 15.7648 2.75 14.81 2.75H9.19C8.23522 2.75 7.31955 3.12928 6.64442 3.80442C5.96928 4.47955 5.59 5.39522 5.59 6.35V14.94H18.41Z" fill="black"/>
</svg>
