<svg width="24" height="24" viewBox="0 0 24 24" fill="none" xmlns="http://www.w3.org/2000/svg">
<path d="M19.4202 5.29996V4.20996C19.4202 3.41431 19.1042 2.65125 18.5415 2.08864C17.9789 1.52603 17.2159 1.20996 16.4202 1.20996H7.54023C6.74458 1.20996 5.98151 1.52603 5.41891 2.08864C4.8563 2.65125 4.54023 3.41431 4.54023 4.20996V5.29996C3.62985 5.39693 2.7883 5.82977 2.17994 6.51394C1.57158 7.19811 1.2401 8.08449 1.25023 8.99996V15C1.24104 15.9217 1.57809 16.8133 2.19472 17.4984C2.81135 18.1836 3.66264 18.6123 4.58023 18.7V19.79C4.58023 20.5856 4.8963 21.3487 5.45891 21.9113C6.02151 22.4739 6.78458 22.79 7.58023 22.79H16.5002C17.2959 22.79 18.0589 22.4739 18.6215 21.9113C19.1842 21.3487 19.5002 20.5856 19.5002 19.79V18.7C20.4034 18.5938 21.2352 18.1569 21.8354 17.4737C22.4355 16.7905 22.7614 15.9093 22.7502 15V8.99996C22.7594 8.07825 22.4224 7.18665 21.8057 6.50151C21.1891 5.81637 20.3378 5.38758 19.4202 5.29996ZM6.08023 4.20996C6.08285 3.82355 6.23751 3.45372 6.51074 3.18048C6.78398 2.90724 7.15382 2.75258 7.54023 2.74996H16.4602C16.8466 2.75258 17.2165 2.90724 17.4897 3.18048C17.7629 3.45372 17.9176 3.82355 17.9202 4.20996V5.20996H6.08023V4.20996ZM17.9202 19.79C17.9176 20.1764 17.7629 20.5462 17.4897 20.8194C17.2165 21.0927 16.8466 21.2473 16.4602 21.25H7.54023C7.15382 21.2473 6.78398 21.0927 6.51074 20.8194C6.23751 20.5462 6.08285 20.1764 6.08023 19.79V18.74H17.9202V19.79ZM21.2502 15C21.2476 15.5826 21.015 16.1407 20.603 16.5527C20.1909 16.9647 19.6329 17.1973 19.0502 17.2H5.00023C4.70749 17.2053 4.41663 17.1523 4.14452 17.0443C3.87242 16.9362 3.62449 16.7752 3.41515 16.5705C3.20582 16.3658 3.03923 16.1216 2.92509 15.8519C2.81094 15.5823 2.7515 15.2927 2.75023 15V8.99996C2.74616 8.70383 2.80165 8.4099 2.91341 8.13563C3.02517 7.86137 3.19091 7.61236 3.40079 7.40341C3.61068 7.19446 3.86042 7.02983 4.13518 6.91929C4.40994 6.80876 4.70411 6.75457 5.00023 6.75996H19.1002C19.6811 6.77568 20.2325 7.01956 20.6348 7.43881C21.0372 7.85805 21.2583 8.41891 21.2502 8.99996V15Z" fill="black"/>
</svg>
