<svg width="24" height="24" viewBox="0 0 24 24" fill="none" xmlns="http://www.w3.org/2000/svg">
<path d="M18.28 20.15H5.72C4.73421 20.1474 3.78954 19.7546 3.09248 19.0575C2.39541 18.3605 2.00264 17.4158 2 16.43V7.57C2.00264 6.58421 2.39541 5.63954 3.09248 4.94248C3.78954 4.24541 4.73421 3.85264 5.72 3.85H18.28C19.2658 3.85264 20.2105 4.24541 20.9075 4.94248C21.6046 5.63954 21.9974 6.58421 22 7.57V16.43C21.9974 17.4158 21.6046 18.3605 20.9075 19.0575C20.2105 19.7546 19.2658 20.1474 18.28 20.15ZM5.72 5.35C5.13203 5.35263 4.56889 5.58737 4.15313 6.00313C3.73737 6.41889 3.50263 6.98203 3.5 7.57V16.43C3.50263 17.018 3.73737 17.5811 4.15313 17.9969C4.56889 18.4126 5.13203 18.6474 5.72 18.65H18.28C18.868 18.6474 19.4311 18.4126 19.8469 17.9969C20.2626 17.5811 20.4974 17.018 20.5 16.43V7.57C20.4974 6.98203 20.2626 6.41889 19.8469 6.00313C19.4311 5.58737 18.868 5.35263 18.28 5.35H5.72ZM19.49 2C19.4874 1.80189 19.4076 1.61263 19.2675 1.47253C19.1274 1.33244 18.9381 1.25259 18.74 1.25H5.26C5.06109 1.25 4.87032 1.32902 4.72967 1.46967C4.58902 1.61032 4.51 1.80109 4.51 2C4.51 2.19891 4.58902 2.38968 4.72967 2.53033C4.87032 2.67098 5.06109 2.75 5.26 2.75H18.74C18.9381 2.74741 19.1274 2.66756 19.2675 2.52747C19.4076 2.38737 19.4874 2.19811 19.49 2ZM19.49 22C19.4874 21.8019 19.4076 21.6126 19.2675 21.4725C19.1274 21.3324 18.9381 21.2526 18.74 21.25H5.26C5.06109 21.25 4.87032 21.329 4.72967 21.4697C4.58902 21.6103 4.51 21.8011 4.51 22C4.51 22.1989 4.58902 22.3897 4.72967 22.5303C4.87032 22.671 5.06109 22.75 5.26 22.75H18.74C18.9381 22.7474 19.1274 22.6676 19.2675 22.5275C19.4076 22.3874 19.4874 22.1981 19.49 22Z" fill="black"/>
</svg>
