<svg width="24" height="24" viewBox="0 0 24 24" fill="none" xmlns="http://www.w3.org/2000/svg">
<path d="M16.43 22H7.57C6.58421 21.9974 5.63954 21.6046 4.94248 20.9075C4.24541 20.2105 3.85264 19.2658 3.85 18.28V5.72C3.85264 4.73421 4.24541 3.78954 4.94248 3.09248C5.63954 2.39541 6.58421 2.00264 7.57 2H16.43C17.4158 2.00264 18.3605 2.39541 19.0575 3.09248C19.7546 3.78954 20.1474 4.73421 20.15 5.72V18.28C20.1474 19.2658 19.7546 20.2105 19.0575 20.9075C18.3605 21.6046 17.4158 21.9974 16.43 22ZM7.57 3.5C6.98203 3.50263 6.41889 3.73737 6.00313 4.15313C5.58737 4.56889 5.35263 5.13203 5.35 5.72V18.28C5.35263 18.868 5.58737 19.4311 6.00313 19.8469C6.41889 20.2626 6.98203 20.4974 7.57 20.5H16.43C17.018 20.4974 17.5811 20.2626 17.9969 19.8469C18.4126 19.4311 18.6474 18.868 18.65 18.28V5.72C18.6474 5.13203 18.4126 4.56889 17.9969 4.15313C17.5811 3.73737 17.018 3.50263 16.43 3.5H7.57ZM2.75 18.74V5.26C2.75 5.06109 2.67098 4.87032 2.53033 4.72967C2.38968 4.58902 2.19891 4.51 2 4.51C1.80109 4.51 1.61032 4.58902 1.46967 4.72967C1.32902 4.87032 1.25 5.06109 1.25 5.26V18.74C1.25 18.9389 1.32902 19.1297 1.46967 19.2703C1.61032 19.411 1.80109 19.49 2 19.49C2.19891 19.49 2.38968 19.411 2.53033 19.2703C2.67098 19.1297 2.75 18.9389 2.75 18.74ZM22.75 18.74V5.26C22.75 5.06109 22.671 4.87032 22.5303 4.72967C22.3897 4.58902 22.1989 4.51 22 4.51C21.8011 4.51 21.6103 4.58902 21.4697 4.72967C21.329 4.87032 21.25 5.06109 21.25 5.26V18.74C21.25 18.9389 21.329 19.1297 21.4697 19.2703C21.6103 19.411 21.8011 19.49 22 19.49C22.1989 19.49 22.3897 19.411 22.5303 19.2703C22.671 19.1297 22.75 18.9389 22.75 18.74Z" fill="black"/>
</svg>
