<svg width="24" height="24" viewBox="0 0 24 24" fill="none" xmlns="http://www.w3.org/2000/svg">
<path d="M19.79 4.58006H18.7C18.6123 3.66247 18.1836 2.81118 17.4984 2.19456C16.8133 1.57793 15.9217 1.24088 15 1.25006H8.99996C8.07889 1.24317 7.18854 1.58102 6.50389 2.1972C5.81924 2.81339 5.3898 3.66335 5.29996 4.58006H4.20996C3.41431 4.58006 2.65125 4.89613 2.08864 5.45874C1.52603 6.02135 1.20996 6.78441 1.20996 7.58006V16.5001C1.20996 17.2957 1.52603 18.0588 2.08864 18.6214C2.65125 19.184 3.41431 19.5001 4.20996 19.5001H5.29996C5.40828 20.4023 5.84572 21.2329 6.52847 21.8326C7.21123 22.4323 8.09126 22.759 8.99996 22.7501H15C15.9148 22.7492 16.7965 22.4077 17.4732 21.792C18.1499 21.1764 18.573 20.3307 18.66 19.4201H19.75C20.5456 19.4201 21.3087 19.104 21.8713 18.5414C22.4339 17.9788 22.75 17.2157 22.75 16.4201V7.54006C22.7396 6.75824 22.4244 6.01136 21.8715 5.45848C21.3187 4.9056 20.5718 4.59042 19.79 4.58006ZM2.78996 16.4601V7.54006C2.79232 7.16043 2.94146 6.79644 3.20615 6.5243C3.47084 6.25216 3.83055 6.09297 4.20996 6.08006H5.20996V17.9201H4.20996C3.82355 17.9174 3.45372 17.7628 3.18048 17.4895C2.90724 17.2163 2.75258 16.8465 2.74996 16.4601H2.78996ZM15 21.2501H8.99996C8.41729 21.2474 7.85924 21.0148 7.44723 20.6028C7.03522 20.1908 6.80259 19.6327 6.79996 19.0501V5.00006C6.79466 4.70733 6.84757 4.41646 6.95564 4.14436C7.0637 3.87225 7.22475 3.62433 7.42943 3.41499C7.63412 3.20565 7.87836 3.03907 8.14797 2.92492C8.41758 2.81078 8.70719 2.75134 8.99996 2.75006H15C15.2961 2.74599 15.59 2.80148 15.8643 2.91324C16.1386 3.025 16.3876 3.19075 16.5965 3.40063C16.8055 3.61051 16.9701 3.86025 17.0806 4.13501C17.1912 4.40977 17.2453 4.70395 17.24 5.00006V19.1001C17.2242 19.681 16.9804 20.2323 16.5611 20.6347C16.1419 21.0371 15.581 21.2582 15 21.2501ZM21.21 16.4601C21.2073 16.8465 21.0527 17.2163 20.7794 17.4895C20.5062 17.7628 20.1364 17.9174 19.75 17.9201H18.74V6.08006H19.79C20.1764 6.08268 20.5462 6.23734 20.8194 6.51058C21.0927 6.78382 21.2473 7.15365 21.25 7.54006L21.21 16.4601Z" fill="black"/>
</svg>
