<svg width="24" height="24" viewBox="0 0 24 24" fill="none" xmlns="http://www.w3.org/2000/svg">
<path d="M17.7398 21.25H6.25977C4.93368 21.25 3.66191 20.7232 2.72423 19.7855C1.78655 18.8479 1.25977 17.5761 1.25977 16.25V7.76001C1.25977 6.43393 1.78655 5.16216 2.72423 4.22448C3.66191 3.28679 4.93368 2.76001 6.25977 2.76001H17.7398C19.0658 2.76001 20.3376 3.28679 21.2753 4.22448C22.213 5.16216 22.7398 6.43393 22.7398 7.76001V16.24C22.7411 16.8975 22.6127 17.5487 22.362 18.1565C22.1114 18.7643 21.7433 19.3167 21.2788 19.782C20.8144 20.2474 20.2628 20.6166 19.6555 20.8685C19.0482 21.1203 18.3972 21.25 17.7398 21.25ZM6.25977 4.25001C5.32886 4.25001 4.43607 4.61981 3.77782 5.27806C3.11957 5.93632 2.74977 6.8291 2.74977 7.76001V16.24C2.74977 17.1709 3.11957 18.0637 3.77782 18.722C4.43607 19.3802 5.32886 19.75 6.25977 19.75H17.7398C18.6707 19.75 19.5635 19.3802 20.2217 18.722C20.88 18.0637 21.2498 17.1709 21.2498 16.24V7.76001C21.2498 6.8291 20.88 5.93632 20.2217 5.27806C19.5635 4.61981 18.6707 4.25001 17.7398 4.25001H6.25977ZM14.1898 12.19L17.4798 9.40001C17.6283 9.26884 17.7205 9.08547 17.7372 8.88805C17.754 8.69063 17.694 8.49434 17.5698 8.34001C17.4386 8.19076 17.2542 8.09881 17.0561 8.08386C16.858 8.0689 16.6618 8.13214 16.5098 8.26001L13.2198 11.05C12.8754 11.3398 12.4398 11.4988 11.9898 11.4988C11.5397 11.4988 11.1041 11.3398 10.7598 11.05L7.37977 8.25001C7.22727 8.1174 7.02833 8.0508 6.82673 8.06487C6.62513 8.07894 6.43737 8.17251 6.30477 8.32501C6.17216 8.47751 6.10556 8.67644 6.11963 8.87804C6.13369 9.07964 6.22727 9.2674 6.37977 9.40001L9.79977 12.21C10.4117 12.7326 11.19 13.0197 11.9948 13.0197C12.7995 13.0197 13.5778 12.7326 14.1898 12.21V12.19Z" fill="#050505"/>
</svg>
