<svg width="24" height="24" viewBox="0 0 24 24" fill="none" xmlns="http://www.w3.org/2000/svg">
<path d="M12 18.19C11.2864 18.1978 10.5878 17.9847 10 17.58C9.63994 17.324 9.21167 17.1812 8.77001 17.17H8.65C8.26101 17.1891 7.87696 17.0763 7.56 16.85C7.4058 16.7115 7.30349 16.5245 7.27 16.32L7 16.22L6.59 16.08C6.33 15.97 5.8 15.77 5.77 15.19C5.74 14.61 6.35 14.26 6.64 14.12C7.03513 13.9186 7.37761 13.6275 7.64 13.27L7.8 13.08C7.94222 12.9116 8.04475 12.7134 8.10001 12.5L7.88 12.37L7.61 12.19C7.40499 12.079 7.22531 11.9266 7.08242 11.7423C6.93953 11.5581 6.83654 11.3462 6.78 11.12C6.75233 10.9693 6.75766 10.8143 6.79564 10.6659C6.83362 10.5174 6.90335 10.3789 7 10.26C7.14819 10.0757 7.35005 9.94199 7.5776 9.87749C7.80515 9.81298 8.04713 9.82085 8.27001 9.9V9.31001C8.27001 8.38175 8.63875 7.49151 9.29513 6.83513C9.95151 6.17875 10.8417 5.81 11.77 5.81H12.21C13.1365 5.81265 14.0242 6.18257 14.6784 6.83866C15.3326 7.49475 15.7 8.38348 15.7 9.31001V9.89001C15.8694 9.84811 16.0457 9.84159 16.2177 9.87083C16.3898 9.90008 16.5539 9.96448 16.7 10.06C16.8511 10.1652 16.974 10.306 17.0577 10.4699C17.1414 10.6339 17.1834 10.8159 17.18 11C17.18 11.73 16.46 12.17 15.92 12.49L16.1 12.88C16.4552 13.459 16.9784 13.916 17.6 14.19H17.69C17.8947 14.2785 18.0639 14.4328 18.1708 14.6285C18.2777 14.8242 18.3161 15.05 18.28 15.27C18.22 15.63 17.91 16.08 16.87 16.27H16.75C16.6863 16.53 16.5307 16.7581 16.3121 16.9125C16.0934 17.0669 15.8263 17.137 15.56 17.11C14.9581 17.0825 14.3651 17.2626 13.88 17.62C13.3211 17.9866 12.6684 18.1845 12 18.19ZM8.68001 15.66H8.84C9.5795 15.6829 10.2959 15.9229 10.9 16.35C11.2234 16.5588 11.6001 16.6699 11.985 16.6699C12.3699 16.6699 12.7467 16.5588 13.07 16.35C13.7349 15.8816 14.5267 15.6269 15.34 15.62C15.4715 15.3357 15.708 15.1135 16 15C15.4672 14.6234 15.0346 14.1222 14.74 13.54C14.41 12.83 14.07 12.1 14.74 11.54H14.65C14.5155 11.4421 14.4076 11.3121 14.336 11.162C14.2644 11.0118 14.2314 10.8461 14.24 10.68V9.31001C14.24 8.77957 14.0293 8.27086 13.6542 7.89579C13.2791 7.52072 12.7704 7.31 12.24 7.31H11.8C11.2696 7.31 10.7609 7.52072 10.3858 7.89579C10.0107 8.27086 9.8 8.77957 9.8 9.31001V11.21L9.43001 11.5L9.34 11.55C9.44542 11.6426 9.53017 11.7563 9.58875 11.8838C9.64732 12.0113 9.67842 12.1497 9.68001 12.29C9.63581 12.9449 9.38354 13.5685 8.96 14.07L8.8 14.25C8.56543 14.5322 8.2967 14.7841 8 15C8.13585 15.0562 8.26364 15.1302 8.38 15.22C8.51516 15.3393 8.6183 15.4906 8.68001 15.66ZM12 22.75C9.87386 22.75 7.79545 22.1195 6.02762 20.9383C4.2598 19.7571 2.88194 18.0782 2.0683 16.1139C1.25466 14.1495 1.04177 11.9881 1.45656 9.90278C1.87135 7.81749 2.89519 5.90202 4.39861 4.39861C5.90202 2.89519 7.81749 1.87135 9.90278 1.45656C11.9881 1.04177 14.1495 1.25466 16.1139 2.0683C18.0782 2.88194 19.7571 4.2598 20.9383 6.02762C22.1195 7.79545 22.75 9.87386 22.75 12C22.7474 14.8503 21.6139 17.583 19.5985 19.5985C17.583 21.6139 14.8503 22.7474 12 22.75ZM12 2.75C10.1705 2.75 8.38213 3.29251 6.86098 4.30891C5.33983 5.32531 4.15423 6.76997 3.45412 8.46018C2.75401 10.1504 2.57083 12.0103 2.92774 13.8046C3.28465 15.5989 4.16563 17.2471 5.45927 18.5407C6.7529 19.8344 8.40109 20.7154 10.1954 21.0723C11.9897 21.4292 13.8496 21.246 15.5398 20.5459C17.23 19.8458 18.6747 18.6602 19.6911 17.139C20.7075 15.6179 21.25 13.8295 21.25 12C21.2474 9.54756 20.272 7.19633 18.5378 5.46219C16.8037 3.72805 14.4524 2.75265 12 2.75Z" fill="black"/>
</svg>
