<svg width="24" height="24" viewBox="0 0 24 24" fill="none" xmlns="http://www.w3.org/2000/svg">
<path d="M16 18.74H8.00003C7.27855 18.7321 6.5893 18.44 6.08192 17.927C5.57454 17.414 5.28999 16.7216 5.29003 16V8.00003C5.28999 7.2785 5.57454 6.58608 6.08192 6.07309C6.5893 5.56009 7.27855 5.26793 8.00003 5.26003H14C14.3607 5.25871 14.7181 5.32861 15.0517 5.46572C15.3852 5.60283 15.6885 5.80445 15.944 6.05901C16.1995 6.31358 16.4022 6.61608 16.5405 6.94916C16.6788 7.28225 16.75 7.63936 16.75 8.00003V9.92003C16.7526 10.0227 16.7945 10.1204 16.8671 10.193C16.9397 10.2656 17.0374 10.3075 17.14 10.31C17.3501 10.31 17.5582 10.3514 17.7523 10.4318C17.9464 10.5122 18.1228 10.6301 18.2714 10.7787C18.42 10.9272 18.5378 11.1036 18.6182 11.2977C18.6986 11.4919 18.74 11.6999 18.74 11.91V16C18.74 16.7267 18.4514 17.4237 17.9375 17.9375C17.4237 18.4514 16.7267 18.74 16 18.74ZM8.00003 6.74003C7.672 6.74789 7.36021 6.88442 7.13196 7.12016C6.90372 7.35589 6.77731 7.67192 6.78003 8.00003V16C6.78253 16.3247 6.91126 16.6356 7.13895 16.8671C7.36665 17.0985 7.67546 17.2322 8.00003 17.24H16C16.3298 17.24 16.6463 17.1097 16.8804 16.8775C17.1145 16.6452 17.2474 16.3298 17.25 16V11.91C17.25 11.8809 17.2384 11.8529 17.2178 11.8322C17.1972 11.8116 17.1692 11.8 17.14 11.8C16.6414 11.8 16.1632 11.602 15.8107 11.2494C15.4581 10.8968 15.26 10.4186 15.26 9.92003V8.00003C15.26 7.83503 15.2274 7.67167 15.1639 7.51935C15.1005 7.36704 15.0075 7.2288 14.8904 7.11259C14.7733 6.99639 14.6343 6.90452 14.4815 6.84229C14.3286 6.78007 14.165 6.74871 14 6.75003L8.00003 6.74003ZM9.90003 9.24003H12C12.1989 9.24003 12.3897 9.31905 12.5304 9.4597C12.671 9.60035 12.75 9.79112 12.75 9.99003C12.75 10.1889 12.671 10.3797 12.5304 10.5204C12.3897 10.661 12.1989 10.74 12 10.74H9.92003C9.72112 10.74 9.53035 10.661 9.3897 10.5204C9.24905 10.3797 9.17003 10.1889 9.17003 9.99003C9.17003 9.79112 9.24905 9.60035 9.3897 9.4597C9.53035 9.31905 9.72112 9.24003 9.92003 9.24003H9.90003ZM13.9 14.73H10C9.89495 14.7422 9.78848 14.7321 9.6876 14.7002C9.58673 14.6683 9.49374 14.6155 9.41475 14.5451C9.33575 14.4747 9.27253 14.3885 9.22924 14.2919C9.18595 14.1954 9.16357 14.0908 9.16357 13.985C9.16357 13.8792 9.18595 13.7747 9.22924 13.6781C9.27253 13.5816 9.33575 13.4953 9.41475 13.425C9.49374 13.3546 9.58673 13.3018 9.6876 13.2699C9.78848 13.238 9.89495 13.2278 10 13.24H13.92C14.0251 13.2278 14.1316 13.238 14.2325 13.2699C14.3333 13.3018 14.4263 13.3546 14.5053 13.425C14.5843 13.4953 14.6475 13.5816 14.6908 13.6781C14.7341 13.7747 14.7565 13.8792 14.7565 13.985C14.7565 14.0908 14.7341 14.1954 14.6908 14.2919C14.6475 14.3885 14.5843 14.4747 14.5053 14.5451C14.4263 14.6155 14.3333 14.6683 14.2325 14.7002C14.1316 14.7321 14.0251 14.7422 13.92 14.73H13.9ZM8.00003 22.76C6.2308 22.7548 4.53524 22.051 3.28233 20.8018C2.02942 19.5527 1.32057 17.8592 1.31003 16.09L1.25003 8.00003C1.24469 6.22825 1.94138 4.52648 3.18765 3.2671C4.43391 2.00771 6.12829 1.29324 7.90003 1.28003H16.01C17.7793 1.28527 19.4748 1.98905 20.7277 3.23822C21.9806 4.48738 22.6895 6.18083 22.7 7.95003V16.01C22.708 17.7845 22.0128 19.4898 20.7666 20.753C19.5203 22.0161 17.8244 22.7342 16.05 22.75L8.00003 22.76ZM16.07 2.76003H7.96003C7.27294 2.75869 6.59239 2.89353 5.95772 3.15676C5.32305 3.41999 4.74683 3.80639 4.26238 4.29364C3.77793 4.78088 3.39484 5.3593 3.13526 5.99547C2.87567 6.63165 2.74474 7.31295 2.75003 8.00003V16.07C2.75264 16.7559 2.89066 17.4345 3.15616 18.0669C3.42166 18.6994 3.80943 19.2731 4.2972 19.7553C4.78497 20.2375 5.36316 20.6187 5.99858 20.8769C6.63401 21.1351 7.31416 21.2653 8.00003 21.26L16.11 21.21C16.7916 21.2074 17.466 21.0706 18.0946 20.8073C18.7233 20.5441 19.294 20.1596 19.7741 19.6758C20.2541 19.192 20.6342 18.6184 20.8926 17.9877C21.151 17.357 21.2827 16.6816 21.28 16V7.93003C21.2747 6.55702 20.7256 5.24206 19.7529 4.27307C18.7801 3.30407 17.463 2.76002 16.09 2.76003H16.07Z" fill="black"/>
</svg>
