<svg width="24" height="24" viewBox="0 0 24 24" fill="none" xmlns="http://www.w3.org/2000/svg">
<path d="M18.41 1.25H5.59C4.43977 1.25264 3.33741 1.71074 2.52407 2.52407C1.71074 3.33741 1.25264 4.43977 1.25 5.59V18.41C1.25264 19.5602 1.71074 20.6626 2.52407 21.4759C3.33741 22.2893 4.43977 22.7474 5.59 22.75H18.41C19.5602 22.7474 20.6626 22.2893 21.4759 21.4759C22.2893 20.6626 22.7474 19.5602 22.75 18.41V5.59C22.7474 4.43977 22.2893 3.33741 21.4759 2.52407C20.6626 1.71074 19.5602 1.25264 18.41 1.25ZM12.75 21.25V9.64C12.75 9.52237 12.796 9.4094 12.8782 9.32529C12.9605 9.24118 13.0724 9.19261 13.19 9.19H14.5C14.6176 9.19261 14.7295 9.24118 14.8118 9.32529C14.894 9.4094 14.94 9.52237 14.94 9.64V21.25H12.75ZM21.25 18.41C21.25 19.1632 20.9508 19.8856 20.4182 20.4182C19.8856 20.9508 19.1632 21.25 18.41 21.25H16.41V9.64C16.4127 9.12891 16.2136 8.6374 15.856 8.27227C15.4983 7.90714 15.011 7.6979 14.5 7.69H13.19C12.9301 7.68988 12.6728 7.74197 12.4335 7.8432C12.1941 7.94442 11.9775 8.09271 11.7966 8.27926C11.6156 8.46581 11.474 8.68681 11.3801 8.92916C11.2862 9.1715 11.242 9.43023 11.25 9.69V21.25H5.59C4.83679 21.25 4.11442 20.9508 3.58182 20.4182C3.04921 19.8856 2.75 19.1632 2.75 18.41V5.59C2.75 4.83679 3.04921 4.11442 3.58182 3.58182C4.11442 3.04921 4.83679 2.75 5.59 2.75H18.41C19.1632 2.75 19.8856 3.04921 20.4182 3.58182C20.9508 4.11442 21.25 4.83679 21.25 5.59V18.41Z" fill="black"/>
</svg>
