<svg width="24" height="24" viewBox="0 0 24 24" fill="none" xmlns="http://www.w3.org/2000/svg">
<path d="M8.99997 16.75C8.26448 16.7545 7.53814 16.5869 6.87889 16.2608C6.21964 15.9347 5.64573 15.459 5.20292 14.8718C4.76012 14.2845 4.46069 13.6019 4.32852 12.8783C4.19634 12.1548 4.23508 11.4104 4.44165 10.7045C4.64821 9.99862 5.01688 9.35077 5.51825 8.81263C6.01962 8.2745 6.63981 7.86098 7.32935 7.60507C8.0189 7.34915 8.7587 7.25792 9.48976 7.33865C10.2208 7.41938 10.9229 7.66984 11.54 8.07004C11.6438 8.14488 11.7151 8.25671 11.7389 8.38249C11.7628 8.50827 11.7375 8.63842 11.6683 8.74612C11.5991 8.85381 11.4912 8.93084 11.3668 8.96134C11.2425 8.99184 11.1112 8.97348 11 8.91004C10.5145 8.60109 9.96373 8.40932 9.39134 8.34989C8.81894 8.29046 8.24056 8.365 7.70194 8.56762C7.16331 8.77024 6.67921 9.09539 6.2879 9.51734C5.89659 9.9393 5.60881 10.4465 5.4473 10.9989C5.2858 11.5512 5.255 12.1335 5.35734 12.6998C5.45969 13.2662 5.69237 13.8009 6.03698 14.2618C6.3816 14.7226 6.82871 15.097 7.34296 15.3553C7.85721 15.6136 8.4245 15.7488 8.99997 15.75C9.59978 15.749 10.1902 15.6014 10.72 15.32C10.7784 15.2892 10.8424 15.2701 10.9082 15.264C10.974 15.2578 11.0403 15.2647 11.1035 15.2842C11.1666 15.3037 11.2253 15.3355 11.2762 15.3776C11.327 15.4198 11.3691 15.4716 11.4 15.53C11.4308 15.5885 11.4499 15.6524 11.456 15.7182C11.4622 15.784 11.4553 15.8504 11.4358 15.9135C11.4163 15.9767 11.3846 16.0354 11.3424 16.0862C11.3002 16.1371 11.2484 16.1792 11.19 16.21C10.5138 16.5629 9.76269 16.7481 8.99997 16.75ZM8.99997 10.4C8.67392 10.4001 8.35531 10.4974 8.08481 10.6795C7.81432 10.8615 7.60422 11.12 7.48136 11.422C7.35849 11.724 7.32844 12.0558 7.39503 12.375C7.46162 12.6942 7.62183 12.9862 7.85521 13.2139C8.08858 13.4416 8.38453 13.5946 8.70525 13.6533C9.02597 13.7119 9.3569 13.6737 9.65578 13.5434C9.95467 13.4131 10.2079 13.1967 10.3832 12.9218C10.5585 12.6469 10.6479 12.326 10.64 12C10.6321 11.5712 10.4555 11.1628 10.1485 10.8633C9.84152 10.5638 9.42885 10.3973 8.99997 10.4ZM15.07 9.61004C14.9889 9.5055 14.8698 9.43733 14.7386 9.42046C14.6074 9.40359 14.4748 9.4394 14.37 9.52004L13.6 10.12V9.92004C13.6 9.78744 13.5473 9.66026 13.4535 9.56649C13.3598 9.47272 13.2326 9.42004 13.1 9.42004C12.9674 9.42004 12.8402 9.47272 12.7464 9.56649C12.6526 9.66026 12.6 9.78744 12.6 9.92004V14.38C12.6025 14.5119 12.656 14.6375 12.7492 14.7308C12.8425 14.824 12.9682 14.8775 13.1 14.88C13.2326 14.88 13.3598 14.8274 13.4535 14.7336C13.5473 14.6398 13.6 14.5127 13.6 14.38V11.38L15 10.31C15.1015 10.2261 15.1658 10.1055 15.1789 9.97444C15.192 9.84337 15.1529 9.71242 15.07 9.61004ZM19.79 12.61H16.66C16.6779 12.9532 16.827 13.2763 17.0764 13.5126C17.3257 13.749 17.6564 13.8805 18 13.88H19.43C19.5626 13.88 19.6898 13.9327 19.7835 14.0265C19.8773 14.1203 19.93 14.2474 19.93 14.38C19.93 14.5127 19.8773 14.6398 19.7835 14.7336C19.6898 14.8274 19.5626 14.88 19.43 14.88H18C17.6626 14.8671 17.3315 14.7846 17.0276 14.6377C16.7236 14.4908 16.4533 14.2826 16.2335 14.0263C16.0138 13.7699 15.8494 13.471 15.7507 13.1481C15.652 12.8252 15.6211 12.4854 15.66 12.15C15.6129 11.4788 15.8321 10.816 16.27 10.3051C16.7079 9.79417 17.3294 9.47623 18 9.42004C18.6705 9.47623 19.292 9.79417 19.7299 10.3051C20.1679 10.816 20.387 11.4788 20.34 12.15C20.3403 12.2201 20.3259 12.2895 20.2977 12.3537C20.2695 12.4178 20.2282 12.4754 20.1763 12.5225C20.1244 12.5697 20.0633 12.6054 19.9967 12.6274C19.9301 12.6493 19.8597 12.6571 19.79 12.65V12.61ZM19.23 11.61C19.1807 11.3056 19.0343 11.0252 18.8126 10.8107C18.591 10.5963 18.3059 10.4592 18 10.42C17.6799 10.4526 17.3799 10.5914 17.1479 10.8143C16.9159 11.0373 16.7652 11.3315 16.72 11.65L19.23 11.61ZM22.71 11.96C22.7021 9.84353 22.0672 7.77681 20.8856 6.02082C19.704 4.26484 18.0285 2.89834 16.0709 2.09386C14.1132 1.28937 11.961 1.08298 9.88614 1.50073C7.81125 1.91849 5.90665 2.94166 4.41283 4.44106C2.91901 5.94046 1.90294 7.84886 1.49293 9.92529C1.08291 12.0017 1.29733 14.1531 2.1091 16.1078C2.92088 18.0624 4.29362 19.7328 6.05399 20.9078C7.81436 22.0829 9.88344 22.71 12 22.71C14.8396 22.7074 17.5622 21.5782 19.5702 19.5702C21.5781 17.5623 22.7073 14.8397 22.71 12V11.96ZM21.21 11.96C21.2179 13.7833 20.6845 15.5679 19.6773 17.0877C18.6701 18.6075 17.2345 19.7942 15.5523 20.4974C13.8701 21.2007 12.017 21.3888 10.2278 21.0379C8.43864 20.6871 6.79384 19.8131 5.50179 18.5267C4.20974 17.2402 3.3286 15.5992 2.96997 13.8116C2.61135 12.0239 2.79139 10.1701 3.48728 8.48483C4.18317 6.79959 5.3636 5.35882 6.87903 4.34503C8.39447 3.33124 10.1767 2.79006 12 2.79004C14.4418 2.79269 16.7829 3.76388 18.5095 5.49051C20.2361 7.21715 21.2073 9.55821 21.21 12V11.96Z" fill="black"/>
</svg>
