<svg width="24" height="24" viewBox="0 0 24 24" fill="none" xmlns="http://www.w3.org/2000/svg">
<path d="M7.80017 23.9001C7.42894 23.9038 7.06071 23.8332 6.71721 23.6924C6.37371 23.5516 6.0619 23.3434 5.80017 23.0801L5.10017 22.3801C4.8341 22.1193 4.62271 21.8082 4.4784 21.4648C4.3341 21.1213 4.25977 20.7526 4.25977 20.3801C4.25977 20.0075 4.3341 19.6388 4.4784 19.2954C4.62271 18.9519 4.8341 18.6408 5.10017 18.3801L10.6002 12.8801C10.7211 12.7593 10.8171 12.6159 10.8825 12.458C10.948 12.3002 10.9817 12.131 10.9817 11.9601C10.9817 11.7892 10.948 11.6199 10.8825 11.4621C10.8171 11.3042 10.7211 11.1608 10.6002 11.0401L5.10017 5.54005C4.8341 5.27935 4.62271 4.96817 4.4784 4.62475C4.3341 4.28133 4.25977 3.91256 4.25977 3.54005C4.25977 3.16754 4.3341 2.79878 4.4784 2.45535C4.62271 2.11193 4.8341 1.80075 5.10017 1.54005L5.80017 0.840052C6.06157 0.575194 6.37297 0.364893 6.7163 0.221356C7.05963 0.0778197 7.42805 0.00390625 7.80017 0.00390625C8.1723 0.00390625 8.54072 0.0778197 8.88405 0.221356C9.22738 0.364893 9.53878 0.575194 9.80017 0.840052L16.8002 7.84005L18.8802 10.0001C19.1463 10.2608 19.3576 10.5719 19.5019 10.9154C19.6463 11.2588 19.7206 11.6275 19.7206 12.0001C19.7206 12.3726 19.6463 12.7413 19.5019 13.0848C19.3576 13.4282 19.1463 13.7393 18.8802 14.0001L9.78017 23.1001C9.51916 23.3573 9.20986 23.5605 8.87005 23.6978C8.53025 23.8351 8.16665 23.9038 7.80017 23.9001ZM7.80017 1.60005C7.62788 1.60191 7.45771 1.63826 7.2997 1.70696C7.14169 1.77566 6.99904 1.87532 6.88017 2.00005L6.18017 2.70005C6.05923 2.8208 5.96328 2.9642 5.89781 3.12207C5.83235 3.27993 5.79865 3.44915 5.79865 3.62005C5.79865 3.79095 5.83235 3.96017 5.89781 4.11804C5.96328 4.2759 6.05923 4.41931 6.18017 4.54005L11.6802 10.0401C11.9463 10.3008 12.1576 10.6119 12.3019 10.9554C12.4463 11.2988 12.5206 11.6675 12.5206 12.0401C12.5206 12.4126 12.4463 12.7813 12.3019 13.1248C12.1576 13.4682 11.9463 13.7793 11.6802 14.0401L6.18017 19.5401C6.05923 19.6608 5.96328 19.8042 5.89781 19.9621C5.83235 20.1199 5.79865 20.2892 5.79865 20.4601C5.79865 20.631 5.83235 20.8002 5.89781 20.958C5.96328 21.1159 6.05923 21.2593 6.18017 21.3801L6.88017 22.0801C7.12891 22.3149 7.45806 22.4458 7.80017 22.4458C8.14228 22.4458 8.47144 22.3149 8.72017 22.0801L17.8202 12.9801C17.9411 12.8593 18.0371 12.7159 18.1025 12.558C18.168 12.4002 18.2017 12.231 18.2017 12.0601C18.2017 11.8892 18.168 11.7199 18.1025 11.5621C18.0371 11.4042 17.9411 11.2608 17.8202 11.1401L8.72017 2.00005C8.60131 1.87532 8.45866 1.77566 8.30065 1.70696C8.14264 1.63826 7.97247 1.60191 7.80017 1.60005Z" fill="black"/>
</svg>
