<svg width="24" height="24" viewBox="0 0 24 24" fill="none" xmlns="http://www.w3.org/2000/svg">
<path d="M20.3701 18.18C20.2671 18.1813 20.1652 18.1595 20.0718 18.1163C19.9783 18.073 19.8957 18.0094 19.8301 17.93C19.7071 17.788 19.6453 17.603 19.6585 17.4156C19.6716 17.2281 19.7585 17.0535 19.9001 16.93C20.35 16.5293 20.71 16.0379 20.9565 15.4881C21.203 14.9383 21.3303 14.3426 21.3301 13.74V7.00005C21.3354 5.87725 20.8952 4.79818 20.1059 3.99956C19.3167 3.20094 18.2429 2.74798 17.1201 2.74005H10.4301C9.36941 2.72808 8.34498 3.12567 7.57009 3.85005C7.50491 3.91657 7.42712 3.96941 7.34126 4.00549C7.2554 4.04157 7.16321 4.06015 7.07009 4.06015C6.97696 4.06015 6.88477 4.04157 6.79891 4.00549C6.71306 3.96941 6.63526 3.91657 6.57009 3.85005C6.44282 3.71467 6.37197 3.53586 6.37197 3.35005C6.37197 3.16424 6.44282 2.98543 6.57009 2.85005C7.60161 1.85644 8.97785 1.30092 10.4101 1.30005H17.1001C18.6048 1.30799 20.0448 1.91266 21.1041 2.98134C22.1634 4.05001 22.7554 5.49534 22.7501 7.00005V13.78C22.7436 14.5778 22.5703 15.3653 22.2414 16.092C21.9124 16.8188 21.4351 17.4687 20.8401 18C20.7097 18.1139 20.5431 18.1777 20.3701 18.18ZM19.0001 17.38C19.0081 18.7893 18.4566 20.1441 17.4667 21.1472C16.4768 22.1502 15.1293 22.7195 13.7201 22.73H6.53009C5.12087 22.7195 3.77342 22.1502 2.7835 21.1472C1.79359 20.1441 1.2421 18.7893 1.25009 17.38V10.44C1.2421 9.03081 1.79359 7.67598 2.7835 6.67294C3.77342 5.66991 5.12087 5.10062 6.53009 5.09005H11.7901C11.8497 5.08068 11.9105 5.08068 11.9701 5.09005H12.0401C12.1128 5.12742 12.1801 5.17452 12.2401 5.23005L18.7501 11.82C18.8317 11.907 18.8908 12.0126 18.9222 12.1277C18.9536 12.2427 18.9563 12.3637 18.9301 12.48C18.9346 12.5199 18.9346 12.5602 18.9301 12.6L19.0001 17.38ZM12.4501 9.70005C12.4501 10.2305 12.6608 10.7392 13.0359 11.1143C13.4109 11.4893 13.9197 11.7 14.4501 11.7H16.5701L12.4501 7.55005V9.70005ZM17.5601 17.38V13.12H14.4101C13.9611 13.1214 13.5162 13.0337 13.1013 12.8622C12.6863 12.6907 12.3094 12.4387 11.9923 12.1207C11.6753 11.8027 11.4244 11.4251 11.2541 11.0096C11.0838 10.5942 10.9974 10.1491 11.0001 9.70005V6.53005H6.53009C5.50013 6.53798 4.51536 6.95406 3.79175 7.68705C3.06814 8.42003 2.66476 9.41007 2.67009 10.44V17.38C2.66476 18.41 3.06814 19.4001 3.79175 20.1331C4.51536 20.866 5.50013 21.2821 6.53009 21.2901H13.7001C14.73 21.2821 15.7148 20.866 16.4384 20.1331C17.162 19.4001 17.5654 18.41 17.5601 17.38Z" fill="black"/>
</svg>
