<svg width="24" height="24" viewBox="0 0 24 24" fill="none" xmlns="http://www.w3.org/2000/svg">
<path d="M15.7101 22.75H8.29014C7.18949 22.75 6.13392 22.3128 5.35564 21.5345C4.57737 20.7562 4.14014 19.7006 4.14014 18.6V5.4C4.14014 4.29935 4.57737 3.24378 5.35564 2.46551C6.13392 1.68723 7.18949 1.25 8.29014 1.25H15.7101C16.8108 1.25 17.8664 1.68723 18.6446 2.46551C19.4229 3.24378 19.8601 4.29935 19.8601 5.4V18.6C19.8601 19.7006 19.4229 20.7562 18.6446 21.5345C17.8664 22.3128 16.8108 22.75 15.7101 22.75ZM8.29014 2.75C7.58731 2.75 6.91328 3.0292 6.4163 3.52617C5.91933 4.02314 5.64014 4.69718 5.64014 5.4V18.6C5.64014 19.3028 5.91933 19.9769 6.4163 20.4738C6.91328 20.9708 7.58731 21.25 8.29014 21.25H15.7101C16.413 21.25 17.087 20.9708 17.584 20.4738C18.0809 19.9769 18.3601 19.3028 18.3601 18.6V5.4C18.3601 4.69718 18.0809 4.02314 17.584 3.52617C17.087 3.0292 16.413 2.75 15.7101 2.75H8.29014ZM12.0001 6.3C11.7288 6.30001 11.4635 6.38062 11.238 6.5316C11.0125 6.68258 10.8369 6.89714 10.7335 7.14806C10.6301 7.39898 10.6036 7.67495 10.6572 7.94097C10.7109 8.207 10.8424 8.45109 11.035 8.64228C11.2276 8.83347 11.4726 8.96316 11.739 9.01488C12.0055 9.06661 12.2812 9.03805 12.5314 8.93282C12.7815 8.8276 12.9948 8.65044 13.1441 8.42384C13.2935 8.19723 13.3721 7.93138 13.3701 7.66C13.3701 7.48056 13.3346 7.30289 13.2657 7.13723C13.1967 6.97157 13.0956 6.8212 12.9683 6.69478C12.8409 6.56836 12.6898 6.46839 12.5237 6.40064C12.3575 6.33288 12.1796 6.29868 12.0001 6.3ZM12.0001 18.7C11.2802 18.7 10.5765 18.4865 9.97786 18.0865C9.37927 17.6866 8.91272 17.1181 8.63722 16.453C8.36171 15.7878 8.28963 15.056 8.43008 14.3499C8.57053 13.6438 8.9172 12.9952 9.42627 12.4861C9.93533 11.9771 10.5839 11.6304 11.29 11.4899C11.9961 11.3495 12.728 11.4216 13.3931 11.6971C14.0582 11.9726 14.6267 12.4391 15.0267 13.0377C15.4267 13.6363 15.6401 14.3401 15.6401 15.06C15.6375 16.0246 15.2532 16.9489 14.5711 17.631C13.889 18.313 12.9647 18.6974 12.0001 18.7ZM12.0001 12.92C11.5769 12.92 11.1631 13.0455 10.8112 13.2807C10.4593 13.5158 10.185 13.85 10.023 14.2411C9.86106 14.6321 9.81868 15.0624 9.90126 15.4775C9.98383 15.8926 10.1876 16.2739 10.4869 16.5732C10.7862 16.8725 11.1675 17.0763 11.5826 17.1589C11.9978 17.2415 12.428 17.1991 12.8191 17.0371C13.2101 16.8751 13.5443 16.6008 13.7795 16.2489C14.0146 15.897 14.1401 15.4833 14.1401 15.06C14.1401 14.4924 13.9147 13.9481 13.5133 13.5468C13.112 13.1455 12.5677 12.92 12.0001 12.92Z" fill="black"/>
</svg>
