<svg width="24" height="24" viewBox="0 0 24 24" fill="none" xmlns="http://www.w3.org/2000/svg">
<path d="M17.31 11.06C17.1381 11.0613 16.9713 11.001 16.84 10.89C12.47 7.34 6.84 9.63 6.77 9.66C6.58568 9.73692 6.37835 9.73746 6.19363 9.6615C6.0089 9.58555 5.86192 9.43933 5.785 9.255C5.70809 9.07068 5.70755 8.86335 5.7835 8.67863C5.85946 8.4939 6.00568 8.34692 6.19 8.27001C6.45 8.16001 12.71 5.6 17.79 9.73C17.8665 9.79282 17.9298 9.87014 17.9763 9.95753C18.0227 10.0449 18.0514 10.1406 18.0607 10.2392C18.07 10.3377 18.0597 10.4371 18.0304 10.5317C18.0011 10.6262 17.9534 10.714 17.89 10.79C17.8202 10.8761 17.7317 10.9451 17.6312 10.9919C17.5307 11.0387 17.4208 11.062 17.31 11.06ZM16.62 13.33C16.7155 13.167 16.747 12.9743 16.7081 12.7894C16.6693 12.6046 16.563 12.4408 16.41 12.33C15.1661 11.4381 13.7152 10.8782 12.1947 10.7033C10.6741 10.5283 9.134 10.744 7.72 11.33C7.5429 11.4182 7.4078 11.5727 7.34412 11.76C7.28044 11.9473 7.29334 12.1522 7.38 12.33C7.42263 12.4186 7.48249 12.4979 7.55609 12.5631C7.62969 12.6283 7.71556 12.6782 7.80866 12.7098C7.90176 12.7415 8.00024 12.7543 8.09834 12.7474C8.19644 12.7406 8.2922 12.7143 8.38 12.67C9.55697 12.1977 10.8343 12.0307 12.0931 12.1845C13.352 12.3384 14.5514 12.8081 15.58 13.55C15.7028 13.6274 15.8448 13.6689 15.99 13.67C16.1152 13.6713 16.2387 13.6407 16.3489 13.5813C16.459 13.5218 16.5523 13.4353 16.62 13.33ZM15.43 16.21C15.5323 16.0507 15.5696 15.8582 15.5342 15.6721C15.4989 15.4861 15.3936 15.3207 15.24 15.21C14.249 14.5534 13.1199 14.1343 11.9405 13.9851C10.7612 13.836 9.56327 13.9608 8.44 14.35C8.2958 14.4462 8.18938 14.5894 8.13882 14.7552C8.08827 14.921 8.09671 15.0992 8.16271 15.2595C8.22871 15.4198 8.3482 15.5522 8.50084 15.6344C8.65349 15.7165 8.82988 15.7432 9 15.71C9.89659 15.4064 10.8505 15.3107 11.7895 15.4303C12.7286 15.5498 13.6281 15.8814 14.42 16.4C14.5427 16.4879 14.6891 16.5367 14.84 16.54C14.9571 16.5343 15.0714 16.5015 15.1737 16.4442C15.2761 16.387 15.3638 16.3068 15.43 16.21ZM12 22.75C9.87386 22.75 7.79545 22.1195 6.02762 20.9383C4.2598 19.7571 2.88194 18.0782 2.0683 16.1139C1.25466 14.1495 1.04177 11.9881 1.45656 9.90278C1.87135 7.81749 2.89519 5.90202 4.39861 4.39861C5.90202 2.89519 7.81749 1.87135 9.90278 1.45656C11.9881 1.04177 14.1495 1.25466 16.1139 2.0683C18.0782 2.88194 19.7571 4.2598 20.9383 6.02762C22.1195 7.79545 22.75 9.87386 22.75 12C22.7474 14.8503 21.6139 17.583 19.5985 19.5985C17.583 21.6139 14.8503 22.7474 12 22.75ZM12 2.75C10.1705 2.75 8.38213 3.29251 6.86098 4.30891C5.33983 5.32531 4.15423 6.76997 3.45412 8.46018C2.75401 10.1504 2.57083 12.0103 2.92774 13.8046C3.28465 15.5989 4.16563 17.2471 5.45927 18.5407C6.7529 19.8344 8.40109 20.7154 10.1954 21.0723C11.9897 21.4292 13.8496 21.246 15.5398 20.5459C17.23 19.8458 18.6747 18.6602 19.6911 17.139C20.7075 15.6179 21.25 13.8295 21.25 12C21.2474 9.54756 20.272 7.19633 18.5378 5.46219C16.8037 3.72805 14.4524 2.75265 12 2.75Z" fill="black"/>
</svg>
