<svg width="24" height="24" viewBox="0 0 24 24" fill="none" xmlns="http://www.w3.org/2000/svg">
<path d="M12.8699 19.69C12.1699 19.69 11.4399 19.69 10.6599 19.58C10.4625 19.5623 10.2802 19.4671 10.1528 19.3153C10.0254 19.1635 9.96324 18.9675 9.97989 18.77C10.0026 18.5729 10.1005 18.3921 10.2533 18.2654C10.4061 18.1387 10.6019 18.0759 10.7999 18.09C15.3899 18.51 18.5099 17.61 20.0499 15.43C22.2399 12.34 20.9299 7.37005 20.0499 4.98005C18.4299 7.33005 16.2599 8.33005 9.9999 9.21005C9.29033 9.24906 8.59902 9.44949 7.97863 9.79607C7.35823 10.1427 6.82512 10.6263 6.4199 11.21C5.4199 12.92 5.8799 15.21 6.1299 16.21C8.55391 16.6585 11.0584 16.2705 13.2331 15.1096C15.4077 13.9487 17.1237 12.0837 18.0999 9.82005C18.1728 9.63439 18.3165 9.48532 18.4994 9.40562C18.5899 9.36615 18.6873 9.34491 18.7861 9.34309C18.8848 9.34128 18.983 9.35893 19.0749 9.39505C19.1668 9.43116 19.2507 9.48503 19.3218 9.55357C19.3929 9.62211 19.4499 9.70399 19.4893 9.79453C19.5288 9.88506 19.55 9.98249 19.5518 10.0812C19.5537 10.18 19.536 10.2781 19.4999 10.37C18.3451 12.9961 16.3267 15.1481 13.7801 16.4687C11.2334 17.7893 8.31161 18.1991 5.4999 17.63C5.36836 17.6074 5.24527 17.55 5.14331 17.4639C5.04135 17.3777 4.96423 17.2659 4.9199 17.14C4.8599 16.99 3.5299 13.25 5.1999 10.46C5.70978 9.68186 6.39144 9.03106 7.19241 8.55776C7.99337 8.08446 8.89227 7.80129 9.81989 7.73005C16.8999 6.73005 18.0599 5.68005 19.5899 2.95005C19.6561 2.8263 19.7561 2.72393 19.8783 2.65488C20.0005 2.58583 20.1397 2.55294 20.2799 2.56005C20.4183 2.56619 20.5523 2.61056 20.6671 2.68823C20.7818 2.76589 20.8728 2.87382 20.9299 3.00005C21.0799 3.34005 24.7199 11.45 21.2799 16.3C19.6799 18.55 16.8599 19.69 12.8699 19.69ZM17.1399 21.44C17.2346 21.3978 17.3196 21.3364 17.3894 21.2596C17.4592 21.1828 17.5123 21.0924 17.5453 20.9941C17.5784 20.8958 17.5907 20.7917 17.5815 20.6883C17.5722 20.585 17.5417 20.4847 17.4917 20.3938C17.4417 20.3029 17.3735 20.2234 17.2912 20.1602C17.2089 20.097 17.1144 20.0516 17.0137 20.0268C16.9129 20.002 16.8082 19.9984 16.706 20.0162C16.6038 20.0339 16.5063 20.0727 16.4199 20.13C15.0045 20.9065 13.4106 21.2989 11.7965 21.2685C10.1825 21.238 8.60448 20.7856 7.21941 19.9564C5.83434 19.1271 4.69043 17.9497 3.90136 16.5414C3.1123 15.133 2.70556 13.5426 2.72157 11.9284C2.73758 10.3141 3.17579 8.73213 3.99264 7.33969C4.80949 5.94726 5.97653 4.79284 7.37777 3.99119C8.77902 3.18954 10.3657 2.76858 11.98 2.77013C13.5944 2.77168 15.1802 3.1957 16.5799 4.00005C16.7523 4.0995 16.9571 4.1264 17.1493 4.07483C17.3416 4.02326 17.5054 3.89744 17.6049 3.72505C17.7044 3.55266 17.7313 3.34782 17.6797 3.15559C17.6281 2.96337 17.5023 2.7995 17.3299 2.70005C15.7029 1.77176 13.8617 1.28469 11.9885 1.28712C10.1154 1.28955 8.27536 1.78138 6.65081 2.71388C5.02627 3.64639 3.67358 4.98719 2.72678 6.60345C1.77999 8.2197 1.27194 10.0553 1.25299 11.9284C1.23404 13.8014 1.70484 15.6469 2.61875 17.282C3.53265 18.9171 4.85793 20.285 6.46328 21.2502C8.06862 22.2153 9.8983 22.7443 11.771 22.7846C13.6437 22.8249 15.4945 22.3752 17.1399 21.48V21.44Z" fill="black"/>
</svg>
