<svg width="24" height="24" viewBox="0 0 24 24" fill="none" xmlns="http://www.w3.org/2000/svg">
<path d="M16.19 22.75H7.81C6.07018 22.75 4.40162 22.0589 3.17138 20.8286C1.94114 19.5984 1.25 17.9298 1.25 16.19V7.81C1.25 6.07018 1.94114 4.40162 3.17138 3.17138C4.40162 1.94114 6.07018 1.25 7.81 1.25H16.19C17.9298 1.25 19.5984 1.94114 20.8286 3.17138C22.0589 4.40162 22.75 6.07018 22.75 7.81V16.19C22.75 17.9298 22.0589 19.5984 20.8286 20.8286C19.5984 22.0589 17.9298 22.75 16.19 22.75ZM7.81 2.75C6.46882 2.75264 5.18332 3.2866 4.23496 4.23496C3.2866 5.18332 2.75264 6.46882 2.75 7.81V16.19C2.75264 17.5312 3.2866 18.8167 4.23496 19.765C5.18332 20.7134 6.46882 21.2474 7.81 21.25H16.19C17.5312 21.2474 18.8167 20.7134 19.765 19.765C20.7134 18.8167 21.2474 17.5312 21.25 16.19V7.81C21.2474 6.46882 20.7134 5.18332 19.765 4.23496C18.8167 3.2866 17.5312 2.75264 16.19 2.75H7.81ZM8.75 16.86C8.90326 16.7492 9.00903 16.5847 9.04612 16.3992C9.0832 16.2138 9.04887 16.0212 8.95 15.86L6.43 12.08L9 8.17C9.09836 8.00591 9.12935 7.81011 9.08647 7.62366C9.04359 7.43722 8.93017 7.27463 8.77 7.17C8.6071 7.07069 8.41214 7.03813 8.22581 7.07913C8.03948 7.12012 7.87618 7.23149 7.77 7.39L4.9 11.68C4.81953 11.8035 4.77669 11.9476 4.77669 12.095C4.77669 12.2424 4.81953 12.3865 4.9 12.51L7.7 16.65C7.76676 16.7539 7.85847 16.8395 7.96676 16.8988C8.07506 16.9582 8.19649 16.9896 8.32 16.99C8.47256 16.987 8.62134 16.942 8.75 16.86ZM16.29 16.65L19.09 12.51C19.1705 12.3865 19.2133 12.2424 19.2133 12.095C19.2133 11.9476 19.1705 11.8035 19.09 11.68L16.3 7.36C16.1938 7.20149 16.0305 7.09012 15.8442 7.04913C15.6579 7.00813 15.4629 7.04069 15.3 7.14C15.1398 7.24463 15.0264 7.40722 14.9835 7.59366C14.9406 7.78011 14.9716 7.97591 15.07 8.14L17.6 12.05L15.08 15.79C14.9811 15.9512 14.9468 16.1438 14.9839 16.3292C15.021 16.5147 15.1267 16.6792 15.28 16.79C15.4058 16.8703 15.5509 16.9152 15.7 16.92C15.8124 16.9228 15.9239 16.8999 16.0262 16.8531C16.1284 16.8063 16.2186 16.7369 16.29 16.65ZM11.77 16.41L13.82 7.94C13.8664 7.74639 13.834 7.54228 13.7299 7.37256C13.6258 7.20284 13.4586 7.08141 13.265 7.035C13.0714 6.98859 12.8673 7.02099 12.6976 7.12507C12.5278 7.22915 12.4064 7.39639 12.36 7.59L10.36 16.06C10.3362 16.1552 10.3316 16.2543 10.3465 16.3513C10.3613 16.4483 10.3953 16.5414 10.4465 16.6252C10.4977 16.7089 10.565 16.7817 10.6446 16.8392C10.7242 16.8966 10.8144 16.9377 10.91 16.96C10.9388 16.9759 10.9689 16.9893 11 17C11.1774 17.0088 11.3522 16.9543 11.4932 16.8462C11.6342 16.7382 11.7323 16.5836 11.77 16.41Z" fill="black"/>
</svg>
