<svg width="24" height="24" viewBox="0 0 24 24" fill="none" xmlns="http://www.w3.org/2000/svg">
<path d="M7.26014 22.75C6.60646 22.7493 5.9709 22.5351 5.45014 22.14C5.01133 21.8032 4.66544 21.3603 4.44501 20.853C4.22459 20.3457 4.13688 19.7906 4.19014 19.24L4.55014 15.45C4.55427 15.4012 4.54843 15.3521 4.53295 15.3057C4.51748 15.2593 4.4927 15.2165 4.46014 15.18L2.00014 12.34C1.64486 11.9149 1.40342 11.4065 1.29847 10.8625C1.19352 10.3185 1.2285 9.75676 1.40014 9.23C1.5601 8.70519 1.85477 8.23146 2.2548 7.856C2.65484 7.48053 3.14626 7.21642 3.68014 7.09L7.26014 6.28C7.35103 6.25068 7.42884 6.19056 7.48014 6.11L9.34014 2.83C9.59374 2.34371 9.9758 1.93625 10.4448 1.65191C10.9137 1.36757 11.4517 1.21722 12.0001 1.21722C12.5486 1.21722 13.0865 1.36757 13.5555 1.65191C14.0245 1.93625 14.4065 2.34371 14.6601 2.83L16.5201 6.11C16.5714 6.19056 16.6492 6.25068 16.7401 6.28L20.3201 7.09C20.854 7.21642 21.3454 7.48053 21.7455 7.856C22.1455 8.23146 22.4402 8.70519 22.6001 9.23C22.7718 9.75676 22.8068 10.3185 22.7018 10.8625C22.5969 11.4065 22.3554 11.9149 22.0001 12.34L19.5701 15.18C19.5376 15.2165 19.5128 15.2593 19.4973 15.3057C19.4818 15.3521 19.476 15.4012 19.4801 15.45L19.8401 19.24C19.8934 19.7906 19.8057 20.3457 19.5853 20.853C19.3648 21.3603 19.0189 21.8032 18.5801 22.14C18.1495 22.466 17.6387 22.6697 17.1019 22.7295C16.5651 22.7894 16.022 22.7032 15.5301 22.48L12.1401 21C12.0961 20.9801 12.0484 20.9698 12.0001 20.9698C11.9519 20.9698 11.9041 20.9801 11.8601 21L8.50014 22.48C8.11079 22.6574 7.68799 22.7495 7.26014 22.75ZM12.0001 2.69C11.7014 2.69211 11.4086 2.77383 11.152 2.92676C10.8954 3.07968 10.6842 3.29827 10.5401 3.56L8.68014 6.84C8.56379 7.0515 8.40374 7.23581 8.21062 7.38064C8.01751 7.52548 7.79576 7.62753 7.56014 7.68L4.00014 8.5C3.70281 8.56282 3.42793 8.70465 3.20443 8.91055C2.98092 9.11645 2.81708 9.37881 2.73014 9.67C2.63636 9.96037 2.61837 10.2699 2.67787 10.5692C2.73738 10.8685 2.87241 11.1476 3.07014 11.38L5.51014 14.22C5.82716 14.6028 5.98152 15.0947 5.94014 15.59L5.58014 19.38C5.54378 19.6868 5.58835 19.9977 5.7094 20.2819C5.83044 20.5661 6.02376 20.8137 6.27014 21C6.50498 21.1804 6.78453 21.2934 7.07876 21.3268C7.37299 21.3603 7.67077 21.313 7.94014 21.19L11.3101 19.67C11.5267 19.571 11.762 19.5198 12.0001 19.5198C12.2382 19.5198 12.4736 19.571 12.6901 19.67L16.0601 21.19C16.3295 21.313 16.6273 21.3603 16.9215 21.3268C17.2157 21.2934 17.4953 21.1804 17.7301 21C17.9718 20.8164 18.1622 20.5737 18.2831 20.2952C18.4039 20.0168 18.4511 19.7119 18.4201 19.41L18.0601 15.62C18.0187 15.1247 18.1731 14.6328 18.4901 14.25L20.9301 11.41C21.1279 11.1776 21.2629 10.8985 21.3224 10.5992C21.3819 10.2999 21.3639 9.99037 21.2701 9.7C21.1879 9.40325 21.0261 9.13463 20.8022 8.92314C20.5784 8.71165 20.3011 8.56533 20.0001 8.5L16.4101 7.68C16.1745 7.62753 15.9528 7.52548 15.7597 7.38064C15.5665 7.23581 15.4065 7.0515 15.2901 6.84L13.4601 3.56C13.3161 3.29827 13.1049 3.07968 12.8483 2.92676C12.5916 2.77383 12.2989 2.69211 12.0001 2.69Z" fill="black"/>
</svg>
