<svg width="24" height="24" viewBox="0 0 24 24" fill="none" xmlns="http://www.w3.org/2000/svg">
<path d="M14.8301 22.75C14.3337 22.7494 13.8529 22.5761 13.4701 22.26C13.2151 22.0521 13.0099 21.7897 12.8698 21.492C12.7296 21.1943 12.6579 20.869 12.6601 20.54V15.6C12.6549 15.1837 12.7316 14.7704 12.8861 14.3838C13.0405 13.9972 13.2696 13.6448 13.5603 13.3467C13.8509 13.0486 14.1974 12.8107 14.58 12.6465C14.9626 12.4824 15.3738 12.3952 15.7901 12.39H20.5801C20.898 12.3908 21.2118 12.462 21.4988 12.5986C21.7859 12.7352 22.0391 12.9338 22.2401 13.18C22.4451 13.4315 22.5932 13.7244 22.6743 14.0386C22.7554 14.3527 22.7677 14.6807 22.7101 15C22.3517 16.8832 21.4516 18.6209 20.1201 20C18.8033 21.3629 17.1061 22.2969 15.2501 22.68C15.113 22.7182 14.9722 22.7417 14.8301 22.75ZM15.8301 13.89C15.6108 13.8952 15.3947 13.9435 15.194 14.0323C14.9934 14.1211 14.8122 14.2485 14.6608 14.4073C14.5095 14.5661 14.3909 14.7532 14.3118 14.9578C14.2328 15.1625 14.1948 15.3807 14.2001 15.6V20.54C14.1978 20.647 14.22 20.7531 14.2651 20.8502C14.3101 20.9473 14.3769 21.0327 14.4601 21.1C14.533 21.1605 14.6181 21.2044 14.7097 21.2286C14.8012 21.2528 14.8969 21.2567 14.9901 21.24C16.52 20.9093 17.9163 20.1293 19.0001 19C20.1324 17.8362 20.8974 16.3652 21.2001 14.77C21.2201 14.6628 21.216 14.5526 21.1884 14.4471C21.1607 14.3417 21.1101 14.2436 21.0401 14.16C20.9811 14.0832 20.9055 14.0208 20.8189 13.9775C20.7323 13.9342 20.637 13.9111 20.5401 13.91L15.8301 13.89ZM9.20014 22.75C9.05722 22.7655 8.91306 22.7655 8.77014 22.75C6.90203 22.35 5.19993 21.3908 3.89014 20C2.55213 18.6242 1.648 16.8855 1.29014 15C1.22524 14.6761 1.23378 14.3418 1.31511 14.0216C1.39645 13.7015 1.54852 13.4036 1.76014 13.15C1.96322 12.9036 2.2182 12.705 2.50687 12.5684C2.79554 12.4318 3.1108 12.3607 3.43014 12.36H8.23014C9.0718 12.3705 9.87494 12.7144 10.4635 13.3161C11.0521 13.9178 11.3781 14.7283 11.3701 15.57V20.51C11.3704 20.8397 11.2969 21.1653 11.155 21.4629C11.0131 21.7605 10.8065 22.0226 10.5501 22.23C10.175 22.5563 9.69719 22.7403 9.20014 22.75ZM3.43014 13.89C3.33175 13.8904 3.23473 13.913 3.14639 13.9563C3.05805 13.9997 2.98069 14.0624 2.92014 14.14C2.85018 14.2236 2.79957 14.3217 2.77191 14.4271C2.74425 14.5326 2.74023 14.6428 2.76014 14.75C3.07038 16.3569 3.84987 17.8358 5.00014 19C6.11357 20.147 7.54511 20.9342 9.11014 21.26C9.20335 21.2767 9.29907 21.2728 9.39062 21.2486C9.48217 21.2244 9.56733 21.1805 9.64014 21.12C9.72413 21.0528 9.79197 20.9676 9.8387 20.8706C9.88542 20.7737 9.90983 20.6676 9.91014 20.56V15.6C9.91819 15.1561 9.75022 14.7271 9.44291 14.4067C9.13561 14.0863 8.71398 13.9005 8.27014 13.89H3.43014ZM20.2601 11.06H3.74014C3.38046 11.0633 3.0245 10.987 2.69776 10.8365C2.37102 10.6861 2.08157 10.4654 1.85014 10.19C1.6687 9.96613 1.54026 9.70411 1.47445 9.42356C1.40865 9.14301 1.40717 8.8512 1.47014 8.57C2.47014 4.33 6.87014 1.25 12.0001 1.25C17.1301 1.25 21.5601 4.33 22.5301 8.57C22.5931 8.8512 22.5916 9.14301 22.5258 9.42356C22.46 9.70411 22.3316 9.96613 22.1501 10.19C21.9192 10.4659 21.6298 10.6871 21.303 10.8375C20.9761 10.988 20.6199 11.064 20.2601 11.06ZM12.0001 2.75C7.56014 2.75 3.75014 5.34 2.93014 8.91C2.92032 8.97054 2.9242 9.03252 2.94151 9.09136C2.95881 9.15021 2.9891 9.20442 3.03014 9.25C3.11793 9.35128 3.22724 9.43167 3.35008 9.48531C3.47291 9.53894 3.60618 9.56446 3.74014 9.56H20.2601C20.3988 9.56684 20.5372 9.54255 20.6653 9.4889C20.7933 9.43526 20.9078 9.35363 21.0001 9.25C21.0383 9.20287 21.066 9.14822 21.0815 9.08962C21.097 9.03103 21.1 8.96981 21.0901 8.91C20.2501 5.34 16.4401 2.75 12.0001 2.75Z" fill="black"/>
</svg>
