<svg width="24" height="24" viewBox="0 0 24 24" fill="none" xmlns="http://www.w3.org/2000/svg">
<path d="M16.0499 22.75H7.99992C6.22379 22.7474 4.52115 22.0406 3.26523 20.7847C2.00931 19.5288 1.30257 17.8261 1.29992 16.05V8C1.29466 7.11631 1.46399 6.24028 1.79822 5.42222C2.13244 4.60416 2.62497 3.86017 3.24751 3.23298C3.87006 2.60578 4.61036 2.10774 5.42592 1.76745C6.24148 1.42715 7.11622 1.2513 7.99992 1.25H16.0999C17.8761 1.26585 19.5734 1.98528 20.82 3.25059C22.0666 4.51589 22.7606 6.22383 22.7499 8V16.1C22.7341 17.8675 22.0216 19.5573 20.7671 20.8024C19.5126 22.0476 17.8174 22.7474 16.0499 22.75ZM7.99992 2.75C7.30863 2.74332 6.62294 2.87455 5.98296 3.13603C5.34298 3.3975 4.76157 3.78396 4.27273 4.2728C3.78388 4.76165 3.39742 5.34306 3.13595 5.98304C2.87448 6.62301 2.74324 7.3087 2.74992 8V16.1C2.75646 16.7829 2.89744 17.4578 3.16482 18.0862C3.4322 18.7146 3.82074 19.2842 4.30825 19.7624C4.79577 20.2406 5.37271 20.6181 6.00613 20.8734C6.63955 21.1286 7.31704 21.2566 7.99992 21.25H16.0999C17.4782 21.2474 18.7993 20.6987 19.774 19.724C20.7486 18.7494 21.2973 17.4283 21.2999 16.05V8C21.2973 6.62169 20.7486 5.30058 19.774 4.32596C18.7993 3.35135 17.4782 2.80264 16.0999 2.8L7.99992 2.75ZM13.2299 13.25C13.2299 13.0511 13.1509 12.8603 13.0103 12.7197C12.8696 12.579 12.6788 12.5 12.4799 12.5H5.11992C4.92101 12.5 4.73025 12.579 4.58959 12.7197C4.44894 12.8603 4.36992 13.0511 4.36992 13.25C4.36992 13.4489 4.44894 13.6397 4.58959 13.7803C4.73025 13.921 4.92101 14 5.11992 14H12.4299C12.628 13.9974 12.8173 13.9176 12.9574 13.7775C13.0975 13.6374 13.1773 13.4481 13.1799 13.25H13.2299ZM19.6799 13.25C19.6799 13.0511 19.6009 12.8603 19.4603 12.7197C19.3196 12.579 19.1288 12.5 18.9299 12.5H15.6699C15.471 12.5 15.2802 12.579 15.1396 12.7197C14.9989 12.8603 14.9199 13.0511 14.9199 13.25C14.9199 13.4489 14.9989 13.6397 15.1396 13.7803C15.2802 13.921 15.471 14 15.6699 14H18.8799C19.078 13.9974 19.2673 13.9176 19.4074 13.7775C19.5475 13.6374 19.6273 13.4481 19.6299 13.25H19.6799ZM19.6799 16.76C19.6773 16.5619 19.5975 16.3726 19.4574 16.2325C19.3173 16.0924 19.128 16.0126 18.9299 16.01H11.5699C11.371 16.01 11.1802 16.089 11.0396 16.2297C10.8989 16.3703 10.8199 16.5611 10.8199 16.76C10.8199 16.9589 10.8989 17.1497 11.0396 17.2903C11.1802 17.431 11.371 17.51 11.5699 17.51H18.8799C19.0788 17.51 19.2696 17.431 19.4103 17.2903C19.5509 17.1497 19.6299 16.9589 19.6299 16.76H19.6799ZM9.12992 16.76C9.13154 16.6563 9.11163 16.5534 9.07147 16.4578C9.03131 16.3622 8.97176 16.276 8.89658 16.2046C8.8214 16.1332 8.73223 16.0781 8.63469 16.0429C8.53716 16.0077 8.43339 15.9931 8.32992 16H5.11992C4.92101 16 4.73025 16.079 4.58959 16.2197C4.44894 16.3603 4.36992 16.5511 4.36992 16.75C4.36992 16.9489 4.44894 17.1397 4.58959 17.2803C4.73025 17.421 4.92101 17.5 5.11992 17.5H8.32992C8.42794 17.5013 8.52524 17.4832 8.61618 17.4466C8.70712 17.41 8.78988 17.3557 8.85966 17.2868C8.92944 17.218 8.98484 17.136 9.02265 17.0455C9.06047 16.9551 9.07993 16.858 9.07992 16.76H9.12992Z" fill="black"/>
</svg>
