<svg width="24" height="24" viewBox="0 0 24 24" fill="none" xmlns="http://www.w3.org/2000/svg">
<path d="M12 2C11.8019 2.00259 11.6126 2.08244 11.4725 2.22253C11.3324 2.36263 11.2526 2.55189 11.25 2.75V4C11.25 4.19891 11.329 4.38968 11.4697 4.53033C11.6103 4.67098 11.8011 4.75 12 4.75C12.1989 4.75 12.3897 4.67098 12.5303 4.53033C12.671 4.38968 12.75 4.19891 12.75 4V2.77C12.7513 2.67019 12.733 2.5711 12.696 2.47839C12.659 2.38568 12.6041 2.30115 12.5345 2.22965C12.4648 2.15815 12.3818 2.10106 12.2901 2.06166C12.1984 2.02226 12.0998 2.0013 12 2Z" fill="black"/>
<path d="M18.5203 4.71996C18.3223 4.72427 18.1331 4.80279 17.9903 4.93996L17.1603 5.77996C17.0198 5.92059 16.9409 6.11121 16.9409 6.30996C16.9409 6.50871 17.0198 6.69934 17.1603 6.83996C17.3009 6.98041 17.4915 7.0593 17.6903 7.0593C17.889 7.0593 18.0796 6.98041 18.2203 6.83996L19.0603 5.99996C19.2013 5.85763 19.2805 5.66535 19.2805 5.46496C19.2805 5.26457 19.2013 5.07229 19.0603 4.92996C18.9197 4.78927 18.7291 4.71014 18.5303 4.70996L18.5203 4.71996Z" fill="black"/>
<path d="M5.46995 4.71997C5.27195 4.72428 5.08279 4.8028 4.93995 4.93997C4.80419 5.08304 4.72852 5.27275 4.72852 5.46997C4.72852 5.6672 4.80419 5.8569 4.93995 5.99997L5.77995 6.82997C5.92057 6.97042 6.1112 7.04931 6.30995 7.04931C6.5087 7.04931 6.69932 6.97042 6.83995 6.82997C6.9804 6.68935 7.05929 6.49872 7.05929 6.29997C7.05929 6.10122 6.9804 5.9106 6.83995 5.76997L5.99995 4.93997C5.85459 4.80046 5.66141 4.72176 5.45995 4.71997H5.46995Z" fill="black"/>
<path d="M21.2298 11.25H20.0498C19.8509 11.25 19.6601 11.329 19.5195 11.4697C19.3788 11.6103 19.2998 11.8011 19.2998 12C19.2998 12.1989 19.3788 12.3897 19.5195 12.5303C19.6601 12.671 19.8509 12.75 20.0498 12.75H21.2298C21.4287 12.75 21.6195 12.671 21.7601 12.5303C21.9008 12.3897 21.9798 12.1989 21.9798 12C21.9798 11.8011 21.9008 11.6103 21.7601 11.4697C21.6195 11.329 21.4287 11.25 21.2298 11.25Z" fill="black"/>
<path d="M4.00002 11.25H2.77002C2.57111 11.25 2.38034 11.329 2.23969 11.4697C2.09904 11.6103 2.02002 11.8011 2.02002 12C2.02002 12.1989 2.09904 12.3897 2.23969 12.5303C2.38034 12.671 2.57111 12.75 2.77002 12.75H4.00002C4.19893 12.75 4.3897 12.671 4.53035 12.5303C4.671 12.3897 4.75002 12.1989 4.75002 12C4.75002 11.8011 4.671 11.6103 4.53035 11.4697C4.3897 11.329 4.19893 11.25 4.00002 11.25Z" fill="black"/>
<path d="M17.6903 16.9399C17.5917 16.9395 17.4941 16.9587 17.4031 16.9965C17.3121 17.0343 17.2295 17.0898 17.1603 17.1599C17.0198 17.3006 16.9409 17.4912 16.9409 17.6899C16.9409 17.8887 17.0198 18.0793 17.1603 18.2199L17.9903 19.0499C18.1326 19.191 18.3249 19.2702 18.5253 19.2702C18.7256 19.2702 18.9179 19.191 19.0603 19.0499C19.2007 18.9093 19.2796 18.7187 19.2796 18.5199C19.2796 18.3212 19.2007 18.1306 19.0603 17.9899L18.2203 17.1599C18.151 17.0898 18.0685 17.0343 17.9775 16.9965C17.8864 16.9587 17.7888 16.9395 17.6903 16.9399Z" fill="black"/>
<path d="M6.31004 16.9399C6.2115 16.9395 6.11386 16.9587 6.02285 16.9965C5.93184 17.0343 5.84929 17.0898 5.78004 17.1599L4.94004 17.9999C4.79959 18.1406 4.7207 18.3312 4.7207 18.5299C4.7207 18.7287 4.79959 18.9193 4.94004 19.0599C5.08237 19.201 5.27465 19.2802 5.47504 19.2802C5.67543 19.2802 5.86772 19.201 6.01004 19.0599L6.84004 18.2299C6.98049 18.0893 7.05938 17.8987 7.05938 17.6999C7.05938 17.5012 6.98049 17.3106 6.84004 17.1699C6.7708 17.0998 6.68825 17.0443 6.59724 17.0065C6.50622 16.9687 6.40858 16.9495 6.31004 16.9499V16.9399Z" fill="black"/>
<path d="M12 19.3C11.8011 19.3 11.6103 19.3791 11.4697 19.5197C11.329 19.6604 11.25 19.8511 11.25 20.05V21.23C11.25 21.429 11.329 21.6197 11.4697 21.7604C11.6103 21.901 11.8011 21.98 12 21.98C12.1989 21.98 12.3897 21.901 12.5303 21.7604C12.671 21.6197 12.75 21.429 12.75 21.23V20.05C12.75 19.8511 12.671 19.6604 12.5303 19.5197C12.3897 19.3791 12.1989 19.3 12 19.3Z" fill="black"/>
<path d="M12.0002 7.66992C12.8542 7.66992 13.689 7.92304 14.3992 8.39728C15.1094 8.87153 15.6631 9.54563 15.9904 10.3344C16.3176 11.1232 16.4038 11.9913 16.2379 12.829C16.072 13.6668 15.6616 14.4365 15.0584 15.0411C14.4552 15.6456 13.6864 16.0579 12.8491 16.2257C12.0117 16.3935 11.1434 16.3094 10.3539 15.9839C9.56435 15.6585 8.88897 15.1064 8.41308 14.3973C7.93719 13.6882 7.68215 12.8539 7.68017 11.9999C7.68017 10.8533 8.13499 9.75343 8.94486 8.94168C9.75473 8.12993 10.8535 7.67257 12.0002 7.66992ZM12.0002 6.16992C10.8495 6.16992 9.72467 6.51101 8.76779 7.15008C7.81092 7.78915 7.06495 8.69752 6.62415 9.7604C6.18336 10.8233 6.06752 11.993 6.29128 13.1217C6.51504 14.2504 7.06834 15.2874 7.88129 16.1017C8.69423 16.9161 9.73032 17.4712 10.8586 17.6969C11.9869 17.9226 13.1568 17.8087 14.2205 17.3698C15.2841 16.9308 16.1938 16.1864 16.8345 15.2306C17.4752 14.2748 17.8182 13.1506 17.8202 11.9999C17.8202 10.4554 17.2073 8.97407 16.1161 7.88102C15.025 6.78797 13.5446 6.17257 12.0002 6.16992Z" fill="black"/>
</svg>
