<svg width="24" height="24" viewBox="0 0 24 24" fill="none" xmlns="http://www.w3.org/2000/svg">
<path d="M12 22.7999C11.5961 22.7945 11.1975 22.7075 10.8281 22.5443C10.4586 22.381 10.126 22.1449 9.85 21.85L8.14 20C8.00326 19.8526 7.83775 19.7349 7.65371 19.654C7.46967 19.5732 7.27101 19.531 7.07 19.53H5.92C4.94747 19.5273 4.01552 19.1398 3.32783 18.4521C2.64015 17.7644 2.25264 16.8325 2.25 15.86V4.85995C2.25527 3.88915 2.64394 2.95977 3.33135 2.27424C4.01875 1.58871 4.94919 1.20257 5.92 1.19995H18.08C19.0525 1.20259 19.9845 1.5901 20.6722 2.27778C21.3599 2.96547 21.7474 3.89742 21.75 4.86995V15.87C21.7474 16.8425 21.3599 17.7744 20.6722 18.4621C19.9845 19.1498 19.0525 19.5373 18.08 19.54H17C16.6197 19.558 16.2612 19.7229 16 20L14.19 21.8899C13.906 22.1825 13.5653 22.4141 13.1887 22.5705C12.8122 22.727 12.4077 22.8051 12 22.7999ZM5.92 2.69995C5.34448 2.69995 4.79253 2.92858 4.38558 3.33553C3.97862 3.74248 3.75 4.29443 3.75 4.86995V15.87C3.76048 16.4385 3.99373 16.9802 4.39955 17.3786C4.80537 17.7769 5.35134 18 5.92 18H7.07C7.48091 18.0091 7.88556 18.1026 8.25885 18.2746C8.63214 18.4466 8.96609 18.6935 9.24 19L10.94 20.84C11.0757 20.9852 11.2399 21.101 11.4222 21.1801C11.6045 21.2592 11.8012 21.3 12 21.2999C12.4021 21.2833 12.7851 21.1238 13.08 20.85L14.89 19C15.157 18.7007 15.4813 18.458 15.8437 18.2862C16.2061 18.1145 16.5993 18.0171 17 18H18C18.5755 18 19.1275 17.7713 19.5344 17.3644C19.9414 16.9574 20.17 16.4055 20.17 15.83V4.82995C20.1601 4.27497 19.938 3.74487 19.5492 3.34868C19.1605 2.95249 18.6347 2.72033 18.08 2.69995H5.92ZM10.33 14.32H7.56C7.30185 14.3196 7.0493 14.2447 6.8327 14.1043C6.6161 13.9638 6.44468 13.7638 6.33906 13.5282C6.23343 13.2927 6.19809 13.0316 6.23728 12.7765C6.27648 12.5213 6.38854 12.2829 6.56 12.09C6.95163 11.6835 7.38389 11.3183 7.85 11C8.62 10.4 9.58 9.64995 9.58 8.99995C9.58586 8.88253 9.56759 8.76516 9.52631 8.65508C9.48503 8.54501 9.42162 8.44456 9.34 8.35995C9.25218 8.27643 9.14856 8.21129 9.03522 8.16836C8.92189 8.12543 8.80112 8.10557 8.68 8.10995C8.44131 8.10995 8.21239 8.20477 8.0436 8.37356C7.87482 8.54234 7.78 8.77126 7.78 9.00995C7.78 9.20886 7.70098 9.39963 7.56033 9.54028C7.41968 9.68093 7.22891 9.75995 7.03 9.75995C6.83109 9.75995 6.64032 9.68093 6.49967 9.54028C6.35902 9.39963 6.28 9.20886 6.28 9.00995C6.28514 8.53377 6.43007 8.0696 6.6968 7.6751C6.96352 7.2806 7.34028 6.97317 7.78026 6.791C8.22025 6.60883 8.70406 6.55995 9.17159 6.65043C9.63912 6.74091 10.0698 6.96678 10.41 7.29995C10.846 7.75787 11.0863 8.3677 11.08 8.99995C11.08 10.36 9.85 11.31 8.77 12.15C8.46 12.39 8.16 12.62 7.94 12.83H10.33C10.5289 12.83 10.7197 12.909 10.8603 13.0496C11.001 13.1903 11.08 13.381 11.08 13.58C11.08 13.7789 11.001 13.9696 10.8603 14.1103C10.7197 14.2509 10.5289 14.33 10.33 14.33V14.32ZM17.1 11.41H16.7V7.90995C16.7045 7.65811 16.627 7.41163 16.479 7.20777C16.3311 7.00391 16.1208 6.85374 15.88 6.77995C15.6397 6.70598 15.382 6.71071 15.1446 6.79346C14.9071 6.8762 14.7023 7.03264 14.56 7.23995L12 11.07C11.8768 11.2451 11.805 11.4512 11.7927 11.665C11.7803 11.8788 11.8279 12.0917 11.93 12.28C12.0249 12.4649 12.1678 12.621 12.3437 12.7319C12.5197 12.8427 12.7222 12.9042 12.93 12.91H15.2V13.57C15.1987 13.668 15.2168 13.7653 15.2534 13.8562C15.29 13.9471 15.3443 14.0299 15.4132 14.0997C15.482 14.1695 15.564 14.2249 15.6545 14.2627C15.7449 14.3005 15.842 14.32 15.94 14.32C16.1372 14.32 16.3265 14.2423 16.4668 14.1038C16.6072 13.9653 16.6874 13.7771 16.69 13.58V12.91H17.1C17.2989 12.91 17.4897 12.8309 17.6303 12.6903C17.771 12.5496 17.85 12.3589 17.85 12.16C17.85 11.961 17.771 11.7703 17.6303 11.6296C17.4897 11.489 17.2989 11.41 17.1 11.41ZM15.2 11.41H13.54L15.22 8.99995L15.2 11.41Z" fill="black"/>
</svg>
