<svg width="24" height="24" viewBox="0 0 24 24" fill="none" xmlns="http://www.w3.org/2000/svg">
<path d="M6.05998 11H17.82C19.059 10.9435 20.2286 10.4115 21.0855 9.51474C21.9423 8.61794 22.4205 7.42534 22.4205 6.185C22.4205 4.94465 21.9423 3.75205 21.0855 2.85525C20.2286 1.95844 19.059 1.42648 17.82 1.37H6.05998C4.82093 1.42648 3.65134 1.95844 2.79448 2.85525C1.93763 3.75205 1.45947 4.94465 1.45947 6.185C1.45947 7.42534 1.93763 8.61794 2.79448 9.51474C3.65134 10.4115 4.82093 10.9435 6.05998 11ZM6.05998 2.85H17.82C18.2733 2.82516 18.7269 2.89301 19.1531 3.04939C19.5794 3.20577 19.9692 3.4474 20.2989 3.75953C20.6286 4.07165 20.8912 4.44771 21.0707 4.86474C21.2501 5.28176 21.3427 5.731 21.3427 6.185C21.3427 6.63899 21.2501 7.08823 21.0707 7.50525C20.8912 7.92228 20.6286 8.29834 20.2989 8.61046C19.9692 8.92259 19.5794 9.16422 19.1531 9.3206C18.7269 9.47698 18.2733 9.54483 17.82 9.52H6.05998C5.20707 9.47327 4.40446 9.10154 3.81721 8.48123C3.22995 7.86093 2.90267 7.03919 2.90267 6.185C2.90267 5.3308 3.22995 4.50906 3.81721 3.88876C4.40446 3.26845 5.20707 2.89672 6.05998 2.85ZM15.64 6.19C15.6387 5.94621 15.6855 5.70457 15.7779 5.47896C15.8703 5.25335 16.0064 5.04823 16.1783 4.87538C16.3502 4.70253 16.5546 4.56536 16.7797 4.47177C17.0048 4.37817 17.2462 4.32999 17.49 4.33C17.7342 4.33 17.9761 4.37811 18.2018 4.47158C18.4274 4.56505 18.6325 4.70206 18.8052 4.87478C18.9779 5.04749 19.1149 5.25254 19.2084 5.4782C19.3019 5.70387 19.35 5.94574 19.35 6.19C19.3156 6.65844 19.1052 7.09652 18.7611 7.41626C18.417 7.73599 17.9647 7.9137 17.495 7.9137C17.0253 7.9137 16.573 7.73599 16.2289 7.41626C15.8848 7.09652 15.6744 6.65844 15.64 6.19ZM8.27998 17.56C8.29033 17.6864 8.29033 17.8135 8.27998 17.94C8.24557 18.4084 8.03519 18.8465 7.6911 19.1663C7.34701 19.486 6.89469 19.6637 6.42498 19.6637C5.95528 19.6637 5.50296 19.486 5.15887 19.1663C4.81478 18.8465 4.6044 18.4084 4.56998 17.94C4.5547 17.8138 4.5547 17.6862 4.56998 17.56C4.65294 17.1396 4.87925 16.7611 5.21027 16.489C5.54129 16.2169 5.95649 16.0682 6.38498 16.0682C6.81348 16.0682 7.22868 16.2169 7.5597 16.489C7.89072 16.7611 8.11703 17.1396 8.19998 17.56H8.27998ZM17.82 13.12H6.05998C4.82093 13.1765 3.65134 13.7084 2.79448 14.6052C1.93763 15.502 1.45947 16.6946 1.45947 17.935C1.45947 19.1753 1.93763 20.3679 2.79448 21.2647C3.65134 22.1615 4.82093 22.6935 6.05998 22.75H17.82C19.059 22.6935 20.2286 22.1615 21.0855 21.2647C21.9423 20.3679 22.4205 19.1753 22.4205 17.935C22.4205 16.6946 21.9423 15.502 21.0855 14.6052C20.2286 13.7084 19.059 13.1765 17.82 13.12ZM17.82 21.27H6.05998C5.20707 21.2233 4.40446 20.8515 3.81721 20.2312C3.22995 19.6109 2.90267 18.7892 2.90267 17.935C2.90267 17.0808 3.22995 16.2591 3.81721 15.6388C4.40446 15.0184 5.20707 14.6467 6.05998 14.6H17.82C18.2733 14.5752 18.7269 14.643 19.1531 14.7994C19.5794 14.9558 19.9692 15.1974 20.2989 15.5095C20.6286 15.8217 20.8912 16.1977 21.0707 16.6147C21.2501 17.0318 21.3427 17.481 21.3427 17.935C21.3427 18.389 21.2501 18.8382 21.0707 19.2553C20.8912 19.6723 20.6286 20.0483 20.2989 20.3605C19.9692 20.6726 19.5794 20.9142 19.1531 21.0706C18.7269 21.227 18.2733 21.2948 17.82 21.27Z" fill="black"/>
</svg>
