<svg width="24" height="24" viewBox="0 0 24 24" fill="none" xmlns="http://www.w3.org/2000/svg">
<path d="M21.26 7.78995L20.15 6.65995L18.66 5.16995L16.23 2.71995C16.0894 2.5795 15.8988 2.50061 15.7 2.50061C15.5013 2.50061 15.3106 2.5795 15.17 2.71995C15.0296 2.86058 14.9507 3.0512 14.9507 3.24995C14.9507 3.4487 15.0296 3.63933 15.17 3.77995L15.78 4.38995L14.09 6.07995L12.54 4.52995C12.3819 4.35064 12.1888 4.20562 11.9724 4.10385C11.7561 4.00207 11.5213 3.94569 11.2823 3.93819C11.0434 3.93069 10.8054 3.97222 10.5832 4.06023C10.3609 4.14824 10.159 4.28085 9.98997 4.44989C9.82093 4.61893 9.68831 4.82082 9.6003 5.04309C9.5123 5.26536 9.47076 5.5033 9.47826 5.74224C9.48577 5.98118 9.54214 6.21606 9.64392 6.43237C9.7457 6.64868 9.89071 6.84185 10.07 6.99995L10.23 7.15995L5.17002 12.2299C4.8832 12.5136 4.68153 12.8719 4.58786 13.2642C4.49419 13.6566 4.51226 14.0673 4.64002 14.45L5.25002 16.28L1.76002 19.76C1.43271 20.0896 1.24902 20.5354 1.24902 21C1.24902 21.4645 1.43271 21.9103 1.76002 22.24C2.08971 22.5673 2.53545 22.7509 3.00002 22.7509C3.4646 22.7509 3.91033 22.5673 4.24002 22.24L7.72002 18.75L9.55002 19.36C9.93264 19.4877 10.3434 19.5058 10.7357 19.4121C11.1281 19.3184 11.4864 19.1168 11.77 18.83L16.83 13.77L16.99 13.93C17.3246 14.2479 17.7685 14.4252 18.23 14.4252C18.6916 14.4252 19.1355 14.2479 19.47 13.93C19.7967 13.602 19.9802 13.1579 19.9802 12.695C19.9802 12.232 19.7967 11.7879 19.47 11.46L17.92 9.90995L19.59 8.23995L20.2 8.83995C20.2688 8.91142 20.351 8.96855 20.442 9.00803C20.533 9.04751 20.6309 9.06856 20.73 9.06995C20.928 9.06564 21.1172 8.98712 21.26 8.84995C21.4005 8.70933 21.4794 8.5187 21.4794 8.31995C21.4794 8.1212 21.4005 7.93058 21.26 7.78995ZM18.41 12.87C18.3914 12.901 18.365 12.9267 18.3334 12.9446C18.3019 12.9624 18.2663 12.9718 18.23 12.9718C18.1938 12.9718 18.1582 12.9624 18.1266 12.9446C18.0951 12.9267 18.0687 12.901 18.05 12.87L17.36 12.18C17.2194 12.0395 17.0288 11.9606 16.83 11.9606C16.6313 11.9606 16.4406 12.0395 16.3 12.18L10.7 17.77C10.613 17.8576 10.5031 17.919 10.3829 17.9473C10.2627 17.9756 10.137 17.9696 10.02 17.93L7.76002 17.18C7.62765 17.1353 7.48542 17.1284 7.34937 17.1602C7.21333 17.192 7.08887 17.2612 6.99002 17.36L3.18002 21.18C3.15973 21.2088 3.13277 21.2324 3.10144 21.2487C3.07011 21.265 3.03533 21.2735 3.00002 21.2735C2.96472 21.2735 2.92993 21.265 2.8986 21.2487C2.86727 21.2324 2.84032 21.2088 2.82002 21.18C2.77575 21.1304 2.75127 21.0664 2.75127 21C2.75127 20.9335 2.77575 20.8695 2.82002 20.82L6.64002 17C6.73877 16.9011 6.80794 16.7766 6.83975 16.6406C6.87155 16.5046 6.86472 16.3623 6.82002 16.2299L6.07002 14C6.02836 13.8816 6.02128 13.7539 6.04962 13.6317C6.07796 13.5095 6.14054 13.3979 6.23002 13.31L11.82 7.69995C11.8908 7.631 11.947 7.54859 11.9854 7.45756C12.0238 7.36654 12.0436 7.26874 12.0436 7.16995C12.0436 7.07116 12.0238 6.97336 11.9854 6.88234C11.947 6.79131 11.8908 6.7089 11.82 6.63995L11.13 5.99995C11.0857 5.95045 11.0613 5.88636 11.0613 5.81995C11.0613 5.75354 11.0857 5.68945 11.13 5.63995C11.1535 5.61645 11.1817 5.5981 11.2127 5.58605C11.2437 5.574 11.2768 5.56851 11.31 5.56995C11.3417 5.56867 11.3733 5.57426 11.4027 5.58634C11.432 5.59842 11.4584 5.61671 11.48 5.63995L18.41 12.57C18.441 12.6138 18.4577 12.6662 18.4577 12.72C18.4577 12.7737 18.441 12.8261 18.41 12.87ZM16.86 8.86995L15.15 7.13995L16.83 5.45995L17.59 6.21995L18.54 7.21995L16.86 8.86995Z" fill="black"/>
</svg>
