<svg width="24" height="24" viewBox="0 0 24 24" fill="none" xmlns="http://www.w3.org/2000/svg">
<path d="M12.13 16.44H7.39004C7.18317 16.44 6.98478 16.3578 6.8385 16.2115C6.69222 16.0653 6.61004 15.8669 6.61004 15.66C6.61004 15.4531 6.69222 15.2547 6.8385 15.1084C6.98478 14.9622 7.18317 14.88 7.39004 14.88H12.13C12.3369 14.88 12.5353 14.9622 12.6816 15.1084C12.8279 15.2547 12.91 15.4531 12.91 15.66C12.91 15.8669 12.8279 16.0653 12.6816 16.2115C12.5353 16.3578 12.3369 16.44 12.13 16.44ZM17.06 12C17.06 11.8976 17.0399 11.7961 17.0007 11.7015C16.9615 11.6069 16.904 11.5209 16.8316 11.4484C16.7592 11.376 16.6732 11.3186 16.5785 11.2794C16.4839 11.2402 16.3825 11.22 16.28 11.22H7.39004C7.18317 11.22 6.98478 11.3022 6.8385 11.4484C6.69222 11.5947 6.61004 11.7931 6.61004 12C6.61004 12.2069 6.69222 12.4053 6.8385 12.5515C6.98478 12.6978 7.18317 12.78 7.39004 12.78H16.28C16.4869 12.78 16.6853 12.6978 16.8316 12.5515C16.9779 12.4053 17.06 12.2069 17.06 12ZM22.28 16.49V9.20999C22.277 8.10553 21.9845 7.02115 21.4318 6.06491C20.8792 5.10867 20.0855 4.31397 19.13 3.75999C19.0414 3.70812 18.9434 3.67421 18.8417 3.66021C18.7399 3.64621 18.6364 3.65239 18.5371 3.67839C18.4377 3.70439 18.3444 3.7497 18.2626 3.81175C18.1807 3.87379 18.1119 3.95135 18.06 4.03999C18.0082 4.12863 17.9743 4.22662 17.9603 4.32837C17.9463 4.43011 17.9524 4.53362 17.9784 4.63298C18.0044 4.73234 18.0498 4.8256 18.1118 4.90745C18.1738 4.98929 18.2514 5.05812 18.34 5.10999C19.0606 5.52481 19.659 6.12223 20.0751 6.84203C20.4912 7.56183 20.7102 8.37858 20.71 9.20999V16.53C20.7101 17.7819 20.2148 18.983 19.3323 19.8711C18.4499 20.7592 17.252 21.2621 16 21.27H8.28004C7.02465 21.2673 5.82158 20.7668 4.93482 19.8781C4.04806 18.9895 3.55004 17.7854 3.55004 16.53V9.20999C3.55219 8.37652 3.77315 7.55822 4.19082 6.83695C4.60849 6.11568 5.20823 5.51672 5.93004 5.09999C6.02298 5.0484 6.1044 4.97837 6.16929 4.89418C6.23418 4.80999 6.28118 4.71342 6.3074 4.61041C6.33362 4.5074 6.33851 4.40011 6.32177 4.29514C6.30503 4.19017 6.26701 4.08973 6.21004 3.99999C6.15933 3.91149 6.09154 3.83394 6.01061 3.77185C5.92967 3.70977 5.83721 3.66438 5.73859 3.63833C5.63997 3.61228 5.53716 3.60609 5.43612 3.6201C5.33509 3.63412 5.23784 3.66807 5.15004 3.71999C4.18868 4.27737 3.39128 5.07837 2.83824 6.04224C2.28521 7.0061 1.99609 8.09874 2.00004 9.20999V16.53C2.00268 18.2 2.66728 19.8009 3.84819 20.9818C5.02909 22.1627 6.62999 22.8273 8.30004 22.83H16C17.6666 22.8221 19.2624 22.1551 20.439 20.9748C21.6156 19.7945 22.2774 18.1966 22.28 16.53V16.49ZM17 3.99999V2.99999C17.0014 2.76934 16.9571 2.5407 16.8697 2.32722C16.7824 2.11375 16.6537 1.91965 16.491 1.75608C16.3284 1.59252 16.135 1.46272 15.9221 1.37415C15.7091 1.28558 15.4807 1.23999 15.25 1.23999H9.52004C9.05326 1.23999 8.6056 1.42542 8.27553 1.75548C7.94547 2.08555 7.76004 2.53321 7.76004 2.99999V3.99999C7.75872 4.23196 7.80327 4.4619 7.89113 4.67658C7.97899 4.89127 8.10842 5.08648 8.27198 5.25097C8.43555 5.41546 8.63001 5.546 8.8442 5.63507C9.05839 5.72414 9.28807 5.76999 9.52004 5.76999H15.21C15.4449 5.77538 15.6784 5.73342 15.8967 5.64663C16.115 5.55984 16.3136 5.42999 16.4806 5.26482C16.6477 5.09965 16.7797 4.90254 16.869 4.68523C16.9582 4.46793 17.0028 4.23489 17 3.99999ZM15.25 2.79999C15.3013 2.80256 15.3497 2.82476 15.385 2.86199C15.4204 2.89922 15.4401 2.94863 15.44 2.99999V3.99999C15.4401 4.05135 15.4204 4.10076 15.385 4.13799C15.3497 4.17522 15.3013 4.19742 15.25 4.19999H9.52004C9.467 4.19999 9.41613 4.17892 9.37862 4.14141C9.34111 4.1039 9.32004 4.05303 9.32004 3.99999V2.99999C9.32004 2.94695 9.34111 2.89608 9.37862 2.85857C9.41613 2.82106 9.467 2.79999 9.52004 2.79999H15.25Z" fill="black"/>
</svg>
