<svg width="24" height="24" viewBox="0 0 24 24" fill="none" xmlns="http://www.w3.org/2000/svg">
<path d="M15.7299 22.72H8.2699C6.62464 22.7174 5.04767 22.0619 3.88523 20.8976C2.72279 19.7333 2.0699 18.1553 2.0699 16.51V9.11002C2.06364 7.86218 2.43589 6.64178 3.13752 5.60986C3.83915 4.57795 4.83718 3.78303 5.9999 3.33002C6.09365 3.29125 6.19421 3.27164 6.29566 3.27234C6.3971 3.27305 6.49738 3.29406 6.59058 3.33414C6.68378 3.37421 6.76801 3.43254 6.83831 3.50568C6.90861 3.57883 6.96355 3.66531 6.9999 3.76002C7.04037 3.85297 7.06157 3.95316 7.06223 4.05453C7.06289 4.15591 7.04299 4.25636 7.00373 4.34983C6.96448 4.4433 6.90668 4.52784 6.83383 4.59834C6.76099 4.66884 6.6746 4.72384 6.5799 4.76002C5.69427 5.09914 4.93287 5.69985 4.39697 6.48226C3.86108 7.26467 3.57609 8.19169 3.5799 9.14002V16.54C3.58253 17.7867 4.07824 18.9816 4.9588 19.8641C5.83937 20.7465 7.03328 21.2447 8.2799 21.25H15.7399C16.9873 21.2474 18.1828 20.75 19.0639 19.867C19.945 18.984 20.4399 17.7875 20.4399 16.54V9.12002C20.4444 8.17031 20.1597 7.24171 19.6239 6.45759C19.0881 5.67347 18.3263 5.07094 17.4399 4.73002C17.3444 4.69632 17.2568 4.64365 17.1822 4.57516C17.1076 4.50667 17.0477 4.42379 17.006 4.33151C16.9643 4.23924 16.9417 4.13948 16.9397 4.03825C16.9376 3.93702 16.956 3.83642 16.9938 3.7425C17.0317 3.64858 17.0881 3.5633 17.1598 3.49179C17.2315 3.42028 17.3169 3.36403 17.4109 3.32642C17.5049 3.28881 17.6056 3.27063 17.7068 3.27297C17.808 3.2753 17.9077 3.29811 17.9999 3.34002C19.1653 3.79025 20.1662 4.58419 20.8699 5.61651C21.5736 6.64882 21.9468 7.8707 21.9399 9.12002V16.51C21.9412 17.3251 21.7818 18.1324 21.4708 18.8857C21.1598 19.6391 20.7034 20.3238 20.1275 20.9005C19.5517 21.4773 18.8677 21.9349 18.1149 22.2471C17.362 22.5593 16.5549 22.72 15.7399 22.72H15.7299ZM16.5699 4.00002V3.00002C16.5673 2.542 16.3842 2.1035 16.0603 1.77963C15.7364 1.45575 15.2979 1.27264 14.8399 1.27002H9.1599C8.70189 1.27264 8.26338 1.45575 7.93951 1.77963C7.61564 2.1035 7.43253 2.542 7.4299 3.00002V4.00002C7.42989 4.45977 7.61184 4.90084 7.936 5.22686C8.26015 5.55289 8.70016 5.73738 9.1599 5.74002H14.8399C15.2996 5.73738 15.7397 5.55289 16.0638 5.22686C16.388 4.90084 16.5699 4.45977 16.5699 4.00002ZM14.8399 2.78002C14.9009 2.78002 14.9594 2.80425 15.0025 2.84738C15.0457 2.89052 15.0699 2.94902 15.0699 3.01002V4.00002C15.0699 4.06102 15.0457 4.11952 15.0025 4.16265C14.9594 4.20579 14.9009 4.23002 14.8399 4.23002H9.1599C9.0989 4.23002 9.0404 4.20579 8.99727 4.16265C8.95413 4.11952 8.9299 4.06102 8.9299 4.00002V3.00002C8.9299 2.93902 8.95413 2.88052 8.99727 2.83738C9.0404 2.79425 9.0989 2.77002 9.1599 2.77002L14.8399 2.78002ZM14.6899 17.1C14.8054 17.1004 14.9194 17.0745 15.0234 17.0243C15.1273 16.974 15.2185 16.9008 15.2899 16.81C15.3953 16.6558 15.4393 16.4679 15.4134 16.2829C15.3875 16.098 15.2935 15.9294 15.1499 15.81L10.9999 12.54L13.2299 12C13.408 11.9581 13.5646 11.8526 13.6703 11.7033C13.7761 11.554 13.8236 11.3712 13.8039 11.1893C13.7842 11.0074 13.6988 10.839 13.5636 10.7157C13.4284 10.5925 13.2528 10.5229 13.0699 10.52C13.0103 10.5101 12.9495 10.5101 12.8899 10.52L9.1399 11.44H8.9899C8.86437 11.5041 8.75882 11.6014 8.68476 11.7213C8.61071 11.8412 8.57098 11.9791 8.5699 12.12V16.12C8.56697 16.2184 8.58452 16.3163 8.62144 16.4075C8.65836 16.4988 8.71385 16.5813 8.78437 16.6499C8.85489 16.7186 8.93892 16.7718 9.03111 16.8063C9.1233 16.8407 9.22165 16.8556 9.3199 16.85C9.41779 16.8541 9.51549 16.8382 9.60702 16.8032C9.69854 16.7682 9.78196 16.7149 9.85217 16.6466C9.92238 16.5783 9.97791 16.4963 10.0153 16.4058C10.0528 16.3152 10.0713 16.218 10.0699 16.12V13.71L14.2499 16.94C14.3761 17.0452 14.5356 17.102 14.6999 17.1H14.6899Z" fill="black"/>
</svg>
