<svg width="24" height="24" viewBox="0 0 24 24" fill="none" xmlns="http://www.w3.org/2000/svg">
<path d="M15.8301 22.75H8.17014C6.50539 22.7474 4.90958 22.0849 3.73243 20.9077C2.55527 19.7306 1.89278 18.1347 1.89014 16.47V9.18C1.89294 8.07564 2.18645 6.99149 2.74115 6.03655C3.29586 5.08161 4.09222 4.28954 5.05014 3.74C5.13675 3.68724 5.23292 3.65211 5.33315 3.63662C5.43337 3.62114 5.53566 3.6256 5.63416 3.64976C5.73265 3.67392 5.8254 3.7173 5.90708 3.7774C5.98877 3.8375 6.05777 3.91315 6.11014 4C6.21194 4.18071 6.23859 4.39421 6.18433 4.59441C6.13008 4.7946 5.99926 4.96543 5.82014 5.07C5.09883 5.48645 4.49998 6.08561 4.08392 6.80714C3.66785 7.52867 3.44925 8.3471 3.45014 9.18V16.47C3.45014 17.7218 3.94742 18.9224 4.83259 19.8075C5.71776 20.6927 6.91831 21.19 8.17014 21.19H15.8301C16.45 21.19 17.0637 21.0679 17.6364 20.8307C18.2091 20.5935 18.7294 20.2458 19.1677 19.8075C19.606 19.3693 19.9536 18.8489 20.1908 18.2763C20.4281 17.7036 20.5501 17.0898 20.5501 16.47V9.18C20.5495 8.35127 20.3312 7.53724 19.917 6.81943C19.5028 6.10163 18.9073 5.50524 18.1901 5.09C18.0124 4.98259 17.8847 4.80898 17.835 4.60738C17.7853 4.40578 17.8177 4.19269 17.9251 4.015C18.0325 3.8373 18.2062 3.70956 18.4078 3.65986C18.6094 3.61016 18.8224 3.64259 19.0001 3.75C19.9515 4.30276 20.7418 5.09469 21.2926 6.0472C21.8434 6.99972 22.1356 8.0797 22.1401 9.18V16.47C22.1388 17.2969 21.9745 18.1153 21.6566 18.8786C21.3386 19.6419 20.8733 20.335 20.2872 20.9183C19.7012 21.5016 19.0058 21.9636 18.241 22.2779C17.4763 22.5922 16.657 22.7526 15.8301 22.75ZM16.8101 4V3C16.8115 2.77066 16.7674 2.54332 16.6806 2.33106C16.5937 2.1188 16.4658 1.9258 16.3041 1.76316C16.1423 1.60053 15.9501 1.47147 15.7383 1.3834C15.5266 1.29533 15.2995 1.25 15.0701 1.25H9.40014C8.93601 1.25 8.49089 1.43437 8.1627 1.76256C7.83451 2.09075 7.65014 2.53587 7.65014 3V4C7.65014 4.46413 7.83451 4.90925 8.1627 5.23744C8.49089 5.56563 8.93601 5.75 9.40014 5.75H15.0701C15.2995 5.75 15.5266 5.70467 15.7383 5.6166C15.9501 5.52853 16.1423 5.39947 16.3041 5.23684C16.4658 5.0742 16.5937 4.8812 16.6806 4.66894C16.7674 4.45668 16.8115 4.22934 16.8101 4ZM15.0701 2.81C15.1205 2.81 15.1689 2.83002 15.2045 2.86565C15.2401 2.90128 15.2601 2.94961 15.2601 3V4C15.2602 4.05136 15.2405 4.10077 15.2051 4.138C15.1698 4.17523 15.1214 4.19743 15.0701 4.2H9.40014C9.34709 4.2 9.29622 4.17893 9.25872 4.14142C9.22121 4.10391 9.20014 4.05304 9.20014 4V3C9.2001 2.97418 9.20533 2.94863 9.21549 2.9249C9.22566 2.90118 9.24056 2.87977 9.25927 2.86199C9.27799 2.84421 9.30013 2.83043 9.32435 2.82149C9.34857 2.81255 9.37436 2.80864 9.40014 2.81H15.0701Z" fill="black"/>
</svg>
