<svg width="24" height="24" viewBox="0 0 24 24" fill="none" xmlns="http://www.w3.org/2000/svg">
<path d="M12.3001 12.78H7.57014C7.36327 12.78 7.16487 12.6978 7.0186 12.5515C6.87232 12.4053 6.79014 12.2069 6.79014 12C6.79014 11.7931 6.87232 11.5947 7.0186 11.4485C7.16487 11.3022 7.36327 11.22 7.57014 11.22H12.3001C12.507 11.22 12.7054 11.3022 12.8517 11.4485C12.998 11.5947 13.0801 11.7931 13.0801 12C13.0801 12.2069 12.998 12.4053 12.8517 12.5515C12.7054 12.6978 12.507 12.78 12.3001 12.78ZM17.2101 15.61C17.2101 15.4031 17.128 15.2047 16.9817 15.0585C16.8354 14.9122 16.637 14.83 16.4301 14.83H7.57014C7.36327 14.83 7.16487 14.9122 7.0186 15.0585C6.87232 15.2047 6.79014 15.4031 6.79014 15.61C6.79013 15.712 6.81037 15.8129 6.84969 15.907C6.88901 16.0011 6.94663 16.0864 7.01919 16.158C7.09175 16.2297 7.17782 16.2862 7.2724 16.3243C7.36698 16.3624 7.46818 16.3813 7.57014 16.38H16.4301C16.5321 16.3813 16.6333 16.3624 16.7279 16.3243C16.8225 16.2862 16.9085 16.2297 16.9811 16.158C17.0536 16.0864 17.1113 16.0011 17.1506 15.907C17.1899 15.8129 17.2101 15.712 17.2101 15.61ZM22.1101 16.48V9.18C22.1087 8.08262 21.8211 7.00459 21.2757 6.05233C20.7303 5.10007 19.9459 4.30652 19.0001 3.75C18.912 3.6847 18.8111 3.63872 18.704 3.61507C18.5969 3.59142 18.486 3.59063 18.3785 3.61274C18.2711 3.63485 18.1695 3.67938 18.0805 3.74341C17.9914 3.80744 17.9169 3.88953 17.8617 3.98433C17.8065 4.07913 17.7719 4.1845 17.7602 4.29356C17.7485 4.40263 17.76 4.51293 17.7938 4.61727C17.8276 4.72162 17.8831 4.81765 17.9566 4.89911C18.03 4.98056 18.1198 5.04561 18.2201 5.09C18.9373 5.50524 19.5328 6.10163 19.947 6.81943C20.3612 7.53724 20.5795 8.35127 20.5801 9.18V16.48C20.5775 17.7301 20.079 18.9281 19.1942 19.8111C18.3093 20.6941 17.1102 21.19 15.8601 21.19H8.17014C6.92005 21.19 5.72101 20.6941 4.83612 19.8111C3.95124 18.9281 3.45279 17.7301 3.45014 16.48V9.18C3.45276 8.35049 3.67302 7.5362 4.08891 6.81848C4.5048 6.10076 5.10176 5.50475 5.82014 5.09C5.9115 5.0382 5.99162 4.96871 6.0558 4.88559C6.11999 4.80246 6.16696 4.70737 6.19396 4.60588C6.22096 4.50439 6.22746 4.39853 6.21307 4.2945C6.19867 4.19047 6.16368 4.09035 6.11014 4C6.05943 3.9115 5.99164 3.83395 5.9107 3.77186C5.82977 3.70978 5.73731 3.66439 5.63869 3.63834C5.54007 3.61229 5.43725 3.6061 5.33622 3.62011C5.23518 3.63413 5.13794 3.66808 5.05014 3.72C4.08928 4.27123 3.29103 5.06645 2.73615 6.0252C2.18127 6.98396 1.88942 8.07225 1.89014 9.18V16.48C1.89542 18.143 2.55908 19.7363 3.73595 20.9113C4.91282 22.0863 6.50712 22.7474 8.17014 22.75H15.8301C17.4932 22.7474 19.0875 22.0863 20.2643 20.9113C21.4412 19.7363 22.1049 18.143 22.1101 16.48ZM16.8101 4V3C16.8115 2.77066 16.7674 2.54332 16.6806 2.33106C16.5937 2.1188 16.4658 1.9258 16.3041 1.76316C16.1423 1.60053 15.9501 1.47147 15.7383 1.3834C15.5266 1.29533 15.2995 1.25 15.0701 1.25H9.40014C8.93601 1.25 8.49089 1.43437 8.1627 1.76256C7.83451 2.09075 7.65014 2.53587 7.65014 3V4C7.65014 4.46413 7.83451 4.90925 8.1627 5.23744C8.49089 5.56563 8.93601 5.75 9.40014 5.75H15.0701C15.2995 5.75 15.5266 5.70467 15.7383 5.6166C15.9501 5.52853 16.1423 5.39947 16.3041 5.23684C16.4658 5.0742 16.5937 4.8812 16.6806 4.66894C16.7674 4.45668 16.8115 4.22934 16.8101 4ZM15.0701 2.81C15.1205 2.81 15.1689 2.83002 15.2045 2.86565C15.2401 2.90128 15.2601 2.94961 15.2601 3V4C15.2602 4.05136 15.2405 4.10077 15.2051 4.138C15.1698 4.17523 15.1214 4.19743 15.0701 4.2H9.40014C9.34709 4.2 9.29622 4.17893 9.25872 4.14142C9.22121 4.10391 9.20014 4.05304 9.20014 4V3C9.2001 2.97418 9.20533 2.94863 9.2155 2.9249C9.22566 2.90118 9.24056 2.87977 9.25928 2.86199C9.27799 2.84421 9.30014 2.83043 9.32435 2.82149C9.34857 2.81255 9.37436 2.80864 9.40014 2.81H15.0701Z" fill="black"/>
</svg>
