<svg width="24" height="24" viewBox="0 0 24 24" fill="none" xmlns="http://www.w3.org/2000/svg">
<path d="M16.92 22.75H7.08C6.06503 22.7474 5.09239 22.343 4.3747 21.6253C3.657 20.9076 3.25264 19.935 3.25 18.92V5.08C3.25264 4.06503 3.657 3.09239 4.3747 2.3747C5.09239 1.657 6.06503 1.25264 7.08 1.25H16.92C17.935 1.25264 18.9076 1.657 19.6253 2.3747C20.343 3.09239 20.7474 4.06503 20.75 5.08V18.92C20.7474 19.935 20.343 20.9076 19.6253 21.6253C18.9076 22.343 17.935 22.7474 16.92 22.75ZM7.08 2.75C6.46286 2.75263 5.87174 2.99896 5.43535 3.43535C4.99896 3.87174 4.75263 4.46286 4.75 5.08V18.92C4.75263 19.5371 4.99896 20.1283 5.43535 20.5647C5.87174 21.001 6.46286 21.2474 7.08 21.25H16.92C17.5371 21.2474 18.1283 21.001 18.5647 20.5647C19.001 20.1283 19.2474 19.5371 19.25 18.92V5.08C19.2474 4.46286 19.001 3.87174 18.5647 3.43535C18.1283 2.99896 17.5371 2.75263 16.92 2.75H7.08ZM14.69 5.5C14.6874 5.30189 14.6076 5.11263 14.4675 4.97253C14.3274 4.83244 14.1381 4.75259 13.94 4.75H10.06C9.86109 4.75 9.67032 4.82902 9.52967 4.96967C9.38902 5.11032 9.31 5.30109 9.31 5.5C9.31 5.69891 9.38902 5.88968 9.52967 6.03033C9.67032 6.17098 9.86109 6.25 10.06 6.25H13.94C14.1381 6.24741 14.3274 6.16756 14.4675 6.02747C14.6076 5.88737 14.6874 5.69811 14.69 5.5ZM12 20.05C11.5055 20.05 11.0222 19.9034 10.6111 19.6287C10.2 19.354 9.87952 18.9635 9.6903 18.5067C9.50108 18.0499 9.45157 17.5472 9.54804 17.0623C9.6445 16.5773 9.8826 16.1319 10.2322 15.7822C10.5819 15.4326 11.0273 15.1945 11.5123 15.098C11.9972 15.0016 12.4999 15.0511 12.9567 15.2403C13.4135 15.4295 13.804 15.75 14.0787 16.1611C14.3534 16.5722 14.5 17.0555 14.5 17.55C14.5 17.8783 14.4353 18.2034 14.3097 18.5067C14.1841 18.81 13.9999 19.0856 13.7678 19.3178C13.5356 19.5499 13.26 19.7341 12.9567 19.8597C12.6534 19.9853 12.3283 20.05 12 20.05ZM12 16.55C11.8022 16.55 11.6089 16.6086 11.4444 16.7185C11.28 16.8284 11.1518 16.9846 11.0761 17.1673C11.0004 17.35 10.9806 17.5511 11.0192 17.7451C11.0578 17.9391 11.153 18.1173 11.2929 18.2571C11.4327 18.397 11.6109 18.4922 11.8049 18.5308C11.9989 18.5694 12.2 18.5496 12.3827 18.4739C12.5654 18.3982 12.7216 18.27 12.8315 18.1056C12.9414 17.9411 13 17.7478 13 17.55C13 17.2848 12.8946 17.0304 12.7071 16.8429C12.5196 16.6554 12.2652 16.55 12 16.55Z" fill="black"/>
</svg>
