<svg width="24" height="24" viewBox="0 0 24 24" fill="none" xmlns="http://www.w3.org/2000/svg">
<path d="M10.6999 16L8.25994 13.05C8.13986 12.8951 8.08335 12.7003 8.10193 12.5052C8.12051 12.3101 8.21278 12.1294 8.35994 12C8.51713 11.8691 8.71947 11.8051 8.92336 11.822C9.12725 11.8388 9.31636 11.9351 9.44994 12.09L11.2699 14.26L14.0699 10.62C14.1317 10.5392 14.2087 10.4714 14.2966 10.4204C14.3845 10.3694 14.4817 10.3363 14.5824 10.3228C14.6832 10.3093 14.7856 10.3158 14.8838 10.342C14.982 10.3681 15.0742 10.4133 15.1549 10.475C15.2357 10.5367 15.3035 10.6137 15.3545 10.7017C15.4055 10.7896 15.4387 10.8867 15.4522 10.9875C15.4656 11.0882 15.4591 11.1906 15.433 11.2889C15.4069 11.3871 15.3617 11.4792 15.2999 11.56L11.9099 15.98C11.8396 16.0733 11.7491 16.1496 11.6452 16.2033C11.5414 16.257 11.4268 16.2866 11.3099 16.29C11.1934 16.2884 11.0785 16.2617 10.9733 16.2116C10.868 16.1616 10.7748 16.0894 10.6999 16ZM21.8799 16.51V9.18C21.8774 8.0793 21.5861 6.99853 21.0351 6.04567C20.4841 5.09281 19.6927 4.30122 18.7399 3.75C18.6517 3.67593 18.5482 3.62232 18.4368 3.59301C18.3255 3.5637 18.209 3.55942 18.0957 3.58047C17.9825 3.60153 17.8753 3.6474 17.7819 3.7148C17.6885 3.78219 17.6112 3.86943 17.5555 3.97026C17.4999 4.07108 17.4672 4.18298 17.4599 4.29793C17.4526 4.41287 17.4709 4.528 17.5134 4.63506C17.5558 4.74211 17.6215 4.83843 17.7056 4.91709C17.7898 4.99575 17.8903 5.0548 17.9999 5.09C18.7171 5.50524 19.3126 6.10163 19.7268 6.81943C20.141 7.53724 20.3593 8.35127 20.3599 9.18V16.48C20.3573 17.7301 19.8588 18.9281 18.974 19.8111C18.0891 20.6941 16.89 21.19 15.6399 21.19H7.93994C6.68985 21.19 5.49081 20.6941 4.60593 19.8111C3.72104 18.9281 3.22259 17.7301 3.21994 16.48V9.18C3.22256 8.35049 3.44282 7.5362 3.85871 6.81848C4.2746 6.10076 4.87156 5.50475 5.58994 5.09C5.6813 5.0382 5.76142 4.96871 5.82561 4.88559C5.88979 4.80246 5.93676 4.70737 5.96376 4.60588C5.99077 4.50439 5.99726 4.39853 5.98287 4.2945C5.96848 4.19047 5.93348 4.09035 5.87994 4C5.82923 3.9115 5.76144 3.83395 5.68051 3.77186C5.59957 3.70978 5.50711 3.66439 5.40849 3.63834C5.30987 3.61229 5.20706 3.6061 5.10602 3.62011C5.00499 3.63413 4.90774 3.66808 4.81994 3.72C3.86026 4.27172 3.06346 5.06731 2.51028 6.02615C1.9571 6.985 1.66719 8.07303 1.66994 9.18V16.48C1.67259 18.1421 2.33402 19.7354 3.5093 20.9106C4.68458 22.0859 6.27785 22.7474 7.93994 22.75H15.5999C17.263 22.7474 18.8573 22.0863 20.0341 20.9113C21.211 19.7363 21.8747 18.143 21.8799 16.48V16.51ZM16.5799 4V3C16.5813 2.77066 16.5372 2.54332 16.4504 2.33106C16.3635 2.1188 16.2356 1.9258 16.0739 1.76316C15.9122 1.60053 15.7199 1.47147 15.5081 1.3834C15.2964 1.29533 15.0693 1.25 14.8399 1.25H9.16994C8.70581 1.25 8.26069 1.43437 7.9325 1.76256C7.60432 2.09075 7.41994 2.53587 7.41994 3V4C7.41994 4.46413 7.60432 4.90925 7.9325 5.23744C8.26069 5.56563 8.70581 5.75 9.16994 5.75H14.8399C15.0693 5.75 15.2964 5.70467 15.5081 5.6166C15.7199 5.52853 15.9122 5.39947 16.0739 5.23684C16.2356 5.0742 16.3635 4.8812 16.4504 4.66894C16.5372 4.45668 16.5813 4.22934 16.5799 4ZM14.8399 2.81C14.885 2.8172 14.9259 2.84035 14.9553 2.87523C14.9847 2.91012 15.0005 2.9544 14.9999 3V4C15 4.05136 14.9803 4.10077 14.9449 4.138C14.9096 4.17523 14.8612 4.19743 14.8099 4.2H9.16994C9.12225 4.19277 9.07878 4.16854 9.04754 4.13179C9.0163 4.09504 8.9994 4.04823 8.99994 4V3C8.99991 2.97418 9.00513 2.94863 9.0153 2.9249C9.02547 2.90118 9.04036 2.87977 9.05908 2.86199C9.0778 2.84421 9.09994 2.83043 9.12416 2.82149C9.14838 2.81255 9.17416 2.80864 9.19994 2.81H14.8399Z" fill="black"/>
</svg>
