<svg width="24" height="24" viewBox="0 0 24 24" fill="none" xmlns="http://www.w3.org/2000/svg">
<path d="M17.8302 21H10.0002C9.31981 20.9986 8.64708 20.8566 8.02416 20.583C7.40124 20.3094 6.84155 19.91 6.38017 19.41L2.55017 15.27C1.7247 14.3791 1.26029 13.213 1.24735 11.9985C1.23441 10.7841 1.67387 9.60826 2.48017 8.70001L6.00017 4.66001C6.46768 4.13346 7.04235 3.71295 7.68566 3.42665C8.32897 3.14035 9.02605 2.99489 9.73017 3.00001H17.8302C18.4763 3.00001 19.1161 3.12727 19.713 3.37452C20.3099 3.62177 20.8523 3.98418 21.3091 4.44104C21.766 4.89791 22.1284 5.44028 22.3757 6.03721C22.6229 6.63413 22.7502 7.2739 22.7502 7.92001V16.08C22.7475 17.3841 22.2283 18.634 21.3062 19.5561C20.3841 20.4782 19.1342 20.9974 17.8302 21ZM9.73017 4.50001C9.24395 4.49956 8.76323 4.6028 8.32006 4.80283C7.87689 5.00286 7.48147 5.29508 7.16017 5.66001L3.61017 9.66001C3.04449 10.2866 2.73135 11.1008 2.73135 11.945C2.73135 12.7892 3.04449 13.6034 3.61017 14.23L7.41017 18.36C7.73428 18.7254 8.13351 19.0164 8.58053 19.2132C9.02756 19.4099 9.51182 19.5078 10.0002 19.5H17.8702C18.7772 19.5 19.6471 19.1397 20.2885 18.4983C20.9298 17.8569 21.2902 16.987 21.2902 16.08V7.92001C21.2902 7.4675 21.2004 7.01949 21.0261 6.60193C20.8517 6.18436 20.5962 5.80556 20.2744 5.48745C19.9525 5.16935 19.5708 4.91827 19.1512 4.74877C18.7317 4.57927 18.2826 4.49472 17.8302 4.50001H9.73017ZM14.5702 11.86L16.3802 10C16.5206 9.85938 16.5995 9.66876 16.5995 9.47001C16.5995 9.27126 16.5206 9.08063 16.3802 8.94001C16.3063 8.87116 16.2192 8.81795 16.1242 8.78358C16.0292 8.74921 15.9283 8.73438 15.8274 8.73998C15.7265 8.74558 15.6278 8.7715 15.5372 8.81619C15.4466 8.86087 15.366 8.92339 15.3002 9.00001L13.5202 10.83L11.7302 9.00001C11.6731 8.90336 11.595 8.82077 11.5017 8.75833C11.4084 8.69588 11.3023 8.65518 11.1912 8.63921C11.0801 8.62324 10.9668 8.63242 10.8597 8.66607C10.7526 8.69972 10.6544 8.75698 10.5724 8.83363C10.4904 8.91028 10.4266 9.00436 10.3858 9.10894C10.345 9.21352 10.3282 9.32593 10.3366 9.43787C10.345 9.54981 10.3785 9.65843 10.4345 9.75572C10.4905 9.85302 10.5676 9.9365 10.6602 10L12.4702 11.86L10.6602 13.71C10.5197 13.8506 10.4408 14.0413 10.4408 14.24C10.4408 14.4388 10.5197 14.6294 10.6602 14.77C10.7291 14.8408 10.8115 14.897 10.9026 14.9354C10.9936 14.9738 11.0914 14.9936 11.1902 14.9936C11.289 14.9936 11.3868 14.9738 11.4778 14.9354C11.5688 14.897 11.6512 14.8408 11.7202 14.77L13.5102 12.94L15.2902 14.77C15.3604 14.8422 15.4444 14.8998 15.5371 14.9392C15.6298 14.9787 15.7294 14.9994 15.8302 15C15.9274 15.0015 16.0238 14.9826 16.1133 14.9448C16.2029 14.9069 16.2835 14.8508 16.3502 14.78C16.4906 14.6394 16.5695 14.4488 16.5695 14.25C16.5695 14.0513 16.4906 13.8606 16.3502 13.72L14.5702 11.86Z" fill="black"/>
</svg>
