<svg width="24" height="24" viewBox="0 0 24 24" fill="none" xmlns="http://www.w3.org/2000/svg">
<path d="M12.75 3.15V2C12.75 1.80109 12.671 1.61032 12.5303 1.46967C12.3897 1.32902 12.1989 1.25 12 1.25C11.8011 1.25 11.6103 1.32902 11.4697 1.46967C11.329 1.61032 11.25 1.80109 11.25 2V3.15C9.33152 3.34781 7.55434 4.24937 6.26159 5.68063C4.96884 7.11189 4.25219 8.97135 4.25 10.9V18.9C4.25265 19.9193 4.65944 20.896 5.38117 21.6159C6.1029 22.3358 7.08065 22.74 8.1 22.74H16C17.0194 22.74 17.9971 22.3358 18.7188 21.6159C19.4406 20.896 19.8474 19.9193 19.85 18.9V10.9C19.8454 8.95569 19.1148 7.0832 17.8014 5.64956C16.488 4.21591 14.6865 3.32448 12.75 3.15ZM11.29 6.62C11.3351 6.77339 11.4286 6.90806 11.5566 7.00386C11.6846 7.09966 11.8401 7.15143 12 7.15143C12.1599 7.15143 12.3154 7.09966 12.4434 7.00386C12.5714 6.90806 12.6649 6.77339 12.71 6.62C12.7251 6.70601 12.7251 6.79399 12.71 6.88C12.71 6.9798 12.6903 7.07863 12.6521 7.17084C12.614 7.26305 12.558 7.34683 12.4874 7.4174C12.4168 7.48797 12.333 7.54395 12.2408 7.58215C12.1486 7.62034 12.0498 7.64 11.95 7.64C11.8502 7.64 11.7514 7.62034 11.6592 7.58215C11.567 7.54395 11.4832 7.48797 11.4126 7.4174C11.342 7.34683 11.286 7.26305 11.2479 7.17084C11.2097 7.07863 11.19 6.9798 11.19 6.88C11.2068 6.78785 11.2407 6.69966 11.29 6.62ZM18.29 18.88C18.2876 19.4913 18.0471 20.0775 17.6196 20.5144C17.192 20.9513 16.6111 21.2044 16 21.22H8.05C7.42847 21.22 6.83225 20.9738 6.39182 20.5352C5.9514 20.0967 5.70264 19.5015 5.7 18.88V10.88C5.70371 9.34163 6.27017 7.85779 7.29255 6.7083C8.31493 5.55882 9.72257 4.82313 11.25 4.64V4.74C10.7468 4.91702 10.3224 5.26633 10.052 5.72612C9.78155 6.18591 9.68246 6.72654 9.77225 7.25235C9.86204 7.77817 10.1349 8.25528 10.5426 8.59926C10.9503 8.94324 11.4666 9.13192 12 9.13192C12.5334 9.13192 13.0497 8.94324 13.4574 8.59926C13.8651 8.25528 14.138 7.77817 14.2278 7.25235C14.3175 6.72654 14.2185 6.18591 13.948 5.72612C13.6776 5.26633 13.2532 4.91702 12.75 4.74V4.64C14.2808 4.82355 15.6912 5.5621 16.7141 6.71579C17.7369 7.86947 18.3012 9.35819 18.3 10.9L18.29 18.88ZM14.67 16.62C14.6883 17.0914 14.5459 17.555 14.2661 17.9347C13.9863 18.3145 13.5857 18.5879 13.13 18.71V19.36C13.13 19.4178 13.1186 19.475 13.0965 19.5284C13.0744 19.5818 13.042 19.6303 13.0011 19.6711C12.9603 19.712 12.9118 19.7444 12.8584 19.7665C12.805 19.7886 12.7478 19.8 12.69 19.8H12.09C12.0322 19.8 11.975 19.7886 11.9216 19.7665C11.8682 19.7444 11.8197 19.712 11.7789 19.6711C11.738 19.6303 11.7056 19.5818 11.6835 19.5284C11.6614 19.475 11.65 19.4178 11.65 19.36V18.73C11.0709 18.5992 10.5342 18.324 10.09 17.93C10.0117 17.859 9.96225 17.7616 9.95119 17.6565C9.94012 17.5513 9.96818 17.4458 10.03 17.36L10.41 16.79C10.4455 16.7415 10.4903 16.7006 10.5418 16.6697C10.5933 16.6387 10.6505 16.6185 10.71 16.61C10.8352 16.5972 10.9605 16.633 11.06 16.71C11.3966 17.0442 11.8461 17.2404 12.32 17.26C12.92 17.26 12.99 16.95 12.99 16.68C12.99 16.19 12.61 15.98 11.93 15.68C11.25 15.38 10.2 14.8 10.2 13.51C10.1828 13.0624 10.3164 12.622 10.5793 12.2594C10.8422 11.8967 11.2193 11.6328 11.65 11.51V10.8C11.65 10.6833 11.6964 10.5714 11.7789 10.4889C11.8614 10.4064 11.9733 10.36 12.09 10.36H12.69C12.8067 10.36 12.9186 10.4064 13.0011 10.4889C13.0836 10.5714 13.13 10.6833 13.13 10.8V11.44C13.6268 11.5799 14.0739 11.8572 14.42 12.24C14.4952 12.3198 14.5372 12.4253 14.5372 12.535C14.5372 12.6447 14.4952 12.7502 14.42 12.83L13.98 13.32C13.9024 13.406 13.7953 13.4595 13.68 13.47C13.5576 13.4694 13.4399 13.423 13.35 13.34C13.2404 13.2038 13.1019 13.0937 12.9445 13.0176C12.7871 12.9415 12.6148 12.9014 12.44 12.9C12.367 12.8896 12.2926 12.8954 12.2221 12.9172C12.1517 12.9389 12.0869 12.9759 12.0324 13.0256C11.9779 13.0753 11.9351 13.1364 11.907 13.2046C11.879 13.2728 11.8663 13.3464 11.87 13.42C11.87 13.77 12.16 13.95 12.82 14.27C13.3384 14.4152 13.7976 14.7208 14.1317 15.1429C14.4658 15.565 14.6577 16.0821 14.68 16.62H14.67Z" fill="black"/>
</svg>
