<svg width="24" height="24" viewBox="0 0 24 24" fill="none" xmlns="http://www.w3.org/2000/svg">
<path d="M22.16 8.88994C22.1519 8.23299 21.9792 7.58855 21.6578 7.01555C21.3364 6.44256 20.8764 5.95929 20.32 5.60994L14 1.57994C13.3455 1.17061 12.5865 0.959411 11.8146 0.971831C11.0428 0.984252 10.291 1.21976 9.64997 1.64994L3.57997 5.76994C3.04004 6.1312 2.59835 6.621 2.29463 7.19527C1.9909 7.76955 1.83467 8.41032 1.83997 9.05994C1.84499 9.71097 2.00883 10.3509 2.31728 10.9243C2.62574 11.4976 3.06948 11.987 3.60997 12.3499L4.83997 13.1699V17.6599C4.83645 18.499 5.08797 19.3194 5.56122 20.0123C6.03447 20.7052 6.7071 21.238 7.48997 21.5399L10.59 22.7499C11.579 23.143 12.6809 23.143 13.67 22.7499L16.54 21.5899C17.313 21.281 17.9752 20.7468 18.4407 20.0567C18.9061 19.3665 19.1532 18.5524 19.15 17.7199V13.0999L19.82 12.6399V14.8699C19.82 15.0689 19.899 15.2596 20.0396 15.4003C20.1803 15.5409 20.3711 15.6199 20.57 15.6199C20.7689 15.6199 20.9597 15.5409 21.1003 15.4003C21.241 15.2596 21.32 15.0689 21.32 14.8699V11.3799C21.8724 10.6682 22.1684 9.79086 22.16 8.88994ZM17.65 17.7099C17.6552 18.2411 17.5006 18.7615 17.2064 19.2037C16.9122 19.6459 16.4919 19.9895 16 20.1899L13.13 21.3499C12.4873 21.6029 11.7726 21.6029 11.13 21.3499L7.99997 20.1399C7.49711 19.9499 7.06458 19.6102 6.76063 19.1668C6.45668 18.7234 6.29591 18.1975 6.29997 17.6599V14.1599L9.77997 16.4799C10.4323 16.9267 11.2044 17.1657 11.995 17.1657C12.7856 17.1657 13.5577 16.9267 14.21 16.4799L17.62 14.1499L17.65 17.7099ZM13.4 15.2099C12.9947 15.4864 12.5155 15.6343 12.025 15.6343C11.5344 15.6343 11.0552 15.4864 10.65 15.2099L4.43997 11.0999C4.10058 10.8772 3.82159 10.5739 3.62788 10.2172C3.43416 9.86041 3.33175 9.46126 3.32977 9.05531C3.32779 8.64936 3.4263 8.24922 3.61653 7.89059C3.80675 7.53196 4.08277 7.22598 4.41997 6.99994L10.48 2.87994C10.8816 2.61334 11.3529 2.47114 11.835 2.47114C12.317 2.47114 12.7884 2.61334 13.19 2.87994L19.52 6.87994C19.8611 7.09242 20.144 7.38653 20.343 7.7357C20.5421 8.08488 20.651 8.47813 20.66 8.87994C20.675 9.2949 20.5848 9.70691 20.3977 10.0776C20.2106 10.4483 19.9328 10.7656 19.59 10.9999L13.4 15.2099Z" fill="black"/>
</svg>
