<svg width="24" height="24" viewBox="0 0 24 24" fill="none" xmlns="http://www.w3.org/2000/svg">
<path d="M17.5002 22.75C16.2726 22.7511 15.0836 22.3213 14.1406 21.5354C13.1976 20.7496 12.5604 19.6576 12.3402 18.45C12.2799 18.1369 12.2498 17.8188 12.2502 17.5C12.2502 17.3011 12.3292 17.1103 12.4698 16.9696C12.6105 16.829 12.8012 16.75 13.0002 16.75C13.1991 16.75 13.3898 16.829 13.5305 16.9696C13.6711 17.1103 13.7502 17.3011 13.7502 17.5C13.7498 17.728 13.7699 17.9555 13.8102 18.18C13.9335 18.8454 14.2347 19.465 14.6817 19.9731C15.1287 20.4813 15.7048 20.859 16.3491 21.0662C16.9934 21.2734 17.6817 21.3024 18.3411 21.1502C19.0005 20.9979 19.6064 20.67 20.0946 20.2013C20.5827 19.7325 20.9349 19.1405 21.1139 18.4878C21.2928 17.8351 21.2918 17.1462 21.1109 16.494C20.93 15.8419 20.576 15.2509 20.0865 14.7836C19.5969 14.3163 18.99 13.9903 18.3302 13.84C18.0575 13.7804 17.7792 13.7503 17.5002 13.75C17.3012 13.75 17.1105 13.6709 16.9698 13.5303C16.8292 13.3896 16.7502 13.1989 16.7502 13C16.7502 12.8011 16.8292 12.6103 16.9698 12.4696C17.1105 12.329 17.3012 12.25 17.5002 12.25C17.8873 12.2476 18.2733 12.2913 18.6502 12.38C19.9085 12.6653 21.0177 13.4041 21.766 14.4552C22.5143 15.5063 22.8494 16.7962 22.7071 18.0786C22.5649 19.3611 21.9554 20.5462 20.995 21.4078C20.0345 22.2695 18.7904 22.7473 17.5002 22.75ZM6.50016 22.75C5.19897 22.7552 3.94221 22.2771 2.97356 21.4082C2.00492 20.5394 1.39343 19.3419 1.25767 18.0478C1.12191 16.7537 1.47155 15.4553 2.2388 14.4044C3.00604 13.3534 4.13622 12.6249 5.41016 12.36C5.7691 12.2883 6.13413 12.2514 6.50016 12.25C6.69907 12.25 6.88983 12.329 7.03049 12.4696C7.17114 12.6103 7.25016 12.8011 7.25016 13C7.25016 13.1989 7.17114 13.3896 7.03049 13.5303C6.88983 13.6709 6.69907 13.75 6.50016 13.75C6.23821 13.7518 5.97703 13.7786 5.72016 13.83C5.05612 13.9717 4.44302 14.291 3.94628 14.7539C3.44953 15.2168 3.08779 15.8059 2.89964 16.4583C2.7115 17.1107 2.70401 17.8019 2.87799 18.4582C3.05196 19.1145 3.40087 19.7113 3.88747 20.1849C4.37407 20.6584 4.98012 20.9909 5.64093 21.147C6.30174 21.303 6.99252 21.2768 7.63956 21.0709C8.2866 20.8651 8.86561 20.4875 9.31482 19.9783C9.76402 19.4692 10.0666 18.8476 10.1902 18.18C10.2304 17.9555 10.2505 17.728 10.2502 17.5C10.2502 17.3011 10.3292 17.1103 10.4698 16.9696C10.6105 16.829 10.8012 16.75 11.0002 16.75C11.1991 16.75 11.3898 16.829 11.5305 16.9696C11.6711 17.1103 11.7502 17.3011 11.7502 17.5C11.7505 17.8188 11.7204 18.1369 11.6602 18.45C11.4399 19.6576 10.8028 20.7496 9.85972 21.5354C8.9167 22.3213 7.7277 22.7511 6.50016 22.75ZM17.5002 11.75C17.3012 11.75 17.1105 11.6709 16.9698 11.5303C16.8292 11.3896 16.7502 11.1989 16.7502 11C16.7502 10.8011 16.8292 10.6103 16.9698 10.4696C17.1105 10.329 17.3012 10.25 17.5002 10.25C17.7555 10.2486 18.0101 10.2218 18.2602 10.17C18.9203 10.0333 19.5313 9.72122 20.029 9.26659C20.5267 8.81195 20.8927 8.23156 21.0884 7.5865C21.2841 6.94143 21.3023 6.25554 21.1411 5.60101C20.9798 4.94647 20.6452 4.34749 20.1723 3.8671C19.6994 3.38671 19.1057 3.04268 18.4538 2.8712C17.8019 2.69972 17.1158 2.70714 16.4677 2.89268C15.8197 3.07822 15.2336 3.43501 14.7712 3.92551C14.3088 4.41602 13.9872 5.02209 13.8402 5.67996C13.7801 5.94577 13.7499 6.21745 13.7502 6.48996C13.7502 6.68887 13.6711 6.87964 13.5305 7.02029C13.3898 7.16094 13.1991 7.23996 13.0002 7.23996C12.8012 7.23996 12.6105 7.16094 12.4698 7.02029C12.3292 6.87964 12.2502 6.68887 12.2502 6.48996C12.2505 6.10683 12.2907 5.72477 12.3702 5.34996C12.575 4.42849 13.0245 3.57929 13.6713 2.89176C14.3181 2.20424 15.1383 1.70382 16.0456 1.4432C16.9528 1.18258 17.9136 1.17139 18.8267 1.41082C19.7398 1.65025 20.5714 2.13143 21.2341 2.80371C21.8967 3.476 22.3659 4.3145 22.5921 5.23095C22.8183 6.14741 22.7933 7.1079 22.5196 8.01131C22.2459 8.91472 21.7337 9.72763 21.0369 10.3645C20.3401 11.0013 19.4845 11.4385 18.5602 11.63C18.2117 11.705 17.8566 11.7452 17.5002 11.75ZM6.50016 11.75C6.13413 11.7485 5.7691 11.7117 5.41016 11.64C4.13622 11.375 3.00604 10.6465 2.2388 9.59557C1.47155 8.54465 1.12191 7.24625 1.25767 5.95216C1.39343 4.65806 2.00492 3.4605 2.97356 2.59168C3.94221 1.72287 5.19897 1.24472 6.50016 1.24996C7.69348 1.25599 8.8497 1.66532 9.78101 2.41146C10.7123 3.15759 11.364 4.19669 11.6302 5.35996C11.7096 5.73477 11.7498 6.11683 11.7502 6.49996C11.7502 6.69887 11.6711 6.88964 11.5305 7.03029C11.3898 7.17094 11.1991 7.24996 11.0002 7.24996C10.8012 7.24996 10.6105 7.17094 10.4698 7.03029C10.3292 6.88964 10.2502 6.69887 10.2502 6.49996C10.2504 6.22745 10.2202 5.95577 10.1602 5.68996C10.0126 5.03335 9.69103 4.42854 9.22922 3.939C8.76741 3.44945 8.18236 3.09321 7.53546 2.90763C6.88855 2.72206 6.20363 2.71399 5.55254 2.88429C4.90144 3.05458 4.30817 3.39695 3.83496 3.87549C3.36176 4.35402 3.02605 4.95109 2.86306 5.60405C2.70007 6.25701 2.7158 6.9418 2.90861 7.58659C3.10141 8.23137 3.46419 8.81239 3.95887 9.26869C4.45356 9.72499 5.06193 10.0398 5.72016 10.18C5.97703 10.2313 6.23821 10.2581 6.50016 10.26C6.69907 10.26 6.88983 10.339 7.03049 10.4796C7.17114 10.6203 7.25016 10.8111 7.25016 11.01C7.25016 11.2089 7.17114 11.3996 7.03049 11.5403C6.88983 11.6809 6.69907 11.76 6.50016 11.76V11.75ZM17.5002 19.75C16.946 19.7509 16.411 19.5474 15.9977 19.1783C15.5843 18.8093 15.3217 18.3007 15.2602 17.75L14.7902 17.27C14.3129 16.7703 13.6833 16.4432 13.0002 16.34C12.3164 16.2499 11.6239 16.2499 10.9402 16.34C10.2689 16.4467 9.65096 16.7698 9.18016 17.26L8.71016 17.74C8.6643 18.1618 8.50012 18.562 8.23656 18.8945C7.973 19.227 7.62081 19.4781 7.22061 19.6191C6.82042 19.76 6.38854 19.7849 5.97481 19.6909C5.56108 19.5969 5.18235 19.3878 4.88235 19.0878C4.58234 18.7878 4.37327 18.409 4.27926 17.9953C4.18525 17.5816 4.21014 17.1497 4.35105 16.7495C4.49197 16.3493 4.74316 15.9971 5.07565 15.7336C5.40813 15.47 5.80836 15.3058 6.23016 15.26L6.71016 14.79C7.21717 14.3156 7.55148 13.6857 7.66016 13C7.75018 12.3162 7.75018 11.6237 7.66016 10.94C7.55337 10.2688 7.23033 9.65076 6.74016 9.17996L6.26016 8.70996C5.83688 8.66454 5.43518 8.49996 5.1017 8.23535C4.76822 7.97075 4.51665 7.61696 4.37621 7.21509C4.23577 6.81322 4.21222 6.37975 4.30829 5.96503C4.40437 5.55031 4.61612 5.17135 4.91897 4.87217C5.22181 4.57299 5.60332 4.36586 6.01918 4.27484C6.43504 4.18382 6.86819 4.21264 7.26832 4.35797C7.66846 4.50329 8.01915 4.75914 8.27968 5.09582C8.54021 5.43249 8.69988 5.83617 8.74016 6.25996L9.21016 6.73996C9.68882 7.23594 10.3182 7.55944 11.0002 7.65996C11.6839 7.74999 12.3764 7.74999 13.0602 7.65996C13.7314 7.55318 14.3494 7.23014 14.8202 6.73996L15.2902 6.25996C15.336 5.83817 15.5002 5.43794 15.7638 5.10545C16.0273 4.77297 16.3795 4.52177 16.7797 4.38086C17.1799 4.23995 17.6118 4.21506 18.0255 4.30907C18.4392 4.40307 18.818 4.61214 19.118 4.91215C19.418 5.21216 19.627 5.59088 19.7211 6.00461C19.8151 6.41835 19.7902 6.85023 19.6493 7.25042C19.5083 7.65061 19.2572 8.00281 18.9247 8.26637C18.5922 8.52993 18.1919 8.69411 17.7702 8.73996L17.2902 9.20996C16.785 9.6857 16.451 10.3149 16.3402 11C16.2501 11.6837 16.2501 12.3762 16.3402 13.06C16.4469 13.7312 16.77 14.3492 17.2602 14.82L17.7402 15.29C18.3188 15.3441 18.854 15.6201 19.2338 16.0601C19.6135 16.5001 19.8082 17.0699 19.7772 17.6503C19.7462 18.2306 19.4918 18.7764 19.0674 19.1734C18.6429 19.5704 18.0813 19.7878 17.5002 19.78V19.75ZM12.0002 14.75C12.4114 14.7517 12.8222 14.7784 13.2302 14.83C14.2261 14.986 15.145 15.4595 15.8502 16.18L16.5402 16.87C16.6121 16.9441 16.6686 17.0318 16.7063 17.1279C16.7441 17.224 16.7624 17.3267 16.7602 17.43C16.7602 17.43 16.7602 17.52 16.7602 17.54C16.7753 17.7283 16.8609 17.904 17 18.0319C17.139 18.1598 17.3212 18.2306 17.5102 18.23C17.7091 18.23 17.8998 18.1509 18.0405 18.0103C18.1811 17.8696 18.2602 17.6789 18.2602 17.48C18.2602 17.281 18.1811 17.0903 18.0405 16.9496C17.8998 16.809 17.7091 16.73 17.5102 16.73H17.4002C17.2013 16.7298 17.0107 16.6507 16.8702 16.51L16.1802 15.82C15.4597 15.1148 14.9862 14.1959 14.8302 13.2C14.7297 12.3864 14.7297 11.5635 14.8302 10.75C14.9978 9.75936 15.4779 8.84833 16.2002 8.14996L16.8902 7.45996C16.9629 7.38612 17.0503 7.32838 17.1468 7.29048C17.2433 7.25258 17.3466 7.23537 17.4502 7.23996H17.5702C17.7567 7.22248 17.9299 7.1358 18.0558 6.997C18.1816 6.8582 18.251 6.67732 18.2502 6.48996C18.2502 6.29105 18.1711 6.10028 18.0305 5.95963C17.8898 5.81898 17.6991 5.73996 17.5002 5.73996C17.3012 5.73996 17.1105 5.81898 16.9698 5.95963C16.8292 6.10028 16.7502 6.29105 16.7502 6.48996C16.7571 6.60046 16.7421 6.71124 16.7061 6.81593C16.67 6.92061 16.6136 7.01714 16.5402 7.09996L15.8502 7.78996C15.1463 8.51216 14.2268 8.98597 13.2302 9.13996C12.4132 9.24 11.5871 9.24 10.7702 9.13996C9.77546 8.98664 8.85668 8.51673 8.15016 7.79996L7.46016 7.10996C7.38824 7.03583 7.33175 6.94816 7.29399 6.85203C7.25622 6.7559 7.23792 6.65322 7.24016 6.54996C7.24016 6.54996 7.24016 6.45996 7.24016 6.43996C7.22504 6.25163 7.1394 6.07593 7.00035 5.94801C6.8613 5.82009 6.6791 5.74936 6.49016 5.74996C6.29205 5.75255 6.10278 5.8324 5.96269 5.9725C5.8226 6.11259 5.74275 6.30186 5.74016 6.49996C5.7454 6.70244 5.83021 6.89469 5.9762 7.03507C6.1222 7.17546 6.31763 7.25266 6.52016 7.24996C6.73281 7.24583 6.93944 7.32065 7.10016 7.45996L7.79016 8.14996C8.51059 8.8551 8.98408 9.77402 9.14016 10.77C9.24058 11.5835 9.24058 12.4064 9.14016 13.22C8.98682 14.2176 8.51708 15.1395 7.80016 15.85L7.11016 16.54C6.95982 16.6843 6.75853 16.7634 6.55016 16.76H6.43016C6.24361 16.7774 6.07037 16.8641 5.94452 17.0029C5.81868 17.1417 5.74934 17.3226 5.75016 17.51C5.75016 17.7089 5.82917 17.8996 5.96983 18.0403C6.11048 18.1809 6.30124 18.26 6.50016 18.26C6.69907 18.26 6.88983 18.1809 7.03049 18.0403C7.17114 17.8996 7.25016 17.7089 7.25016 17.51C7.24323 17.3995 7.25822 17.2887 7.29426 17.184C7.3303 17.0793 7.38668 16.9828 7.46016 16.9L8.15016 16.21C8.854 15.4878 9.77354 15.014 10.7702 14.86C11.178 14.8051 11.5887 14.775 12.0002 14.77V14.75Z" fill="black"/>
</svg>
