<svg width="24" height="24" viewBox="0 0 24 24" fill="none" xmlns="http://www.w3.org/2000/svg">
<path d="M18.9999 13.06H18.6999C17.5687 13.3299 16.5093 13.8415 15.5944 14.5596C14.6795 15.2777 13.9309 16.1852 13.3999 17.2199L12.6399 19.16V15.16H12.6899L14.2799 14.36C14.5577 14.2229 14.7912 14.0106 14.9539 13.7471C15.1166 13.4836 15.2019 13.1796 15.1999 12.87V11.1C15.2026 10.9086 15.1687 10.7185 15.0999 10.54C15.9589 9.87901 16.5894 8.96574 16.903 7.92827C17.2166 6.8908 17.1975 5.78119 16.8484 4.75512C16.4993 3.72905 15.8378 2.83801 14.9566 2.207C14.0754 1.576 13.0188 1.23669 11.9349 1.23669C10.8511 1.23669 9.79449 1.576 8.9133 2.207C8.03211 2.83801 7.37057 3.72905 7.0215 4.75512C6.67243 5.78119 6.65334 6.8908 6.96691 7.92827C7.28048 8.96574 7.91098 9.87901 8.76994 10.54C8.70934 10.7204 8.67893 10.9096 8.67994 11.1V12.9C8.67802 13.2096 8.76328 13.5136 8.92597 13.7771C9.08866 14.0406 9.32222 14.2529 9.59994 14.39L11.1899 15.1899V18.36L10.7499 17.24C10.219 16.2052 9.47034 15.2977 8.55548 14.5796C7.64062 13.8615 6.58119 13.3499 5.44994 13.08C5.34684 13.0701 5.24304 13.0701 5.13994 13.08C4.93658 13.0842 4.73667 13.1334 4.55454 13.224C4.37241 13.3146 4.21256 13.4443 4.08642 13.6039C3.96029 13.7635 3.87099 13.949 3.82492 14.1471C3.77885 14.3452 3.77715 14.5511 3.81994 14.75C4.20399 16.3615 5.07533 17.8156 6.31535 18.9143C7.55537 20.013 9.10383 20.7028 10.7499 20.8899H11.1899V22.04C11.1899 22.2256 11.2637 22.4037 11.395 22.5349C11.5262 22.6662 11.7043 22.74 11.8899 22.74C12.0756 22.74 12.2536 22.6662 12.3849 22.5349C12.5162 22.4037 12.5899 22.2256 12.5899 22.04V20.92L13.3499 20.87C14.9961 20.6828 16.5445 19.993 17.7845 18.8943C19.0246 17.7956 19.8959 16.3415 20.2799 14.7299C20.3223 14.5343 20.3215 14.3318 20.2777 14.1364C20.2339 13.9411 20.1482 13.7576 20.0264 13.5987C19.9046 13.4399 19.7497 13.3094 19.5725 13.2163C19.3952 13.1233 19.1999 13.0699 18.9999 13.06ZM5.18994 14.47C6.10291 14.6923 6.9583 15.1059 7.69955 15.6834C8.4408 16.2609 9.05105 16.9891 9.48994 17.82L10.0799 19.33C8.89854 19.0441 7.81807 18.44 6.95595 17.5831C6.09383 16.7263 5.48304 15.6496 5.18994 14.47ZM8.10994 6.46995C8.10994 5.72036 8.33222 4.9876 8.74867 4.36434C9.16512 3.74108 9.75704 3.2553 10.4496 2.96845C11.1421 2.68159 11.9041 2.60654 12.6393 2.75277C13.3745 2.89901 14.0498 3.25997 14.5799 3.79002C15.1099 4.32006 15.4709 4.99537 15.6171 5.73056C15.7634 6.46575 15.6883 7.22779 15.4014 7.92032C15.1146 8.61285 14.6288 9.20477 14.0056 9.62122C13.3823 10.0377 12.6495 10.26 11.8999 10.26C11.3997 10.26 10.9044 10.1609 10.4426 9.96861C9.98082 9.77627 9.56168 9.49442 9.20935 9.1393C8.85702 8.78418 8.57848 8.36283 8.38978 7.89954C8.20109 7.43624 8.10598 6.94018 8.10994 6.43995V6.46995ZM10.1799 13.17C10.1256 13.1492 10.0791 13.1121 10.0468 13.0637C10.0146 13.0153 9.9982 12.9581 9.99994 12.9V11.28C11.2029 11.7467 12.537 11.7467 13.7399 11.28V12.9C13.7385 12.9497 13.7239 12.9981 13.6975 13.0403C13.6711 13.0825 13.634 13.1169 13.5899 13.14L11.9899 13.9399C11.9532 13.9601 11.9119 13.9706 11.8699 13.9706C11.828 13.9706 11.7867 13.9601 11.7499 13.9399L10.1799 13.17ZM13.9999 19.33L14.5899 17.82C15.0283 16.9906 15.6371 16.2633 16.3765 15.6859C17.1159 15.1086 17.969 14.6942 18.8799 14.47C18.5856 15.6473 17.9757 16.7221 17.1157 17.5785C16.2558 18.4349 15.1785 19.0405 13.9999 19.33Z" fill="black"/>
</svg>
