<svg width="24" height="24" viewBox="0 0 24 24" fill="none" xmlns="http://www.w3.org/2000/svg">
<path d="M14.18 7.3H9.63C8.98725 7.29999 8.37068 7.55464 7.91526 8.00819C7.45983 8.46174 7.20264 9.07726 7.2 9.72V14.28C7.20264 14.9227 7.45983 15.5383 7.91526 15.9918C8.37068 16.4454 8.98725 16.7 9.63 16.7H14.18C14.8227 16.7 15.4393 16.4454 15.8947 15.9918C16.3502 15.5383 16.6074 14.9227 16.61 14.28V9.72C16.6074 9.07726 16.3502 8.46174 15.8947 8.00819C15.4393 7.55464 14.8227 7.29999 14.18 7.3ZM14.95 14.3C14.9474 14.5025 14.8651 14.6958 14.721 14.838C14.5768 14.9803 14.3825 15.06 14.18 15.06H9.63C9.4275 15.06 9.23315 14.9803 9.08903 14.838C8.94491 14.6958 8.86263 14.5025 8.86 14.3V9.72C8.87272 9.52457 8.95942 9.34133 9.10247 9.20757C9.24552 9.07381 9.43416 8.99959 9.63 9H14.18C14.3825 8.99998 14.5768 9.07973 14.721 9.22198C14.8651 9.36423 14.9474 9.55752 14.95 9.76V14.3ZM21.95 13.41H20.43V10.61H21.92C22.1401 10.61 22.3512 10.5226 22.5069 10.3669C22.6626 10.2112 22.75 10.0001 22.75 9.78C22.75 9.55987 22.6626 9.34876 22.5069 9.1931C22.3512 9.03745 22.1401 8.95 21.92 8.95H20.43V7.56C20.43 6.49913 20.0086 5.48172 19.2584 4.73157C18.5083 3.98143 17.4909 3.56 16.43 3.56H15.05V2.08C15.05 1.85987 14.9626 1.64876 14.8069 1.4931C14.6512 1.33745 14.4401 1.25 14.22 1.25C13.9999 1.25 13.7888 1.33745 13.6331 1.4931C13.4774 1.64876 13.39 1.85987 13.39 2.08V3.6H10.61V2.08C10.5649 1.90062 10.4613 1.74143 10.3154 1.62769C10.1696 1.51395 9.98995 1.45218 9.805 1.45218C9.62005 1.45218 9.4404 1.51395 9.29456 1.62769C9.14872 1.74143 9.04505 1.90062 9 2.08V3.6H7.53C6.46913 3.6 5.45172 4.02143 4.70157 4.77157C3.95143 5.52172 3.53 6.53913 3.53 7.6V9H2.08C1.85987 9 1.64876 9.08745 1.4931 9.2431C1.33745 9.39876 1.25 9.60987 1.25 9.83C1.25 10.0501 1.33745 10.2612 1.4931 10.4169C1.64876 10.5726 1.85987 10.66 2.08 10.66H3.57V13.44H2.08C1.85987 13.44 1.64876 13.5274 1.4931 13.6831C1.33745 13.8388 1.25 14.0499 1.25 14.27C1.25 14.4901 1.33745 14.7012 1.4931 14.8569C1.64876 15.0126 1.85987 15.1 2.08 15.1H3.57V16.5C3.57 17.5609 3.99143 18.5783 4.74157 19.3284C5.49172 20.0786 6.50913 20.5 7.57 20.5H9V21.96C9 22.1801 9.08745 22.3912 9.2431 22.5469C9.39876 22.7026 9.60987 22.79 9.83 22.79C10.0501 22.79 10.2612 22.7026 10.4169 22.5469C10.5726 22.3912 10.66 22.1801 10.66 21.96V20.46H13.44V21.92C13.44 22.1401 13.5274 22.3512 13.6831 22.5069C13.8388 22.6626 14.0499 22.75 14.27 22.75C14.4901 22.75 14.7012 22.6626 14.8569 22.5069C15.0126 22.3512 15.1 22.1401 15.1 21.92V20.46H16.52C17.5809 20.46 18.5983 20.0386 19.3484 19.2884C20.0986 18.5383 20.52 17.5209 20.52 16.46V15.05H22.01C22.2301 15.05 22.4412 14.9626 22.5969 14.8069C22.7526 14.6512 22.84 14.4401 22.84 14.22C22.84 13.9999 22.7526 13.7888 22.5969 13.6331C22.4412 13.4774 22.2301 13.39 22.01 13.39L21.95 13.41ZM18.77 16.5C18.7674 17.1092 18.5242 17.6927 18.0934 18.1234C17.6627 18.5542 17.0792 18.7974 16.47 18.8H7.53C6.92081 18.7974 6.33733 18.5542 5.90656 18.1234C5.4758 17.6927 5.23263 17.1092 5.23 16.5V7.56C5.23 6.95 5.47232 6.36499 5.90365 5.93365C6.33499 5.50232 6.92 5.26 7.53 5.26H16.47C16.772 5.26 17.0711 5.31949 17.3502 5.43508C17.6292 5.55066 17.8828 5.72008 18.0963 5.93365C18.3099 6.14723 18.4793 6.40078 18.5949 6.67983C18.7105 6.95888 18.77 7.25796 18.77 7.56V16.5Z" fill="black"/>
</svg>
