<svg width="24" height="24" viewBox="0 0 24 24" fill="none" xmlns="http://www.w3.org/2000/svg">
<path d="M13.8902 19.69V22C13.8876 22.1918 13.8095 22.3749 13.6729 22.5097C13.5363 22.6444 13.3521 22.72 13.1602 22.72H11.5102C11.2426 22.728 10.976 22.6822 10.7264 22.5853C10.4768 22.4884 10.2492 22.3423 10.0571 22.1558C9.86493 21.9693 9.71223 21.7461 9.60799 21.4994C9.50375 21.2528 9.45009 20.9877 9.45021 20.72V20.1C9.16056 20.0031 8.87676 19.8896 8.60021 19.76L8.16021 20.19C7.76675 20.5613 7.24621 20.7681 6.70521 20.7681C6.16421 20.7681 5.64368 20.5613 5.25021 20.19L4.06021 19C3.86819 18.8135 3.71554 18.5905 3.61129 18.344C3.50705 18.0975 3.45333 17.8326 3.45333 17.565C3.45333 17.2973 3.50705 17.0324 3.61129 16.7859C3.71554 16.5394 3.86819 16.3164 4.06021 16.13L4.50021 15.7C4.37021 15.42 4.25021 15.14 4.15021 14.86H3.53021C2.99411 14.8602 2.47903 14.6514 2.09438 14.278C1.70974 13.9045 1.48583 13.3958 1.47021 12.86V11.17C1.48583 10.6341 1.70974 10.1254 2.09438 9.75195C2.47903 9.3785 2.99411 9.16973 3.53021 9.16995H4.15021C4.25021 8.88995 4.37021 8.60995 4.50021 8.32995L4.06021 7.89995C3.86354 7.71311 3.70693 7.48821 3.59992 7.23894C3.4929 6.98967 3.43771 6.72123 3.43771 6.44995C3.43771 6.17868 3.4929 5.91024 3.59992 5.66096C3.70693 5.41169 3.86354 5.18679 4.06021 4.99995L5.25021 3.80995C5.64368 3.43865 6.16421 3.23183 6.70521 3.23183C7.24621 3.23183 7.76675 3.43865 8.16021 3.80995L8.60021 4.23995C8.87676 4.11033 9.16056 3.9968 9.45021 3.89995V3.27995C9.45009 3.01218 9.50375 2.74712 9.60799 2.50047C9.71223 2.25382 9.86493 2.03062 10.0571 1.8441C10.2492 1.65757 10.4768 1.51153 10.7264 1.41462C10.976 1.31771 11.2426 1.27192 11.5102 1.27995H13.1602C13.3521 1.27993 13.5363 1.35547 13.6729 1.49022C13.8095 1.62496 13.8876 1.80808 13.8902 1.99995V4.37995C13.8889 4.47451 13.869 4.56788 13.8316 4.65473C13.7942 4.74159 13.7401 4.82023 13.6723 4.88616C13.6045 4.95209 13.5244 5.00402 13.4365 5.03899C13.3487 5.07396 13.2548 5.09128 13.1602 5.08995C13.0661 5.09128 12.9727 5.07389 12.8854 5.0388C12.7981 5.00372 12.7187 4.95163 12.6517 4.88557C12.5847 4.81951 12.5315 4.74079 12.4952 4.65399C12.4589 4.56719 12.4402 4.47404 12.4402 4.37995V2.67995H11.5102C11.4306 2.67863 11.3515 2.69316 11.2775 2.72272C11.2036 2.75228 11.1363 2.79627 11.0795 2.85211C11.0227 2.90796 10.9776 2.97455 10.9468 3.04801C10.916 3.12146 10.9002 3.20031 10.9002 3.27995V4.41995C10.8976 4.57661 10.8447 4.72828 10.7492 4.85254C10.6538 4.9768 10.5209 5.06705 10.3702 5.10995C9.83111 5.25985 9.31103 5.47124 8.82021 5.73995C8.68748 5.80544 8.53798 5.82903 8.39154 5.80759C8.24509 5.78616 8.10862 5.72072 8.00021 5.61995L7.19022 4.81995C7.07247 4.71314 6.91919 4.65398 6.76021 4.65398C6.60124 4.65398 6.44796 4.71314 6.33021 4.81995L5.09021 5.99995C5.03305 6.055 4.98758 6.12101 4.95652 6.19403C4.92546 6.26706 4.90945 6.3456 4.90945 6.42495C4.90945 6.50431 4.92546 6.58285 4.95652 6.65588C4.98758 6.7289 5.03305 6.79491 5.09021 6.84995L5.90022 7.64995C6.00939 7.76221 6.07838 7.90741 6.09647 8.06295C6.11455 8.21849 6.08071 8.37564 6.00021 8.50995C5.72243 8.99406 5.50737 9.51155 5.36021 10.05C5.31363 10.1996 5.22075 10.3306 5.09494 10.424C4.96914 10.5175 4.81692 10.5686 4.66021 10.57H3.53021C3.45058 10.5686 3.37149 10.5832 3.29753 10.6127C3.22358 10.6423 3.15625 10.6863 3.09947 10.7421C3.04269 10.798 2.9976 10.8646 2.96682 10.938C2.93605 11.0115 2.9202 11.0903 2.92021 11.17V12.83C2.9202 12.9096 2.93605 12.9884 2.96682 13.0619C2.9976 13.1354 3.04269 13.2019 3.09947 13.2578C3.15625 13.3136 3.22358 13.3576 3.29753 13.3872C3.37149 13.4167 3.45058 13.4313 3.53021 13.43H4.68021C4.83692 13.4313 4.98914 13.4824 5.11494 13.5759C5.24075 13.6693 5.33363 13.8003 5.38021 13.95C5.52104 14.4874 5.72936 15.0049 6.00021 15.49C6.0782 15.6264 6.10873 15.7848 6.08701 15.9404C6.06529 16.0961 5.99256 16.2401 5.88021 16.35L5.07021 17.15C5.01305 17.205 4.96758 17.271 4.93652 17.344C4.90546 17.4171 4.88945 17.4956 4.88945 17.575C4.88945 17.6543 4.90546 17.7328 4.93652 17.8059C4.96758 17.8789 5.01305 17.9449 5.07021 18L6.26021 19.18C6.37796 19.2868 6.53124 19.3459 6.69022 19.3459C6.84919 19.3459 7.00247 19.2868 7.12021 19.18L7.93021 18.38C8.04257 18.2683 8.18821 18.1961 8.34515 18.1745C8.50209 18.1528 8.66182 18.1828 8.80021 18.26C9.29103 18.5287 9.81111 18.7401 10.3502 18.89C10.5009 18.9329 10.6338 19.0231 10.7292 19.1474C10.8247 19.2716 10.8776 19.4233 10.8802 19.58V20.72C10.8802 20.7996 10.896 20.8784 10.9268 20.9519C10.9576 21.0254 11.0027 21.0919 11.0595 21.1478C11.1163 21.2036 11.1836 21.2476 11.2575 21.2772C11.3315 21.3067 11.4106 21.3213 11.4902 21.32H12.4202V19.69C12.4202 19.5959 12.4389 19.5027 12.4752 19.4159C12.5115 19.3291 12.5647 19.2504 12.6317 19.1843C12.6987 19.1183 12.7781 19.0662 12.8654 19.0311C12.9527 18.996 13.0461 18.9786 13.1402 18.98C13.2364 18.9759 13.3325 18.9913 13.4226 19.025C13.5128 19.0588 13.5953 19.1103 13.6653 19.1765C13.7352 19.2427 13.7911 19.3222 13.8298 19.4104C13.8684 19.4986 13.889 19.5937 13.8902 19.69ZM22.3902 11.69C22.3784 12.2118 22.1886 12.714 21.8523 13.1133C21.516 13.5126 21.0533 13.7849 20.541 13.8853C20.0288 13.9857 19.4976 13.908 19.0355 13.6651C18.5734 13.4223 18.2081 13.0288 18.0002 12.55C17.9312 12.5819 17.8563 12.599 17.7802 12.6H15.3202C15.1504 13.109 14.8051 13.541 14.3459 13.8187C13.8868 14.0965 13.3438 14.2017 12.8141 14.1157C12.2844 14.0297 11.8027 13.7581 11.4549 13.3494C11.1072 12.9407 10.9163 12.4216 10.9163 11.885C10.9163 11.3483 11.1072 10.8292 11.4549 10.4205C11.8027 10.0118 12.2844 9.74016 12.8141 9.65416C13.3438 9.56817 13.8868 9.67345 14.3459 9.95116C14.8051 10.2289 15.1504 10.6609 15.3202 11.17H17.7802H17.8902C18.0172 10.6268 18.339 10.1491 18.7945 9.82722C19.25 9.50532 19.8077 9.36157 20.3621 9.42317C20.9164 9.48476 21.429 9.74744 21.8027 10.1615C22.1765 10.5755 22.3855 11.1122 22.3902 11.67V11.69ZM14.0002 11.87C13.9989 11.761 13.9761 11.6533 13.9332 11.5531C13.8903 11.4529 13.8281 11.3621 13.7501 11.286C13.6721 11.2098 13.5798 11.1498 13.4786 11.1093C13.3774 11.0688 13.2692 11.0486 13.1602 11.05C13.0442 11.0372 12.9269 11.049 12.8158 11.0846C12.7047 11.1202 12.6023 11.1789 12.5154 11.2567C12.4285 11.3346 12.359 11.4299 12.3114 11.5364C12.2638 11.6429 12.2392 11.7583 12.2392 11.875C12.2392 11.9916 12.2638 12.107 12.3114 12.2135C12.359 12.32 12.4285 12.4153 12.5154 12.4932C12.6023 12.571 12.7047 12.6297 12.8158 12.6653C12.9269 12.7009 13.0442 12.7127 13.1602 12.7C13.3813 12.7 13.5934 12.6128 13.7507 12.4575C13.9079 12.3021 13.9976 12.091 14.0002 11.87ZM20.9402 11.68C20.9422 11.5154 20.8952 11.3539 20.8052 11.2161C20.7152 11.0783 20.5863 10.9704 20.4348 10.906C20.2834 10.8417 20.1162 10.8238 19.9545 10.8547C19.7929 10.8856 19.644 10.9638 19.5269 11.0795C19.4099 11.1952 19.3298 11.343 19.297 11.5043C19.2641 11.6656 19.28 11.833 19.3425 11.9852C19.405 12.1375 19.5114 12.2677 19.6481 12.3593C19.7848 12.451 19.9456 12.4999 20.1102 12.5C20.3286 12.5 20.5382 12.4139 20.6936 12.2604C20.849 12.1069 20.9376 11.8983 20.9402 11.68ZM22.5302 19C22.5302 19.6418 22.2753 20.2573 21.8214 20.7112C21.3676 21.165 20.752 21.42 20.1102 21.42C19.4684 21.42 18.8529 21.165 18.399 20.7112C17.9452 20.2573 17.6902 19.6418 17.6902 19C17.6934 18.7936 17.7237 18.5885 17.7802 18.39L15.6802 16.56H12.5002C11.8628 16.5893 11.226 16.4891 10.6283 16.2654C10.0307 16.0417 9.48466 15.6991 9.02317 15.2584C8.56168 14.8177 8.19435 14.288 7.94338 13.7013C7.69241 13.1146 7.56302 12.4831 7.56302 11.845C7.56302 11.2068 7.69241 10.5753 7.94338 9.98862C8.19435 9.40192 8.56168 8.8722 9.02317 8.43148C9.48466 7.99076 10.0307 7.6482 10.6283 7.42449C11.226 7.20079 11.8628 7.10059 12.5002 7.12995H15.3902L17.8302 5.12995C17.7434 4.88915 17.6961 4.63587 17.6902 4.37995C17.6902 3.73813 17.9452 3.12259 18.399 2.66875C18.8529 2.21492 19.4684 1.95995 20.1102 1.95995C20.752 1.95995 21.3676 2.21492 21.8214 2.66875C22.2753 3.12259 22.5302 3.73813 22.5302 4.37995C22.5223 5.01656 22.2639 5.62442 21.8109 6.07179C21.3579 6.51916 20.7469 6.77 20.1102 6.76995C19.594 6.76996 19.0919 6.60142 18.6802 6.28995L16.1202 8.40995C15.9919 8.51946 15.8289 8.57972 15.6602 8.57995H12.5002C12.0549 8.55534 11.6093 8.62179 11.1905 8.77525C10.7718 8.92872 10.3887 9.16597 10.0648 9.4725C9.74084 9.77903 9.48281 10.1484 9.30647 10.558C9.13013 10.9677 9.03918 11.409 9.03918 11.855C9.03918 12.3009 9.13013 12.7422 9.30647 13.1519C9.48281 13.5615 9.74084 13.9309 10.0648 14.2374C10.3887 14.5439 10.7718 14.7812 11.1905 14.9347C11.6093 15.0881 12.0549 15.1546 12.5002 15.13H16.0002C16.1758 15.1349 16.3447 15.1983 16.4802 15.31L18.6102 17.18C19.0411 16.8169 19.5868 16.6184 20.1502 16.62C20.779 16.6277 21.3799 16.881 21.8245 17.3256C22.2692 17.7703 22.5224 18.3712 22.5302 19ZM19.1402 4.34995C19.1402 4.54773 19.1989 4.74107 19.3087 4.90552C19.4186 5.06997 19.5748 5.19814 19.7575 5.27383C19.9403 5.34952 20.1413 5.36932 20.3353 5.33074C20.5293 5.29215 20.7075 5.19691 20.8473 5.05706C20.9872 4.91721 21.0824 4.73902 21.121 4.54504C21.1596 4.35106 21.1398 4.15 21.0641 3.96727C20.9884 3.78454 20.8602 3.62836 20.6958 3.51848C20.5313 3.4086 20.338 3.34995 20.1402 3.34995C19.875 3.34995 19.6206 3.45531 19.4331 3.64285C19.2456 3.83038 19.1402 4.08474 19.1402 4.34995ZM21.0802 19C21.0902 18.8003 21.0402 18.6023 20.9365 18.4314C20.8329 18.2605 20.6804 18.1246 20.4988 18.0412C20.3172 17.9578 20.1147 17.9307 19.9176 17.9635C19.7204 17.9962 19.5376 18.0873 19.3927 18.225C19.2478 18.3626 19.1475 18.5405 19.1047 18.7357C19.0619 18.931 19.0785 19.1345 19.1525 19.3202C19.2265 19.5058 19.3544 19.6651 19.5198 19.7773C19.6852 19.8896 19.8804 19.9497 20.0802 19.95C20.337 19.9503 20.5841 19.8518 20.7702 19.675C20.9564 19.4981 21.0674 19.2564 21.0802 19Z" fill="black"/>
</svg>
