<svg width="24" height="24" viewBox="0 0 24 24" fill="none" xmlns="http://www.w3.org/2000/svg">
<path d="M15.25 1.75H8.75C7.82174 1.75 6.9315 2.11875 6.27513 2.77513C5.61875 3.4315 5.25 4.32174 5.25 5.25V18.75C5.25 19.6783 5.61875 20.5685 6.27513 21.2249C6.9315 21.8813 7.82174 22.25 8.75 22.25H15.25C16.1783 22.25 17.0685 21.8813 17.7249 21.2249C18.3813 20.5685 18.75 19.6783 18.75 18.75V5.25C18.75 4.32174 18.3813 3.4315 17.7249 2.77513C17.0685 2.11875 16.1783 1.75 15.25 1.75ZM17.25 18.75C17.25 19.2804 17.0393 19.7891 16.6642 20.1642C16.2891 20.5393 15.7804 20.75 15.25 20.75H8.75C8.21957 20.75 7.71086 20.5393 7.33579 20.1642C6.96071 19.7891 6.75 19.2804 6.75 18.75V5.25C6.75 4.71957 6.96071 4.21086 7.33579 3.83579C7.71086 3.46071 8.21957 3.25 8.75 3.25H11V3.5C11 3.76522 11.1054 4.01957 11.2929 4.20711C11.4804 4.39464 11.7348 4.5 12 4.5C12.2652 4.5 12.5196 4.39464 12.7071 4.20711C12.8946 4.01957 13 3.76522 13 3.5V3.25H15.25C15.7804 3.25 16.2891 3.46071 16.6642 3.83579C17.0393 4.21086 17.25 4.71957 17.25 5.25V18.75ZM14.53 8.46C13.7311 7.85793 12.738 7.572 11.7413 7.65706C10.7446 7.74211 9.81431 8.19215 9.12897 8.92087C8.44362 9.64959 8.05144 10.6057 8.02764 11.6058C8.00384 12.6058 8.3501 13.5795 9 14.34L10.86 16.42C11.0081 16.5832 11.1887 16.7136 11.3902 16.8028C11.5917 16.8921 11.8096 16.9382 12.03 16.9382C12.2504 16.9382 12.4683 16.8921 12.6698 16.8028C12.8713 16.7136 13.0519 16.5832 13.2 16.42L15 14.34C15.6511 13.5879 16.0065 12.6247 16 11.63C16.0108 11.0248 15.8841 10.4251 15.6295 9.876C15.3748 9.32689 14.9989 8.84274 14.53 8.46ZM13.91 13.34L11.91 15.42L10.05 13.34C9.77985 13.0328 9.5857 12.6664 9.48322 12.2703C9.38073 11.8743 9.37278 11.4597 9.46 11.06C9.56436 10.5954 9.79671 10.1694 10.1307 9.83002C10.4648 9.49069 10.8871 9.25166 11.35 9.14C11.5638 9.09495 11.7815 9.07149 12 9.07C12.5787 9.06779 13.1404 9.26562 13.59 9.63C13.8988 9.86446 14.1496 10.1667 14.3229 10.5135C14.4963 10.8603 14.5877 11.2423 14.59 11.63C14.5822 12.2644 14.34 12.8735 13.91 13.34ZM13.24 11.63C13.24 11.8752 13.1673 12.115 13.031 12.3189C12.8948 12.5228 12.7011 12.6818 12.4745 12.7756C12.2479 12.8695 11.9986 12.894 11.7581 12.8462C11.5176 12.7983 11.2966 12.6802 11.1232 12.5068C10.9498 12.3334 10.8317 12.1124 10.7838 11.8719C10.736 11.6314 10.7605 11.3821 10.8544 11.1555C10.9482 10.9289 11.1072 10.7352 11.3111 10.599C11.515 10.4627 11.7548 10.39 12 10.39C12.3281 10.3926 12.6419 10.5241 12.8739 10.7561C13.1059 10.9881 13.2374 11.3019 13.24 11.63Z" fill="black"/>
</svg>
