<svg width="24" height="24" viewBox="0 0 24 24" fill="none" xmlns="http://www.w3.org/2000/svg">
<path d="M20.5299 6.46H9.15993C8.96102 6.46 8.77025 6.38098 8.6296 6.24033C8.48895 6.09968 8.40993 5.90891 8.40993 5.71C8.40993 5.51109 8.48895 5.32032 8.6296 5.17967C8.77025 5.03902 8.96102 4.96 9.15993 4.96H20.5299C20.7288 4.96 20.9196 5.03902 21.0603 5.17967C21.2009 5.32032 21.2799 5.51109 21.2799 5.71C21.2799 5.90891 21.2009 6.09968 21.0603 6.24033C20.9196 6.38098 20.7288 6.46 20.5299 6.46ZM16.1099 10.71C16.1113 10.6111 16.0928 10.513 16.0556 10.4214C16.0184 10.3298 15.9632 10.2466 15.8933 10.1767C15.8233 10.1068 15.7401 10.0516 15.6485 10.0143C15.5569 9.97713 15.4588 9.95865 15.3599 9.96H9.15993C8.96102 9.96 8.77025 10.039 8.6296 10.1797C8.48895 10.3203 8.40993 10.5111 8.40993 10.71C8.40993 10.9089 8.48895 11.0997 8.6296 11.2403C8.77025 11.381 8.96102 11.46 9.15993 11.46H15.3599C15.5588 11.46 15.7496 11.381 15.8903 11.2403C16.0309 11.0997 16.1099 10.9089 16.1099 10.71ZM21.2799 15.71C21.2799 15.5111 21.2009 15.3203 21.0603 15.1797C20.9196 15.039 20.7288 14.96 20.5299 14.96H9.15993C8.96102 14.96 8.77025 15.039 8.6296 15.1797C8.48895 15.3203 8.40993 15.5111 8.40993 15.71C8.40993 15.9089 8.48895 16.0997 8.6296 16.2403C8.77025 16.381 8.96102 16.46 9.15993 16.46H20.5299C20.728 16.4574 20.9173 16.3776 21.0574 16.2375C21.1975 16.0974 21.2773 15.9081 21.2799 15.71ZM16.1099 20.71C16.1113 20.6111 16.0928 20.513 16.0556 20.4214C16.0184 20.3298 15.9632 20.2466 15.8933 20.1767C15.8233 20.1068 15.7401 20.0516 15.6485 20.0143C15.5569 19.9771 15.4588 19.9587 15.3599 19.96H9.15993C8.96102 19.96 8.77025 20.039 8.6296 20.1797C8.48895 20.3203 8.40993 20.5111 8.40993 20.71C8.40993 20.9089 8.48895 21.0997 8.6296 21.2403C8.77025 21.381 8.96102 21.46 9.15993 21.46H15.3599C15.5588 21.46 15.7496 21.381 15.8903 21.2403C16.0309 21.0997 16.1099 20.9089 16.1099 20.71ZM5.90993 8.12V3.29C5.90834 3.13355 5.8585 2.9814 5.76723 2.85433C5.67595 2.72726 5.54768 2.63146 5.39993 2.58C5.25272 2.53063 5.09382 2.52817 4.94515 2.57295C4.79649 2.61772 4.66538 2.70754 4.56993 2.83L2.87993 5C2.77001 5.15105 2.7213 5.33808 2.74355 5.52356C2.76581 5.70904 2.8574 5.87924 2.99993 6C3.15178 6.10766 3.33825 6.15501 3.52307 6.13283C3.70789 6.11065 3.87786 6.02053 3.99993 5.88L4.34993 5.44V8.12C4.34993 8.31891 4.42895 8.50968 4.5696 8.65033C4.71025 8.79098 4.90102 8.87 5.09993 8.87C5.29884 8.87 5.48961 8.79098 5.63026 8.65033C5.77091 8.50968 5.84993 8.31891 5.84993 8.12H5.90993ZM6.90993 18.12C6.90993 17.9211 6.83091 17.7303 6.69026 17.5897C6.54961 17.449 6.35884 17.37 6.15993 17.37H5.15993L6.58993 14.96C6.6595 14.8453 6.69745 14.7142 6.69993 14.58C6.76288 14.2883 6.75975 13.9861 6.69075 13.6957C6.62174 13.4054 6.48863 13.1341 6.30116 12.9019C6.1137 12.6697 5.87663 12.4823 5.60735 12.3536C5.33806 12.2249 5.04339 12.1581 4.74493 12.1581C4.44647 12.1581 4.15179 12.2249 3.88251 12.3536C3.61323 12.4823 3.37616 12.6697 3.18869 12.9019C3.00122 13.1341 2.86811 13.4054 2.79911 13.6957C2.73011 13.9861 2.72697 14.2883 2.78993 14.58C2.78993 14.7789 2.86895 14.9697 3.0096 15.1103C3.15025 15.251 3.34102 15.33 3.53993 15.33C3.73884 15.33 3.92961 15.251 4.07026 15.1103C4.21091 14.9697 4.28993 14.7789 4.28993 14.58C4.28235 14.4696 4.31574 14.3602 4.38371 14.2729C4.45168 14.1855 4.54947 14.1263 4.65837 14.1065C4.76728 14.0866 4.87966 14.1077 4.97403 14.1655C5.06841 14.2234 5.13815 14.314 5.16993 14.42L3.16993 17.74C3.1041 17.854 3.06945 17.9833 3.06945 18.115C3.06945 18.2467 3.1041 18.376 3.16993 18.49C3.23679 18.6058 3.33301 18.7019 3.4489 18.7686C3.56478 18.8354 3.69621 18.8703 3.82993 18.87H6.10993C6.2123 18.8716 6.31389 18.852 6.40828 18.8123C6.50267 18.7727 6.5878 18.7138 6.65829 18.6396C6.72879 18.5653 6.7831 18.4773 6.81781 18.3809C6.85252 18.2846 6.86686 18.1821 6.85993 18.08L6.90993 18.12Z" fill="black"/>
</svg>
