<svg width="24" height="24" viewBox="0 0 24 24" fill="none" xmlns="http://www.w3.org/2000/svg">
<path d="M16.0499 22.75H7.99992C6.22379 22.7474 4.52115 22.0406 3.26523 20.7847C2.00931 19.5288 1.30257 17.8261 1.29992 16.05V8C1.29466 7.11631 1.46399 6.24028 1.79822 5.42222C2.13244 4.60416 2.62497 3.86017 3.24751 3.23298C3.87006 2.60578 4.61036 2.10774 5.42592 1.76745C6.24148 1.42715 7.11622 1.2513 7.99992 1.25H16.0999C17.8761 1.26585 19.5734 1.98528 20.82 3.25059C22.0666 4.51589 22.7606 6.22383 22.7499 8V16.1C22.7341 17.8675 22.0216 19.5573 20.7671 20.8024C19.5126 22.0476 17.8174 22.7474 16.0499 22.75ZM7.99992 2.75C7.309 2.74467 6.62392 2.87683 5.98455 3.13879C5.34519 3.40074 4.76431 3.78725 4.27574 4.27582C3.78717 4.76439 3.40066 5.34526 3.13871 5.98463C2.87676 6.62399 2.7446 7.30908 2.74992 8V16.1C2.76576 17.4783 3.32714 18.7942 4.31115 19.7594C5.29515 20.7247 6.62157 21.2607 7.99992 21.25H16.0999C17.4782 21.2474 18.7993 20.6987 19.774 19.724C20.7486 18.7494 21.2973 17.4283 21.2999 16.05V8C21.2973 6.62169 20.7486 5.30058 19.774 4.32596C18.7993 3.35135 17.4782 2.80264 16.0999 2.8L7.99992 2.75ZM16.3399 17.82C16.3413 17.7211 16.3228 17.623 16.2856 17.5314C16.2484 17.4398 16.1932 17.3566 16.1233 17.2867C16.0533 17.2168 15.9701 17.1616 15.8785 17.1243C15.7869 17.0871 15.6888 17.0687 15.5899 17.07H8.45992C8.26101 17.07 8.07025 17.149 7.92959 17.2897C7.78894 17.4303 7.70992 17.6211 7.70992 17.82C7.70992 18.0189 7.78894 18.2097 7.92959 18.3503C8.07025 18.491 8.26101 18.57 8.45992 18.57H15.5399C15.7388 18.57 15.9296 18.491 16.0703 18.3503C16.2109 18.2097 16.2899 18.0189 16.2899 17.82H16.3399ZM16.3399 11.11V6.18C16.3399 5.98109 16.2609 5.79032 16.1203 5.64967C15.9796 5.50902 15.7888 5.43 15.5899 5.43C15.391 5.43 15.2002 5.50902 15.0596 5.64967C14.9189 5.79032 14.8399 5.98109 14.8399 6.18V11.11C14.8619 11.8924 14.5772 12.6524 14.0466 13.2279C13.516 13.8033 12.7815 14.1486 11.9999 14.19C11.2272 14.1361 10.5053 13.7854 9.98524 13.2113C9.46521 12.6372 9.18739 11.8843 9.20992 11.11V6.18C9.20992 5.98109 9.13091 5.79032 8.99025 5.64967C8.8496 5.50902 8.65884 5.43 8.45992 5.43C8.26101 5.43 8.07025 5.50902 7.92959 5.64967C7.78894 5.79032 7.70992 5.98109 7.70992 6.18V11.11C7.67217 12.286 8.10278 13.429 8.90717 14.2877C9.71155 15.1465 10.8239 15.6509 11.9999 15.69C13.1759 15.6509 14.2883 15.1465 15.0927 14.2877C15.8971 13.429 16.3277 12.286 16.2899 11.11H16.3399Z" fill="black"/>
</svg>
