<svg width="24" height="24" viewBox="0 0 24 24" fill="none" xmlns="http://www.w3.org/2000/svg">
<path d="M12.0002 22.75C11.6253 22.7603 11.2526 22.6897 10.9075 22.5431C10.5624 22.3964 10.2529 22.1771 10.0002 21.9C9.45435 21.2512 9.18186 20.4158 9.24016 19.57V6.00001H5.66016C4.93565 6.04121 4.22202 5.80928 3.66016 5.35001C3.41719 5.13112 3.22438 4.86232 3.09493 4.562C2.96548 4.26168 2.90246 3.93694 2.91016 3.61001C2.9003 3.27407 2.96515 2.94014 3.10004 2.63232C3.23493 2.32449 3.43648 2.05046 3.69016 1.83001C4.26072 1.38984 4.97066 1.16976 5.69016 1.21001H18.3202C19.0434 1.17826 19.7538 1.40912 20.3202 1.86001C20.5634 2.08084 20.7562 2.35141 20.8856 2.65337C21.0151 2.95532 21.078 3.28158 21.0702 3.61001C21.0768 3.94015 21.0114 4.26778 20.8784 4.57003C20.7454 4.87228 20.5481 5.14187 20.3002 5.36001C19.7324 5.80732 19.0222 6.03458 18.3002 6.00001H14.7002V19.57C14.7706 20.4104 14.5205 21.2464 14.0002 21.91C13.7478 22.1868 13.4381 22.4054 13.0927 22.5504C12.7473 22.6955 12.3745 22.7636 12.0002 22.75ZM5.66016 2.75001C5.30704 2.72136 4.95461 2.813 4.66016 3.01001C4.5687 3.08804 4.49734 3.18691 4.45209 3.29829C4.40684 3.40967 4.38903 3.5303 4.40016 3.65001C4.39175 3.76706 4.40986 3.8845 4.45315 3.99358C4.49644 4.10266 4.56378 4.20057 4.65016 4.28001C4.94428 4.47775 5.29697 4.56945 5.65016 4.54001H10.7402V19.54C10.6949 20.0092 10.823 20.4787 11.1002 20.86C11.2138 20.9806 11.3522 21.0752 11.5058 21.1373C11.6594 21.1995 11.8246 21.2277 11.9902 21.22C12.152 21.2294 12.3139 21.2029 12.4643 21.1424C12.6147 21.0819 12.7499 20.9889 12.8602 20.87C13.1304 20.482 13.2544 20.0108 13.2102 19.54V4.54001H18.3102C18.6647 4.56901 19.0184 4.47354 19.3102 4.27001C19.3994 4.19453 19.4694 4.099 19.5146 3.99124C19.5598 3.88347 19.5788 3.76654 19.5702 3.65001C19.5847 3.53209 19.5725 3.41241 19.5344 3.29987C19.4963 3.18733 19.4333 3.08484 19.3502 3.00001C19.0548 2.80513 18.7031 2.7137 18.3502 2.74001L5.66016 2.75001Z" fill="black"/>
</svg>
