<svg width="24" height="24" viewBox="0 0 24 24" fill="none" xmlns="http://www.w3.org/2000/svg">
<path d="M20.75 5.25H3.25C3.05109 5.25 2.86032 5.17098 2.71967 5.03033C2.57902 4.88968 2.5 4.69891 2.5 4.5C2.5 4.30109 2.57902 4.11032 2.71967 3.96967C2.86032 3.82902 3.05109 3.75 3.25 3.75H20.75C20.9489 3.75 21.1397 3.82902 21.2803 3.96967C21.421 4.11032 21.5 4.30109 21.5 4.5C21.5 4.69891 21.421 4.88968 21.2803 5.03033C21.1397 5.17098 20.9489 5.25 20.75 5.25ZM21.5 9.5C21.5 9.30109 21.421 9.11032 21.2803 8.96967C21.1397 8.82902 20.9489 8.75 20.75 8.75H11.2C11.0011 8.75 10.8103 8.82902 10.6697 8.96967C10.529 9.11032 10.45 9.30109 10.45 9.5C10.45 9.69891 10.529 9.88968 10.6697 10.0303C10.8103 10.171 11.0011 10.25 11.2 10.25H20.75C20.9489 10.25 21.1397 10.171 21.2803 10.0303C21.421 9.88968 21.5 9.69891 21.5 9.5ZM21.5 14.5C21.5 14.3011 21.421 14.1103 21.2803 13.9697C21.1397 13.829 20.9489 13.75 20.75 13.75H3.25C3.05109 13.75 2.86032 13.829 2.71967 13.9697C2.57902 14.1103 2.5 14.3011 2.5 14.5C2.5 14.6989 2.57902 14.8897 2.71967 15.0303C2.86032 15.171 3.05109 15.25 3.25 15.25H20.75C20.9489 15.25 21.1397 15.171 21.2803 15.0303C21.421 14.8897 21.5 14.6989 21.5 14.5ZM21.5 19.5C21.5 19.3011 21.421 19.1103 21.2803 18.9697C21.1397 18.829 20.9489 18.75 20.75 18.75H11.2C11.0011 18.75 10.8103 18.829 10.6697 18.9697C10.529 19.1103 10.45 19.3011 10.45 19.5C10.45 19.6989 10.529 19.8897 10.6697 20.0303C10.8103 20.171 11.0011 20.25 11.2 20.25H20.75C20.9489 20.25 21.1397 20.171 21.2803 20.0303C21.421 19.8897 21.5 19.6989 21.5 19.5Z" fill="black"/>
</svg>
