<svg width="24" height="24" viewBox="0 0 24 24" fill="none" xmlns="http://www.w3.org/2000/svg">
<path d="M15.0501 11.39C15.5392 10.8399 15.8034 10.1259 15.7901 9.39C15.7901 8.59435 15.474 7.83129 14.9114 7.26868C14.3488 6.70607 13.5858 6.39 12.7901 6.39H8.00012C7.80121 6.39 7.61044 6.46902 7.46979 6.60967C7.32914 6.75032 7.25012 6.94109 7.25012 7.14V16.78C7.25012 16.9789 7.32914 17.1697 7.46979 17.3103C7.61044 17.451 7.80121 17.53 8.00012 17.53H13.4001C14.132 17.5342 14.8446 17.295 15.4256 16.85C16.0067 16.4049 16.4233 15.7794 16.61 15.0717C16.7967 14.3639 16.7428 13.6143 16.4568 12.9405C16.1708 12.2668 15.6689 11.7073 15.0301 11.35L15.0501 11.39ZM8.77012 7.93H12.7701C13.1381 7.97256 13.4776 8.1489 13.724 8.42548C13.9705 8.70205 14.1066 9.05956 14.1066 9.43C14.1066 9.80043 13.9705 10.1579 13.724 10.4345C13.4776 10.7111 13.1381 10.8874 12.7701 10.93H8.77012V7.93ZM13.4201 16.07H8.77012V12.45H13.4201C13.9002 12.45 14.3605 12.6407 14.7 12.9801C15.0394 13.3196 15.2301 13.78 15.2301 14.26C15.2301 14.74 15.0394 15.2004 14.7 15.5399C14.3605 15.8793 13.9002 16.07 13.4201 16.07ZM16.0501 1.25H8.00012C7.11221 1.24469 6.23208 1.41566 5.41074 1.753C4.58939 2.09034 3.84317 2.58734 3.21531 3.21519C2.58746 3.84305 2.09046 4.58927 1.75312 5.41062C1.41578 6.23196 1.24481 7.11209 1.25012 8V16.1C1.26597 17.8761 1.9854 19.5735 3.25071 20.8201C4.51601 22.0666 6.22395 22.7607 8.00012 22.75H16.1001C17.8763 22.7474 19.5789 22.0406 20.8348 20.7847C22.0907 19.5288 22.7975 17.8261 22.8001 16.05V8C22.8054 7.11209 22.6345 6.23196 22.2971 5.41062C21.9598 4.58927 21.4628 3.84305 20.8349 3.21519C20.2071 2.58734 19.4608 2.09034 18.6395 1.753C17.8182 1.41566 16.938 1.24469 16.0501 1.25ZM21.2501 16.05C21.2475 17.4283 20.6988 18.7494 19.7242 19.724C18.7495 20.6987 17.4284 21.2474 16.0501 21.25H8.00012C6.62181 21.2474 5.3007 20.6987 4.32608 19.724C3.35147 18.7494 2.80276 17.4283 2.80012 16.05V8C2.79485 7.31329 2.92538 6.63232 3.18422 5.99624C3.44306 5.36017 3.8251 4.78154 4.30836 4.29363C4.79161 3.80573 5.36656 3.41817 6.00013 3.15326C6.6337 2.88834 7.3134 2.7513 8.00012 2.75H16.1001C17.4784 2.76583 18.7943 3.32722 19.7596 4.31122C20.7248 5.29522 21.2608 6.62164 21.2501 8V16.05Z" fill="black"/>
</svg>
