<svg width="24" height="24" viewBox="0 0 24 24" fill="none" xmlns="http://www.w3.org/2000/svg">
<path d="M16.0498 0.999999H7.9998C6.22367 1.00264 4.52103 1.70938 3.26511 2.9653C2.00919 4.22123 1.30245 5.92386 1.2998 7.7V15.8C1.31561 17.5675 2.02815 19.2573 3.28265 20.5024C4.53715 21.7476 6.23228 22.4474 7.9998 22.45H16.0998C17.8759 22.4474 19.5786 21.7406 20.8345 20.4847C22.0904 19.2288 22.7972 17.5261 22.7998 15.75V7.65C22.784 5.87387 22.0645 4.17648 20.7992 2.92992C19.5339 1.68336 17.826 0.98934 16.0498 0.999999ZM21.2498 15.8C21.2445 17.1775 20.695 18.4971 19.7209 19.4711C18.7469 20.4452 17.4273 20.9947 16.0498 21H7.9998C6.6223 20.9947 5.30272 20.4452 4.32867 19.4711C3.35462 18.4971 2.80507 17.1775 2.7998 15.8V7.65C2.80245 6.27169 3.35115 4.95058 4.32577 3.97596C5.30039 3.00135 6.62149 2.45264 7.9998 2.45H16.0998C17.4781 2.45264 18.7992 3.00135 19.7738 3.97596C20.7485 4.95058 21.2972 6.27169 21.2998 7.65L21.2498 15.8ZM15.9998 7.18C15.9998 7.37891 15.9208 7.56968 15.7801 7.71033C15.6395 7.85098 15.4487 7.93 15.2498 7.93H13.4298L12.0898 16.07H13.8398C14.0387 16.07 14.2295 16.149 14.3701 16.2897C14.5108 16.4303 14.5898 16.6211 14.5898 16.82C14.5898 17.0189 14.5108 17.2097 14.3701 17.3503C14.2295 17.491 14.0387 17.57 13.8398 17.57H8.8998C8.70089 17.57 8.51013 17.491 8.36947 17.3503C8.22882 17.2097 8.1498 17.0189 8.1498 16.82C8.1498 16.6211 8.22882 16.4303 8.36947 16.2897C8.51013 16.149 8.70089 16.07 8.8998 16.07H10.5698L11.9098 7.93H10.3198C10.1209 7.93 9.93013 7.85098 9.78947 7.71033C9.64882 7.56968 9.5698 7.37891 9.5698 7.18C9.5698 6.98109 9.64882 6.79032 9.78947 6.64967C9.93013 6.50902 10.1209 6.43 10.3198 6.43H15.2598C15.4562 6.43515 15.6429 6.51613 15.7809 6.65595C15.9188 6.79578 15.9973 6.98359 15.9998 7.18Z" fill="black"/>
</svg>
