<svg width="24" height="24" viewBox="0 0 24 24" fill="none" xmlns="http://www.w3.org/2000/svg">
<path d="M20.5999 5.89998H9.2299C9.03099 5.89998 8.84022 5.82096 8.69957 5.68031C8.55892 5.53965 8.4799 5.34889 8.4799 5.14998C8.4799 4.95106 8.55892 4.7603 8.69957 4.61965C8.84022 4.47899 9.03099 4.39998 9.2299 4.39998H20.5999C20.7988 4.39998 20.9896 4.47899 21.1302 4.61965C21.2709 4.7603 21.3499 4.95106 21.3499 5.14998C21.3499 5.34889 21.2709 5.53965 21.1302 5.68031C20.9896 5.82096 20.7988 5.89998 20.5999 5.89998ZM16.1899 10.15C16.1873 9.95187 16.1075 9.7626 15.9674 9.62251C15.8273 9.48241 15.638 9.40257 15.4399 9.39998H9.2299C9.03099 9.39998 8.84022 9.47899 8.69957 9.61965C8.55892 9.7603 8.4799 9.95106 8.4799 10.15C8.4799 10.3489 8.55892 10.5397 8.69957 10.6803C8.84022 10.821 9.03099 10.9 9.2299 10.9H15.4399C15.638 10.8974 15.8273 10.8175 15.9674 10.6774C16.1075 10.5373 16.1873 10.3481 16.1899 10.15ZM21.3499 15.15C21.3499 14.9511 21.2709 14.7603 21.1302 14.6196C20.9896 14.479 20.7988 14.4 20.5999 14.4H9.2299C9.03099 14.4 8.84022 14.479 8.69957 14.6196C8.55892 14.7603 8.4799 14.9511 8.4799 15.15C8.4799 15.3489 8.55892 15.5397 8.69957 15.6803C8.84022 15.821 9.03099 15.9 9.2299 15.9H20.5999C20.7988 15.9 20.9896 15.821 21.1302 15.6803C21.2709 15.5397 21.3499 15.3489 21.3499 15.15ZM16.1899 20.15C16.1873 19.9519 16.1075 19.7626 15.9674 19.6225C15.8273 19.4824 15.638 19.4026 15.4399 19.4H9.2299C9.03099 19.4 8.84022 19.479 8.69957 19.6196C8.55892 19.7603 8.4799 19.9511 8.4799 20.15C8.4799 20.3489 8.55892 20.5397 8.69957 20.6803C8.84022 20.821 9.03099 20.9 9.2299 20.9H15.4399C15.638 20.8974 15.8273 20.8175 15.9674 20.6774C16.1075 20.5373 16.1873 20.3481 16.1899 20.15ZM4.6999 3.84998C4.44279 3.84998 4.19145 3.92622 3.97766 4.06907C3.76388 4.21191 3.59725 4.41494 3.49886 4.65249C3.40047 4.89003 3.37472 5.15142 3.42488 5.40359C3.47504 5.65577 3.59886 5.88741 3.78066 6.06921C3.96247 6.25102 4.19411 6.37484 4.44629 6.425C4.69846 6.47516 4.95985 6.44941 5.19739 6.35102C5.43494 6.25262 5.63797 6.086 5.78081 5.87222C5.92366 5.65843 5.9999 5.40709 5.9999 5.14998C5.9999 4.80519 5.86294 4.47453 5.61914 4.23074C5.37534 3.98694 5.04468 3.84998 4.6999 3.84998ZM4.6999 13.85C4.44279 13.85 4.19145 13.9262 3.97766 14.0691C3.76388 14.2119 3.59725 14.4149 3.49886 14.6525C3.40047 14.89 3.37472 15.1514 3.42488 15.4036C3.47504 15.6558 3.59886 15.8874 3.78066 16.0692C3.96247 16.251 4.19411 16.3748 4.44629 16.425C4.69846 16.4752 4.95985 16.4494 5.19739 16.351C5.43494 16.2526 5.63797 16.086 5.78081 15.8722C5.92366 15.6584 5.9999 15.4071 5.9999 15.15C5.9999 14.8052 5.86294 14.4745 5.61914 14.2307C5.37534 13.9869 5.04468 13.85 4.6999 13.85Z" fill="black"/>
</svg>
