<svg width="24" height="24" viewBox="0 0 24 24" fill="none" xmlns="http://www.w3.org/2000/svg">
<path d="M16.0501 1.25H8.00012C7.11221 1.24469 6.23208 1.41566 5.41074 1.753C4.58939 2.09034 3.84317 2.58734 3.21531 3.21519C2.58746 3.84305 2.09046 4.58927 1.75312 5.41062C1.41578 6.23196 1.24481 7.11209 1.25012 8V16.1C1.26597 17.8761 1.9854 19.5735 3.25071 20.8201C4.51601 22.0666 6.22395 22.7607 8.00012 22.75H16.1001C17.8763 22.7474 19.5789 22.0406 20.8348 20.7847C22.0907 19.5288 22.7975 17.8261 22.8001 16.05V8C22.8054 7.11209 22.6345 6.23196 22.2971 5.41062C21.9598 4.58927 21.4628 3.84305 20.8349 3.21519C20.2071 2.58734 19.4608 2.09034 18.6395 1.753C17.8182 1.41566 16.938 1.24469 16.0501 1.25ZM21.2501 16.05C21.2475 17.4283 20.6988 18.7494 19.7242 19.724C18.7495 20.6987 17.4284 21.2474 16.0501 21.25H8.00012C6.62181 21.2474 5.3007 20.6987 4.32608 19.724C3.35147 18.7494 2.80276 17.4283 2.80012 16.05V8C2.79485 7.31329 2.92538 6.63232 3.18422 5.99624C3.44306 5.36017 3.8251 4.78154 4.30836 4.29363C4.79161 3.80573 5.36656 3.41817 6.00013 3.15326C6.6337 2.88834 7.3134 2.7513 8.00012 2.75H16.1001C17.4784 2.76583 18.7943 3.32722 19.7596 4.31122C20.7248 5.29522 21.2608 6.62164 21.2501 8V16.05ZM18.5401 12.75C18.5401 12.9489 18.4611 13.1397 18.3204 13.2803C18.1798 13.421 17.989 13.5 17.7901 13.5H15.2001C15.2716 13.7471 15.3087 14.0028 15.3101 14.26C15.3101 15.0556 14.994 15.8187 14.4314 16.3813C13.8688 16.9439 13.1058 17.26 12.3101 17.26H9.31012C9.11121 17.26 8.92044 17.181 8.77979 17.0403C8.63914 16.8997 8.56012 16.7089 8.56012 16.51C8.56012 16.3111 8.63914 16.1203 8.77979 15.9797C8.92044 15.839 9.11121 15.76 9.31012 15.76H12.3101C12.575 15.7612 12.8354 15.6922 13.065 15.5602C13.2946 15.4281 13.4851 15.2375 13.6172 15.0079C13.7492 14.7783 13.8181 14.5179 13.8169 14.253C13.8157 13.9882 13.7443 13.7283 13.6101 13.5H6.21012C6.01121 13.5 5.82044 13.421 5.67979 13.2803C5.53914 13.1397 5.46012 12.9489 5.46012 12.75C5.46012 12.5511 5.53914 12.3603 5.67979 12.2197C5.82044 12.079 6.01121 12 6.21012 12H8.67012C8.34155 11.7215 8.07681 11.3755 7.8939 10.9855C7.71099 10.5955 7.6142 10.1707 7.61012 9.74C7.61012 8.94435 7.92619 8.18129 8.4888 7.61868C9.05141 7.05607 9.81447 6.74 10.6101 6.74H13.6101C13.809 6.74 13.9998 6.81902 14.1405 6.95967C14.2811 7.10032 14.3601 7.29109 14.3601 7.49C14.3601 7.68891 14.2811 7.87968 14.1405 8.02033C13.9998 8.16098 13.809 8.24 13.6101 8.24H10.6101C10.3986 8.21553 10.1843 8.23608 9.98126 8.3003C9.77824 8.36451 9.59109 8.47094 9.43211 8.61259C9.27312 8.75425 9.1459 8.92793 9.05878 9.12223C8.97166 9.31653 8.92663 9.52706 8.92663 9.74C8.92663 9.95294 8.97166 10.1635 9.05878 10.3578C9.1459 10.5521 9.27312 10.7257 9.43211 10.8674C9.59109 11.0091 9.77824 11.1155 9.98126 11.1797C10.1843 11.2439 10.3986 11.2645 10.6101 11.24H12.3001C13.0362 11.2362 13.748 11.5031 14.3001 11.99H17.8201C18.0147 12.0003 18.1979 12.0848 18.3318 12.2263C18.4658 12.3677 18.5404 12.5552 18.5401 12.75Z" fill="black"/>
</svg>
