<svg width="24" height="24" viewBox="0 0 24 24" fill="none" xmlns="http://www.w3.org/2000/svg">
<path d="M20.75 5.25H3.25C3.05109 5.25 2.86032 5.17098 2.71967 5.03033C2.57902 4.88968 2.5 4.69891 2.5 4.5C2.5 4.30109 2.57902 4.11032 2.71967 3.96967C2.86032 3.82902 3.05109 3.75 3.25 3.75H20.75C20.9489 3.75 21.1397 3.82902 21.2803 3.96967C21.421 4.11032 21.5 4.30109 21.5 4.5C21.5 4.69891 21.421 4.88968 21.2803 5.03033C21.1397 5.17098 20.9489 5.25 20.75 5.25ZM21.5 9.5C21.5 9.30109 21.421 9.11032 21.2803 8.96967C21.1397 8.82902 20.9489 8.75 20.75 8.75H3.25C3.05109 8.75 2.86032 8.82902 2.71967 8.96967C2.57902 9.11032 2.5 9.30109 2.5 9.5C2.5 9.69891 2.57902 9.88968 2.71967 10.0303C2.86032 10.171 3.05109 10.25 3.25 10.25H20.75C20.9489 10.25 21.1397 10.171 21.2803 10.0303C21.421 9.88968 21.5 9.69891 21.5 9.5ZM21.5 14.5C21.5 14.3011 21.421 14.1103 21.2803 13.9697C21.1397 13.829 20.9489 13.75 20.75 13.75H3.25C3.05109 13.75 2.86032 13.829 2.71967 13.9697C2.57902 14.1103 2.5 14.3011 2.5 14.5C2.5 14.6989 2.57902 14.8897 2.71967 15.0303C2.86032 15.171 3.05109 15.25 3.25 15.25H20.75C20.9489 15.25 21.1397 15.171 21.2803 15.0303C21.421 14.8897 21.5 14.6989 21.5 14.5ZM13.55 19.5C13.55 19.3011 13.471 19.1103 13.3303 18.9697C13.1897 18.829 12.9989 18.75 12.8 18.75H3.25C3.05109 18.75 2.86032 18.829 2.71967 18.9697C2.57902 19.1103 2.5 19.3011 2.5 19.5C2.5 19.6989 2.57902 19.8897 2.71967 20.0303C2.86032 20.171 3.05109 20.25 3.25 20.25H12.8C12.9989 20.25 13.1897 20.171 13.3303 20.0303C13.471 19.8897 13.55 19.6989 13.55 19.5Z" fill="black"/>
</svg>
