<svg width="24" height="24" viewBox="0 0 24 24" fill="none" xmlns="http://www.w3.org/2000/svg">
<path d="M20.75 5.25H3.25C3.05109 5.25 2.86032 5.17098 2.71967 5.03033C2.57902 4.88968 2.5 4.69891 2.5 4.5C2.5 4.30109 2.57902 4.11032 2.71967 3.96967C2.86032 3.82902 3.05109 3.75 3.25 3.75H20.75C20.9489 3.75 21.1397 3.82902 21.2803 3.96967C21.421 4.11032 21.5 4.30109 21.5 4.5C21.5 4.69891 21.421 4.88968 21.2803 5.03033C21.1397 5.17098 20.9489 5.25 20.75 5.25ZM17.53 9.5C17.5274 9.30189 17.4476 9.11263 17.3075 8.97253C17.1674 8.83244 16.9781 8.75259 16.78 8.75H7.22C7.02109 8.75 6.83032 8.82902 6.68967 8.96967C6.54902 9.11032 6.47 9.30109 6.47 9.5C6.47 9.69891 6.54902 9.88968 6.68967 10.0303C6.83032 10.171 7.02109 10.25 7.22 10.25H16.78C16.9781 10.2474 17.1674 10.1676 17.3075 10.0275C17.4476 9.88737 17.5274 9.69811 17.53 9.5ZM21.53 14.5C21.53 14.3011 21.451 14.1103 21.3103 13.9697C21.1697 13.829 20.9789 13.75 20.78 13.75H3.25C3.05109 13.75 2.86032 13.829 2.71967 13.9697C2.57902 14.1103 2.5 14.3011 2.5 14.5C2.5 14.6989 2.57902 14.8897 2.71967 15.0303C2.86032 15.171 3.05109 15.25 3.25 15.25H20.75C20.9489 15.25 21.1397 15.171 21.2803 15.0303C21.421 14.8897 21.5 14.6989 21.5 14.5H21.53ZM17.53 19.5C17.5274 19.3019 17.4476 19.1126 17.3075 18.9725C17.1674 18.8324 16.9781 18.7526 16.78 18.75H7.22C7.02109 18.75 6.83032 18.829 6.68967 18.9697C6.54902 19.1103 6.47 19.3011 6.47 19.5C6.47 19.6989 6.54902 19.8897 6.68967 20.0303C6.83032 20.171 7.02109 20.25 7.22 20.25H16.78C16.9781 20.2474 17.1674 20.1676 17.3075 20.0275C17.4476 19.8874 17.5274 19.6981 17.53 19.5Z" fill="black"/>
</svg>
