<svg width="24" height="24" viewBox="0 0 24 24" fill="none" xmlns="http://www.w3.org/2000/svg">
<path d="M18 7.39005L16.59 6.00005C16.262 5.67335 15.818 5.48992 15.355 5.48992C14.8921 5.48992 14.448 5.67335 14.12 6.00005L11.28 8.81005C11.1155 8.97196 10.9849 9.16498 10.8958 9.37787C10.8066 9.59075 10.7607 9.81925 10.7607 10.0501C10.7607 10.2809 10.8066 10.5093 10.8958 10.7222C10.9849 10.9351 11.1155 11.1281 11.28 11.2901L12.7 12.7101C12.863 12.8724 13.0565 13.001 13.2692 13.0885C13.482 13.176 13.71 13.2207 13.94 13.2201C14.1686 13.2205 14.3949 13.1757 14.6061 13.0881C14.8172 13.0006 15.0089 12.8721 15.17 12.7101L18 9.87005C18.3273 9.54036 18.511 9.09463 18.511 8.63005C18.511 8.16547 18.3273 7.71974 18 7.39005ZM17 8.81005L14.15 11.6501C14.03 11.7801 13.93 11.7801 13.8 11.6501L12.38 10.2301C12.3552 10.207 12.3353 10.1792 12.3216 10.1483C12.3078 10.1173 12.3005 10.0839 12.3 10.0501C12.2999 10.0161 12.3069 9.98249 12.3207 9.95146C12.3345 9.92044 12.3547 9.89269 12.38 9.87005L15.18 7.00005C15.2378 6.9767 15.3023 6.9767 15.36 7.00005C15.3917 6.9994 15.4231 7.00528 15.4523 7.01733C15.4816 7.02937 15.508 7.04732 15.53 7.07005L17 8.45005C17.0443 8.49955 17.0688 8.56364 17.0688 8.63005C17.0688 8.69646 17.0443 8.76055 17 8.81005ZM22.41 5.41005C21.475 3.85023 20.1698 2.54504 18.61 1.61005C18.0771 1.2951 17.4535 1.16918 16.8401 1.25266C16.2267 1.33614 15.6594 1.62414 15.23 2.07005L14.87 2.42005L10.87 6.42005C10.1705 7.09461 9.57113 7.86575 9.09003 8.71005L6.83003 12.7801C6.44029 13.4886 5.9521 14.1384 5.38003 14.7101L4.19003 15.9001L2.06003 18C1.80198 18.2588 1.59741 18.5658 1.45801 18.9035C1.31861 19.2413 1.2471 19.6032 1.24756 19.9686C1.24803 20.334 1.32046 20.6957 1.46072 21.0331C1.60098 21.3705 1.80632 21.677 2.06503 21.935C2.32373 22.1931 2.63073 22.3977 2.96849 22.5371C3.30625 22.6765 3.66816 22.748 4.03356 22.7475C4.39896 22.7471 4.76069 22.6746 5.0981 22.5344C5.4355 22.3941 5.74198 22.1888 6.00003 21.93L8.08003 19.8L9.27003 18.6101C9.84798 18.0425 10.4967 17.5518 11.2 17.1501L15.27 14.8901C16.099 14.4316 16.8597 13.8594 17.53 13.1901L21.53 9.19005L21.88 8.84005C22.217 8.5069 22.4647 8.09419 22.6 7.64005C22.7205 7.27304 22.7622 6.88477 22.7226 6.50055C22.683 6.11632 22.5628 5.74476 22.37 5.41005H22.41ZM21.12 6.18005C21.1856 6.29538 21.2328 6.42021 21.26 6.55005C21.2649 6.5899 21.2649 6.6302 21.26 6.67005C21.27 6.75977 21.27 6.85033 21.26 6.94005C21.2642 6.98662 21.2642 7.03348 21.26 7.08005C21.2379 7.16149 21.2112 7.24161 21.18 7.32005C21.1606 7.36538 21.1372 7.40888 21.11 7.45005C21.0936 7.48226 21.0734 7.51246 21.05 7.54005L16.45 3.00005L16.63 2.88005H16.72C16.8591 2.82065 17.0088 2.79004 17.16 2.79005C17.2297 2.78007 17.3004 2.78007 17.37 2.79005H17.49C17.5989 2.81862 17.7033 2.86239 17.8 2.92005C19.1486 3.71561 20.2762 4.83641 21.08 6.18005H21.12ZM4.90003 20.8701C4.65898 21.0964 4.34072 21.2225 4.01003 21.2225C3.67933 21.2225 3.36107 21.0964 3.12003 20.8701C2.88431 20.6338 2.75193 20.3138 2.75193 19.98C2.75193 19.6463 2.88431 19.3263 3.12003 19.09L4.72003 17.49L6.49003 19.2701L4.90003 20.8701ZM16.47 12.1301C15.8984 12.7021 15.2486 13.1903 14.54 13.5801L10.48 15.8401C9.64922 16.3043 8.88554 16.8796 8.21003 17.55L7.55003 18.21L5.78003 16.4301L6.44003 15.7701C7.10938 15.0997 7.6816 14.339 8.14003 13.5101L10.4 9.44005C10.7967 8.73331 11.2879 8.08399 11.86 7.51005L15.36 4.00005L20 8.63005L16.47 12.1301Z" fill="black"/>
</svg>
