<svg width="24" height="24" viewBox="0 0 24 24" fill="none" xmlns="http://www.w3.org/2000/svg">
<path d="M15.1298 18.75H8.86979C8.17574 18.7474 7.51086 18.4705 7.02008 17.9797C6.52931 17.4889 6.25243 16.8241 6.24979 16.13V7.87C6.25243 7.17594 6.52931 6.51107 7.02008 6.02029C7.51086 5.52951 8.17574 5.25263 8.86979 5.25H15.1298C15.8239 5.25263 16.4887 5.52951 16.9795 6.02029C17.4703 6.51107 17.7472 7.17594 17.7498 7.87V16.13C17.7472 16.8241 17.4703 17.4889 16.9795 17.9797C16.4887 18.4705 15.8239 18.7474 15.1298 18.75ZM8.86979 6.75C8.57275 6.75 8.28787 6.868 8.07783 7.07804C7.86779 7.28808 7.74979 7.57296 7.74979 7.87V16.13C7.74979 16.427 7.86779 16.7119 8.07783 16.922C8.28787 17.132 8.57275 17.25 8.86979 17.25H15.1298C15.4268 17.25 15.7117 17.132 15.9218 16.922C16.1318 16.7119 16.2498 16.427 16.2498 16.13V7.87C16.2498 7.57296 16.1318 7.28808 15.9218 7.07804C15.7117 6.868 15.4268 6.75 15.1298 6.75H8.86979ZM9.99979 10.88H13.9998C14.1987 10.88 14.3895 10.801 14.5301 10.6603C14.6708 10.5197 14.7498 10.3289 14.7498 10.13C14.7498 9.93109 14.6708 9.74032 14.5301 9.59967C14.3895 9.45902 14.1987 9.38 13.9998 9.38H12.7498V8.06C12.7498 7.86109 12.6708 7.67032 12.5301 7.52967C12.3895 7.38902 12.1987 7.31 11.9998 7.31C11.8009 7.31 11.6101 7.38902 11.4695 7.52967C11.3288 7.67032 11.2498 7.86109 11.2498 8.06V9.38H9.99979C9.80088 9.38 9.61012 9.45902 9.46946 9.59967C9.32881 9.74032 9.24979 9.93109 9.24979 10.13C9.24979 10.3289 9.32881 10.5197 9.46946 10.6603C9.61012 10.801 9.80088 10.88 9.99979 10.88ZM13.9998 12.38H9.99979C9.80088 12.38 9.61012 12.459 9.46946 12.5997C9.32881 12.7403 9.24979 12.9311 9.24979 13.13C9.24979 13.3289 9.32881 13.5197 9.46946 13.6603C9.61012 13.801 9.80088 13.88 9.99979 13.88H11.2598V15.94C11.2598 16.1389 11.3388 16.3297 11.4795 16.4703C11.6201 16.611 11.8109 16.69 12.0098 16.69C12.2087 16.69 12.3995 16.611 12.5401 16.4703C12.6808 16.3297 12.7598 16.1389 12.7598 15.94V13.88H13.9998C14.1987 13.88 14.3895 13.801 14.5301 13.6603C14.6708 13.5197 14.7498 13.3289 14.7498 13.13C14.7498 12.9311 14.6708 12.7403 14.5301 12.5997C14.3895 12.459 14.1987 12.38 13.9998 12.38ZM16.0598 22.75H7.92979C7.04562 22.7487 6.1704 22.5729 5.35429 22.2327C4.53817 21.8926 3.79721 21.3947 3.17387 20.7676C2.55053 20.1406 2.05705 19.3967 1.72174 18.5785C1.38642 17.7604 1.21585 16.8842 1.21979 16V8C1.21585 7.11584 1.38642 6.23959 1.72174 5.42146C2.05705 4.60334 2.55053 3.85944 3.17387 3.23238C3.79721 2.60532 4.53817 2.10743 5.35429 1.76726C6.1704 1.42708 7.04562 1.25131 7.92979 1.25H16.0698C16.954 1.25131 17.8292 1.42708 18.6453 1.76726C19.4614 2.10743 20.2024 2.60532 20.8257 3.23238C21.4491 3.85944 21.9425 4.60334 22.2779 5.42146C22.6132 6.23959 22.7837 7.11584 22.7798 8V16C22.7837 16.8842 22.6132 17.7604 22.2779 18.5785C21.9425 19.3967 21.4491 20.1406 20.8257 20.7676C20.2024 21.3947 19.4614 21.8926 18.6453 22.2327C17.8292 22.5729 16.954 22.7487 16.0698 22.75H16.0598ZM7.91979 2.75C7.23345 2.75262 6.55435 2.89056 5.92138 3.15594C5.28841 3.42132 4.71399 3.80893 4.23099 4.29657C3.74799 4.78421 3.36591 5.36231 3.1066 5.9978C2.84729 6.63328 2.71584 7.31366 2.71979 8V16C2.72244 17.381 3.27219 18.7046 4.24869 19.6811C5.22518 20.6576 6.54883 21.2074 7.92979 21.21H16.0698C17.4508 21.2074 18.7744 20.6576 19.7509 19.6811C20.7274 18.7046 21.2772 17.381 21.2798 16V8C21.2772 6.61903 20.7274 5.29539 19.7509 4.31889C18.7744 3.3424 17.4508 2.79264 16.0698 2.79L7.91979 2.75Z" fill="black"/>
</svg>
