<svg width="24" height="24" viewBox="0 0 24 24" fill="none" xmlns="http://www.w3.org/2000/svg">
<path d="M9.61991 22.75C8.22825 22.7541 6.86697 22.3433 5.70991 21.57C4.50395 20.7673 3.57282 19.6145 3.04182 18.2667C2.51081 16.9188 2.40542 15.4407 2.73983 14.0312C3.07424 12.6216 3.8324 11.3484 4.91227 10.3827C5.99215 9.41708 7.34191 8.8054 8.77991 8.63H9.38991C9.81337 8.63281 10.2235 8.77852 10.5538 9.0435C10.8841 9.30848 11.1153 9.67723 11.2099 10.09C11.2465 10.2066 11.2667 10.3278 11.2699 10.45V11.78C11.2704 12.2465 11.0907 12.6952 10.7684 13.0324C10.446 13.3696 10.0059 13.5694 9.53991 13.59C9.00542 13.6295 8.50471 13.8664 8.13509 14.2545C7.76547 14.6426 7.55333 15.1542 7.53991 15.69C7.53845 16.0716 7.64102 16.4464 7.8366 16.7742C8.03217 17.1019 8.31334 17.3701 8.64991 17.55L8.78991 17.63C9.0633 17.7403 9.35509 17.798 9.64991 17.8C10.2078 17.8 10.743 17.5791 11.1384 17.1855C11.5338 16.792 11.7573 16.2579 11.7599 15.7V3.07C11.7599 2.58731 11.9517 2.12438 12.293 1.78307C12.6343 1.44175 13.0972 1.25 13.5799 1.25H14.9299C15.3426 1.26343 15.741 1.40424 16.0704 1.65311C16.3998 1.90199 16.6442 2.24672 16.7699 2.64C16.7952 2.70498 16.8152 2.77185 16.8299 2.84C16.9376 3.36773 17.1508 3.86828 17.4567 4.31161C17.7625 4.75495 18.1548 5.13195 18.6099 5.42C19.0076 5.68505 19.447 5.88113 19.9099 6C20.2548 6.06572 20.5748 6.22573 20.8343 6.46227C21.0938 6.69881 21.2826 7.00263 21.3799 7.34C21.44 7.50676 21.4705 7.68274 21.4699 7.86V9.17C21.4692 9.42144 21.4149 9.66985 21.3107 9.89867C21.2065 10.1275 21.0547 10.3315 20.8655 10.4971C20.6762 10.6626 20.4539 10.786 20.2133 10.8589C19.9726 10.9319 19.7192 10.9527 19.4699 10.92C18.5101 10.7871 17.5782 10.5001 16.7099 10.07V15.44C16.7298 17.2423 16.0767 18.9873 14.8783 20.3336C13.6799 21.68 12.0224 22.5309 10.2299 22.72L9.61991 22.75ZM9.42991 10.15C9.26678 10.1385 9.10304 10.1385 8.93991 10.15C7.82133 10.2888 6.77188 10.7662 5.93215 11.5181C5.09242 12.27 4.5025 13.2605 4.24143 14.357C3.98036 15.4535 4.06059 16.6037 4.47138 17.6533C4.88218 18.7029 5.60391 19.602 6.53991 20.23C7.5898 20.9266 8.84453 21.2473 10.0999 21.14C11.5033 20.9835 12.7981 20.3099 13.7318 19.2505C14.6655 18.1911 15.171 16.8219 15.1499 15.41V7.18L16.3799 8.06C17.3575 8.75764 18.49 9.20721 19.6799 9.37C19.7045 9.38313 19.732 9.39 19.7599 9.39C19.7878 9.39 19.8153 9.38313 19.8399 9.37C19.8627 9.35242 19.881 9.32963 19.8932 9.30352C19.9054 9.27742 19.9111 9.24878 19.9099 9.22V7.81V7.73C19.8907 7.66661 19.8545 7.60973 19.8051 7.56562C19.7557 7.52151 19.6951 7.49188 19.6299 7.48C18.9951 7.35397 18.3885 7.11338 17.8399 6.77C17.2012 6.37759 16.6474 5.86135 16.2112 5.25168C15.7749 4.64201 15.4651 3.95122 15.2999 3.22V3.12C15.2845 3.03671 15.2416 2.96097 15.1782 2.9048C15.1148 2.84864 15.0345 2.81527 14.9499 2.81H13.5399C13.5054 2.80859 13.4709 2.81435 13.4388 2.82692C13.4066 2.83948 13.3774 2.85858 13.3529 2.88301C13.3285 2.90745 13.3094 2.93667 13.2968 2.96886C13.2843 3.00104 13.2785 3.03548 13.2799 3.07V15.66C13.2746 16.6308 12.886 17.5602 12.1986 18.2457C11.5112 18.9312 10.5807 19.3174 9.60991 19.32C9.05582 19.338 8.50499 19.2285 7.99991 19H7.92991C7.32605 18.6914 6.81949 18.2216 6.46645 17.6426C6.11342 17.0636 5.9277 16.3981 5.92991 15.72C5.93109 14.7662 6.29764 13.849 6.9542 13.1571C7.61076 12.4652 8.50744 12.0511 9.45991 12C9.52711 11.9974 9.59071 11.9689 9.63732 11.9204C9.68394 11.8719 9.70996 11.8073 9.70991 11.74V10.41C9.65991 10.26 9.56991 10.15 9.42991 10.15Z" fill="black"/>
</svg>
