<svg width="24" height="24" viewBox="0 0 24 24" fill="none" xmlns="http://www.w3.org/2000/svg">
<path d="M11.8602 22.75C10.0477 22.754 8.2747 22.2201 6.76572 21.216C5.25674 20.2119 4.07956 18.7827 3.3832 17.1093C2.68683 15.4358 2.50258 13.5934 2.85376 11.8153C3.20493 10.0371 4.07576 8.40306 5.35601 7.12001C6.63626 5.83696 8.26837 4.96256 10.0458 4.6075C11.8232 4.25243 13.666 4.43266 15.3409 5.12537C17.0159 5.81807 18.4476 6.99212 19.455 8.4989C20.4624 10.0057 21.0002 11.7775 21.0002 13.59C20.9975 16.0151 20.0344 18.3404 18.3214 20.0571C16.6085 21.7738 14.2853 22.7421 11.8602 22.75ZM11.8602 5.93C10.3452 5.93 8.86419 6.37925 7.60451 7.22094C6.34483 8.06263 5.36303 9.25896 4.78326 10.6586C4.2035 12.0583 4.0518 13.5985 4.34736 15.0844C4.64293 16.5703 5.37247 17.9352 6.44374 19.0064C7.51501 20.0777 8.87989 20.8073 10.3658 21.1028C11.8517 21.3984 13.3919 21.2467 14.7915 20.6669C16.1912 20.0872 17.3875 19.1053 18.2292 17.8457C19.0709 16.586 19.5202 15.105 19.5202 13.59C19.5175 11.5593 18.7097 9.61244 17.2737 8.17648C15.8377 6.74053 13.8909 5.93265 11.8602 5.93ZM12.7502 12.8V8.53C12.7502 8.33109 12.6712 8.14032 12.5305 7.99967C12.3899 7.85902 12.1991 7.78 12.0002 7.78C11.8013 7.78 11.6105 7.85902 11.4699 7.99967C11.3292 8.14032 11.2502 8.33109 11.2502 8.53V12.8C11.2502 12.9989 11.3292 13.1897 11.4699 13.3303C11.6105 13.471 11.8013 13.55 12.0002 13.55C12.1991 13.55 12.3899 13.471 12.5305 13.3303C12.6712 13.1897 12.7502 12.9989 12.7502 12.8ZM15.1602 2.8C15.1656 2.69772 15.1502 2.5954 15.1151 2.49919C15.08 2.40299 15.0257 2.31487 14.9557 2.24015C14.8856 2.16543 14.8012 2.10564 14.7075 2.06437C14.6137 2.0231 14.5126 2.00121 14.4102 2H9.31018C9.11127 2 8.9205 2.07902 8.77985 2.21967C8.6392 2.36032 8.56018 2.55109 8.56018 2.75C8.56018 2.94891 8.6392 3.13968 8.77985 3.28033C8.9205 3.42098 9.11127 3.5 9.31018 3.5H14.4102C14.604 3.50016 14.7904 3.42527 14.9302 3.29104C15.07 3.15681 15.1524 2.97367 15.1602 2.78V2.8Z" fill="black"/>
</svg>
