<svg width="24" height="24" viewBox="0 0 24 24" fill="none" xmlns="http://www.w3.org/2000/svg">
<path d="M12 1.25C9.87386 1.25 7.79545 1.88048 6.02762 3.0617C4.2598 4.24293 2.88194 5.92185 2.0683 7.88615C1.25466 9.85046 1.04177 12.0119 1.45656 14.0972C1.87135 16.1825 2.89519 18.098 4.39861 19.6014C5.90202 21.1048 7.81749 22.1287 9.90278 22.5434C11.9881 22.9582 14.1495 22.7453 16.1139 21.9317C18.0782 21.1181 19.7571 19.7402 20.9383 17.9724C22.1195 16.2046 22.75 14.1261 22.75 12C22.75 9.14892 21.6174 6.41462 19.6014 4.3986C17.5854 2.38259 14.8511 1.25 12 1.25ZM12 21.25C10.1657 21.25 8.37267 20.7058 6.8478 19.6863C5.32292 18.6668 4.13478 17.2179 3.43374 15.5228C2.73271 13.8278 2.55031 11.9629 2.90962 10.1641C3.26892 8.3654 4.15379 6.71368 5.45223 5.41805C6.75066 4.12241 8.40429 3.24111 10.2038 2.88569C12.0033 2.53027 13.8678 2.7167 15.5614 3.42139C17.2549 4.12608 18.7013 5.31735 19.7175 6.84443C20.7337 8.3715 21.274 10.1657 21.27 12C21.2674 14.4577 20.2899 16.8141 18.552 18.552C16.8141 20.2898 14.4577 21.2674 12 21.27V21.25ZM17 12C17 12.1963 16.922 12.3845 16.7833 12.5233C16.6445 12.662 16.4563 12.74 16.26 12.74H12C11.8037 12.74 11.6155 12.662 11.4767 12.5233C11.338 12.3845 11.26 12.1963 11.26 12V5.92C11.26 5.72374 11.338 5.53552 11.4767 5.39674C11.6155 5.25796 11.8037 5.18 12 5.18C12.1963 5.18 12.3845 5.25796 12.5233 5.39674C12.662 5.53552 12.74 5.72374 12.74 5.92V11.26H16.29C16.481 11.2678 16.6616 11.3491 16.794 11.4871C16.9263 11.625 17.0002 11.8088 17 12Z" fill="black"/>
</svg>
