<svg width="24" height="24" viewBox="0 0 24 24" fill="none" xmlns="http://www.w3.org/2000/svg">
<path d="M15.28 18.52C14.8513 18.5195 14.4304 18.4057 14.06 18.19L7.74996 14.55C7.30374 14.2904 6.93344 13.9183 6.67605 13.4709C6.41866 13.0234 6.2832 12.5162 6.2832 12C6.2832 11.4838 6.41866 10.9766 6.67605 10.5291C6.93344 10.0816 7.30374 9.70954 7.74996 9.44999L14.06 5.80999C14.4307 5.59597 14.8511 5.48323 15.2792 5.48309C15.7072 5.48296 16.1278 5.59543 16.4986 5.80922C16.8695 6.023 17.1775 6.33058 17.3919 6.70108C17.6063 7.07157 17.7194 7.49195 17.72 7.91999V16.08C17.7173 16.7263 17.4594 17.3454 17.0024 17.8024C16.5454 18.2594 15.9263 18.5174 15.28 18.52ZM8.49996 10.75C8.28221 10.878 8.10167 11.0607 7.97623 11.2799C7.8508 11.4992 7.78481 11.7474 7.78481 12C7.78481 12.2526 7.8508 12.5008 7.97623 12.7201C8.10167 12.9393 8.28221 13.122 8.49996 13.25L14.81 16.89C14.9529 16.9725 15.115 17.0159 15.28 17.0159C15.445 17.0159 15.6071 16.9725 15.75 16.89C15.8936 16.8094 16.0131 16.6918 16.0957 16.5493C16.1784 16.4068 16.2213 16.2447 16.22 16.08V7.91999C16.2203 7.75547 16.1769 7.59382 16.0944 7.45152C16.0118 7.30922 15.8929 7.19137 15.75 7.10999C15.6071 7.02749 15.445 6.98406 15.28 6.98406C15.115 6.98406 14.9529 7.02749 14.81 7.10999L8.49996 10.75Z" fill="black"/>
</svg>
