<svg width="24" height="24" viewBox="0 0 24 24" fill="none" xmlns="http://www.w3.org/2000/svg">
<path d="M8.71979 18.52C8.07347 18.5174 7.45437 18.2594 6.99735 17.8024C6.54033 17.3454 6.28242 16.7263 6.27979 16.08V7.91999C6.28033 7.49195 6.39347 7.07157 6.60784 6.70108C6.82222 6.33058 7.13029 6.023 7.50113 5.80922C7.87196 5.59543 8.29251 5.48296 8.72056 5.48309C9.14861 5.48323 9.56909 5.59597 9.93978 5.80999L16.2498 9.44999C16.696 9.70954 17.0663 10.0816 17.3237 10.5291C17.5811 10.9766 17.7165 11.4838 17.7165 12C17.7165 12.5162 17.5811 13.0234 17.3237 13.4709C17.0663 13.9183 16.696 14.2904 16.2498 14.55L9.93978 18.19C9.56934 18.4057 9.14844 18.5195 8.71979 18.52ZM8.72978 6.99999C8.56139 7.00222 8.39629 7.04693 8.24978 7.12999C8.1061 7.21056 7.98669 7.32823 7.90401 7.47072C7.82134 7.6132 7.77843 7.77527 7.77979 7.93999V16.1C7.77843 16.2647 7.82134 16.4268 7.90401 16.5693C7.98669 16.7118 8.1061 16.8294 8.24978 16.91C8.39268 16.9925 8.55478 17.0359 8.71979 17.0359C8.88479 17.0359 9.04689 16.9925 9.18978 16.91L15.4998 13.27C15.7175 13.142 15.8981 12.9593 16.0235 12.7401C16.149 12.5208 16.2149 12.2726 16.2149 12.02C16.2149 11.7674 16.149 11.5192 16.0235 11.2999C15.8981 11.0807 15.7175 10.898 15.4998 10.77L9.18978 7.10999C9.049 7.03297 8.89018 6.99499 8.72978 6.99999Z" fill="black"/>
</svg>
