<svg width="24" height="24" viewBox="0 0 24 24" fill="none" xmlns="http://www.w3.org/2000/svg">
<path d="M13.81 20.94H10.19C7.81896 20.94 5.54504 19.9981 3.86847 18.3215C2.19189 16.645 1.25 14.371 1.25 12C1.25 9.62896 2.19189 7.35504 3.86847 5.67846C5.54504 4.00189 7.81896 3.06 10.19 3.06H13.81C16.181 3.06 18.455 4.00189 20.1315 5.67846C21.8081 7.35504 22.75 9.62896 22.75 12C22.75 14.371 21.8081 16.645 20.1315 18.3215C18.455 19.9981 16.181 20.94 13.81 20.94ZM10.19 4.56C8.21679 4.56 6.3244 5.34385 4.92913 6.73912C3.53386 8.13439 2.75 10.0268 2.75 12C2.75 13.9732 3.53386 15.8656 4.92913 17.2609C6.3244 18.6561 8.21679 19.44 10.19 19.44H13.81C15.7832 19.44 17.6756 18.6561 19.0709 17.2609C20.4661 15.8656 21.25 13.9732 21.25 12C21.25 10.0268 20.4661 8.13439 19.0709 6.73912C17.6756 5.34385 15.7832 4.56 13.81 4.56H10.19ZM10.19 17.12C9.16328 17.1299 8.15687 16.8338 7.29905 16.2696C6.44123 15.7053 5.77085 14.8984 5.37336 13.9517C4.97587 13.005 4.86928 11.9613 5.06717 10.9538C5.26506 9.94631 5.75846 9.02053 6.4845 8.2945C7.21053 7.56846 8.13631 7.07505 9.14383 6.87716C10.1513 6.67928 11.195 6.78587 12.1417 7.18336C13.0884 7.58084 13.8953 8.25122 14.4596 9.10904C15.0238 9.96687 15.3199 10.9733 15.31 12C15.2942 13.3617 14.7429 14.6624 13.7753 15.6206C12.8077 16.5788 11.5018 17.1175 10.14 17.12H10.19ZM10.19 8.28C9.46424 8.27018 8.75186 8.47578 8.14295 8.87081C7.53403 9.26585 7.05593 9.83257 6.76909 10.4993C6.48225 11.1661 6.39955 11.9029 6.53146 12.6166C6.66337 13.3304 7.00395 13.989 7.51015 14.5092C8.01635 15.0293 8.66543 15.3877 9.37531 15.539C10.0852 15.6903 10.824 15.6278 11.4983 15.3592C12.1726 15.0906 12.7522 14.6281 13.1636 14.0302C13.5751 13.4323 13.8 12.7258 13.81 12C13.8166 11.5139 13.7266 11.0312 13.5451 10.5802C13.3637 10.1291 13.0944 9.71864 12.7529 9.37253C12.4115 9.02643 12.0046 8.75162 11.5561 8.56406C11.1075 8.37651 10.6262 8.27995 10.14 8.28H10.19Z" fill="black"/>
</svg>
