<svg width="24" height="24" viewBox="0 0 24 24" fill="none" xmlns="http://www.w3.org/2000/svg">
<path d="M17.83 20.94H6.17004C5.52225 20.94 4.88084 20.8121 4.28261 20.5636C3.68438 20.3151 3.14111 19.9509 2.68399 19.4919C2.22686 19.0329 1.86487 18.4882 1.6188 17.8889C1.37272 17.2897 1.24741 16.6478 1.25004 16V8C1.24741 7.35221 1.37272 6.71028 1.6188 6.11105C1.86487 5.51182 2.22686 4.96708 2.68399 4.5081C3.14111 4.04911 3.68438 3.68492 4.28261 3.43641C4.88084 3.18791 5.52225 3.05999 6.17004 3.06H17.83C18.4778 3.05999 19.1192 3.18791 19.7175 3.43641C20.3157 3.68492 20.859 4.04911 21.3161 4.5081C21.7732 4.96708 22.1352 5.51182 22.3813 6.11105C22.6274 6.71028 22.7527 7.35221 22.75 8V16C22.7527 16.6478 22.6274 17.2897 22.3813 17.8889C22.1352 18.4882 21.7732 19.0329 21.3161 19.4919C20.859 19.9509 20.3157 20.3151 19.7175 20.5636C19.1192 20.8121 18.4778 20.94 17.83 20.94ZM6.17004 4.56C5.71923 4.55999 5.27287 4.64911 4.85663 4.82223C4.44038 4.99535 4.06248 5.24906 3.74464 5.56875C3.4268 5.88845 3.1753 6.26783 3.00461 6.68508C2.83392 7.10232 2.7474 7.5492 2.75004 8V16C2.75004 16.907 3.11036 17.7769 3.75174 18.4183C4.39311 19.0597 5.263 19.42 6.17004 19.42H17.83C18.7371 19.42 19.607 19.0597 20.2483 18.4183C20.8897 17.7769 21.25 16.907 21.25 16V8C21.25 7.09296 20.8897 6.22307 20.2483 5.58169C19.607 4.94032 18.7371 4.58 17.83 4.58L6.17004 4.56ZM16.24 16.88H12.41C11.5489 16.8774 10.7238 16.5341 10.1149 15.9252C9.50594 15.3163 9.16268 14.4911 9.16004 13.63V10C9.16268 9.13886 9.50594 8.31374 10.1149 7.70481C10.7238 7.09589 11.5489 6.75264 12.41 6.75H16.24C17.1012 6.75264 17.9263 7.09589 18.5352 7.70481C19.1441 8.31374 19.4874 9.13886 19.49 10V13.6C19.4927 14.0289 19.4106 14.4542 19.2486 14.8514C19.0866 15.2486 18.8478 15.6099 18.5458 15.9146C18.2439 16.2193 17.8848 16.4614 17.4891 16.6271C17.0935 16.7927 16.669 16.8787 16.24 16.88ZM12.41 8.28C11.9511 8.27993 11.5104 8.46018 11.1831 8.78191C10.8558 9.10364 10.6679 9.54109 10.66 10V13.6C10.66 14.0641 10.8444 14.5092 11.1726 14.8374C11.5008 15.1656 11.9459 15.35 12.41 15.35H16.24C16.7 15.3501 17.1417 15.1702 17.4706 14.8487C17.7996 14.5273 17.9896 14.0898 18 13.63V10C18 9.53587 17.8157 9.09075 17.4875 8.76256C17.1593 8.43437 16.7142 8.25 16.25 8.25L12.41 8.28Z" fill="black"/>
</svg>
