<svg width="24" height="24" viewBox="0 0 24 24" fill="none" xmlns="http://www.w3.org/2000/svg">
<path d="M17.83 20.94H6.17004C5.52225 20.94 4.88084 20.8121 4.28261 20.5636C3.68438 20.3151 3.14111 19.9509 2.68399 19.4919C2.22686 19.0329 1.86487 18.4882 1.6188 17.8889C1.37272 17.2897 1.24741 16.6478 1.25004 16V8C1.24741 7.35221 1.37272 6.71028 1.6188 6.11105C1.86487 5.51182 2.22686 4.96708 2.68399 4.5081C3.14111 4.04911 3.68438 3.68492 4.28261 3.43641C4.88084 3.18791 5.52225 3.05999 6.17004 3.06H17.83C18.4778 3.05999 19.1192 3.18791 19.7175 3.43641C20.3157 3.68492 20.859 4.04911 21.3161 4.5081C21.7732 4.96708 22.1352 5.51182 22.3813 6.11105C22.6274 6.71028 22.7527 7.35221 22.75 8V16C22.7527 16.6478 22.6274 17.2897 22.3813 17.8889C22.1352 18.4882 21.7732 19.0329 21.3161 19.4919C20.859 19.9509 20.3157 20.3151 19.7175 20.5636C19.1192 20.8121 18.4778 20.94 17.83 20.94ZM6.17004 4.56C5.71923 4.55999 5.27287 4.64911 4.85663 4.82223C4.44038 4.99535 4.06248 5.24906 3.74464 5.56875C3.4268 5.88845 3.1753 6.26783 3.00461 6.68508C2.83392 7.10232 2.7474 7.5492 2.75004 8V16C2.75004 16.907 3.11036 17.7769 3.75174 18.4183C4.39311 19.0597 5.263 19.42 6.17004 19.42H17.83C18.7371 19.42 19.607 19.0597 20.2483 18.4183C20.8897 17.7769 21.25 16.907 21.25 16V8C21.25 7.09296 20.8897 6.22307 20.2483 5.58169C19.607 4.94032 18.7371 4.58 17.83 4.58L6.17004 4.56ZM11.59 16.88H7.76004C6.8989 16.8774 6.07378 16.5341 5.46486 15.9252C4.85593 15.3163 4.51268 14.4911 4.51004 13.63V10C4.52054 9.14407 4.86726 8.32661 5.47534 7.72415C6.08342 7.12169 6.90405 6.78256 7.76004 6.78H11.59C12.446 6.78256 13.2667 7.12169 13.8747 7.72415C14.4828 8.32661 14.8295 9.14407 14.84 10V13.6C14.8427 14.0289 14.7606 14.4542 14.5986 14.8514C14.4366 15.2486 14.1978 15.6099 13.8958 15.9146C13.5939 16.2193 13.2348 16.4614 12.8392 16.6271C12.4435 16.7927 12.019 16.8787 11.59 16.88ZM7.76004 8.28C7.29933 8.2773 6.85615 8.45638 6.52665 8.77839C6.19715 9.1004 6.00793 9.53935 6.00004 10V13.6C6.00004 14.0641 6.18441 14.5092 6.5126 14.8374C6.84079 15.1656 7.28591 15.35 7.75004 15.35H11.58C12.0434 15.3474 12.487 15.1622 12.8146 14.8345C13.1422 14.5069 13.3274 14.0633 13.33 13.6V10C13.33 9.53587 13.1457 9.09075 12.8175 8.76256C12.4893 8.43437 12.0442 8.25 11.58 8.25L7.76004 8.28Z" fill="black"/>
</svg>
