<svg width="24" height="24" viewBox="0 0 24 24" fill="none" xmlns="http://www.w3.org/2000/svg">
<path d="M13.81 20.94H10.19C7.81896 20.94 5.54504 19.9981 3.86847 18.3215C2.19189 16.645 1.25 14.371 1.25 12C1.25 9.62896 2.19189 7.35504 3.86847 5.67846C5.54504 4.00189 7.81896 3.06 10.19 3.06H13.81C16.181 3.06 18.455 4.00189 20.1315 5.67846C21.8081 7.35504 22.75 9.62896 22.75 12C22.75 14.371 21.8081 16.645 20.1315 18.3215C18.455 19.9981 16.181 20.94 13.81 20.94ZM10.19 4.56C8.21679 4.56 6.3244 5.34385 4.92913 6.73912C3.53386 8.13439 2.75 10.0268 2.75 12C2.75 13.9732 3.53386 15.8656 4.92913 17.2609C6.3244 18.6561 8.21679 19.44 10.19 19.44H13.81C15.7832 19.44 17.6756 18.6561 19.0709 17.2609C20.4661 15.8656 21.25 13.9732 21.25 12C21.25 10.0268 20.4661 8.13439 19.0709 6.73912C17.6756 5.34385 15.7832 4.56 13.81 4.56H10.19ZM13.86 17.12C12.8341 17.1259 11.8296 16.8265 10.9744 16.2598C10.1192 15.693 9.45197 14.8847 9.05756 13.9376C8.66315 12.9906 8.55943 11.9476 8.7596 10.9413C8.95977 9.93514 9.45478 9.01124 10.1816 8.28722C10.9085 7.5632 11.8343 7.0718 12.8413 6.87555C13.8483 6.67931 14.8909 6.78709 15.8364 7.18519C16.7819 7.58328 17.5876 8.25369 18.151 9.11109C18.7144 9.9685 19.0099 10.9741 19 12C18.9843 13.3565 18.4371 14.6527 17.476 15.6101C16.5149 16.5675 15.2165 17.1096 13.86 17.12ZM13.86 8.28C13.1363 8.28006 12.4287 8.4941 11.8263 8.8952C11.224 9.2963 10.7536 9.86655 10.4744 10.5342C10.1952 11.2019 10.1197 11.9373 10.2573 12.6478C10.3949 13.3583 10.7395 14.0123 11.2478 14.5275C11.756 15.0427 12.4053 15.3961 13.1139 15.5433C13.8224 15.6905 14.5587 15.6249 15.2301 15.3548C15.9016 15.0847 16.4781 14.6221 16.8873 14.0251C17.2965 13.4282 17.5201 12.7236 17.53 12C17.5366 11.5139 17.4466 11.0312 17.2651 10.5802C17.0837 10.1291 16.8144 9.71864 16.4729 9.37253C16.1315 9.02643 15.7246 8.75162 15.2761 8.56406C14.8275 8.37651 14.3462 8.27995 13.86 8.28Z" fill="black"/>
</svg>
