<svg width="24" height="24" viewBox="0 0 24 24" fill="none" xmlns="http://www.w3.org/2000/svg">
<path d="M9.78013 11.5001V9.12005C9.78014 8.74252 9.63085 8.3803 9.36483 8.11241C9.09881 7.84452 8.73765 7.69269 8.36013 7.69005H5.77013C5.5828 7.69005 5.39733 7.72711 5.2244 7.79909C5.05146 7.87108 4.89447 7.97657 4.76248 8.10949C4.63049 8.24241 4.5261 8.40013 4.45533 8.57357C4.38456 8.74701 4.34881 8.93274 4.35013 9.12005V11.5001C4.35013 11.8767 4.49973 12.2378 4.76603 12.5041C5.03234 12.7704 5.39352 12.9201 5.77013 12.9201H8.36013C8.73592 12.9174 9.09559 12.767 9.36132 12.5013C9.62706 12.2355 9.77751 11.8759 9.78013 11.5001ZM8.28013 11.4201H5.85013V9.19005H8.28013V11.4201ZM12.1401 15.0001H14.0001C14.3741 15.0001 14.7327 14.8515 14.9971 14.5871C15.2616 14.3226 15.4101 13.964 15.4101 13.5901V9.11005C15.4101 8.73517 15.2619 8.3755 14.9978 8.10948C14.7336 7.84347 14.375 7.69269 14.0001 7.69005H12.1401C11.7653 7.69269 11.4066 7.84347 11.1425 8.10948C10.8783 8.3755 10.7301 8.73517 10.7301 9.11005V13.6101C10.7354 13.9805 10.8863 14.3341 11.1501 14.5942C11.414 14.8543 11.7696 15.0001 12.1401 15.0001ZM12.2301 9.17005H13.9001V13.5001H12.2301V9.17005ZM20.3701 16.0001H18.4501C18.7127 15.6301 18.8969 15.2105 18.9915 14.7668C19.0861 14.3232 19.089 13.8649 19.0001 13.4201L17.6701 7.10005C17.51 6.34577 17.096 5.66923 16.4972 5.18333C15.8985 4.69742 15.1512 4.43154 14.3801 4.43005H5.51013C4.68317 4.43268 3.88622 4.74017 3.27182 5.29369C2.65742 5.8472 2.26872 6.60785 2.18013 7.43005L1.41013 13.7401C1.35364 14.2112 1.39757 14.6889 1.53904 15.1418C1.6805 15.5947 1.91629 16.0125 2.23088 16.3678C2.54547 16.723 2.93172 17.0075 3.36422 17.2027C3.79671 17.3978 4.26564 17.4992 4.74013 17.5001H5.47013C5.50789 18.0618 5.75767 18.5882 6.16891 18.9727C6.58015 19.3572 7.12212 19.5711 7.68513 19.5711C8.24813 19.5711 8.7901 19.3572 9.20134 18.9727C9.61258 18.5882 9.86236 18.0618 9.90013 17.5001H20.3701C20.569 17.5001 20.7598 17.421 20.9005 17.2804C21.0411 17.1397 21.1201 16.949 21.1201 16.7501C21.1201 16.5511 21.0411 16.3604 20.9005 16.2197C20.7598 16.0791 20.569 16.0001 20.3701 16.0001ZM7.68013 18.0701C7.53575 18.0701 7.39461 18.0272 7.27456 17.947C7.15451 17.8668 7.06095 17.7528 7.00569 17.6194C6.95044 17.486 6.93599 17.3392 6.96415 17.1976C6.99232 17.056 7.06185 16.926 7.16394 16.8239C7.26603 16.7218 7.3961 16.6522 7.53771 16.6241C7.67932 16.5959 7.82609 16.6104 7.95948 16.6656C8.09287 16.7209 8.20689 16.8144 8.2871 16.9345C8.36731 17.0545 8.41013 17.1957 8.41013 17.3401C8.41013 17.5337 8.33322 17.7193 8.19631 17.8562C8.05941 17.9931 7.87373 18.0701 7.68013 18.0701ZM7.68013 15.0701C7.34851 15.0901 7.02556 15.1841 6.7349 15.345C6.44423 15.5059 6.19319 15.7297 6.00013 16.0001H4.74013C4.47696 16 4.21684 15.9437 3.97714 15.8351C3.73744 15.7264 3.52368 15.5679 3.35013 15.3701C3.17516 15.175 3.04438 14.9445 2.96671 14.6942C2.88905 14.444 2.86633 14.1799 2.90013 13.9201L3.67013 7.61005C3.71247 7.15116 3.92457 6.72459 4.2649 6.41385C4.60523 6.10312 5.04928 5.93059 5.51013 5.93005H14.3801C14.8068 5.93208 15.22 6.07998 15.5511 6.34919C15.8821 6.6184 16.1111 6.99273 16.2001 7.41005L17.5001 13.7201C17.5655 13.9936 17.5677 14.2785 17.5064 14.553C17.4452 14.8275 17.3221 15.0845 17.1467 15.3043C16.9712 15.5241 16.7479 15.7011 16.4938 15.8216C16.2397 15.9422 15.9614 16.0032 15.6801 16.0001H9.41013C9.20622 15.733 8.94486 15.5153 8.64539 15.3629C8.34592 15.2106 8.01602 15.1276 7.68013 15.1201V15.0701Z" fill="black"/>
</svg>
