<svg width="24" height="24" viewBox="0 0 24 24" fill="none" xmlns="http://www.w3.org/2000/svg">
<path d="M19.5302 15.83L16.2702 11.29H16.4002C16.7272 11.2914 17.0483 11.2022 17.3277 11.0323C17.6071 10.8623 17.834 10.6183 17.9832 10.3272C18.1323 10.0362 18.1979 9.7095 18.1727 9.38343C18.1474 9.05735 18.0323 8.74465 17.8402 8.48001L13.4402 2.37001C13.2775 2.13981 13.0616 1.95231 12.8109 1.82347C12.5602 1.69463 12.2821 1.62826 12.0002 1.63001C11.7195 1.62878 11.4425 1.69433 11.1921 1.82126C10.9417 1.94819 10.7251 2.13286 10.5602 2.36001L6.16018 8.48001C5.96801 8.74465 5.85292 9.05735 5.82768 9.38343C5.80244 9.7095 5.86804 10.0362 6.01719 10.3272C6.16635 10.6183 6.39323 10.8623 6.67266 11.0323C6.95208 11.2022 7.27313 11.2914 7.60018 11.29H7.73018L4.47018 15.83C4.24371 16.1434 4.10816 16.5132 4.07847 16.8987C4.04877 17.2843 4.12609 17.6705 4.3019 18.0149C4.4777 18.3592 4.74518 18.6484 5.07483 18.8504C5.40449 19.0525 5.78353 19.1596 6.17018 19.16H11.2502V21.62C11.2502 21.8189 11.3292 22.0097 11.4699 22.1503C11.6105 22.291 11.8013 22.37 12.0002 22.37C12.1991 22.37 12.3899 22.291 12.5305 22.1503C12.6712 22.0097 12.7502 21.8189 12.7502 21.62V19.16H17.8302C18.2168 19.1596 18.5959 19.0525 18.9255 18.8504C19.2552 18.6484 19.5227 18.3592 19.6985 18.0149C19.8743 17.6705 19.9516 17.2843 19.9219 16.8987C19.8922 16.5132 19.7566 16.1434 19.5302 15.83ZM7.35018 9.64001C7.32458 9.5978 7.31105 9.54937 7.31105 9.50001C7.31105 9.45064 7.32458 9.40222 7.35018 9.36001L11.7502 3.24001C11.7775 3.20029 11.8154 3.16896 11.8596 3.14954C11.9037 3.13011 11.9524 3.12335 12.0002 3.13001C12.0431 3.12876 12.0856 3.13815 12.124 3.15735C12.1624 3.17654 12.1954 3.20494 12.2202 3.24001L16.6202 9.36001C16.6458 9.40222 16.6593 9.45064 16.6593 9.50001C16.6593 9.54937 16.6458 9.5978 16.6202 9.64001C16.5983 9.68713 16.5627 9.72661 16.5182 9.75335C16.4736 9.78008 16.4221 9.79285 16.3702 9.79001H7.60018C7.54829 9.79285 7.49674 9.78008 7.45218 9.75335C7.40762 9.72661 7.37209 9.68713 7.35018 9.64001ZM18.3502 17.33C18.3025 17.4298 18.2273 17.5139 18.1334 17.5724C18.0395 17.6309 17.9308 17.6613 17.8202 17.66H6.17018C6.05957 17.6613 5.9509 17.6309 5.85699 17.5724C5.76308 17.5139 5.68786 17.4298 5.64018 17.33C5.58177 17.2353 5.55084 17.1263 5.55084 17.015C5.55084 16.9038 5.58177 16.7947 5.64018 16.7L9.54018 11.29H14.3802L18.2802 16.7C18.3511 16.787 18.3962 16.8922 18.4104 17.0036C18.4245 17.1149 18.4071 17.228 18.3602 17.33H18.3502Z" fill="black"/>
</svg>
