<svg width="24" height="24" viewBox="0 0 24 24" fill="none" xmlns="http://www.w3.org/2000/svg">
<path d="M14.8198 14.37C14.528 14.3717 14.2388 14.3151 13.9692 14.2035C13.6996 14.0919 13.455 13.9275 13.2498 13.72C13.0405 13.5151 12.8736 13.271 12.7587 13.0017C12.6437 12.7323 12.5829 12.4429 12.5798 12.15V7.76001C12.5785 7.46716 12.6349 7.17692 12.7458 6.90586C12.8566 6.6348 13.0198 6.38823 13.2259 6.18023C13.4321 5.97222 13.6772 5.80686 13.9472 5.69358C14.2173 5.5803 14.507 5.52132 14.7998 5.52001H16.7998C17.3818 5.53035 17.9369 5.76682 18.3475 6.17933C18.7582 6.59184 18.9921 7.148 18.9998 7.73001V12.11C19.0025 12.7024 18.7704 13.2717 18.3544 13.6934C17.9383 14.115 17.3722 14.3547 16.7798 14.36H14.8198V14.37ZM16.7298 7.00001H14.7898C14.5953 7.00264 14.4097 7.08176 14.273 7.22025C14.1364 7.35875 14.0598 7.54547 14.0598 7.74001V12.12C14.0616 12.3156 14.1407 12.5026 14.2798 12.64C14.424 12.7675 14.6076 12.8416 14.7998 12.85H16.7298C16.9244 12.8474 17.11 12.7683 17.2467 12.6298C17.3833 12.4913 17.4599 12.3045 17.4598 12.11V7.73001C17.4595 7.63307 17.4399 7.53716 17.4022 7.44788C17.3644 7.3586 17.3092 7.27774 17.2398 7.21001C17.1731 7.14276 17.0937 7.08953 17.0061 7.05346C16.9185 7.0174 16.8246 6.99922 16.7298 7.00001ZM8.55984 18.66H7.32984C6.98239 18.66 6.6384 18.591 6.31789 18.4568C5.99738 18.3227 5.70676 18.1261 5.46294 17.8785C5.21912 17.631 5.02697 17.3374 4.89768 17.0149C4.76839 16.6924 4.70454 16.3474 4.70984 16V8.17001C4.70984 7.47514 4.98588 6.80874 5.47722 6.31739C5.96857 5.82605 6.63498 5.55001 7.32984 5.55001H8.55984C9.25471 5.55001 9.92112 5.82605 10.4125 6.31739C10.9038 6.80874 11.1798 7.47514 11.1798 8.17001V16C11.1851 16.3474 11.1213 16.6924 10.992 17.0149C10.8627 17.3374 10.6706 17.631 10.4268 17.8785C10.1829 18.1261 9.89231 18.3227 9.5718 18.4568C9.25129 18.591 8.9073 18.66 8.55984 18.66ZM7.32984 7.05001C7.0328 7.05001 6.74792 7.16801 6.53788 7.37805C6.32784 7.58809 6.20984 7.87297 6.20984 8.17001V16C6.20984 16.2971 6.32784 16.5819 6.53788 16.792C6.74792 17.002 7.0328 17.12 7.32984 17.12H8.55984C8.85689 17.12 9.14176 17.002 9.3518 16.792C9.56184 16.5819 9.67984 16.2971 9.67984 16V8.17001C9.67984 7.87297 9.56184 7.58809 9.3518 7.37805C9.14176 7.16801 8.85689 7.05001 8.55984 7.05001H7.32984ZM15.6398 22.6H8.33984C6.48333 22.6 4.70285 21.8625 3.3901 20.5498C2.07734 19.237 1.33984 17.4565 1.33984 15.6V8.26001C1.33984 6.40349 2.07734 4.62302 3.3901 3.31026C4.70285 1.99751 6.48333 1.26001 8.33984 1.26001H15.6398C17.4964 1.26001 19.2768 1.99751 20.5896 3.31026C21.9023 4.62302 22.6398 6.40349 22.6398 8.26001V15.56C22.6373 17.4194 21.9002 19.2025 20.5891 20.5211C19.2781 21.8396 17.4992 22.5868 15.6398 22.6ZM8.33984 2.73001C6.87401 2.73265 5.46897 3.31613 4.43246 4.35263C3.39596 5.38913 2.81249 6.79417 2.80984 8.26001V15.56C2.80984 17.0276 3.39215 18.4352 4.42894 19.4739C5.46572 20.5125 6.87228 21.0974 8.33984 21.1H15.6398C17.1091 21.1 18.5183 20.5163 19.5572 19.4774C20.5962 18.4384 21.1798 17.0293 21.1798 15.56V8.26001C21.1772 6.79244 20.5923 5.38589 19.5537 4.3491C18.515 3.31231 17.1074 2.73001 15.6398 2.73001H8.33984Z" fill="black"/>
</svg>
