<svg width="24" height="24" viewBox="0 0 24 24" fill="none" xmlns="http://www.w3.org/2000/svg">
<path d="M22.2202 15.9L15.4302 4.14C15.0748 3.54768 14.5721 3.05749 13.971 2.71715C13.3699 2.37681 12.6909 2.19794 12.0002 2.19794C11.3094 2.19794 10.6304 2.37681 10.0293 2.71715C9.42825 3.05749 8.92554 3.54768 8.57016 4.14L1.78016 15.89C1.44232 16.4949 1.26742 17.1772 1.27257 17.8701C1.27773 18.563 1.46276 19.2426 1.80956 19.8424C2.15636 20.4423 2.65302 20.9417 3.25089 21.2919C3.84877 21.6421 4.52735 21.8309 5.22016 21.84H18.7802C19.3278 21.8423 19.8698 21.7296 20.3711 21.5091C20.8724 21.2886 21.3218 20.9653 21.6902 20.56C22.2578 19.9379 22.6146 19.1526 22.7098 18.3158C22.805 17.4791 22.6336 16.6337 22.2202 15.9ZM14.1302 4.9L20.9202 16.66C21.1304 17.0114 21.248 17.4104 21.262 17.8197C21.276 18.2289 21.1859 18.6351 21.0002 19L12.7902 13.21V3.78C13.3595 3.97022 13.8373 4.36604 14.1302 4.89V4.9ZM3.13016 16.66L9.87016 4.89C10.1726 4.35827 10.666 3.96145 11.2502 3.78V13.22L3.00016 19C2.8117 18.6341 2.72011 18.226 2.73411 17.8146C2.74812 17.4032 2.86725 17.0023 3.08016 16.65L3.13016 16.66ZM5.27016 20.35C4.87756 20.3496 4.49053 20.2571 4.14016 20.08L9.00016 16.66L12.0002 14.53L19.8802 20.08C19.5389 20.2516 19.1621 20.3406 18.7802 20.34L5.27016 20.35Z" fill="black"/>
</svg>
