<svg width="24" height="24" viewBox="0 0 24 24" fill="none" xmlns="http://www.w3.org/2000/svg">
<path d="M11.38 4H3.17C2.65356 4.02067 2.16517 4.24048 1.80723 4.61334C1.44928 4.98619 1.24959 5.48314 1.25 6V15.8C1.24959 16.3169 1.44928 16.8138 1.80723 17.1867C2.16517 17.5595 2.65356 17.7793 3.17 17.8H4.61C4.69435 18.3883 4.98802 18.9265 5.43712 19.3158C5.88622 19.7052 6.46065 19.9195 7.055 19.9195C7.64935 19.9195 8.22378 19.7052 8.67288 19.3158C9.12199 18.9265 9.41565 18.3883 9.5 17.8H11.38C11.8964 17.7793 12.3848 17.5595 12.7428 17.1867C13.1007 16.8138 13.3004 16.3169 13.3 15.8V6C13.3004 5.48314 13.1007 4.98619 12.7428 4.61334C12.3848 4.24048 11.8964 4.02067 11.38 4ZM2.75 6C2.73851 5.87462 2.77572 5.74962 2.85392 5.65094C2.93212 5.55225 3.04531 5.48746 3.17 5.47H11.38C11.5047 5.48746 11.6179 5.55225 11.6961 5.65094C11.7743 5.74962 11.8115 5.87462 11.8 6V11.68H2.8L2.75 6ZM7.05 18.5C6.85222 18.5 6.65888 18.4414 6.49443 18.3315C6.32998 18.2216 6.20181 18.0654 6.12612 17.8827C6.05043 17.7 6.03063 17.4989 6.06922 17.3049C6.1078 17.1109 6.20304 16.9327 6.34289 16.7929C6.48275 16.653 6.66093 16.5578 6.85491 16.5192C7.04889 16.4806 7.24996 16.5004 7.43268 16.5761C7.61541 16.6518 7.77159 16.78 7.88147 16.9444C7.99135 17.1089 8.05 17.3022 8.05 17.5C8.05 17.6313 8.02413 17.7614 7.97388 17.8827C7.92362 18.004 7.84997 18.1142 7.75711 18.2071C7.66425 18.3 7.55401 18.3736 7.43268 18.4239C7.31136 18.4741 7.18132 18.5 7.05 18.5ZM11.8 15.83C11.8115 15.9554 11.7743 16.0804 11.6961 16.1791C11.6179 16.2777 11.5047 16.3425 11.38 16.36H9.23C9.02183 15.9619 8.7086 15.6283 8.32429 15.3956C7.93998 15.1629 7.49928 15.0398 7.05 15.0398C6.60072 15.0398 6.16002 15.1629 5.77571 15.3956C5.3914 15.6283 5.07817 15.9619 4.87 16.36H3.17C3.04531 16.3425 2.93212 16.2777 2.85392 16.1791C2.77572 16.0804 2.73851 15.9554 2.75 15.83V13.21H11.8V15.83ZM22.36 11L20.2 7.91C20.024 7.65283 19.7884 7.44211 19.5132 7.29582C19.2381 7.14954 18.9316 7.07206 18.62 7.07H16.23C15.9614 7.06984 15.6954 7.12379 15.4481 7.22865C15.2008 7.33351 14.9771 7.48712 14.7905 7.68031C14.6038 7.87351 14.458 8.10233 14.3617 8.35312C14.2654 8.60391 14.2206 8.87153 14.23 9.14V15.79C14.225 16.1698 14.3251 16.5436 14.5192 16.8701C14.7133 17.1966 14.9939 17.463 15.33 17.64C15.3643 18.2511 15.6242 18.8277 16.0594 19.258C16.4946 19.6884 17.0741 19.9418 17.6856 19.9692C18.297 19.9966 18.8968 19.796 19.3688 19.4063C19.8408 19.0166 20.1512 18.4656 20.24 17.86H20.76C21.0286 17.8602 21.2946 17.8062 21.5419 17.7013C21.7892 17.5965 22.0129 17.4429 22.1995 17.2497C22.3862 17.0565 22.532 16.8277 22.6283 16.5769C22.7246 16.3261 22.7694 16.0585 22.76 15.79V12.22C22.7528 11.7823 22.6133 11.357 22.36 11ZM17.83 18.5C17.6322 18.5 17.4389 18.4414 17.2744 18.3315C17.11 18.2216 16.9818 18.0654 16.9061 17.8827C16.8304 17.7 16.8106 17.4989 16.8492 17.3049C16.8878 17.1109 16.983 16.9327 17.1229 16.7929C17.2627 16.653 17.4409 16.5578 17.6349 16.5192C17.8289 16.4806 18.03 16.5004 18.2127 16.5761C18.3954 16.6518 18.5516 16.78 18.6615 16.9444C18.7714 17.1089 18.83 17.3022 18.83 17.5C18.83 17.7652 18.7246 18.0196 18.5371 18.2071C18.3496 18.3946 18.0952 18.5 17.83 18.5ZM21.25 15.79C21.2614 15.926 21.22 16.0611 21.1343 16.1672C21.0486 16.2734 20.9253 16.3425 20.79 16.36H20C19.8051 15.9878 19.5181 15.6718 19.1665 15.442C18.8148 15.2122 18.4101 15.0763 17.991 15.0472C17.5719 15.0181 17.1524 15.0968 16.7723 15.2759C16.3923 15.4549 16.0644 15.7283 15.82 16.07C15.7769 15.9827 15.753 15.8873 15.75 15.79V9.14C15.7413 9.00306 15.785 8.86792 15.8723 8.76205C15.9596 8.65618 16.0839 8.58751 16.22 8.57H18.61C18.6802 8.5722 18.7489 8.59158 18.8099 8.62644C18.8709 8.66131 18.9224 8.7106 18.96 8.77L21.13 11.84C21.2024 11.9535 21.2406 12.0854 21.24 12.22L21.25 15.79Z" fill="black"/>
</svg>
