<svg width="24" height="24" viewBox="0 0 24 24" fill="none" xmlns="http://www.w3.org/2000/svg">
<path d="M8.27985 22.75C7.4463 22.7421 6.64621 22.421 6.03853 21.8504C5.43086 21.2798 5.06008 20.5014 4.99986 19.67L4.26986 9.23C4.26329 9.13151 4.27619 9.03269 4.30781 8.93918C4.33944 8.84567 4.38917 8.75931 4.45417 8.68502C4.51917 8.61074 4.59817 8.54998 4.68665 8.50622C4.77513 8.46247 4.87136 8.43657 4.96985 8.43C5.06835 8.42343 5.16717 8.43633 5.26067 8.46796C5.35418 8.49958 5.44054 8.54931 5.51483 8.61431C5.58912 8.67932 5.64987 8.75831 5.69363 8.84679C5.73739 8.93527 5.76329 9.03151 5.76986 9.13L6.47986 19.57C6.51531 20.0298 6.72396 20.4589 7.06365 20.7708C7.40334 21.0826 7.84874 21.2539 8.30986 21.25L15.8599 21.16C16.3186 21.1555 16.7583 20.976 17.0891 20.6581C17.4199 20.3403 17.6169 19.9082 17.6399 19.45L18.2299 9.13C18.2452 8.93106 18.3372 8.74586 18.4865 8.61342C18.6357 8.48098 18.8305 8.41163 19.0299 8.42C19.2271 8.43287 19.4113 8.52308 19.5423 8.67102C19.6734 8.81895 19.7408 9.01265 19.7299 9.21L19.1399 19.54C19.0896 20.3751 18.7258 21.1605 18.1214 21.739C17.5169 22.3174 16.7164 22.6464 15.8799 22.66L8.32985 22.75H8.27985ZM14.9799 12.85C14.9773 12.6519 14.8974 12.4626 14.7573 12.3225C14.6172 12.1824 14.428 12.1026 14.2299 12.1H9.76986C9.57094 12.1 9.38018 12.179 9.23952 12.3197C9.09887 12.4603 9.01986 12.6511 9.01986 12.85C9.01986 13.0489 9.09887 13.2397 9.23952 13.3803C9.38018 13.521 9.57094 13.6 9.76986 13.6H14.2299C14.33 13.6027 14.4297 13.5852 14.523 13.5488C14.6163 13.5123 14.7014 13.4574 14.7732 13.3875C14.8449 13.3176 14.902 13.234 14.9409 13.1417C14.9798 13.0494 14.9999 12.9502 14.9999 12.85H14.9799ZM14.1999 16.55C14.1999 16.3511 14.1208 16.1603 13.9802 16.0197C13.8395 15.879 13.6488 15.8 13.4499 15.8H10.5499C10.3509 15.8 10.1602 15.879 10.0195 16.0197C9.87887 16.1603 9.79986 16.3511 9.79986 16.55C9.79986 16.7489 9.87887 16.9397 10.0195 17.0803C10.1602 17.221 10.3509 17.3 10.5499 17.3H13.4499C13.648 17.2974 13.8372 17.2176 13.9773 17.0775C14.1174 16.9374 14.1973 16.7481 14.1999 16.55ZM20.9999 6.52C20.9755 6.69846 20.8869 6.86192 20.7507 6.97974C20.6145 7.09756 20.44 7.16165 20.2599 7.16H20.1499C14.7519 6.41816 9.27782 6.41816 3.87986 7.16C3.78063 7.17714 3.67899 7.17439 3.58083 7.15191C3.48268 7.12943 3.38997 7.08767 3.30809 7.02905C3.22621 6.97044 3.1568 6.89613 3.10389 6.81046C3.05097 6.72479 3.01561 6.62946 2.99986 6.53C2.96812 6.33375 3.0156 6.13293 3.13186 5.97167C3.24811 5.81041 3.42364 5.70191 3.61986 5.67C3.74986 5.67 5.12986 5.43 7.29986 5.26L7.65985 3.38C7.77411 2.77986 8.09449 2.23851 8.56561 1.84957C9.03672 1.46063 9.62894 1.24855 10.2399 1.25H13.7699C14.3853 1.24706 14.9822 1.46091 15.4558 1.85404C15.9294 2.24717 16.2494 2.79449 16.3599 3.4L16.6999 5.26C17.8899 5.36 19.1099 5.48 20.3599 5.67C20.4578 5.68349 20.5521 5.71622 20.6374 5.76631C20.7227 5.8164 20.7972 5.88286 20.8567 5.96186C20.9162 6.04086 20.9594 6.13084 20.984 6.22663C21.0086 6.32242 21.014 6.42212 20.9999 6.52ZM11.5599 5.09H15.1399L14.8799 3.67C14.8331 3.4122 14.6974 3.17896 14.4964 3.01087C14.2954 2.84278 14.0419 2.75047 13.7799 2.75H10.2499C9.98807 2.74962 9.73427 2.84015 9.53182 3.00613C9.32937 3.1721 9.19082 3.40322 9.13986 3.66L8.86985 5.09H11.5599Z" fill="black"/>
</svg>
