<svg width="24" height="24" viewBox="0 0 24 24" fill="none" xmlns="http://www.w3.org/2000/svg">
<path d="M16.0499 22.75H7.99992C6.22379 22.7474 4.52115 22.0406 3.26523 20.7847C2.00931 19.5288 1.30257 17.8261 1.29992 16.05V8C1.29466 7.11631 1.46399 6.24028 1.79822 5.42222C2.13244 4.60416 2.62497 3.86017 3.24751 3.23298C3.87006 2.60578 4.61036 2.10774 5.42592 1.76745C6.24148 1.42715 7.11622 1.2513 7.99992 1.25H16.0999C17.8761 1.26585 19.5734 1.98528 20.82 3.25059C22.0666 4.51589 22.7606 6.22383 22.7499 8V16.1C22.7341 17.8675 22.0216 19.5573 20.7671 20.8024C19.5126 22.0476 17.8174 22.7474 16.0499 22.75ZM7.99992 2.75C7.30863 2.74332 6.62294 2.87455 5.98296 3.13603C5.34298 3.3975 4.76157 3.78396 4.27273 4.2728C3.78388 4.76165 3.39742 5.34306 3.13595 5.98304C2.87448 6.62301 2.74324 7.3087 2.74992 8V16.1C2.75646 16.7829 2.89744 17.4578 3.16482 18.0862C3.4322 18.7146 3.82074 19.2842 4.30825 19.7624C4.79577 20.2406 5.37271 20.6181 6.00613 20.8734C6.63955 21.1286 7.31704 21.2566 7.99992 21.25H16.0999C17.4782 21.2474 18.7993 20.6987 19.774 19.724C20.7486 18.7494 21.2973 17.4283 21.2999 16.05V8C21.2973 6.62169 20.7486 5.30058 19.774 4.32596C18.7993 3.35135 17.4782 2.80264 16.0999 2.8L7.99992 2.75ZM9.99992 18.4H14.2399C14.771 18.4181 15.2892 18.2341 15.6901 17.8853C16.0909 17.5364 16.3446 17.0485 16.3999 16.52L16.7399 11.52C16.751 11.3216 16.6839 11.1268 16.5531 10.9773C16.4222 10.8277 16.238 10.7354 16.0399 10.72C15.9411 10.7118 15.8416 10.7236 15.7475 10.7546C15.6533 10.7857 15.5663 10.8353 15.4917 10.9006C15.4171 10.9659 15.3563 11.0455 15.3131 11.1347C15.2698 11.224 15.2449 11.321 15.2399 11.42L14.9099 16.42C14.8723 16.5672 14.7827 16.6958 14.6578 16.7821C14.5328 16.8685 14.3809 16.9068 14.2299 16.89H9.97992C9.63992 16.89 9.29992 16.68 9.27992 16.42L8.87992 11.32C8.87333 11.2149 8.8444 11.1125 8.79507 11.0195C8.74574 10.9266 8.67714 10.8452 8.59385 10.7808C8.51056 10.7164 8.4145 10.6706 8.31208 10.6463C8.20966 10.622 8.10324 10.6199 7.99992 10.64C7.90215 10.6462 7.80663 10.6721 7.71906 10.716C7.63148 10.76 7.55365 10.8211 7.4902 10.8957C7.42675 10.9704 7.37897 11.057 7.34972 11.1506C7.32046 11.2441 7.31033 11.3425 7.31992 11.44L7.71992 16.54C7.78477 17.0684 8.04602 17.553 8.45176 17.8976C8.8575 18.2422 9.37803 18.4215 9.90992 18.4H9.99992ZM16.7499 8.11C16.1299 8 15.5199 8 14.9299 7.9L14.7799 6.9C14.719 6.46647 14.507 6.06834 14.1815 5.77567C13.8559 5.483 13.4375 5.31457 12.9999 5.3H10.9999C10.5638 5.31759 10.1479 5.48884 9.8258 5.78347C9.50372 6.0781 9.2962 6.47713 9.23992 6.91L9.06992 7.91C7.99992 8 7.30992 8.1 7.23992 8.12C7.14015 8.13432 7.04435 8.16888 6.95841 8.22155C6.87247 8.27421 6.79819 8.34389 6.74014 8.42629C6.68208 8.50869 6.64147 8.60208 6.6208 8.70073C6.60013 8.79939 6.59983 8.90123 6.61992 9C6.65183 9.19622 6.76034 9.37174 6.9216 9.488C7.08286 9.60426 7.28368 9.65173 7.47992 9.62C10.4821 9.20183 13.5278 9.20183 16.5299 9.62H16.6399C16.8171 9.62234 16.9892 9.56106 17.125 9.44729C17.2607 9.33352 17.3512 9.17481 17.3799 9C17.3985 8.90004 17.3969 8.79736 17.3751 8.69805C17.3533 8.59874 17.3118 8.5048 17.2531 8.42181C17.1943 8.33883 17.1195 8.26847 17.0331 8.21491C16.9467 8.16135 16.8504 8.12567 16.7499 8.11ZM10.6099 7.78L10.7199 7.16C10.7199 6.93 10.8999 6.8 11.0099 6.8H13.0099C13.1299 6.8 13.2699 6.94 13.2999 7.16L13.3999 7.78H10.6099Z" fill="black"/>
</svg>
