<svg width="24" height="24" viewBox="0 0 24 24" fill="none" xmlns="http://www.w3.org/2000/svg">
<path d="M6.41995 22.78C5.05385 22.7747 3.74489 22.2311 2.77703 21.267C1.80917 20.3029 1.26047 18.996 1.24995 17.63L1.18995 6.47997C1.18727 5.10867 1.72741 3.79204 2.69237 2.8177C3.65733 1.84337 4.96869 1.29054 6.33995 1.27997L17.5499 1.21997C18.9178 1.22257 20.2293 1.76504 21.1993 2.72943C22.1693 3.69383 22.7194 5.00217 22.7299 6.36997L22.79 17.52C22.7926 18.8913 22.2525 20.2079 21.2875 21.1822C20.3226 22.1566 19.0112 22.7094 17.6399 22.72L6.42995 22.78H6.41995ZM17.5499 2.71997L6.34995 2.77997C5.86668 2.78259 5.38867 2.88037 4.94319 3.06773C4.49771 3.25509 4.0935 3.52837 3.75364 3.87194C3.41378 4.21552 3.14491 4.62268 2.96241 5.07016C2.7799 5.51765 2.68732 5.9967 2.68995 6.47997L2.74995 17.62C2.75126 18.1019 2.84749 18.5789 3.03314 19.0237C3.21878 19.4684 3.49022 19.8723 3.83194 20.2121C4.17366 20.552 4.57897 20.8212 5.02474 21.0044C5.47051 21.1877 5.948 21.2813 6.42995 21.28L17.6299 21.22C18.1132 21.2174 18.5912 21.1196 19.0367 20.9322C19.4822 20.7448 19.8864 20.4716 20.2263 20.128C20.5661 19.7844 20.835 19.3773 21.0175 18.9298C21.2 18.4823 21.2926 18.0032 21.29 17.52L21.25 6.37997C21.2421 5.40826 20.8512 4.47889 20.1622 3.79363C19.4732 3.10838 18.5417 2.72257 17.57 2.71997H17.5499ZM14.2 11.61H9.33995C9.20734 11.61 9.08017 11.6626 8.9864 11.7564C8.89263 11.8502 8.83995 11.9774 8.83995 12.11V12.83C8.83995 12.9626 8.89263 13.0898 8.9864 13.1835C9.08017 13.2773 9.20734 13.33 9.33995 13.33H10.84V18.67C10.84 18.8026 10.8926 18.9298 10.9864 19.0235C11.0802 19.1173 11.2073 19.17 11.34 19.17H12.19C12.3226 19.17 12.4497 19.1173 12.5435 19.0235C12.6373 18.9298 12.69 18.8026 12.69 18.67V13.33H14.2C14.3326 13.33 14.4597 13.2773 14.5535 13.1835C14.6473 13.0898 14.7 12.9626 14.7 12.83V12.11C14.6974 11.9782 14.6439 11.8525 14.5507 11.7592C14.4575 11.666 14.3318 11.6125 14.2 11.61ZM18 14.49C17.08 14.13 17 13.94 17 13.69C17 13.44 17.1999 13.21 17.74 13.21C18.0891 13.2072 18.4332 13.2932 18.74 13.46C18.8052 13.4925 18.8771 13.5095 18.95 13.5095C19.0228 13.5095 19.0947 13.4925 19.16 13.46C19.2277 13.435 19.289 13.3951 19.3393 13.3431C19.3895 13.2912 19.4273 13.2286 19.45 13.16L19.68 12.47C19.7171 12.3599 19.7156 12.2404 19.6756 12.1312C19.6356 12.0221 19.5595 11.9299 19.4599 11.87C18.9336 11.6041 18.3494 11.4735 17.76 11.49C17.4361 11.4569 17.1089 11.4907 16.7986 11.5891C16.4883 11.6875 16.2015 11.8486 15.956 12.0623C15.7104 12.276 15.5113 12.5378 15.3709 12.8315C15.2306 13.1253 15.1519 13.4447 15.14 13.77C15.14 15.36 16.69 15.92 17.19 16.09C18.11 16.44 18.11 16.7 18.11 16.93C18.11 17.47 17.5599 17.55 17.2299 17.55C16.7969 17.5487 16.3721 17.4313 16 17.21C15.9309 17.1785 15.8559 17.1622 15.78 17.1622C15.704 17.1622 15.629 17.1785 15.56 17.21C15.4874 17.2373 15.4224 17.2815 15.3702 17.3389C15.3181 17.3962 15.2803 17.4652 15.26 17.54L15.04 18.25C15.0105 18.3525 15.014 18.4617 15.0499 18.5621C15.0858 18.6626 15.1522 18.7493 15.24 18.81C15.8488 19.1553 16.5402 19.3282 17.24 19.31C19.18 19.31 20.04 18.11 20.04 16.92C20.0244 16.344 19.8143 15.7903 19.4439 15.3491C19.0735 14.9078 18.5645 14.605 18 14.49Z" fill="black"/>
</svg>
