<svg width="24" height="24" viewBox="0 0 24 24" fill="none" xmlns="http://www.w3.org/2000/svg">
<path d="M22.6 4.72012C22.4883 4.48527 22.3168 4.28398 22.1026 4.13651C21.8884 3.98905 21.6392 3.90062 21.38 3.88012C20.6634 3.81797 19.942 3.8381 19.23 3.94012C18.2905 3.09554 17.0733 2.62575 15.81 2.62012C14.8284 2.61965 13.8675 2.90246 13.0427 3.4346C12.2179 3.96675 11.5641 4.72561 11.16 5.62012C10.8659 6.32601 10.7228 7.08562 10.74 7.85012C8.10411 7.52452 5.66417 6.29041 3.83996 4.36012C3.66521 4.18543 3.44733 4.06011 3.20847 3.99688C2.9696 3.93365 2.71826 3.93477 2.47996 4.00012C2.24619 4.05687 2.03114 4.17333 1.85586 4.33809C1.68058 4.50286 1.55106 4.7103 1.47996 4.94012C1.25782 5.63415 1.19729 6.36978 1.30302 7.09079C1.40874 7.81179 1.67792 8.49908 2.08996 9.10012C1.96534 9.15432 1.85048 9.22865 1.74996 9.32012C1.58865 9.46179 1.46829 9.64416 1.40145 9.84819C1.33461 10.0522 1.32374 10.2705 1.36996 10.4801C1.59615 11.7524 2.31476 12.8842 3.36996 13.6301L3.24996 13.8201C3.13954 14.0153 3.08151 14.2358 3.08151 14.4601C3.08151 14.6844 3.13954 14.9049 3.24996 15.1001C3.77162 16.0165 4.56965 16.7446 5.52996 17.1801C5.24746 17.3262 4.95701 17.4564 4.65996 17.5701C4.11717 17.7196 3.56129 17.8167 2.99996 17.8601C2.71735 17.8879 2.45199 18.0088 2.24565 18.2039C2.03931 18.399 1.90371 18.6572 1.86019 18.9378C1.81666 19.2184 1.86769 19.5055 2.00524 19.754C2.14278 20.0024 2.35904 20.1981 2.61996 20.3101C4.25401 21.0213 6.01787 21.3856 7.79996 21.3801C9.52907 21.3962 11.244 21.0671 12.8444 20.4122C14.4447 19.7573 15.8983 18.7897 17.1201 17.5661C18.3419 16.3424 19.3073 14.8873 19.9597 13.286C20.6122 11.6846 20.9387 9.96919 20.92 8.24012C20.925 8.16353 20.925 8.0867 20.92 8.01012C21.5185 7.47726 22.0492 6.87271 22.5 6.21012C22.6453 5.99212 22.731 5.73986 22.7486 5.47845C22.7661 5.21703 22.7149 4.95558 22.6 4.72012ZM4.74996 14.6401C5.04441 14.6147 5.33574 14.5611 5.61996 14.4801L8.20996 13.7801L5.62996 13.0001C5.02065 12.867 4.45698 12.5762 3.99542 12.1568C3.53385 11.7373 3.19057 11.204 2.99996 10.6101C3.3085 10.6801 3.62361 10.717 3.93997 10.7201H5.99996L4.36996 9.39012C3.76557 8.96981 3.29947 8.37963 3.03067 7.69428C2.76187 7.00894 2.70246 6.25925 2.85996 5.54012C5.1333 7.87948 8.20302 9.2787 11.46 9.46012C12.66 9.52012 13.14 10.9101 13.16 11.8301C13.1296 12.592 12.904 13.3334 12.5048 13.9831C12.1055 14.6327 11.546 15.1689 10.88 15.5401C9.85339 16.0414 8.70506 16.2391 7.56996 16.1101C7.01632 16.1101 6.47085 15.9765 5.9799 15.7205C5.48895 15.4646 5.06703 15.094 4.74996 14.6401ZM19.68 7.09012L19.38 7.33012V7.72012C19.38 7.89012 19.38 8.06012 19.38 8.24012C19.3959 9.76723 19.108 11.2823 18.5331 12.6971C17.9581 14.1119 17.1076 15.3984 16.031 16.4815C14.9544 17.5646 13.6731 18.4229 12.2618 19.0064C10.8504 19.5898 9.33715 19.8868 7.80996 19.8801C6.5137 19.8843 5.22589 19.6713 3.99996 19.2501C4.39286 19.1989 4.78085 19.1153 5.15996 19.0001C6.08267 18.6799 6.94976 18.2177 7.72996 17.6301H8.22996C9.42557 17.689 10.6138 17.4118 11.66 16.8301C12.5439 16.3205 13.2833 15.5939 13.8082 14.7191C14.3331 13.8442 14.6263 12.8499 14.66 11.8301C14.6921 11.0369 14.4763 10.2534 14.0426 9.58855C13.6089 8.92366 12.9788 8.4104 12.24 8.12012C12.2106 7.49997 12.3093 6.88043 12.53 6.30012C12.7683 5.75664 13.1381 5.28096 13.606 4.91585C14.0738 4.55074 14.6251 4.30767 15.2102 4.2085C15.7953 4.10933 16.3959 4.15717 16.9579 4.34772C17.52 4.53827 18.0258 4.86555 18.43 5.30012L18.72 5.61012L19.14 5.52012C19.8346 5.3838 20.545 5.34676 21.25 5.41012C20.8094 6.0421 20.2807 6.60783 19.68 7.09012Z" fill="black"/>
</svg>
