<svg width="24" height="24" viewBox="0 0 24 24" fill="none" xmlns="http://www.w3.org/2000/svg">
<path d="M8.84 22.76H7.5C7.25884 22.76 7.02005 22.7123 6.79737 22.6197C6.57469 22.5271 6.37251 22.3915 6.20245 22.2205C6.03238 22.0495 5.8978 21.8466 5.80642 21.6234C5.71504 21.4002 5.66868 21.1611 5.67 20.92V20C5.67 19.9098 5.63418 19.8233 5.57042 19.7596C5.50665 19.6958 5.42017 19.66 5.33 19.66H3.59C3.10281 19.6574 2.63632 19.4627 2.29183 19.1182C1.94733 18.7737 1.75263 18.3072 1.75 17.82V5.35999C1.75656 5.00403 1.86406 4.65725 2.06 4.35999L3.58 2.05999C3.74786 1.80797 3.97533 1.60127 4.24222 1.45822C4.50912 1.31518 4.80719 1.24022 5.11 1.23999H20.41C20.898 1.23999 21.366 1.43385 21.7111 1.77891C22.0561 2.12398 22.25 2.59199 22.25 3.07999V13.46C22.2451 13.9469 22.0516 14.4129 21.71 14.76L17.33 19.13C16.9848 19.4743 16.5176 19.6683 16.03 19.67H12.09C12.033 19.6687 11.9765 19.6817 11.9258 19.7079C11.8751 19.7341 11.8319 19.7727 11.8 19.82L10.37 22C10.196 22.2416 9.96574 22.437 9.69913 22.5695C9.43251 22.7019 9.13761 22.7673 8.84 22.76ZM5.11 2.75999C5.05481 2.76114 5.00067 2.77533 4.952 2.8014C4.90334 2.82747 4.86153 2.86468 4.83 2.90999L3.31 5.16999C3.2709 5.22563 3.24995 5.29199 3.25 5.35999V17.83C3.25252 17.9194 3.28915 18.0044 3.35237 18.0676C3.4156 18.1308 3.50062 18.1675 3.59 18.17H5.33C5.81627 18.17 6.28277 18.3625 6.62755 18.7054C6.97233 19.0483 7.16736 19.5137 7.17 20V20.91C7.16996 20.9985 7.20441 21.0835 7.26602 21.1469C7.32764 21.2104 7.41157 21.2474 7.5 21.25H8.84C8.89704 21.2513 8.9535 21.2383 9.00418 21.2121C9.05486 21.1859 9.09813 21.1473 9.13 21.1L10.56 19C10.7284 18.7492 10.9562 18.544 11.2232 18.4026C11.4901 18.2613 11.7879 18.1882 12.09 18.19H16C16.0899 18.1887 16.1758 18.1529 16.24 18.09L20.62 13.72C20.6798 13.6538 20.7151 13.5691 20.72 13.48V3.07999C20.72 2.98982 20.6842 2.90334 20.6204 2.83957C20.5567 2.77581 20.4702 2.73999 20.38 2.73999L5.11 2.75999ZM10 14.16H9.24C9.04433 14.16 8.85058 14.1215 8.6698 14.0466C8.48903 13.9717 8.32477 13.8619 8.18641 13.7236C8.04805 13.5852 7.9383 13.421 7.86342 13.2402C7.78854 13.0594 7.75 12.8657 7.75 12.67V7.23999C7.75 6.84482 7.90698 6.46583 8.18641 6.1864C8.46584 5.90697 8.84483 5.74999 9.24 5.74999H10C10.3961 5.74998 10.7761 5.90664 11.0571 6.18579C11.3382 6.46493 11.4974 6.8439 11.5 7.23999V12.67C11.4974 13.0661 11.3382 13.445 11.0571 13.7242C10.7761 14.0033 10.3961 14.16 10 14.16ZM10 7.23999H9.24V12.66H10V7.23999ZM15.71 14.24H15C14.6048 14.24 14.2258 14.083 13.9464 13.8036C13.667 13.5241 13.51 13.1452 13.51 12.75V7.26999C13.51 6.87482 13.667 6.49583 13.9464 6.2164C14.2258 5.93697 14.6048 5.77999 15 5.77999H15.79C16.1861 5.77998 16.5661 5.93664 16.8471 6.21579C17.1282 6.49493 17.2874 6.8739 17.29 7.26999V12.7C17.2888 12.9004 17.2474 13.0986 17.1683 13.2827C17.0892 13.4669 16.974 13.6333 16.8296 13.7722C16.6851 13.9111 16.5142 14.0196 16.3271 14.0914C16.1399 14.1631 15.9403 14.1967 15.74 14.19L15.71 14.24ZM15.71 7.31999H15V12.7H15.78L15.71 7.31999Z" fill="black"/>
</svg>
