<svg width="24" height="25" viewBox="0 0 24 25" fill="none" xmlns="http://www.w3.org/2000/svg">
<path d="M19.41 4.44H8.32C7.45637 4.44471 6.62814 4.78375 6.00912 5.38599C5.39011 5.98823 5.02843 6.80683 5 7.67H4.6C3.71498 7.66999 2.86591 8.02019 2.23824 8.64411C1.61056 9.26804 1.25528 10.115 1.25 11V17.21C1.25264 18.095 1.60538 18.943 2.23118 19.5688C2.85698 20.1946 3.70499 20.5474 4.59 20.55H15.68C16.542 20.5454 17.3688 20.2077 17.9875 19.6076C18.6063 19.0075 18.969 18.1914 19 17.33H19.4C20.285 17.33 21.1341 16.9798 21.7618 16.3559C22.3894 15.732 22.7447 14.885 22.75 14V7.78C22.7474 6.89499 22.3946 6.04698 21.7688 5.42118C21.143 4.79538 20.295 4.44264 19.41 4.44ZM4.59 9.17H15.68C16.1655 9.1726 16.6305 9.36592 16.9747 9.70827C17.3189 10.0506 17.5148 10.5146 17.52 11V12.48H2.75V11C2.75264 10.5137 2.94767 10.0483 3.29245 9.70539C3.63723 9.36248 4.10373 9.17 4.59 9.17ZM17.52 17.17C17.52 17.658 17.3261 18.126 16.9811 18.4711C16.636 18.8161 16.168 19.01 15.68 19.01H4.59C4.102 19.01 3.63399 18.8161 3.28892 18.4711C2.94386 18.126 2.75 17.658 2.75 17.17V14H17.52V17.23V17.17ZM21.25 14C21.25 14.488 21.0561 14.956 20.7111 15.3011C20.366 15.6461 19.898 15.84 19.41 15.84H19V11C18.9974 10.115 18.6446 9.26698 18.0188 8.64118C17.393 8.01538 16.545 7.66264 15.66 7.66H6.48C6.51283 7.19395 6.72078 6.75757 7.06209 6.43852C7.4034 6.11947 7.85279 5.94137 8.32 5.94H19.41C19.898 5.94 20.366 6.13386 20.7111 6.47893C21.0561 6.82399 21.25 7.292 21.25 7.78V14ZM16.45 16.07C16.45 16.2689 16.371 16.4597 16.2303 16.6003C16.0897 16.741 15.8989 16.82 15.7 16.82H14.49C14.2911 16.82 14.1003 16.741 13.9597 16.6003C13.819 16.4597 13.74 16.2689 13.74 16.07C13.74 15.8711 13.819 15.6803 13.9597 15.5397C14.1003 15.399 14.2911 15.32 14.49 15.32H15.7C15.8972 15.32 16.0865 15.3976 16.2268 15.5361C16.3672 15.6746 16.4474 15.8628 16.45 16.06V16.07ZM8.2 16.07C8.2 16.2689 8.12098 16.4597 7.98033 16.6003C7.83968 16.741 7.64891 16.82 7.45 16.82H4.57C4.37109 16.82 4.18032 16.741 4.03967 16.6003C3.89902 16.4597 3.82 16.2689 3.82 16.07C3.82 15.8711 3.89902 15.6803 4.03967 15.5397C4.18032 15.399 4.37109 15.32 4.57 15.32H7.45C7.64719 15.32 7.83646 15.3976 7.97683 15.5361C8.11719 15.6746 8.19737 15.8628 8.2 16.06V16.07Z" fill="black"/>
</svg>
