<svg width="24" height="24" viewBox="0 0 24 24" fill="none" xmlns="http://www.w3.org/2000/svg">
<path d="M16.19 22.75H7.81C6.07018 22.75 4.40162 22.0589 3.17138 20.8286C1.94114 19.5984 1.25 17.9298 1.25 16.19V7.81C1.25 6.07018 1.94114 4.40162 3.17138 3.17138C4.40162 1.94114 6.07018 1.25 7.81 1.25H16.19C17.9298 1.25 19.5984 1.94114 20.8286 3.17138C22.0589 4.40162 22.75 6.07018 22.75 7.81V16.19C22.75 17.9298 22.0589 19.5984 20.8286 20.8286C19.5984 22.0589 17.9298 22.75 16.19 22.75ZM7.81 2.75C6.46882 2.75264 5.18332 3.2866 4.23496 4.23496C3.2866 5.18332 2.75264 6.46882 2.75 7.81V16.19C2.75264 17.5312 3.2866 18.8167 4.23496 19.765C5.18332 20.7134 6.46882 21.2474 7.81 21.25H16.19C17.5312 21.2474 18.8167 20.7134 19.765 19.765C20.7134 18.8167 21.2474 17.5312 21.25 16.19V7.81C21.2474 6.46882 20.7134 5.18332 19.765 4.23496C18.8167 3.2866 17.5312 2.75264 16.19 2.75H7.81ZM7.64 15.57L10.43 11.43C10.5105 11.3065 10.5533 11.1624 10.5533 11.015C10.5533 10.8676 10.5105 10.7235 10.43 10.6L7.65 6.28C7.54219 6.12365 7.37976 6.01333 7.19467 5.97076C7.00959 5.92819 6.81528 5.95646 6.65 6.05C6.49344 6.15778 6.38364 6.32098 6.3428 6.50662C6.30196 6.69225 6.33313 6.88647 6.43 7.05L8.91 11L6.39 14.74C6.29214 14.9024 6.2594 15.0958 6.29836 15.2813C6.33732 15.4668 6.44509 15.6307 6.6 15.74C6.7213 15.8219 6.86367 15.8671 7.01 15.87C7.13146 15.8748 7.25227 15.85 7.36201 15.7977C7.47176 15.7455 7.56716 15.6673 7.64 15.57ZM17.73 17.31C17.73 17.1111 17.651 16.9203 17.5103 16.7797C17.3697 16.639 17.1789 16.56 16.98 16.56H11.08C10.8811 16.56 10.6903 16.639 10.5497 16.7797C10.409 16.9203 10.33 17.1111 10.33 17.31C10.33 17.5089 10.409 17.6997 10.5497 17.8403C10.6903 17.981 10.8811 18.06 11.08 18.06H17C17.0972 18.0587 17.1932 18.0383 17.2824 17.9999C17.3717 17.9615 17.4526 17.9059 17.5203 17.8362C17.5881 17.7666 17.6415 17.6842 17.6775 17.594C17.7135 17.5037 17.7313 17.4072 17.73 17.31Z" fill="black"/>
</svg>
