<svg width="24" height="24" viewBox="0 0 24 24" fill="none" xmlns="http://www.w3.org/2000/svg">
<path d="M14.34 17.83L12.75 19.45L12.7 4.78999L14.31 6.42999C14.3789 6.50057 14.4614 6.55644 14.5525 6.59426C14.6436 6.63207 14.7414 6.65103 14.84 6.64999C15.0371 6.65038 15.2267 6.57522 15.37 6.43999C15.5105 6.29937 15.5894 6.10875 15.5894 5.90999C15.5894 5.71124 15.5105 5.52062 15.37 5.37999L12.43 2.37999C12.2842 2.24577 12.0932 2.17126 11.895 2.17126C11.6968 2.17126 11.5059 2.24577 11.36 2.37999L8.42002 5.37999C8.27957 5.52062 8.20068 5.71124 8.20068 5.90999C8.20068 6.10875 8.27957 6.29937 8.42002 6.43999C8.56065 6.58045 8.75127 6.65933 8.95002 6.65933C9.14877 6.65933 9.3394 6.58045 9.48002 6.43999L11.18 4.69999L11.23 19.6L9.53002 17.83C9.38916 17.6959 9.2017 17.6217 9.00721 17.6232C8.81271 17.6247 8.6264 17.7017 8.48758 17.8379C8.34876 17.9741 8.26828 18.1589 8.26314 18.3534C8.258 18.5478 8.32859 18.7366 8.46002 18.88L11.4 21.88C11.5395 22.0234 11.73 22.1061 11.93 22.11C12.1331 22.1066 12.3268 22.024 12.47 21.88L15.41 18.88C15.5505 18.7394 15.6294 18.5487 15.6294 18.35C15.6294 18.1512 15.5505 17.9606 15.41 17.82C15.3396 17.7496 15.2558 17.6939 15.1635 17.6563C15.0713 17.6186 14.9725 17.5997 14.8729 17.6006C14.7733 17.6015 14.6749 17.6223 14.5834 17.6617C14.4919 17.7011 14.4092 17.7583 14.34 17.83Z" fill="black"/>
</svg>
