<svg width="24" height="24" viewBox="0 0 24 24" fill="none" xmlns="http://www.w3.org/2000/svg">
<path d="M22.75 7.78001V16.17C22.7474 17.909 22.0554 19.576 20.8257 20.8057C19.596 22.0354 17.929 22.7274 16.19 22.73H7.81C6.07099 22.7274 4.40397 22.0354 3.1743 20.8057C1.94464 19.576 1.25264 17.909 1.25 16.17V7.78001C1.25265 6.04192 1.94496 4.37593 3.17491 3.14785C4.40486 1.91978 6.07191 1.23001 7.81 1.23001H16.19C17.9281 1.23001 19.5951 1.91978 20.8251 3.14785C22.055 4.37593 22.7474 6.04192 22.75 7.78001ZM2.75 16.17C2.75264 17.5112 3.2866 18.7967 4.23496 19.7451C5.18332 20.6934 6.46882 21.2274 7.81 21.23H16.19C17.5312 21.2274 18.8167 20.6934 19.765 19.7451C20.7134 18.7967 21.2474 17.5112 21.25 16.17V7.78001C21.2474 6.43975 20.7131 5.15529 19.7644 4.20851C18.8158 3.26174 17.5303 2.73001 16.19 2.73001H7.81C6.46974 2.73001 5.18422 3.26174 4.23557 4.20851C3.28692 5.15529 2.75265 6.43975 2.75 7.78001V16.17ZM16.26 12.34L12.61 8.85001C12.4226 8.66376 12.1692 8.55922 11.905 8.55922C11.6408 8.55922 11.3874 8.66376 11.2 8.85001L7.71 12.53C7.60771 12.622 7.5255 12.7341 7.46852 12.8593C7.41153 12.9845 7.38099 13.1202 7.37881 13.2577C7.37663 13.3953 7.40286 13.5318 7.45585 13.6587C7.50884 13.7857 7.58746 13.9004 7.68678 13.9955C7.78611 14.0907 7.904 14.1644 8.0331 14.2119C8.16219 14.2595 8.29971 14.2799 8.43704 14.2719C8.57438 14.2638 8.70858 14.2275 8.83126 14.1653C8.95393 14.103 9.06244 14.0161 9.15 13.91L12 11L14.93 13.8C15.1174 13.9863 15.3708 14.0908 15.635 14.0908C15.8992 14.0908 16.1526 13.9863 16.34 13.8C16.5211 13.6121 16.6216 13.3609 16.62 13.1C16.6188 12.9548 16.5859 12.8116 16.5238 12.6803C16.4616 12.5491 16.3716 12.433 16.26 12.34Z" fill="black"/>
</svg>
