<svg width="24" height="24" viewBox="0 0 24 24" fill="none" xmlns="http://www.w3.org/2000/svg">
<path d="M17.8501 14.47C17.7185 14.4708 17.588 14.4455 17.4662 14.3958C17.3444 14.346 17.2336 14.2727 17.1401 14.18L11.8901 8.92L6.63012 14.18C6.44275 14.3663 6.1893 14.4708 5.92512 14.4708C5.66093 14.4708 5.40748 14.3663 5.22011 14.18C5.12639 14.087 5.05199 13.9764 5.00122 13.8546C4.95045 13.7327 4.92432 13.602 4.92432 13.47C4.92432 13.338 4.95045 13.2073 5.00122 13.0854C5.05199 12.9636 5.12639 12.853 5.22011 12.76L11.2201 6.76C11.4075 6.57375 11.6609 6.46921 11.9251 6.46921C12.1893 6.46921 12.4428 6.57375 12.6301 6.76L18.6301 12.76C18.7238 12.853 18.7982 12.9636 18.849 13.0854C18.8998 13.2073 18.9259 13.338 18.9259 13.47C18.9259 13.602 18.8998 13.7327 18.849 13.8546C18.7982 13.9764 18.7238 14.087 18.6301 14.18C18.5285 14.2815 18.4063 14.3599 18.2717 14.41C18.1371 14.46 17.9933 14.4805 17.8501 14.47Z" fill="black"/>
</svg>
