<svg width="24" height="24" viewBox="0 0 24 24" fill="none" xmlns="http://www.w3.org/2000/svg">
<path d="M22.11 8.74C22.1156 8.68347 22.1156 8.62653 22.11 8.57C22.0009 6.87644 21.2523 5.28762 20.0157 4.12532C18.7792 2.96301 17.1471 2.3141 15.45 2.31H10.45C10.1977 1.98928 9.8778 1.72804 9.51313 1.54484C9.14847 1.36165 8.74795 1.26098 8.34 1.25H6.18C4.87248 1.25 3.61852 1.76941 2.69396 2.69396C1.76941 3.61852 1.25 4.87248 1.25 6.18V17.07C1.25 18.5764 1.84843 20.0212 2.91363 21.0864C3.97884 22.1516 5.42357 22.75 6.93 22.75H17.07C18.5764 22.75 20.0212 22.1516 21.0864 21.0864C22.1516 20.0212 22.75 18.5764 22.75 17.07V11.35C22.7517 10.441 22.532 9.54516 22.11 8.74ZM19.92 6.44C19.0536 5.93881 18.0709 5.67333 17.07 5.67H13.89C13.3314 5.67078 12.7856 5.50329 12.3236 5.18935C11.8616 4.87542 11.5049 4.4296 11.3 3.91V3.84H15.51C16.4084 3.84926 17.2886 4.0943 18.0625 4.55058C18.8364 5.00687 19.477 5.65841 19.92 6.44ZM21.22 17.07C21.22 18.1706 20.7828 19.2262 20.0045 20.0045C19.2262 20.7828 18.1706 21.22 17.07 21.22H6.93C5.82935 21.22 4.77378 20.7828 3.99551 20.0045C3.21723 19.2262 2.78 18.1706 2.78 17.07V6.18C2.78 5.27826 3.13821 4.41346 3.77584 3.77584C4.41346 3.13821 5.27826 2.78 6.18 2.78H8.34C8.5934 2.77782 8.84138 2.85333 9.05057 2.99636C9.25975 3.13939 9.42009 3.34308 9.51 3.58L9.87 4.48C10.1881 5.28151 10.7394 5.96916 11.4524 6.45406C12.1655 6.93895 13.0077 7.1988 13.87 7.2H17.05C18.1506 7.2 19.2062 7.63723 19.9845 8.41551C20.7628 9.19378 21.2 10.2494 21.2 11.35L21.22 17.07ZM10.85 13.58L8.51 14.4C8.42729 14.4144 8.34271 14.4144 8.26 14.4C8.11462 14.4071 7.97014 14.3735 7.8429 14.3028C7.71566 14.2321 7.61074 14.1272 7.54 14L6.69 11.77C6.63986 11.586 6.65982 11.3899 6.746 11.2197C6.83219 11.0495 6.97847 10.9174 7.15651 10.8489C7.33454 10.7804 7.53166 10.7805 7.70966 10.849C7.88767 10.9176 8.03389 11.0498 8.12 11.22L8.36 11.86C8.37217 11.8118 8.38891 11.765 8.41 11.72C8.92733 10.7787 9.7966 10.0807 10.8275 9.77897C11.8583 9.47721 12.9667 9.59624 13.91 10.11C14.0877 10.2068 14.2197 10.3702 14.2769 10.5643C14.3341 10.7584 14.3118 10.9673 14.215 11.145C14.1671 11.233 14.1023 11.3107 14.0243 11.3736C13.9464 11.4366 13.8568 11.4835 13.7607 11.5119C13.5666 11.5691 13.3577 11.5468 13.18 11.45C12.6077 11.1407 11.9383 11.0637 11.3107 11.235C10.6832 11.4063 10.1457 11.8128 9.81 12.37L10.34 12.18C10.4368 12.1391 10.541 12.1184 10.6461 12.1193C10.7512 12.1202 10.855 12.1425 10.9512 12.185C11.0473 12.2276 11.1337 12.2893 11.2051 12.3665C11.2764 12.4437 11.3313 12.5346 11.3661 12.6338C11.401 12.7329 11.4152 12.8382 11.4079 12.943C11.4005 13.0479 11.3718 13.1501 11.3234 13.2435C11.2751 13.3368 11.2081 13.4192 11.1267 13.4857C11.0453 13.5522 10.9511 13.6013 10.85 13.63V13.58ZM17 16.85L16.23 14.49C16.1971 14.3907 16.1448 14.2988 16.0762 14.2199C16.0075 14.1409 15.9238 14.0764 15.83 14.03C15.6346 13.9494 15.4154 13.9494 15.22 14.03L13 14.89C12.8248 14.9741 12.6879 15.1213 12.6168 15.3021C12.5456 15.4829 12.5455 15.684 12.6163 15.8649C12.6872 16.0458 12.8238 16.1933 12.9988 16.2777C13.1738 16.3621 13.3743 16.3772 13.56 16.32L14.03 16.13C13.6943 16.6872 13.1568 17.0937 12.5293 17.265C11.9017 17.4363 11.2323 17.3593 10.66 17.05C10.4865 16.9628 10.2863 16.9453 10.1003 17.0011C9.91438 17.0569 9.75683 17.1817 9.66 17.35C9.57525 17.5239 9.55905 17.7233 9.61464 17.9086C9.67023 18.0939 9.79352 18.2515 9.96 18.35C10.5567 18.6802 11.228 18.8523 11.91 18.85C12.6264 18.8474 13.3295 18.6566 13.949 18.2969C14.5685 17.9371 15.0827 17.4209 15.44 16.8L15.59 17.28C15.6418 17.4331 15.7398 17.5663 15.8706 17.6612C16.0014 17.7562 16.1584 17.8082 16.32 17.81C16.3993 17.8244 16.4807 17.8244 16.56 17.81C16.7435 17.7382 16.8919 17.598 16.974 17.4189C17.0561 17.2398 17.0654 17.0358 17 16.85Z" fill="black"/>
</svg>
