<svg width="24" height="24" viewBox="0 0 24 24" fill="none" xmlns="http://www.w3.org/2000/svg">
<path d="M8.18013 14.68L5.89013 15.49C5.81074 15.504 5.72951 15.504 5.65013 15.49C5.50574 15.4808 5.36723 15.4295 5.2517 15.3424C5.13617 15.2553 5.04871 15.1363 5.00013 15L4.16013 12.79C4.0879 12.5989 4.09353 12.3871 4.17581 12.2001C4.25808 12.0131 4.41044 11.8658 4.60013 11.79C4.69415 11.7485 4.79579 11.727 4.89857 11.7269C5.00136 11.7268 5.10303 11.7482 5.19711 11.7896C5.29118 11.831 5.37561 11.8915 5.445 11.9673C5.51439 12.0432 5.56722 12.1326 5.60013 12.23L5.84013 12.86C5.84013 12.86 5.84013 12.77 5.84013 12.73C6.08836 12.2668 6.42544 11.857 6.83209 11.5242C7.23875 11.1913 7.70701 10.9418 8.21013 10.79C8.70775 10.645 9.22924 10.6004 9.74427 10.6587C10.2593 10.7171 10.7576 10.8773 11.2101 11.13C11.3766 11.2285 11.4999 11.3861 11.5555 11.5714C11.6111 11.7567 11.5949 11.9561 11.5101 12.13C11.417 12.302 11.2594 12.4302 11.072 12.4864C10.8846 12.5426 10.6826 12.5223 10.5101 12.43C9.94958 12.1235 9.29178 12.047 8.67589 12.2169C8.06 12.3867 7.53434 12.7895 7.21013 13.34L7.73013 13.16C7.82609 13.119 7.92964 13.0988 8.03396 13.1007C8.13829 13.1025 8.24105 13.1264 8.33548 13.1708C8.42992 13.2152 8.5139 13.2791 8.58191 13.3582C8.64993 13.4373 8.70044 13.5299 8.73013 13.63C8.77377 13.7344 8.79385 13.8472 8.78895 13.9602C8.78404 14.0733 8.75428 14.1839 8.70176 14.2842C8.64925 14.3844 8.57527 14.4719 8.48511 14.5403C8.39495 14.6087 8.29082 14.6564 8.18013 14.68ZM14.1801 17.93L13.4301 15.58C13.3971 15.4819 13.3447 15.3916 13.2759 15.3143C13.2072 15.2369 13.1236 15.1743 13.0301 15.13C12.9375 15.0877 12.8369 15.0658 12.7351 15.0658C12.6333 15.0658 12.5327 15.0877 12.4401 15.13L10.2801 16C10.0941 16.0796 9.94624 16.2284 9.86787 16.415C9.7895 16.6016 9.78672 16.8114 9.86013 17C9.89277 17.0974 9.94561 17.1868 10.0152 17.2624C10.0848 17.338 10.1695 17.3981 10.2639 17.4387C10.3583 17.4793 10.4602 17.4995 10.563 17.498C10.6657 17.4965 10.767 17.4733 10.8601 17.43L11.3201 17.25C10.9995 17.8044 10.4739 18.2105 9.85648 18.3808C9.23911 18.551 8.57955 18.4717 8.02013 18.16C7.84666 18.0728 7.64641 18.0553 7.46046 18.1111C7.27451 18.1669 7.11696 18.2917 7.02013 18.46C6.9377 18.6343 6.92275 18.8329 6.97815 19.0176C7.03355 19.2022 7.15538 19.3598 7.32013 19.46C8.23671 19.964 9.31578 20.0838 10.3206 19.7932C11.3254 19.5027 12.174 18.8254 12.6801 17.91L12.8401 18.39C12.884 18.544 12.9772 18.6792 13.1055 18.775C13.2338 18.8708 13.39 18.9217 13.5501 18.92C13.6261 18.9343 13.7041 18.9343 13.7801 18.92C13.8736 18.8836 13.959 18.829 14.0313 18.7594C14.1036 18.6898 14.1614 18.6066 14.2014 18.5146C14.2414 18.4225 14.2627 18.3235 14.2642 18.2231C14.2657 18.1228 14.2473 18.0232 14.2101 17.93H14.1801ZM22.7501 10.47C22.7558 10.4201 22.7558 10.3698 22.7501 10.32C22.7829 10.1937 22.7826 10.0612 22.7493 9.93511C22.7161 9.80902 22.6509 9.69361 22.5601 9.59998L14.5601 1.46998C14.4972 1.40871 14.4223 1.36105 14.3401 1.32998C14.3401 1.32998 14.3401 1.32998 14.2701 1.32998C14.2071 1.32067 14.1431 1.32067 14.0801 1.32998H7.62013C5.93211 1.3457 4.31798 2.0246 3.12619 3.22013C1.9344 4.41567 1.26055 6.03192 1.25013 7.71998V16.28C1.23947 17.9819 1.90398 19.6186 3.09803 20.8314C4.29208 22.0442 5.91825 22.7341 7.62013 22.75H16.4401C18.142 22.7341 19.7682 22.0442 20.9622 20.8314C22.1563 19.6186 22.8208 17.9819 22.8101 16.28L22.7501 10.47ZM14.7501 3.84998L20.1901 9.37998H17.3101C16.9753 9.37736 16.6442 9.30881 16.3358 9.17824C16.0274 9.04767 15.7478 8.85763 15.5128 8.61898C15.2779 8.38033 15.0923 8.09774 14.9666 7.78735C14.8408 7.47696 14.7775 7.14485 14.7801 6.80998L14.7501 3.84998ZM16.4101 21.23H7.62013C6.97533 21.2247 6.33788 21.0926 5.74417 20.841C5.15046 20.5894 4.61213 20.2233 4.1599 19.7636C3.70767 19.304 3.35042 18.7598 3.10853 18.162C2.86664 17.5643 2.74485 16.9248 2.75013 16.28V7.71998C2.74485 7.07518 2.86664 6.43566 3.10853 5.83793C3.35042 5.2402 3.70767 4.69597 4.1599 4.23632C4.61213 3.77667 5.15046 3.41059 5.74417 3.15899C6.33788 2.9074 6.97533 2.77521 7.62013 2.76998H13.2801V6.76998C13.2747 7.84085 13.6916 8.87071 14.4403 9.63631C15.1891 10.4019 16.2094 10.8416 17.2801 10.86H21.2801V16.24C21.2988 17.5432 20.7997 18.8006 19.8923 19.7361C18.9848 20.6716 17.7433 21.2089 16.4401 21.23H16.4101Z" fill="black"/>
</svg>
