<svg width="24" height="24" viewBox="0 0 24 24" fill="none" xmlns="http://www.w3.org/2000/svg">
<path d="M22.7998 16V7.92C22.7893 6.14734 22.0777 4.45088 20.8204 3.20115C19.5632 1.95142 17.8625 1.24997 16.0898 1.25H7.94983C7.06192 1.24469 6.18179 1.41566 5.36045 1.753C4.5391 2.09034 3.79288 2.58734 3.16502 3.21519C2.53716 3.84305 2.04017 4.58927 1.70283 5.41062C1.36549 6.23196 1.19452 7.11209 1.19983 8V16.08C1.21108 17.3708 1.59444 18.631 2.30392 19.7094C3.01341 20.7878 4.0189 21.6387 5.19983 22.16C5.38983 22.24 5.57983 22.32 5.76983 22.38H5.83983L6.42983 22.54H6.51983C6.69983 22.54 6.88983 22.6 7.07983 22.63H7.19983C7.40983 22.63 7.62983 22.63 7.84983 22.63H7.99983H16.1398C16.3598 22.63 16.5898 22.63 16.8098 22.63H16.9798C17.1512 22.6131 17.3215 22.5864 17.4898 22.55H17.5798L18.1698 22.39C18.3898 22.32 18.6098 22.23 18.8198 22.14L19.4498 21.86C19.9709 21.555 20.4514 21.1854 20.8798 20.76C21.4974 20.132 21.985 19.3883 22.3145 18.5715C22.644 17.7546 22.8089 16.8807 22.7998 16ZM7.84983 21.26C7.59446 21.2587 7.33987 21.2319 7.08983 21.18C6.96472 21.1673 6.84093 21.1439 6.71983 21.11L6.48983 21C6.9981 19.9758 7.78227 19.1138 8.754 18.5112C9.72574 17.9087 10.8464 17.5894 11.9898 17.5894C13.1332 17.5894 14.2539 17.9087 15.2257 18.5112C16.1974 19.1138 16.9816 19.9758 17.4898 21L17.2698 21.07L17.0198 21.12C16.724 21.184 16.4225 21.2175 16.1198 21.22L7.99983 21.27L7.84983 21.26ZM18.8498 20.42C18.2308 19.1269 17.2587 18.0353 16.0457 17.2712C14.8328 16.5071 13.4284 16.1016 11.9948 16.1016C10.5612 16.1016 9.15688 16.5071 7.94392 17.2712C6.73095 18.0353 5.75884 19.1269 5.13983 20.42C4.41001 19.9537 3.80822 19.3125 3.3891 18.5545C2.96998 17.7966 2.7468 16.946 2.73983 16.08L2.69983 8C2.69714 6.62074 3.24044 5.29648 4.21103 4.31652C5.18162 3.33656 6.50061 2.78056 7.87983 2.77H16.0198C17.3956 2.77259 18.7148 3.31823 19.6904 4.28825C20.666 5.25827 21.2193 6.57424 21.2298 7.95V16.03C21.2355 16.7145 21.1049 17.3932 20.8456 18.0267C20.5864 18.6602 20.2037 19.2358 19.7198 19.72C19.4581 19.9865 19.1661 20.2214 18.8498 20.42ZM11.9998 6.16C11.1355 6.16 10.2906 6.41629 9.57199 6.89648C8.85334 7.37666 8.29323 8.05916 7.96247 8.85767C7.63172 9.65619 7.54518 10.5348 7.7138 11.3825C7.88241 12.2302 8.29861 13.0089 8.90977 13.6201C9.52093 14.2312 10.2996 14.6474 11.1473 14.816C11.995 14.9846 12.8736 14.8981 13.6722 14.5674C14.4707 14.2366 15.1532 13.6765 15.6333 12.9578C16.1135 12.2392 16.3698 11.3943 16.3698 10.53C16.3698 9.371 15.9094 8.25948 15.0899 7.43994C14.2703 6.62041 13.1588 6.16 11.9998 6.16ZM11.9998 13.4C11.4322 13.4 10.8773 13.2317 10.4053 12.9163C9.93337 12.601 9.56552 12.1527 9.34829 11.6283C9.13107 11.1039 9.07423 10.5268 9.18497 9.97009C9.29571 9.41336 9.56905 8.90198 9.97043 8.5006C10.3718 8.09923 10.8832 7.82588 11.4399 7.71514C11.9966 7.6044 12.5737 7.66124 13.0981 7.87846C13.6226 8.09569 14.0708 8.46354 14.3861 8.93551C14.7015 9.40748 14.8698 9.96237 14.8698 10.53C14.8672 11.2904 14.564 12.0188 14.0263 12.5565C13.4887 13.0941 12.7602 13.3974 11.9998 13.4Z" fill="black"/>
</svg>
