<svg width="24" height="24" viewBox="0 0 24 24" fill="none" xmlns="http://www.w3.org/2000/svg">
<path d="M11.8001 13.29C10.6708 13.29 9.56678 12.9551 8.62778 12.3277C7.68877 11.7003 6.95691 10.8085 6.52473 9.76512C6.09255 8.72175 5.97948 7.57366 6.1998 6.46603C6.42012 5.3584 6.96395 4.34098 7.7625 3.54242C8.56106 2.74386 9.57849 2.20004 10.6861 1.97971C11.7937 1.75939 12.9418 1.87247 13.9852 2.30465C15.0286 2.73682 15.9204 3.46869 16.5478 4.40769C17.1752 5.3467 17.5101 6.45067 17.5101 7.58C17.5101 8.32985 17.3624 9.07235 17.0754 9.76512C16.7885 10.4579 16.3679 11.0874 15.8377 11.6176C15.3074 12.1478 14.678 12.5684 13.9852 12.8554C13.2924 13.1423 12.5499 13.29 11.8001 13.29ZM11.8001 3.37C10.967 3.36802 10.1521 3.61325 9.45841 4.07464C8.76477 4.53604 8.22361 5.19286 7.90343 5.96196C7.58325 6.73106 7.49845 7.57786 7.65976 8.39518C7.82107 9.2125 8.22125 9.96358 8.80963 10.5534C9.39801 11.1431 10.1481 11.5451 10.9651 11.7084C11.782 11.8716 12.629 11.7888 13.3989 11.4705C14.1687 11.1521 14.8268 10.6125 15.2899 9.91998C15.7529 9.22744 16.0001 8.41308 16.0001 7.58C15.9975 6.46597 15.5544 5.39818 14.7676 4.60951C13.9808 3.82084 12.9141 3.37527 11.8001 3.37ZM3.64008 21.51C4.22008 18.07 7.73008 15.51 11.8001 15.51C12.5235 15.5091 13.2447 15.5896 13.9501 15.75C14.0485 15.7791 14.1518 15.7877 14.2536 15.7752C14.3555 15.7628 14.4537 15.7295 14.5422 15.6776C14.6306 15.6257 14.7075 15.5562 14.7681 15.4734C14.8286 15.3905 14.8715 15.2962 14.8942 15.1961C14.9168 15.096 14.9186 14.9924 14.8996 14.8916C14.8806 14.7907 14.841 14.6949 14.7835 14.61C14.7259 14.525 14.6515 14.4528 14.565 14.3978C14.4784 14.3428 14.3814 14.3061 14.2801 14.29C13.4674 14.0976 12.6352 14.0003 11.8001 14C7.00008 14 2.87008 17.11 2.16008 21.26C2.13103 21.4559 2.17957 21.6553 2.29536 21.816C2.41116 21.9766 2.58507 22.0857 2.78008 22.12H2.91008C3.08353 22.1184 3.25107 22.0568 3.38417 21.9455C3.51728 21.8343 3.60771 21.6804 3.64008 21.51ZM15.2701 21.3C15.0722 21.3002 14.8763 21.2604 14.6942 21.1831C14.512 21.1058 14.3474 20.9925 14.2101 20.85C14.0536 20.678 13.9395 20.4717 13.877 20.2477C13.8145 20.0237 13.8053 19.7882 13.8501 19.56L14.1501 18.14C14.2255 17.7817 14.4066 17.4543 14.6701 17.2L18.0901 14C18.2678 13.8379 18.4761 13.7128 18.7028 13.6321C18.9294 13.5514 19.1699 13.5167 19.4101 13.53C19.8945 13.5604 20.3489 13.7751 20.6801 14.13L21.3301 14.83C21.6721 15.1763 21.8638 15.6433 21.8638 16.13C21.8638 16.6167 21.6721 17.0837 21.3301 17.43L17.9101 20.62C17.6357 20.8781 17.2846 21.0396 16.9101 21.08L15.4701 21.28L15.2701 21.3ZM19.2701 15.04C19.2001 15.0378 19.1319 15.0629 19.0801 15.11L15.7001 18.3C15.6607 18.3382 15.633 18.3867 15.6201 18.44L15.3201 19.87L16.7001 19.6C16.7564 19.5936 16.809 19.569 16.8501 19.53L20.2601 16.34C20.3191 16.274 20.3518 16.1885 20.3518 16.1C20.3518 16.0114 20.3191 15.926 20.2601 15.86L19.6001 15.16C19.5669 15.1237 19.5268 15.0944 19.4822 15.0738C19.4375 15.0532 19.3892 15.0417 19.3401 15.04H19.2701Z" fill="black"/>
</svg>
