<svg width="24" height="24" viewBox="0 0 24 24" fill="none" xmlns="http://www.w3.org/2000/svg">
<path d="M12.0001 12.67C10.8691 12.67 9.76356 12.3341 8.82371 11.7048C7.88386 11.0756 7.15204 10.1815 6.72106 9.13579C6.29009 8.09009 6.17937 6.93995 6.40295 5.83124C6.62654 4.72253 7.17435 3.7052 7.97691 2.90826C8.77948 2.11131 9.80064 1.57067 10.9109 1.35489C12.0211 1.1391 13.1705 1.2579 14.2131 1.69622C15.2558 2.13453 16.1447 2.87262 16.7673 3.81687C17.3899 4.76112 17.7181 5.869 17.7101 7C17.6996 8.50745 17.0933 9.94955 16.0236 11.0117C14.9539 12.0739 13.5076 12.67 12.0001 12.67ZM12.0001 2.75C11.1692 2.75004 10.3568 2.99598 9.66539 3.45683C8.97396 3.91769 8.43436 4.57285 8.11457 5.3398C7.79479 6.10675 7.70911 6.95118 7.86834 7.76673C8.02757 8.58228 8.42458 9.33247 9.00936 9.92281C9.59415 10.5132 10.3406 10.9172 11.1546 11.0842C11.9686 11.2511 12.8138 11.1734 13.5837 10.8609C14.3536 10.5484 15.0139 10.015 15.4813 9.32795C15.9486 8.64091 16.2022 7.83091 16.2101 7C16.2141 6.44415 16.1082 5.89298 15.8985 5.37818C15.6888 4.86337 15.3795 4.39506 14.9883 4.00014C14.5971 3.60523 14.1317 3.29149 13.6189 3.07695C13.1061 2.86242 12.556 2.75131 12.0001 2.75ZM19.7001 22.75H4.30013C4.00789 22.7529 3.71855 22.6918 3.45248 22.5708C3.18642 22.4499 2.95009 22.2721 2.76013 22.05C2.59491 21.8582 2.47352 21.6327 2.40443 21.3892C2.33535 21.1456 2.32023 20.89 2.36013 20.64C3.06013 16.49 7.21013 13.36 12.0001 13.36C16.7901 13.36 20.9401 16.49 21.6401 20.64C21.68 20.89 21.6649 21.1456 21.5958 21.3892C21.5268 21.6327 21.4054 21.8582 21.2401 22.05C21.0502 22.2721 20.8139 22.4499 20.5478 22.5708C20.2817 22.6918 19.9924 22.7529 19.7001 22.75ZM12.0001 14.86C7.93013 14.86 4.42013 17.45 3.84013 20.86C3.83595 20.8941 3.83913 20.9287 3.84949 20.9615C3.85984 20.9943 3.87711 21.0245 3.90013 21.05C3.95017 21.1061 4.01197 21.1504 4.08112 21.1797C4.15027 21.2091 4.22506 21.2229 4.30013 21.22H19.7001C19.7752 21.2229 19.85 21.2091 19.9192 21.1797C19.9883 21.1504 20.0501 21.1061 20.1001 21.05C20.1232 21.0245 20.1404 20.9943 20.1508 20.9615C20.1611 20.9287 20.1643 20.8941 20.1601 20.86C19.5801 17.45 16.0701 14.86 12.0001 14.86Z" fill="black"/>
</svg>
