<svg width="24" height="24" viewBox="0 0 24 24" fill="none" xmlns="http://www.w3.org/2000/svg">
<path d="M11.4898 13.24C12.6176 13.24 13.72 12.9055 14.6576 12.2787C15.5952 11.6519 16.3258 10.7611 16.7569 9.71901C17.188 8.67689 17.3003 7.5303 17.0796 6.42433C16.8588 5.31837 16.3149 4.30274 15.5168 3.50598C14.7186 2.70922 13.7021 2.16714 12.5957 1.94834C11.4894 1.72953 10.343 1.84384 9.3016 2.27679C8.26023 2.70975 7.37071 3.44188 6.74559 4.38056C6.12047 5.31923 5.78785 6.42225 5.78983 7.55003C5.78983 8.29809 5.93733 9.03882 6.22391 9.72981C6.51048 10.4208 6.9305 11.0485 7.45993 11.577C7.98935 12.1055 8.61779 12.5244 9.30929 12.8098C10.0008 13.0951 10.7418 13.2413 11.4898 13.24ZM11.4898 3.35003C12.3205 3.35003 13.1325 3.59636 13.8232 4.05786C14.5139 4.51936 15.0522 5.17531 15.3701 5.94276C15.688 6.71021 15.7712 7.55469 15.6091 8.36941C15.4471 9.18413 15.0471 9.9325 14.4597 10.5199C13.8723 11.1073 13.1239 11.5073 12.3092 11.6693C11.4945 11.8314 10.65 11.7482 9.88256 11.4303C9.11511 11.1124 8.45916 10.5741 7.99766 9.88342C7.53615 9.19274 7.28983 8.38071 7.28983 7.55003C7.28983 6.43612 7.73233 5.36783 8.51998 4.58018C9.30763 3.79253 10.3759 3.35003 11.4898 3.35003ZM17.4298 12.73C16.7854 12.7287 16.1477 12.8614 15.5572 13.1196C14.9667 13.3778 14.4364 13.756 13.9998 14.23C13.1739 14.0349 12.3285 13.9342 11.4798 13.93C6.69983 13.93 2.56983 17.04 1.86983 21.18C1.85265 21.2766 1.85485 21.3757 1.87631 21.4714C1.89777 21.5672 1.93805 21.6577 1.99482 21.7377C2.05158 21.8177 2.12369 21.8857 2.20696 21.9376C2.29022 21.9895 2.38298 22.0243 2.47983 22.04H2.60983C2.7859 22.0384 2.95595 21.9757 3.09092 21.8626C3.22588 21.7495 3.3174 21.5931 3.34983 21.42C3.91983 18 7.41983 15.42 11.4798 15.42C12.023 15.4253 12.5649 15.4755 13.0998 15.57C12.8423 16.1563 12.7095 16.7897 12.7098 17.43C12.7098 18.3616 12.9861 19.2722 13.5036 20.0468C14.0211 20.8213 14.7568 21.425 15.6174 21.7815C16.478 22.138 17.4251 22.2313 18.3387 22.0495C19.2524 21.8678 20.0916 21.4192 20.7503 20.7605C21.409 20.1018 21.8576 19.2626 22.0393 18.3489C22.2211 17.4353 22.1278 16.4882 21.7713 15.6276C21.4148 14.767 20.8111 14.0313 20.0366 13.5138C19.262 12.9963 18.3514 12.72 17.4198 12.72L17.4298 12.73ZM17.4298 20.65C16.7945 20.652 16.1729 20.4654 15.6437 20.1139C15.1145 19.7624 14.7015 19.2618 14.4571 18.6754C14.2126 18.089 14.1476 17.4433 14.2703 16.8199C14.393 16.1966 14.698 15.6237 15.1465 15.1738C15.595 14.7238 16.167 14.4171 16.7899 14.2925C17.4129 14.1678 18.0588 14.2308 18.6459 14.4734C19.2331 14.7161 19.735 15.1275 20.0881 15.6556C20.4413 16.1837 20.6298 16.8047 20.6298 17.44C20.6298 18.2896 20.293 19.1046 19.6932 19.7063C19.0933 20.308 18.2794 20.6474 17.4298 20.65ZM19.4298 15.89C19.5744 16.0094 19.6676 16.1798 19.6899 16.366C19.7122 16.5522 19.6621 16.7398 19.5498 16.89L17.8698 19.04C17.799 19.1289 17.7093 19.201 17.6073 19.2512C17.5053 19.3013 17.3935 19.3282 17.2798 19.33C17.1673 19.3296 17.0565 19.3033 16.9559 19.253C16.8553 19.2027 16.7676 19.1298 16.6998 19.04L15.4798 17.49C15.3711 17.3378 15.324 17.15 15.3481 16.9645C15.3722 16.7789 15.4658 16.6094 15.6098 16.49C15.76 16.3778 15.9477 16.3276 16.1338 16.35C16.32 16.3723 16.4905 16.4654 16.6098 16.61L17.2398 17.42L18.3798 16C18.5032 15.8476 18.6821 15.7505 18.8771 15.7298C19.0721 15.7092 19.2673 15.7668 19.4198 15.89H19.4298Z" fill="black"/>
</svg>
