<svg width="24" height="24" viewBox="0 0 24 24" fill="none" xmlns="http://www.w3.org/2000/svg">
<path d="M12 22.75C11.2497 22.7494 10.5303 22.4509 10 21.92L8.59001 20.51C8.56361 20.4841 8.53234 20.4637 8.49802 20.45C8.46369 20.4363 8.42698 20.4295 8.39001 20.43H6.39001C5.64119 20.4274 4.92393 20.128 4.39536 19.5976C3.8668 19.0672 3.57001 18.3488 3.57001 17.6V15.6C3.57054 15.563 3.56375 15.5263 3.55002 15.492C3.53629 15.4577 3.51589 15.4264 3.49001 15.4L2.08001 14C1.5524 13.4681 1.25635 12.7492 1.25635 12C1.25635 11.2508 1.5524 10.5319 2.08001 10L3.49001 8.59001C3.51589 8.56361 3.53629 8.53234 3.55002 8.49802C3.56375 8.46369 3.57054 8.42698 3.57001 8.39001V6.39001C3.57266 5.64119 3.87199 4.92393 4.40243 4.39536C4.93287 3.8668 5.65118 3.57001 6.40001 3.57001H8.40001C8.43698 3.57054 8.47369 3.56375 8.50802 3.55002C8.54234 3.53629 8.57361 3.51589 8.60001 3.49001L10 2.08001C10.5319 1.5524 11.2508 1.25635 12 1.25635C12.7492 1.25635 13.4681 1.5524 14 2.08001L15.41 3.49001C15.4364 3.51589 15.4677 3.53629 15.502 3.55002C15.5363 3.56375 15.573 3.57054 15.61 3.57001H17.61C18.3588 3.57266 19.0761 3.87199 19.6047 4.40243C20.1332 4.93287 20.43 5.65118 20.43 6.40001V8.40001C20.4295 8.43698 20.4363 8.47369 20.45 8.50802C20.4637 8.54234 20.4841 8.57361 20.51 8.60001L21.92 10C22.4476 10.5319 22.7437 11.2508 22.7437 12C22.7437 12.7492 22.4476 13.4681 21.92 14L20.51 15.41C20.4841 15.4364 20.4637 15.4677 20.45 15.502C20.4363 15.5363 20.4295 15.573 20.43 15.61V17.61C20.43 17.9817 20.3568 18.3497 20.2146 18.693C20.0724 19.0364 19.8639 19.3483 19.6011 19.6111C19.3383 19.8739 19.0264 20.0824 18.683 20.2246C18.3397 20.3668 17.9717 20.44 17.6 20.44H15.6C15.563 20.4395 15.5263 20.4463 15.492 20.46C15.4577 20.4737 15.4264 20.4941 15.4 20.52L14 21.92C13.4697 22.4509 12.7504 22.7494 12 22.75ZM6.40001 5.07001C6.04809 5.07263 5.71131 5.2136 5.46245 5.46245C5.2136 5.71131 5.07263 6.04809 5.07001 6.40001V8.40001C5.07261 8.63422 5.02788 8.86654 4.93853 9.08305C4.84918 9.29956 4.71703 9.4958 4.55001 9.66001L3.14001 11.06C2.89087 11.3094 2.75092 11.6475 2.75092 12C2.75092 12.3525 2.89087 12.6906 3.14001 12.94L4.55001 14.35C4.71657 14.5146 4.84841 14.7109 4.93773 14.9273C5.02705 15.1437 5.07204 15.3759 5.07001 15.61V17.61C5.07523 17.9602 5.21734 18.2944 5.46592 18.5411C5.71451 18.7879 6.0498 18.9274 6.40001 18.93H8.40001C8.63422 18.9274 8.86654 18.9721 9.08305 19.0615C9.29956 19.1509 9.4958 19.283 9.66001 19.45L11.07 20.86C11.3194 21.1092 11.6575 21.2491 12.01 21.2491C12.3625 21.2491 12.7006 21.1092 12.95 20.86L14.36 19.45C14.5246 19.2835 14.7209 19.1516 14.9373 19.0623C15.1537 18.973 15.3859 18.928 15.62 18.93H17.62C17.9719 18.9274 18.3087 18.7864 18.5576 18.5376C18.8064 18.2887 18.9474 17.9519 18.95 17.6V15.6C18.9474 15.3658 18.9921 15.1335 19.0815 14.917C19.1709 14.7005 19.303 14.5042 19.47 14.34L20.88 12.93C21.1292 12.6806 21.2691 12.3425 21.2691 11.99C21.2691 11.6375 21.1292 11.2994 20.88 11.05L19.45 9.65001C19.1182 9.31442 18.9315 8.86194 18.93 8.39001V6.39001C18.9248 6.03983 18.7827 5.7056 18.5341 5.45889C18.2855 5.21217 17.9502 5.07259 17.6 5.07001H15.6C15.3659 5.07204 15.1337 5.02705 14.9173 4.93773C14.7009 4.84841 14.5046 4.71657 14.34 4.55001L12.94 3.14001C12.6906 2.89087 12.3525 2.75092 12 2.75092C11.6475 2.75092 11.3094 2.89087 11.06 3.14001L9.65001 4.55001C9.4858 4.71703 9.28956 4.84918 9.07305 4.93853C8.85654 5.02788 8.62422 5.07261 8.39001 5.07001H6.40001ZM11.27 15L16.18 10.21C16.3205 10.0694 16.3994 9.87877 16.3994 9.68001C16.3994 9.48126 16.3205 9.29064 16.18 9.15001C16.0394 9.00956 15.8488 8.93067 15.65 8.93067C15.4513 8.93067 15.2606 9.00956 15.12 9.15001L10.75 13.4L8.91001 11.53C8.84201 11.4558 8.75977 11.3961 8.6682 11.3544C8.57662 11.3126 8.47758 11.2897 8.37698 11.2871C8.27638 11.2844 8.17627 11.302 8.08262 11.3389C7.98896 11.3757 7.90368 11.431 7.83185 11.5015C7.76002 11.572 7.70311 11.6562 7.66452 11.7492C7.62592 11.8421 7.60642 11.9419 7.60718 12.0425C7.60794 12.1431 7.62895 12.2426 7.66895 12.3349C7.70895 12.4273 7.76713 12.5106 7.84001 12.58L10.21 15C10.2788 15.0715 10.361 15.1286 10.452 15.1681C10.543 15.2076 10.6409 15.2286 10.74 15.23C10.8393 15.2292 10.9373 15.2084 11.0284 15.1689C11.1194 15.1294 11.2016 15.0719 11.27 15Z" fill="black"/>
</svg>
