<svg width="24" height="25" viewBox="0 0 24 25" fill="none" xmlns="http://www.w3.org/2000/svg">
<path d="M9.15 8.52001C9.08703 8.44334 9.0473 8.35025 9.03551 8.25174C9.02372 8.15322 9.04036 8.05339 9.08346 7.96403C9.12657 7.87466 9.19434 7.79949 9.27878 7.74739C9.36322 7.6953 9.4608 7.66844 9.56001 7.67H14.5C14.5984 7.67047 14.6948 7.69833 14.7783 7.75047C14.8618 7.80261 14.9291 7.87697 14.9727 7.96521C15.0163 8.05346 15.0344 8.1521 15.0251 8.25009C15.0158 8.34808 14.9794 8.44154 14.92 8.52001L12.5 11.76C12.4505 11.8243 12.3869 11.8764 12.3141 11.9123C12.2412 11.9481 12.1612 11.9667 12.08 11.9667C11.9988 11.9667 11.9188 11.9481 11.8459 11.9123C11.7731 11.8764 11.7095 11.8243 11.66 11.76L9.15 8.52001ZM17.37 9.23C17.29 9.17195 17.1993 9.13028 17.1031 9.1074C17.007 9.08452 16.9072 9.08087 16.8097 9.09667C16.7121 9.11247 16.6186 9.1474 16.5345 9.19946C16.4505 9.25151 16.3776 9.31967 16.32 9.4L12 15.31L7.67 9.39001C7.61568 9.30117 7.54345 9.22462 7.45792 9.16522C7.37239 9.10583 7.27542 9.0649 7.1732 9.04504C7.07098 9.02518 6.96575 9.02682 6.8642 9.04987C6.76265 9.07291 6.66701 9.11684 6.58337 9.17887C6.49974 9.2409 6.42993 9.31967 6.37841 9.41016C6.32688 9.50065 6.29476 9.60088 6.2841 9.70446C6.27343 9.80805 6.28446 9.91271 6.31646 10.0118C6.34847 10.1109 6.40076 10.2022 6.47 10.28L11.47 17.02C11.5394 17.1144 11.6296 17.1915 11.7337 17.2453C11.8378 17.2991 11.9529 17.3281 12.07 17.33C12.1893 17.3321 12.3072 17.3049 12.4136 17.2509C12.5199 17.1969 12.6114 17.1176 12.68 17.02L17.58 10.28C17.6361 10.1976 17.6752 10.1048 17.695 10.0071C17.7148 9.90937 17.715 9.80869 17.6954 9.71092C17.6759 9.61315 17.637 9.52027 17.5811 9.43769C17.5253 9.35512 17.4535 9.28451 17.37 9.23ZM12 23.25C9.87386 23.25 7.79545 22.6195 6.02762 21.4383C4.2598 20.2571 2.88194 18.5782 2.0683 16.6139C1.25466 14.6495 1.04177 12.4881 1.45656 10.4028C1.87135 8.31749 2.89519 6.40202 4.39861 4.89861C5.90202 3.39519 7.81749 2.37135 9.90278 1.95656C11.9881 1.54177 14.1495 1.75466 16.1139 2.5683C18.0782 3.38194 19.7571 4.7598 20.9383 6.52762C22.1195 8.29545 22.75 10.3739 22.75 12.5C22.7474 15.3503 21.6139 18.083 19.5985 20.0985C17.583 22.1139 14.8503 23.2474 12 23.25ZM12 3.25C10.1705 3.25 8.38213 3.79251 6.86098 4.80891C5.33983 5.82531 4.15423 7.26997 3.45412 8.96018C2.75401 10.6504 2.57083 12.5103 2.92774 14.3046C3.28465 16.0989 4.16563 17.7471 5.45927 19.0407C6.7529 20.3344 8.40109 21.2154 10.1954 21.5723C11.9897 21.9292 13.8496 21.746 15.5398 21.0459C17.23 20.3458 18.6747 19.1602 19.6911 17.639C20.7075 16.1179 21.25 14.3295 21.25 12.5C21.2474 10.0476 20.272 7.69633 18.5378 5.96219C16.8037 4.22805 14.4524 3.25265 12 3.25Z" fill="black"/>
</svg>
