<svg width="24" height="24" viewBox="0 0 24 24" fill="none" xmlns="http://www.w3.org/2000/svg">
<path d="M13.0702 22.8201H11.0702C10.6881 22.8313 10.3128 22.7172 10.0017 22.495C9.69053 22.2729 9.46071 21.9549 9.34732 21.5898C9.23394 21.2247 9.24323 20.8326 9.37378 20.4732C9.50432 20.1139 9.74894 19.8072 10.0702 19.6001C8.66877 19.2407 7.40117 18.4836 6.42024 17.4201C6.41263 17.5655 6.38916 17.7097 6.35024 17.8501C6.29227 18.0729 6.19088 18.2822 6.05188 18.4658C5.91289 18.6494 5.73902 18.8038 5.54024 18.9201C5.13504 19.1366 4.66263 19.191 4.21881 19.0722C3.77499 18.9533 3.39298 18.6702 3.15024 18.2801L2.15024 16.5401C1.96907 16.2384 1.8836 15.889 1.90511 15.5378C1.92661 15.1866 2.05408 14.8502 2.27069 14.5729C2.48731 14.2956 2.78289 14.0906 3.11844 13.9847C3.45399 13.8789 3.81375 13.8773 4.15024 13.9801C4.31707 14.0197 4.47598 14.0874 4.62024 14.1801C4.22021 12.7542 4.22021 11.2459 4.62024 9.82005C4.34748 9.97523 4.03905 10.0568 3.72524 10.0568C3.41143 10.0568 3.103 9.97523 2.83024 9.82005C2.43829 9.58645 2.15307 9.209 2.03539 8.76815C1.9177 8.3273 1.97686 7.85792 2.20024 7.46005L3.20024 5.72005C3.37153 5.41802 3.62926 5.17414 3.94028 5.01979C4.2513 4.86543 4.60139 4.80766 4.94552 4.8539C5.28965 4.90015 5.61207 5.04829 5.87131 5.27927C6.13055 5.51026 6.31476 5.81352 6.40024 6.15005C6.43916 6.29041 6.46263 6.4346 6.47024 6.58005C7.46797 5.50523 8.75712 4.74424 10.1802 4.39005C9.85612 4.18549 9.6086 3.87964 9.47613 3.51998C9.34366 3.16033 9.33364 2.767 9.44764 2.40106C9.56164 2.03513 9.79327 1.71708 10.1066 1.49629C10.4199 1.2755 10.7973 1.16434 11.1802 1.18005H13.1002C13.5556 1.19307 13.988 1.38318 14.3055 1.70996C14.6229 2.03675 14.8004 2.47446 14.8002 2.93005C14.8075 3.22646 14.7376 3.51965 14.5973 3.78087C14.4571 4.04209 14.2513 4.26236 14.0002 4.42005C15.4412 4.81118 16.7351 5.61809 17.7202 6.74005C17.7038 6.42298 17.7754 6.10753 17.9272 5.82866C18.079 5.54979 18.305 5.31838 18.5802 5.16005C18.7782 5.04606 18.9972 4.97314 19.2239 4.94565C19.4507 4.91815 19.6808 4.93666 19.9002 5.00005C20.1265 5.0498 20.3404 5.14448 20.5294 5.27846C20.7183 5.41245 20.8784 5.58302 21.0002 5.78005L22.0002 7.44005C22.2336 7.84221 22.2983 8.32035 22.1802 8.77005C22.1084 9.03965 21.9732 9.28816 21.7858 9.49487C21.5984 9.70157 21.3643 9.86048 21.103 9.95834C20.8417 10.0562 20.5609 10.0902 20.2838 10.0574C20.0067 10.0247 19.7415 9.92613 19.5102 9.77005L19.4302 9.82005C19.8436 11.2508 19.8436 12.7693 19.4302 14.2001L19.5402 14.2601C19.8106 14.0927 20.1223 14.004 20.4402 14.004C20.7582 14.004 21.0699 14.0927 21.3402 14.2601C21.7419 14.4922 22.035 14.8744 22.155 15.3226C22.2751 15.7707 22.2122 16.2482 21.9802 16.6501L20.9802 18.3101C20.7409 18.7039 20.3588 18.9902 19.9136 19.1095C19.4684 19.2287 18.9944 19.1716 18.5902 18.9501C18.3084 18.7857 18.0778 18.5462 17.9241 18.2584C17.7705 17.9706 17.6999 17.6457 17.7202 17.3201C16.7284 18.4195 15.4345 19.2021 14.0002 19.5701C14.3281 19.7671 14.5824 20.0661 14.7242 20.4213C14.866 20.7766 14.8875 21.1685 14.7854 21.5371C14.6833 21.9057 14.4633 22.2307 14.1589 22.4624C13.8546 22.6941 13.4827 22.8197 13.1002 22.8201H13.0702ZM11.8202 19.1401V20.0701C11.8176 20.2682 11.7378 20.4574 11.5977 20.5975C11.4576 20.7376 11.2683 20.8175 11.0702 20.8201C11.0039 20.8201 10.9403 20.8464 10.8935 20.8933C10.8466 20.9402 10.8202 21.0037 10.8202 21.0701C10.8202 21.1364 10.8466 21.1999 10.8935 21.2468C10.9403 21.2937 11.0039 21.3201 11.0702 21.3201H13.0702C13.1365 21.3201 13.2001 21.2937 13.247 21.2468C13.2939 21.1999 13.3202 21.1364 13.3202 21.0701C13.3202 21.0037 13.2939 20.9402 13.247 20.8933C13.2001 20.8464 13.1365 20.8201 13.0702 20.8201C12.8721 20.8175 12.6829 20.7376 12.5428 20.5975C12.4027 20.4574 12.3228 20.2682 12.3202 20.0701V19.1401C12.3202 19.1401 12.3202 19.0801 12.3202 19.0601C12.3053 18.8719 12.3619 18.685 12.4787 18.5368C12.5954 18.3885 12.7638 18.2897 12.9502 18.2601C14.5529 18.012 15.9915 17.138 16.9502 15.8301C17.0668 15.6832 17.2341 15.5854 17.4192 15.5558C17.6042 15.5262 17.7937 15.5669 17.9502 15.6701L18.0102 15.7201L18.9402 16.2501C19.1069 16.3484 19.2291 16.5074 19.2813 16.6938C19.3335 16.8801 19.3116 17.0794 19.2202 17.2501C19.1948 17.3065 19.1911 17.3703 19.21 17.4292C19.2288 17.4882 19.2689 17.538 19.3224 17.5691C19.3759 17.6002 19.439 17.6104 19.4996 17.5976C19.5602 17.5849 19.6138 17.5501 19.6502 17.5001L20.6502 15.8401C20.6835 15.7814 20.6928 15.7122 20.676 15.6469C20.6592 15.5816 20.6177 15.5253 20.5602 15.4901C20.5037 15.4626 20.439 15.4566 20.3784 15.4731C20.3177 15.4897 20.2651 15.5277 20.2302 15.5801C20.124 15.7383 19.9615 15.8501 19.7757 15.8928C19.59 15.9355 19.3949 15.906 19.2302 15.8101L18.3002 15.2801H18.2002C18.1064 15.2429 18.0211 15.1872 17.9493 15.1163C17.8775 15.0453 17.8208 14.9606 17.7825 14.8673C17.7442 14.7739 17.7252 14.6738 17.7265 14.5729C17.7278 14.472 17.7495 14.3724 17.7902 14.2801C18.3505 12.8048 18.3505 11.1753 17.7902 9.70005C17.7495 9.60773 17.7278 9.50813 17.7265 9.40723C17.7252 9.30633 17.7442 9.2062 17.7825 9.11283C17.8208 9.01946 17.8775 8.93478 17.9493 8.86385C18.0211 8.79293 18.1064 8.73721 18.2002 8.70005L19.2002 8.12005C19.3679 8.0244 19.5663 7.99805 19.7531 8.04663C19.94 8.0952 20.1004 8.21485 20.2002 8.38005C20.2366 8.43011 20.2903 8.46488 20.3509 8.47764C20.4114 8.4904 20.4746 8.48025 20.5281 8.44914C20.5816 8.41803 20.6216 8.36818 20.6405 8.30924C20.6594 8.2503 20.6557 8.18645 20.6302 8.13005L19.6302 6.47005C19.6154 6.44042 19.5943 6.41436 19.5684 6.39364C19.5425 6.37293 19.5124 6.35806 19.4802 6.35005C19.419 6.32703 19.3515 6.32703 19.2902 6.35005C19.2361 6.38332 19.1967 6.43596 19.18 6.49725C19.1633 6.55855 19.1705 6.62391 19.2002 6.68005C19.2926 6.85254 19.3129 7.05458 19.2567 7.24198C19.2004 7.42938 19.0723 7.58689 18.9002 7.68005L18.0002 8.28005V8.33005C17.8437 8.43317 17.6542 8.47393 17.4692 8.44432C17.2841 8.41471 17.1168 8.31686 17.0002 8.17005C16.5271 7.52084 15.93 6.97183 15.2434 6.55474C14.5569 6.13765 13.7944 5.86076 13.0002 5.74005C12.8154 5.72273 12.6436 5.63748 12.518 5.50079C12.3924 5.3641 12.3219 5.18568 12.3202 5.00005V3.93005C12.3189 3.83287 12.3368 3.73638 12.3727 3.6461C12.4087 3.55581 12.4621 3.47349 12.5299 3.40385C12.5977 3.3342 12.6785 3.27859 12.7678 3.24019C12.8571 3.20179 12.9531 3.18136 13.0502 3.18005C13.1158 3.17758 13.1779 3.15044 13.2243 3.10409C13.2706 3.05773 13.2978 2.99557 13.3002 2.93005C13.3002 2.86375 13.2739 2.80016 13.227 2.75328C13.1801 2.70639 13.1165 2.68005 13.0502 2.68005H11.1302C11.0639 2.68005 11.0003 2.70639 10.9535 2.75328C10.9066 2.80016 10.8802 2.86375 10.8802 2.93005C10.8802 2.99371 10.9055 3.05475 10.9505 3.09976C10.9955 3.14477 11.0566 3.17005 11.1202 3.17005C11.3104 3.18276 11.4885 3.26735 11.6185 3.40665C11.7485 3.54595 11.8207 3.72951 11.8202 3.92005V5.00005C11.8194 5.18107 11.7532 5.3557 11.6337 5.4917C11.5143 5.62771 11.3496 5.71592 11.1702 5.74005C10.3782 5.85654 9.61698 6.12857 8.93049 6.54047C8.244 6.95236 7.64576 7.49599 7.17024 8.14005C7.05229 8.28527 6.88433 8.38117 6.69932 8.40892C6.51431 8.43667 6.3256 8.39428 6.17024 8.29005L6.00024 8.21005L5.20024 7.75005C5.03542 7.64998 4.9148 7.49101 4.86281 7.30533C4.81082 7.11966 4.83135 6.92116 4.92024 6.75005C4.95304 6.69295 4.96199 6.62521 4.94514 6.56155C4.92829 6.49789 4.887 6.44345 4.83024 6.41005C4.769 6.38703 4.70148 6.38703 4.64024 6.41005C4.60918 6.41748 4.57991 6.43104 4.55415 6.44993C4.52839 6.46882 4.50666 6.49266 4.49024 6.52005L3.49024 8.26005C3.45744 8.31716 3.44849 8.38489 3.46534 8.44856C3.48219 8.51222 3.52348 8.56666 3.58024 8.60005C3.63789 8.63036 3.70481 8.63793 3.76777 8.62126C3.83073 8.6046 3.88514 8.56491 3.92024 8.51005C4.02031 8.34523 4.17928 8.22461 4.36496 8.17262C4.55064 8.12063 4.74913 8.14116 4.92024 8.23005L5.78024 8.73005C5.87589 8.76557 5.96353 8.81973 6.03806 8.88941C6.1126 8.95909 6.17254 9.04288 6.21441 9.13593C6.25628 9.22897 6.27924 9.32941 6.28196 9.4314C6.28468 9.5334 6.2671 9.63491 6.23024 9.73005C5.644 11.2419 5.644 12.9182 6.23024 14.4301C6.26985 14.522 6.29092 14.6208 6.29225 14.7208C6.29357 14.8209 6.27512 14.9202 6.23796 15.0131C6.20079 15.1061 6.14564 15.1907 6.07568 15.2623C6.00571 15.3338 5.9223 15.3908 5.83024 15.4301H5.72024L4.92024 15.9001C4.74963 15.9914 4.55031 16.0133 4.36394 15.9611C4.17758 15.9089 4.0186 15.7867 3.92024 15.6201C3.90537 15.5914 3.8841 15.5666 3.85808 15.5475C3.83207 15.5285 3.80201 15.5156 3.77024 15.5101C3.709 15.487 3.64148 15.487 3.58024 15.5101C3.52348 15.5434 3.48219 15.5979 3.46534 15.6616C3.44849 15.7252 3.45744 15.793 3.49024 15.8501L4.49024 17.5901C4.52364 17.6468 4.57808 17.6881 4.64174 17.705C4.7054 17.7218 4.77314 17.7129 4.83024 17.6801C4.887 17.6467 4.92829 17.5922 4.94514 17.5286C4.96199 17.4649 4.95304 17.3972 4.92024 17.3401C4.83135 17.1689 4.81082 16.9704 4.86281 16.7848C4.9148 16.5991 5.03542 16.4401 5.20024 16.3401L6.00024 15.8801L6.07024 15.8201C6.2256 15.7158 6.41431 15.6734 6.59932 15.7012C6.78433 15.7289 6.95229 15.8248 7.07024 15.9701C7.55148 16.6196 8.15762 17.1665 8.8531 17.5787C9.54857 17.9908 10.3194 18.2599 11.1202 18.3701C11.3085 18.395 11.4802 18.4904 11.6008 18.637C11.7215 18.7836 11.782 18.9706 11.7702 19.1601C11.7702 19.1601 11.8202 19.1101 11.8202 19.1401ZM14.9102 12.8101C14.7985 12.9038 14.717 13.0285 14.676 13.1685C14.6349 13.3085 14.6361 13.4574 14.6794 13.5967C14.7228 13.736 14.8063 13.8593 14.9196 13.9513C15.0328 14.0432 15.1707 14.0997 15.3159 14.1135C15.4611 14.1273 15.6071 14.0979 15.7357 14.029C15.8642 13.9601 15.9695 13.8547 16.0384 13.7261C16.1072 13.5975 16.1366 13.4515 16.1227 13.3063C16.1087 13.1611 16.0522 13.0232 15.9602 12.9101C15.8322 12.7607 15.6512 12.6669 15.4554 12.6483C15.2596 12.6296 15.0642 12.6876 14.9102 12.8101ZM14.6402 8.23005C14.4009 8.23005 14.167 8.30102 13.968 8.43397C13.769 8.56693 13.6139 8.75591 13.5223 8.97701C13.4308 9.1981 13.4068 9.4414 13.4535 9.67611C13.5002 9.91083 13.6154 10.1264 13.7846 10.2957C13.9539 10.4649 14.1695 10.5801 14.4042 10.6268C14.6389 10.6735 14.8822 10.6495 15.1033 10.5579C15.3244 10.4664 15.5134 10.3113 15.6463 10.1123C15.7793 9.91331 15.8502 9.67937 15.8502 9.44005C15.8502 9.11914 15.7228 8.81137 15.4958 8.58445C15.2689 8.35753 14.9612 8.23005 14.6402 8.23005Z" fill="black"/>
</svg>
