<svg width="24" height="24" viewBox="0 0 24 24" fill="none" xmlns="http://www.w3.org/2000/svg">
<path d="M17.3498 3.83992L12.3498 12.4399C12.3093 12.5393 12.24 12.6243 12.151 12.6841C12.0619 12.744 11.9571 12.776 11.8498 12.776C11.7425 12.776 11.6376 12.744 11.5486 12.6841C11.4595 12.6243 11.3903 12.5393 11.3498 12.4399L6.34978 3.83992H17.3498ZM22.5098 3.41992C22.3251 3.08966 22.055 2.81515 21.7277 2.62514C21.4005 2.43513 21.0282 2.33662 20.6498 2.33992H3.24978C2.89083 2.34336 2.539 2.44053 2.22917 2.62181C1.91934 2.80309 1.66225 3.06218 1.4834 3.37342C1.30454 3.68465 1.21011 4.03722 1.20948 4.39619C1.20884 4.75516 1.30202 5.10806 1.47978 5.41992L10.2598 20.6299C10.4285 20.955 10.6833 21.2274 10.9963 21.4176C11.3093 21.6077 11.6685 21.7083 12.0348 21.7083C12.401 21.7083 12.7602 21.6077 13.0732 21.4176C13.3862 21.2274 13.641 20.955 13.8098 20.6299L22.5098 5.55992C22.7016 5.23597 22.8028 4.86641 22.8028 4.48992C22.8028 4.11344 22.7016 3.74387 22.5098 3.41992ZM21.2098 4.80992L12.5098 19.8799C12.4635 19.9655 12.3949 20.0371 12.3113 20.0869C12.2277 20.1368 12.1321 20.1631 12.0348 20.1631C11.9374 20.1631 11.8419 20.1368 11.7583 20.0869C11.6747 20.0371 11.6061 19.9655 11.5598 19.8799L2.77978 4.66992C2.7336 4.58618 2.70965 4.492 2.71019 4.39636C2.71074 4.30073 2.73576 4.20683 2.78289 4.12361C2.83001 4.0404 2.89766 3.97063 2.97939 3.92097C3.06112 3.87131 3.15421 3.84341 3.24978 3.83992H4.72978L10.1298 13.1899C10.3085 13.4996 10.5669 13.7557 10.8782 13.9316C11.1895 14.1075 11.5423 14.1967 11.8998 14.1899C12.2589 14.1985 12.6138 14.1101 12.927 13.9342C13.2402 13.7582 13.5002 13.5011 13.6798 13.1899L19.0798 3.83992H20.6498C20.7643 3.83883 20.877 3.86898 20.9756 3.92713C21.0743 3.98527 21.1552 4.06921 21.2098 4.16992C21.2691 4.26613 21.3005 4.37692 21.3005 4.48992C21.3005 4.60293 21.2691 4.71372 21.2098 4.80992Z" fill="black"/>
</svg>
