<svg width="24" height="24" viewBox="0 0 24 24" fill="none" xmlns="http://www.w3.org/2000/svg">
<path d="M12.0498 22.75C11.9338 22.7497 11.8195 22.7213 11.7168 22.6674C11.6141 22.6134 11.5259 22.5354 11.4598 22.44L3.07982 9.84999C3.02535 9.77229 2.987 9.68446 2.96705 9.59169C2.94709 9.49892 2.94594 9.40309 2.96365 9.30987C2.98136 9.21664 3.01758 9.12792 3.07017 9.04893C3.12276 8.96994 3.19065 8.9023 3.26982 8.84999C3.34765 8.79459 3.436 8.7557 3.52942 8.73573C3.62285 8.71576 3.71937 8.71512 3.81305 8.73385C3.90673 8.75259 3.99558 8.7903 4.07414 8.84467C4.15269 8.89904 4.21929 8.96891 4.26982 9.04999L12.0698 20.75L19.7698 9.18999C19.8164 9.10184 19.881 9.02448 19.9594 8.96296C20.0379 8.90143 20.1284 8.85711 20.2251 8.83289C20.3218 8.80866 20.4225 8.80507 20.5207 8.82235C20.6189 8.83963 20.7123 8.87739 20.7949 8.93318C20.8776 8.98896 20.9475 9.06152 21.0002 9.14614C21.0529 9.23075 21.0873 9.32551 21.1009 9.42426C21.1146 9.52301 21.1073 9.62353 21.0795 9.71928C21.0518 9.81503 21.0042 9.90386 20.9398 9.97999L12.6398 22.44C12.5737 22.5354 12.4856 22.6134 12.3829 22.6674C12.2801 22.7213 12.1659 22.7497 12.0498 22.75ZM13.1598 17.21L20.3298 6.14999C20.4668 5.94253 20.5448 5.7017 20.5553 5.45331C20.5659 5.20492 20.5087 4.95834 20.3898 4.73999C20.2731 4.51938 20.0992 4.33425 19.8863 4.20404C19.6734 4.07384 19.4294 4.00335 19.1798 3.99999H17.7998C17.5741 3.99908 17.3517 4.05436 17.1527 4.16085C16.9537 4.26735 16.7843 4.4217 16.6598 4.60999L11.9798 11.61L7.30982 4.60999C7.18312 4.42155 7.01187 4.26728 6.81127 4.16087C6.61066 4.05446 6.3869 3.9992 6.15982 3.99999H4.90982C4.66355 4.00107 4.42213 4.06851 4.21096 4.19521C3.99978 4.32192 3.82666 4.5032 3.70982 4.71999C3.58183 4.93105 3.51416 5.17316 3.51416 5.41999C3.51416 5.66682 3.58183 5.90893 3.70982 6.11999L10.8398 17.2C10.9653 17.3941 11.1369 17.5542 11.3393 17.6659C11.5417 17.7776 11.7687 17.8374 11.9998 17.84C12.2302 17.8394 12.4569 17.7814 12.6594 17.6715C12.8619 17.5615 13.0338 17.4029 13.1598 17.21ZM6.08982 5.51999L10.8298 12.64C10.9628 12.8199 11.1361 12.9661 11.3358 13.0668C11.5355 13.1676 11.7561 13.22 11.9798 13.22C12.2035 13.22 12.4241 13.1676 12.6238 13.0668C12.8236 12.9661 12.9969 12.8199 13.1298 12.64L17.8698 5.51999H18.9998L11.9998 16.23L5.13982 5.51999H6.08982ZM13.1698 7.99999L16.2498 3.37999C16.3397 3.25088 16.3879 3.09732 16.3879 2.93999C16.3879 2.78266 16.3397 2.6291 16.2498 2.49999C16.1524 2.37726 16.019 2.28811 15.8684 2.24506C15.7177 2.20202 15.5574 2.20724 15.4098 2.25999L13.8798 2.78999V2.62999C13.8798 2.26134 13.7334 1.90779 13.4727 1.64711C13.212 1.38644 12.8585 1.23999 12.4898 1.23999H11.5698C11.2012 1.23999 10.8476 1.38644 10.5869 1.64711C10.3263 1.90779 10.1798 2.26134 10.1798 2.62999V2.77999L8.57982 2.22999C8.431 2.18131 8.27086 2.17916 8.12078 2.22382C7.9707 2.26849 7.83781 2.35785 7.73982 2.47999C7.65255 2.61013 7.60595 2.76329 7.60595 2.91999C7.60595 3.07669 7.65255 3.22985 7.73982 3.35999L10.7898 7.99999C10.9204 8.19594 11.0973 8.35661 11.3049 8.46774C11.5125 8.57888 11.7444 8.63702 11.9798 8.63702C12.2153 8.63702 12.4471 8.57888 12.6547 8.46774C12.8623 8.35661 13.0392 8.19594 13.1698 7.99999ZM10.6498 4.53999C10.7633 4.57636 10.8836 4.58626 11.0014 4.56893C11.1193 4.55159 11.2316 4.50749 11.3298 4.43999C11.428 4.37128 11.5083 4.28003 11.564 4.1739C11.6197 4.06777 11.6491 3.94984 11.6498 3.82999V2.73999H12.3498V3.82999C12.3516 3.94944 12.3814 4.0668 12.437 4.17254C12.4926 4.27829 12.5724 4.36944 12.6698 4.4386C12.7672 4.50776 12.8795 4.55298 12.9977 4.5706C13.1158 4.58821 13.2365 4.57773 13.3498 4.53999L13.7598 4.38999L11.9998 7.05999L10.1998 4.37999L10.6498 4.53999Z" fill="black"/>
</svg>
