<svg width="24" height="25" viewBox="0 0 24 25" fill="none" xmlns="http://www.w3.org/2000/svg">
<path d="M5.72998 10.33C5.53107 10.33 5.3403 10.409 5.19965 10.5496C5.059 10.6903 4.97998 10.881 4.97998 11.08C4.97998 11.2789 5.059 11.4696 5.19965 11.6103C5.3403 11.7509 5.53107 11.83 5.72998 11.83H11.89C12.0889 11.83 12.2797 11.7509 12.4203 11.6103C12.561 11.4696 12.64 11.2789 12.64 11.08C12.64 10.881 12.561 10.6903 12.4203 10.5496C12.2797 10.409 12.0889 10.33 11.89 10.33H5.72998Z" fill="black"/>
<path d="M21.0701 11.35H18.9401C18.1975 11.35 17.4853 11.645 16.9602 12.1701C16.4351 12.6952 16.1401 13.4074 16.1401 14.15C16.1401 14.8926 16.4351 15.6048 16.9602 16.1299C17.4853 16.655 18.1975 16.95 18.9401 16.95H21.0701C21.5157 16.95 21.943 16.773 22.2581 16.4579C22.5731 16.1429 22.7501 15.7155 22.7501 15.27V13C22.7423 12.5596 22.5618 12.14 22.2476 11.8314C21.9334 11.5228 21.5106 11.3499 21.0701 11.35ZM21.2501 15.27C21.2501 15.3177 21.2312 15.3635 21.1974 15.3973C21.1637 15.431 21.1179 15.45 21.0701 15.45H18.9401C18.5954 15.45 18.2647 15.313 18.0209 15.0692C17.7771 14.8254 17.6401 14.4948 17.6401 14.15C17.6401 13.8052 17.7771 13.4745 18.0209 13.2307C18.2647 12.9869 18.5954 12.85 18.9401 12.85H21.0701C21.1179 12.85 21.1637 12.8689 21.1974 12.9027C21.2312 12.9365 21.2501 12.9822 21.2501 13.03V15.27Z" fill="black"/>
<path d="M20.1 18.3C19.9104 18.2466 19.7075 18.2688 19.534 18.3621C19.3605 18.4554 19.23 18.6124 19.17 18.8C18.9802 19.4038 18.6042 19.9321 18.0959 20.3093C17.5875 20.6865 16.973 20.8932 16.34 20.9H5.71001C4.91436 20.9 4.1513 20.5839 3.58869 20.0213C3.02608 19.4587 2.71001 18.6956 2.71001 17.9V10.45C2.72004 10.4174 2.72004 10.3826 2.71001 10.35C2.72313 9.56302 3.04498 8.81275 3.60617 8.2609C4.16737 7.70906 4.92295 7.39987 5.71001 7.39998H16.31C16.9661 7.39785 17.604 7.61523 18.1223 8.01752C18.6405 8.4198 19.0093 8.98388 19.17 9.61998C19.2191 9.81358 19.343 9.97977 19.5146 10.082C19.6862 10.1842 19.8914 10.214 20.085 10.165C20.2786 10.1159 20.4448 9.99194 20.547 9.82035C20.6492 9.64875 20.6791 9.44358 20.63 9.24998C20.3846 8.29472 19.8294 7.44777 19.0513 6.84163C18.2733 6.23548 17.3163 5.90433 16.33 5.89998H15.69C15.5057 4.97323 15.0069 4.13861 14.278 3.53729C13.5491 2.93597 12.6349 2.60486 11.69 2.59998H5.39001C4.29455 2.6026 3.24457 3.03825 2.46902 3.81192C1.69348 4.5856 1.25529 5.63453 1.25001 6.72998V17.93C1.2487 18.5157 1.36276 19.0959 1.58568 19.6375C1.8086 20.1791 2.13602 20.6715 2.54924 21.0866C2.96246 21.5017 3.45339 21.8313 3.994 22.0567C4.53461 22.282 5.11432 22.3987 5.70001 22.4H16.33C17.286 22.4034 18.2174 22.0975 18.9852 21.528C19.753 20.9584 20.316 20.1558 20.59 19.24C20.6496 19.0503 20.6314 18.8448 20.5395 18.6686C20.4477 18.4923 20.2896 18.3597 20.1 18.3ZM2.75001 6.72998C2.75527 6.03235 3.03542 5.36494 3.52966 4.87257C4.02391 4.3802 4.69237 4.10259 5.39001 4.09998H11.65C12.2038 4.09598 12.7445 4.26822 13.1939 4.5918C13.6433 4.91538 13.9782 5.37353 14.15 5.89998H5.71001C3.21001 5.89998 2.71001 7.11998 2.71001 7.11998L2.75001 6.72998Z" fill="black"/>
</svg>
