<svg width="24" height="24" viewBox="0 0 24 24" fill="none" xmlns="http://www.w3.org/2000/svg">
<path d="M18.1099 20.81H12.2999C12.0844 20.8113 11.8719 20.7589 11.6817 20.6577C11.4914 20.5564 11.3293 20.4095 11.2099 20.23L8.20992 15.91C8.07331 15.7105 7.99368 15.4775 7.97958 15.2361C7.96548 14.9947 8.01746 14.7541 8.12992 14.54C8.24265 14.3263 8.41069 14.1467 8.61649 14.0201C8.82229 13.8934 9.05832 13.8243 9.29992 13.82H13.4499L8.22992 4.89001C8.11202 4.68784 8.04956 4.45812 8.04884 4.22408C8.04813 3.99003 8.10919 3.75994 8.22585 3.55705C8.34252 3.35415 8.51066 3.18563 8.71329 3.06852C8.91593 2.9514 9.14588 2.88982 9.37992 2.89002H14.8399C15.2305 2.89073 15.614 2.99354 15.9526 3.18825C16.2911 3.38296 16.5729 3.6628 16.7699 4.00002L22.5699 14C22.6961 14.2197 22.7575 14.4706 22.7468 14.7237C22.7362 14.9768 22.6541 15.2217 22.5099 15.43L19.1999 20.24C19.0776 20.4158 18.9145 20.5594 18.7248 20.6586C18.535 20.7578 18.3241 20.8098 18.1099 20.81ZM12.3899 19.31H17.9999L21.1999 14.68L15.4699 4.75002C15.4075 4.63774 15.3161 4.54423 15.2053 4.47917C15.0946 4.41411 14.9684 4.37987 14.8399 4.38002H9.67992L14.9199 13.3C15.0374 13.5015 15.0999 13.7303 15.101 13.9635C15.1022 14.1967 15.042 14.4261 14.9265 14.6287C14.811 14.8313 14.6443 14.9999 14.4431 15.1178C14.2418 15.2356 14.0131 15.2985 13.7799 15.3H9.64992L12.3899 19.31ZM5.57992 20.09C5.35128 20.0901 5.1259 20.0357 4.92244 19.9314C4.71899 19.827 4.5433 19.6757 4.40992 19.49L1.52992 15.49C1.35914 15.2451 1.26758 14.9536 1.26758 14.655C1.26758 14.3564 1.35914 14.065 1.52992 13.82L4.81992 9.00001C4.95167 8.80731 5.12741 8.64875 5.3326 8.53746C5.5378 8.42616 5.76655 8.36534 5.99992 8.36001H10.6399C10.9139 8.35328 11.1847 8.42026 11.4239 8.55395C11.6631 8.68764 11.8621 8.88314 11.9999 9.12001C12.1353 9.35041 12.2067 9.61278 12.2067 9.88001C12.2067 10.1472 12.1353 10.4096 11.9999 10.64L6.82992 19.37C6.7089 19.5781 6.5373 19.7523 6.33102 19.8764C6.12475 20.0005 5.89048 20.0706 5.64992 20.08L5.57992 20.09ZM5.99992 9.86001L2.73992 14.7L5.61992 18.61L10.6799 9.88001L5.99992 9.86001Z" fill="black"/>
</svg>
