<svg width="24" height="24" viewBox="0 0 24 24" fill="none" xmlns="http://www.w3.org/2000/svg">
<path d="M20.4298 19.6101C20.4416 20.0214 20.3687 20.4307 20.2156 20.8126C20.0625 21.1945 19.8325 21.5408 19.5398 21.8301C18.9443 22.4211 18.1388 22.7519 17.2998 22.7501H6.70982C5.901 22.7533 5.12254 22.4422 4.53862 21.8825C3.95469 21.3229 3.61093 20.5583 3.57982 19.7501V19.3001C3.58886 18.4291 3.78042 17.5698 4.14213 16.7774C4.50385 15.9851 5.02768 15.2774 5.67982 14.7001L8.38982 12.2601C8.4354 12.2256 8.47236 12.181 8.49781 12.1298C8.52325 12.0786 8.5365 12.0222 8.5365 11.9651C8.5365 11.9079 8.52325 11.8515 8.49781 11.8003C8.47236 11.7492 8.4354 11.7046 8.38982 11.6701L5.66982 9.23006C5.54256 9.09469 5.47171 8.91587 5.47171 8.73006C5.47171 8.54426 5.54256 8.36544 5.66982 8.23006C5.81045 8.08961 6.00107 8.01073 6.19982 8.01073C6.39857 8.01073 6.5892 8.08961 6.72982 8.23006L9.39982 10.5801C9.59728 10.7528 9.75553 10.9657 9.86396 11.2046C9.97238 11.4434 10.0285 11.7027 10.0285 11.9651C10.0285 12.2274 9.97238 12.4867 9.86396 12.7256C9.75553 12.9644 9.59728 13.1774 9.39982 13.3501L6.68982 15.7901C6.18588 16.2221 5.78049 16.7572 5.50102 17.3592C5.22155 17.9613 5.07451 18.6163 5.06982 19.2801V19.7101C5.08536 20.1319 5.26393 20.5312 5.56795 20.8241C5.87196 21.1169 6.27772 21.2804 6.69982 21.2801H17.2998C17.733 21.2774 18.1476 21.1035 18.453 20.7962C18.7584 20.4889 18.9298 20.0733 18.9298 19.6401V19.3001C18.9273 18.633 18.7814 17.9744 18.5019 17.3687C18.2223 16.7631 17.8158 16.2247 17.3098 15.7901L14.5998 13.3501C14.4052 13.1756 14.2496 12.9621 14.143 12.7235C14.0364 12.4848 13.9813 12.2264 13.9813 11.9651C13.9813 11.7037 14.0364 11.4453 14.143 11.2067C14.2496 10.968 14.4052 10.7545 14.5998 10.5801L17.2998 8.15006C17.803 7.71527 18.2078 7.17822 18.4871 6.5747C18.7665 5.97119 18.914 5.31507 18.9198 4.65007V4.33007C18.9185 4.11732 18.8753 3.90692 18.7927 3.71087C18.7101 3.51483 18.5896 3.33698 18.4383 3.18747C18.2869 3.03797 18.1076 2.91974 17.9105 2.83955C17.7135 2.75935 17.5026 2.71875 17.2898 2.72007H6.69982C6.48708 2.71875 6.27616 2.75935 6.07911 2.83955C5.88206 2.91974 5.70273 3.03797 5.55137 3.18747C5.40001 3.33698 5.27958 3.51483 5.19696 3.71087C5.11433 3.90692 5.07113 4.11732 5.06982 4.33007V4.65007C5.06982 4.84898 4.99081 5.03974 4.85015 5.1804C4.7095 5.32105 4.51874 5.40007 4.31982 5.40007C4.12091 5.40007 3.93015 5.32105 3.78949 5.1804C3.64884 5.03974 3.56982 4.84898 3.56982 4.65007V4.33007C3.57775 3.50698 3.91165 2.7206 4.49836 2.14326C5.08506 1.56593 5.87671 1.24473 6.69982 1.25007H17.2898C18.1129 1.24473 18.9046 1.56593 19.4913 2.14326C20.078 2.7206 20.4119 3.50698 20.4198 4.33007V4.65007C20.4111 5.51815 20.2196 6.37466 19.8578 7.1638C19.4959 7.95293 18.9719 8.65697 18.3198 9.23006L15.6098 11.6701C15.5654 11.7063 15.5297 11.7521 15.5054 11.804C15.4812 11.856 15.469 11.9127 15.4698 11.9701C15.4698 12.0258 15.4824 12.0809 15.5066 12.1311C15.5309 12.1813 15.5661 12.2254 15.6098 12.2601L18.3198 14.7001C18.9719 15.2732 19.4959 15.9772 19.8578 16.7663C20.2196 17.5555 20.4111 18.412 20.4198 19.2801L20.4298 19.6101ZM7.88982 17.8401L10.3098 15.3901C10.7779 14.9373 11.4036 14.6842 12.0548 14.6842C12.706 14.6842 13.3317 14.9373 13.7998 15.3901L16.2098 17.8401C16.3817 18.0101 16.4976 18.2285 16.5423 18.4661C16.5869 18.7037 16.5582 18.9492 16.4598 19.1701C16.3651 19.386 16.2099 19.5699 16.0129 19.6994C15.8159 19.829 15.5856 19.8987 15.3498 19.9001H8.75982C8.52043 19.9018 8.28589 19.8325 8.08589 19.7009C7.8859 19.5694 7.72943 19.3814 7.63629 19.1609C7.54314 18.9403 7.51752 18.6971 7.56265 18.462C7.60778 18.2269 7.72164 18.0104 7.88982 17.8401ZM9.40982 18.4301H14.6998L12.6998 16.4301C12.5161 16.2642 12.2773 16.1724 12.0298 16.1724C11.7823 16.1724 11.5436 16.2642 11.3598 16.4301L9.40982 18.4301Z" fill="black"/>
</svg>
