<svg width="24" height="24" viewBox="0 0 24 24" fill="none" xmlns="http://www.w3.org/2000/svg">
<path d="M12 22.75C10.1994 22.7515 8.42777 22.2974 6.84997 21.43L3.84997 22.25C3.62514 22.3144 3.38959 22.3325 3.15756 22.3033C2.92552 22.274 2.70182 22.1981 2.49997 22.08C2.16395 21.8823 1.90306 21.5786 1.75827 21.2166C1.61348 20.8547 1.59298 20.4549 1.69997 20.08L2.50997 17.08C1.54729 15.3357 1.08682 13.3587 1.17969 11.3686C1.27255 9.37846 1.91512 7.45298 3.03605 5.80592C4.15698 4.15886 5.71242 2.85466 7.5297 2.0381C9.34698 1.22154 11.355 0.92456 13.3308 1.18014C15.3067 1.43571 17.1731 2.23384 18.7228 3.48593C20.2725 4.73801 21.4449 6.39506 22.1098 8.27312C22.7748 10.1512 22.9063 12.1768 22.4897 14.1251C22.0731 16.0733 21.1248 17.868 19.75 19.31C18.7582 20.3779 17.5599 21.2334 16.2278 21.8247C14.8956 22.416 13.4573 22.7308 12 22.75ZM7.04997 19.82L7.31997 19.98C8.76928 20.8048 10.4133 21.2257 12.0807 21.1987C13.7481 21.1717 15.3776 20.6979 16.7995 19.8266C18.2214 18.9553 19.3834 17.7184 20.1644 16.2451C20.9455 14.7717 21.3169 13.1158 21.24 11.45C21.1597 10.156 20.8095 8.89322 20.2119 7.74276C19.6142 6.5923 18.7824 5.57966 17.77 4.76997C16.0822 3.44377 13.9862 2.74508 11.8403 2.79337C9.69439 2.84166 7.63191 3.63394 6.00554 5.03472C4.37917 6.4355 3.28994 8.35777 2.92412 10.4728C2.55829 12.5879 2.93858 14.7643 3.99997 16.63L4.15997 16.89L3.15997 20.5C3.14559 20.5313 3.13815 20.5655 3.13815 20.6C3.13815 20.6345 3.14559 20.6686 3.15997 20.7C3.17838 20.7338 3.20616 20.7616 3.23997 20.78C3.26941 20.7949 3.30196 20.8027 3.33497 20.8027C3.36799 20.8027 3.40053 20.7949 3.42997 20.78L7.04997 19.82ZM14.69 17.82C13.65 17.743 12.6476 17.3985 11.78 16.82C9.7649 15.6052 8.10579 13.8806 6.96997 11.82C5.88997 9.68997 5.96997 8.08997 7.25997 6.89997C7.62461 6.53429 8.10579 6.30785 8.61997 6.25997C8.91434 6.21133 9.21648 6.24757 9.49099 6.36446C9.76551 6.48135 10.001 6.67404 10.17 6.91997L11.62 9.09997C11.6645 9.25066 11.6979 9.4044 11.72 9.55997C11.7467 9.86788 11.6654 10.1755 11.49 10.43C11.49 10.48 11.2 10.78 11 11.02C11.5653 11.7808 12.2392 12.4546 13 13.02C13.17 12.86 13.39 12.67 13.56 12.54C13.7681 12.3951 14.0103 12.307 14.2628 12.2842C14.5152 12.2614 14.7693 12.3047 15 12.41L15.11 12.48L17.21 13.93C17.3605 14.0675 17.4947 14.2218 17.61 14.39C17.8008 14.7784 17.8401 15.2241 17.72 15.64C17.6272 15.9931 17.462 16.3231 17.2347 16.6089C17.0075 16.8947 16.7232 17.1301 16.4 17.3C15.8841 17.6123 15.293 17.7782 14.69 17.78V17.82ZM8.85997 7.70997C8.7489 7.71746 8.64043 7.74696 8.54086 7.79674C8.44129 7.84653 8.35261 7.91561 8.27997 7.99997C7.77997 8.44997 7.33997 9.21997 8.27997 11.13C9.27695 12.9331 10.7328 14.4406 12.5 15.5C14.18 16.5 14.92 16.42 15.62 16.01C15.7933 15.9303 15.9421 15.8058 16.0511 15.6493C16.1601 15.4929 16.2253 15.3101 16.24 15.12L16.18 15.06L14.38 13.8C14.1743 13.9627 13.9805 14.1398 13.8 14.33C13.6491 14.4929 13.4483 14.601 13.2292 14.6372C13.0101 14.6734 12.7852 14.6357 12.59 14.53C11.3628 13.759 10.313 12.7365 9.50997 11.53C9.39684 11.3379 9.35113 11.1135 9.38012 10.8924C9.40911 10.6714 9.51113 10.4664 9.66997 10.31L10.2 9.68997L8.93997 7.75997L8.85997 7.70997Z" fill="black"/>
</svg>
