<svg width="24" height="24" viewBox="0 0 24 24" fill="none" xmlns="http://www.w3.org/2000/svg">
<path d="M20.9998 6.82001C20.9301 6.91959 20.8373 7.00075 20.7293 7.05649C20.6213 7.11224 20.5013 7.1409 20.3798 7.14001C20.243 7.12761 20.1119 7.07932 19.9998 7.00001C17.7016 5.30894 14.9231 4.39681 12.0698 4.39681C9.2165 4.39681 6.43793 5.30894 4.13978 7.00001C3.98602 7.10433 3.79937 7.1487 3.61511 7.12475C3.43086 7.1008 3.26176 7.01017 3.13978 6.87001C3.03328 6.71698 2.9876 6.52978 3.01163 6.3449C3.03567 6.16002 3.1277 5.99072 3.26978 5.87001C3.34978 5.80001 11.7098 -0.589994 20.8798 5.87001C21.0057 5.99057 21.0864 6.15077 21.1082 6.32373C21.1301 6.4967 21.0918 6.67191 20.9998 6.82001ZM16.9998 11.54C17.1198 11.5401 17.238 11.5111 17.3443 11.4553C17.4506 11.3996 17.5417 11.3188 17.6098 11.22C17.6673 11.1394 17.7083 11.0482 17.7305 10.9516C17.7526 10.8551 17.7553 10.7551 17.7386 10.6575C17.7219 10.5599 17.686 10.4665 17.633 10.3829C17.5799 10.2992 17.5109 10.2268 17.4298 10.17C15.8424 9.03628 13.9405 8.42683 11.9898 8.42683C10.0391 8.42683 8.13717 9.03628 6.54978 10.17C6.39524 10.2938 6.2959 10.4736 6.27343 10.6703C6.25095 10.867 6.30715 11.0646 6.42978 11.22C6.55176 11.3602 6.72086 11.4508 6.90511 11.4747C7.08937 11.4987 7.27602 11.4543 7.42978 11.35C8.74827 10.384 10.3403 9.86316 11.9748 9.86316C13.6093 9.86316 15.2013 10.384 16.5198 11.35C16.6527 11.4674 16.8225 11.5346 16.9998 11.54ZM9.60978 14.83C9.46933 14.9706 9.39044 15.1613 9.39044 15.36C9.39044 15.5588 9.46933 15.7494 9.60978 15.89C9.75041 16.0305 9.94103 16.1093 10.1398 16.1093C10.3385 16.1093 10.5292 16.0305 10.6698 15.89C11.0534 15.5308 11.5592 15.3309 12.0848 15.3309C12.6103 15.3309 13.1162 15.5308 13.4998 15.89C13.6337 16.0033 13.8044 16.0637 13.9798 16.06C14.1333 16.0605 14.2833 16.0139 14.4095 15.9265C14.5357 15.839 14.632 15.715 14.6855 15.571C14.7389 15.4271 14.7469 15.2702 14.7083 15.1216C14.6697 14.973 14.5865 14.8398 14.4698 14.74C13.7991 14.1363 12.9242 13.8097 12.022 13.8265C11.1198 13.8432 10.2576 14.2019 9.60978 14.83ZM20.0998 20.69H3.99978C3.80087 20.69 3.6101 20.769 3.46945 20.9097C3.3288 21.0503 3.24978 21.2411 3.24978 21.44C3.24978 21.6389 3.3288 21.8297 3.46945 21.9703C3.6101 22.111 3.80087 22.19 3.99978 22.19H20.0998C20.2987 22.19 20.4895 22.111 20.6301 21.9703C20.7708 21.8297 20.8498 21.6389 20.8498 21.44C20.8498 21.2411 20.7708 21.0503 20.6301 20.9097C20.4895 20.769 20.2987 20.69 20.0998 20.69Z" fill="black"/>
</svg>
