<svg width="24" height="24" viewBox="0 0 24 24" fill="none" xmlns="http://www.w3.org/2000/svg">
<path d="M12 22.75C11.4561 22.75 10.9244 22.5888 10.4722 22.2866C10.0199 21.9844 9.66746 21.5549 9.45932 21.0524C9.25118 20.5499 9.19672 19.997 9.30283 19.4635C9.40894 18.9301 9.67085 18.4401 10.0554 18.0555C10.44 17.6709 10.93 17.409 11.4635 17.3029C11.9969 17.1968 12.5499 17.2512 13.0524 17.4594C13.5549 17.6675 13.9844 18.02 14.2865 18.4722C14.5887 18.9245 14.75 19.4561 14.75 20C14.75 20.7294 14.4603 21.4289 13.9445 21.9446C13.4288 22.4603 12.7293 22.75 12 22.75ZM12 18.75C11.7528 18.75 11.5111 18.8234 11.3055 18.9607C11.1 19.0981 10.9397 19.2933 10.8451 19.5217C10.7505 19.7501 10.7258 20.0014 10.774 20.2439C10.8222 20.4864 10.9413 20.7091 11.1161 20.8839C11.2909 21.0587 11.5136 21.1778 11.7561 21.226C11.9986 21.2743 12.2499 21.2495 12.4783 21.1549C12.7067 21.0603 12.902 20.9001 13.0393 20.6945C13.1767 20.4889 13.25 20.2473 13.25 20C13.25 19.6685 13.1183 19.3506 12.8839 19.1162C12.6494 18.8817 12.3315 18.75 12 18.75ZM14.77 17.13L14.14 16.72C13.4998 16.3147 12.7577 16.0995 12 16.0995C11.2423 16.0995 10.5001 16.3147 9.85999 16.72L9.22999 17.13L7.99999 15.18C7.85722 14.9683 7.76341 14.7274 7.72536 14.4748C7.6873 14.2223 7.70596 13.9645 7.77999 13.72C7.8476 13.4834 7.96577 13.2643 8.12634 13.0779C8.28691 12.8914 8.48604 12.742 8.70999 12.64C9.756 12.1655 10.8914 11.92 12.04 11.92C13.1886 11.92 14.324 12.1655 15.37 12.64C15.5939 12.742 15.7931 12.8914 15.9536 13.0779C16.1142 13.2643 16.2324 13.4834 16.3 13.72C16.3627 13.9703 16.3683 14.2315 16.3163 14.4842C16.2644 14.737 16.1563 14.9748 16 15.18L14.77 17.13ZM12 14.58C12.7957 14.5808 13.5813 14.7584 14.3 15.1L14.79 14.36C14.8057 14.3237 14.8138 14.2846 14.8138 14.245C14.8138 14.2055 14.8057 14.1664 14.79 14.13C14.783 14.1013 14.7695 14.0746 14.7504 14.052C14.7313 14.0295 14.7072 14.0117 14.68 14C13.8285 13.6145 12.9046 13.4151 11.97 13.4151C11.0353 13.4151 10.1114 13.6145 9.25999 14C9.2328 14.0117 9.2087 14.0295 9.18961 14.052C9.17051 14.0746 9.15694 14.1013 9.14999 14.13C9.1343 14.1664 9.12621 14.2055 9.12621 14.245C9.12621 14.2846 9.1343 14.3237 9.14999 14.36L9.63999 15.1C10.3769 14.7497 11.184 14.5718 12 14.58ZM3.39999 8.21004L2.09999 6.21004C1.97088 6.01101 1.8831 5.78805 1.84187 5.55441C1.80065 5.32078 1.8068 5.08125 1.85999 4.85004C1.91975 4.61344 2.02675 4.39137 2.17454 4.19718C2.32233 4.00299 2.50787 3.84069 2.71999 3.72004C5.54507 2.10176 8.74423 1.25037 12 1.25037C15.2557 1.25037 18.4549 2.10176 21.28 3.72004C21.4921 3.84069 21.6776 4.00299 21.8254 4.19718C21.9732 4.39137 22.0802 4.61344 22.14 4.85004C22.1932 5.08125 22.1993 5.32078 22.1581 5.55441C22.1169 5.78805 22.0291 6.01101 21.9 6.21004L20.6 8.21004L20 7.79004C17.623 6.23148 14.8424 5.40119 12 5.40119C9.15755 5.40119 6.37702 6.23148 3.99999 7.79004L3.39999 8.21004ZM12 3.92004C14.8665 3.91662 17.6812 4.68334 20.15 6.14004L20.64 5.39004C20.6529 5.36004 20.6596 5.32771 20.6596 5.29504C20.6596 5.26237 20.6529 5.23004 20.64 5.20004C20.6302 5.12401 20.5949 5.05353 20.54 5.00004C17.9308 3.53906 14.9904 2.77189 12 2.77189C9.00959 2.77189 6.0692 3.53906 3.45999 5.00004C3.39399 5.04214 3.34454 5.10571 3.31999 5.18004C3.30705 5.21004 3.30038 5.24237 3.30038 5.27504C3.30038 5.30771 3.30705 5.34004 3.31999 5.37004L3.80999 6.12004C6.29241 4.66341 9.1218 3.90338 12 3.92004ZM6.31999 12.67L5.01999 10.67C4.89229 10.4685 4.80616 10.2435 4.76666 10.0083C4.72717 9.77299 4.7351 9.5322 4.78999 9.30004C4.84938 9.06322 4.9574 8.84135 5.10718 8.64853C5.25696 8.45572 5.44522 8.29617 5.65999 8.18004C7.61483 7.15093 9.7908 6.61315 12 6.61315C14.2092 6.61315 16.3851 7.15093 18.34 8.18004C18.5548 8.29617 18.743 8.45572 18.8928 8.64853C19.0426 8.84135 19.1506 9.06322 19.21 9.30004C19.2706 9.53391 19.2832 9.77763 19.2472 10.0165C19.2111 10.2554 19.127 10.4845 19 10.69L17.7 12.69L17.07 12.28C15.5641 11.3107 13.8109 10.7952 12.02 10.7952C10.229 10.7952 8.47592 11.3107 6.96999 12.28L6.31999 12.67ZM12 9.25004C13.8308 9.24977 15.6312 9.71795 17.23 10.61L17.72 9.87004C17.7332 9.83836 17.74 9.80437 17.74 9.77004C17.74 9.73572 17.7332 9.70173 17.72 9.67004C17.7128 9.63497 17.6984 9.60177 17.6777 9.57251C17.6571 9.54326 17.6306 9.51859 17.6 9.50004C15.8632 8.589 13.9312 8.11305 11.97 8.11305C10.0087 8.11305 8.07679 8.589 6.33999 9.50004C6.30936 9.51859 6.28289 9.54326 6.26224 9.57251C6.24159 9.60177 6.2272 9.63497 6.21999 9.67004C6.20645 9.69988 6.19945 9.73227 6.19945 9.76504C6.19945 9.79781 6.20645 9.8302 6.21999 9.86004L6.70999 10.6C8.32743 9.70146 10.1497 9.23641 12 9.25004Z" fill="black"/>
</svg>
