<svg width="24" height="24" viewBox="0 0 24 24" fill="none" xmlns="http://www.w3.org/2000/svg">
<path d="M16.0499 22.75H7.99992C6.22379 22.7474 4.52115 22.0406 3.26523 20.7847C2.00931 19.5288 1.30257 17.8261 1.29992 16.05V8C1.29466 7.11631 1.46399 6.24028 1.79822 5.42222C2.13244 4.60416 2.62497 3.86017 3.24751 3.23298C3.87006 2.60578 4.61036 2.10774 5.42592 1.76745C6.24148 1.42715 7.11622 1.2513 7.99992 1.25H16.0999C17.8761 1.26585 19.5734 1.98528 20.82 3.25059C22.0666 4.51589 22.7606 6.22383 22.7499 8V16.1C22.7341 17.8675 22.0216 19.5573 20.7671 20.8024C19.5126 22.0476 17.8174 22.7474 16.0499 22.75ZM7.99992 2.75C7.30863 2.74332 6.62294 2.87455 5.98296 3.13603C5.34298 3.3975 4.76157 3.78396 4.27273 4.2728C3.78388 4.76165 3.39742 5.34306 3.13595 5.98304C2.87448 6.62301 2.74324 7.3087 2.74992 8V16.1C2.75646 16.7829 2.89744 17.4578 3.16482 18.0862C3.4322 18.7146 3.82074 19.2842 4.30825 19.7624C4.79577 20.2406 5.37271 20.6181 6.00613 20.8734C6.63955 21.1286 7.31704 21.2566 7.99992 21.25H16.0999C17.4782 21.2474 18.7993 20.6987 19.774 19.724C20.7486 18.7494 21.2973 17.4283 21.2999 16.05V8C21.2973 6.62169 20.7486 5.30058 19.774 4.32596C18.7993 3.35135 17.4782 2.80264 16.0999 2.8L7.99992 2.75ZM14.8699 16.09C14.9732 15.9318 15.0121 15.7402 14.9787 15.5542C14.9452 15.3683 14.8419 15.2022 14.6899 15.09C13.9328 14.5305 13.0163 14.2286 12.0749 14.2286C11.1336 14.2286 10.217 14.5305 9.45992 15.09C9.30345 15.2133 9.20237 15.3938 9.17893 15.5916C9.15548 15.7895 9.2116 15.9885 9.33492 16.145C9.45825 16.3015 9.63868 16.4026 9.83654 16.426C10.0344 16.4494 10.2334 16.3933 10.3899 16.27C10.8879 15.9067 11.4885 15.7109 12.1049 15.7109C12.7214 15.7109 13.3219 15.9067 13.8199 16.27C13.9494 16.3594 14.1026 16.4082 14.2599 16.41C14.3712 16.4017 14.4792 16.3686 14.5761 16.3133C14.673 16.2579 14.7563 16.1816 14.8199 16.09H14.8699ZM17.1199 13.09C17.2241 12.9346 17.2665 12.7459 17.2388 12.5609C17.211 12.3759 17.1151 12.2079 16.9699 12.09C15.5793 10.9953 13.865 10.3927 12.0953 10.3764C10.3256 10.3601 8.60045 10.9311 7.18992 12C7.0361 12.1326 6.94125 12.3209 6.92625 12.5234C6.91125 12.726 6.97732 12.9262 7.10992 13.08C7.24253 13.2338 7.43082 13.3287 7.63336 13.3437C7.8359 13.3587 8.0361 13.2926 8.18992 13.16C9.33222 12.3019 10.7291 11.8514 12.1575 11.8804C13.5859 11.9094 14.9634 12.4163 16.0699 13.32C16.2007 13.4155 16.358 13.4679 16.5199 13.47C16.6322 13.4575 16.7402 13.4195 16.8355 13.3588C16.9309 13.2982 17.0111 13.2165 17.0699 13.12L17.1199 13.09ZM18.5899 9.84C18.6943 9.68302 18.7348 9.49213 18.7032 9.30629C18.6716 9.12045 18.5703 8.95367 18.4199 8.84C16.5758 7.45893 14.3339 6.7125 12.0299 6.7125C9.72598 6.7125 7.48405 7.45893 5.63992 8.84C5.4861 8.97261 5.39125 9.16089 5.37625 9.36343C5.36125 9.56597 5.42732 9.76617 5.55992 9.92C5.69253 10.0738 5.88082 10.1687 6.08336 10.1837C6.28589 10.1987 6.4861 10.1326 6.63992 10C8.21537 8.78368 10.1496 8.1239 12.1399 8.1239C14.1303 8.1239 16.0645 8.78368 17.6399 10C17.7657 10.0892 17.9157 10.138 18.0699 10.14C18.2558 10.1147 18.4244 10.0178 18.5399 9.87L18.5899 9.84Z" fill="black"/>
</svg>
