<svg width="24" height="24" viewBox="0 0 24 24" fill="none" xmlns="http://www.w3.org/2000/svg">
<path d="M6.34983 22.58C5.31308 22.5796 4.31256 22.1985 3.53829 21.509C2.76403 20.8196 2.26993 19.8698 2.14983 18.84L1.26983 11.32C1.18442 10.594 1.28773 9.8582 1.56976 9.18377C1.85179 8.50935 2.30302 7.91907 2.87983 7.46998L9.57983 2.29998C10.3481 1.71348 11.2927 1.405 12.2591 1.42499C13.2254 1.44497 14.1564 1.79223 14.8998 2.40999L21.2498 7.75998C21.8242 8.23853 22.2611 8.86106 22.5158 9.56387C22.7706 10.2667 22.8341 11.0246 22.6998 11.76L21.4498 19C21.2841 19.9855 20.774 20.8801 20.0103 21.5247C19.2467 22.1693 18.2791 22.522 17.2798 22.52H6.35983L6.34983 22.58ZM12.1698 2.91998C11.5653 2.91912 10.9777 3.11968 10.4998 3.48998L3.79983 8.65998C3.43216 8.95095 3.1466 9.33264 2.97125 9.7675C2.79591 10.2023 2.73683 10.6754 2.79983 11.14L3.67983 18.67C3.75818 19.3338 4.07734 19.9458 4.57683 20.39C5.07631 20.8342 5.72141 21.0797 6.38983 21.08H17.3098C17.9574 21.081 18.5841 20.8509 19.0772 20.4311C19.5703 20.0114 19.8975 19.4294 19.9998 18.79L21.2498 11.46C21.3317 10.9907 21.2888 10.5082 21.1256 10.0607C20.9624 9.61318 20.6846 9.21638 20.3198 8.90998L13.9298 3.55998C13.4365 3.14656 12.8135 2.91998 12.1698 2.91998ZM11.9998 15.48C11.802 15.48 11.6087 15.5386 11.4443 15.6485C11.2798 15.7584 11.1516 15.9146 11.0759 16.0973C11.0003 16.28 10.9805 16.4811 11.019 16.6751C11.0576 16.8691 11.1529 17.0472 11.2927 17.1871C11.4326 17.3269 11.6108 17.4222 11.8047 17.4608C11.9987 17.4994 12.1998 17.4796 12.3825 17.4039C12.5652 17.3282 12.7214 17.2 12.8313 17.0356C12.9412 16.8711 12.9998 16.6778 12.9998 16.48C12.9998 16.2148 12.8945 15.9604 12.7069 15.7729C12.5194 15.5853 12.265 15.48 11.9998 15.48ZM14.5098 15C14.6503 14.8594 14.7292 14.6687 14.7292 14.47C14.7292 14.2712 14.6503 14.0806 14.5098 13.94C14.175 13.5834 13.7707 13.2992 13.3218 13.1049C12.8729 12.9106 12.389 12.8104 11.8998 12.8104C11.4107 12.8104 10.9267 12.9106 10.4778 13.1049C10.0289 13.2992 9.62463 13.5834 9.28983 13.94C9.17218 14.0834 9.11188 14.2654 9.12057 14.4507C9.12927 14.6361 9.20634 14.8116 9.33691 14.9434C9.46747 15.0752 9.64226 15.1539 9.8275 15.1644C10.0127 15.1748 10.1953 15.1163 10.3398 15C10.5375 14.7845 10.7778 14.6124 11.0455 14.4947C11.3132 14.377 11.6024 14.3162 11.8948 14.3162C12.1873 14.3162 12.4765 14.377 12.7442 14.4947C13.0119 14.6124 13.2522 14.7845 13.4498 15C13.5905 15.1404 13.7811 15.2193 13.9798 15.2193C14.1786 15.2193 14.3692 15.1404 14.5098 15ZM16.6498 12.55C16.7144 12.4752 16.7635 12.3885 16.7945 12.2947C16.8254 12.2008 16.8375 12.1019 16.8301 12.0034C16.8226 11.9049 16.7958 11.8088 16.7511 11.7207C16.7065 11.6326 16.6449 11.5542 16.5698 11.49C11.7998 7.35998 7.24983 11.49 7.19983 11.49C7.11182 11.5507 7.03781 11.6296 6.98278 11.7213C6.92774 11.813 6.89295 11.9154 6.88074 12.0216C6.86853 12.1278 6.87918 12.2355 6.91197 12.3372C6.94476 12.439 6.99895 12.5326 7.07088 12.6118C7.14281 12.6909 7.23084 12.7537 7.32905 12.796C7.42726 12.8383 7.53338 12.8592 7.6403 12.8571C7.74721 12.8551 7.85246 12.8301 7.94896 12.7841C8.04546 12.738 8.131 12.6718 8.19983 12.59C9.20524 11.6673 10.5202 11.1554 11.8848 11.1554C13.2495 11.1554 14.5644 11.6673 15.5698 12.59C15.7219 12.7179 15.918 12.7811 16.1161 12.7661C16.3143 12.7512 16.4987 12.6592 16.6298 12.51L16.6498 12.55Z" fill="black"/>
</svg>
