<svg width="24" height="24" viewBox="0 0 24 24" fill="none" xmlns="http://www.w3.org/2000/svg">
<path d="M4.88003 22.7699H4.79002C4.28986 22.7584 3.79742 22.6441 3.34327 22.4342C2.88912 22.2244 2.48297 21.9234 2.15003 21.5499C1.52462 20.8207 1.20206 19.8798 1.24855 18.9202C1.29504 17.9607 1.70705 17.0553 2.40003 16.3899L7.05003 11.7499C7.3006 11.5042 7.49133 11.2042 7.60751 10.873C7.72368 10.5418 7.76218 10.1884 7.72003 9.83994C7.5647 8.75797 7.64648 7.65517 7.9597 6.60795C8.27291 5.56072 8.81007 4.59412 9.53395 3.77512C10.2578 2.95611 11.1511 2.30428 12.1519 1.8648C13.1528 1.42532 14.2372 1.2087 15.33 1.22994C15.6875 1.23653 16.0351 1.34825 16.3294 1.55116C16.6238 1.75407 16.8518 2.03917 16.9852 2.37089C17.1185 2.70261 17.1512 3.06625 17.0791 3.41643C17.0071 3.76661 16.8335 4.08781 16.58 4.33994L13.71 7.20994C13.5896 7.32651 13.5078 7.47719 13.4756 7.64168C13.4434 7.80617 13.4624 7.97657 13.53 8.12994C14.0131 9.15326 14.8367 9.97691 15.86 10.4599C16.0121 10.5253 16.1805 10.5431 16.3429 10.511C16.5054 10.4789 16.6543 10.3983 16.77 10.2799L19.65 7.39994C19.9027 7.14982 20.223 6.97915 20.5715 6.90902C20.92 6.83889 21.2815 6.87237 21.6112 7.00532C21.9409 7.13826 22.2244 7.36486 22.4268 7.65713C22.6292 7.9494 22.7416 8.29454 22.75 8.64994C22.7713 9.74279 22.5546 10.8272 22.1152 11.828C21.6757 12.8288 21.0239 13.7221 20.2048 14.446C19.3858 15.1699 18.4192 15.7071 17.372 16.0203C16.3248 16.3335 15.222 16.4153 14.14 16.2599C13.7909 16.2198 13.4372 16.2603 13.1061 16.3781C12.775 16.496 12.4753 16.6882 12.23 16.9399L7.47003 21.6899C7.13092 22.0319 6.72748 22.3034 6.28296 22.4888C5.83844 22.6741 5.36164 22.7697 4.88003 22.7699ZM15.18 2.76994C14.3103 2.76009 13.4488 2.93945 12.6553 3.29559C11.8618 3.65173 11.1552 4.17614 10.5844 4.83248C10.0137 5.48882 9.59251 6.2614 9.35001 7.09669C9.1075 7.93198 9.0495 8.81001 9.18003 9.66994C9.25391 10.2489 9.19309 10.8371 9.00228 11.3887C8.81148 11.9403 8.49586 12.4404 8.08003 12.8499L3.46003 17.4499C3.04461 17.8482 2.7944 18.3884 2.75919 18.9628C2.72398 19.5372 2.90636 20.1039 3.27003 20.5499C3.46506 20.77 3.70335 20.9475 3.97003 21.0714C4.23671 21.1953 4.52606 21.2629 4.82003 21.2699C5.11439 21.2751 5.4068 21.2211 5.67991 21.1111C5.95303 21.0012 6.2013 20.8376 6.41003 20.6299L11.17 15.8799C11.5768 15.4603 12.0766 15.1421 12.6289 14.951C13.1813 14.7599 13.7709 14.7013 14.35 14.7799C15.2184 14.912 16.1053 14.8519 16.9479 14.6036C17.7905 14.3554 18.5683 13.9252 19.2264 13.3434C19.8845 12.7616 20.4069 12.0424 20.7565 11.2366C21.1062 10.4308 21.2747 9.558 21.25 8.67994C21.2501 8.61702 21.2309 8.55557 21.1952 8.50377C21.1595 8.45197 21.1089 8.41227 21.05 8.38994C20.9931 8.36493 20.9298 8.35823 20.8689 8.37077C20.808 8.38331 20.7525 8.41447 20.71 8.45994L17.83 11.3399C17.4943 11.6811 17.061 11.9095 16.5899 11.9937C16.1187 12.0779 15.6331 12.0137 15.2 11.8099C13.8894 11.1782 12.8318 10.1206 12.2 8.80994C11.9955 8.37538 11.9308 7.88803 12.015 7.41516C12.0992 6.94229 12.328 6.5072 12.67 6.16994L15.54 3.29994C15.5868 3.2584 15.6189 3.20285 15.6315 3.14157C15.6441 3.08029 15.6366 3.01658 15.61 2.95994C15.5866 2.90189 15.5466 2.85199 15.495 2.81644C15.4435 2.78089 15.3826 2.76125 15.32 2.75994L15.18 2.76994ZM5.55003 19.8099L11.07 14.2899C11.2473 14.104 11.3462 13.8569 11.3462 13.5999C11.3462 13.343 11.2473 13.0959 11.07 12.9099C10.8846 12.7356 10.6396 12.6385 10.385 12.6385C10.1305 12.6385 9.88548 12.7356 9.70002 12.9099L4.17003 18.4399C3.99565 18.6254 3.89857 18.8704 3.89857 19.1249C3.89857 19.3795 3.99565 19.6245 4.17003 19.8099C4.356 19.9872 4.60308 20.0861 4.86003 20.0861C5.11697 20.0861 5.36405 19.9872 5.55003 19.8099Z" fill="black"/>
</svg>
