<svg width="24" height="24" viewBox="0 0 24 24" fill="none" xmlns="http://www.w3.org/2000/svg">
<path d="M12 22.75C9.87386 22.75 7.79545 22.1195 6.02762 20.9383C4.2598 19.7571 2.88194 18.0782 2.0683 16.1139C1.25466 14.1495 1.04177 11.9881 1.45656 9.90278C1.87135 7.81749 2.89519 5.90202 4.39861 4.39861C5.90202 2.89519 7.81749 1.87135 9.90278 1.45656C11.9881 1.04177 14.1495 1.25466 16.1139 2.0683C18.0782 2.88194 19.7571 4.2598 20.9383 6.02762C22.1195 7.79545 22.75 9.87386 22.75 12C22.7474 14.8503 21.6139 17.583 19.5985 19.5985C17.583 21.6139 14.8503 22.7474 12 22.75ZM12 2.75C10.1705 2.75 8.38213 3.29251 6.86098 4.30891C5.33983 5.32531 4.15423 6.76997 3.45412 8.46018C2.75401 10.1504 2.57083 12.0103 2.92774 13.8046C3.28465 15.5989 4.16563 17.2471 5.45927 18.5407C6.7529 19.8344 8.40109 20.7154 10.1954 21.0723C11.9897 21.4292 13.8496 21.246 15.5398 20.5459C17.23 19.8458 18.6747 18.6602 19.6911 17.139C20.7075 15.6179 21.25 13.8295 21.25 12C21.2474 9.54756 20.272 7.19633 18.5378 5.46219C16.8037 3.72805 14.4524 2.75265 12 2.75ZM16.47 15.6C16.2719 15.5974 16.0826 15.5176 15.9425 15.3775C15.8024 15.2374 15.7226 15.0481 15.72 14.85V9.15C15.72 8.95109 15.799 8.76033 15.9397 8.61967C16.0803 8.47902 16.2711 8.4 16.47 8.4C16.6689 8.4 16.8597 8.47902 17.0003 8.61967C17.141 8.76033 17.22 8.95109 17.22 9.15V14.85C17.22 15.0489 17.141 15.2397 17.0003 15.3803C16.8597 15.521 16.6689 15.6 16.47 15.6ZM14.36 14.85V11.85C14.3707 10.9473 14.023 10.0772 13.3931 9.43048C12.7633 8.78375 11.9027 8.41318 11 8.4H7.53C7.33109 8.4 7.14033 8.47902 6.99967 8.61967C6.85902 8.76033 6.78 8.95109 6.78 9.15V14.85C6.78 15.0489 6.85902 15.2397 6.99967 15.3803C7.14033 15.521 7.33109 15.6 7.53 15.6C7.72892 15.6 7.91968 15.521 8.06034 15.3803C8.20099 15.2397 8.28 15.0489 8.28 14.85V9.9H11C11.5058 9.90263 11.99 10.1047 12.3477 10.4623C12.7053 10.82 12.9074 11.3043 12.91 11.81V14.81C12.91 15.0089 12.989 15.1997 13.1297 15.3403C13.2703 15.481 13.4611 15.56 13.66 15.56C13.8589 15.56 14.0497 15.481 14.1903 15.3403C14.331 15.1997 14.41 15.0089 14.41 14.81L14.36 14.85ZM13.61 14.85H7.53H11.32V12C11.32 11.8011 11.241 11.6103 11.1003 11.4697C10.9597 11.329 10.7689 11.25 10.57 11.25C10.3711 11.25 10.1803 11.329 10.0397 11.4697C9.89902 11.6103 9.82 11.8011 9.82 12V14.85C9.82 15.0489 9.89902 15.2397 10.0397 15.3803C10.1803 15.521 10.3711 15.6 10.57 15.6C10.7689 15.6 10.9597 15.521 11.1003 15.3803C11.241 15.2397 11.32 15.0489 11.32 14.85H13.61Z" fill="black"/>
</svg>
