<svg width="24" height="24" viewBox="0 0 24 24" fill="none" xmlns="http://www.w3.org/2000/svg">
<path d="M22.76 7.89998C22.7494 6.12732 22.0378 4.43086 20.7806 3.18113C19.5233 1.9314 17.8227 1.22995 16.05 1.22998H7.90998C7.02373 1.22995 6.14627 1.40547 5.32823 1.74643C4.5102 2.08738 3.76782 2.58701 3.14395 3.21646C2.52008 3.84591 2.02708 4.59271 1.69342 5.41374C1.35976 6.23478 1.19205 7.11377 1.19998 7.99998V16.08C1.20254 16.9671 1.38099 17.8449 1.72499 18.6626C2.06899 19.4803 2.57173 20.2217 3.20411 20.8438C3.83648 21.466 4.58595 21.9565 5.40915 22.2872C6.23235 22.6178 7.11294 22.7819 7.99998 22.77H16.13C17.0128 22.7648 17.886 22.5853 18.6994 22.242C19.5128 21.8987 20.2505 21.3983 20.8701 20.7694C21.4897 20.1404 21.9792 19.3954 22.3103 18.577C22.6415 17.7586 22.8079 16.8828 22.8 16L22.76 7.89998ZM19.76 19.68C19.2808 20.1678 18.7098 20.5559 18.0799 20.8219C17.4501 21.0879 16.7737 21.2266 16.09 21.23L7.99998 21.27C6.62338 21.27 5.30272 20.7252 4.32652 19.7546C3.35031 18.784 2.7979 17.4666 2.78998 16.09L2.69998 7.99998C2.69729 6.62072 3.24059 5.29646 4.21118 4.3165C5.18177 3.33654 6.50075 2.78055 7.87998 2.76998H16.02C17.3966 2.76996 18.7172 3.31475 19.6934 4.28533C20.6696 5.25592 21.222 6.57341 21.23 7.94998V16.03C21.2493 17.3888 20.7319 18.7004 19.79 19.68H19.76ZM12.13 8.93998L9.76998 12L12.13 15C12.2343 15.1537 12.2787 15.3404 12.2547 15.5246C12.2308 15.7089 12.1401 15.878 12 16C11.8691 16.1037 11.707 16.1601 11.54 16.16C11.4245 16.1604 11.3105 16.1345 11.2065 16.0843C11.1025 16.034 11.0114 15.9607 10.94 15.87L8.81997 13.2L6.69998 15.93C6.63011 16.0199 6.54067 16.0928 6.43844 16.1431C6.33622 16.1933 6.22388 16.2196 6.10998 16.22C5.96807 16.221 5.82878 16.1818 5.70828 16.1068C5.58778 16.0319 5.49102 15.9243 5.42923 15.7965C5.36745 15.6688 5.34318 15.5261 5.35924 15.3851C5.37531 15.2441 5.43104 15.1106 5.51998 15L7.86998 12L5.51998 8.99998C5.38737 8.8435 5.32235 8.64076 5.33923 8.43634C5.35611 8.23193 5.4535 8.04259 5.60998 7.90998C5.76645 7.77737 5.9692 7.71236 6.17361 7.72923C6.37803 7.74611 6.56737 7.8435 6.69998 7.99998L8.81997 10.73L10.94 7.99998C11.062 7.84218 11.2417 7.7393 11.4395 7.71398C11.6374 7.68867 11.8372 7.74298 11.995 7.86498C12.1528 7.98698 12.2557 8.16667 12.281 8.36452C12.3063 8.56237 12.252 8.76218 12.13 8.91998V8.93998ZM17.92 7.72998C17.8211 7.72864 17.723 7.74712 17.6314 7.78433C17.5398 7.82155 17.4566 7.87674 17.3866 7.94665C17.3167 8.01657 17.2615 8.09978 17.2243 8.19138C17.1871 8.28299 17.1686 8.38112 17.17 8.47998V11.22H16.17C15.5069 11.22 14.871 11.4834 14.4022 11.9522C13.9334 12.4211 13.67 13.0569 13.67 13.72C13.67 14.383 13.9334 15.0189 14.4022 15.4877C14.871 15.9566 15.5069 16.22 16.17 16.22H17.92C18.1189 16.22 18.3097 16.141 18.4503 16.0003C18.591 15.8597 18.67 15.6689 18.67 15.47V8.46998C18.6673 8.27281 18.5872 8.0846 18.4468 7.9461C18.3064 7.80761 18.1172 7.72996 17.92 7.72998ZM17.17 14.73H16.17C15.9048 14.73 15.6504 14.6246 15.4629 14.4371C15.2753 14.2496 15.17 13.9952 15.17 13.73C15.17 13.4648 15.2753 13.2104 15.4629 13.0229C15.6504 12.8353 15.9048 12.73 16.17 12.73H17.17V14.73Z" fill="black"/>
</svg>
