<svg width="24" height="25" viewBox="0 0 24 25" fill="none" xmlns="http://www.w3.org/2000/svg">
<path d="M17.46 15.66C17.2611 15.66 17.0703 15.581 16.9297 15.4403C16.789 15.2997 16.71 15.1089 16.71 14.91V11.43L14 13V14.93C14 15.1289 13.921 15.3197 13.7803 15.4603C13.6397 15.601 13.4489 15.68 13.25 15.68C13.0511 15.68 12.8603 15.601 12.7197 15.4603C12.579 15.3197 12.5 15.1289 12.5 14.93V12.55C12.5004 12.4178 12.5358 12.288 12.6025 12.1739C12.6693 12.0597 12.765 11.9652 12.88 11.9L17.08 9.47999C17.1929 9.41108 17.3227 9.37463 17.455 9.37463C17.5873 9.37463 17.7171 9.41108 17.83 9.47999C17.945 9.54522 18.0407 9.6397 18.1075 9.75385C18.1742 9.868 18.2096 9.99777 18.21 10.13V14.91C18.2074 15.1081 18.1276 15.2974 17.9875 15.4375C17.8474 15.5776 17.6581 15.6574 17.46 15.66ZM11.46 14.87V12.52C11.4596 12.3878 11.4242 12.258 11.3575 12.1439C11.2907 12.0297 11.195 11.9352 11.08 11.87L6.92 9.44999C6.80706 9.38108 6.67731 9.34463 6.545 9.34463C6.4127 9.34463 6.28295 9.38108 6.17 9.44999C6.05645 9.51437 5.96166 9.60728 5.89501 9.71953C5.82836 9.83177 5.79217 9.95947 5.79 10.09V14.87C5.79 15.0689 5.86902 15.2597 6.00967 15.4003C6.15033 15.541 6.34109 15.62 6.54 15.62C6.73892 15.62 6.92968 15.541 7.07033 15.4003C7.21099 15.2597 7.29 15.0689 7.29 14.87V11.39L10 13V14.92C10 15.1189 10.079 15.3097 10.2197 15.4503C10.3603 15.591 10.5511 15.67 10.75 15.67C10.9489 15.67 11.1397 15.591 11.2803 15.4503C11.421 15.3097 11.5 15.1189 11.5 14.92L11.46 14.87ZM11.96 23.25C9.83558 23.2421 7.76112 22.6049 5.99856 21.4189C4.236 20.2329 2.86438 18.5512 2.05686 16.5862C1.24935 14.6212 1.04217 12.461 1.46146 10.3784C1.88076 8.2957 2.90774 6.38398 4.41274 4.88457C5.91773 3.38515 7.83326 2.36528 9.91745 1.95372C12.0016 1.54216 14.1611 1.75737 16.123 2.57217C18.085 3.38697 19.7616 4.76484 20.941 6.53179C22.1205 8.29874 22.75 10.3755 22.75 12.5C22.7474 15.3503 21.6139 18.083 19.5985 20.0985C17.583 22.1139 14.8503 23.2473 12 23.25H11.96ZM11.96 3.24999C10.1305 3.24999 8.34213 3.79249 6.82098 4.8089C5.29983 5.8253 4.11423 7.26995 3.41412 8.96017C2.71401 10.6504 2.53083 12.5103 2.88774 14.3046C3.24465 16.0989 4.12563 17.7471 5.41927 19.0407C6.7129 20.3344 8.36109 21.2153 10.1554 21.5723C11.9497 21.9292 13.8096 21.746 15.4998 21.0459C17.19 20.3458 18.6347 19.1602 19.6511 17.639C20.6675 16.1179 21.21 14.3295 21.21 12.5C21.2074 10.0545 20.2375 7.70925 18.512 5.97625C16.7865 4.24325 14.4455 3.2632 12 3.24999H11.96Z" fill="black"/>
</svg>
