<svg width="24" height="24" viewBox="0 0 24 24" fill="none" xmlns="http://www.w3.org/2000/svg">
<path d="M15.92 15.0001C15.7167 12.6177 14.9821 10.3112 13.77 8.25006C12.8139 6.63478 11.5296 5.23804 10 4.15006C8.74644 3.27101 7.29307 2.7191 5.77197 2.54446C4.25087 2.36982 2.71024 2.57799 1.29004 3.15006C1.16604 3.20472 1.05944 3.29238 0.981851 3.40347C0.904262 3.51457 0.858666 3.64483 0.850037 3.78006C0.390037 10.1801 5.85004 11.5101 9.44004 12.3901C12.79 13.2001 14.1 14.8201 14.44 15.2901C14.4229 16.7503 13.8299 18.1448 12.79 19.1701C11.7985 20.2724 10.4624 21.0057 9.00004 21.2501C8.87682 20.3731 8.93958 19.48 9.18424 18.6289C9.42889 17.7778 9.84995 16.9877 10.42 16.3101L11.01 15.5401C11.119 15.3816 11.1628 15.1873 11.1326 14.9973C11.1023 14.8074 11.0003 14.6364 10.8475 14.5195C10.6947 14.4027 10.5029 14.349 10.3117 14.3696C10.1205 14.3902 9.94447 14.4834 9.82004 14.6301C9.64004 14.8701 9.45004 15.1101 9.24004 15.3701C8.44489 16.3121 7.88953 17.4327 7.62136 18.6359C7.35319 19.8392 7.38019 21.0895 7.70004 22.2801C7.75133 22.4252 7.846 22.551 7.97123 22.6404C8.09645 22.7298 8.24616 22.7786 8.40004 22.7801H8.49004C10.566 22.6757 12.5155 21.7513 13.91 20.2101C14.5917 19.5311 15.1229 18.7164 15.4692 17.8188C15.8154 16.9213 15.9691 15.9609 15.92 15.0001ZM9.80004 11.0001C5.53004 10.0001 2.25004 8.80006 2.33004 4.43006C3.4627 4.0532 4.668 3.94735 5.84901 4.12103C7.03003 4.29471 8.15382 4.74307 9.13004 5.43006C11.5677 7.24799 13.291 9.86296 14 12.8201C12.7321 11.9453 11.3053 11.327 9.80004 11.0001ZM18 14.8901C17.8403 14.887 17.6818 14.8601 17.53 14.8101C17.2598 14.7247 17.0208 14.5615 16.843 14.3409C16.6651 14.1204 16.5562 13.8522 16.53 13.5701C16.4236 12.0227 16.016 10.5111 15.33 9.12006C14.9986 8.55337 14.7845 7.92586 14.7003 7.2748C14.6162 6.62374 14.6637 5.96241 14.84 5.33006C15.1214 4.23964 15.7324 3.26262 16.5897 2.5324C17.447 1.80218 18.5087 1.35435 19.63 1.25006C19.8002 1.23673 19.9698 1.28266 20.11 1.38006C20.8848 1.83739 21.5468 2.4631 22.0471 3.21089C22.5473 3.95867 22.873 4.80939 23 5.70006C23.4 9.08006 20.74 12.6001 19.11 14.4001C18.9727 14.5587 18.8019 14.6849 18.61 14.7696C18.4181 14.8543 18.2098 14.8955 18 14.8901ZM19.5 2.78006C18.7387 2.89714 18.0285 3.23538 17.4578 3.75275C16.8871 4.27012 16.481 4.9438 16.29 5.69006C16.1564 6.1587 16.1229 6.65024 16.1918 7.13267C16.2607 7.6151 16.4305 8.07761 16.69 8.49006C17.4358 10.0353 17.8804 11.7085 18 13.4201C19.39 11.7901 21.78 8.67006 21.45 5.88006C21.3617 5.25514 21.1423 4.65593 20.8063 4.1217C20.4702 3.58747 20.0251 3.13027 19.5 2.78006Z" fill="black"/>
</svg>
