<svg width="24" height="24" viewBox="0 0 24 24" fill="none" xmlns="http://www.w3.org/2000/svg">
<path d="M10.44 15.69C10.2019 15.6913 9.96598 15.6454 9.74578 15.5549C9.52558 15.4644 9.32552 15.3312 9.15718 15.1628C8.98884 14.9945 8.85557 14.7944 8.76508 14.5742C8.67459 14.354 8.62867 14.1181 8.63 13.88V10.13C8.62764 9.80771 8.71138 9.49063 8.87257 9.21153C9.03375 8.93243 9.26654 8.70144 9.54688 8.54241C9.82721 8.38338 10.1449 8.3021 10.4672 8.30695C10.7895 8.3118 11.1046 8.40261 11.38 8.57L14.49 10.44C14.7592 10.6018 14.982 10.8305 15.1366 11.1038C15.2913 11.3772 15.3726 11.6859 15.3726 12C15.3726 12.3141 15.2913 12.6228 15.1366 12.8962C14.982 13.1695 14.7592 13.3982 14.49 13.56L11.38 15.43C11.097 15.6025 10.7714 15.6925 10.44 15.69ZM10.44 9.81C10.3984 9.80998 10.3573 9.81832 10.319 9.83452C10.2807 9.85072 10.2461 9.87445 10.2172 9.9043C10.1883 9.93416 10.1656 9.96952 10.1507 10.0083C10.1357 10.0471 10.1287 10.0885 10.13 10.13V13.88C10.128 13.9356 10.1419 13.9906 10.1703 14.0385C10.1987 14.0864 10.2402 14.1251 10.29 14.15C10.3368 14.1782 10.3904 14.1931 10.445 14.1931C10.4996 14.1931 10.5532 14.1782 10.6 14.15L13.72 12.27C13.7654 12.2411 13.8028 12.2012 13.8287 12.154C13.8547 12.1068 13.8682 12.0538 13.8682 12C13.8682 11.9462 13.8547 11.8932 13.8287 11.846C13.8028 11.7988 13.7654 11.7589 13.72 11.73L10.6 9.85C10.5511 9.82292 10.4959 9.80912 10.44 9.81ZM17.07 20.75H6.93C5.42438 20.7474 3.98119 20.1481 2.91655 19.0834C1.85192 18.0188 1.25264 16.5756 1.25 15.07V8.93C1.25264 7.42438 1.85192 5.98119 2.91655 4.91655C3.98119 3.85192 5.42438 3.25264 6.93 3.25H17.07C18.5756 3.25264 20.0188 3.85192 21.0834 4.91655C22.1481 5.98119 22.7474 7.42438 22.75 8.93V15.07C22.7474 16.5756 22.1481 18.0188 21.0834 19.0834C20.0188 20.1481 18.5756 20.7474 17.07 20.75ZM6.93 4.75C5.82221 4.75264 4.76054 5.19388 3.97721 5.97721C3.19388 6.76054 2.75264 7.82221 2.75 8.93V15.07C2.75 16.1786 3.19039 17.2418 3.97429 18.0257C4.7582 18.8096 5.82139 19.25 6.93 19.25H17.07C18.1786 19.25 19.2418 18.8096 20.0257 18.0257C20.8096 17.2418 21.25 16.1786 21.25 15.07V8.93C21.2474 7.82221 20.8061 6.76054 20.0228 5.97721C19.2395 5.19388 18.1778 4.75264 17.07 4.75H6.93Z" fill="black"/>
</svg>
